<svg width="124" height="22" viewBox="0 0 124 22" fill="none" xmlns="http://www.w3.org/2000/svg">
<g clip-path="url(#clip0)">
<path d="M35.12 4.8H37.04V14.304H42V16H35.12V4.8ZM45.5106 16.144C44.6466 16.144 43.9906 15.9307 43.5426 15.504C43.0946 15.0773 42.8706 14.4853 42.8706 13.728C42.8706 13.312 42.9346 12.9387 43.0626 12.608C43.2013 12.2667 43.4146 11.984 43.7026 11.76C44.0013 11.5253 44.38 11.3493 44.8386 11.232C45.308 11.104 45.8786 11.04 46.5506 11.04H47.8946V10.56C47.8946 10.176 47.788 9.888 47.5746 9.696C47.372 9.49333 47.0306 9.392 46.5506 9.392C46.1026 9.392 45.7773 9.47733 45.5746 9.648C45.372 9.81867 45.2493 10.0427 45.2066 10.32H43.1906C43.2333 9.60533 43.5213 9.01867 44.0546 8.56C44.5986 8.09067 45.4306 7.856 46.5506 7.856C47.6173 7.856 48.4173 8.10133 48.9506 8.592C49.484 9.08267 49.7506 9.73867 49.7506 10.56V16H48.2946L48.1026 14.896C47.8253 15.3013 47.4626 15.6107 47.0146 15.824C46.5773 16.0373 46.076 16.144 45.5106 16.144ZM45.8306 14.608C46.1293 14.608 46.4013 14.56 46.6466 14.464C46.9026 14.3573 47.1213 14.2187 47.3026 14.048C47.484 13.8667 47.628 13.664 47.7346 13.44C47.8413 13.216 47.8946 12.976 47.8946 12.72V12.48H46.5506C45.9106 12.48 45.4626 12.5867 45.2066 12.8C44.9506 13.0133 44.8226 13.3013 44.8226 13.664C44.8226 13.952 44.908 14.1813 45.0786 14.352C45.26 14.5227 45.5106 14.608 45.8306 14.608ZM55.9351 16.144C55.3698 16.144 54.8685 16.0427 54.4311 15.84C54.0045 15.6373 53.6525 15.3333 53.3751 14.928L53.1991 16H51.7431V4.8H53.5991V8.8C54.1645 8.17067 54.9431 7.856 55.9351 7.856C56.3938 7.856 56.8151 7.94133 57.1991 8.112C57.5938 8.272 57.9298 8.51733 58.2071 8.848C58.4845 9.168 58.7031 9.57333 58.8631 10.064C59.0231 10.544 59.1031 11.104 59.1031 11.744V12.256C59.1031 12.896 59.0231 13.456 58.8631 13.936C58.7031 14.416 58.4791 14.8213 58.1911 15.152C57.9138 15.4827 57.5831 15.7333 57.1991 15.904C56.8151 16.064 56.3938 16.144 55.9351 16.144ZM55.3751 14.416C55.9405 14.416 56.3778 14.2453 56.6871 13.904C56.9965 13.5627 57.1511 13.0133 57.1511 12.256V11.744C57.1511 11.008 56.9911 10.464 56.6711 10.112C56.3511 9.76 55.9191 9.584 55.3751 9.584C54.8631 9.584 54.4418 9.76 54.1111 10.112C53.7911 10.464 53.6205 10.976 53.5991 11.648V12.256C53.5991 12.96 53.7645 13.4987 54.0951 13.872C54.4365 14.2347 54.8631 14.416 55.3751 14.416ZM63.9763 16.144C63.4003 16.144 62.8829 16.0587 62.4243 15.888C61.9656 15.7067 61.5709 15.4507 61.2403 15.12C60.9096 14.7787 60.6536 14.368 60.4723 13.888C60.3016 13.408 60.2163 12.864 60.2163 12.256V11.744C60.2163 11.136 60.3016 10.592 60.4723 10.112C60.6536 9.632 60.9096 9.22667 61.2403 8.896C61.5709 8.55467 61.9656 8.29867 62.4243 8.128C62.8829 7.94667 63.4003 7.856 63.9763 7.856C65.1389 7.856 66.0563 8.21333 66.7283 8.928C67.4003 9.64267 67.7362 10.6667 67.7362 12V12.624H62.0723C62.1256 13.296 62.3123 13.7813 62.6323 14.08C62.9523 14.368 63.4003 14.512 63.9763 14.512C64.5416 14.512 64.9523 14.416 65.2083 14.224C65.4749 14.0213 65.6509 13.7867 65.7363 13.52H67.6562C67.5709 13.8933 67.4376 14.24 67.2563 14.56C67.0749 14.88 66.8349 15.1573 66.5363 15.392C66.2376 15.6267 65.8749 15.8133 65.4483 15.952C65.0216 16.08 64.5309 16.144 63.9763 16.144ZM63.9763 9.488C63.4323 9.488 63.0056 9.62133 62.6963 9.888C62.3869 10.1547 62.1896 10.576 62.1043 11.152H65.8483C65.7736 10.5547 65.5763 10.128 65.2563 9.872C64.9469 9.616 64.5203 9.488 63.9763 9.488ZM71.9609 16C71.1182 16 70.4675 15.776 70.0089 15.328C69.5609 14.8693 69.3369 14.2133 69.3369 13.36V4.8H71.1929V13.168C71.1929 13.584 71.2835 13.888 71.4649 14.08C71.6462 14.272 71.9235 14.368 72.2969 14.368H72.6969V16H71.9609ZM81.7394 16.144C80.342 16.144 79.3074 15.8293 78.6354 15.2C77.9634 14.56 77.5847 13.5733 77.4994 12.24H79.5474C79.6007 13.008 79.7927 13.552 80.1234 13.872C80.4647 14.1813 81.0034 14.336 81.7394 14.336C82.5074 14.336 83.0674 14.192 83.4194 13.904C83.782 13.616 83.9634 13.264 83.9634 12.848C83.9634 12.432 83.8087 12.112 83.4994 11.888C83.19 11.664 82.8007 11.4827 82.3314 11.344C81.862 11.1947 81.3554 11.056 80.8114 10.928C80.2674 10.7893 79.7607 10.6027 79.2914 10.368C78.822 10.1333 78.4327 9.81333 78.1234 9.408C77.814 9.00267 77.6594 8.45867 77.6594 7.776C77.6594 7.328 77.7447 6.91733 77.9154 6.544C78.086 6.16 78.3367 5.82933 78.6674 5.552C79.0087 5.264 79.4354 5.04533 79.9474 4.896C80.4594 4.736 81.0567 4.656 81.7394 4.656C83.1047 4.656 84.102 4.95467 84.7314 5.552C85.3714 6.13867 85.734 7.03467 85.8194 8.24H83.7714C83.718 7.6 83.5367 7.14133 83.2274 6.864C82.9287 6.58667 82.4274 6.448 81.7234 6.448C80.998 6.448 80.4754 6.58133 80.1554 6.848C79.8354 7.104 79.6754 7.41867 79.6754 7.792C79.6754 8.18667 79.83 8.49067 80.1394 8.704C80.4487 8.90667 80.838 9.07733 81.3074 9.216C81.7767 9.35467 82.2834 9.49333 82.8274 9.632C83.3714 9.76 83.878 9.94667 84.3474 10.192C84.8167 10.4267 85.206 10.7573 85.5154 11.184C85.8247 11.6 85.9794 12.1653 85.9794 12.88C85.9794 13.36 85.894 13.8027 85.7234 14.208C85.5527 14.6027 85.2914 14.944 84.9394 15.232C84.598 15.52 84.1607 15.744 83.6274 15.904C83.094 16.064 82.4647 16.144 81.7394 16.144ZM86.3925 8H87.8325V5.76H89.6885V8H91.6725V9.632H89.6885V13.168C89.6885 13.584 89.7792 13.888 89.9605 14.08C90.1525 14.272 90.4352 14.368 90.8085 14.368H91.8325V16H90.4725C89.6192 16 88.9632 15.776 88.5045 15.328C88.0565 14.8693 87.8325 14.2133 87.8325 13.36V9.632H86.3925V8ZM96.0781 16.144C95.1395 16.144 94.3981 15.856 93.8541 15.28C93.3101 14.6933 93.0381 13.8133 93.0381 12.64V8H94.8941V12.64C94.8941 13.2267 95.0328 13.6693 95.3101 13.968C95.5875 14.2667 95.9501 14.416 96.3981 14.416C96.9421 14.416 97.3741 14.2613 97.6941 13.952C98.0248 13.6427 98.2008 13.232 98.2221 12.72V8H100.078V16H98.6221L98.4781 15.12C98.1901 15.4507 97.8435 15.7067 97.4381 15.888C97.0328 16.0587 96.5795 16.144 96.0781 16.144ZM104.853 16.144C104.384 16.144 103.957 16.064 103.573 15.904C103.189 15.744 102.853 15.504 102.565 15.184C102.288 14.8533 102.069 14.448 101.909 13.968C101.76 13.4773 101.685 12.9067 101.685 12.256V11.744C101.685 11.104 101.765 10.544 101.925 10.064C102.085 9.584 102.304 9.17867 102.581 8.848C102.869 8.51733 103.205 8.272 103.589 8.112C103.973 7.94133 104.394 7.856 104.853 7.856C105.845 7.856 106.624 8.17067 107.189 8.8V4.8H109.045V16H107.589L107.413 14.928C107.136 15.3333 106.778 15.6373 106.341 15.84C105.904 16.0427 105.408 16.144 104.853 16.144ZM105.413 14.416C105.914 14.416 106.33 14.2453 106.661 13.904C106.992 13.552 107.168 13.04 107.189 12.368V11.744C107.189 11.04 107.018 10.5067 106.677 10.144C106.346 9.77067 105.925 9.584 105.413 9.584C104.848 9.584 104.41 9.75467 104.101 10.096C103.792 10.4267 103.637 10.976 103.637 11.744V12.256C103.637 12.992 103.797 13.536 104.117 13.888C104.437 14.24 104.869 14.416 105.413 14.416ZM111.198 8H113.054V16H111.198V8ZM112.126 7.04C111.785 7.04 111.497 6.928 111.262 6.704C111.038 6.46933 110.926 6.18133 110.926 5.84C110.926 5.49867 111.038 5.216 111.262 4.992C111.497 4.75733 111.785 4.64 112.126 4.64C112.457 4.64 112.739 4.75733 112.974 4.992C113.209 5.216 113.326 5.49867 113.326 5.84C113.326 6.18133 113.209 6.46933 112.974 6.704C112.739 6.928 112.457 7.04 112.126 7.04ZM118.572 16.144C117.367 16.144 116.423 15.8027 115.74 15.12C115.068 14.4373 114.732 13.4827 114.732 12.256V11.744C114.732 11.136 114.817 10.592 114.988 10.112C115.169 9.632 115.425 9.22667 115.756 8.896C116.097 8.55467 116.503 8.29867 116.972 8.128C117.441 7.94667 117.975 7.856 118.572 7.856C119.777 7.856 120.716 8.19733 121.388 8.88C122.071 9.56267 122.412 10.5173 122.412 11.744V12.256C122.412 12.864 122.321 13.408 122.14 13.888C121.969 14.368 121.713 14.7787 121.372 15.12C121.041 15.4507 120.636 15.7067 120.156 15.888C119.687 16.0587 119.159 16.144 118.572 16.144ZM118.572 14.416C119.18 14.416 119.644 14.24 119.964 13.888C120.295 13.536 120.46 12.992 120.46 12.256V11.744C120.46 11.0187 120.289 10.48 119.948 10.128C119.617 9.76533 119.159 9.584 118.572 9.584C117.964 9.584 117.495 9.76 117.164 10.112C116.844 10.464 116.684 11.008 116.684 11.744V12.256C116.684 12.9813 116.849 13.5253 117.18 13.888C117.521 14.24 117.985 14.416 118.572 14.416Z" fill="black"/>
<path fill-rule="evenodd" clip-rule="evenodd" d="M3 3H19V19H3V3Z" fill="#E68F52" fill-opacity="0.2"/>
<path fill-rule="evenodd" clip-rule="evenodd" d="M16 1.6C16 1.03995 16 0.759921 16.109 0.546009C16.2049 0.357847 16.3578 0.204867 16.546 0.108993C16.7599 0 17.0399 0 17.6 0H20.4C20.9601 0 21.2401 0 21.454 0.108993C21.6422 0.204867 21.7951 0.357847 21.891 0.546009C22 0.759921 22 1.03995 22 1.6V4.4C22 4.96005 22 5.24008 21.891 5.45399C21.7951 5.64215 21.6422 5.79513 21.454 5.89101C21.2401 6 20.9601 6 20.4 6H20V16H20.4C20.9601 16 21.2401 16 21.454 16.109C21.6422 16.2049 21.7951 16.3578 21.891 16.546C22 16.7599 22 17.0399 22 17.6V20.4C22 20.9601 22 21.2401 21.891 21.454C21.7951 21.6422 21.6422 21.7951 21.454 21.891C21.2401 22 20.9601 22 20.4 22H17.6C17.0399 22 16.7599 22 16.546 21.891C16.3578 21.7951 16.2049 21.6422 16.109 21.454C16 21.2401 16 20.9601 16 20.4V20H6V20.4C6 20.9601 6 21.2401 5.89101 21.454C5.79513 21.6422 5.64215 21.7951 5.45399 21.891C5.24008 22 4.96005 22 4.4 22H1.6C1.03995 22 0.759921 22 0.546009 21.891C0.357847 21.7951 0.204867 21.6422 0.108993 21.454C0 21.2401 0 20.9601 0 20.4V17.6C0 17.0399 0 16.7599 0.108993 16.546C0.204867 16.3578 0.357847 16.2049 0.546009 16.109C0.759921 16 1.03995 16 1.6 16H2V6H1.6C1.03995 6 0.759921 6 0.546009 5.89101C0.357847 5.79513 0.204867 5.64215 0.108993 5.45399C0 5.24008 0 4.96005 0 4.4V1.6C0 1.03995 0 0.759921 0.108993 0.546009C0.204867 0.357847 0.357847 0.204867 0.546009 0.108993C0.759921 0 1.03995 0 1.6 0H4.4C4.96005 0 5.24008 0 5.45399 0.108993C5.64215 0.204867 5.79513 0.357847 5.89101 0.546009C6 0.759921 6 1.03995 6 1.6V2H16V1.6ZM6 4V4.4C6 4.96005 6 5.24008 5.89101 5.45399C5.79513 5.64215 5.64215 5.79513 5.45399 5.89101C5.24008 6 4.96005 6 4.4 6H4V16H4.4C4.96005 16 5.24008 16 5.45399 16.109C5.64215 16.2049 5.79513 16.3578 5.89101 16.546C6 16.7599 6 17.0399 6 17.6V18H16V17.6C16 17.0399 16 16.7599 16.109 16.546C16.2049 16.3578 16.3578 16.2049 16.546 16.109C16.7599 16 17.0399 16 17.6 16H18V6H17.6C17.0399 6 16.7599 6 16.546 5.89101C16.3578 5.79513 16.2049 5.64215 16.109 5.45399C16 5.24008 16 4.96005 16 4.4V4H6Z" fill="#E68F52"/>
</g>
<defs>
<clipPath id="clip0">
<rect width="124" height="22" fill="white"/>
</clipPath>
</defs>
</svg>
