<svg id="Layer_1" xmlns="http://www.w3.org/2000/svg" viewBox="0 0 530 161"><style>.st0{fill:#3E295E;} .st1{fill:#F8EB32;} .st2{fill:none;stroke:#211E1F;stroke-miterlimit:10;} .st3{fill:#FFFFFF;} .st4{fill:#449A46;} .st5{fill:#338841;} .st6{fill:#F0BC35;}</style><path class="st0" d="M274.7 123.1c-6.4 0-12.2-1.9-17.7-3.7-1.5-.5-3.1-1-4.7-1.5-6.6-2-13.5-4-21.2-4.6-1.2-.1-2.3-.1-3.4-.1-3.8 0-7.1.6-9.6 1.8-.7.3-1.4.9-2.1 1.6-.8.7-1.7 1.6-2.4 1.6h-.1c-.6-.1-.6-.3-.7-.5-.3-.9.3-2.6 1-3.4 2.4-2.8 6.9-4.8 12.5-5.8h.1c2.2-.5 3.5-1.4 4.6-2.2 1.1-.8 2.1-1.4 3.8-1.6h.6c.8 0 .9.2 1.4 1.1.4.7.8 1.6 1.8 2.3h.1c.1.1.3.1.4.1.7.1 1.5.2 2.2.3h.5c1.1-.3 2.2-.9 3.1-1.5.6-.4 1.1-.7 1.5-.9.9-.4 1.7-.6 2.2-.6.9 0 1.5.6 3 2.1 1.6 1.7 3 2.5 4.6 2.5 1.5 0 2.8-.8 4-1.7 1.2-.9 2.4-1.7 4-1.7h.6c1.3.2 2.6 1.6 3.9 3 1.6 1.8 3.2 3.6 5.5 3.6 1.3 0 2.5-.6 3.8-1.8.8-.8 1.3-1.7 1.7-2.4.7-1.2 1.1-2 2.5-2.4.2-.1.5-.1.7-.1 1 0 1.9.5 2.9 1.1 1 .5 2 1.1 3.3 1.3.4.1.8.1 1.3.1 1.2 0 2.5-.2 4.1-.8 1.2-.4 2.4-.9 3.5-1.3l.4-.2c.1-.1.2-.1.4-.2 6.3-5.8 9.7-13.6 10.5-24.1 0-.5-.2-.9-.6-1.1-.2-.1-.4-.2-.6-.2-.2 0-.4.1-.6.2-.7.5-1.5 1-2.3 1.6-3.2 2.2-7.2 5-11.3 5-.9 0-1.8-.1-2.7-.4-2.4-.8-3.9-2.4-4.6-4.9-1.4-5 1.1-11.6 4.2-15.2 3.4-3.9 10.6-8 17.2-8 3 0 5.6.8 7.8 2.5.2.2.5.2.7.2h.3c.5-.1.9-.2 1.3-.2.7 0 1 .2 1.1.4.7.9.6 3.2-.3 6.3-.3 1-.7 2.1-1 3.2-.5 1.6-1.1 3-1.3 4.4-.4 2.1-.5 4-.6 5.9-.1 1.5-.2 3-.4 4.4-1.5 10.1-4.5 17-9.6 22.6-5.4 5.9-14.9 13.1-29.1 14.1-.7-.2-1.5-.2-2.2-.2zm34.8-58.9c-8 .1-17.7 6.3-18.1 14.1v.2c-.1.9-.1 2.2.9 3.4.2.3.6.4.9.4h.2c10-2 14.4-9.8 17.2-16.3.2-.4.1-.8-.1-1.2-.2-.3-.6-.6-1-.6zM209 95.2c-3.2 0-5.5-2.9-5.5-7.1 0-.5-.3-.9-.7-1.1-.2-.1-.4-.1-.5-.1-.3 0-.5.1-.7.2-.4.3-.7.5-1.1.8-2.9 2.2-6.3 4.6-10.5 5.2-.7.1-1.4.1-2 .1-3.9 0-7.1-1.7-8.9-4.7-1.9-3.2-1.8-7.3.4-11.2 3.4-6.2 12.8-13.5 21.9-14.2.4 0 .9-.1 1.3-.1 2.4 0 4 .6 6 1.6.2.1.4.1.6.1.4 0 .8-.2 1-.5 1.4-2.1 1.7-3.9.9-5.3-1-1.9-3.7-2.9-8.1-2.9-2.4 0-5 .3-7.4.8-3.2.7-6.4 1.5-8.2 2.6-.9.6-1.3 1.2-1.6 1.6-.1.1-.2.3-.2.3-.6.3-1.4.5-2.1.5-1.3 0-2.7-.6-2.8-1.8-.2-3.3 7.3-6.1 10.1-7.2 4.8-1.8 10.2-2.8 14.6-2.8 4.2 0 9.8.9 12 5.5 2.2 4.5-.1 10.2-2 14.8-.3.8-.6 1.6-.9 2.3l-.4 1.1c-1.4 3.8-2.8 7.3-3.5 12.7-.1.4.1.8.4 1.1.2.2.5.3.8.3.1 0 .3 0 .4-.1 2-.7 3.4-2.1 4.8-3.6l1.3-1.3c.3-.3.8-.7 1.2-1.1 1.7-1.4 3.6-3.1 4.2-5 .4-1.2.4-2.5.5-3.8 0-.7 0-1.4.1-2.1 1.6-11.9 4.9-28.2 14.9-32.7.8-.3 1.5-.5 2.3-.5 2.9 0 5.5 2.6 5.7 5.8.2 3.2-1.3 7-2.5 10.1l-.1.2c-2.9 7.5-6.8 14.2-12.2 21.2-.1.2-.4.5-.7.8-.9 1-2.1 2.2-2.4 3.5-.8 3.6 1.7 6.7 2.5 7.7.2.3.6.5.9.5.1 0 .2 0 .3-.1 4.7-1.4 7.5-4.7 10.2-7.8l2.1-2.4c.2-.2.3-.5.3-.8.4-9.2 2.3-25.7 10.7-33.8 1.5-1.4 4.8-3.8 8-3.8 1.1 0 2 .3 2.8.9 1.6 1.2 2.3 3.5 2 6.5-.6 5.6-3.6 10.7-6.6 15.6-.4.6-.7 1.2-1.1 1.8-2.8 4.8-6.2 9.7-10.2 15.1-.2.3-.3.6-.2.9.1 1 .2 2 .2 3.2.1 1.7.1 3.6.6 5 .2.5.6.8 1.2.8h.3c8.1-2.1 14.3-10.4 17.3-15.2l.9-1.5c.9-1.5 2-3.4 3-3.7.3-.1.5-.1.8-.1 1.4 0 2.5 1.1 2.7 1.8.2 1.2-.3 2.3-1 3.5-.2.4-.4.8-.6 1.3l-.1.2c-1.3 2.8-2.4 5.3-1.9 9.6.1.6.5 1 1 1.1.3 0 .5.1.8.1 2.3 0 3.4-1.5 4.2-2.5.7-.9 1-1.3 1.7-1.3.6 0 1.4.6 1.4 1.2.1 1-.4 2.2-1.5 3.3-2 2.2-5.5 3.8-8.3 3.8-2.3 0-3.9-1.1-4.7-3.1-.1-.4-.4-.6-.8-.7h-.3c-.3 0-.5.1-.7.3-.5.4-1 .8-1.6 1.3-3 2.5-7.1 5.9-11.3 6.4-.5.1-.9.1-1.4.1-4.8 0-6.2-4.1-6.6-6.5-.1-.4-.3-.8-.7-.9-.2-.1-.3-.1-.5-.1s-.5.1-.7.2c-.4.3-.9.7-1.4 1-2.8 2.1-6.6 4.9-10.4 4.9-1.2 0-2.4-.3-3.5-.9-2-1.1-3.2-3.1-4.4-5.9-.1-.3-.4-.5-.7-.6-.1 0-.3-.1-.4-.1-.2 0-.4 0-.5.1-1.6.8-3.3 2.3-5.2 4-2.2 1.9-4.4 4-6.5 4.9-.9.5-1.7.7-2.5.7zm-6.2-26c-1 0-2.1.1-3.1.4-5.1 1.3-12.3 6-14.8 10.9-.9 1.7-1.1 3.5-.7 5.1.1.3.2.5.5.6.9.6 2.1 1 3.6 1 1.2 0 2.3-.2 2.9-.4 3.8-1 7.1-3.3 10-5.4 1.3-.9 2.6-1.8 3.8-2.5.3-.2.5-.5.6-.9.2-1 .5-1.8.8-2.7.5-1.3 1-2.6 1.1-4.3 0-.5-.3-1-.8-1.2-1.3-.4-2.6-.6-3.9-.6zm59.6-23.8c-.2 0-.5.1-.7.2-5.3 3.8-7.4 11.3-8.3 17-.1.6.3 1.2.8 1.3.1 0 .3.1.4.1.4 0 .9-.2 1.1-.7l2.1-3.9c2.1-3.8 4.3-7.8 5.8-12.5.2-.5 0-1-.5-1.3-.2-.1-.5-.2-.7-.2zm-22.2-1.1h-.4c-.2.1-.5.2-.6.4-3.6 3.8-6.3 10.3-7.4 17.8-.1.6.3 1.1.8 1.3.1 0 .3.1.4.1.4 0 .8-.2 1-.6 3.6-6.1 6-11.5 7.5-17 0-.1.1-.3 0-.4.1-1.6-1.1-1.6-1.3-1.6zm88 49.3c-2.1 0-3.7-.7-4.8-2.1-1.3-1.6-1.6-4-.9-6.8 2-8.1 9.7-16.7 20.3-16.7 1.4 0 2.8.2 4.2.5h.3c.4 0 .8-.2 1-.5.8-1.2 1.2-2.7 1.2-4.7 0-.4-.2-.8-.5-1-1.3-.8-2.9-1.3-4.9-1.3-1.5 0-3.2.2-5 .7-2.9.8-6 2.1-7.8 3.4-.5.3-.8.7-1.2 1.1-.5.5-.9.9-1.3 1h-.3c-.9 0-1.8-.6-2-1.2-.6-2.8 3.5-5.5 6-6.8 3.8-2 7.8-3.2 11.6-3.3h.7c5.7 0 9.5 2.4 10.1 6.4.6 4-.6 7.2-2 10.6-1.4 3.5-2.8 7-2.4 11.8 0 .3.2.6.4.8.5.5 1 .8 1.4 1 .7.4.8.5.8.8.1.7-.2 1.6-.8 2.4-.7.9-1.6 1.5-2.4 1.6h-.5c-3.3 0-4.1-4.4-4.3-5.3-.1-.4-.3-.7-.7-.9-.2-.1-.3-.1-.5-.1s-.4.1-.6.2c-1.2.7-2.4 1.7-3.8 2.8-3 2.4-6.4 5.1-10.2 5.6h-1.1zm17.1-21.4h-.1c-8.8.7-14.6 5.4-17.8 14.3-.2.4 0 .9.3 1.3.2.2.5.4.9.4.1 0 .3 0 .4-.1 4.5-1.6 8-4.1 11.4-6.6 1.5-1.1 3.1-2.2 4.7-3.2.3-.2.5-.5.6-.9.1-.6.3-1.2.4-1.8.2-.6.4-1.2.5-2 .1-.4-.1-.7-.3-1-.4-.2-.7-.4-1-.4zm48.5 21.2c-6.6 0-10-5.1-10.6-10.2-.5-4.8 1.1-9.9 4.1-13.3 1.6-1.7 4.3-3.8 8.2-3.8h.9c.5 0 1-.3 1.2-.9.9-2.9 4.1-5.3 7.2-5.3 1.2 0 2.3.3 3.3 1 2.8 1.8 4.9 5.9 4.9 10 0 .3.1.6.4.9.2.2.5.3.8.3h.1c1.8-.1 3.3-.3 4.6-.9.3-.1.5-.4.6-.6.3-.8.5-1.7.6-2.5.1-.6.2-1.3.4-1.8.1-.4 0-.9-.2-1.2-.4-.5-.9-.8-1.3-1.1-.8-.6-1-.8-1.1-1.4 0-.7.1-1.2.4-1.6.4-.4 1-.6 1.9-.6 1.6 0 3.6.8 4.7 1.9.4.4.9 1.1.9 1.8 0 .4.2.8.6 1.1.2.1.4.2.6.2.2 0 .4 0 .6-.1 1.2-.6 2.2-1.4 3.4-2.3 2.2-1.7 4.4-3.5 7.5-3.5.6 0 1.2.1 1.8.2 2.4.5 3.5 2.9 3.3 5-.2 1.9-1.5 4-4.7 4-.4 0-.9 0-1.4-.1-.4-.1-.8-.3-1.2-.5-.7-.4-1.4-.8-2.3-.8h-.1c-2.3.1-4.1 2.5-5.8 4.5-.8 1-1.5 2-2.1 2.3-.3.2-.5.5-.5.9-.2 1.7-.4 3.3-.7 5-.1.6-.2 1.2-.3 1.7-.1.8-.3 1.6-.5 2.4-.4 1.5-.8 3.1-.6 4.5.1.7.3 1.2.5 1.6.1.3.3.5.2.7 0 1.5-1.5 1.6-2.1 1.6-1.1 0-2.1-.5-2.5-1.1-1.6-2.4-1.2-7.3-.8-11.3.1-1.6.3-3.1.3-4.3 0-.6-.4-1.1-1-1.2h-.5c-.6 0-1.3.2-1.9.4-.6.2-1.2.4-1.8.4-.6 0-1.1.4-1.2 1-1.6 7.8-8.2 16.1-17.7 16.9-.4.1-.8.1-1.1.1zm2.1-24.1c-.5 0-1 .1-1.5.4-2.5 1.4-5.5 4.9-6.5 9.1-.7 2.9-.3 5.5 1.1 7.7.5.8 2.3 2.1 3.1 2.2.6.1 1.1.1 1.7.1 7.3 0 12.3-6.1 13.9-11.8.1-.3 0-.7-.2-1-.2-.3-.5-.5-.9-.5-3.1-.3-5.6-1.5-7.2-3.2-.2-.3-.5-.6-.7-.9-.6-1-1.4-2.1-2.8-2.1zm8.8-4.7h-.4c-1.4.2-2.2 1.2-2.1 2.6.1 2.1 2.3 4.6 4.7 4.6.2 0 .4 0 .6-.1.3-.1.6-.3.8-.5.2-.3.2-.6.2-1-.1-.2-.1-.5-.2-.8-.5-1.8-1.1-4.8-3.6-4.8zm44.1 26.1c-2 0-4.3-1-4.5-3.1-.3-3.6 2.8-4.4 4.1-4.6.3 0 .7-.1 1-.1 2.2 0 3.8 1.1 4.1 2.7.3 1.4.1 2.5-.6 3.4-.9 1.1-2.4 1.7-4.1 1.7zm-78.6-1.1h-.3c-2.4-.1-3.8-1.4-5.4-3.3-.2-.3-.6-.5-1-.5s-.7.2-1 .5c-.6.8-2.5 1.8-4.1 1.8-1.6 0-1.8-.9-1.8-1.7 0-.8.2-1 1-1.5.4-.2.8-.5 1.2-.8 1-.8 1.6-2 2.1-2.9.3-.6.6-1.1.8-1.3.2-.2.4-.5.4-.9.2-14.1.4-33.3 10.4-38.7.9-.5 1.9-.7 3-.7 1.5 0 3 .5 4 1.3 6.4 5.7.1 17.3-3.3 23.5-.2.4-.4.7-.6 1-.2.4-.2 1 .1 1.4.2.3.6.4.9.4.1 0 .3 0 .4-.1 1.1-.4 2.2-.6 3-.6.7 0 1.2.1 1.5.4.2.2.2.7.2 1-.2 1.4-3.1 2.1-5.4 2.7-1.4.3-2.8.6-3.8 1.1-.3.2-.6.5-.6.8-.2.7-1 1.9-1.8 2.9-1.2 1.5-2.3 3.1-2.6 4.6-.4 2.3.9 5.5 3 6.1.3.1.7.1 1 .1 1.2 0 2.1-.5 3-1 .6-.3 1.1-.6 1.6-.6.7 0 1.3.8 1.3 1.3 0 .4-.3.8-.6 1.1-1.3 1.4-4.3 2.6-6.6 2.6zm5.3-44.6c-.2 0-.5.1-.7.2-5.3 3.5-6.5 11.6-7 20 0 .6.4 1.1 1 1.3h.2c.5 0 1-.3 1.1-.8.6-1.6 1.6-3.4 2.6-5.3 2.4-4.3 5.1-9.1 3.9-14.4-.1-.4-.4-.7-.7-.9-.1 0-.2-.1-.4-.1zM278 63.2c-1.1 0-2.1-.4-2.7-1.1-.6-.7-.8-1.8-.6-3 .2-1.2 1.8-3.7 2.5-4.1.1 0 .3 0 .5-.1h1c2 0 2.8 1.6 3.1 2.2.6 1.5.4 3.7-1.3 5.2-.6.6-1.5.9-2.5.9zM490.5 89.6c-.4 0-.9 0-1.3-.1-3.8-.4-6.8-2.8-8.4-7-2.6-6.4-1.4-15.2 2.8-19.9 1.2-1.3 3.7-2.9 5.4-3h.1c.5 0 1 .2 1.7.3.6.2 1.3.4 2 .4h.5c.6 0 1.1-.1 1.6-.1.5-.1.9-.1 1.4-.1h.4c3.9.5 6.7 2.8 8.1 6.8.2.5.6.8 1.1.8.1 0 .3 0 .4-.1 1.7-.6 2.5-2 3.3-3.3.9-1.5 1.3-2.1 2.3-2.1.7 0 1 .1 1.1.3.2.3.1 1.6-1.5 4.1l-.2.3c-.6.9-1.6 2.5-2.2 3.2-.2.3-.7.6-1.1.9-.9.6-1.7 1.3-2.1 2.2-.4.9-.5 1.9-.6 2.8-.1.5-.1.9-.2 1.2-1.9 6.2-7 12.4-14.6 12.4zm-2.7-23.1c-.3 0-.7.1-.9.4-2.3 2.4-3.3 8.8-2.1 13.1.7 2.6 2.2 4.2 4.2 4.7.6.1 1.1.2 1.7.2 4.3 0 7.6-4.2 8.7-8.3.1-.3 0-.7-.2-1-.2-.3-.5-.5-.9-.5-4.9-.3-7.8-2.8-9.4-7.7-.1-.4-.5-.7-.9-.8-.1-.1-.2-.1-.2-.1zm7-1.3c-.5 0-1.1.1-1.6.2-.6.1-1.1.8-.9 1.4.7 3.4 3.9 4.2 6.1 4.6h.2c.3 0 .6-.1.9-.4.3-.3.4-.7.3-1.1-.8-4.1-3.5-4.7-5-4.7zM468 89.6c-.9 0-1.7-.3-2.5-.9-3.2-2.6-1.7-8.9-.4-13.9.3-1.4.7-2.7.9-3.9.1-.5-.1-1-.6-1.3-.2-.1-.3-.2-.5-.3-1.1-.6-1.4-.8-1.2-2.1.2-1.1 3.9-5 5.1-5.3.3-.1.7-.2 1-.2.7 0 1.3.3 1.8.9.5.6.8 1.5.8 2.5 0 2.7-.7 5.5-1.5 8.5-.8 3.1-1.7 6.4-1.7 9.7 0 .4.1.7.4.9.2.2.5.3.8.3h.2c2-.3 3-1.7 3.7-2.7.7-1.1 1.1-1.5 1.9-1.5.2 0 .9 0 1 .3.3.6-.4 2.5-1.4 3.8-1.7 2-4.9 5.2-7.8 5.2zm2.7-34.1c-1.4 0-3-.8-3.2-2.6-.2-1.4.1-3.1 2.2-3.4h.4c1.4 0 2.9 1.1 3.2 2.3.3 1.2.1 2.1-.4 2.7-.5.7-1.3 1-2.2 1z"/><g><path class="st1" d="M77.1 145.2c-.7 0-1.4-.2-2-.6-1.4-.8-2.1-2.4-1.8-4 0-.2 3-17.6-2-28.2-3.1-6.5-6.6-7.7-12.9-9.8-3.2-1.1-6.9-2.3-11-4.6-7-3.7-10.1-10.5-15.9-15.3-7.8-6.5-20.2-13-11.7-25.7 3.6-5.4 10.6-8.1 15.6-8.3h.8c3.8 0 6.8 1.3 9.3 2.4 1.3.6 2.6 1.1 3.6 1.3.3 0 .6.1.9.1.8 0 1.7-.1 2.7-.2 1.1-.1 2.4-.3 3.8-.3 1 0 1.8.1 2.7.2 1.4.3 2.8.5 3.9.5.5 0 .9 0 1.3-.1.8-.2 1.6-.4 2.4-.7 1.5-.5 3-.9 4.6-1.2.7-.1 1.4-.2 2.1-.2.7 0 1.3.1 1.9.1-3.7-2.7-6.7-6-5.5-9.9 1.4-4.7 7.5-5.2 12-5.2 2.3 0 4.9.2 7.8.5.6-5.4.7-14.3.7-14.4 0-1.5.9-2.9 2.3-3.5.5-.2 5.3-2.3 14.8-2.3h2.2c10.8.3 18 2.5 18.7 2.7.7.2 7.9 2.4 17.1 8 9.2 5.7 12.6 10.6 12.9 11.1.8 1.3.8 2.9 0 4.2-.5.9-5 7.9-7.3 12.5 3.7 1.9 6.6 3.7 8.8 5.4 1.5 1.2 6.2 4.8 4.9 9.3-1.2 3.8-5.5 4.9-9.4 5.2 1.9 5.1 1.8 10.1-.4 14.5l-.3.6c-1.1 2.2-1.2 2.4-.8 4.2.3 1.4.8 2.9 1.4 4.4.6 1.7 1.2 3.4 1.6 5.3 0 .1.2.6.3 1v.1c.3 1.2.9 3.1 1.3 4.8.6 2.6 1.3 5.3-1 7.1-.4.3-11.1 8.1-35.6 11.1-22.4 2.7-42.2 17.1-42.4 17.3-.7.4-1.5.6-2.4.6z"/><path class="st0" d="M118.9 48.7c10.4 3.1 19.7 6.6 26.3 9.8.5-1.5 1.1-3.3 2-5.1 2.4-4.9 7.9-13.6 7.9-13.6s-3-4.6-11.7-9.9c-9.1-5.6-16.2-7.6-16.2-7.6s-7.1-2.2-17.7-2.6c-10.2-.3-15.2 1.9-15.2 1.9s-.2 10.3-.9 15.7c-.2 1.9-.6 3.7-1.1 5.2 7.3 1.1 16.6 3.2 26.6 6.2z"/><ellipse transform="rotate(-73.357 117.345 54.826)" class="st0" cx="117.3" cy="54.8" rx="8.8" ry="45.7"/><ellipse transform="rotate(-73.357 116.722 55.994)" class="st0" cx="116.7" cy="56" rx="4.9" ry="33.2"/><path class="st0" d="M86.9 47c-.6.2-1.2.5-1.7.9-3 1.9-4.5 5-6.3 7.8-2.3-1-4.4-1.8-6.9-1.3-2.3.4-4.5 1.3-6.7 1.9-2.2.6-4.6.1-6.9-.3-3.5-.7-6.6.8-9.9.3-3.7-.5-7.6-3.9-12.9-3.6-4.5.2-10 2.8-12.6 6.6-2.5 3.7-2.4 12 3.1 13.2 2.4.5 4.1-.2 5.7 2.1 5.1 7.4 9.4 15.8 17.5 20.2 11.9 6.4 19.8 4.3 25.5 16.2 5.7 11.9 2.4 30.5 2.4 30.5s20.5-15.2 44.3-18c23.8-2.9 33.8-10.3 33.8-10.3.5-.4-1.9-8.2-2-9-.8-3.3-2.2-6.4-3-9.8-.8-3.3 0-4.5 1.4-7.3 2.5-5 1.2-10.4-1.5-15.1-2.4-4.2-6.2-7.9-10.8-9.7-8.2-3.2-11-3.7-11-3.7S126.9 49 111.1 47c-5.9-.7-11.7-1.9-17.6-1.4-2.3.2-4.5.5-6.6 1.4z"/><path class="st0" d="M28 71s1.3 7.1 2.6 7.1 2.1-7.1 2.1-7.1H28z"/><path class="st1" d="M111.3 109.7c7.1-3.1 14.3-6.3 21.1-10.2 5.1-3 11.4-6.8 14.2-12.3 5.7-11.3-7.2-20.4-16.8-22.2-1.6-.3-13.9-1.9-14.4.9.4-2.8 3.5-4 5-6.1 2.3-3.3-.9-3.9-3.5-5.1-4.5-1.9-9.1-3.4-14-3.5-5.1-.1-9.3.5-13.1 4.2-.7.7-1.6 1.6-1.7 2.6-.4 2.7 5.1 3.6 6.6 2.6.9-.6 1.9-1.1 2.8-1.5 2.8-1.3 5.8-2.2 8.8-2.6 2.7-.3 5.5-.5 8.1.4.7.2 1.5.5 2.1.9.1 0 .5.5.6.5h-4.4s-2.6 4.1-8.8 5.9c-6.2 1.8-14.4-1.8-14.4-1.8s-6-2.9-11.5-2.2c-5.5.7-6.6 0-6.6 0v2.6s-2.6-1.8-5.7-2.6-7.5-2.9-13-2c-5.5.9-6.6.2-11.7-2s-10.5-1.6-13.6 4c-3.1 5.5.9 9.1.9 9.1l4.6.1c1-.1 2-.1 2.9-.1.3-1.9 1.2-6.1 3.3-7.1 2.8-1.3 1.5 3.2 1.8 5.4.1 1 .3 1.9.5 2.7 3.7 1.4 7.2 3.5 12.1 2.8 5.9-.9 12.3-5 18-1.8.1 0 .2.1.2.1.6-1.3 1.9-4 3.3-4.4 1.8-.5.1 2.5-.1 4-.1.7-.2 1.4-.3 1.9.6.3 1.2.7 1.8 1 .4-1.5 1.1-3.7 2.2-4.2 1.7-.8.6 2.4.6 4 0 .6 0 1.1.1 1.6 2.9 1.2 5.7 1.9 8.6 1.5 5.5-.9 6.3-3.3 14.7.1 2.5 1 5.1 3.2 7.6 3.6 1.6.2 6.4-.1 6.2-2.6.1 1.1.9 1.6.3 2.8-.5 1-1.6 1.6-2.5 1.9-3 1-5.3-.7-7.9-1.7-3-1.1-6.2-3-9.4-3.3-4-.4-9.2 2.2-14.5 1.4-5.3-.9-9.7-7.3-16.9-6.4-7.3.9-9.9 4.4-16.3 2.6-1-.3-1.9-.6-2.7-.9-.1.2-.1.5-.2.8-.2 1.7.8 5.2-1.4 4.2-1.7-.8-2.4-5-2.6-6.7-2.4-1.1-4.6-2-7.6-2-.5 0-.9 0-1.4.1 1.8 3 6.3 10.2 11.8 15.3 7 6.6 13.9 6.8 13.9 6.8s-2-1.4-4-2.9-4.8-6.4-4.8-6.4 4.8 4.2 11.9 8c7 3.7 14.7 7.5 14.7 7.5s-1.1-.2-3.7-.7c-2.6-.4-7.7-2.4-7.7-2.4s6.8 5.9 13.6 10.3 19.1 9 19.1 9 2.6-.8 13.2-5.5zm-76-49.6c-2.3.7-4.3.5-4.6-.3-.3-.9 1.4-2.1 3.6-2.8 2.3-.7 4.3-.5 4.6.3.3.8-1.3 2.1-3.6 2.8z"/><path class="st3" d="M96 39.9c0 .2-.1.5-.1.7 7.1 1.6 14.9 3.7 22.9 6.1 8.9 2.7 17.2 5.5 24.5 8.4.1-.2.2-.5.3-.7-6.6-3.1-15-9.4-23.9-12.1-8.6-2.7-16.6-1.3-23.7-2.4zM98.8 60.9s2.5 1.9 5.7 1.2 5.7-3.1 5.7-3.1-1.9-.3-4.3-.2c-.1.4-.2.8-.4 1.2-.4.8-1.3 1.3-1.3 1.3s-.3-.4-.4-1.5c0-.3-.1-.5 0-.7-2.9.6-5 1.8-5 1.8zM146.7 94.7s-5.8 5.3-19.4 11.5c-14.6 6.6-29.8 11.8-44.6 18.1l-.9 7.9s11.1-6.4 27.1-10c16-3.6 26.9-5.8 32.2-7 5.3-1.1 9.4-3.5 9.4-3.5l-3.8-17z"/><path class="st4" d="M132.4 99.6c5.1-3 11.4-6.8 14.2-12.3 5.7-11.3-7.2-20.4-16.8-22.2-1.6-.3-13.9-1.9-14.4.9.4-2.8 3.5-4 5-6.1 2.3-3.3-.9-3.9-3.5-5.1-4.5-1.9-9.1-3.4-14-3.5-5.1-.1-9.3.5-13.1 4.2-.7.7-1.6 1.6-1.7 2.6-.4 2.7 5.1 3.6 6.6 2.6.9-.6 1.9-1.1 2.8-1.5 2.8-1.3 5.8-2.2 8.8-2.6 2.7-.3 5.5-.5 8.1.4.7.2 1.5.5 2.1.9.1 0 .5.5.6.5h-4.4s-2.6 4.1-8.8 5.9c-6.2 1.8-14.4-1.8-14.4-1.8s-6-2.9-11.5-2.2c-5.5.7-6.6 0-6.6 0v2.6s-2.6-1.8-5.7-2.6-7.5-2.9-13-2c-5.5.9-6.6.2-11.7-2s-10.5-1.6-13.6 4c-3.1 5.5.9 9.1.9 9.1l4.6.1c1-.1 2-.1 2.9-.1.3-1.9 1.2-6.1 3.3-7.1 2.8-1.3 1.5 3.2 1.8 5.4.1 1 .3 1.9.5 2.7 3.7 1.4 7.2 3.5 12.1 2.8 5.9-.9 12.3-5 18-1.8.1 0 .2.1.2.1.6-1.3 1.9-4 3.3-4.4 1.8-.5.1 2.5-.1 4-.1.7-.2 1.4-.3 1.9.6.3 1.2.7 1.8 1 .4-1.5 1.1-3.7 2.2-4.2 1.7-.8.6 2.4.6 4 0 .6 0 1.1.1 1.6 2.9 1.2 5.7 1.9 8.6 1.5 5.5-.9 6.3-3.3 14.7.1 2.5 1 5.1 3.2 7.6 3.6 1.3.2 3.1.1 4.3-.4 1.9-.9.7-2.2-1-2.1.5-.9 1.6-1.4 2.6-1.5 3.7-.3 5 4.8 6.2 7.4 1.8 3.9 1.5 8.2-.6 12-6.1 11.4-23.9 18.9-23.9 18.9s2.6-.8 13.2-5.5c7.4-2.8 14.6-6 21.4-9.8zM35.3 60.1c-2.3.7-4.3.5-4.6-.3-.3-.9 1.4-2.1 3.6-2.8 2.3-.7 4.3-.5 4.6.3.3.8-1.3 2.1-3.6 2.8z"/><path class="st5" d="M93.3 67.3c-2.8-1.3-5.5-4-7-5.8 1.8.6 3.1 1.2 3.1 1.2s8.3 3.5 14.4 1.8c.6-.2 1.1-.3 1.6-.5.2-.1.4-.1.6-.2h.1c.2-.1.3-.1.5-.2h.1c4.2-2 6-4.9 6-4.9h4.4s-1.5 5.1-7.9 8.1c-6.5 2.8-11.5 2.5-15.9.5zm-.6-6.1l-2.7-.5c.8.3 1.8.5 2.7.5zm37 3.9c-1.4-.3-10.1-1.4-13.2-.1l-.2.1-.8.6c-.1.1-.1.2-.2.4 0-.1 0-.2.1-.3l-4 3.1s19.2-2.5 24.2 9.3c4.9 11.7-8.6 23.1-18.7 29.1 5.3-2.3 10.5-4.8 15.5-7.7 5.1-3 11.4-6.8 14.2-12.3 5.7-11.3-7.3-20.4-16.9-22.2zm-58.2 6.5c.1 0 .2.1.2.1.3-.6.7-1.4 1.2-2.3-5.6-2.7-8.9-1.5-13.4.3-5.2 2-9.1 2.4-16.9-.9-.6-.2-1.2-.5-1.8-.7.1.9.3 1.7.5 2.4 3.7 1.4 7.2 3.5 12.1 2.8 6-.8 12.4-4.9 18.1-1.7zm-35.8-2c.1-.7.3-1.6.5-2.5-4-.7-7.8-.7-9.9-.6.6 2 1.8 3.1 1.8 3.1l4.6.1c1-.1 2-.1 3-.1zm41.5 2.3c-.5-.3-.9-.6-1.4-.9-.2-.2-.5-.3-.7-.4-.1.3-.2.5-.2.8-.1.7-.2 1.4-.3 1.9.6.3 1.2.7 1.8 1 .2-.7.5-1.6.8-2.4zM88 77.2c5.5-.9 6.3-3.3 14.7.1 2.5 1 5.1 3.2 7.6 3.6 1.1.2 3.7.1 5.1-.8.2-.3.3-.6.5-.9-1.8.4-6.2 1.1-8.6-1.1-3-2.8-5-4.6-12.5-3.5-6.2.9-10.1 1.1-15.5-1.5 0 .4-.1.7-.1 1 0 .6 0 1.1.1 1.6 2.9 1.2 5.8 1.9 8.7 1.5z"/><path class="st6" d="M109.5 110.5c.1 0 .1 0 .2-.1-.1 0-.1.1-.2.1zM98.2 115.2zM98.4 115.1s-.1 0 0 0c-.1 0 0 0 0 0zM98.6 115zM98.9 114.9h-.1.1zM49.4 77c9 .8 14-2.1 17.5-1.8 3.5.3 4 3.5 13.2 5s12.8-2.4 17.6.1c3.6 1.9 7.3 4.1 11.3 5.1 1.2.3 2.9.5 4.6.4 2.2-.2 4.2-1.1 4.5-3.3.3-1.8-1-2.7-1.5-4.1.2 1 .8 1.8.3 2.8-.5 1-1.6 1.6-2.5 1.9-3 1-5.3-.7-7.9-1.7-3-1.1-6.2-3-9.4-3.3-4-.4-9.2 2.2-14.5 1.4-5.3-.9-9.7-7.3-16.9-6.4-7.3.9-9.9 4.4-16.3 2.6-1-.3-1.9-.6-2.7-.9-.1.2-.1.5-.2.8v1.2c.9 0 1.9.1 2.9.2zM42.5 73c-2.4-1.1-4.6-2-7.6-2-.5 0-.9 0-1.4.1.6 1 1.4 2.4 2.6 4 1.7.3 4.1.8 7 1.2-.4-1.3-.5-2.5-.6-3.3zM52.7 87.3c.5 1.4.6 2.7-.9 2.8-3.2.2-15.7-15-15.8-15 2.3 3.4 5.6 7.8 9.3 11.3 7 6.6 13.9 6.8 13.9 6.8S57 91.4 55 89.9c-.7-.5-1.6-1.6-2.3-2.6zM62 91.4c.5.2.9.5 1.4.7-6.6-3.9-12.5-8-12.5-8.1 1.7 1.5 5.7 4.6 11.1 7.4zM118.2 101.5c-3.2 1.3-7.5 2.6-12.3 2.8-9.9.3-22.5-3.1-31.3-6.4 1.3.7 2.2 1.1 2.2 1.1s-1.1-.2-3.7-.7c-2.6-.4-7.7-2.4-7.7-2.4s6.8 5.9 13.6 10.3 19.1 9 19.1 9 12.5-5.3 20.1-13.7zM99.9 114.5c-.1 0-.1 0-.2.1.1 0 .1 0 .2-.1zM105.5 112.2c-.2.1-.3.1-.5.2.2 0 .4-.1.5-.2zM99.4 114.7h-.1c0 .1 0 .1.1 0zM104.2 112.8c-.1.1-.3.1-.4.2.1-.1.3-.2.4-.2zM108.8 110.8c-.3.1-.6.3-.9.4.3-.1.6-.3.9-.4zM107 111.6l-.6.3.6-.3zM101.2 114c-.1 0-.1.1-.2.1.1 0 .1-.1.2-.1zM100.5 114.3c-.1 0-.1 0-.2.1.1-.1.1-.1.2-.1zM102.1 113.7c-.1 0-.2.1-.3.1.1-.1.2-.1.3-.1zM103.1 113.2c-.1 0-.2.1-.3.1.1 0 .2 0 .3-.1z"/><path class="st0" d="M108.4 112c-6.1-2.7-13.9-8.2-14.2-16.7-.2-7.3.4-21.5.6-25.3 2-1 3.5-3.9 3.4-7.2-.1-4.1-2.5-7.4-5.4-7.3-2.8.1-5.1 3.5-4.9 7.6.1 4 2.4 7.3 5.2 7.3-.3 4-.9 18.7-.6 25.5.4 7.9 8.3 17.1 19.7 18.7 11.2 1.6 32 1.2 32 1.2l1.9-1.3c0-.1-31.6.2-37.7-2.5zm-19-49c-.1-2.8 1.3-5.1 3.2-5.2 1.8-.1 3.4 2.2 3.5 5 .1 2.8-1.3 5.1-3.2 5.2-1.9 0-3.5-2.2-3.5-5z"/></g></svg>