<svg viewBox="0 0 18 18" fill="none" xmlns="http://www.w3.org/2000/svg">
<path d="M11.3471 8.26019C11.4701 7.64517 11.5316 7.33766 11.6015 7.24589C11.8016 6.98314 12.197 6.98314 12.3971 7.24589C12.467 7.33766 12.5285 7.64517 12.6515 8.26019C12.7345 8.6753 12.776 8.88285 12.8503 9.06287C13.0534 9.55465 13.444 9.94526 13.9358 10.1483C14.1158 10.2226 14.3233 10.2641 14.7384 10.3471C15.3535 10.4701 15.661 10.5316 15.7527 10.6015C16.0155 10.8016 16.0155 11.197 15.7527 11.3971C15.661 11.467 15.3535 11.5285 14.7384 11.6515C14.3233 11.7345 14.1158 11.776 13.9358 11.8503C13.444 12.0534 13.0534 12.444 12.8503 12.9358C12.776 13.1158 12.7345 13.3233 12.6515 13.7384C12.5285 14.3535 12.467 14.661 12.3971 14.7527C12.197 15.0155 11.8016 15.0155 11.6015 14.7527C11.5316 14.661 11.4701 14.3535 11.3471 13.7384C11.2641 13.3233 11.2226 13.1158 11.1483 12.9358C10.9453 12.444 10.5546 12.0534 10.0629 11.8503C9.88285 11.776 9.6753 11.7345 9.26019 11.6515C8.64517 11.5285 8.33766 11.467 8.24589 11.3971C7.98314 11.197 7.98314 10.8016 8.24589 10.6015C8.33766 10.5316 8.64517 10.4701 9.26019 10.3471C9.6753 10.2641 9.88285 10.2226 10.0629 10.1483C10.5546 9.94526 10.9453 9.55465 11.1483 9.06287C11.2226 8.88285 11.2641 8.6753 11.3471 8.26019Z" fill="currentColor"/>
<path d="M5.34714 4.26019C5.47015 3.64517 5.53165 3.33766 5.60154 3.24589C5.80164 2.98314 6.197 2.98314 6.3971 3.24589C6.46699 3.33766 6.52849 3.64517 6.65149 4.26019C6.73451 4.6753 6.77603 4.88285 6.85035 5.06287C7.05338 5.55465 7.44399 5.94526 7.93576 6.14829C8.11578 6.22261 8.32334 6.26412 8.73845 6.34714C9.35347 6.47015 9.66098 6.53165 9.75275 6.60154C10.0155 6.80164 10.0155 7.197 9.75275 7.3971C9.66098 7.46699 9.35347 7.52849 8.73845 7.65149C8.32334 7.73451 8.11578 7.77603 7.93576 7.85035C7.44399 8.05338 7.05338 8.44399 6.85035 8.93576C6.77603 9.11578 6.73451 9.32334 6.65149 9.73845C6.52849 10.3535 6.46699 10.661 6.3971 10.7527C6.197 11.0155 5.80164 11.0155 5.60154 10.7527C5.53165 10.661 5.47015 10.3535 5.34714 9.73845C5.26412 9.32334 5.22261 9.11578 5.14829 8.93576C4.94526 8.44399 4.55465 8.05338 4.06287 7.85035C3.88285 7.77603 3.6753 7.73451 3.26019 7.65149C2.64517 7.52849 2.33766 7.46699 2.24589 7.3971C1.98314 7.197 1.98314 6.80164 2.24589 6.60154C2.33766 6.53165 2.64517 6.47015 3.26019 6.34714C3.6753 6.26412 3.88285 6.22261 4.06287 6.14829C4.55465 5.94526 4.94526 5.55465 5.14829 5.06287C5.22261 4.88285 5.26412 4.6753 5.34714 4.26019Z" fill="currentColor"/>
</svg>
