<svg id="_лой_1" data-name="—лой 1" xmlns="http://www.w3.org/2000/svg" viewBox="0 0 439.77 396.02"><defs><style>.cls-1{fill:#fff;}.cls-2{fill:#f9c2cf;}.cls-3{fill:#150010;}.cls-4{fill:#8aad00;}.cls-5{fill:#a3a3a3;}</style></defs><title>Монтажная область 2</title><path class="cls-1" d="M119.35,72.67c11.78-4.11,18.55-4.29,27.19-14.7,6.88-8.29,12.19-16.1,22.15-21.13,10.1-5.11,21.4-8.43,32.7-6.2,6.36,1.26,10.62,3,17.33.05,4.81-2.14,8.77-6.78,14-8.54,2.35-.79,5,0,7.32-.82,2.68-.9,4-2.67,6.67-4.18,5.09-2.89,10.93-3.09,16.67-3.15,11-.12,21.09-5.42,32-2.65,4.13,1,10.11,3.51,12.52,7.46,3.1,5.09-.38,9-2.67,13.7-2.8,5.73-2.83,9.33-2.5,15.48.41,7.81-1.52,9.08-7.2,13.5-8,6.25-11,15.82-18.33,23-7.92,7.76-15.2,13.45-19,24.3-1.46,4.18-4,12.3-1.52,16.55,3.47,6,8.81,2.35,14,.78,13.76-4.14,17.18,7,24.67,16.52,6.76,8.64,12.3,20.4,10.66,32-.87,6.21-4.39,6.92-6.68,11.3s-1.6,12.2-1.33,17.22c.88,16.87,2.73,33.74,4,50.65,1.18,15.79-1.21,30.84-3.18,46.31-2.87,22.53-4.23,53.36-22.15,70.52a29.3,29.3,0,0,1-18.85,8c-7.22.37-9-2.21-14.45-5.5-10.55-6.36-22,1-32.7,1.48-6.36.31-10.55-3.95-16-4.16-5.87-.23-11.73,1.66-18,.81-14-1.88-28.64-4.11-33.18-20-3.25-11.34,3-21.86,8.7-31.19a152.75,152.75,0,0,0,15.65-34c4.4-13.92,1.62-29.2.18-43.33-1.8-17.67-1.58-34.32,2.49-51.65,3.44-14.65,5.16-29.08,11-43.13,3.28-7.89,12.42-27.82,7.31-36.18-4-6.5-17.51,2.68-24.81,1.48-4.72-.78-5.41-3.87-9.32-6.18-5.22-3.08-6.88-.66-12,.71-9,2.42-20.23.82-25.17-7.87-2.32-4.08-6.52-24.93.5-25.33Z"/><path class="cls-2" d="M195.92,44.53a22.67,22.67,0,0,0-2,6.06c-.6,4.4-1.49,8.67,1.63,12.78,1.18,1.55,1.44,3.42,3.72,4.48,2.08,1,3.87,2.52,6,3.6-.08-9.62,5.1-15.9,14.49-19.75-.87-.69-1.6-1.33-2.4-1.88-1.38-.94-2.69-2.15-4.26-2.64-2.53-.78-3.92,1-5.55,2.48-5,4.41-6.68,9.76-6.22,15.83,0,.54.95,1.16-.31,1.43-1,.21-1.16-.55-1.42-1.09-.93-1.91-.34-3.85,0-5.75.69-3.77,1.92-7.34,5-10.17,1.76-1.59,3.4-3.29,5.13-5a59.5,59.5,0,0,0-8.38-2.81C198.85,41.49,196.91,42.3,195.92,44.53Z"/><path class="cls-3" d="M231.58,62.58c-.35,1.71,1.92,3.78,3.82,3.3,3.67-.93,7.43-1.82,10.53-3.89s6.79-3.63,10.16-5.48c2.57-1.42,9.49-6.29,9.81-6.59,2.45-2.29,5.51-4,7.53-6.7a10.34,10.34,0,0,1,3.07-2.85c1.89-1,2.74-2.79,4.6-4.23-1.77-.11-1.88,1-2.6,1.53-4.27,2.92-8.36,6.09-12.87,8.68-6.43,3.69-13.14,7-19.78,10.37-4.12,2.1-8.77,3.17-13,5C232.38,61.93,231.71,62,231.58,62.58Z"/><path class="cls-4" d="M257.93,66.31a53.93,53.93,0,0,1,5.66,4.35,5.57,5.57,0,0,1,1.51,2.39,1.1,1.1,0,0,1-.55,1.3c-.55.37-1.07,0-1.4-.47A14.1,14.1,0,0,0,261,71.37c-1.9-1.71-4.31-2.93-5.85-5a1.3,1.3,0,0,0-1.44-.5c-.64.24-.51.89-.42,1.36A24.84,24.84,0,0,0,256,75.07a6.16,6.16,0,0,0,3.21,3,27.48,27.48,0,0,0,7.3,1.48,5.16,5.16,0,0,0,4.85-2.46c1.11-1.58.92-3.4-.22-5.14a20.53,20.53,0,0,0-9.91-8,34.11,34.11,0,0,0-7.6-2.22C255.29,63.52,256.33,65.26,257.93,66.31Z"/><path class="cls-4" d="M259.61,37.36c-.4-1.77,0-3.55-.18-5.31-.07-.81.63-.93,1.15-1.11a.56.56,0,0,1,.78.62c-.69,3.38,1.57,6.51,1,9.87a1.37,1.37,0,0,0,1,1.52c.91.29,1.14-.71,1.35-1.11a38.85,38.85,0,0,0,3.59-8.49c1.14-4.67-1.58-10.19-6.27-12.44a2.92,2.92,0,0,0-3.09.18c-3.53,2.08-4,5.13-4.1,8.55-.06,4.24,2,8,3.08,12a6.87,6.87,0,0,0,1.6,2.92A20.76,20.76,0,0,0,259.61,37.36Z"/><path class="cls-4" d="M242.28,51.74c-1.08-4.16-2.6-8.24-3.13-12.51-.07-.6-.64-1.24.35-1.54,1.24-.38,1.33.72,1.36,1.21.15,2.75,2,5.08,2.28,7.78a2.65,2.65,0,0,0,.64,1.35c.6.85,1,1.14,1.71,0,2-2.94,3.31-6.18,3.11-9.5A12,12,0,0,0,242.65,29c-.91-.57-2.1-1-3.08-.08a12.43,12.43,0,0,0-2.82,3.57,13.24,13.24,0,0,0-1.21,6.74,11.78,11.78,0,0,0,.42,5.06c1,3,2.2,5.95,5,8.08.44.33.87.82,1.45.52S242.37,52.11,242.28,51.74Z"/><path class="cls-4" d="M271.36,49.47c-.6.2-1.79.24-1.6,1.12.15.66,1.15.81,1.91,1,1.62.33,3.22.76,4.86,1,1.25.2,2.18.94,1.87,1.83-.39,1.11-1.86.78-2.77.42a33,33,0,0,0-5-1.38,4.2,4.2,0,0,1-2.42-1c-.51-.57-1.34-.83-1.84-.34s.09,1.21.61,1.72a20.19,20.19,0,0,0,6.52,4.46C278.71,60.41,284,61.11,289,58a4.34,4.34,0,0,0,2.35-2.9c.39-2.83-1.65-5.52-4.66-6.6a14.06,14.06,0,0,0-5.38-.71A25.61,25.61,0,0,0,271.36,49.47Z"/><path class="cls-4" d="M286.23,35.86c4.26-2.47,7.38-5.92,10.25-9.58,2.2-2.8,1.37-5.06-2.19-6.3-4.68-1.63-8.34.72-11.72,2.87s-6,4.81-4.82,9c-.09.75-.27,1.76.47,2.14s1.39-.48,2-.88c2.07-1.31,4.13-2.62,6.17-4,.47-.31.87-.67,1.49-.39.84.39.27.9.22,1.43-.19,2-1.87,3.22-2.76,4.85-.2.36-1,.6-.59,1.05S285.73,36.15,286.23,35.86Z"/><path class="cls-2" d="M180.92,57.27c.36,3.29,3.32,5.52,6.72,5.74a23.19,23.19,0,0,1,3.69.62c.56.13,1.14.39,1.59,0s0-.91-.21-1.36c-.83-2.32-1.94-4.71-1.58-7.09.66-4.45,1.12-9,3.78-13.3-3.16.3-6,.56-8.84.85-.61.06-1.21.26-1.81.36-.4.07-3,4.16-3.44,5.35C179.65,51.41,180.61,54.38,180.92,57.27Z"/><path class="cls-2" d="M210.67,76.85c2.16-3.41,4.29-6.82,8.17-9a33.41,33.41,0,0,1,8.64-3.06c.64-.16,1.41-.23,1.53-1.11a2.07,2.07,0,0,1-.35-.63c-.61-3.75-3.77-6.23-5.76-9.28a1.32,1.32,0,0,0-1.87-.3,5.55,5.55,0,0,1-1.68.7c-4.17,1.12-7.08,4-9.25,6.91-3.58,4.78-3.43,10.31-1.28,15.74.16.4,0,.88.79.91S210.37,77.32,210.67,76.85Z"/><path class="cls-2" d="M233.61,78.93c2.21,0,2.42-.25,1.68-2-1.24-3-2.55-5.89-3.73-8.87-.44-1.1-1.19-1.48-2.55-1.35-.75-.36-1.5.23-2.29.39-3.74.75-7.16,2-9.83,4.7a29,29,0,0,0-4.1,5.88,9,9,0,0,0-.77,7.19c.54,2.24,1.65,2.42,3.47.74A25.36,25.36,0,0,1,233.61,78.93Z"/><path class="cls-2" d="M215.43,125.95a3.17,3.17,0,0,1,2.24-1.17c1.33-.19,1.87.78,2.56,1.44.9.85,1.6,1.3,2.25-.17.14-.33.57-.56.87-.83,1.82-1.64,2.58-1.65,4.66-.12.78.58,1.36.23,1.88-.4,2-2.44,2.92-2.58,5.24-.34,1.43,1.38,3.41-.74,4.64.87a.73.73,0,0,0,.59,0,3.55,3.55,0,0,0,.64-1.34,26.12,26.12,0,0,0,.47-6c-.43-3.52-.22-7.06-.74-10.57-.06-.39.06-1.27-.45-1-2.3,1.07-3.67-.66-5.32-1.31a17.36,17.36,0,0,0-10.89-.66c-3.61,1-8,.86-9.44,5.55a31.73,31.73,0,0,0-1.33,5.66,41.31,41.31,0,0,1,7.25-2.91,23,23,0,0,1,17.95.83,4.17,4.17,0,0,1,1.44,1.09c.7.86.29,1.42-.8,1.57a2.83,2.83,0,0,1-1.77-.42c-2.4-1.27-5-2.53-7.74-2.58-4.35-.08-8.42,1.31-12.33,2.93a15.69,15.69,0,0,0-5,3,2,2,0,0,0-.62,2.33c.43.62,1.37-.21,1.94-.5A24.81,24.81,0,0,1,222,118.1c2.75-.3,5.61-.8,8.58-.3,2.06.35,4,.93,6.05,1.32,1.08.21,2.26.22,2.69,1.37.21.56.25,1.21-.41,1.53a3.33,3.33,0,0,1-3.2-.4c-2.86-1.81-6-1.83-9.29-1.85-5.32,0-9.77,2-14.27,4.05-.53.24-1.72.67-1.09,1.72C212.14,127.35,214.13,127.57,215.43,125.95Z"/><path class="cls-2" d="M221,102.86c3.15-.7,6.25-1.46,9.58-1a23.86,23.86,0,0,1,8.28,2.27c.46.24,1.67,1.11,1.62-.23a26.27,26.27,0,0,0-.16-3.58c-1-5.42-1.86-10.85-2.9-16.26-.23-1.17.08-2.93-1.94-3.12a19.76,19.76,0,0,0-4.86.09,27.56,27.56,0,0,0-11.4,4.27c-1.57,1-3.23,2-4.08,3.52s-.36,3.45-1.15,5.11c-.17.36.26.94.39,1.42s.58.6.26,1-.51.87,0,1.16.91-.06,1.31-.38.82-.47,1.21-.73c4.38-2.88,9.13-4.88,14.73-4.45,2.1.16,4.39.37,5.14,3.12a12,12,0,0,1-3.4-.3,9.88,9.88,0,0,0-6.06-.64c-2.44.46-4.49,1.58-6.71,2.43-3.73,1.43-5,4.55-6.54,7.46-.14.27-.51.63,0,1s.75,0,1.12-.11A34.72,34.72,0,0,1,221,102.86Z"/><path class="cls-2" d="M192.27,72a4.48,4.48,0,0,0-3.33-.86A8.23,8.23,0,0,0,182,73.88a1.91,1.91,0,0,0-.34,2.14c.33.76,1.14.26,1.81.14a6.48,6.48,0,0,1,2.32-.07,19.42,19.42,0,0,1,9.89,4.49c1.23,1.13,1.6.59,2.09-.51C199,77.37,193.09,72.63,192.27,72Z"/><path class="cls-2" d="M180.52,79.84c-2,1.8-.51,2.16.68,2.95a10.85,10.85,0,0,1,3.77,4,5.81,5.81,0,0,1-.26,6.08c-.36.62-.75,1.54-.17,2,.35.29,1.33-.15,2-.56,2-1.25,3.85-2.71,5.73-4.1,2.66-2,1-4.86,2.85-6.77.07-.08-.3-.51-.49-.77-2.34-3.21-6-4.19-10.23-4.83C183.25,78.46,181.85,78.65,180.52,79.84Z"/><path class="cls-2" d="M158.79,74.76c2.83-.68,5.78-1,8.82-2.66-3.5.26-6.12-.76-8.77-1.78-1.43-.55-2-1.7-2.77-2.74a1,1,0,0,1,.48-1.49c.61-.29,1.26-.12,1.41.42.6,2.12,2.7,2.57,4.49,3.11,3.09.94,6.21,1.14,8.82-1.47-4.11-2.41-7.66-5.12-9.4-9.31-.22-.53-.44-.92,0-1.36s.77-.81,1.43-.63a1,1,0,0,1,.79,1.19c-.11.69.35,1.2.59,1.78,1.16,2.82,3.87,4.41,6.37,6s3.86,1.23,5.83-.35c.9-.72,1.06-1.39,0-1.91a16,16,0,0,1-3.83-3.13c-2.72-2.52-3.29-5.69-3.31-9a4.71,4.71,0,0,1,.58-2.17,1.55,1.55,0,0,1,1.94-.81c.91.35.22.92.05,1.41-1.1,3.36-.72,6.44,2.09,9.09,1.71,1.62,3.19,3.45,6,3.7,1.28.11.72,0,.5-.69-.73-2.35-1.76-4.59-2-7.12-.36-3.64-.28-7.08,1.42-10.46a3.78,3.78,0,0,0-.58-.15,3.49,3.49,0,0,0-1.21.23c-7.92,1.86-13.7,6.61-18.54,12A22.11,22.11,0,0,0,154.23,72c0,1.21.53,2.42.07,3.64,1.52.35,2.71-.56,4.06-.84C158.5,74.75,158.66,74.79,158.79,74.76Z"/><path class="cls-3" d="M173.69,80.19a5,5,0,0,0,3.59-4.4c0-.76.13-1.66-1.13-1.68a20.94,20.94,0,0,0-4.67.11c-8.7,1.86-17.34,4-26.07,5.72-4.54.89-9.11,2.21-14,.93a4,4,0,0,0-4.28,1.81,3,3,0,0,0,.25,3.67A12.73,12.73,0,0,1,129,89c1.69,3.18,3.42,2.76,6.8,1.58.83-.29,1.36-1,2.43-1,5.54,0,10.65-1.69,15.77-3.33C160.56,84.16,167,81.9,173.69,80.19Z"/><path class="cls-2" d="M180.44,84.59a3.89,3.89,0,0,0-2.89-.92c-1.11.16-.84,1.15-1.29,1.69-2.41,2.92-4.53,6.24-9.36,6.3-.35,0-.76,0-.76.44a.88.88,0,0,0,.27.64,23.24,23.24,0,0,0,9.86,3.92c3.56,0,6-1.65,6.79-3.92A6.75,6.75,0,0,0,180.44,84.59Z"/><path class="cls-2" d="M174.67,83.42c.56-1.1.06-1.57-1.21-1.14-3.68,1.27-7.39,2.43-11.17,3.45-1.66.45-1.69,1.2-.37,2.31,1.48,1.24,3.5,1.05,5,1.49.5.26.71,0,1,0C171.49,88.63,173.27,86.18,174.67,83.42Z"/><path class="cls-2" d="M181.11,66.83c.27,1.3-1.41,1.08-2.06,2a2.36,2.36,0,0,1,1.86,1.41c.38,1,.92,1,1.88.37a11,11,0,0,1,5.73-1.49A12.3,12.3,0,0,1,195.59,71c-1.18-4.2-3.56-5.82-7.71-5.67a11.25,11.25,0,0,1-3.13-.25,5.36,5.36,0,0,0-5.15,1.2C180.08,66.66,181,66.13,181.11,66.83Z"/><path class="cls-5" d="M226.46,322.9a7.24,7.24,0,0,1,1.15-1.32,32.88,32.88,0,0,0,6.71-6.67,46.58,46.58,0,0,1,3.21-3.71,1.38,1.38,0,0,1,1.9-.13c.75.54.39,1.08-.16,1.61a9.25,9.25,0,0,0-2,2.18c-.66,1.35-2.31,2.19-2.66,4a125.88,125.88,0,0,1,15.2-4.94c2.81-.63,3.81-.47,5.07,1.94,1.42,2.7,3,5.4,2.8,8.55a1.91,1.91,0,0,0,.93,1.85,24.36,24.36,0,0,1,1.67-2.14c.67-.69,0-2.48,2-2,1.64.35.47,1.8,1.45,2.9.62-2.28,1.66-3.43,4.33-2.6,1.33.42,3.89-1.59,4.11-2.8.74-4.08.21-8.25,1.28-12.33,1.17-4.48.32-9.12.91-13.69s2.16-8.89,2.7-13.44c.36-3,1.28-6,1.4-9.12a48.54,48.54,0,0,1,1.42-9,64.58,64.58,0,0,0,1.58-10.39c.16-2.43.34-4.85.37-7.28q.14-12.18.16-24.35c0-4.28-.08-8.56-.08-12.84,0-1.81.47-3.68.11-5.41-.44-2.1,1.56-4.67-1.39-6.32,0,0,.1-.31.16-.47A126.6,126.6,0,0,0,285,179.29a26.35,26.35,0,0,0-1.45-14.65,33.28,33.28,0,0,1-1.57-10,2.54,2.54,0,0,1,.41-1.23,6.07,6.07,0,0,0,.34-3.77c-.28-2.9-1.86-5.46-2.44-8.27-.2-1-3.22-2-4.06-1.36-1.66,1.28-3.62,2.4-4.8,4-2.12,2.85-5.44,3.67-8.61,4.59-2.68.77-5.62,1.25-8.08-1a7.74,7.74,0,0,0-3.07-1.55,31.44,31.44,0,0,1-9-4.56c-1.15-.77-2.21-1.68-3.87-1.71-1.14,0-2.07-1.89-1.27-2.61,1.31-1.18,1.09-2.8,1.88-4.09,1.06-1.74-.08-3.3-.55-4.88-.26-.85-1.1-.81-1.84-.18-1.34,1.15-2.4.94-3.14-.56-.3-.61-.17-1.63-1.28-1.57s-1.14,1-1.41,1.81-.67,2-1.86,2c-.93,0-1.5-.8-1.89-1.57a2.34,2.34,0,0,0-.4-.45c-1.55-1.67-2-1.61-2.92.44-.47,1.08-.82,2.44-2.11,2.71-1.58.34-1.72-1.41-2.57-2.16-.6-.52-.92-1.37-1.91-1.2a2.44,2.44,0,0,0-2,1.91c-.27,1.13.2,2.7-1.54,2.94s-1.69-1.49-2.3-2.44c-.79-1.24-1.74-1.34-2.64-.14s-2,2.24-2.34,3.51-1.39,2.7-.34,3.54a2.48,2.48,0,0,1,.91,2.5c-.08,3.19-.84,6.36-.54,9.58a1,1,0,1,1-2,0,40.8,40.8,0,0,0,.05-4.39c-.15-1.59,1.14-3.17,0-5-3.58,6.2-5.18,12.76-7.32,19.15-1.33,4-2.32,8-3.49,12-.89,3.07-1.74,6.14-2.42,9.26a90.59,90.59,0,0,0-1.91,14.34c-.26,4.59-1.7,9-2.17,13.56-.37,3.62-1.5,7.17-1.39,10.84.14,4.61,1.19,9.19.74,13.81A35.31,35.31,0,0,0,187,239a85.09,85.09,0,0,1,.55,11.52c-.18,3.76.81,7.4,1,11.13.22,4.54,1.25,9,1.93,13.56.14.92.19,1.88,1.3,2.34.3.12.92.2,1,.1a2.73,2.73,0,0,0,.07-2.55c-.35-.77-.13-1.6-.56-2.39s.08-1.48.53-2.13a1,1,0,0,1,1.08-.44c.6.12.5.59.44.92a8.61,8.61,0,0,0,.52,3.73c.52,2,.3,4.39,3.38,5.27,1.22.35,1.68,1.79,2,3,1.39,4.55-.87,8.43-2.83,12.36a6.5,6.5,0,0,1-4.54,3.49,2.17,2.17,0,0,0-1.64,1.61c-.56,2.95-2.2,5.57-2.94,8.51-1,3.84-2.25,7.66-3.56,11.45-1.21,3.49-1.94,7.14-3.43,10.53-2.63,6-4.79,12.15-7.45,18.14-.34.75.17.77.79.78,1.18,0,2.66.26,3,1.17.68,2,2.3,1.35,3.42,1.07,5.18-1.32,9.34-4.46,14.06-6.59,3-1.37,5.48-3.41,8.39-4.91,3.61-1.87,7.55-3.63,10.31-6.29C217.88,330.35,222.91,327.29,226.46,322.9Zm5.63-189.1c.22,1.7.27,3.36-2.13,4.66,0-1.79-.06-3.23.05-4.65.05-.64.29-1.4,1.38-1.31S232,133.32,232.08,133.81Zm-13.52-1.33c.9,0,1.12.76,1.1,1.31-.06,1.44,1.47,2.41,1.3,3.84-.06.48.39,1.23-.67,1.31-.81.06-1.42-.19-1.44-1,0-1.4-1.22-2.49-1.29-3.88C217.58,133.35,217.48,132.53,218.57,132.48Zm-6.42,5.72c-.33-.78-1.3-2,.24-2.84.57-.3,1.44-.61,1.29.36-.33,2.11,1.56,3.4,2.21,5.4C213.2,141.47,212.73,139.58,212.15,138.2Zm24.4,129a1.25,1.25,0,0,1-1.56.86c-.88-.33-.49-1-.09-1.6a20.4,20.4,0,0,0,2.35-4.11,11.22,11.22,0,0,0,.69-4.24c0-.72.15-1.5,1-1.6,1.36-.16.64.88.88,1.82a12,12,0,0,1-2.36,7.44C237.16,266.28,236.67,266.59,236.55,267.24Zm-8-3.13c-.7-.08-1.44-.27-.92-.85,1.68-1.86,1.19-4.17,1.75-6.25.23-.82.51-1.67,1.39-1.59,1.15.11.9,1.21.74,1.87-.48,1.93-1.1,3.83-1.74,5.72A2.05,2.05,0,0,1,228.54,264.11Zm17.4-.72c-1,0-.93-.69-.71-1,1.5-2.28,1.12-5,2.06-7.38a2.89,2.89,0,0,1,.85-1.25,1,1,0,0,1,1-.2.55.55,0,0,1,.33.79c-1.07,2.62-.9,5.54-2.43,8.05C246.76,262.81,246.62,263.33,245.94,263.39Zm-22-99.44c-.19-.48-.54-1.33.46-1.6a1.12,1.12,0,0,1,1.51,1.14c-.14,2.67,1.53,5.17.89,7.49,0,1.24.05,2.1,0,3a1.28,1.28,0,0,1-1.47,1.27c-.64-.11-.44-.82-.5-1.4C224.45,170.52,225.19,167.17,223.94,163.94Zm-8.53,8c-1-.24-.49-1.32-.31-2.14a22.18,22.18,0,0,0,.26-3.4h0a22.77,22.77,0,0,1,.06-3.22,1.08,1.08,0,0,1,1.5-.89c.76.26.37.72.22,1.21-.53,1.82.31,3.69-.17,5.52-.09.36.09.8-.06,1.13C216.6,170.91,216.62,172.26,215.41,172ZM235,241.42a.75.75,0,0,1-.9.82c-.63-.08-.41-.54-.42-1A47.93,47.93,0,0,0,233,233c-.17-.84.06-1.63,1-1.73,1.08-.11,1.18.81,1,1.49-.37,1.57.88,3.06.23,4.72C235.69,238.76,234.75,240.05,235,241.42Zm9.33-2.86a.49.49,0,0,1,.52.66c-.74,3.53.19,7.22-1.31,10.67-.23.53-.51,1-1.16.82s-.16-.79-.08-1.07c.89-3-.14-6.17.9-9.13-.72-.78.28-1.13.44-1.68C243.72,238.51,244.05,238.55,244.32,238.56Zm-15.89,3.24c-.8-.23-.76-.88-.37-1.57.91-1.65.32-3.5.7-5.2.16-.75.21-2.18,1.23-2.12,1.4.07.5,1.45.81,2,.11,2.1-1.11,3.8-1.06,5.73C229.74,241,229.38,242.07,228.43,241.79Zm-7.84-10.39c-.64-.08-.77-1-.51-1.66.06-.15-.07-.36-.11-.54h-.26c0-2.81,0-5.61,0-8.42,0-.86.17-1.54,1.36-1.49s.79.91.75,1.42c-.19,3.08.48,6.19-.39,9.25C221.3,230.55,221.51,231.52,220.59,231.4Zm15.89-9.4a1.12,1.12,0,0,1,1.37-1.09c1.33.22.23.85.24,1.27,0,2.06,0,4.12,0,6.17,0,.47.39,1.29-.65,1.3s-1.05-.67-1-1.36c0-1,0-1.91,0-2.86h0A27.81,27.81,0,0,1,236.48,222Zm-8.32-1a27.44,27.44,0,0,0,.93,5.94c.11.57.06,1.29-.66,1.44-1,.2-1.18-.73-1.31-1.22-.43-1.63-.65-3.31-.93-4.81a1.93,1.93,0,0,1,.39-1.57c.18-.35.45-.78.91-.62A1.12,1.12,0,0,1,228.17,221ZM245,230.3a.92.92,0,0,1-.44-1.33c1.18-2.17.88-4.66,1.9-6.85.35-.76.13-1.61.59-2.37.27-.43.27-1.1,1-1s.27.74.34,1.14a3,3,0,0,1,0,.57,23.82,23.82,0,0,1-2.65,9.34C245.56,230.1,245.37,230.46,245,230.3Zm10-10.88c.56-2.21-.18-4.53.68-6.72.25-.63.37-1.41,1.45-1.26s.45,1,.75,1.63c-.82,2.08-.82,4.39-1.4,6.61-.15.57-.48,1-1.13.88C254.49,220.42,254.86,219.92,255,219.41Zm-17.25-6.8c-.09,1.84.23,3.49-.78,5-.23.35-.38.66-.91.57a.58.58,0,0,1-.45-.89c1-2.44-.17-4.87,0-7.31,0-.38,0-.76,0-1.14a1.18,1.18,0,0,1,1-1.12c.76-.13.59.62.81,1C238.13,210.08,237.46,211.49,237.74,212.61Zm-12-.26c-.74-.27-.44-.93-.19-1.45a5.1,5.1,0,0,0,.17-2.21,8,8,0,0,0-.66-4.49c-.3-.58-.49-1.56.38-1.85.67-.22,1.31.59,1.49,1.1.88,2.59,1.55,5.22.27,7.88C226.94,211.9,226.65,212.67,225.75,212.35Zm6.39-3c.08.8-.27,1.85-1.31,1.84s-.78-1-.77-1.69c0-2.21-.64-4.35-.81-6.54a8.88,8.88,0,0,1,0-1.14,1,1,0,0,1,1-.81c.6,0,.52.42.72.74.73,1.16.35,2.46.68,3.69A26.57,26.57,0,0,1,232.14,209.34Zm4.78-6.51a31.87,31.87,0,0,1-.39-6.67.83.83,0,0,1,.74-.81.81.81,0,0,1,.93.82c.07.92.09,1.84.16,3.27.31.76,0,2-.16,3.27-.05.42-.23.79-.67.81S237,203.19,236.92,202.83Zm15.73-3.4c-.93-.14-1.14-1.15-1.21-1.95,1-2.66.2-5.28.06-7.9,0-.42-.3-1.12.66-1.11a.93.93,0,0,1,1,.81,35.66,35.66,0,0,1,.45,8.59C253.57,198.52,253.73,199.58,252.64,199.43Zm-12.13-3.84a.77.77,0,0,1-1-.76c0-1.39-1.33-2.55-.85-3.82-.16-.82-.56-1.7.55-1.78,1-.07,1,.83,1.13,1.49q.38,1.82.79,3.63A.94.94,0,0,1,240.51,195.58Zm-7.34-6c0,.52,0,1.2-.61,1.29a1.05,1.05,0,0,1-1.09-1c.13-2.59-1.81-4.67-2.1-7.15,0-.38,0-.76,0-1.14,0-.63.17-1.14,1-1.24s.73.66.86,1A47,47,0,0,1,233.17,189.54Zm-10.29-9.21a.49.49,0,0,1-.48.68,1,1,0,0,1-1.13-.66c-.34-1.52-1-3-.89-4.57a1.63,1.63,0,0,1-.06-1.22c.17-.47.23-.8.89-.79s.81.21.9.77C222.4,176.46,222.25,178.44,222.88,180.33Zm-11.71-7c1.16.16,1,.73.88,1.64a62.39,62.39,0,0,0-.26,7.08,7.54,7.54,0,0,1-.4,3c-.22.54-.48.95-1.14.9-.92-.07-.45-.76-.44-1.18-.23-3.36.36-6.68.34-10C210.15,174.11,209.82,173.17,211.17,173.36Zm5.9,9.55c-.12-.22,0-1.71,1.27-1.46a1.41,1.41,0,0,1,1,1.9,10.41,10.41,0,0,0-.31,3.73c0,1,0,2.24-1.29,2.22-1.42,0-.65-1.38-.85-2C216.77,185.74,217.88,184.39,217.07,182.91Zm8.77,4.17a9,9,0,0,1,.16-1.58.92.92,0,0,1,1-.58c.46,0,.6.27.6.61,0,2.83,1.53,5.45,1.36,8.32,0,.52,0,.83-.53,1s-.8-.22-.89-.74C227.12,191.69,225.93,189.45,225.84,187.07Zm-7,4.38c.37.16.71.46.62.73-1.08,4.16-.62,8.33-2,12.24-.16.44-.07,1.39-1,1a1,1,0,0,1-.41-1.54,2.42,2.42,0,0,0,.44-2.16c-.22-2.6.6-5.14.54-7.73a5,5,0,0,1,.91-2.05C218,191.59,218.36,191.25,218.83,191.46Zm-7.91,11.36c.6,1,.2,2.1.41,3.2-.53.74.83,2.25-.82,2.43s-.83-1.52-1.23-2.29-.12-2.09-.1-3.17a.92.92,0,0,1,.85-.93C210.71,201.94,210.69,202.42,210.93,202.81Zm8.18,5.44a1,1,0,0,1,.66,1.27,8.92,8.92,0,0,0-.26,4.25c.08.73-.25,1.91-1.32,1.86-.83,0-1.1-1-1-1.86a9.8,9.8,0,0,0,0-1.33c.05-1.18-.2-2.4.64-3.49C218.19,208.52,218.4,208,219.11,208.25ZM212,211.36c.69.32.08.77.13,1.29a19.14,19.14,0,0,0-.19,7.73c.11.51-.07,1.79-1.07,1.82-1.25,0-.93-1.06-.91-1.76.06-2.11-.42-4.21,0-6.34a4,4,0,0,1,.73-2.1C211,211.66,211.24,211,212,211.36Zm-10.4,11.32c.49,1.86,1,3.7,1.44,5.57.14.68.39,1.73-.68,1.95s-1-.9-1.2-1.46a22.24,22.24,0,0,1-1.46-5.73c0-.76,0-1.42,1-1.48S201.46,222.18,201.59,222.68Zm6.21,3.61a1,1,0,0,1,1.32-.88.93.93,0,0,1,.75,1.19,32.46,32.46,0,0,0,0,11.1c.09.51.11,1-.78,1s-.87-.4-.91-1c-.19-2.4-.41-4.81-.66-7.54C208.06,229.21,207.64,227.73,207.79,226.29Zm7.32,9.23c-.37-1.34-.31-2.84-.63-4.25-.14-.62-.11-1.14.67-1.25a.92.92,0,0,1,1.12.88c.4,3,1.33,5.91.68,9.17C214.67,238.9,215.51,237,215.12,235.52Zm9.1,4.16c.73-.1.87.65.94,1a46.19,46.19,0,0,1,.41,9.46,4.83,4.83,0,0,1-.43,1.24c-.1.29-.34.37-.64.38-.48,0-.59-.26-.59-.61,0-1,0-1.91,0-3.38-.12-2-.26-4.44-.41-6.92C223.47,240.36,223.58,239.77,224.21,239.69Zm6.93,11.13h0a20.68,20.68,0,0,1,0-2.66,1.27,1.27,0,0,1,1.38-1.16,1.13,1.13,0,0,1,.89,1.34,23.48,23.48,0,0,0-.19,4.53c0,.84-.37,1.31-1.38,1.29s-.72-.75-.75-1.25C231.1,252.21,231.14,251.51,231.14,250.81Zm25.33.87c.36.13.3.54.23.84-.72,2.9-1.38,5.82-2.2,8.7-.33,1.18-1.37,1.66-3,1.29,2.19-2.48,2.51-5.27,2.69-8.06a3.24,3.24,0,0,1,1.34-2.64A1.27,1.27,0,0,1,256.47,251.68Zm3.7-5.23c0,1.36.3,2.76-.62,4a2.22,2.22,0,0,1-2.18,1c1.45-1.71,1.05-3.44,1.11-5.1,0-.78-.25-1.95,1-1.85C260.62,244.63,260.17,245.77,260.17,246.45Zm-8.58.16c-.09.46-.26,1.16-1.15,1.13a1.34,1.34,0,0,1-1.13-.4c-.53-.65.29-.85.5-1.25.93-1.75.56-3.69,1-5.52a7.79,7.79,0,0,1,.76-2.11c.24-.43.49-.81,1.09-.59s.27.65.33,1C252.52,241.45,252.11,244,251.59,246.61Zm4.65-5.74c-1.44,0-1.32-.8-1-1.29,1.09-1.78.72-3.73,1-5.6.11-.77.29-1.57,1.4-1.47s.41.94.5,1.45c.29,1.71-.55,3.34-.5,5.05A1.62,1.62,0,0,1,256.24,240.87Zm8-10.2c1,.29.68,1.13.73,2.24,0,1.77-1.45,3.71-1.47,5.93a1,1,0,0,1-1,.72c-.55-.13-.62-.67-.51-1.12a46,46,0,0,0,1.33-7A.77.77,0,0,1,264.24,230.67Zm-10.45-5.83c1,.3.23.87.19,1.37-.11,1.13-.09,2.28-.11,3.42,0,.32,0,.63,0,1,0,.87-.19,2.11-1.05,2.12-1.17,0-.45-1.46-1.2-2,.84-1.57.38-3.18.63-4.73C252.35,225.29,252.76,224.53,253.79,224.85Zm9.52-5.11a1,1,0,0,1-1.08,1.08c-.56,0-.66-.53-.62-1,.16-2.32.34-4.63.41-7a3.21,3.21,0,0,1,2.19-3.11A44.56,44.56,0,0,0,263.32,219.74Zm-11.87-17.36c.53,1.16.35,2.35.41,3.89a6.06,6.06,0,0,1-1.85,5c-.23.22-.47.55-.87.41a.53.53,0,0,1-.24-.81c1.39-2.65.85-5.45.85-8.21,0-.42-.35-1.12.57-1.19C251,201.43,251.2,201.85,251.45,202.38Zm-7.37-.72c0,1.18,0,2.36,0,3.54a13.28,13.28,0,0,1-.33,4.67c-.16.63-.34,1.14-1.14,1.06s-.32-.94-.3-1.11c.31-2.81-.68-5.63,0-8.42.1-.39-.06-1.37,1-1.08A1.2,1.2,0,0,1,244.08,201.66ZM258.31,189c.42,3.06,2,5.91,2.11,9.15-.28.77-.09,2.41-1,2.37-1.3-.07-.79-1.58-.68-2.41.34-2.69-1.08-5-1.79-7.44a3.53,3.53,0,0,1-.34-1.44c.08-.62.19-1.37,1-1.45C258.71,187.65,258.24,188.53,258.31,189Zm-11.86-7.22c1.37,2.32.37,4.89,1.11,7.26.09.3-.27.69-.33,1.05-.12.81-.67,1.08-1.49,1-1.39-.16-.06-.85-.29-1.23a.73.73,0,0,1,0-.92,16.86,16.86,0,0,0-.58-5.54,6,6,0,0,1-.17-1.3c0-.72-.35-1.83.69-2C246.65,180,246.1,181.2,246.45,181.78Zm4.73-11.2c0-.54.54-.47,1-.48.58,0,.71.31.71.74,0,2.39.86,4.75,0,7.2A14.28,14.28,0,0,1,251.18,170.58Zm-6.92,5.73c-.89-2.14-1.87-4.26-2.8-6.39a10.37,10.37,0,0,1-.35-1.25c.18-.24.06-.84.8-.91s1.43,0,1.49.74c.24,2.6,1.41,4.94,2.41,7.33.28.67.15,1.22-.52,1.4S244.47,176.82,244.26,176.3ZM258,167.41c0,1.56.78,3.08.36,4.54a16.37,16.37,0,0,1-.06,2.78c-.08.45-.24,1.21-1.14,1.07a1,1,0,0,1-.88-1.28,21.75,21.75,0,0,0-.3-7,1.07,1.07,0,0,1,1.14-1.28C258.14,166.23,258,166.86,258,167.41Zm-21.2,3.72c-1.25,3.41,1,6.37.22,9.52a6,6,0,0,1-.16,1.12c-.24.51-.55,1-1.39.86s-.39-.82-.49-1a12.48,12.48,0,0,0-1.26-8.5c-.16-.29-.15-.92.07-1.08,2.45-1.81.51-3.75.25-5.62-.1-.72-.6-1.4-.75-2.12-.08-.41-.35-1.09.54-1.21.69-.09,1.34,0,1.51.73C235.92,166.31,237.54,169.07,236.79,171.13Zm6.79-16.23a6.15,6.15,0,0,1,.75,2.86,19.83,19.83,0,0,0,.62,4.46c.18,1-.15,1.81-.91,2-1,.2-1.36-.93-1.33-1.56.08-1.59-.58-3.11-.45-4.67a10.39,10.39,0,0,0-.5-2.67c.22-.52-.28-1.22.66-1.28C243.09,154,243.34,154.39,243.58,154.9Zm-14.17,5.79c0-.31,0-.63,0-1.08.29-.65-.62-2.15,1-2.1,1.32,0,1.24,1.43,1.18,2.45,0,.25,0,.5,0,.75,0,.69.1,1.52-1,1.57C229.32,162.34,229.41,161.45,229.41,160.69Zm-10.24-1c0-.5,0-1,0-1.51a1.47,1.47,0,0,1,0-.56c.26-.6-.65-1.72.76-1.79,1.64-.07.84,1.17.89,1.81s.4,1.19.45,1.8-.15,1.5-1,1.63C219.25,161.24,219.16,160.42,219.17,159.68ZM224.41,147a1.17,1.17,0,0,1,1.3-1.19c1.08,0,.75.75.76,1.24,0,1.9,0,3.8,0,5.7,0,.81,0,1.77-1.25,1.82-1.53.06-.74-1.09-.84-1.69a14.83,14.83,0,0,1,0-2.47h0A28.13,28.13,0,0,1,224.41,147Zm9.46-4c.57-.16.87.47,1.14.88a4,4,0,0,1,.86,3.07,16.11,16.11,0,0,1-1.05,5.68c-.14.42-.36,1.07-1.15.8-.63-.21-.44-.79-.35-1.16a13.75,13.75,0,0,0-.11-7.89A1.05,1.05,0,0,1,233.87,143Zm-15.5,1.66a1,1,0,0,1,.85,1c.09,2.12-.32,4.28.8,6.32a.68.68,0,0,1-.45,1.08,1.3,1.3,0,0,1-1.49-.46c-.23-.38-.56-.81-.54-1.2a25.28,25.28,0,0,0-.5-4.47,3.88,3.88,0,0,1,.2-1.34C217.46,145.2,217.55,144.52,218.37,144.71ZM212,153.9c.7-1.9.17-3.93.83-5.82a1,1,0,0,0,0-.38c-.05-1,.44-2,1.59-1.79s.27,1.29.64,2c-.34,2.15-.62,4.33-1.09,6.47-.14.64-.49,1.69-1.65,1.34C211.32,155.37,211.75,154.48,212,153.9Zm-12.34,8.55c1.61-1.86,1.12-4.27,2.19-6.24.09-.17.22-.32.29-.49a1,1,0,0,1,1.29-.71c.66.16.34.72.5,1.43-.56,1.67-1.18,3.63-1.91,5.55A2.22,2.22,0,0,1,200.6,163C199.75,163.37,199.35,162.76,199.63,162.44Zm7.16-1.28c.06-.35.34-.72.59-.68a1.59,1.59,0,0,1,.92.67c.92,1.41-.36,4.85-2.5,5.79C206.16,164.84,206.49,163,206.79,161.17Zm-6.15,15.92c.49-2.6.94-5.11,1.46-7.61.08-.39.58-.7.78-1.09.34-.68.95-.47,1.44-.36.87.19.42.75.3,1.19q-1.08,4-2.18,7.91c-.18.64-.17,1.57-1.18,1.45S201.12,177.49,200.64,177.08Zm-7.22,10.31c.09-2.21-.33-4.66.49-7a5.3,5.3,0,0,1,.83-1.49.9.9,0,0,1,1.16-.11c.35.2.62.45.42.94a17.11,17.11,0,0,0-1.19,7.69c0,.51.26,1.24-.83,1.18C193.61,188.52,193,188.45,193.42,187.39Zm6.41,1.67c0-.25,0-.51,0-.91a10.24,10.24,0,0,1,.83-4,1.26,1.26,0,0,1,1.62-.84c1.05.26.3.83.24,1.33a18.93,18.93,0,0,0-.58,4.45c.08.77.27,1.85-1.15,1.77C199.57,190.77,199.87,189.78,199.83,189.06Zm7.71,2.06c0-.57.21-1.33,1.14-1.29a.89.89,0,0,1,.92,1.22c-.69,1.79-.28,3.62-.41,5.42a2.29,2.29,0,0,1-.29,1.08c-.3.52-.14,1.45-1.12,1.32s-.71-1-.74-1.88C207.71,195.27,207.39,193.18,207.54,191.12Zm-8.42,4.46c.61-.34.59-1.58,1.62-1.14.7.3.23,1.1.22,1.71-.06,2.79-1.34,5.52-.43,8.37a1.19,1.19,0,0,1-1.14,1.67c-1.21.11-.86-.73-.91-1.29,0-.38,0-.76,0-1.7a37,37,0,0,0,.47-6.89C198.94,196,199,195.67,199.12,195.58Zm-7.91,13.27c0-1,0-1.9,0-3.12-.36-1.89.72-4,.47-6.13a1.9,1.9,0,0,1,.73-1.51c.54-.51,1.05-1.52,2-1,.76.45-.1,1.13-.33,1.67a6.07,6.07,0,0,0-.72,3.08c.24,2.29-.42,4.58-.05,6.88.08.48.3,1.22-.77,1.23C191.67,210,191.21,209.64,191.21,208.85ZM201.44,216a11.2,11.2,0,0,1,0-2c-.35-1.69.68-3.56.47-5.53-.06-.59.38-1.06.72-1.52a.93.93,0,0,1,1.13-.26c.42.16.45.4.38.87-.4,2.81-.63,5.65-1.05,8.46-.08.57-.07,1.62-1,1.6C200.86,217.56,201.55,216.54,201.44,216ZM191.53,231a16.53,16.53,0,0,0-.45-5.81c-.59-1.84,0-3.74-.73-5.47a1.58,1.58,0,0,0,.38-1.34c0-.73.42-.84,1.07-.78s1.2.43,1,1c-1,3.1.53,6.08.48,9.13,0,1.15-.5,2.2-.49,3.33,0,.46-.14,1-.74.89C191.64,231.92,191.51,231.46,191.53,231Zm7.77,2.18c-.12-.55.21-.86.73-1a1,1,0,0,1,1.27.72,13.06,13.06,0,0,1,.25,2c.32,3,.11,6,1.35,8.87-.55.31,0,1.27-.9,1.32s-1-.58-1.17-1.25C199.95,240.41,200.07,236.77,199.3,233.23Zm-6.14,13.88c-.67-2.81-.4-5.72-1.29-8,.11-1.25-.2-2.28,1-2.29s1.07.95,1.15,1.68c.25,2.42.53,4.84.71,7.27a3.58,3.58,0,0,1-.5,1.59.89.89,0,0,1-.64.41C193.11,247.82,193.23,247.4,193.16,247.11Zm11.65.56c-.18-1-.81-2-.47-3.18-.74-1.47,1-2.28,1.29-3.51.11-.39.55-.36.88-.26s.3.51.34.8c.13,1-.55,1.94-.62,3a3.78,3.78,0,0,0,.36,2.62c.46.7.24,1.26-.57,1.5S204.89,248.11,204.81,247.67Zm5.87,2c-.05-.7,0-1.4,0-2.09a16.39,16.39,0,0,1,.39-3.79c.07-.61.26-1.32,1-1.11a1.22,1.22,0,0,1,.92,1.57,12.44,12.44,0,0,0-.26,5.12c.17.69-.33,1-.89,1S210.73,250.34,210.68,249.7Zm8.65-4.37a6.84,6.84,0,0,1,.41-1.36,1,1,0,0,1,1.22-.51c.56.17.36.62.38,1,0,.63,0,1.27,0,2,.12,2.46-.72,4.95-.91,7.5a1.1,1.1,0,0,1-1.15,1.09c-.64-.08-.66-.82-.51-1.28C219.7,251,218.87,248.12,219.33,245.33Zm-5.83,6.88c.94.16.47.91.54,1.4.2,1.36-.2,2.73.26,4.13a1.64,1.64,0,0,1-1.16,1.92c-1,.1-.74-1-.82-1.62-.13-1.06-.29-2.11-.45-3.25a4.19,4.19,0,0,1,.22-1.41C212.37,252.87,212.55,252,213.5,252.21Zm-6.06,8.69c.16.89,0,1.64-.72,1.86-1,.3-1.14-.53-1.27-1.29-.35-2.21-.83-4.41-1.19-6.62-.08-.49-.29-1.24.8-1.18s1.65.5,1.3,1.9A37.5,37.5,0,0,1,207.44,260.9Zm-12,4.05c-.79-3.77-1.77-7.5-2.65-11.25a1.24,1.24,0,0,1,.83-1.54,1.29,1.29,0,0,1,1.56,1.4c-.09,2.11,1.2,4,1,6.14a18.69,18.69,0,0,0,.53,4.14c0,.28-.11.71-.17,1.13s.6,1-.14,1.09C195.89,266.11,195.55,265.63,195.41,265Zm8,6.66a8,8,0,0,1,0-2.08h0c0-.63,0-1.27,0-1.9a1.32,1.32,0,0,1,1.3-1.25c.8,0,.77.71.82,1.29.1,1.18-.26,2.37.31,3.55.2.41.56,1.34-.52,1.54A1.55,1.55,0,0,1,203.37,271.61Zm7.55,1.15c-.73-.19-.69-.62-.51-1.31a42.59,42.59,0,0,0,1-5.7,2.88,2.88,0,0,1,.76-1.5c.25-.31.36-.67.91-.59.8.13.3.73.51,1-.46,2.51-.9,4.89-1.33,7.28A1,1,0,0,1,210.92,272.76Zm4.56,1.6c2.28-2.92,2.58-6.51,4-9.71a7.22,7.22,0,0,1,1.7-2.73,3.19,3.19,0,0,0,.91-2.41,3.62,3.62,0,0,1,.18-1.49c.33-.66.75-1.73,1.61-1.48s.59,1.2.07,1.86a.28.28,0,0,0-.08.17c.11,2.31-.84,4.22-2.15,6.24-1.78,2.76-2.32,6.05-3.92,8.95a5.61,5.61,0,0,1-1.71,1.78C215.55,275.23,215,275,215.48,274.36Zm16.94,24.08a3.37,3.37,0,0,1-3.53-2.75c-.69-2.36-1.61-4.68-1.3-7.12-.41-4.32,1.84-7.52,5.22-10.17s9.12-.66,10.12,3.26c1.58,6.22-.54,11.51-5.57,15.86C236.05,298.67,234.14,298.46,232.42,298.45Zm-42.1,12c-.07-2.19,1.45-3.68,2.87-5.2a1.2,1.2,0,0,1,1.82,0c1.22,1.2.26,6.42-1.29,7.14Q190.34,313.93,190.32,310.44Zm25.17,6.95c-1.28-.71-.72-1.68-.46-2.69.57-2.2,1.07-4.38,3.94-5.14a2.64,2.64,0,0,1,3.38,2.42c-.41,1.78-2,3.2-3.75,4.48C217.78,317.08,216.86,318.15,215.48,317.39Z"/><path class="cls-1" d="M189.85,301c5.73-11.2,8.9,5.51,10.61,9.94,2.54-2.36,3.08-6.33,6-8.81a30.12,30.12,0,0,1,10.89-5.64c9.56-2,15.57,1.75,16,11,.39,8.28-3.53,13.58-9.64,18.87-5,4.29-10,9.61-15.47,13C203.64,342.23,175,360,172.32,351c-.59-2,2.85-7.46,3.54-9.54,1.05-3.14,2.27-6.2,3.61-9.37,2.65-6.25,3.47-13.06,6.26-19.24,1.48-3.27,1.55-7.2,3.11-10.39Z"/><path d="M223,358.8a26.16,26.16,0,0,0,2.11-5.24,114.36,114.36,0,0,0,2.4-12.36c.73-5.26,1.91-10.47,2.9-15.7.71-3.73.84-4.38,4.53-4.38a1.11,1.11,0,0,0,.41-.08,122.79,122.79,0,0,1,13.21-4.44c3.42-1,4.07-.57,5.38,2.33,1.44,3.21.06,6.53.66,9.82a41.54,41.54,0,0,1,.15,12.55c-.62,5-1.1,9.85-3.88,14.34-.46.74-1.92,1.91-.37,3s2.09-.63,2.84-1.09c1.32-.82,1.49-.59,1.8.62.42,1.64,3.54,2.36,4.75.87.76-.93,1.32-.84,1.93-.11,1.35,1.61,2.49.91,3.26-.33.62-1,1.16-1.07,2.11-.55a1.37,1.37,0,0,0,2.16-.94c.62-3,1.5-6.08,1.37-9.09a43.71,43.71,0,0,1,.78-10c.78-4.13,1.18-8.31,1.95-12.44.83-4.46,1.17-9,1.69-13.51.51-4.3,1.25-8.6,1.37-12.92a75.1,75.1,0,0,1,1.28-10.77c.82-4.75,1.89-9.46,2.74-14.2.15-.86.21-2.21.34-3.27.3-2.56.66-5.16,1.18-7.64a101.57,101.57,0,0,0,2.1-20.88c0-13.25.11-26.5.16-39.76,0-5.64.18-11.24,1.71-16.79a77.59,77.59,0,0,0,1.64-10.32c.09-.71,0-1.34,1.05-.82,2.7,1.27,3.25,1.05,3.82-1.76.2-1,1.07.33,2.16.69a1.34,1.34,0,0,0,1.89-.88c.13-.29.38-1.46.78-1.06,1.33,1.33,2.57.81,2.94.38.58-.67-2.48-14.2-5.87-17.55-2.91-2.87-4.15-6.89-6.9-10a25.18,25.18,0,0,0-8.37-6.75,3.92,3.92,0,0,0-4.43.43c-2.64,2-4.86,4.41-7.53,6.39-2.84,2.11-6.46,3.13-9.62,2-2.56-.94-4.93-2.59-7.66-3.53s-4.79-2.73-7.18-4.09c-1.88-1.07-2.48-2.2-1.5-4a7.74,7.74,0,0,0,.71-1.52,53.06,53.06,0,0,0,1-6.13,37.34,37.34,0,0,0,1-8.05c-.22-5.77-.68-11.55-1.42-17.31-.79-6.15-2-12.23-3-18.34a23.27,23.27,0,0,0-1.27-4.71c-1.13-2.92-2.36-5.81-3.43-8.76-.55-1.51.23-1.94,1.31-2.18a41.68,41.68,0,0,0,11.45-4.25c1.57-.88,2.92-.34,3.1,1.22s.58,3,.89,4.48a24.17,24.17,0,0,0,3.1,7.36c1.69,2.86,5,3.61,8.25,4.22,3.4.65,6.76.81,9.49-1.8,1.17-1.12,2.59-4.53,2.09-5.65-1.87-4.16-5.13-7.25-9.1-9.89-2.88-1.92-6.43-2.44-9.64-4.07,2.9-1.53,5.63-3,8.41-4.42.56-.29,1.39-.35,1.72.25.64,1.18,2,1.46,3,2.26,5.08,4.41,16.56,5.67,22.2.95,2.4-2,3.28-4.9,1.53-7.59-2.3-3.55-5.87-4.84-10.2-5.14-2.74-.18-5.43.7-8.31.27a8.94,8.94,0,0,1,1.19-1.59c1.95-1.63,2.86-4.59,6.5-4.11.34,0,.75-.3,1.12-.48a40.47,40.47,0,0,0,9.78-6.5c2.21-2,4.57-4,6.05-6.61,1.09-1.89,2.17-3.89.39-6a9.22,9.22,0,0,0-5-2.91,12.51,12.51,0,0,0-8.66,1.13c-3.46,1.65-6.69,3.45-8.63,6.73a11.27,11.27,0,0,0-1.43,8.37c.59,2.52-.86,3.61-2.52,4.66s-3,2.53-5.33,2.78c1.8-3.73,3.13-7.19,3.11-11.12,0-5.67-3.25-9.21-8.39-11.75a2.72,2.72,0,0,0-2.77-.3c-5.82,3.54-7.66,7-6.55,14.15.58,3.75,2.41,7.16,3.17,10.85a3.36,3.36,0,0,0,2.36,2.65c.49.12,1.21.18,1.18.6s-.5.91-1.13,1.21c-3.65,1.79-7.25,3.65-10.88,5.49-.84.43-1.64,1-2.85.5a47.14,47.14,0,0,0,5.47-11,12,12,0,0,0,.49-5c-.36-4.86-3-8.3-7.32-11a3.17,3.17,0,0,0-3.3-.47,10,10,0,0,0-4.92,4.45,19.58,19.58,0,0,0-1.86,9.51c.06,5.59,1.87,10.41,6.91,14,1,.71,1.3,1.73-.07,2.28-2.77,1.11-5.62,2.08-8.48,3a1.9,1.9,0,0,1-2.25-.56c-3.72-4.68-7.53-9.31-12.51-13-1.94-1.43-9.32-4.75-10.76-5.35a31.83,31.83,0,0,0-11.39-2.11c-2.77-.08-5.6.77-8.39,1.3C181,41,175.78,42.27,171,44.79a57.51,57.51,0,0,0-9.7,6.86,30.92,30.92,0,0,0-6.8,8.47c-1.19,2-1.17,4.21-1.82,6.29a22.1,22.1,0,0,0-1,8.82c.13,1.32-.94,1.54-2,1.8-2.14.55-4.32,1-6.48,1.39-3.31.66-6.67,1.29-10.18.53-2.23-.48-4.66-.19-6.13,1.66-1.33,1.67-3.1,3.38-1.76,5.78.71,1.28,1.35,2.59,2.1,3.85,1.73,2.9,3.68,3.46,6.24,3a183.13,183.13,0,0,0,22.88-5.54,2.33,2.33,0,0,1,2.37.5c2.12,1.33,3,3.56,4.76,5.13,3,2.64,6.76,4,10.61,5.24,3.36,1.06,6.8.32,9.85-.66a23.92,23.92,0,0,0,10.45-6.26,19,19,0,0,0,4.38-7.46c.75-2.48,3.27-4.68,2-7.6-.17-.38.37-.66.68-.9,1.82-1.43,3.82-.82,4.88,1.31a88.53,88.53,0,0,1,4.19,11.31c.5,1.49,1.31,2.95,1.21,4.52-.25,4,.45,7.9.13,11.91a62.88,62.88,0,0,1-3.73,17.44c-2,5.38-5.76,10.28-5.73,16.26a3.45,3.45,0,0,1-.48,1.22,80.51,80.51,0,0,0-4.8,12.69c-.73,3-1.67,5.91-2.57,8.83-2.4,5.71-6.51,29.91-7.14,33.29-.79,4.25-1.26,8.56-2,12.82-.65,3.53-.68,15.91-.78,18.51-.32,8.1.91,16.14.83,24.21,0,1.34,1,15.15,2.09,20.66.33,1.71,1.07,7.43-.28,8.08a7.07,7.07,0,0,0-4,5.74,11,11,0,0,0,3.24,9,8.34,8.34,0,0,1,2,8.91c-1.62,5-3.34,10-4.86,15s-3,9.93-5,14.77c-.79,1.91-1.83,3.75-2.46,5.7a102.54,102.54,0,0,1-5,11.83c-.52,1.1-1.15,2.31-.56,3.22a4.67,4.67,0,0,0,3,1.82c3.71.39,7.45.44,10.86-1.37,2.21-1.18,4.46-2.3,6.67-3.48.71-.38,1.18-.56,1.65.31,1.06,1.93,3.17,3.1,4.51,4.86.44.58,1.27,1.43,2.23.71a1.34,1.34,0,0,0-.25-2.18c-2.21-1.37-3.36-3.64-5.58-5,3-1.71,6-3.42,9-5.14,1.93-1.11,3.85-2.26,5.79-3.36.88-.5,1.57-.54,1.74.66.23,1.66.65,3.3.8,5,.3,3.36.88,6.76-1.88,9.69a1.73,1.73,0,0,0,0,2.32c.58.66,1.36.32,2.12,0a11,11,0,0,1,2-.35c.06.11.16.22.17.34.27,3,.44,3.07,3.42,1.71a.85.85,0,0,1,1.09.2C219.86,361.28,221.9,361,223,358.8ZM241,52.36c-2.8-2.13-4-5.09-5-8.08a11.78,11.78,0,0,1-.42-5.06,13.24,13.24,0,0,1,1.21-6.74,12.43,12.43,0,0,1,2.82-3.57c1-.94,2.16-.49,3.08.08a12,12,0,0,1,5.94,9.58c.2,3.33-1.14,6.57-3.11,9.5-.73,1.09-1.11.8-1.71,0a2.65,2.65,0,0,1-.64-1.35c-.24-2.7-2.13-5-2.28-7.78,0-.49-.12-1.6-1.36-1.21-1,.31-.42.94-.35,1.54.53,4.28,2,8.35,3.13,12.51.1.37.8.8.13,1.14S241.4,52.69,241,52.36Zm20.31,11.56a20.53,20.53,0,0,1,9.91,8c1.14,1.74,1.33,3.57.22,5.14a5.16,5.16,0,0,1-4.85,2.46,27.48,27.48,0,0,1-7.3-1.48,6.16,6.16,0,0,1-3.21-3,24.84,24.84,0,0,1-2.69-7.81c-.09-.47-.22-1.12.42-1.36a1.3,1.3,0,0,1,1.44.5c1.55,2,4,3.26,5.85,5a14.1,14.1,0,0,1,2.11,2.52c.33.46.85.84,1.4.47a1.1,1.1,0,0,0,.55-1.3,5.57,5.57,0,0,0-1.51-2.39,53.93,53.93,0,0,0-5.66-4.35c-1.6-1.05-2.64-2.8-4.27-4.62A34.11,34.11,0,0,1,261.26,63.92ZM286.7,48.5c3,1.07,5,3.77,4.66,6.6A4.34,4.34,0,0,1,289,58c-5,3.1-10.31,2.41-15.47.28A20.19,20.19,0,0,1,267,53.83c-.51-.51-1.22-1.11-.61-1.72s1.33-.23,1.84.34a4.2,4.2,0,0,0,2.42,1,33,33,0,0,1,5,1.38c.92.36,2.38.69,2.77-.42.31-.89-.62-1.64-1.87-1.83-1.63-.26-3.24-.68-4.86-1-.76-.16-1.76-.31-1.91-1-.2-.88,1-.92,1.6-1.12a25.61,25.61,0,0,1,10-1.68A14.06,14.06,0,0,1,286.7,48.5Zm-1.34-13.44c.89-1.63,2.57-2.87,2.76-4.85,0-.53.62-1-.22-1.43-.62-.29-1,.07-1.49.39-2,1.35-4.1,2.67-6.17,4-.63.4-1.33,1.24-2,.88s-.56-1.39-.47-2.14c-1.17-4.22,1.58-7,4.82-9s7-4.49,11.72-2.87c3.56,1.24,4.39,3.5,2.19,6.3-2.87,3.65-6,7.1-10.25,9.58-.5.29-1,.74-1.45.26S285.16,35.43,285.36,35.07ZM258,41.61c-1.08-4-3.14-7.72-3.08-12,.05-3.42.57-6.47,4.1-8.55a2.92,2.92,0,0,1,3.09-.18c4.69,2.25,7.41,7.77,6.27,12.44a38.85,38.85,0,0,1-3.59,8.49c-.21.4-.44,1.4-1.35,1.11a1.37,1.37,0,0,1-1-1.52c.54-3.36-1.71-6.49-1-9.87a.56.56,0,0,0-.78-.62c-.53.18-1.22.3-1.15,1.11.14,1.77-.22,3.55.18,5.31a20.76,20.76,0,0,1-.06,7.16A6.87,6.87,0,0,1,258,41.61ZM245.87,56.73c6.64-3.38,13.35-6.68,19.78-10.37,4.51-2.59,8.6-5.75,12.87-8.68.72-.49.83-1.64,2.6-1.53-1.86,1.43-2.71,3.18-4.6,4.23a10.34,10.34,0,0,0-3.07,2.85c-2,2.65-5.08,4.41-7.53,6.7-.32.3-7.24,5.17-9.81,6.59-3.36,1.86-7,3.35-10.16,5.48s-6.86,3-10.53,3.89c-1.9.48-4.18-1.59-3.82-3.3.13-.63.8-.65,1.26-.85C237.1,59.89,241.74,58.83,245.87,56.73Zm-44.5-14.61a59.5,59.5,0,0,1,8.38,2.81c-1.73,1.69-3.37,3.39-5.13,5-3.13,2.83-4.35,6.4-5,10.17-.35,1.9-.94,3.84,0,5.75.27.54.44,1.3,1.42,1.09,1.25-.27.35-.89.31-1.43-.46-6.07,1.23-11.42,6.22-15.83,1.63-1.44,3-3.26,5.55-2.48,1.57.49,2.88,1.7,4.26,2.64.81.55,1.53,1.19,2.4,1.88-9.39,3.86-14.57,10.13-14.49,19.75-2.1-1.08-3.89-2.64-6-3.6-2.29-1.06-2.55-2.93-3.72-4.48-3.11-4.1-2.22-8.38-1.63-12.78a22.67,22.67,0,0,1,2-6.06C196.91,42.3,198.85,41.49,201.37,42.12ZM179.59,66.27a5.36,5.36,0,0,1,5.15-1.2,11.25,11.25,0,0,0,3.13.25c4.15-.14,6.54,1.47,7.71,5.67a12.3,12.3,0,0,0-7.07-1.88,11,11,0,0,0-5.73,1.49c-1,.61-1.5.61-1.88-.37A2.36,2.36,0,0,0,179,68.82c.65-.91,2.34-.69,2.06-2C181,66.13,180.08,66.66,179.59,66.27Zm4.66-23.14c.61-.1,1.2-.29,1.81-.36,2.84-.29,5.69-.55,8.84-.85-2.66,4.29-3.12,8.84-3.78,13.3-.35,2.38.76,4.77,1.58,7.09.16.45.77.92.21,1.36s-1,.09-1.59,0a23.19,23.19,0,0,0-3.69-.62c-3.41-.21-6.36-2.44-6.72-5.74-.32-2.89-1.27-5.86-.1-8.79C181.29,47.28,183.85,43.19,184.26,43.13Zm-30,32.5c.47-1.22,0-2.43-.07-3.64A22.11,22.11,0,0,1,160,56.54c4.84-5.41,10.62-10.17,18.54-12a3.49,3.49,0,0,1,1.21-.23,3.78,3.78,0,0,1,.58.15c-1.7,3.38-1.77,6.82-1.42,10.46.25,2.54,1.28,4.77,2,7.12.22.71.78.81-.5.69-2.84-.25-4.31-2.09-6-3.7-2.81-2.65-3.2-5.73-2.09-9.09.16-.5.86-1.06-.05-1.41a1.55,1.55,0,0,0-1.94.81,4.71,4.71,0,0,0-.58,2.17c0,3.3.59,6.48,3.31,9a16,16,0,0,0,3.83,3.13c1.08.52.93,1.19,0,1.91-2,1.58-3.46,1.9-5.83.35s-5.21-3.22-6.37-6c-.24-.58-.7-1.09-.59-1.78a1,1,0,0,0-.79-1.19c-.67-.18-1,.26-1.43.63s-.24.84,0,1.36c1.75,4.19,5.3,6.9,9.4,9.31-2.62,2.61-5.74,2.41-8.82,1.47-1.79-.55-3.89-1-4.49-3.11-.15-.54-.8-.71-1.41-.42a1,1,0,0,0-.48,1.49c.74,1,1.34,2.19,2.77,2.74,2.65,1,5.27,2,8.77,1.78-3,1.61-6,2-8.82,2.66-.13,0-.29,0-.42,0C157,75.06,155.82,76,154.3,75.62Zm-16,13.95c-1.07,0-1.6.7-2.43,1-3.38,1.18-5.11,1.6-6.8-1.58a12.73,12.73,0,0,0-1.62-2.62,3,3,0,0,1-.25-3.67,4,4,0,0,1,4.28-1.81c4.85,1.28,9.42,0,14-.93,8.73-1.72,17.37-3.86,26.07-5.72a20.94,20.94,0,0,1,4.67-.11c1.26,0,1.13.92,1.13,1.68a5,5,0,0,1-3.59,4.4c-6.67,1.71-13.13,4-19.66,6.05C148.92,87.88,143.81,89.59,138.27,89.57Zm28.69,0c-1.54-.44-3.56-.25-5-1.49-1.32-1.1-1.29-1.86.37-2.31,3.78-1,7.49-2.18,11.17-3.45,1.28-.44,1.78,0,1.21,1.14-1.4,2.76-3.19,5.21-6.74,6.08C167.67,89.56,167.46,89.79,167,89.53Zm9.33,7.13a23.24,23.24,0,0,1-9.86-3.92.88.88,0,0,1-.27-.64c0-.44.41-.44.76-.44,4.83-.05,6.95-3.37,9.36-6.3.45-.54.18-1.53,1.29-1.69a3.89,3.89,0,0,1,2.89.92,6.75,6.75,0,0,1,2.63,8.15C182.32,95,179.85,96.68,176.28,96.66Zm18.36-14c.19.26.56.69.49.77-1.83,1.91-.19,4.8-2.85,6.77-1.88,1.39-3.7,2.85-5.73,4.1-.67.41-1.65.85-2,.56-.58-.47-.19-1.39.17-2a5.81,5.81,0,0,0,.26-6.08,10.85,10.85,0,0,0-3.77-4c-1.19-.79-2.7-1.14-.68-2.95,1.33-1.19,2.73-1.38,3.88-2C188.63,78.49,192.3,79.46,194.64,82.68Zm3.12-2.6c-.49,1.1-.86,1.64-2.09.51a19.42,19.42,0,0,0-9.89-4.49,6.48,6.48,0,0,0-2.32.07c-.67.13-1.48.63-1.81-.14a1.91,1.91,0,0,1,.34-2.14,8.23,8.23,0,0,1,6.94-2.78,4.48,4.48,0,0,1,3.33.86C193.09,72.63,199,77.37,197.76,80.07Zm11-3.29c-2.15-5.43-2.29-11,1.28-15.74,2.18-2.91,5.08-5.79,9.25-6.91a5.55,5.55,0,0,0,1.68-.7,1.32,1.32,0,0,1,1.87.3c2,3.05,5.15,5.53,5.76,9.28a2.07,2.07,0,0,0,.35.63c-.12.88-.88.95-1.53,1.11a33.41,33.41,0,0,0-8.64,3.06c-3.88,2.22-6,5.63-8.17,9-.3.47-.33.87-1.07.84S209,77.18,208.8,76.78ZM212,84.86a9,9,0,0,1,.77-7.19,29,29,0,0,1,4.1-5.88c2.67-2.71,6.09-3.95,9.83-4.7.8-.16,1.54-.75,2.29-.39,1.36-.13,2.11.25,2.55,1.35,1.18,3,2.49,5.91,3.73,8.87.74,1.77.52,2-1.68,2a25.36,25.36,0,0,0-18.13,6.67C213.67,87.28,212.56,87.1,212,84.86ZM214.28,105c-.48-.37-.12-.73,0-1,1.57-2.91,2.8-6,6.54-7.46,2.22-.85,4.27-2,6.71-2.43a9.88,9.88,0,0,1,6.06.64,12,12,0,0,0,3.4.3c-.74-2.75-3-3-5.14-3.12-5.6-.44-10.35,1.57-14.73,4.45-.39.26-.85.44-1.21.73s-.84.64-1.31.38-.31-.77,0-1.16-.17-.69-.26-1-.56-1.06-.39-1.42c.79-1.65.29-3.57,1.15-5.11s2.51-2.48,4.08-3.52A27.56,27.56,0,0,1,230.6,81a19.76,19.76,0,0,1,4.86-.09c2,.2,1.71,1.95,1.94,3.12,1,5.41,1.95,10.84,2.9,16.26a26.27,26.27,0,0,1,.16,3.58c.05,1.34-1.17.48-1.62.23a23.86,23.86,0,0,0-8.28-2.27c-3.34-.44-6.43.32-9.58,1a34.72,34.72,0,0,0-5.58,2.06C215,105.08,214.74,105.39,214.28,105Zm-3.23,20.51c-.63-1,.57-1.48,1.09-1.72,4.5-2,9-4.07,14.27-4.05,3.32,0,6.43,0,9.29,1.85a3.33,3.33,0,0,0,3.2.4c.66-.33.62-1,.41-1.53-.44-1.15-1.62-1.17-2.69-1.37-2-.39-4-1-6.05-1.32-3-.5-5.83,0-8.58.3a24.81,24.81,0,0,0-8.37,2.72c-.57.29-1.51,1.12-1.94.5a2,2,0,0,1,.62-2.33,15.69,15.69,0,0,1,5-3c3.91-1.62,8-3,12.33-2.93,2.79,0,5.34,1.31,7.74,2.58a2.83,2.83,0,0,0,1.77.42c1.1-.15,1.5-.72.8-1.57a4.17,4.17,0,0,0-1.44-1.09,23,23,0,0,0-17.95-.83,41.31,41.31,0,0,0-7.25,2.91,31.73,31.73,0,0,1,1.33-5.66c1.43-4.69,5.83-4.58,9.44-5.55a17.36,17.36,0,0,1,10.89.66c1.66.64,3,2.37,5.32,1.31.51-.24.39.64.45,1,.51,3.5.3,7,.74,10.57a26.12,26.12,0,0,1-.47,6,3.55,3.55,0,0,1-.64,1.34.73.73,0,0,1-.59,0c-1.23-1.61-3.21.51-4.64-.87-2.32-2.24-3.19-2.11-5.24.34-.53.63-1.1,1-1.88.4-2.07-1.53-2.84-1.52-4.66.12-.3.27-.73.5-.87.83-.66,1.48-1.35,1-2.25.17-.7-.66-1.24-1.62-2.56-1.44a3.17,3.17,0,0,0-2.24,1.17C214.13,127.57,212.14,127.35,211.05,125.54Zm-7.57,215c-2.9,1.5-5.37,3.55-8.39,4.91-4.72,2.14-8.88,5.28-14.06,6.59-1.12.28-2.74,1-3.42-1.07-.31-.91-1.78-1.17-3-1.17-.63,0-1.13,0-.79-.78,2.66-6,4.82-12.14,7.45-18.14,1.49-3.39,2.22-7,3.43-10.53,1.31-3.79,2.6-7.62,3.56-11.45.75-2.95,2.39-5.57,2.94-8.51a2.17,2.17,0,0,1,1.64-1.61,6.5,6.5,0,0,0,4.54-3.49c2-3.93,4.22-7.81,2.83-12.36-.36-1.17-.82-2.61-2-3-3.07-.87-2.85-3.3-3.38-5.27a8.61,8.61,0,0,1-.52-3.73c.06-.33.16-.8-.44-.92a1,1,0,0,0-1.08.44c-.45.66-.91,1.43-.53,2.13s.21,1.61.56,2.39a2.73,2.73,0,0,1-.07,2.55c-.06.1-.68,0-1-.1-1.1-.46-1.16-1.42-1.3-2.34-.68-4.52-1.72-9-1.93-13.56-.18-3.73-1.16-7.37-1-11.13A85.09,85.09,0,0,0,187,239a35.31,35.31,0,0,1-.21-6.52c.45-4.62-.6-9.2-.74-13.81-.11-3.66,1-7.22,1.39-10.84.47-4.56,1.91-9,2.17-13.56a90.59,90.59,0,0,1,1.91-14.34c.69-3.13,1.53-6.19,2.42-9.26,1.17-4,2.16-8.06,3.49-12,2.14-6.39,3.74-13,7.32-19.15,1.15,1.82-.14,3.41,0,5a40.8,40.8,0,0,1-.05,4.39,1,1,0,1,0,2,0c-.3-3.22.47-6.38.54-9.58a2.48,2.48,0,0,0-.91-2.5c-1.06-.85,0-2.42.34-3.54s1.49-2.37,2.34-3.51,1.84-1.09,2.64.14c.6.94.53,2.68,2.3,2.44s1.27-1.81,1.54-2.94a2.44,2.44,0,0,1,2-1.91c1-.17,1.31.67,1.91,1.2.85.75,1,2.49,2.57,2.16,1.29-.27,1.64-1.63,2.11-2.71.88-2,1.37-2.11,2.92-.44a2.34,2.34,0,0,1,.4.45c.39.77,1,1.61,1.89,1.57,1.19-.06,1.58-1.19,1.86-2s.25-1.74,1.41-1.81,1,1,1.28,1.57c.74,1.5,1.8,1.71,3.14.56.74-.64,1.58-.67,1.84.18.47,1.57,1.62,3.13.55,4.88-.79,1.29-.58,2.92-1.88,4.09-.8.72.13,2.59,1.27,2.61,1.65,0,2.71.94,3.87,1.71a31.44,31.44,0,0,0,9,4.56,7.74,7.74,0,0,1,3.07,1.55c2.45,2.25,5.4,1.78,8.08,1,3.17-.92,6.49-1.74,8.61-4.59,1.17-1.58,3.14-2.7,4.8-4,.84-.65,3.86.37,4.06,1.36.57,2.81,2.15,5.37,2.44,8.27a6.07,6.07,0,0,1-.34,3.77,2.54,2.54,0,0,0-.41,1.23,33.28,33.28,0,0,0,1.57,10A26.35,26.35,0,0,1,285,179.29a126.6,126.6,0,0,1-4.15,15.58c-.06.16-.2.45-.16.47,3,1.65,1,4.22,1.39,6.32.36,1.74-.11,3.6-.11,5.41,0,4.28.09,8.56.08,12.84q0,12.18-.16,24.35c0,2.43-.21,4.86-.37,7.28a64.58,64.58,0,0,1-1.58,10.39,48.54,48.54,0,0,0-1.42,9c-.12,3.11-1,6.08-1.4,9.12-.54,4.54-2.11,8.9-2.7,13.44s.26,9.21-.91,13.69c-1.06,4.08-.53,8.25-1.28,12.33-.22,1.21-2.79,3.22-4.11,2.8-2.67-.83-3.72.32-4.33,2.6-1-1.1.19-2.55-1.45-2.9-2-.43-1.37,1.36-2,2a24.36,24.36,0,0,0-1.67,2.14,1.91,1.91,0,0,1-.93-1.85c.21-3.15-1.38-5.85-2.8-8.55-1.27-2.41-2.26-2.57-5.07-1.94a125.88,125.88,0,0,0-15.2,4.94c.34-1.78,2-2.63,2.66-4a9.25,9.25,0,0,1,2-2.18c.55-.53.9-1.07.16-1.61a1.38,1.38,0,0,0-1.9.13,46.58,46.58,0,0,0-3.21,3.71,32.88,32.88,0,0,1-6.71,6.67,7.24,7.24,0,0,0-1.15,1.32c-3.54,4.39-8.58,7.45-12.66,11.39C211,337,207.09,338.72,203.48,340.58Z"/><path d="M168.8,331.68a27.68,27.68,0,0,0-7.41-3.29c-.62.17-1.24-.18-1.43.47s.54.82,1,1c2.2,1,4.57,1.69,6.34,3.41.75.74,2.47,1.07,3.06.36C171.21,332.57,169.58,332.18,168.8,331.68Z"/><path d="M170.1,329.24c1,.05,1.61-.07,1.75-.78s-.62-1.13-1.25-1.28a13.92,13.92,0,0,1-5-2.17c-.51-.36-1.39-1.45-2.2-.29-.7,1,.22,1.75,1,2.09a36.78,36.78,0,0,1,5,2.3A1.65,1.65,0,0,0,170.1,329.24Z"/><path d="M174.89,326.47c-.06-.23,0-.39-.12-.47a38.44,38.44,0,0,0-6.64-5.12.91.91,0,0,0-1.11.34.77.77,0,0,0,.07,1.19c.41.33.91.56,1.34.87,1.56,1.14,3.09,2.32,4.68,3.42C173.74,327.13,174.49,327.33,174.89,326.47Z"/><path d="M196.18,348.5a1.12,1.12,0,0,0,.59,1.49,16.26,16.26,0,0,1,5,2.93c.41.41,1.59.59,1.95-.23.28-.65.35-1.6-.84-1.83a7.65,7.65,0,0,1-2.49-1.32c-.91-.53-1.7-1.35-2.91-1.41C197,348.22,196.39,347.89,196.18,348.5Z"/><path d="M205.75,349.37a9.35,9.35,0,0,0-3.77-2.95c-.94-.49-1.06.41-1.16.91.06,1.1,3.29,3.26,4.43,3.12C206.18,350.35,206,349.82,205.75,349.37Z"/><path d="M242.93,281.67c-1-3.92-6.88-5.8-10.12-3.26s-5.63,5.85-5.22,10.17c-.31,2.44.62,4.76,1.3,7.12a3.37,3.37,0,0,0,3.53,2.75c1.72,0,3.63.22,4.94-.91C242.39,293.17,244.51,287.89,242.93,281.67Z"/><path d="M222.34,312a2.64,2.64,0,0,0-3.38-2.42c-2.87.76-3.37,2.94-3.94,5.14-.26,1-.82,2,.46,2.69s2.29-.31,3.11-.92C220.31,315.18,221.94,313.77,222.34,312Z"/><path d="M233.82,163.14c-.89.12-.63.8-.54,1.21.15.72.65,1.4.75,2.12.27,1.87,2.2,3.82-.25,5.62-.22.16-.23.79-.07,1.08a12.48,12.48,0,0,1,1.26,8.5c.1.14-.43.79.49,1s1.15-.34,1.39-.86a6,6,0,0,0,.16-1.12c.76-3.15-1.47-6.11-.22-9.52.75-2.06-.87-4.82-1.46-7.26C235.16,163.17,234.51,163,233.82,163.14Z"/><path d="M217.85,273.77c1.6-2.9,2.14-6.19,3.92-8.95,1.3-2,2.26-3.92,2.15-6.24a.28.28,0,0,1,.08-.17c.53-.66.9-1.58-.07-1.86s-1.28.82-1.61,1.48a3.62,3.62,0,0,0-.18,1.49,3.19,3.19,0,0,1-.91,2.41,7.22,7.22,0,0,0-1.7,2.73c-1.47,3.2-1.77,6.79-4,9.71-.51.66.07.87.66,1.19A5.61,5.61,0,0,0,217.85,273.77Z"/><path d="M195,305.21a1.2,1.2,0,0,0-1.82,0c-1.42,1.52-2.94,3-2.87,5.2s1.14,3,3.4,1.91C195.27,311.63,196.22,306.41,195,305.21Z"/><path d="M196.51,265c.06-.43.13-.85.17-1.13a18.69,18.69,0,0,1-.53-4.14c.2-2.14-1.1-4-1-6.14a1.29,1.29,0,0,0-1.56-1.4,1.24,1.24,0,0,0-.83,1.54c.88,3.75,1.86,7.49,2.65,11.25.14.68.48,1.16,1,1.09C197.11,265.94,196.45,265.34,196.51,265Z"/><path d="M217.84,191.94a5,5,0,0,0-.91,2.05c.06,2.59-.76,5.13-.54,7.73a2.42,2.42,0,0,1-.44,2.16,1,1,0,0,0,.41,1.54c1,.4.88-.55,1-1,1.42-3.91,1-8.08,2-12.24.09-.27-.25-.57-.62-.73S218,191.59,217.84,191.94Z"/><path d="M192.8,231.08c0-1.13.47-2.18.49-3.33,0-3.05-1.52-6-.48-9.13.18-.54-.36-.91-1-1s-1.11.05-1.07.78a1.58,1.58,0,0,1-.38,1.34c.77,1.73.14,3.63.73,5.47a16.53,16.53,0,0,1,.45,5.81c0,.42.11.88.53.93C192.67,232,192.8,231.55,192.8,231.08Z"/><path d="M193.31,208.75c-.37-2.3.3-4.59.05-6.88a6.07,6.07,0,0,1,.72-3.08c.23-.54,1.09-1.22.33-1.67-.95-.56-1.46.45-2,1a1.9,1.9,0,0,0-.73,1.51c.25,2.16-.82,4.23-.47,6.13,0,1.22,0,2.17,0,3.12,0,.79.47,1.13,1.33,1.13C193.61,210,193.39,209.24,193.31,208.75Z"/><path d="M225.3,175.2a1.28,1.28,0,0,0,1.47-1.27c.09-.85,0-1.72,0-3,.64-2.32-1-4.82-.89-7.49a1.12,1.12,0,0,0-1.51-1.14c-1,.27-.65,1.12-.46,1.6,1.25,3.22.51,6.58.85,9.86C224.86,174.38,224.66,175.09,225.3,175.2Z"/><path d="M202,245.19c.94-.05.35-1,.9-1.32-1.23-2.88-1-5.9-1.35-8.87a13.06,13.06,0,0,0-.25-2,1,1,0,0,0-1.27-.72c-.51.11-.85.42-.73,1,.77,3.54.65,7.18,1.54,10.71C201,244.62,201.06,245.24,202,245.19Z"/><path d="M210.15,174.73c0,3.35-.57,6.67-.34,10,0,.42-.48,1.11.44,1.18.66,0,.92-.35,1.14-.9a7.54,7.54,0,0,0,.4-3,62.39,62.39,0,0,1,.26-7.08c.11-.91.28-1.48-.88-1.64C209.82,173.17,210.15,174.11,210.15,174.73Z"/><path d="M221.86,220.73c0-.51.47-1.37-.75-1.42s-1.36.63-1.36,1.49c0,2.81,0,5.61,0,8.42H220c0,.18.17.39.11.54-.26.69-.13,1.58.51,1.66.92.11.7-.85.87-1.43C222.33,226.92,221.66,223.81,221.86,220.73Z"/><path d="M208.14,237.8c0,.56.07,1,.91,1s.87-.54.78-1a32.46,32.46,0,0,1,0-11.1.93.93,0,0,0-.75-1.19,1,1,0,0,0-1.32.88c-.15,1.44.27,2.92-.31,4C207.72,233,208,235.39,208.14,237.8Z"/><path d="M239,256.54c-.89.1-1,.88-1,1.6a11.22,11.22,0,0,1-.69,4.24,20.4,20.4,0,0,1-2.35,4.11c-.4.56-.79,1.27.09,1.6a1.25,1.25,0,0,0,1.56-.86c.12-.64.61-1,.95-1.42a12,12,0,0,0,2.36-7.44C239.62,257.42,240.34,256.39,239,256.54Z"/><path d="M202.44,177.13q1.09-4,2.18-7.91c.12-.44.58-1-.3-1.19-.49-.11-1.1-.32-1.44.36-.2.39-.7.7-.78,1.09-.53,2.5-1,5-1.46,7.61.48.41-.47,1.38.62,1.5S202.26,177.77,202.44,177.13Z"/><path d="M244.7,182.09a6,6,0,0,0,.17,1.3,16.86,16.86,0,0,1,.58,5.54.73.73,0,0,0,0,.92c.23.38-1.1,1.07.29,1.23.81.09,1.37-.17,1.49-1,.05-.36.42-.75.33-1.05-.73-2.38.26-4.95-1.11-7.26-.34-.58.21-1.82-1.06-1.66C244.35,180.26,244.73,181.37,244.7,182.09Z"/><path d="M219.28,255a1.1,1.1,0,0,0,1.15-1.09c.18-2.55,1-5,.91-7.5,0-.76,0-1.39,0-2,0-.34.18-.79-.38-1a1,1,0,0,0-1.22.51,6.84,6.84,0,0,0-.41,1.36c-.46,2.8.36,5.66-.56,8.42C218.62,254.21,218.64,255,219.28,255Z"/><path d="M223.91,247.82c0,1.48,0,2.43,0,3.38,0,.35.11.62.59.61.3,0,.54-.09.64-.38a4.83,4.83,0,0,0,.43-1.24,46.19,46.19,0,0,0-.41-9.46c-.06-.39-.21-1.14-.94-1s-.74.67-.71,1.21C223.65,243.38,223.8,245.86,223.91,247.82Z"/><path d="M198.48,203.18c0,.94,0,1.32,0,1.7,0,.57-.31,1.41.91,1.29a1.19,1.19,0,0,0,1.14-1.67c-.91-2.85.37-5.58.43-8.37,0-.6.48-1.4-.22-1.71-1-.44-1,.8-1.62,1.14-.16.09-.17.47-.17.71A37,37,0,0,1,198.48,203.18Z"/><path d="M241.76,155.27a10.39,10.39,0,0,1,.5,2.67c-.12,1.56.53,3.08.45,4.67,0,.64.33,1.76,1.33,1.56.75-.15,1.08-1,.91-2a19.83,19.83,0,0,1-.62-4.46,6.15,6.15,0,0,0-.75-2.86c-.24-.51-.49-.94-1.16-.9C241.48,154.05,242,154.76,241.76,155.27Z"/><path d="M194.27,247.38a3.58,3.58,0,0,0,.5-1.59c-.18-2.43-.46-4.85-.71-7.27-.08-.74-.06-1.7-1.15-1.68s-.93,1-1,2.29c.89,2.26.62,5.17,1.29,8,.07.29,0,.71.46.68A.89.89,0,0,0,194.27,247.38Z"/><path d="M212.31,155.67c1.15.35,1.51-.7,1.65-1.34.47-2.14.74-4.33,1.09-6.47-.36-.68.48-1.81-.64-2s-1.64.77-1.59,1.79a1,1,0,0,1,0,.38c-.66,1.9-.13,3.92-.83,5.82C211.75,154.48,211.32,155.37,212.31,155.67Z"/><path d="M203.07,216c.42-2.81.65-5.65,1.05-8.46.07-.47,0-.71-.38-.87a.93.93,0,0,0-1.13.26c-.34.46-.78.93-.72,1.52.21,2-.81,3.84-.47,5.53a11.2,11.2,0,0,0,0,2c.12.58-.58,1.6.64,1.64C203,217.62,203,216.56,203.07,216Z"/><path d="M254.15,254.45c-.18,2.79-.51,5.57-2.69,8.06,1.67.37,2.71-.11,3-1.29.82-2.88,1.48-5.8,2.2-8.7.08-.31.14-.72-.23-.84a1.27,1.27,0,0,0-1,.13A3.24,3.24,0,0,0,254.15,254.45Z"/><path d="M256.62,189.22a3.53,3.53,0,0,0,.34,1.44c.71,2.45,2.13,4.76,1.79,7.44-.1.83-.61,2.35.68,2.41.9,0,.72-1.59,1-2.37-.12-3.24-1.69-6.09-2.11-9.15-.06-.47.4-1.34-.7-1.23C256.81,187.85,256.7,188.6,256.62,189.22Z"/><path d="M230.29,180.34c-.8.1-1,.6-1,1.24,0,.38,0,.76,0,1.14.29,2.47,2.22,4.56,2.1,7.15a1.05,1.05,0,0,0,1.09,1c.65-.09.58-.77.61-1.29a47,47,0,0,0-2-8.16C231,181,231.24,180.22,230.29,180.34Z"/><path d="M231,201.73c-.2-.31-.12-.77-.72-.74a1,1,0,0,0-1,.81,8.88,8.88,0,0,0,0,1.14c.18,2.19.85,4.33.81,6.54,0,.66-.27,1.68.77,1.69s1.4-1,1.31-1.84a26.57,26.57,0,0,0-.48-3.91C231.33,204.2,231.71,202.89,231,201.73Z"/><path d="M243.18,240.51c-1,3,0,6.11-.9,9.13-.08.27-.66.86.08,1.07s.94-.29,1.16-.82c1.5-3.46.57-7.15,1.31-10.67a.49.49,0,0,0-.52-.66c-.27,0-.6,0-.7.27C243.46,239.38,242.46,239.72,243.18,240.51Z"/><path d="M253.62,197.88a35.66,35.66,0,0,0-.45-8.59.93.93,0,0,0-1-.81c-1,0-.68.69-.66,1.11.14,2.62.94,5.24-.06,7.9.07.8.27,1.81,1.21,1.95S253.57,198.52,253.62,197.88Z"/><path d="M210.65,212a4,4,0,0,0-.73,2.1c-.39,2.13.09,4.23,0,6.34,0,.7-.34,1.8.91,1.76,1,0,1.17-1.3,1.07-1.82a19.14,19.14,0,0,1,.19-7.73c0-.52.56-1-.13-1.29S211,211.66,210.65,212Z"/><path d="M233.32,152.33c-.1.36-.28.94.35,1.16.79.27,1-.38,1.15-.8a16.11,16.11,0,0,0,1.05-5.68,4,4,0,0,0-.86-3.07c-.26-.41-.57-1-1.14-.88a1.05,1.05,0,0,0-.66,1.39A13.75,13.75,0,0,1,233.32,152.33Z"/><path d="M227,203.45c-.17-.51-.81-1.32-1.49-1.1-.87.29-.68,1.27-.38,1.85a8,8,0,0,1,.66,4.49,5.1,5.1,0,0,1-.17,2.21c-.25.52-.55,1.18.19,1.45.89.32,1.19-.45,1.47-1C228.5,208.67,227.84,206,227,203.45Z"/><path d="M242.29,201.41c-.69,2.79.3,5.6,0,8.42,0,.18-.63,1,.3,1.11s1-.44,1.14-1.06a13.28,13.28,0,0,0,.33-4.67c0-1.18,0-2.36,0-3.54a1.2,1.2,0,0,0-.8-1.34C242.23,200,242.39,201,242.29,201.41Z"/><path d="M245.7,229.83a23.82,23.82,0,0,0,2.65-9.34,3,3,0,0,0,0-.57c-.07-.4.27-1-.34-1.14s-.72.54-1,1c-.47.76-.24,1.6-.59,2.37-1,2.19-.72,4.68-1.9,6.85a.92.92,0,0,0,.44,1.33C245.37,230.46,245.56,230.1,245.7,229.83Z"/><path d="M205.06,253.67c-1.09-.06-.88.69-.8,1.18.36,2.21.84,4.41,1.19,6.62.12.76.25,1.59,1.27,1.29.75-.22.88-1,.72-1.86a37.5,37.5,0,0,0-1.08-5.34C206.71,254.16,206.16,253.72,205.06,253.67Z"/><path d="M249.74,202.67c0,2.76.54,5.56-.85,8.21a.53.53,0,0,0,.24.81c.41.14.65-.18.87-.41a6.06,6.06,0,0,0,1.85-5c-.05-1.54.13-2.73-.41-3.89-.24-.53-.47-.95-1.14-.9C249.38,201.55,249.74,202.24,249.74,202.67Z"/><path d="M235.27,237.49c.65-1.65-.6-3.15-.23-4.72.16-.68.06-1.6-1-1.49-.92.1-1.16.89-1,1.73a47.93,47.93,0,0,1,.63,8.23c0,.45-.21.91.42,1a.75.75,0,0,0,.9-.82C234.75,240.05,235.69,238.76,235.27,237.49Z"/><path d="M237.38,208.74c-.22-.4-.06-1.14-.81-1a1.18,1.18,0,0,0-1,1.12c0,.38,0,.76,0,1.14-.17,2.43,1,4.86,0,7.31a.58.58,0,0,0,.45.89c.53.09.67-.23.91-.57,1-1.5.7-3.16.78-5C237.46,211.49,238.13,210.08,237.38,208.74Z"/><path d="M195.12,187.38a17.11,17.11,0,0,1,1.19-7.69c.21-.49-.06-.74-.42-.94a.9.9,0,0,0-1.16.11,5.3,5.3,0,0,0-.83,1.49c-.82,2.37-.4,4.82-.49,7-.43,1.06.19,1.14.88,1.18C195.38,188.63,195.15,187.89,195.12,187.38Z"/><path d="M256,167.55a21.75,21.75,0,0,1,.3,7,1,1,0,0,0,.88,1.28c.9.14,1.06-.63,1.14-1.07a16.37,16.37,0,0,0,.06-2.78c.41-1.46-.35-3-.36-4.54,0-.55.16-1.18-.88-1.14A1.07,1.07,0,0,0,256,167.55Z"/><path d="M249.46,254.32a.55.55,0,0,0-.33-.79,1,1,0,0,0-1,.2,2.89,2.89,0,0,0-.85,1.25c-.94,2.4-.56,5.09-2.06,7.38-.23.35-.26,1.08.71,1,.68-.06.82-.58,1.09-1C248.56,259.86,248.39,256.94,249.46,254.32Z"/><path d="M224.36,152.93c.1.6-.69,1.74.84,1.69,1.22,0,1.24-1,1.25-1.82,0-1.9,0-3.8,0-5.7,0-.49.32-1.2-.76-1.24a1.17,1.17,0,0,0-1.3,1.19,28.13,28.13,0,0,0-.06,3.42h0A14.83,14.83,0,0,0,224.36,152.93Z"/><path d="M228.41,194.81c.56-.13.5-.45.53-1,.16-2.87-1.36-5.5-1.36-8.32,0-.35-.14-.61-.6-.61a.92.92,0,0,0-1,.58,9,9,0,0,0-.16,1.58c.09,2.38,1.28,4.62,1.68,7C227.61,194.59,227.74,195,228.41,194.81Z"/><path d="M252.63,237.87c-.6-.21-.85.16-1.09.59a7.79,7.79,0,0,0-.76,2.11c-.39,1.83,0,3.77-1,5.52-.21.4-1,.59-.5,1.25a1.34,1.34,0,0,0,1.13.4c.89,0,1.06-.68,1.15-1.13.52-2.57.93-5.16,1.37-7.77C252.9,238.52,253.15,238.05,252.63,237.87Z"/><path d="M245.82,175.82c-1-2.39-2.18-4.73-2.41-7.33-.06-.69-.79-.81-1.49-.74s-.62.67-.8.91a10.37,10.37,0,0,0,.35,1.25c.93,2.13,1.91,4.24,2.8,6.39.21.52.38,1.1,1,.92S246.11,176.5,245.82,175.82Z"/><path d="M217,240.07c.64-3.26-.29-6.2-.68-9.17a.92.92,0,0,0-1.12-.88c-.78.12-.81.64-.67,1.25.33,1.41.26,2.91.63,4.25S214.67,238.9,217,240.07Z"/><path d="M217,169.06c.48-1.84-.36-3.71.17-5.52.15-.5.54-1-.22-1.21a1.08,1.08,0,0,0-1.5.89,22.77,22.77,0,0,0-.06,3.22h0a22.18,22.18,0,0,1-.26,3.4c-.18.82-.66,1.9.31,2.14,1.21.29,1.19-1.06,1.54-1.78C217.1,169.86,216.91,169.42,217,169.06Z"/><path d="M199.68,223a22.24,22.24,0,0,0,1.46,5.73c.24.56.09,1.69,1.2,1.46s.82-1.27.68-1.95c-.39-1.87-1-3.72-1.44-5.57-.13-.5,0-1.21-.91-1.15S199.65,222.24,199.68,223Z"/><path d="M256.47,219.68c.58-2.22.58-4.53,1.4-6.61-.3-.62.42-1.47-.75-1.63s-1.2.63-1.45,1.26c-.86,2.19-.12,4.51-.68,6.72-.13.51-.5,1,.35,1.14C256,220.66,256.32,220.25,256.47,219.68Z"/><path d="M217.55,151.4c0,.39.31.82.54,1.2a1.3,1.3,0,0,0,1.49.46A.68.68,0,0,0,220,152c-1.12-2-.71-4.2-.8-6.32a1,1,0,0,0-.85-1c-.82-.19-.92.49-1.13.88a3.88,3.88,0,0,0-.2,1.34A25.28,25.28,0,0,1,217.55,151.4Z"/><path d="M262,212.84c-.07,2.32-.25,4.64-.41,7,0,.5.06,1,.62,1a1,1,0,0,0,1.08-1.08,44.56,44.56,0,0,1,.9-10A3.21,3.21,0,0,0,262,212.84Z"/><path d="M212.25,271.9c.44-2.39.87-4.78,1.33-7.28-.21-.22.29-.82-.51-1-.55-.09-.67.27-.91.59a2.88,2.88,0,0,0-.76,1.5,42.59,42.59,0,0,1-1,5.7c-.18.7-.23,1.12.51,1.31A1,1,0,0,0,212.25,271.9Z"/><path d="M231.5,257.29c.16-.66.41-1.76-.74-1.87-.89-.08-1.17.76-1.39,1.59-.56,2.08-.07,4.39-1.75,6.25-.52.58.22.76.92.85a2.05,2.05,0,0,0,1.22-1.09C230.39,261.12,231,259.22,231.5,257.29Z"/><path d="M207.78,198.86c1,.13.82-.8,1.12-1.32a2.29,2.29,0,0,0,.29-1.08c.13-1.81-.27-3.63.41-5.42a.89.89,0,0,0-.92-1.22c-.93,0-1.1.72-1.14,1.29-.15,2.06.17,4.15-.51,5.87C207.07,197.91,206.87,198.74,207.78,198.86Z"/><path d="M258.11,234c-.09-.51.75-1.35-.5-1.45s-1.29.71-1.4,1.47c-.28,1.87.1,3.82-1,5.6-.3.49-.42,1.32,1,1.29a1.62,1.62,0,0,0,1.38-1.85C257.57,237.31,258.4,235.68,258.11,234Z"/><path d="M202,162c.73-1.92,1.34-3.88,1.91-5.55-.16-.71.17-1.27-.5-1.43a1,1,0,0,0-1.29.71c-.08.17-.2.33-.29.49-1.07,2-.58,4.38-2.19,6.24-.28.32.13.93,1,.61A2.22,2.22,0,0,0,202,162Z"/><path d="M201.94,189.06a18.93,18.93,0,0,1,.58-4.45c.07-.5.81-1.07-.24-1.33a1.26,1.26,0,0,0-1.62.84,10.24,10.24,0,0,0-.83,4c0,.4,0,.66,0,.91,0,.72-.26,1.71,1,1.78C202.21,190.92,202,189.83,201.94,189.06Z"/><path d="M230.8,234.91c-.31-.57.59-1.94-.81-2-1-.05-1.07,1.38-1.23,2.12-.37,1.71.22,3.55-.7,5.2-.39.7-.43,1.34.37,1.57s1.31-.76,1.3-1.16C229.69,238.71,230.91,237,230.8,234.91Z"/><path d="M227.5,220.2c-.46-.16-.73.27-.91.62a1.93,1.93,0,0,0-.39,1.57c.27,1.5.5,3.18.93,4.81.13.5.35,1.42,1.31,1.22.72-.15.77-.87.66-1.44a27.44,27.44,0,0,1-.93-5.94A1.12,1.12,0,0,0,227.5,220.2Z"/><path d="M216.93,187.31c.2.61-.57,2,.85,2,1.25,0,1.26-1.23,1.29-2.22a10.41,10.41,0,0,1,.31-3.73,1.41,1.41,0,0,0-1-1.9c-1.31-.25-1.39,1.24-1.27,1.46C217.88,184.39,216.77,185.74,216.93,187.31Z"/><path d="M217.22,212.43a9.8,9.8,0,0,1,0,1.33c-.11.84.16,1.82,1,1.86,1.07,0,1.4-1.12,1.32-1.86a8.92,8.92,0,0,1,.26-4.25,1,1,0,0,0-.66-1.27c-.71-.26-.92.27-1.25.69C217,210,217.28,211.25,217.22,212.43Z"/><path d="M212.76,249.39a12.44,12.44,0,0,1,.26-5.12,1.22,1.22,0,0,0-.92-1.57c-.76-.2-1,.5-1,1.11a16.39,16.39,0,0,0-.39,3.79c0,.7-.05,1.4,0,2.09s.66.76,1.18.7S212.93,250.08,212.76,249.39Z"/><path d="M231.15,252.91c0,.49-.33,1.22.75,1.25s1.33-.45,1.38-1.29a23.48,23.48,0,0,1,.19-4.53,1.13,1.13,0,0,0-.89-1.34,1.27,1.27,0,0,0-1.38,1.16,20.68,20.68,0,0,0,0,2.66h0C231.14,251.51,231.1,252.21,231.15,252.91Z"/><path d="M236.36,228.3c0,.69.09,1.37,1,1.36s.63-.83.65-1.3c.06-2.06.07-4.12,0-6.17,0-.42,1.09-1-.24-1.27a1.12,1.12,0,0,0-1.37,1.09,27.81,27.81,0,0,0-.06,3.43h0C236.38,226.39,236.38,227.34,236.36,228.3Z"/><path d="M263.28,231.44a46,46,0,0,1-1.33,7c-.1.45,0,1,.51,1.12a1,1,0,0,0,1-.72c0-2.22,1.46-4.16,1.47-5.93-.05-1.11.23-1.95-.73-2.24A.77.77,0,0,0,263.28,231.44Z"/><path d="M206.59,247.14a3.78,3.78,0,0,1-.36-2.62c.07-1.06.75-2,.62-3,0-.3.08-.68-.34-.8s-.77-.12-.88.26c-.33,1.23-2,2-1.29,3.51-.34,1.16.29,2.14.47,3.18.08.44.32,1.24,1.21,1S207.06,247.84,206.59,247.14Z"/><path d="M212.1,253.39a4.19,4.19,0,0,0-.22,1.41c.16,1.14.32,2.2.45,3.25.08.65-.21,1.72.82,1.62a1.64,1.64,0,0,0,1.16-1.92c-.46-1.4-.06-2.77-.26-4.13-.07-.49.4-1.24-.54-1.4S212.37,252.87,212.1,253.39Z"/><path d="M252.24,225.94c-.25,1.54.21,3.15-.63,4.73.75.57,0,2,1.2,2,.87,0,1-1.25,1.05-2.12,0-.32,0-.64,0-1,0-1.14,0-2.28.11-3.42,0-.49.79-1.06-.19-1.37S252.35,225.29,252.24,225.94Z"/><path d="M205.77,271.23c-.58-1.18-.22-2.37-.31-3.55,0-.58,0-1.29-.82-1.29a1.32,1.32,0,0,0-1.3,1.25c-.06.63,0,1.27,0,1.9h0a8,8,0,0,0,0,2.08,1.55,1.55,0,0,0,1.89,1.15C206.34,272.56,206,271.64,205.77,271.23Z"/><path d="M220.29,138.93c1.06-.08.61-.83.67-1.31.17-1.42-1.36-2.39-1.3-3.84,0-.55-.19-1.35-1.1-1.31-1.08,0-1,.87-1,1.57.07,1.38,1.26,2.47,1.29,3.88C218.87,138.75,219.48,139,220.29,138.93Z"/><path d="M238.19,202.7c.17-1.26.47-2.51.16-3.27-.07-1.43-.09-2.35-.16-3.27a.81.81,0,0,0-.93-.82.83.83,0,0,0-.74.81,31.87,31.87,0,0,0,.39,6.67c.05.36.3.7.6.69S238.14,203.12,238.19,202.7Z"/><path d="M221.21,173.76c-.66,0-.72.32-.89.79a1.63,1.63,0,0,0,.06,1.22c-.11,1.59.55,3.06.89,4.57a1,1,0,0,0,1.13.66.49.49,0,0,0,.48-.68c-.63-1.89-.48-3.87-.77-5.8C222,174,221.83,173.77,221.21,173.76Z"/><path d="M209.17,203c0,1.07-.36,2.29.1,3.17s-.51,2.48,1.23,2.29.29-1.69.82-2.43c-.21-1.11.19-2.17-.41-3.2-.23-.4-.22-.87-.9-.75A.92.92,0,0,0,209.17,203Z"/><path d="M213.67,135.72c.15-1-.72-.66-1.29-.36-1.54.82-.56,2.06-.24,2.84.58,1.38,1.06,3.27,3.73,2.92C215.22,139.12,213.34,137.84,213.67,135.72Z"/><path d="M252.84,170.83c0-.43-.13-.75-.71-.74-.42,0-.91-.06-1,.48a14.28,14.28,0,0,0,1.64,7.45C253.7,175.58,252.86,173.21,252.84,170.83Z"/><path d="M258.49,246.4c-.06,1.67.33,3.4-1.11,5.1a2.22,2.22,0,0,0,2.18-1c.92-1.28.61-2.68.62-4,0-.68.46-1.83-.64-1.9C258.23,244.46,258.52,245.62,258.49,246.4Z"/><path d="M208.3,161.16a1.59,1.59,0,0,0-.92-.67c-.26,0-.54.32-.59.68-.3,1.84-.62,3.67-1,5.78C207.94,166,209.22,162.56,208.3,161.16Z"/><path d="M230,133.81c-.11,1.42,0,2.86-.05,4.65,2.4-1.3,2.35-3,2.13-4.66-.06-.49.38-1.22-.69-1.31S230.06,133.17,230,133.81Z"/><path d="M239.25,189.22c-1.11.08-.72,1-.55,1.78-.48,1.27.83,2.43.85,3.82a.77.77,0,0,0,1,.76.94.94,0,0,0,.65-1.24q-.41-1.81-.79-3.63C240.24,190.05,240.2,189.15,239.25,189.22Z"/><path d="M230.57,162.28c1.08-.05,1-.88,1-1.57,0-.25,0-.5,0-.75.06-1,.14-2.41-1.18-2.45-1.57,0-.66,1.45-1,2.1,0,.46,0,.77,0,1.08C229.41,161.45,229.32,162.34,230.57,162.28Z"/><path d="M221.29,159.43c-.05-.61-.39-1.16-.45-1.8s.75-1.88-.89-1.81c-1.41.06-.49,1.18-.76,1.79a1.47,1.47,0,0,0,0,.56c0,.5,0,1,0,1.51,0,.74.08,1.55,1.15,1.38C221.14,160.94,221.35,160.15,221.29,159.43Z"/></svg>