<svg id="_лой_1" data-name="—лой 1" xmlns="http://www.w3.org/2000/svg" viewBox="0 0 439.77 396.02"><defs><style>.cls-1{fill:#fff;}.cls-2{fill:#a3a3a3;}.cls-3{fill:#f9c2cf;}</style></defs><title>Монтажная область 2 копия 2</title><path class="cls-1" d="M18.07,178c19.94-15.25,49.2-19.87,74-18.66s49.82,15.59,72.83.84c16.58-10.62,37.49-40.18,60.37-30,6.19,2.75,7.47,5.68,14.85,4.52,5.17-.81,9.48-3,15.3-1.85,5.53,1,9.25,4.15,15.33,3.2,5.93-.93,10.27-3.69,16.67-3.35,11.14.6,20.91,4.43,32,5.33,12.22,1,17.8,8.37,22,19.3,3.42,8.92-.45,25.82,11.34,28.74,10.74,2.66,24.1-7.52,33.17,2.13,7,7.5-.23,21.92,9,27.67,4.67,2.92,8.89,2.28,13,7a24,24,0,0,1,6.17,13.83c1.14,10.62-8,18-11.19,27.33-4.25,12.59-10.29,17.07-22.29,21.85-11.06,4.41-15.62,14.25-25.18,20.81-11.1,7.62-28.82,12-42,11.35-5.51-.27-11.1-2.58-16.63-3.35-8.24-1.15-16.77-.34-25.2-.67-22.12-.85-44.91-4.71-66.68-8.5-16.61-2.89-36.5-7.45-49.48-18.13-11.28-9.28-18.4-22.42-28.62-32.7-13.17-13.26-30.74-22.08-48.73-26-9.05-2-18-4.75-27.17-6-8.88-1.21-16.19-2-24.13-6.67-6.65-3.88-12.16-8.4-14-16C11.21,193.91,18.07,178,18.07,178Z"/><path class="cls-2" d="M154.48,251.71c2.08-.93,3.72.66,5.59.93,1.34.19,1.22,1.36.44,2-1.47,1.12-.71,1.38.12,2,3.29,2.61,6.95,4.56,10,7.66.41.42,1,1.24,1.5.49,1.52-2.26,2.87-.9,4.19-.15,1.63.92,3.1,2.32,5.16,1.46a.67.67,0,0,1,.95.42,2.39,2.39,0,0,1-.32,1.25c-.88,1.85-2.37,1.13-3.69,1.43a26.66,26.66,0,0,1,5.77,4.13c.61.5,1.42,1.28,1.91-.43.57-2,1.32-2,2.38-.56a13.3,13.3,0,0,0,4.28,3.8c.57.31,1.23.94.6,1.55-1.42,1.38-.24,1.9.38,2.22,1.58.84,3,2,4.62,2.8,5,2.55,10.08,4.07,15.69,3a.92.92,0,0,1,1.2.86c-.24,3.24,2.18,2.27,3.43,3.09.67.44,1.6.32,2.38.6,5.08,1.82,10.14,3.71,15.67,3.81-.38-.83-1.24-1.54-.4-2.58a1.53,1.53,0,0,1,2.3-.13,5.2,5.2,0,0,0,3.22.83c.87,0,1.84,0,1.93,1.09.11,1.38-1.09,1.29-2,1.52a19.68,19.68,0,0,0,11.18,1.74c-1.07-.51-1.94-.91-2.79-1.36a1.28,1.28,0,0,1-.61-1.53c.23-1,.85-.6,1.3-.51,2.08.38,4,1.75,6.26,1.07.38-.11,1.15.46,1.18,1.26,0,1.2-.91,1.16-1.47,1.29s-1.48-.23-2,.74c2.5,1.11,5.18.48,7.76.72s5.16-.33,7.75-.55c-1.13-.53-2.64-.88-2.16-2.7.41-1.56,1.71-.44,2.54-.31a45.35,45.35,0,0,1,7.21,1.52c2.82.92,5.89-.07,8.85-.08,4.15,0,8.27-.85,12.41-1.12,3.33-.22,6.7-1.72,10-3,2.54-1,5.4-2,7.29-4s8.88-5.5,9.92-5.95a20.68,20.68,0,0,1,6.11-1.41,17.44,17.44,0,0,0,10.72-5.36c3.33-3.44,7.3-5.23,11-7.6a75.25,75.25,0,0,0,10.14-7.33,9.21,9.21,0,0,1,3.23-2,8.89,8.89,0,0,0,3.81-2.47c-.38-1.07-1.88-1.66-.92-3.23.34-.55,1-1.19,1.59-.77,1.21.8.32,2.09,0,3.51,1.69-1,3.12-1.74,4.5-2.63,5.11-3.32,10.14-6.86,15.33-10,2.45-1.45,3.28-4.17,4.95-6.28-2.22,0-3.66-1.83-5.75-1.95-4.14-.24-8.2,2.07-12.34,1.22-.47-.09-9.61,1.72-12.58,1.53-3.79-.25-7.43,1.56-11.45,1-6.27-.93-12.83,0-19.28.26-.91,0-1.94.44-2.37-.7a2.45,2.45,0,0,1,1.14-2.64c3.19-1.77,5.53-5,8.56-7.07,4.67-3.19,9.2-6.7,13.73-10.22,2.18-1.7,4.16-3.77,6.31-5.54,4-3.28,8-6.47,11.95-9.7l-.2-.56-2.8.77c-7,2-13.52,5.75-20.4,8.22-7.1,2.56-14.24,3.7-21.45,4.58a1.92,1.92,0,0,1-1.43-.54c-5.2-4.14-11.06-7-16.1-11.47-4.15-3.68-9.07-5.86-13.56-8.89-1.67-1.12-2.88-2.83-4.35-4.18-2.17-2-5.25-2.5-6.72-5.63a.73.73,0,0,0-1-.38c-.5.25,0,3.06,0,4,.3,7.45,6.74,24.68,7.26,27,.25,1.07.25,2-.7,2.55-.68.41-1.14-.06-1.44-.75A63.93,63.93,0,0,1,287.58,206a82,82,0,0,0-3-10.83,17.72,17.72,0,0,1-1.5-8.06c.08-1.07-1.92-3.68-1.91-4,0-3.21-1.22-1.76-2.3-.77-.77.7-1.64,1.58-2.43.77s.14-1.76.46-2.64a9.74,9.74,0,0,0,.3-1.61,3.43,3.43,0,0,0-.64-3.19c-.83-.78-1.65-.06-2.46.6s-1.73,1.16-2.54.54-.1-1.65,0-2.49a7.06,7.06,0,0,0-.07-2.38c-.19-.86-.5-1.24-1.22-.79-1.21.76-2.36,1.39-2.91,3.24-.84,2.81-1.87,5.55-2.79,8.33-3,9.05-6.52,17.9-7.86,27.53-.08.55,0,1.43-.81,1.35s-1.08-.61-1-1.47c.24-1.7,0-3.37.27-5.11.5-3.08,2-5.71,2.78-8.63,1.11-4,2.1-8,3.37-11.87s1.37-3.78-1.7-5.75a6.56,6.56,0,0,0-2.3-.77c-4.46-1-9.06-.65-13.57-1.12a82.74,82.74,0,0,0-9.13.06c-4.26,0-8.56.94-12.8,1.28-5,.41-10,1.25-15,1.79a9.72,9.72,0,0,0-4.59,2c-1.29.94-.29,2.5-.5,3.77-1.25,7.29-.17,14.33.51,21.43.47,5,1,10-.37,15.07-.37,1.32-.68,2.72-2.16,2.69-.46,0-1.32-.09-.63-1,2.09-2.88,1.31-6.28,1.39-9.31.21-7.18-1.63-14.06-1.57-21.29a48.75,48.75,0,0,0-.41-8.11c-.41-2.57.55-5.57,1-8.36.79-5.22.82-5.22-3.57-3.77a1,1,0,0,1-1.24-.23,1.52,1.52,0,0,1-.12-1.73,14.31,14.31,0,0,0,.93-1.86c.53-1.72,1.39-3.88.63-5.2s-2.34.42-3.55.79a2,2,0,0,0-.44.12c-1.31.73-1.63,0-1.49-1.42a10.86,10.86,0,0,1,1.59-5.21,14.84,14.84,0,0,0-2.57,1.22c-1.79,1-2.77,3-4.16,4.54a128,128,0,0,0-12,15.07c-4.69,7-9.81,13.5-13.91,21-.47.85-1.06,1.47-1.84.87s-.28-1.58,0-2.2c.71-1.67,1.61-3.22,2.31-4.57-2.28-3-5.26-2.6-8.27-1.79-1.58.42-3.27.72-4.28,2.64-.34.64-.72,1.3.23,1.66.54.2,1.51-.28,1.4,1.11a2.77,2.77,0,0,1-2,2.47c-2.19.77-3.33,2.79-4.82,4.71a3.71,3.71,0,0,0,2.44.45c.65-.09,1.26.45,1.45,1.28a1.58,1.58,0,0,1-.84,1.75,21.09,21.09,0,0,0-2.54,2.61c-1.36,1.4-1.52,2.61-.43,4.12s.4,2.52-.87,3.37a6.54,6.54,0,0,0-1.69,1.46c-.64.88-1.73,1.58-.25,3s.72,3.19-1,3.89c-3.31,1.33-3.39,1.85-1.64,5.21.64,1.23,2.32,1.73,2,3.49-.37,2.29.78,3.26,1.92,4.34a41,41,0,0,1,3.25,3c2.86,3.34,6.44,5.5,9.55,8.42A.91.91,0,0,0,154.48,251.71Zm216.64-7.55a1.83,1.83,0,0,1,1.81-1.65c.71,0,.84.82.72,1.6-.16,1.13-.66,1.56-1.6,1.51S371,244.7,371.12,244.16Zm6.09,3.41c.23-1.08.66-1.61,1.47-1.45s1,1.3,1,2c0,.48-.78,1.29-1.37,1.08S376.89,248.62,377.2,247.57ZM178.7,263.17a15.2,15.2,0,0,0-5.84-5,1.55,1.55,0,0,1-.73-1.91c.3-.69.94-.4,1.42-.3,3,.5,4.77,3.29,7,5.22a1.32,1.32,0,0,1,0,1.89A1.14,1.14,0,0,1,178.7,263.17Zm-11.55-17.86c1.47.8,3,1.56,4.43,2.44a1.72,1.72,0,0,1,.33,2.4c-.52.86-1.37,1.32-2.06.23-.86-1.36-2.29-1.71-3.37-2.68-.59-.52-1.78-.45-1.48-1.71S166.37,245.56,167.15,245.31Zm109,15.12.22,0c1.2.18,3.13.45,2.9,1.77-.34,1.91-1.93.23-3,.41-.57.1-1.15,0-1.74.16s-1.75.45-1.79-.74a1.74,1.74,0,0,1,1.86-1.85,8.49,8.49,0,0,1,1.54.23Zm-39.07,3.26c-.43-.18-1.15.09-1-.94a1.21,1.21,0,0,1,.86-1.16c2.55-.42,5.1-.78,7.53-1.14a1.16,1.16,0,0,1,1.27,1,1.34,1.34,0,0,1-.66,1.57c-1.24.46-2.33,1.7-3.83.85C240,263.18,238.45,264.28,237.1,263.69Zm49,10.55c-.5-.29-1-.57-.87-1.3s.6-.72,1-1c1.24-.71,2.36.05,3.63,0,.68.72,2.57-.47,2.39,1.23-.21,1.9-1.9,1.76-3.15,1.47C288.08,274.43,287,274.79,286.06,274.24Zm-23-1.43c-.61-.16-1.28-.29-1.34-1.08s.64-1,1.24-1.27a5.75,5.75,0,0,1,3.59-.47c1.6.32,3.61.26,3.3,2.12-.35,2.12-2.16.79-3.24.61S264.19,273.12,263,272.81Zm-27.45-2.28c-.42,2.26-2.33.71-3.51.62s-3.17-.47-2.72-2.37c.38-1.6,2.05,0,3.17-.37C233.53,269.26,236.07,267.83,235.57,270.53Zm55.23,15.9c-.6.14-1.59-.6-1.54-1.79s1-1.29,1.68-1.27c1.91.07,3.76.73,5.74.34.76-.14,1.19.56,1.06,1.78a4.1,4.1,0,0,1-2.74,1.19C293.59,286.78,292.28,286.08,290.79,286.43Zm-52.3-5.83c-1-.35-2.13-.71-3.22-1.14a1.51,1.51,0,0,1-.95-1.54,1.6,1.6,0,0,1,1.46-1.1,7.51,7.51,0,0,1,3.54,1.15c.74.37,2,.7,1.63,2S239.43,280.58,238.49,280.6Zm20.5-.42a1.59,1.59,0,0,1,1.57-1.62c2-.19,4-.25,6-.36,1,.3,2.35.36,1.8,2.25-.51,1.73-1.52,1-2.51.61a8.29,8.29,0,0,0-5.09-.1C259.86,281.2,259.08,281.21,259,280.18Zm-30.53-8.91c.54-.22,1,.44,1,1.13,0,.84-.39,1.5-1.06,1.51a15.79,15.79,0,0,1-6.73-1.4c-1.14-.5-.25-1.38.18-1.62a7.06,7.06,0,0,1,2.17-.46C225.43,271.1,226.79,271.95,228.46,271.27Zm48,10.23c-.52.08-.88-.69-.71-1.39.26-1.08,1-1.82,1.85-1.63,2.19.47,4.42.11,6.95.28.07.06.58.25.72.66.21.61-.37,1-.74,1.17C281.91,281.78,279.19,281.1,276.5,281.51ZM252,274.34c-1.81.47-3.46-.11-5.13-.73a14.27,14.27,0,0,0-2.87-.49c-.64-.1-1.23-.43-1.07-1.3s.82-.92,1.46-.86c2.58.24,5.06,1.32,7.51.66.91.1,1.7.24,1.6,1.27A1.79,1.79,0,0,1,252,274.34Zm-35.56-8.41c.46.39,1.62.07,1.27,1.19s-1.59,1.67-2.27,1.31a11.16,11.16,0,0,0-5.61-1.3c-.77,0-1.28-.52-1.14-1.52a1.2,1.2,0,0,1,1.52-1.16l2.83.45C214.07,265.15,215.37,265,216.44,265.93Zm59.42,7.73c-.74-.35-2-.57-2.63-2.08-.16-.41.13-.53.27-.61a2.84,2.84,0,0,1,3.65.47c.47.46,1.38.75,1,1.78S277,273.93,275.86,273.65Zm-17-9.31c-.47-.08-1.15,0-1-1,.13-.73.54-1.13,1.13-1.14,1.41,0,2.81,0,3.85,0a5,5,0,0,1,1.47.26c.91.54,2.52.83,2.22,2.22s-1.7.55-2.6.44C262.26,264.95,260.56,264.64,258.86,264.34Zm25.65,1.57c0-1.1,1-.9,1.54-1.11,1.47-.53,2.9-1.26,4.49-1.18a1.29,1.29,0,0,1,1.23.67c.31.77-.46,1-.84,1.35a16,16,0,0,1-5,1.33C285.38,266.95,284.54,266.81,284.51,265.91ZM175.08,245.54c.73.31.53.87.45,1.49a1,1,0,0,1-1.21.92,34.8,34.8,0,0,1-4.1-2.08c-.52-.3-1.1-1-.82-1.64.38-.92,1.2-.43,2.34-.35C172.57,244.3,173.8,245,175.08,245.54Zm4.35,5.18c1.6-.87,3.48-.14,5.54,2.28-1.57,1.31-5.11,1-6.18-.51C178.11,251.54,178.73,251.1,179.43,250.72Zm35.25,7.17c1.62-.41,3.22-1.06,4.71-.21,1.84-.28,3.22.95,4.83,1.21.42.07,1,.07.87.85-.07.61-.08,1.16-.8,1.45a2.21,2.21,0,0,1-2,.11,9.78,9.78,0,0,0-7.36-.81c-.94.21-1.53,0-1.6-1.09S213.88,258.09,214.67,257.89Zm-13.82,1.71c.36.21.89.49.56,1.12s-.87,1.23-1.29.88c-1-.81-2.18-.46-3.13-1.05-.5-.31-1.47-.64-1.2-1.51a1.65,1.65,0,0,1,2-1.15C198.8,258.46,199.84,259,200.86,259.61ZM193,267.84c-1.88-.72-3.17-2.45-4.52-4A1.28,1.28,0,0,1,190.3,262c1.35,1.23,2.46,2.79,4.12,3.53.52.23.52,1.07.2,1.66A1.24,1.24,0,0,1,193,267.84Zm8.88,1.42c-.48-.39-1.48-.53-1.16-1.55s1.11-.64,1.78-.63c2.27.06,4.16,1.7,6.63,1.54-.45,1.36-1.06,2-1.68,1.94C205.56,270.27,203.52,270.61,201.87,269.27Zm-4,3.75q-3.58-1.41-7.11-3a.88.88,0,0,1-.38-1.11c.55-1.2,1.42-.7,2.35-.62,1.85.7,3.86,1.4,5.81,2.25.42.18,1.17.55.8,1.55C199.09,272.94,198.53,273.27,197.91,273Zm4.39,1.77c-.64,0-.07-.69-.1-1-.1-.89.48-1,1-1,1,.13,2.06.32,3.31.51,1,.41,2.48-.06,3.6.95.34.31.78.49.59,1.21s-.51.51-.87.61C207.14,276.85,204.87,274.93,202.3,274.79Zm23.78,4.34a31.51,31.51,0,0,0-6.7-1.6c-.46-.05-1.18.07-1-1,.15-.84.62-1.27,1.32-1.17,1.19.16,2.37.36,3.55.55h0l3.32.52c.92.15,1.24.77,1.07,1.88C227.44,279.71,226.63,279.32,226.08,279.13Zm20.29,2.73a1.1,1.1,0,0,1,1.27-.82,29.33,29.33,0,0,1,5.39.82,5.85,5.85,0,0,0,2,.3c.54,0,1.46-.36,1.49.95s-.78,1.51-1.49,1.62a9.16,9.16,0,0,1-2.21-.18c-1.93-.18-3.59-1.5-5.56-1.5A.94.94,0,0,1,246.37,281.86Zm-2.54,2.95a1.76,1.76,0,0,1,1.15,1.7,1,1,0,0,1-1.14,1c-1-.12-2.15.57-3.14-.41-.46-.45-1.12-.67-.85-1.52a1.13,1.13,0,0,1,1.35-.69C242.06,285,242.92,285.43,243.83,284.81Zm-7.81-.16c.28.1.56.2.52.68a1.11,1.11,0,0,1-.64,1c-.91.53-1.76.2-2.84.08-1.14.24-2.14-.84-3.35-1.16-.77-.21-.9-1.28-.79-2,.14-.88.93-.79,1.48-.6C232.3,283.28,234.16,284,236,284.65Zm10.79,3.06c1.42-1.59,3-.87,4.48-.67,1.33.18,2.66.41,4,.64.42.07,1,.06.84.86a2,2,0,0,1-.62,1.09C253.88,290.77,248.2,289.49,246.81,287.71Zm20.86,1.37a5.31,5.31,0,0,0-2.52.06c-.66.18-1.32-.45-1.5-1.21a1,1,0,0,1,1.13-1.29c2.15.31,4.46-.49,6.46.8.52.33,1.53.52,1.17,1.48a1.79,1.79,0,0,1-2.14,1.14C269.32,289.86,268.64,288.84,267.67,289.08Zm-55.57-9.25c-.67-.35-.53-1-.39-1.56.26-1.13,1-.75,1.47-.54a53.46,53.46,0,0,1,4.89,2.62,3.84,3.84,0,0,0,1.44.55c.85.13,1.8.3,1.47,1.68-.29,1.2-1.32.87-1.93,1.09C216.43,282.8,214.39,281,212.1,279.82ZM207.18,285c-2-1-4.45-2.11-6.29-4.49a1,1,0,0,1-.2-1.18c.29-.44.73-.84,1.19-.59,2.39,1.33,4.49,3.33,7.14,4.11.5.15.57,1,.27,1.65S208.32,285.34,207.18,285Zm21.21,4.48c-2.8-.86-5.55-1.94-8.32-2.93a1,1,0,0,1-.72-1.15c.15-.79.72-.45,1.11-.41.82.09,1.62.25,2.65.41,1.93-.12,3.7,1.44,5.82,1.51.56,0,1.48-.22,1.3,1.17S229.07,289.66,228.38,289.45Zm36.84,3.78c-.53.77-.89,1.11-1.62.53a5.82,5.82,0,0,0-3.43-1.43c-.55,0-1.11-.29-1-1,.06-.53.61-.67,1.11-.67.65,0,1.29-.57,1.9-.22a5,5,0,0,1,2.61,1.25C265.14,291.92,266,292.16,265.22,293.22Zm19.19-.38a1.62,1.62,0,0,1,1.23,1.85c-.38,1.51-1.48.74-2.58.76-2.07-.67-4.17-2.16-6.67-2.31a1.21,1.21,0,0,1-.82-1.54,1.25,1.25,0,0,1,1.57-.72C279.59,291.47,282,292.17,284.41,292.84ZM299,291.42c0,.77-.2,1.53-.9,1.76-1.15.38-2.32.62-3.48.92-.93-.1-1.4-.63-1.51-1.66-.16-1.39.85-1.4,1.47-1.57a11,11,0,0,1,3.09-.33C298.21,290.54,299.05,290.28,299,291.42Zm-9.52-3.08c.52.29,1.13.33,1.67.58s1.83-.39,1.65,1a1.77,1.77,0,0,1-2.25,1.64l-.66-.11c-1.7-.26-3.19-1.66-5.12-.89-.48.19-1.21-.48-1.28-1.12-.08-.8.7-1.26,1.22-1.41A5.93,5.93,0,0,1,289.52,288.34Zm-8.52-1.6c-2.47.69-4.81-.66-7.28-.08-.52.12-.69-.37-.66-1.05a1.28,1.28,0,0,1,1.2-1.35c1.62-.21,3.27-.68,4.5-.1l2.35.37c.57.1,1.38.06,1.28,1C282.32,286.22,281.64,286.56,281,286.73Zm33.67-.16c.41.77-.22,1.14-.71,1.39a16.16,16.16,0,0,1-8.53,1.53c-.81-.09-2-.28-1.87-1.21s1.23-.9,2.08-1.08c2.54-.51,5.19.06,7.61-1.7C314.21,284.8,314.37,286,314.67,286.58Zm2.79-6.29c.35.74,0,1.28-.48,1.88-.85,1.07-1.92.85-2.9,1.21-1.35.48-2.82,0-4.1,1.1a.94.94,0,0,1-1.06-.06c-1.68-2.19-3.81-.82-5.75-.61a4.93,4.93,0,0,1-2,0,1.16,1.16,0,0,1-.69-1.21c0-.62.33-1.25.73-1.26a20.39,20.39,0,0,0,8.32-1.69c.31.08.48.07.6.16,2.16,1.68,3,1.75,5.6.19C316.5,279.49,317.06,279.43,317.46,280.29Zm-6.68-8a1.72,1.72,0,0,1-1.05,1.38c-2.87,1-5.58,2.61-8.55,3.15-.72.13-1.23.22-1.37-.64a1.62,1.62,0,0,1,.9-1.68,36.64,36.64,0,0,0,8.88-3.68c.12-.07.3,0,.6,0C310.91,270.78,310.93,271.4,310.78,272.24Zm-8.27-2.42c-.51,1.52-1.67,1.79-2.73,2.11s-2.38,1.81-2.82-.08c-.32-1.37,1.23-1.92,2.25-2.39.7-.31,1.4-.61,2.11-.9C302.36,268.14,302.4,269,302.51,269.82ZM299.06,267c-.58.11-1.22.69-1.48-.31a1.37,1.37,0,0,1,.81-1.52c3-1.53,6-3,9.7-2.83C305,264.64,302.23,266.37,299.06,267Zm-14.66-7.46c-.58,0-.91-.44-1-1.1,0-.67.52-.59.84-.74,2-.91,4.15-1.26,6.09-2.53.63-.42,1.22-.09,1.44.67s.19,1.71-.43,1.91C289,258.46,286.76,259.4,284.4,259.49Zm56.43.95c.25.5.73,1.39-.17,2.12a9.58,9.58,0,0,0-1.45,1.74c-1,1.38-1.45,2.69-.11,4.07.63.65,1.32,1.56.29,2.72-.75.85-1.35,1-2-.14-.37-.71-1-.26-1.62-.07-1.66.55-2.21-.71-1.46-2.12.93-1.72,0-1.95-.73-2.63s-1.43-.85-1.52-2.07c0-.6-.41-1.27,0-1.73.28-.28.85-.12,1.44-.18,2.25,3,3.86.67,5.54-1.51C339.59,260,340.37,259.53,340.83,260.44Zm-34.89-8.54c.68-.71,1.57-.81,2,0a1.91,1.91,0,0,1-.87,2.27,40.64,40.64,0,0,1-8,4.43c-.14-1.44.09-2.13,1.15-2.81C302.11,254.55,304.23,253.69,305.94,251.9ZM146.69,233.76c-1.05-.76-3-.51-2.77-2.93.13-1.23,1-.28,1.46-.65,1,.79,2.66.42,2.72,2.42C148.13,233.56,147.31,234.22,146.69,233.76Zm-6.43.1a1.06,1.06,0,0,1,1.3-.79c1,.24,3.2,3.59,3,4.58s-.6,1.27-1.3,1.2C142.32,238.75,139.91,234.83,140.26,233.86Zm12.57,4.51a1.94,1.94,0,0,1-.22-1.48c.22-.64.82-.34,1.19-.21.87.31,1.18.32,1.79-1,.94-2,2.37-.33,3.22.34a22.19,22.19,0,0,1,3.19,3.82,1.34,1.34,0,0,1,.14,1.69.9.9,0,0,1-1.43-.07c-.65-1.09-1.87-1.25-2.47-2.46a2,2,0,0,0-2.48-1.26c.84,1.07,1.63,2,2.39,3.06a1.53,1.53,0,0,1,.11,1.94c-.53.74-.91.38-1.51,0C155.08,241.72,154.08,239.9,152.83,238.37Zm.35,10a21.44,21.44,0,0,1-4-4.63,1.61,1.61,0,0,1,.1-1.69c.17-.38.68-.55.88-.69a3.53,3.53,0,0,1,1.61,1.68,7.77,7.77,0,0,0,2.74,3.19,1.35,1.35,0,0,1,.59,2.1C154.52,249.23,153.92,248.87,153.19,248.33Zm10.13.48a1.09,1.09,0,0,1,1.41.48,10.61,10.61,0,0,0,3.58,4.18c.37.25.54.6.21,1.29-.44.93-1,.7-1.1.68a5.64,5.64,0,0,1-4.66-5C162.75,249.84,162.66,249,163.31,248.81Z"/><path class="cls-1" d="M329.9,215.18c-3.83-.24-10.24,14.72-11.64,18.47a47.59,47.59,0,0,0-1.86,24.05c1.21,6.6,3.36,14.72,7,20.48,2.49,3.95,3.3,4.19,8,3.5,3.19-.47,6.74-1.09,9.36-3.1,5.45-4.19,9.8-8.57,16-12s12.39-6.93,18.5-11c3-2,5.53-4.5,8.61-6.39s6.78-2.74,9.52-4.88c2-1.58,5.14-6,4.47-8.62-.88-3.42-6.07-3.7-9.5-3.5-8.31.48-17.7,2.17-26,3.5-8.58,1.37-18.14.88-27.42.43.88-2.9,7.93-5.89,10.43-8.31a105.37,105.37,0,0,1,9.87-8.74c6.16-4.61,16.48-11,20.41-17.89-7.8-2.74-15.05,3.79-21.9,6.39-8,3-15.11,5.38-23.89,6.12Z"/><path class="cls-3" d="M113.13,209.92a47.27,47.27,0,0,1,1.35-10.63c1.61-6.45,4.25-11.79,9.29-16.25a21.43,21.43,0,0,0-3.55-.51c-.62,0-6.41,4.95-7.56,6.05-2.46,2.37-3.53,5.77-4.91,9-1.58,3.68.36,11.1.57,11.15C109.74,209.06,113.1,211.65,113.13,209.92Z"/><path class="cls-3" d="M127.74,212.13c2.35-7.92,6.66-14.6,11-21.09,2.91-4.31,3.12-4.2-1.37-5.24-.91-.21-1.76-1.18-3,.2-5.59,6.26-8.5,14.19-10.72,22.53-.9,3.36.27,6.6.51,9.9a4.06,4.06,0,0,0,1.93,3.42C126.69,218.37,126.85,215.12,127.74,212.13Z"/><path class="cls-3" d="M104.89,202.81c-.24-7.62,3.06-12.88,8-17.22a13.47,13.47,0,0,0,3.6-3.75c-2.27.21-4.23.28-6.07-.82-.59-.35-1.58.15-2.38.27.34,2.11-1.28,1.65-2,2.09-6.45,3.77-8.41,7.46-8.38,16.08,0,1-.8,2.36.11,3.07,2.38,1.87,4.76,3.83,7.76,4.24C106,205.12,104.93,204.19,104.89,202.81Z"/><path class="cls-3" d="M77.45,179.56c-2.1.06-3.93.44-5.77.3-3.34-.25-5.47,2.16-7.13,5.45-.31.61-.34,3.41-.66,4.4,3.67.2,6.82,2.17,10.34,2.71C72,187.16,75.41,183.7,77.45,179.56Z"/><path class="cls-3" d="M107,181.06c-7.13-1.7-13.95-1.83-20.72-2.15-2.76-.13-5.82-.15-8,3.75-1.6,2.91-2.71,5.58-2.63,9,0,1.2.07,1.57,1,1.66a18.46,18.46,0,0,1,6.11,2c1.4.68,2.47.27,2.67-2a25.62,25.62,0,0,1,2.18-8.27c1.06-2.36,5.63-5.46,8-4.47-.34.93-1.05,1.16-1.7,1.64-2.08,1.52-4.27,3-5.06,6.1-.67,2.62-1.7,5.34-1.4,7.94.23,2,2.54,1.93,3.8,3A13.94,13.94,0,0,0,94.82,201C95.16,191.44,97.94,183.88,107,181.06Z"/><path class="cls-3" d="M120.8,215.54c-.11-8,2.44-15,5.78-21.94,1.58-3.26,4-5.7,5.79-9.2-1.77-.28-3.26-.48-4.73-.76a2,2,0,0,0-2.09.65,69.54,69.54,0,0,0-4.91,5.74,32.24,32.24,0,0,0-5.08,15.23c-.46,4.6-.19,9.14,4,11.25.4.2.75.61,1.2.24S120.81,215.94,120.8,215.54Z"/><path class="cls-3" d="M65.32,180.6c-7.52.59-14.63,1-21.66,3.43l19,5C60.83,186.32,62.5,183.72,65.32,180.6Z"/><path class="cls-3" d="M137,224.85c-1.95-3.71-1.86-4,1.55-6.49.49-.36,1.55-.74.91-1.8-1.72-2.87-.14-5,1.54-6.74,1.31-1.36.7-1.84-.19-2.42-1.59-1-1.43-2.19-.31-3.82a14.78,14.78,0,0,1,3.89-4.25c.81-.52.57-.74.34-1.47a4.81,4.81,0,0,1,1.61-5.59c1.48-1.32,3.15-1,4.71-2.26-2-.85-4.15-1-6.08-1.94a.62.62,0,0,0-.62.17c-2.59,3.3-5.63,6.16-7.58,10.1-.78,1.59-2.32,2.15-2.94,3.8-1.19,3.22-2.48,6.4-3.58,9.67a19.73,19.73,0,0,0-.27,13.09c.52,1.46,1.78,3.72,3.23,2.54C134.38,226.47,135.86,226,137,224.85Z"/><path class="cls-3" d="M365,213.42a.89.89,0,0,0-.81.31c-1.63,2.52-4.26,3.37-6.19,5.58,7.53-1.08,14.87-1.93,21.58-7.45a15.06,15.06,0,0,0-2.53-.29C373,211.67,369.14,214.6,365,213.42Z"/><path class="cls-1" d="M324.71,288.22c-.11.51-.52,1.48.31,1.46s1.64-.77,1.57-2.13c-.05-.6.62-1.75-.14-1.78C325.39,285.75,324.95,287.08,324.71,288.22Z"/><path d="M146.4,249.36c4,3.18,8.09,6.28,12.17,9.37,5,3.82,9.93,8,15.23,11.26,5.9,3.61,11.43,7.91,17.21,11.72,3.67,2.42,7.31,4.92,11.49,5.91s8.1,2.48,12.1,3.81a179.42,179.42,0,0,0,22.11,6c5.82,1.14,11.74,1.77,17.57,2.86,5.37,1,10.8.24,16.22-.14,3.84-.27,7.68-.9,11.52-1a175,175,0,0,0,18.15-1.85A35.63,35.63,0,0,0,312.91,293c.51-.29,1.86-1.39,1.77.53-.26,5.55,2.65,7.74,6.23,9.61,4.62,2.42,9.52-.65,10.76-6.7.73-3.58.29-6.95.2-10.41a3.25,3.25,0,0,1,3.38-3.42c1.8,0,1.36,1.83,1.22,3-.53,4.11.43,7.75,1.7,11.28,1,2.84,3.55,3.64,6,2.16,3.54-2.14,5.34-8.24,3.88-12.77A8.63,8.63,0,0,0,343.5,281c-.55-.29-2.21-.44-1-1.89a26.82,26.82,0,0,1,5.09-4.65c5.91-4,12.1-7.38,17.94-11.65,6.36-4.65,13-8.74,19.57-12.93,4.79-3.05,9.72-5.78,14.5-8.88,1.34-.87,3.41-2,2.79-4.35-.51-2-1.84-3.8-3.95-3.46a4,4,0,0,1-2.47-.49c-3.08-1.5-6.27-1.38-9.58-.64-3.87.86-3.92.72-5.24-3.57a9.14,9.14,0,0,1-.53-1.71c-.1-1-.64-1-1.23-1.15-.77-.22-1.11.35-1.43,1a29.9,29.9,0,0,0-2.07,4.23c-1,3.13-2.14,1-2.78.17-1.7-2.33-2-2.45-3.78-.23-1,1.21-1.86,2.34-3.52,1.42a2.56,2.56,0,0,0-2.79,1c-1.73,2.13-3.75,2.29-6,2.35-3.07.09-6.05-.58-9.2-.18a24.35,24.35,0,0,1-10.17-.36c2.64-2.21,4.9-3.82,6.88-5.85,1.67-1.71,3.57-3.24,5.44-3.64,3.67-.78,7.12-2.71,10.79-3.32,3.17-.53,6.36-.6,9.52-.92,4-.42,7.42-3.74,10.86-6.37a4,4,0,0,0,1.57-3.4,3.13,3.13,0,0,0-2.21-2.82c-1.67-.56-3.37-.14-5.07.27-2.12.52-4.21,1.56-6.61,1.38,3.57-3,6.93-5.78,10.32-8.52a1.84,1.84,0,0,0,.61-2.26c-.25-.9-.68-1.26-1.48-1.16a32.5,32.5,0,0,0-7.39,1.56c-7,2.56-13.73,6.45-20.87,8.73s-14,4.61-21.1,2.37c-1.73-.55-3-2-4.6-2.82-3.41-1.84-6.81-3.35-8.93-7.67-2.7-5.51-2.67-11.23-.93-17,1.66-5.47,5.28-9.44,9.24-12.82,2.91-2.49,5.79-5,8.67-7.54a3.55,3.55,0,0,0,1.31-2.93c-.15-1.34-1.27-1.43-2.26-1.64-1.41-.3-2.67,1.07-4.18.67.44-.92.91-1.73,1.24-2.61.68-1.82-.06-3.53-1.62-3.72-1.06-.13-2,.09-1.64-2,.18-1.08-.66-2.49-2.07-1a16.25,16.25,0,0,1-1.26,1.06c0-2.53-.82-3.85-2.79-2.63a20.89,20.89,0,0,0-6.66,5.67c-2.51,3.54-4.23,7.79-7.1,10.91-4.93,5.36-9.6,11.07-14.89,15.91-.91.83-1.66,1.26-2.85.61s-1.26-1.82-1.24-2.94A68,68,0,0,1,289,161.71c.51-1.82,1.61-3.84,3.19-4,2.69-.35,5-1.7,7.37-3.1.93-.55,2.36-.73,2.2-2.34s-1.27-2.16-2.5-2.56-2.67.28-4.11-.14c1.2-1.62,1.78-3.44,1.07-5.19-.64-1.57-2.2-1.13-3.37-1-1.49.23-1-1.06-1.16-1.82-.44-2.26-1.25-2.74-3-1.52-.74.52-1.42,1-1.93,0-1.26-2.48-2.58-1.09-3.89.13-6,5.58-9.13,13.59-12.46,21.28-2,4.65-4.23,9.23-6,14-.27.75-.66,1.56-1.29,1.16-2.66-1.68-5.76-1-8.55-1.84-2.63-.78-5.33-.56-8.17-.92.45-4.19,2.08-7.52,5.23-9.82s6.4-3,9.63-4.32c2-.82,2.14-2.29,1.84-4.22-.32-2.12-1.86-2.14-3.16-2.55-.82-.26-2,.09-2.22-1.26-.45-2.56-2.12-2.4-3.67-2.23-.85.09-1.26.43-1.44-1-.32-2.51-1.17-2.74-3-1.17a23.75,23.75,0,0,0-1.7,1.86c-.68-5.82-1.22-4.9-4.24-3.1a4,4,0,0,0-.7.73c-3.62,3.85-6.52,8.52-9.82,12.73-3.64,4.66-7.48,9.06-10.45,14.41a2.94,2.94,0,0,1-2.59,1.74c-3.67.22-7.35.95-11,1.34-1.67.18-3.31-.81-5.06.32-.39.25-1.93.5-1.73-1.14.23-1.86-.1-3.94.49-5.52,1.67-4.5,2.68-9.42,5.63-13.22,2.17-2.8,4.92-5,7.77-5.07,3.16,0,5.71-2.17,8.64-2.62.58-.09.57-.54.78-1.19,1.08-3.36-.54-4.24-2.6-4.77-.77-.2-1-.58-.79-1.46.62-2.69-.8-3.35-2.5-3.46-.66,0-1.12-.07-1.2-.9-.21-2-1.35-2-2.64-1.72-.62.15-1.16.44-1.25-.74-.24-3.1-.65-3.29-3.12-1.91C207.06,136.05,204,140.71,200,144c-3.4,2.89-5.91,7-9.12,10.09-6.05,5.84-11.23,12.75-16.54,19.47-4.06,5.15-7.58,10.92-11.31,16.45-.73,1.09-1.28,1.41-2.41.78-3.83-2.13-8-3.11-12.1-4.41-3-1-5.84-2.37-9-2.61-.34,0-13.24-3.2-13.72-3.25-3.87-.4-7.75-.74-11.6-1.29-6.81-1-13.57-2.35-20.48-2.66-3.11-.14-6.25-.69-9.34-.24C73.28,178,62.12,177.68,51,179.76c-8.51,1.59-17.07,2.62-25.61,3.77a1.64,1.64,0,0,0-1.65,2c.1,1.46,1,1.31,2,1.18,3.15-.41,6.3-.7,9.44-1,2.25-.24,4.27,1,6.49,1a29.45,29.45,0,0,1,10,1.79C57.76,190.55,64,191.64,70,193.9c5.26,2,10.7,3.23,15.84,5.77,6.94,3.42,13.6,7.45,20.41,11.13,5.05,2.73,9.56,6.48,14.14,10.16a86.08,86.08,0,0,1,11,10.48c1.76,2,9.26,11.9,11,14.06A23.59,23.59,0,0,0,146.4,249.36Zm180.19,38.2c.07,1.36-.6,2.11-1.57,2.13s-.42-1-.31-1.46c.23-1.14.67-2.47,1.74-2.44C327.21,285.8,326.54,287,326.59,287.55Zm50.48-76a15.06,15.06,0,0,1,2.53.29c-6.72,5.52-14.05,6.37-21.58,7.45,1.93-2.2,4.56-3.06,6.19-5.58a.89.89,0,0,1,.81-.31C369.14,214.6,373,211.67,377.07,211.57ZM43.67,184c7-2.41,14.14-2.84,21.66-3.43-2.82,3.12-4.5,5.72-2.64,8.41Zm20.22,5.67c.32-1,.35-3.79.66-4.4,1.66-3.29,3.79-5.69,7.13-5.45,1.84.14,3.67-.24,5.77-.3-2,4.14-5.46,7.6-3.22,12.85C70.71,191.87,67.56,189.9,63.89,189.7Zm27.35,9.58c-1.26-1-3.57-1-3.8-3-.3-2.6.73-5.32,1.4-7.94.79-3.1,3-4.58,5.06-6.1.65-.47,1.36-.7,1.7-1.64-2.37-1-6.94,2.11-8,4.47a25.62,25.62,0,0,0-2.18,8.27c-.2,2.24-1.27,2.65-2.67,2a18.46,18.46,0,0,0-6.11-2c-.91-.09-1-.46-1-1.66-.08-3.46,1-6.12,2.63-9,2.14-3.9,5.2-3.89,8-3.75,6.77.32,13.59.45,20.72,2.15-9,2.82-11.82,10.38-12.16,19.91A13.94,13.94,0,0,1,91.24,199.28Zm6.53,3.25c-.91-.71-.1-2-.11-3.07,0-8.62,1.92-12.31,8.38-16.08.75-.44,2.37,0,2-2.09.8-.11,1.79-.62,2.38-.27,1.84,1.09,3.8,1,6.07.82a13.47,13.47,0,0,1-3.6,3.75c-5,4.34-8.28,9.6-8,17.22,0,1.37,1.1,2.31.65,4C102.54,206.36,100.15,204.41,97.78,202.53Zm10.54,6.2c-.2,0-2.15-7.46-.57-11.15,1.38-3.22,2.45-6.63,4.91-9,1.15-1.11,6.94-6,7.56-6.05a21.43,21.43,0,0,1,3.55.51c-5,4.46-7.68,9.8-9.29,16.25a47.27,47.27,0,0,0-1.35,10.63C113.1,211.65,109.74,209.06,108.31,208.73Zm11.28,7.76c-4.21-2.11-4.48-6.65-4-11.25A32.24,32.24,0,0,1,120.65,190a69.54,69.54,0,0,1,4.91-5.74,2,2,0,0,1,2.09-.65c1.47.29,3,.48,4.73.76-1.78,3.5-4.22,5.94-5.79,9.2-3.34,6.9-5.89,14-5.78,21.94,0,.41.44.83,0,1.2S120,216.7,119.59,216.5Zm4.61,1.94c-.24-3.3-1.4-6.54-.51-9.9,2.22-8.34,5.13-16.27,10.72-22.53,1.24-1.39,2.08-.42,3-.2,4.49,1,4.29.93,1.37,5.24-4.39,6.49-8.69,13.16-11,21.09-.89,3-1.05,6.24-1.6,9.72A4.06,4.06,0,0,1,124.21,218.44Zm5.75,6.48a19.73,19.73,0,0,1,.27-13.09c1.09-3.26,2.38-6.45,3.58-9.67.62-1.66,2.15-2.22,2.94-3.8,1.95-3.94,5-6.8,7.58-10.1a.62.62,0,0,1,.62-.17c1.93,1,4.09,1.09,6.08,1.94-1.55,1.24-3.22.94-4.71,2.26a4.81,4.81,0,0,0-1.61,5.59c.22.72.47,1-.34,1.47a14.78,14.78,0,0,0-3.89,4.25c-1.12,1.63-1.28,2.79.31,3.82.89.58,1.5,1.06.19,2.42-1.68,1.75-3.26,3.86-1.54,6.74.64,1.06-.41,1.44-.91,1.8-3.41,2.49-3.5,2.78-1.55,6.49-1.1,1.17-2.58,1.61-3.78,2.59C131.74,228.63,130.48,226.37,130,224.91Zm10.88,15.16c-1.14-1.08-2.28-2.05-1.92-4.34.29-1.76-1.39-2.26-2-3.49-1.76-3.35-1.67-3.88,1.64-5.21,1.75-.7,2.4-2.58,1-3.89s-.39-2.12.25-3a6.54,6.54,0,0,1,1.69-1.46c1.26-.86,1.93-1.88.87-3.37s-.92-2.72.43-4.12a21.09,21.09,0,0,1,2.54-2.61,1.58,1.58,0,0,0,.84-1.75c-.2-.83-.8-1.37-1.45-1.28a3.71,3.71,0,0,1-2.44-.45c1.48-1.92,2.63-3.94,4.82-4.71a2.77,2.77,0,0,0,2-2.47c.11-1.39-.86-.91-1.4-1.11-.95-.36-.57-1-.23-1.66,1-1.92,2.7-2.22,4.28-2.64,3-.81,6-1.24,8.27,1.79-.7,1.35-1.6,2.9-2.31,4.57-.27.62-.72,1.64,0,2.2s1.38,0,1.84-.87c4.09-7.51,9.22-14.06,13.91-21a128,128,0,0,1,12-15.07c1.39-1.51,2.37-3.56,4.16-4.54a14.84,14.84,0,0,1,2.57-1.22,10.86,10.86,0,0,0-1.59,5.21c-.14,1.41.18,2.15,1.49,1.42a2,2,0,0,1,.44-.12c1.22-.36,2.72-2.23,3.55-.79s-.1,3.47-.63,5.2a14.31,14.31,0,0,1-.93,1.86,1.52,1.52,0,0,0,.12,1.73,1,1,0,0,0,1.24.23c4.39-1.45,4.36-1.45,3.57,3.77-.43,2.79-1.39,5.79-1,8.36a48.75,48.75,0,0,1,.41,8.11c-.06,7.23,1.78,14.11,1.57,21.29-.08,3,.7,6.43-1.39,9.31-.69,1,.17,1,.63,1,1.48,0,1.79-1.38,2.16-2.69,1.41-5.07.85-10.11.37-15.07-.68-7.11-1.76-14.15-.51-21.43.22-1.28-.78-2.84.5-3.77a9.72,9.72,0,0,1,4.59-2c5-.54,10-1.39,15-1.79,4.24-.34,8.54-1.26,12.8-1.28a82.74,82.74,0,0,1,9.13-.06c4.51.47,9.11.12,13.57,1.12a6.56,6.56,0,0,1,2.3.77c3.07,2,3,1.83,1.7,5.75s-2.26,7.91-3.37,11.87c-.81,2.92-2.28,5.55-2.78,8.63-.28,1.74,0,3.41-.27,5.11-.12.86.25,1.4,1,1.47s.73-.8.81-1.35c1.34-9.63,4.87-18.47,7.86-27.53.92-2.78,1.95-5.52,2.79-8.33.55-1.85,1.7-2.48,2.91-3.24.73-.45,1-.08,1.22.79a7.06,7.06,0,0,1,.07,2.38c-.09.83-.76,1.9,0,2.49s1.78.08,2.54-.54,1.63-1.38,2.46-.6a3.43,3.43,0,0,1,.64,3.19,9.74,9.74,0,0,1-.3,1.61c-.32.88-1.24,1.84-.46,2.64s1.66-.07,2.43-.77c1.08-1,2.33-2.44,2.3.77,0,.29,2,2.91,1.91,4a17.72,17.72,0,0,0,1.5,8.06,82,82,0,0,1,3,10.83,63.93,63.93,0,0,0,4.18,11.17c.3.69.76,1.16,1.44.75,1-.56,1-1.48.7-2.55-.53-2.27-7-19.5-7.26-27,0-.92-.49-3.73,0-4a.73.73,0,0,1,1,.38c1.47,3.14,4.55,3.63,6.72,5.63,1.47,1.35,2.68,3.06,4.35,4.18,4.49,3,9.41,5.21,13.56,8.89,5,4.46,10.91,7.33,16.1,11.47a1.92,1.92,0,0,0,1.43.54c7.21-.87,14.34-2,21.45-4.58,6.88-2.47,13.43-6.23,20.4-8.22l2.8-.77.2.56c-4,3.23-8,6.42-11.95,9.7-2.14,1.78-4.12,3.85-6.31,5.54-4.52,3.51-9.06,7-13.73,10.22-3,2.07-5.37,5.3-8.56,7.07A2.45,2.45,0,0,0,333,237.7c.43,1.13,1.47.73,2.37.7,6.44-.23,13-1.19,19.28-.26,4,.6,7.66-1.2,11.45-1,3,.19,12.11-1.62,12.58-1.53,4.15.84,8.2-1.46,12.34-1.22,2.09.12,3.53,2,5.75,1.95-1.67,2.12-2.5,4.83-4.95,6.28-5.2,3.09-10.22,6.64-15.33,10-1.38.89-2.81,1.65-4.5,2.63.3-1.41,1.2-2.71,0-3.51-.63-.41-1.25.22-1.59.77-1,1.57.54,2.16.92,3.23a8.89,8.89,0,0,1-3.81,2.47,9.21,9.21,0,0,0-3.23,2,75.25,75.25,0,0,1-10.14,7.33c-3.71,2.37-7.68,4.16-11,7.6a17.44,17.44,0,0,1-10.72,5.36,20.68,20.68,0,0,0-6.11,1.41c-1,.44-7.95,3.78-9.92,5.95s-4.75,3-7.29,4c-3.27,1.29-6.65,2.79-10,3-4.14.27-8.27,1.1-12.41,1.12-3,0-6,1-8.85.08a45.35,45.35,0,0,0-7.21-1.52c-.83-.13-2.13-1.25-2.54.31-.48,1.81,1,2.17,2.16,2.7-2.59.22-5.21.78-7.75.55s-5.26.39-7.76-.72c.55-1,1.32-.57,2-.74s1.52-.08,1.47-1.29c0-.8-.8-1.37-1.18-1.26-2.29.68-4.19-.69-6.26-1.07-.45-.08-1.08-.48-1.3.51a1.28,1.28,0,0,0,.61,1.53c.85.45,1.72.84,2.79,1.36a19.68,19.68,0,0,1-11.18-1.74c1-.23,2.16-.14,2-1.52-.09-1.07-1.06-1-1.93-1.09a5.2,5.2,0,0,1-3.22-.83,1.53,1.53,0,0,0-2.3.13c-.83,1,0,1.75.4,2.58-5.53-.1-10.59-2-15.67-3.81-.77-.28-1.7-.16-2.38-.6-1.25-.82-3.67.15-3.43-3.09a.92.92,0,0,0-1.2-.86c-5.61,1.12-10.7-.41-15.69-3-1.61-.82-3-2-4.62-2.8-.62-.33-1.8-.84-.38-2.22.63-.62,0-1.24-.6-1.55a13.3,13.3,0,0,1-4.28-3.8c-1.06-1.4-1.81-1.4-2.38.56-.5,1.71-1.3.93-1.91.43a26.66,26.66,0,0,0-5.77-4.13c1.31-.3,2.81.42,3.69-1.43a2.39,2.39,0,0,0,.32-1.25.67.67,0,0,0-.95-.42c-2.06.86-3.53-.53-5.16-1.46-1.32-.75-2.67-2.11-4.19.15-.5.75-1.09-.08-1.5-.49-3-3.09-6.68-5-10-7.66-.84-.66-1.59-.92-.12-2,.78-.6.9-1.77-.44-2-1.87-.27-3.51-1.86-5.59-.93a.91.91,0,0,1-.85-.23c-3.11-2.92-6.69-5.08-9.55-8.42A41,41,0,0,0,140.84,240.07Z"/><path d="M387.51,269.06c.52-1.27,0-2.66.15-4.11.28-2.12.15-4.27.56-6.42.16-.83.1-1.94-.8-2.11s-1.25.77-1.38,1.74c-.07.54-.16,1.08-.25,1.61-.55,3.21.08,6.35-.12,9.54-.08,1.25-1.12,3.37.08,3.55S387.26,270.73,387.51,269.06Z"/><path d="M382.18,271.22c1.07-3.14,1.34-6.43,2-9.66.17-.9.09-1.7-.74-1.9s-1.34.55-1.49,1.57c-.23,1.53-.48,3.06-.72,4.59-.27,1.71-.55,3.42-.8,5.13-.09.62-.11,1.34.62,1.29C381.48,272.19,381.9,272,382.18,271.22Z"/><path d="M380,261.91c.11-.71.24-1.53-.64-1.5s-1,.52-1.1,1.58c-.19,3.29-.14,6.68-2,9.64-.27.43-.68,1.44.18,1.8.67.28,1.11-.24,1.45-1a19.51,19.51,0,0,0,1.85-6.22C380.29,264.92,379.73,263.42,380,261.91Z"/><path d="M105.88,224.5c1.19-1.18.95-3,1.5-4.53.19-.69.26-1.43-.35-1.75s-1.19.07-1.45.87c-.47,1.43-1.26,2.67-1.69,4.15-.32,1.06-.1,1.34.51,1.86C105.17,225.76,105.51,224.88,105.88,224.5Z"/><path d="M78,171.82a1.33,1.33,0,0,0,.94-1.63c-.34-1.68-.77-3.33-1.21-5a.9.9,0,0,0-1.08-.69,1,1,0,0,0-.81.76c.42,1.77,1,3.49,1.21,5.29C77.2,171.42,77.24,172,78,171.82Z"/><path d="M73.67,205.2c.14-.36.82-2.6-.78-2.36s-1.61,2-1.7,3.09c.16,1.2-1.27,2.7.5,2.69S73.2,206.43,73.67,205.2Z"/><path d="M93.63,170.48c.14-1.22.56-2.44-.38-2.65s-1.48.89-1.45,2c0,.56-.31.78-.48,1.17-.39.9-1.51,2-.54,2.74s1.81-.85,2.44-1.81A4.49,4.49,0,0,0,93.63,170.48Z"/><path d="M104.56,173.72a4.63,4.63,0,0,0,.76-2.25c.14-1,.52-2.16-.58-2.49-1.33-.39-.92,1.29-1.37,1.95-.27.39-.33,1-.59,1.4-.48.77-1,1.67-.18,2.24C103.21,175,104,174.51,104.56,173.72Z"/><path d="M95.4,216c-.73-.54.75-2.61-.72-2.4-1.66.25-1.63,2.48-2.09,4-.17.55-.59,1.61.41,1.65C94.74,219.27,94.72,217.24,95.4,216Z"/><path d="M85.36,211.08c.2-1.17.32-2.63-.54-2.37-1.48.46-1.69,2.78-2.84,4-.36.37,0,1,.56,1C84.3,213.91,84.57,211.95,85.36,211.08Z"/><path d="M65,169.52a3.65,3.65,0,0,0-1.71-3.17c-.44-.26-.66.43-.62.83.13,1.57-.31,3.52.83,4.52C64.17,172.31,64.76,171.2,65,169.52Z"/><path d="M47.06,198.61a2.56,2.56,0,0,0-1.92-3c-.46-.1-1.36.31-1.17.89.42,1.28.48,3,1.79,3.57C46.61,200.41,47,199.19,47.06,198.61Z"/><path d="M117,224.67c.23-1.2.62-2.93-.58-3.14-1-.18-.9,1.62-1.18,2.68,0,1-.89,2.63.48,2.91C116.92,227.35,116.79,225.66,117,224.67Z"/><path d="M119.17,171.77c1.25.32,1.92-.6,2.1-1.77.08-.51.46-2-.34-2-1.86,0-2.27,1.21-2.65,2.4C118,171.44,118.51,171.6,119.17,171.77Z"/><path d="M49.51,174.79c-.2-1.34-.66-2.54-2-2.69-.55-.06-1,.11-1.07.6A3.41,3.41,0,0,0,48.55,176C49,176.19,49.62,175.48,49.51,174.79Z"/><path d="M57.32,198.59c.36,1.2.3,2.92,1.63,3.28.53.15,1.18-.32,1.16-1.34-.17-1.24-.56-2.34-1.62-2.78C58,197.53,57.17,198.09,57.32,198.59Z"/><path d="M35.76,177.51a1.64,1.64,0,0,0-1.46-2c-1-.14-1.26.92-1.56,1.8s-.07,1.45.75,1.39S35.49,178.64,35.76,177.51Z"/><path d="M339.11,260.66c-1.68,2.18-3.28,4.53-5.54,1.51-.59.05-1.17-.1-1.44.18-.45.46-.09,1.13,0,1.73.09,1.21.93,1.48,1.52,2.07s1.65.91.73,2.63c-.76,1.41-.2,2.66,1.46,2.12.6-.2,1.25-.64,1.62.07.62,1.18,1.22,1,2,.14,1-1.17.34-2.07-.29-2.72-1.34-1.38-.93-2.7.11-4.07a9.58,9.58,0,0,1,1.45-1.74c.9-.73.42-1.62.17-2.12C340.37,259.53,339.59,260,339.11,260.66Z"/><path d="M310.15,279.76c-.11-.09-.28-.08-.6-.16a20.39,20.39,0,0,1-8.32,1.69c-.4,0-.73.64-.73,1.26a1.16,1.16,0,0,0,.69,1.21,4.93,4.93,0,0,0,2,0c1.94-.21,4.07-1.58,5.75.61a.94.94,0,0,0,1.06.06c1.28-1.09,2.75-.62,4.1-1.1,1-.35,2-.13,2.9-1.21.48-.61.83-1.14.48-1.88s-1-.8-1.71-.34C313.19,281.51,312.32,281.44,310.15,279.76Z"/><path d="M158.25,242.75a1.53,1.53,0,0,0-.11-1.94c-.77-1-1.56-2-2.39-3.06a2,2,0,0,1,2.48,1.26c.6,1.21,1.83,1.36,2.47,2.46a.9.9,0,0,0,1.43.07,1.34,1.34,0,0,0-.14-1.69,22.19,22.19,0,0,0-3.19-3.82c-.86-.67-2.28-2.37-3.22-.34-.61,1.32-.92,1.31-1.79,1-.37-.13-1-.42-1.19.21a1.94,1.94,0,0,0,.22,1.48c1.25,1.53,2.24,3.35,3.91,4.39C157.34,243.13,157.72,243.49,158.25,242.75Z"/><path d="M215,260.5a9.78,9.78,0,0,1,7.36.81,2.21,2.21,0,0,0,2-.11c.72-.3.73-.85.8-1.45.08-.78-.45-.79-.87-.85-1.61-.26-3-1.49-4.83-1.21-1.48-.85-3.08-.2-4.71.21-.8.2-1.38.54-1.32,1.52S214,260.71,215,260.5Z"/><path d="M300.71,274.45a1.62,1.62,0,0,0-.9,1.68c.14.86.65.77,1.37.64,3-.53,5.68-2.18,8.55-3.15a1.72,1.72,0,0,0,1.05-1.38c.15-.84.13-1.47-.6-1.45-.31,0-.48-.1-.6,0A36.64,36.64,0,0,1,300.71,274.45Z"/><path d="M305.63,287.21c-.85.17-2,.06-2.08,1.08s1.06,1.12,1.87,1.21A16.16,16.16,0,0,0,314,288c.49-.25,1.12-.62.71-1.39-.3-.56-.46-1.78-1.43-1.08C310.83,287.26,308.17,286.69,305.63,287.21Z"/><path d="M180.55,261.14c-2.23-1.93-4-4.73-7-5.22-.48-.11-1.13-.4-1.42.3a1.55,1.55,0,0,0,.73,1.91,15.2,15.2,0,0,1,5.84,5,1.14,1.14,0,0,0,1.85-.14A1.32,1.32,0,0,0,180.55,261.14Z"/><path d="M245.08,263a1.34,1.34,0,0,0,.66-1.57,1.16,1.16,0,0,0-1.27-1c-2.43.36-5,.72-7.53,1.14a1.21,1.21,0,0,0-.86,1.16c-.13,1,.6.76,1,.94,1.35.59,2.91-.51,4.15.19C242.75,264.73,243.84,263.49,245.08,263Z"/><path d="M221,282.58c.34-1.37-.62-1.55-1.47-1.68a3.84,3.84,0,0,1-1.44-.55,53.46,53.46,0,0,0-4.89-2.62c-.44-.21-1.21-.6-1.47.54-.14.61-.28,1.21.39,1.56,2.29,1.2,4.33,3,7,3.85C219.66,283.45,220.69,283.77,221,282.58Z"/><path d="M275.58,291.59a1.21,1.21,0,0,0,.82,1.54c2.49.16,4.6,1.65,6.67,2.31,1.1,0,2.2.75,2.58-.76a1.62,1.62,0,0,0-1.23-1.85c-2.42-.67-4.83-1.37-7.26-2A1.25,1.25,0,0,0,275.58,291.59Z"/><path d="M251.91,271.6c-2.45.66-4.93-.42-7.51-.66-.65-.06-1.31,0-1.46.86s.43,1.2,1.07,1.3a14.27,14.27,0,0,1,2.87.49c1.67.63,3.32,1.21,5.13.73a1.79,1.79,0,0,0,1.51-1.46C253.61,271.85,252.82,271.7,251.91,271.6Z"/><path d="M209,282.81c-2.65-.78-4.74-2.78-7.14-4.11-.46-.25-.9.15-1.19.59a1,1,0,0,0,.2,1.18c1.85,2.39,4.33,3.51,6.29,4.49,1.15.38,1.74.21,2.09-.5S209.51,283,209,282.81Z"/><path d="M283.53,289.47c.06.63.8,1.31,1.28,1.12,1.92-.77,3.41.63,5.12.89l.66.11a1.77,1.77,0,0,0,2.25-1.64c.18-1.41-1.06-.74-1.65-1s-1.15-.29-1.67-.58a5.93,5.93,0,0,0-4.76-.27C284.23,288.21,283.45,288.67,283.53,289.47Z"/><path d="M228.93,286.87c-2.12-.07-3.89-1.63-5.82-1.51-1-.16-1.84-.32-2.65-.41-.4,0-1-.38-1.11.41a1,1,0,0,0,.72,1.15c2.77,1,5.52,2.07,8.32,2.93.69.21,1.66,0,1.84-1.41S229.49,286.89,228.93,286.87Z"/><path d="M252.85,284.55a9.16,9.16,0,0,0,2.21.18c.71-.11,1.51-.37,1.49-1.62s-.95-1-1.49-.95a5.85,5.85,0,0,1-2-.3,29.33,29.33,0,0,0-5.39-.82,1.1,1.1,0,0,0-1.27.82.94.94,0,0,0,.91,1.18C249.26,283,250.92,284.37,252.85,284.55Z"/><path d="M265.84,281.07c1,.38,2,1.12,2.51-.61.56-1.9-.75-2-1.8-2.25-2,.11-4,.16-6,.36a1.59,1.59,0,0,0-1.57,1.62c.09,1,.86,1,1.76.78A8.29,8.29,0,0,1,265.84,281.07Z"/><path d="M285.31,279.42c-.14-.4-.65-.6-.72-.66-2.53-.17-4.76.19-6.95-.28-.87-.2-1.59.55-1.85,1.63-.17.7.19,1.47.71,1.39,2.69-.41,5.41.28,8.07-.91C284.95,280.43,285.52,280,285.31,279.42Z"/><path d="M299,258.62a40.64,40.64,0,0,0,8-4.43,1.91,1.91,0,0,0,.87-2.27c-.39-.83-1.28-.73-2,0-1.71,1.79-3.83,2.65-5.76,3.91C299.12,256.49,298.88,257.18,299,258.62Z"/><path d="M281.11,284.53l-2.35-.37c-1.23-.58-2.87-.11-4.5.1a1.28,1.28,0,0,0-1.2,1.35c0,.68.14,1.18.66,1.05,2.47-.58,4.81.77,7.28.08.64-.18,1.32-.52,1.39-1.21C282.49,284.6,281.68,284.63,281.11,284.53Z"/><path d="M213.05,264.9l-2.83-.45a1.2,1.2,0,0,0-1.52,1.16c-.14,1,.37,1.53,1.14,1.52a11.16,11.16,0,0,1,5.61,1.3c.68.36,1.94-.26,2.27-1.31s-.82-.8-1.27-1.19C215.37,265,214.07,265.15,213.05,264.9Z"/><path d="M295,286.67a4.1,4.1,0,0,0,2.74-1.19c.13-1.22-.3-1.92-1.06-1.78-2,.39-3.83-.26-5.74-.34-.64,0-1.63,0-1.68,1.27s.95,1.93,1.54,1.79C292.28,286.08,293.59,286.78,295,286.67Z"/><path d="M199.38,272.14c.37-1-.38-1.37-.8-1.55-2-.86-4-1.55-5.81-2.25-.93-.08-1.8-.58-2.35.62a.88.88,0,0,0,.38,1.11q3.53,1.54,7.11,3C198.53,273.27,199.09,272.94,199.38,272.14Z"/><path d="M255.5,289.62a2,2,0,0,0,.62-1.09c.16-.79-.42-.78-.84-.86-1.33-.23-2.65-.46-4-.64-1.51-.2-3.06-.92-4.48.67C248.2,289.49,253.88,290.77,255.5,289.62Z"/><path d="M227.64,278.35c.17-1.11-.16-1.73-1.07-1.88l-3.32-.52h0c-1.18-.19-2.36-.39-3.55-.55-.7-.09-1.17.33-1.32,1.17-.18,1,.54.9,1,1a31.51,31.51,0,0,1,6.7,1.6C226.63,279.32,227.44,279.71,227.64,278.35Z"/><path d="M272.41,288.92c.35-1-.66-1.14-1.17-1.48-2-1.29-4.31-.5-6.46-.8a1,1,0,0,0-1.13,1.29c.18.76.85,1.39,1.5,1.21a5.31,5.31,0,0,1,2.52-.06c1-.24,1.65.78,2.6,1A1.79,1.79,0,0,0,272.41,288.92Z"/><path d="M298.4,265.13a1.37,1.37,0,0,0-.81,1.52c.25,1,.9.42,1.48.31,3.16-.58,6-2.31,9-4.66C304.4,262.13,301.39,263.6,298.4,265.13Z"/><path d="M165,246c-.3,1.26.89,1.19,1.48,1.71,1.09,1,2.52,1.32,3.37,2.68.69,1.1,1.54.63,2.06-.23a1.72,1.72,0,0,0-.33-2.4c-1.45-.88-3-1.64-4.43-2.44C166.37,245.56,165.33,244.58,165,246Z"/><path d="M266.57,264.7c.29-1.39-1.31-1.68-2.22-2.22a5,5,0,0,0-1.47-.26c-1,0-2.44,0-3.85,0-.59,0-1,.41-1.13,1.14-.19,1,.49.91,1,1,1.7.29,3.39.61,5.11.8C264.87,265.24,266.28,266.08,266.57,264.7Z"/><path d="M269.8,272.11c.31-1.86-1.7-1.8-3.3-2.12a5.75,5.75,0,0,0-3.59.47c-.6.25-1.31.38-1.24,1.27s.73.92,1.34,1.08c1.18.31,2.35-.31,3.55-.09S269.46,274.23,269.8,272.11Z"/><path d="M155.1,248.28a1.35,1.35,0,0,0-.59-2.1,7.77,7.77,0,0,1-2.74-3.19,3.53,3.53,0,0,0-1.61-1.68c-.2.15-.7.32-.88.69a1.61,1.61,0,0,0-.1,1.69,21.44,21.44,0,0,0,4,4.63C153.92,248.87,154.52,249.23,155.1,248.28Z"/><path d="M194.63,267.2c.32-.59.31-1.43-.2-1.66-1.66-.74-2.78-2.3-4.12-3.53a1.28,1.28,0,0,0-1.84,1.79c1.35,1.59,2.64,3.31,4.52,4A1.24,1.24,0,0,0,194.63,267.2Z"/><path d="M167.41,255.44c.14,0,.65.25,1.1-.68.33-.69.16-1-.21-1.29a10.61,10.61,0,0,1-3.58-4.18,1.09,1.09,0,0,0-1.41-.48c-.65.21-.56,1-.57,1.61A5.64,5.64,0,0,0,167.41,255.44Z"/><path d="M209.86,276.08c.37-.11.72,0,.87-.61s-.25-.9-.59-1.21c-1.13-1-2.58-.54-3.6-.95-1.25-.2-2.28-.39-3.31-.51-.55-.07-1.13.06-1,1,0,.35-.54,1,.1,1C204.87,274.93,207.14,276.85,209.86,276.08Z"/><path d="M291.74,255.8c-.22-.76-.81-1.09-1.44-.67-1.93,1.27-4.08,1.62-6.09,2.53-.32.14-.79.07-.84.74.12.66.45,1.12,1,1.1,2.36-.09,4.63-1,6.91-1.78C291.93,257.51,291.93,256.47,291.74,255.8Z"/><path d="M221.84,270.89c-.43.24-1.32,1.11-.18,1.62a15.79,15.79,0,0,0,6.73,1.4c.67,0,1.11-.67,1.06-1.51,0-.69-.45-1.35-1-1.13-1.67.67-3-.17-4.45-.84A7.06,7.06,0,0,0,221.84,270.89Z"/><path d="M228.94,283.25c-.11.7,0,1.76.79,2,1.21.32,2.2,1.4,3.35,1.16,1.08.13,1.92.46,2.84-.08a1.11,1.11,0,0,0,.64-1c0-.48-.24-.58-.52-.68-1.87-.67-3.73-1.37-5.6-2C229.87,282.46,229.08,282.36,228.94,283.25Z"/><path d="M207.44,270.56c.62.1,1.23-.58,1.68-1.94-2.48.16-4.36-1.48-6.63-1.54-.67,0-1.49-.3-1.78.63s.68,1.16,1.16,1.55C203.52,270.61,205.56,270.27,207.44,270.56Z"/><path d="M292.22,273.19c.18-1.7-1.71-.51-2.39-1.23-1.27.07-2.39-.69-3.63,0-.42.24-.94.36-1,1s.37,1,.87,1.3c1,.55,2,.19,3,.42C290.32,275,292,275.09,292.22,273.19Z"/><path d="M240.95,280c.35-1.29-.89-1.62-1.63-2a7.51,7.51,0,0,0-3.54-1.15,1.6,1.6,0,0,0-1.46,1.1,1.51,1.51,0,0,0,.95,1.54c1.09.43,2.21.79,3.22,1.14C239.43,280.58,240.57,281.38,240.95,280Z"/><path d="M229.34,268.79c-.45,1.9,1.47,2.28,2.72,2.37s3.09,1.63,3.51-.62c.5-2.7-2-1.27-3.05-2.11C231.39,268.82,229.73,267.19,229.34,268.79Z"/><path d="M294.63,290.86c-.62.17-1.63.18-1.47,1.57.11,1,.58,1.56,1.51,1.66,1.16-.3,2.33-.54,3.48-.92.69-.22.89-1,.9-1.76,0-1.14-.83-.87-1.33-.88A11,11,0,0,0,294.63,290.86Z"/><path d="M290.93,265.64c.38-.36,1.15-.58.84-1.35a1.29,1.29,0,0,0-1.23-.67c-1.59-.08-3,.65-4.49,1.18-.57.21-1.57,0-1.54,1.11,0,.91.86,1,1.45,1.07A16,16,0,0,0,290.93,265.64Z"/><path d="M185,253c-2.06-2.42-3.94-3.15-5.54-2.28-.7.38-1.31.82-.64,1.77C179.86,254,183.4,254.31,185,253Z"/><path d="M169.4,244.23c-.28.68.3,1.34.82,1.64a34.8,34.8,0,0,0,4.1,2.08,1,1,0,0,0,1.21-.92c.08-.62.29-1.18-.45-1.49-1.28-.54-2.51-1.24-3.34-1.66C170.6,243.8,169.78,243.31,169.4,244.23Z"/><path d="M144.59,237.65c.16-1-2.08-4.34-3-4.58a1.06,1.06,0,0,0-1.3.79c-.35,1,2.06,4.88,3,5C144,238.92,144.46,238.5,144.59,237.65Z"/><path d="M274.63,260.21a1.74,1.74,0,0,0-1.86,1.85c0,1.19,1.17.86,1.79.74s1.17-.07,1.74-.16c1-.18,2.64,1.5,3-.41.23-1.31-1.69-1.58-2.9-1.77l-.22,0v0A8.49,8.49,0,0,0,274.63,260.21Z"/><path d="M299.22,269.47c-1,.46-2.57,1-2.25,2.39.44,1.89,1.84.38,2.82.08s2.22-.59,2.73-2.11c-.11-.81-.15-1.68-1.18-1.25C300.62,268.86,299.92,269.16,299.22,269.47Z"/><path d="M264.76,291.68a5,5,0,0,0-2.61-1.25c-.61-.35-1.25.22-1.9.22-.5,0-1.05.14-1.11.67-.08.71.48,1,1,1a5.82,5.82,0,0,1,3.43,1.43c.72.59,1.09.24,1.62-.53C266,292.16,265.14,291.92,264.76,291.68Z"/><path d="M195.8,259c-.27.87.7,1.2,1.2,1.51.95.59,2.17.24,3.13,1.05.42.35,1-.37,1.29-.88s-.19-.91-.56-1.12c-1-.59-2.06-1.15-3.09-1.72A1.65,1.65,0,0,0,195.8,259Z"/><path d="M239.85,285.57c-.27.85.39,1.07.85,1.52,1,1,2.1.29,3.14.41a1,1,0,0,0,1.14-1,1.76,1.76,0,0,0-1.15-1.7c-.91.62-1.77.18-2.63.07A1.13,1.13,0,0,0,239.85,285.57Z"/><path d="M278.11,273.21c.42-1-.48-1.31-1-1.78a2.84,2.84,0,0,0-3.65-.47c-.14.08-.43.2-.27.61.61,1.52,1.89,1.74,2.63,2.08C277,273.93,277.75,274.09,278.11,273.21Z"/><path d="M148.09,232.61c-.07-2-1.74-1.63-2.72-2.42-.48.37-1.33-.58-1.46.65-.25,2.41,1.72,2.16,2.77,2.93C147.31,234.22,148.13,233.56,148.09,232.61Z"/><path d="M373.65,244.11c.12-.77,0-1.59-.72-1.6a1.83,1.83,0,0,0-1.81,1.65c-.07.54.07,1.41.94,1.46S373.49,245.24,373.65,244.11Z"/><path d="M379.66,248.16c0-.75,0-1.86-1-2s-1.24.37-1.47,1.45.47,1.45,1.09,1.67S379.67,248.64,379.66,248.16Z"/></svg>