<svg id="_лой_1" data-name="—лой 1" xmlns="http://www.w3.org/2000/svg" viewBox="0 0 439.77 396.02"><defs><style>.cls-1{fill:#fff;}.cls-2{fill:#a3a3a3;}.cls-3{fill:#f9c2cf;}</style></defs><title>Монтажная область 2 копия</title><path class="cls-1" d="M26.11,173.26c-1.93-16.22,20.14-10.46,26.53-18,2.89-3.4,2.56-8.9,6.12-12.65,5.37-5.65,9.48-5,16-5.34,11.69-.62,19.06-12.93,32-14.05,15.09-1.3,20.54,2.13,30.51,12.05,8.21,8.18,18.94,9.31,30.16,9.3,14.86,0,29.3.74,44,2,27,2.32,53,2.27,79.2,7.35,29.37,5.7,60.13,5.14,90.31,4,8.11-.31,35.11-3.55,32.68,10.7-1.22,7.16-11.17,15.75-16.33,20.61-17.06,16.06-42.22,17.37-63.85,21.5-10.32,2-21.41,1-31.34,3.84-11.53,3.33-11.14,14-14,24-4.51,15.62-7.4,32.45-13.13,47.53-2.92,7.69-8.68,14.51-16.85,17.19-9.42,3.08-15-.64-20.65-7.41-6.84,5.57-21.73,6-28.16-.44-3.8-3.8-5-7.83-5.8-12.87-.65-4,.44-11.85-2-15.33-7.19-10.19-20.32-3.47-24.16,5.22-4.78,10.79-10.56,21.77-18.35,30.83-3.11,3.61-9.49,9.46-14.85,8-5.07-1.38-5.66-6.23-12-6.72-8.44-.65-29.31,2.44-27.3-11.26.76-5.18,5.46-9.65,6.48-14.85.95-4.84.32-11.41-.37-16-1.47-9.77-6.78-22.25-13.63-29.87-14-15.59-40.12-1.43-57.18-12.15-11.68-7.34-4.65-13.51-4-23.83s-5.26-15.15-9.33-23.33Z"/><path class="cls-2" d="M137.43,263.4c1.4-1.44,2.54-1.25,3.94.24a46.35,46.35,0,0,0-5.93-19c-3.29-6.06-8.77-9.49-14.13-13.43a4.47,4.47,0,0,0,1,3.46,69,69,0,0,1,4.3,9.58,69.37,69.37,0,0,1,4.51,15.33,5.69,5.69,0,0,0,1,2.88c.59.72,1,1.08,1.58-.14.79-1.67,1.62-1.83,2.22.25C136.06,263.28,136.62,264.23,137.43,263.4Z"/><path class="cls-2" d="M235.11,246.23c-.06,0-.12.12-.19.13a179,179,0,0,1-18.93.18c-.65.14-1.6-.4-2,.51-.3.67.3,1.27.68,1.86s.49,1.33.83,1.93c1.65,2.91,2.15,6.49,4.5,9,.57.61.75,1.33,1.54.1,1-1.49,2-.75,2.46.58.54,1.61,1.22,1.8,2.21.58.81-1,2.07-.61,2.22,0,.56,2.13,1.42.6,2,.3s1.17-1.25,1.8-1.32c1.68-.17,2.2-1.31,2.48-2.77a34.31,34.31,0,0,1,2.59-7.08C239,246.41,238.88,246.14,235.11,246.23Z"/><path class="cls-1" d="M63.94,200c0-.36-.81-1.18-1-1.1-1.11.51-.78,1.81-1.47,3.17C62.84,201.48,63.85,201.15,63.94,200Z"/><path class="cls-1" d="M47.37,178.14c-.24-.22-1.11-.17-.9.52s.36,1.65,1.29,1.81,1.18-.54,1.63-1.16C49.07,178.26,48,178.68,47.37,178.14Z"/><path class="cls-3" d="M297.09,174.16c.12-2-1.41-2.07-2.5-2.39-1.33-.39-1.38.79-1.69,1.89a11.5,11.5,0,0,0-.33,3.57A19.7,19.7,0,0,1,287,191.6c-.79.86-1.95,1.8-1.6,3,.4,1.37,1.86.21,2.7.65,1-.05,2.08.24,2.75-.21a11.54,11.54,0,0,0,5.23-7.42C297,183.2,296.83,178.65,297.09,174.16Z"/><path class="cls-3" d="M315.82,179.93c.32-3.14-1.36-3.29-3.15-3.81-.43-.12-.9,0-1.33-.16-3.9-1.11-4.33-.7-3.82,3.66,0,.24.09.47.13.71a9.65,9.65,0,0,1-2.08,8.5c-1.07,1.31-2.29,2.72-2.5,4.66,1.69.67,3.26-.25,4.86-.23,3.24,0,5.15-2,6.75-4.67S315.53,182.83,315.82,179.93Z"/><path class="cls-3" d="M305.51,175.22c-.07-.54-.6-.89-1.21-1.19-.93-.46-1.91-.2-2.82-.66-1.4-.72-2.28,0-2.47,1.57-.39,3.18-.84,6.36-1,9.56-.14,3.58-1.92,6.6-2.37,10.11a3.58,3.58,0,0,0,2.18-.21c.92-.37,2.45.34,2.74-.75a10,10,0,0,1,2.82-4.36C307.27,185.2,306.16,180.14,305.51,175.22Z"/><path class="cls-2" d="M118.5,159.7a1.83,1.83,0,0,1-2.08-.21c-2.09-1.85-10.94-1.86-11.9-2-3.23-.46-6.13.91-9.16,1.67-4.51,1.13-8.68,3.43-13.4,4-2.74.32-20.1,3.85-24.54,5.26-2.63.83-12.76,3.16-15.3,2.84-.69-.09-1.13.38-1.19,1.15s.64.71,1.09.86c3.31,1.11,6.57,2.41,9.92,3.28,7.87,2.06,15.81,3.79,23.67,5.9a62.59,62.59,0,0,0,12.32,2c2,.12,2.65,1.16,1.86,3.11a4.93,4.93,0,0,1-2.54,2.84c-5.72,2.7-11,6.29-16.53,9.44-3.22,1.84-6.26,4.15-9.86,5.2a1.1,1.1,0,0,0-.87,1.23c.09,1.07.9.64,1.41.67,5.41.26,10.83-.45,16.23.5a71.38,71.38,0,0,1,15.33,4c3.32,1.38,6.34,3.33,9.58,4.83,5.34,2.48,11,4,15.55,8.6,3.31,3.36,7.38,6.1,11.17,9a32.25,32.25,0,0,1,10.2,13.34c1.25,2.94,1,7.1,4.57,8.73.39.17.53,1.1.69,1.71.35,1.38.58,2.8,1,4.16.21.71.46,1.45,1.51,1.43,2,0,2.86,3.54,5.43,2.1.21-.12.16.69.27,1,.49,1.54.9,3.25,2.7,1,.29-.35.9-1,1.5-.39,1.2,1.26,1.4-.16,1.59-.79,1.63-5.19,3.07-10.45,4.81-15.6.85-2.5.5-5.23,1.61-7.65.54-1.17.81-1.91,2.41-1.57a157,157,0,0,0,19,2.69c2.36.2,4.83-.15,7.05.2,4.65.73,9.26.34,13.82.12,5.42-.26,10.85-.45,16.24-.22,6.13.26,12.15-2.1,18.3-.61a1.54,1.54,0,0,0,1.1-.15,1.69,1.69,0,0,1,2.59,1.32c.1,2.18,1.5,3.63,2.08,5.5a60.23,60.23,0,0,0,6.57,15.14c1.4-.65,1.09-2.51,2-3.33,1.58-1.4,2.14.67,3,1.54,1.72-2.62,2.52-2.6,4-.15.24.41.22,1.34.95,1.07a1.83,1.83,0,0,0,1.06-1.17c.29-2.33,1.41-2.44,3.14-1.7a1.17,1.17,0,0,0,1.75-.94c.46-2.58,1.31-5.05,1.6-7.69a109.38,109.38,0,0,1,1.62-11.86,108.19,108.19,0,0,0,2.44-20.46,72.44,72.44,0,0,0-1-13c-.39-2.63-2.21-10.53-1.76-11.89.51-1.53,1.64-1.26,2.75-1.16,3.87.35,7.52.41,9.93-4,1.71-3.11,4.21-5.69,4.75-9.52.52-3.68-.39-7.12-1.07-10.62-.09-.45-.22-.75-.68-.78-1.73-.1-3.21-1.29-4.89-1.45-3.34-.31-6.58-1.72-10-1a.93.93,0,0,1-1-.49c-1-1.7-2.6-1.48-4.38-1.34,1.26,2-.16,2.81-1.14,3.86-.73.78-1.25.28-1.95-.2-1.86-1.29-.62-3-.6-4.58-6.19-1.47-12.57-1.89-18.75-3.53a3.17,3.17,0,0,0-2.86.23c-1.26,1.05-2.49.46-3.81.43-1.64,0-2.16-1.74-3.55-2A43,43,0,0,0,226,159c-.46,0-1,0-.93.74.09,1.48-.89,1.18-1.68,1.21a6.88,6.88,0,0,1-4.2-1.32c-2.78-2-5.89-2-8.92-2a79.66,79.66,0,0,1-8.61-.31c-4.63-.51-9.29,0-13.91-.74-.58-.1-1.56.17-1.36.94.54,2.07-1.17,1.64-1.84,1.86-1.4.44-2.95-.14-4.42.51-.86.38-1.06-.62-.82-1.19.81-1.95-.46-1.84-1.51-1.87-4.24-.12-8.49-.1-12.72-.29-10.92-.51-21.78.85-32.68,1.07a46.59,46.59,0,0,0-13.83,2.12m-24.4,11.5a3.44,3.44,0,0,1-3.31-3.42c0-1.77,1.87-4.38,3.17-4.4,1.68,0,3.57,2.33,3.62,4.53A3.59,3.59,0,0,1,94.1,171.21Zm130-7.81c.35-1.06,1-.58,1.61-.54,1.05.05,2,.14,2.54,1.11-.17.9-.5,1.3-1.1,1.34a7.27,7.27,0,0,1-1.81,0c-.57-.1-1.11,1-1.57.13C223.38,164.8,223.83,164.09,224.06,163.4Zm-47.52,3.42a1.1,1.1,0,0,1,1.27,1.27c0,.9-.62,1.17-1.39,1.15-.94,0-1.31-.57-1.29-1.62S175.94,166.84,176.55,166.83Zm-5.93-4.41c.77.15,2,.23,2.12,1.61.05.44-.38,1.75-1.23,1.22s-2.54.23-2.68-1.57C168.74,162.59,169.52,162.38,170.62,162.42Zm-7.22-2c.24-2,2-1.18,3.18-1.41.64-.13,2-.53,1.69,1-.3,1.71-1.75,1.31-3,1.39C164.73,161,163.19,162.2,163.4,160.44Zm-17.85,10.88a.83.83,0,0,1-1.12.81c-1-.56-2.6-.5-2.82-2.23-.08-.62.37-1,1-1.11C143.61,169.61,145.25,169.64,145.55,171.32Zm-21.3-7.51a9.79,9.79,0,0,1,4.43-.76c.26,0,.47.52.69.78-.5.79-.87,1.45-1.75,1.51s-1.75-.24-2.59.36c-.41.29-.84-.17-1-.63S123.79,164,124.25,163.81Zm7,8.32c.42,0,.93-.93,1.21.1.2.74.08,1.56-.7,1.82-1.12.37-2.28.57-3.51.86a1.48,1.48,0,0,1-1.42-1.42,1.33,1.33,0,0,1,1.38-1.25C129.22,172.23,130.23,172.2,131.24,172.13ZM119.8,182.31c.07-.85-.25-2.06.87-2.17s.77,1.08,1,1.79a4.07,4.07,0,0,0,1.76,2.3c.25.14.93.1.55.94-.3.68-.75.91-1.2.68C121.38,185.12,119.66,184.59,119.8,182.31Zm2.53,9.81c-.41-.15-.32-.88-.2-1.33a.81.81,0,0,1,1.3-.43c1.47,1,3.24,1.4,4.73,2.84C125.65,195.06,124.14,192.77,122.33,192.12ZM129.46,182c-.43-.05-1.1.18-1.68-.43a1.86,1.86,0,0,1-.65-1.91c.32-1,1.06-.52,1.67-.39a10,10,0,0,0,1.05.29c.93.1,1.7.66,1.63,1.59S130.4,182,129.46,182Zm3.29,5.85c-1-.1-2.35,0-2.38-1.41s1.63-.64,2.33-1.34c.65.53,2,.07,2,1.43S133.63,187.89,132.74,187.8Zm2.36-27.23c-.18,1.48-1.91,1-3.07.89-.52,0-1.06,0-1.58,0s-1.63.39-1.57-1c0-1.22.75-1.45,1.68-1.41.53,0,1.06,0,1.76,0C133.23,159.38,135.4,158.08,135.1,160.57Zm2,5.7a1,1,0,0,1-1.28-.68,1.3,1.3,0,0,1,1-1.58,11.93,11.93,0,0,1,2.89-.07v-.05c.9,0,1.79-.05,2.69,0a1.06,1.06,0,0,1,.93,1.15c0,.92-.62.73-1.1.75A17.55,17.55,0,0,0,137.09,166.27Zm2.74,12.94c-.06-1.23,1-1,1.81-1.2a11.28,11.28,0,0,1,3.63,0c.74,0,.84.46.83,1.1s-.27.81-.81.87c-1.15.12-2.29.31-3.53.49C141,180.42,139.89,180.41,139.83,179.22Zm6.11,11.92c-1.52.73-3-.29-4.51-.48-.45-.06-.22-.68-.25-.75-.24-1.44.4-1.85,1.23-1.5a7.81,7.81,0,0,0,3,.42c.72,0,1.65-.21,1.88.79S146.5,190.87,145.94,191.14Zm3.65-30.73c-.75.13-1.92.31-2-.86-.05-1,.82-1.61,2.08-1.53.84.71,3.11-.18,3,1.53C152.67,161.64,150.7,160.21,149.59,160.41Zm3.23,5.12c-.45-.32-1-.49-.76-1.23s.65-1.11,1.16-.87c1.3.61,2.64.36,4,.45.42,0,.71.18.69.72s-.28.66-.71.73c-.95.15-1.88.34-2.75.5A2.93,2.93,0,0,1,152.82,165.53Zm3.94,25.15c-.48-.86-2.17.34-2-1.5,0-.72.44-1.52,1-1.22.88.49,2.44.07,2.57,1.67C158.37,190.7,157.14,190,156.76,190.69ZM160,178.92c-1.39,1.32-3.06.77-4.58.43-1.38-.31-1.26-1.51-.89-2.74,1.49.39,2.87,1.51,4.48.52a.73.73,0,0,1,1.12.4C160.18,178,160.2,178.69,160,178.92Zm4.67-7.24-2.12.41a6.08,6.08,0,0,0-3-.42c-.61,0-.7-.45-.69-1s0-.8.51-.91c1.8-.43,3.59.77,5.41,0,.27-.11.42.39.4.72S165.28,171.56,164.63,171.68Zm.53,9.49c0-.6,0-1.24.6-1.45,1.42-.52,2.88-.07,4.31.07.54.05.54.87.52,1.46s-.48.71-.94.72-1.21,0-1.81,0-1.06,0-1.58,0S165.17,182,165.16,181.17Zm7.22,9.64a13.47,13.47,0,0,1-4.74.5c-1-.13-2-.54-1.9-1.58.06-1.19,1.22-.84,2-.9h4.37c.61,0,1.23-.05,1.2,1C173.29,190.5,173,190.66,172.38,190.81Zm7.75-15.16c-.49.17-1,.36-1.53.56-1.13-.82-2.43-.55-3.69-.61-.63,0-.68-.45-.69-1s.25-1.39.77-1.21c1.69.6,3.48-.26,5.08.5.45.21,1.35-.1,1.36.9S180.63,175.48,180.13,175.65Zm7,7.77a19.68,19.68,0,0,1-2.24,0h-2.47c-.59,0-1-.12-1-.92,0-.49,0-1,.66-1,1.77-.15,3.54-.42,5.3-.4a1.28,1.28,0,0,1,1.29,1.57C188.56,183.86,187.73,183.36,187.17,183.42Zm-1.4-15.82a1.33,1.33,0,0,1-.85-1,1.26,1.26,0,0,1,1.16-1.22c1.12-.09,2.25,0,3.38,0v0h2.93c.78,0,1.33.36,1.3,1.28a1.08,1.08,0,0,1-1.19,1.14C190.24,167.74,188,167.73,185.76,167.6Zm7.89,10a3.45,3.45,0,0,1-2.39-.34c-.43-.31-1.3,0-1.13-1.06a1.15,1.15,0,0,1,1.3-1h2.43c.87.41,2.88-.89,2.88,1.18C196.73,178,194.83,177.52,193.65,177.55Zm2.78-15.7c.07-.87.42-1.46,1.22-1.37A19.18,19.18,0,0,1,202.9,162c.19.08.27.5.36.68-.21.86-.7,1.42-1.31,1.13-1.44-.68-3-.27-4.46-.82C196.88,162.77,196.36,162.76,196.43,161.85ZM210,185.12c-.05.3-.41.6-1,.76-2.7.73-5.4,1.46-8.07,2.28-.72.22-1-.16-1.21-.67a1,1,0,0,1,.52-1.42c3-.72,5.85-2.22,9-2.15C209.75,183.95,210.09,184.13,210,185.12Zm.94-9.79a38.34,38.34,0,0,1-4.88,1.16c-.58.11-.84-.47-1-1.08a1.22,1.22,0,0,1,1-1.55c1.5-.33,3-.47,4.59-.69.43.11,1.1-.25,1.18.65A1.47,1.47,0,0,1,210.9,175.33Zm2.64-9a23.88,23.88,0,0,1-6.69,1.09.79.79,0,0,1-.87-.87c0-.55-.12-1.13.67-1.26s1.5-.8,2.5-.24c1.13-.38,2.45-.09,3.72-.64.44-.19,1.43-.56,1.66.53C214.68,165.73,214.17,166.12,213.54,166.36ZM221.93,185c-.92,1.41-2.59.45-3.41,1.27-.93.19-1.19-.21-1.37-.82a1.08,1.08,0,0,1,.83-1.39,6,6,0,0,0,2.9-1,1.16,1.16,0,0,1,1.62.42C223.06,184.3,222.23,184.56,221.93,185Zm-2.72-11.1c-.29,0-1.23-.19-.86-1.05.22-.52.34-1.26,1.2-1.18s2,0,2.94,0,1.81,0,2.72,0c.49,0,1.06-.15,1.16.74a1.17,1.17,0,0,1-.9,1.42A16,16,0,0,1,219.21,173.93ZM230.87,179c-1.13.28-2.25.61-3.39.89-.88.21-1.43-.13-1.57-1.15s.34-1.3,1.16-1.2c1.28.15,2.41-.89,3.72-.49.73.26,2-.52,2.16.4C233.11,178.67,231.79,178.81,230.87,179Zm3.7-10.51c.19-1.52,1.44-1.56,2.5-1.76.57.22,1.66-.39,1.46.85-.23,1.43-1.43,1.91-2.63,2.1A1,1,0,0,1,234.57,168.53Zm2.08,15.79a1.71,1.71,0,0,1-1.13-1.37c0-.64.47-1,1.05-1,2.13-.08,4.22-1,6.56-.3C242.19,183.24,237.95,184.92,236.65,184.33Zm19-18.86c.59-.13,1.14-.57,1.87-.25s2.44-.07,2.34,1.49-1.65.79-2.22,1c-.68,0-1-.48-1.35-.11-.68.73-1.31.85-1.7-.24A1.37,1.37,0,0,1,255.61,165.47Zm-6,6.4c-1.34.41-2.66.85-4,1.22-.52.14-.86-.29-1-.75a1.07,1.07,0,0,1,.53-1.43c1.32-.47,2.69-.8,4-1.18.51.1,1.15-.22,1.27.66C250.46,171.11,250.3,171.65,249.59,171.87Zm7.86,8c-1.52.72-3.13,1.22-4.71,1.8-.83-.18-1.7-.13-1.84-1.19-.19-1.45,1-.77,1.56-1a21.24,21.24,0,0,0,3.9-1.54,1.34,1.34,0,0,1,2,.31C258.86,179.07,257.9,179.68,257.46,179.89Zm5-7.68a5.76,5.76,0,0,1-3,.43c-.45-.2-1.48.59-1.72-.52s.83-1.17,1.53-1.56a4.66,4.66,0,0,1,3.11-.33c.58.08,1.06.33,1.09,1S262.94,172,262.42,172.21Zm7,3.85c-.89.07-.93-.43-.89-.93a2.41,2.41,0,0,1,1.87-2.31c.51-.12,1.38.73,1.18,1.42C271.27,175.34,270,175.48,269.43,176.06Zm8.39,7.32a1,1,0,0,1-1.11-1.21c.09-2.11,1.92-1.52,3-2.1.47-.26,1.44,0,1.31.73C280.68,182.59,278.8,182.41,277.82,183.38Zm2.69-11.5a1.92,1.92,0,0,1-2.44-2.11c.34-.59.67-1.73,1.63-1.3,1.34.61,3.73.08,3.68,2.47C283.33,172.72,281.46,171.72,280.51,171.87Z"/><path class="cls-1" d="M40.45,170.59c3-1.28,8-.61,11.53-1.49,3.31-.82,6.68-2.18,10-3,7.19-1.79,14.52-3.81,22-5.4,13.18-2.81,38.89-8.78,32,14.38-1.2,4-3.29,7.66-4.65,11.51-1.62,4.57-.67,7,.17,11.48,1,5.36.73,20.63-7.54,20.53-1.94,0-6.9-4.55-9.1-5.4-3.14-1.22-6.53-2.14-9.77-3.23-7.41-2.51-13.14-2.23-21.12-1.88-3.49.15-7,1.63-10.46.39,6-3.57,13.46-5.85,19.1-10.26,4.49-3.52,13.41-7.85,15.79-13-4-2-10.35-.12-14.92-.63-3.89-.43-8.95-1.37-12.47-3.11A60.2,60.2,0,0,0,48.55,177c-1.43-.39-13.94-4.62-7.11-5.39Z"/><path class="cls-3" d="M327.47,178.9c-.09-.61-.34-.87-.86-.83-2.63.23-5.18-.7-7.83-.55-1.43.08-1.47.91-1.25,1.89,1.19,5.21.17,9.69-3.57,13.62,3.88-1,8.09.1,11.65-2.86,2.25-1.88,3.16-3.06,2.74-6.11C328.12,182.33,327.72,180.63,327.47,178.9Z"/><path class="cls-3" d="M360.32,178.07c-.8-.06-2-.19-1.95,1,0,2-1.79,2.49-2.42,3.93-.32.75-1.18.58-1.73.11-.75-.64.13-.92.37-1.31a22.72,22.72,0,0,1,1.33-1.91c1.24-1.59.46-1.87-1-1.86-3.25,0-6.5.08-9.74,0-1.46,0-2.05.38-1.89,2a10.57,10.57,0,0,1-1.77,7.37c14.55-3.31,28.86-6,42.82-10.43a110.76,110.76,0,0,1-12.19.79C368.2,177.68,364.27,178.36,360.32,178.07Z"/><path class="cls-3" d="M341.57,180.26c-.23-1.41-.68-2.16-2-2.18-2.93,0-5.87,0-8.81,0-1.24,0-1.57.49-1.35,2,.51,3.37,2.1,6.85-.88,10.38a98.18,98.18,0,0,1,10-2.12.75.75,0,0,0,.54-.3C340.3,185.55,342.08,183.39,341.57,180.26Z"/><path d="M400.61,172.68c-.38,0-.76,0-1.13,0-4.66-.27-9.19.82-13.78,1.39-5.43.67-10.93.78-16.4,1-4.74.23-9.48.45-14.22.48-9.82.07-19.65.12-29.46,0a31.43,31.43,0,0,1-9-1.26c-8.12-2.6-16.69-3-24.64-6.46-5.2-2.24-10.91-2.39-16.32-3.9A105.49,105.49,0,0,0,261.27,161c-4.4-.59-8.72-1.69-13.15-2.1a99.75,99.75,0,0,1-11.48-1.62c-4.85-1-9.76-.92-14.62-1.55a126.73,126.73,0,0,0-12.86-.71c-7.32-.19-14.67-1.18-21.95-.73-4.37.27-8.66-.74-13-.08a22.78,22.78,0,0,1-8.06-.25c-5.29-1.13-10.56-.09-15.83-.18S139.51,155,134,155c-4.09,0-8.18.43-12.28.52-1.15,0-1.89,1.9-3.26.67,1.62-3.34,4.26-6.05,5.18-9.87.8-3.31,1.2-6.52-.94-9.34a7.2,7.2,0,0,0-12.66,2.44,59.14,59.14,0,0,0-2.46,12.11,3,3,0,0,1-2.86,3c-1.75.32-2.11-.9-1.61-3.74.54-3.12,1.43-6.27.35-9.48s-6.29-5.11-7.85-2.86c-1.76,2.53-2.88,5.36-1.75,8.72a62.63,62.63,0,0,0,2.83,7c.51,1.07.6,1.48-.69,2a56.69,56.69,0,0,1-10.36,3.17c-6.07,1.28-12.14,2.58-18.19,4-4.92,1.16-9.87,2.18-14.78,3.37-4,1-8.08,1.12-12,2.4a4.61,4.61,0,0,1-3.89-.51c-1.28-.78-4,4.78-2.58,5.21,1.21.35,2.21,1.17,3.5,1.35,3.22.44,5.81,1.88,6.86,5.59a6.35,6.35,0,0,0,1.74,2.73c1,.91,2.18,1.58,3.31.09l1.59-2.05a20.79,20.79,0,0,0,1.4,2c1.58,1.76,2.94,2,4.39.23,1.78-2.14,3.85-2,6.1-1.58,1.67.32,3.31.75,5,1.17,5.25,1.32,10.45,3,15.87,3.47.65.05,1.28.19,1.36,1s-.56.8-1,1.11c-4.24,2.92-8.83,5.15-13.2,7.82-3.41,2.08-3.42,2.06-6.35-.58-2.22-2-2.77-1.91-3.79,1.14-.37,1.11-.92,1.52-1.79,1.29-1.56-.42-2.11.55-2.92,1.71-1.43,2-1.85,5.1-4.74,5.79a15.46,15.46,0,0,0-2.69,1c-.75.34-2,.43-1.45,1.82.43,1.11,9.64.65,13.23.63,2,0,8.59-.22,9.83-.09,3.32.36,17.77,2.71,21.22,4.46,6.26,3.18,13.14,4.85,18.69,9.93,2.75,2.52,5.57,4.63,7.59,8a102.17,102.17,0,0,1,8.82,20.21,57.28,57.28,0,0,1,2.3,10.68c.43,3.28.05,6.5.22,9.74a12.21,12.21,0,0,1-1.1,5.54c-1.58,3.52-4.29,5.52-7.29,7.3-.86.51-1.95,1.15-1.07,2.56.76,1.22,1.76,1.67,3,.71.45-.36.9-.74,1.39-.3s-.06.92-.25,1.24c-.78,1.29-.25,2.28.52,3.24s1.59.08,2.36-.14,1.4-1.11,2.08.15c1.17,2.2,2.18,1,3.41-.11s1.29-3.13,3-4c-.53,2.17,1,2.33,2.15,2.77.65.26,1.65.39,1.34,1.2-1,2.46.14,2.9,2,2.78.62,0,1,.4,1.33.8a1.58,1.58,0,0,0,2.4.26c.93-.69,1.69-1.23,2.47.45.51,1.1,1.71.33,1.95-.46.74-2.53,2.45-4.35,3.8-6.42,3-4.65,4.09-10.22,6-15.36,1.65-4.4,2.59-9.11,4-13.61,1.6-5,3.47-9.82,4.18-15.06.18-1.37.87-1.54,1.88-1.43,5.7.61,11.33,1.69,17.07,2,3.16.19,14.23,1.11,16.58.53,5.22-1.28,8.32-.26,10.4,3.68.69,1.31,1.11,2.78,1.73,4.13a40.88,40.88,0,0,1,4.07,20.41c-.21,2.81-2.34,6.9-5.39,6.82-1,0-1.25.75-1.31,1.31-.1.88,3.61,1.67,4.64.28.45,4.07.45,4.07,3.44,2.58.56-.28,1-.51,1.35.5.45,1.42,2.33,1.8,2.93.48s1.64-1.69,2.51-2.44c3.13-2.72,4.1-6.81,5.29-10.53,2.86-9,4.71-18.39,9.12-26.78.25-.47.12-1.08.89-1.09s.89.28,1.16.86c.66,1.43,1.48,2.77,2.12,4.2,3.39,7.75,5.86,15.89,8.42,24a18.61,18.61,0,0,1,.64,6.46c0,1.08-4.67,2.7-6.43,2.24-1.05-.28-1.34,1.35-1.17,1.51,4.12,1.75,3,2.88,2.25,5.46,2.11-.4,4.86,0,4.11,2.68a1.72,1.72,0,0,0,2.07-.56c.2-.25,10.1-4.65,10.66-7.56a29.76,29.76,0,0,1,1.07-3.37c1-3.24,2.75-6.19,3.34-9.59.74-4.23,1.36-8.48,2.26-12.67,1.33-6.23,1.88-12.61,3.14-18.84A130.91,130.91,0,0,0,278,222a75.68,75.68,0,0,0-.34-9.45c-.37-4.95-1.41-9.78-1.71-15,2.05,0,11.37,0,13.93.11,6.17.28,12.2-1.84,18.39-1.69,3.55.09,10.41-1,13.31-1.38.66-.09,1.29-.32,1.95-.47,6.5-1.47,13.07-2.66,19.48-4.49a143.58,143.58,0,0,1,14.06-3.18c7.29-1.3,14.3-3.8,21.62-4.9,3.83-.57,7.41-2.71,11.28-3.26s7.18-2.8,11-3.55c.49-.1,1.56,0,1.28-1.2C402,172.73,401.33,172.65,400.61,172.68Zm-352.85,7.8c-.93-.16-1.09-1.13-1.29-1.81s.66-.74.9-.52c.61.55,1.7.12,2,1.17C48.94,179.93,48.59,180.62,47.76,180.47ZM63,198.85c.17-.08,1,.75,1,1.1-.09,1.2-1.1,1.53-2.45,2.07C62.18,200.66,61.85,199.36,63,198.85Zm70.66,63.42c-.58,1.22-1,.86-1.58.14a5.69,5.69,0,0,1-1-2.88,69.37,69.37,0,0,0-4.51-15.33,69,69,0,0,0-4.3-9.58,4.47,4.47,0,0,1-1-3.46c5.37,3.95,10.84,7.37,14.13,13.43a46.35,46.35,0,0,1,5.93,19c-1.4-1.48-2.54-1.68-3.94-.24-.81.83-1.37-.12-1.58-.88C135.25,260.45,134.41,260.61,133.62,262.28Zm8.21,22.28c-.26,1.63-1,3.09-3.12,2.67-.9-.18-1.94.41-3.32.76l7-10.42C142.82,280.15,142.18,282.36,141.83,284.55Zm95.53-34.38a34.31,34.31,0,0,0-2.59,7.08c-.28,1.46-.8,2.6-2.48,2.77-.63.07-1.14,1-1.8,1.32s-1.49,1.83-2-.3c-.15-.57-1.41-1-2.22,0-1,1.22-1.67,1-2.21-.58-.45-1.32-1.51-2.07-2.46-.58-.79,1.23-1,.51-1.54-.1-2.35-2.52-2.85-6.1-4.5-9-.34-.6-.46-1.35-.83-1.93s-1-1.19-.68-1.86c.41-.9,1.35-.37,2-.51a179,179,0,0,0,18.93-.18c.07,0,.13-.13.19-.13C238.88,246.14,239,246.41,237.36,250.17Zm38.42-55.52c-1.11-.1-2.24-.36-2.75,1.16-.45,1.36,1.37,9.26,1.76,11.89a72.44,72.44,0,0,1,1,13,108.19,108.19,0,0,1-2.44,20.46A109.38,109.38,0,0,0,271.72,253c-.29,2.64-1.14,5.11-1.6,7.69a1.17,1.17,0,0,1-1.75.94c-1.73-.74-2.85-.63-3.14,1.7a1.83,1.83,0,0,1-1.06,1.17c-.73.27-.71-.67-.95-1.07-1.44-2.45-2.23-2.47-4,.15-.84-.87-1.4-2.94-3-1.54-.93.82-.62,2.68-2,3.33a60.23,60.23,0,0,1-6.57-15.14c-.58-1.87-2-3.32-2.08-5.5a1.69,1.69,0,0,0-2.59-1.32,1.54,1.54,0,0,1-1.1.15c-6.14-1.49-12.16.87-18.3.61-5.39-.23-10.82,0-16.24.22-4.55.22-9.17.61-13.82-.12-2.22-.35-4.69,0-7.05-.2a157,157,0,0,1-19-2.69c-1.6-.34-1.88.4-2.41,1.57-1.11,2.42-.76,5.15-1.61,7.65-1.74,5.15-3.18,10.41-4.81,15.6-.2.63-.39,2-1.59.79-.59-.62-1.2,0-1.5.39-1.8,2.2-2.21.5-2.7-1-.11-.36-.05-1.17-.27-1-2.57,1.43-3.43-2.14-5.43-2.1-1,0-1.3-.71-1.51-1.43-.4-1.36-.63-2.78-1-4.16-.16-.61-.3-1.54-.69-1.71-3.61-1.63-3.33-5.79-4.57-8.73a32.25,32.25,0,0,0-10.2-13.34c-3.79-2.92-7.86-5.67-11.17-9-4.57-4.63-10.21-6.12-15.55-8.6-3.24-1.5-6.26-3.45-9.58-4.83a71.38,71.38,0,0,0-15.33-4c-5.4-.94-10.82-.24-16.23-.5-.5,0-1.31.41-1.41-.67a1.1,1.1,0,0,1,.87-1.23c3.6-1,6.64-3.37,9.86-5.2,5.51-3.15,10.81-6.74,16.53-9.44a4.93,4.93,0,0,0,2.54-2.84c.79-1.95.1-3-1.86-3.11a62.59,62.59,0,0,1-12.32-2c-7.85-2.11-15.8-3.84-23.67-5.9-3.36-.88-6.62-2.17-9.92-3.28-.46-.15-1.15,0-1.09-.86s.5-1.24,1.19-1.15c2.54.33,12.67-2,15.3-2.84,4.44-1.4,21.8-4.94,24.54-5.26,4.72-.55,8.89-2.85,13.4-4,3-.76,5.93-2.13,9.16-1.67,1,.14,9.81.15,11.9,2a1.83,1.83,0,0,0,2.08.21,46.59,46.59,0,0,1,13.83-2.12c10.9-.22,21.76-1.58,32.68-1.07,4.24.2,8.48.18,12.72.29,1.06,0,2.32-.08,1.51,1.87-.24.58,0,1.57.82,1.19,1.48-.64,3-.07,4.42-.51.67-.21,2.38.22,1.84-1.86-.2-.77.78-1,1.36-.94,4.61.77,9.28.23,13.91.74a79.66,79.66,0,0,0,8.61.31c3,0,6.14,0,8.92,2a6.88,6.88,0,0,0,4.2,1.32c.79,0,1.76.27,1.68-1.21,0-.7.47-.73.93-.74a43,43,0,0,1,9.86.63c1.39.3,1.91,2,3.55,2,1.32,0,2.55.62,3.81-.43A3.17,3.17,0,0,1,246,161c6.18,1.64,12.56,2.05,18.75,3.53,0,1.62-1.25,3.29.6,4.58.7.48,1.22,1,1.95.2,1-1,2.4-1.91,1.14-3.86,1.79-.14,3.33-.36,4.38,1.34a.93.93,0,0,0,1,.49c3.43-.68,6.67.73,10,1,1.67.16,3.16,1.34,4.89,1.45.46,0,.59.32.68.78.68,3.5,1.59,6.94,1.07,10.62-.54,3.84-3,6.41-4.75,9.52C283.3,195.06,279.65,195,275.78,194.65Zm15.08.37c-.68.44-1.77.15-2.75.21-.84-.44-2.3.73-2.7-.65-.34-1.18.81-2.11,1.6-3a19.7,19.7,0,0,0,5.55-14.38,11.5,11.5,0,0,1,.33-3.57c.31-1.1.36-2.28,1.69-1.89,1.09.32,2.61.42,2.5,2.39-.26,4.49-.14,9-1,13.44A11.54,11.54,0,0,1,290.87,195Zm7-.62a3.58,3.58,0,0,1-2.18.21c.45-3.51,2.24-6.53,2.37-10.11.13-3.2.58-6.38,1-9.56.19-1.54,1.07-2.29,2.47-1.57.91.47,1.89.2,2.82.66.61.3,1.14.65,1.21,1.19.65,4.92,1.76,10-2.1,14.08a10,10,0,0,0-2.82,4.36C300.29,194.75,298.76,194,297.84,194.4Zm10.1-1.15c-1.6,0-3.17.91-4.86.23.21-1.94,1.43-3.35,2.5-4.66a9.65,9.65,0,0,0,2.08-8.5c0-.24-.11-.47-.13-.71-.51-4.36-.08-4.77,3.82-3.66.43.12.9,0,1.33.16,1.79.52,3.47.66,3.15,3.81-.3,2.91.5,5.92-1.13,8.66S311.18,193.28,307.94,193.26Zm17.67-3.09c-3.55,3-7.77,1.82-11.65,2.86,3.74-3.93,4.76-8.41,3.57-13.62-.22-1-.18-1.81,1.25-1.89,2.64-.15,5.2.78,7.83.55.52,0,.77.22.86.83.25,1.73.65,3.43.89,5.16C328.77,187.11,327.87,188.29,325.61,190.17Zm13-1.87a98.18,98.18,0,0,0-10,2.12c3-3.52,1.39-7,.88-10.38-.22-1.49.11-2,1.35-2,2.94,0,5.87,0,8.81,0,1.27,0,1.72.77,2,2.18.51,3.13-1.28,5.29-2.42,7.74A.75.75,0,0,1,338.62,188.3Zm2.93-.89a10.57,10.57,0,0,0,1.77-7.37c-.17-1.64.43-2.07,1.89-2,3.25.11,6.5.05,9.74,0,1.43,0,2.21.27,1,1.86a22.72,22.72,0,0,0-1.33,1.91c-.24.39-1.12.67-.37,1.31.55.47,1.41.64,1.73-.11.63-1.44,2.43-1.94,2.42-3.93,0-1.21,1.14-1.08,1.95-1,4,.29,7.88-.39,11.85-.3a110.76,110.76,0,0,0,12.19-.79C370.41,181.37,356.1,184.1,341.55,187.41Z"/><path d="M63.65,145.43c-.67,0-.8,1-1,1.65-.44,1.76-1,3.5-1.41,5.26S60.36,156,60,157.88a1.18,1.18,0,0,0,1,1.56,1,1,0,0,0,1.16-.92c.8-3.72,1.56-7.45,2.31-11.06C64.48,146.55,64.65,145.47,63.65,145.43Z"/><path d="M64.54,159.43c.62.15,1-.25,1.28-.76q1-2,2-4c.87-1.83,1.77-3.65,2.53-5.54.2-.5.35-1.41-.26-1.78s-.88.5-1.31.83c-.94.73-1.09,1.89-1.59,2.84C66,153.28,65,155.64,64,157.81,64.17,158.51,63.75,159.24,64.54,159.43Z"/><path d="M305.61,161.48a1,1,0,0,0-1.41.74,40.11,40.11,0,0,1-1.88,4,.89.89,0,0,0,.4,1.37c.46.26,1.34.37,1.43-.09.32-1.7,1.72-2.79,2-4.42C306,162.53,306.51,161.69,305.61,161.48Z"/><path d="M307.31,200a21.26,21.26,0,0,0-2.51-.85,1.48,1.48,0,0,0-1.78,1c-.33,1.06.44,1.46,1.14,1.71a22,22,0,0,0,2.47.59c.85.07,1.55,0,1.74-.92S308.06,200.25,307.31,200Z"/><path d="M319.29,162.94c-.56,1.62-1.23,3.2-1.7,4.86-.1.35.36,1,.72,1.34s.74-.21.88-.54c.69-1.64,1.33-3.31,1.91-4.79a1.2,1.2,0,0,0-.72-1.31C320,162.35,319.52,162.3,319.29,162.94Z"/><path d="M340.1,165.19c-1,1.56-2,3.13-3,4.73-.24.4-.31,1,.25,1.21.39.13,1.11.11,1.26-.14,1-1.63,1.9-3.35,2.9-5.15a5.12,5.12,0,0,0-.48-.71A.56.56,0,0,0,340.1,165.19Z"/><path d="M309.32,162.46c-.46,1.23-1.41,2.18-1.52,3.64,0,.56-.32,1,.19,1.44.68.57,1.4-.12,1.53-.41a44.48,44.48,0,0,0,1.61-4.27c-.2-.39-.35-1.11-.73-1.3C309.85,161.29,309.52,161.9,309.32,162.46Z"/><path d="M344.15,192.26a1.1,1.1,0,0,0-1.25,1.08c-.08.59,2.89,3.05,3.68,3.07s.79-.51.82-1.1C347.47,194,345.66,192.32,344.15,192.26Z"/><path d="M325.47,195.67a1,1,0,0,0-.95,1.27,4.31,4.31,0,0,0,2.84,3.1c.55.14,1.08,0,1-.86C328.34,197.65,326.68,195.66,325.47,195.67Z"/><path d="M357.33,166.41a8,8,0,0,0-3.46,3.21c-.24.49-.47,1.49.5,1.57.55,0,3.88-3.31,3.92-3.74C358.36,166.67,358,166,357.33,166.41Z"/><path d="M347.23,166.49a13.36,13.36,0,0,0-2.41,3.06,1,1,0,0,0,.8,1.58c.59.1,3.16-3.17,3.1-3.94C348.46,166.49,347.82,165.94,347.23,166.49Z"/><path d="M335.71,194.16c-.58.19-1.59-.28-1.37.77a3.38,3.38,0,0,0,2.54,2.67c.77.19,1-.28,1-1.09C338,194.67,336.72,194.58,335.71,194.16Z"/><path d="M328,169.2a.48.48,0,0,0,.6.51c1.5-.25,2.3-1.25,2.61-3.24.26-.62-.62-.63-1.09-.88C329.78,165.43,327.93,168.65,328,169.2Z"/><path d="M367.34,172.64c.43-.49,1.76-.24,1.84-1.83a1.22,1.22,0,0,0-1.36-1.43c-1.14.28-1.41,1.7-2,2.63C365.59,172.32,366.41,172.71,367.34,172.64Z"/><path d="M357.81,189c-.44-.26-1.2.66-1.22,1.16a2.82,2.82,0,0,0,1.48,2.49c.53.29,1-.29,1.33-.64A3.89,3.89,0,0,0,357.81,189Z"/><path d="M94,163.39c-1.3,0-3.17,2.63-3.17,4.4a3.44,3.44,0,0,0,3.31,3.42,3.59,3.59,0,0,0,3.49-3.29C97.54,165.72,95.65,163.36,94,163.39Z"/><path d="M209.22,183.93c-3.17-.08-6,1.43-9,2.15a1,1,0,0,0-.52,1.42c.2.51.49.89,1.21.67,2.68-.82,5.38-1.55,8.07-2.28.58-.16.93-.46,1-.76C210.09,184.13,209.75,183.95,209.22,183.93Z"/><path d="M193.68,166.63c0-.92-.51-1.28-1.3-1.28h-2.93v0c-1.13,0-2.26-.06-3.38,0a1.26,1.26,0,0,0-1.16,1.22,1.33,1.33,0,0,0,.85,1c2.24.13,4.48.14,6.72.18A1.08,1.08,0,0,0,193.68,166.63Z"/><path d="M212.86,164.45c-1.27.55-2.59.26-3.72.64-1-.56-1.71.11-2.5.24s-.65.71-.67,1.26a.79.79,0,0,0,.88.87,23.88,23.88,0,0,0,6.69-1.09c.63-.24,1.14-.63,1-1.39C214.3,163.89,213.31,164.25,212.86,164.45Z"/><path d="M226.36,172.45c-.09-.89-.67-.73-1.16-.74-.91,0-1.81,0-2.72,0s-2,.07-2.94,0-1,.67-1.2,1.18c-.37.86.58,1,.86,1.05a16,16,0,0,0,6.25-.05A1.17,1.17,0,0,0,226.36,172.45Z"/><path d="M172.12,188.82h-4.37c-.78.06-1.95-.29-2,.9-.05,1,.88,1.45,1.9,1.58a13.47,13.47,0,0,0,4.74-.5c.62-.14.91-.3.93-1C173.34,188.77,172.73,188.82,172.12,188.82Z"/><path d="M256.36,178a21.24,21.24,0,0,1-3.9,1.54c-.59.22-1.74-.46-1.56,1,.13,1.06,1,1,1.84,1.19,1.58-.58,3.19-1.08,4.71-1.8.45-.21,1.4-.82.86-1.61A1.34,1.34,0,0,0,256.36,178Z"/><path d="M236.57,182c-.58,0-1.09.33-1.05,1a1.71,1.71,0,0,0,1.13,1.37c1.3.59,5.54-1.08,6.48-2.64C240.79,181,238.7,181.91,236.57,182Z"/><path d="M210.65,173.16c-1.54.22-3.08.36-4.59.69a1.22,1.22,0,0,0-1,1.55c.13.61.38,1.19,1,1.08a38.34,38.34,0,0,0,4.88-1.16,1.47,1.47,0,0,0,.93-1.51C211.75,172.92,211.08,173.28,210.65,173.16Z"/><path d="M187.44,181.09c-1.77,0-3.53.26-5.3.4-.63,0-.62.53-.66,1-.06.81.39.93,1,.92h2.47a19.68,19.68,0,0,0,2.24,0c.57-.06,1.4.44,1.56-.76A1.28,1.28,0,0,0,187.44,181.09Z"/><path d="M203.26,162.68c-.09-.18-.16-.6-.36-.68a19.18,19.18,0,0,0-5.25-1.52c-.8-.09-1.15.5-1.22,1.37s.45.92,1.05,1.14c1.45.55,3,.13,4.46.82C202.55,164.1,203,163.54,203.26,162.68Z"/><path d="M132.33,159c-.71,0-1.24,0-1.76,0-.93,0-1.63.19-1.68,1.41-.05,1.41.91,1,1.57,1s1.05,0,1.58,0c1.16.1,2.89.59,3.07-.89C135.4,158.08,133.23,159.38,132.33,159Z"/><path d="M143.36,165.07a1.06,1.06,0,0,0-.93-1.15c-.89-.07-1.79,0-2.69,0V164a11.93,11.93,0,0,0-2.89.07,1.3,1.3,0,0,0-1,1.58,1,1,0,0,0,1.28.68,17.55,17.55,0,0,1,5.16-.45C142.74,165.81,143.39,166,143.36,165.07Z"/><path d="M193.86,175.13h-2.43a1.15,1.15,0,0,0-1.3,1c-.17,1,.7.74,1.13,1.06a3.45,3.45,0,0,0,2.39.34c1.18,0,3.08.47,3.09-1.24C196.75,174.24,194.73,175.53,193.86,175.13Z"/><path d="M279.7,168.46c-1-.43-1.29.71-1.63,1.3a1.92,1.92,0,0,0,2.44,2.11c1-.16,2.83.85,2.87-.94C283.43,168.55,281,169.08,279.7,168.46Z"/><path d="M180.08,173.92c-1.61-.76-3.39.1-5.08-.5-.52-.19-.79.57-.77,1.21s.06.95.69,1c1.26.06,2.55-.21,3.69.61.56-.21,1-.4,1.53-.56s1.33.27,1.31-.82S180.53,174.14,180.08,173.92Z"/><path d="M230.79,177.09c-1.31-.4-2.44.64-3.72.49-.82-.1-1.29.2-1.16,1.2s.69,1.37,1.57,1.15c1.13-.28,2.25-.61,3.39-.89.92-.23,2.24-.37,2.08-1.55C232.83,176.56,231.52,177.34,230.79,177.09Z"/><path d="M145.47,188.82a7.81,7.81,0,0,1-3-.42c-.84-.35-1.47.07-1.23,1.5,0,.08-.2.7.25.75,1.51.19,3,1.21,4.51.48.56-.27,1.66-.43,1.41-1.53S146.19,188.83,145.47,188.82Z"/><path d="M145.29,180c.54-.05.8-.26.81-.87s-.09-1.08-.83-1.1a11.28,11.28,0,0,0-3.63,0c-.78.22-1.87,0-1.81,1.2s1.15,1.2,1.93,1.3C143,180.34,144.14,180.14,145.29,180Z"/><path d="M159,177.13c-1.61,1-3-.13-4.48-.52-.37,1.23-.49,2.44.89,2.74,1.53.34,3.19.89,4.58-.43.24-.23.23-.94.13-1.38A.73.73,0,0,0,159,177.13Z"/><path d="M124,185.16c.38-.85-.3-.8-.55-.94a4.07,4.07,0,0,1-1.76-2.3c-.26-.71,0-1.89-1-1.79s-.8,1.32-.87,2.17c-.14,2.29,1.58,2.81,3,3.54C123.25,186.08,123.7,185.84,124,185.16Z"/><path d="M249.09,169.73c-1.31.38-2.68.71-4,1.18a1.07,1.07,0,0,0-.53,1.43c.16.47.5.89,1,.75,1.35-.37,2.67-.81,4-1.22.71-.22.87-.76.77-1.48C250.24,169.51,249.6,169.83,249.09,169.73Z"/><path d="M256.24,167.65c.35-.37.67.14,1.35.11.57-.25,2.12.65,2.22-1s-1.46-1.1-2.34-1.49-1.28.11-1.87.25a1.37,1.37,0,0,0-1.07,1.94C254.93,168.49,255.55,168.38,256.24,167.65Z"/><path d="M126.82,173.5a1.48,1.48,0,0,0,1.42,1.42c1.23-.29,2.39-.49,3.51-.86.79-.26.9-1.08.7-1.82-.28-1-.79-.13-1.21-.1-1,.07-2,.1-3,.11A1.33,1.33,0,0,0,126.82,173.5Z"/><path d="M167.84,182c.6,0,1.21,0,1.81,0s.91,0,.94-.72,0-1.4-.52-1.46c-1.43-.14-2.89-.59-4.31-.07-.57.21-.6.85-.6,1.45,0,.88.58.78,1.1.8S167.31,182,167.84,182Z"/><path d="M220.87,183a6,6,0,0,1-2.9,1,1.08,1.08,0,0,0-.83,1.39c.18.61.45,1,1.38.82.82-.82,2.49.14,3.41-1.27.31-.47,1.13-.73.56-1.58A1.16,1.16,0,0,0,220.87,183Z"/><path d="M164.74,169.83c-1.82.73-3.61-.47-5.41,0-.47.11-.5.5-.51.91s.08,1,.69,1a6.08,6.08,0,0,1,3,.42l2.12-.41c.65-.12.49-.68.51-1.13S165,169.72,164.74,169.83Z"/><path d="M122.14,190.79c-.12.45-.21,1.18.2,1.33,1.8.65,3.31,2.93,5.83,1.07-1.49-1.44-3.26-1.85-4.73-2.84A.81.81,0,0,0,122.14,190.79Z"/><path d="M262.36,170.23a4.66,4.66,0,0,0-3.11.33c-.7.39-1.8.34-1.53,1.56s1.27.32,1.72.52a5.76,5.76,0,0,0,3-.43c.52-.21,1.05-.38,1-1S262.94,170.31,262.36,170.23Z"/><path d="M152.74,159.55c.06-1.71-2.21-.81-3-1.53-1.26-.08-2.14.52-2.08,1.53.06,1.17,1.24,1,2,.86C150.7,160.21,152.67,161.64,152.74,159.55Z"/><path d="M165.28,161.44c1.23-.08,2.68.32,3-1.39.28-1.55-1.05-1.15-1.69-1-1.14.23-2.94-.64-3.18,1.41C163.19,162.2,164.73,161,165.28,161.44Z"/><path d="M125,165.71c.85-.6,1.73-.29,2.59-.36s1.25-.72,1.75-1.51c-.22-.26-.43-.74-.69-.78a9.79,9.79,0,0,0-4.43.76c-.46.15-.43.8-.25,1.27S124.63,166,125,165.71Z"/><path d="M225.31,165.32a7.27,7.27,0,0,0,1.81,0c.6,0,.93-.44,1.1-1.34-.52-1-1.49-1.05-2.54-1.11-.63,0-1.25-.52-1.61.54-.23.69-.68,1.39-.33,2.05C224.19,166.31,224.74,165.22,225.31,165.32Z"/><path d="M157.16,165.34c.42-.07.69-.23.71-.73s-.27-.69-.69-.72c-1.32-.09-2.66.16-4-.45-.52-.24-1,.27-1.16.87s.32.91.76,1.23a2.93,2.93,0,0,0,1.6.31C155.28,165.68,156.22,165.49,157.16,165.34Z"/><path d="M131.47,181.11c.07-.93-.7-1.49-1.63-1.59a10,10,0,0,1-1.05-.29c-.61-.13-1.35-.63-1.67.39a1.86,1.86,0,0,0,.65,1.91c.58.61,1.25.38,1.68.43C130.4,182,131.4,182.12,131.47,181.11Z"/><path d="M279.68,180.07c-1,.58-2.88,0-3,2.1a1,1,0,0,0,1.11,1.21c1-1,2.86-.79,3.17-2.58C281.12,180,280.15,179.8,279.68,180.07Z"/><path d="M132.69,185.05c-.7.7-2.37-.17-2.33,1.34s1.43,1.31,2.38,1.41,2,0,2-1.32S133.34,185.58,132.69,185.05Z"/><path d="M238.53,167.62c.2-1.24-.9-.62-1.46-.85-1.06.2-2.3.23-2.5,1.76a1,1,0,0,0,1.33,1.18C237.1,169.53,238.3,169.05,238.53,167.62Z"/><path d="M171.51,165.24c.84.53,1.28-.78,1.23-1.22-.17-1.38-1.35-1.46-2.12-1.61-1.1,0-1.88.18-1.79,1.26C169,165.48,170.62,164.69,171.51,165.24Z"/><path d="M141.62,169.91c.21,1.72,1.77,1.66,2.82,2.23a.83.83,0,0,0,1.12-.81c-.3-1.68-1.94-1.72-3-2.53C142,168.91,141.54,169.29,141.62,169.91Z"/><path d="M155.72,188c-.55-.3-.94.5-1,1.22-.13,1.84,1.55.64,2,1.5.38-.66,1.61,0,1.53-1C158.16,188,156.6,188.45,155.72,188Z"/><path d="M270.4,172.81a2.41,2.41,0,0,0-1.87,2.31c0,.5,0,1,.89.93.6-.58,1.84-.72,2.15-1.83C271.78,173.54,270.92,172.7,270.4,172.81Z"/><path d="M176.42,169.25c.76,0,1.34-.26,1.39-1.15a1.1,1.1,0,0,0-1.27-1.27c-.6,0-1.44-.31-1.41.8S175.49,169.23,176.42,169.25Z"/></svg>