<?xml version="1.0" encoding="UTF-8" standalone="no"?>
<svg
   xmlns:dc="http://purl.org/dc/elements/1.1/"
   xmlns:cc="http://creativecommons.org/ns#"
   xmlns:rdf="http://www.w3.org/1999/02/22-rdf-syntax-ns#"
   xmlns:svg="http://www.w3.org/2000/svg"
   xmlns="http://www.w3.org/2000/svg"
   xmlns:sodipodi="http://sodipodi.sourceforge.net/DTD/sodipodi-0.dtd"
   xmlns:inkscape="http://www.inkscape.org/namespaces/inkscape"
   id="_лой_1"
   data-name="—лой 1"
   viewBox="0 0 368.49589 163.31858"
   version="1.1"
   sodipodi:docname="3nowhite.svg"
   width="368.49588"
   height="163.31857"
   inkscape:version="0.92.4 5da689c313, 2019-01-14">
  <metadata
     id="metadata5225">
    <rdf:RDF>
      <cc:Work
         rdf:about="">
        <dc:format>image/svg+xml</dc:format>
        <dc:type
           rdf:resource="http://purl.org/dc/dcmitype/StillImage" />
        <dc:title>Монтажная область 2 копия</dc:title>
      </cc:Work>
    </rdf:RDF>
  </metadata>
  <sodipodi:namedview
     pagecolor="#ffffff"
     bordercolor="#666666"
     borderopacity="1"
     objecttolerance="10"
     gridtolerance="10"
     guidetolerance="10"
     inkscape:pageopacity="0"
     inkscape:pageshadow="2"
     inkscape:window-width="1918"
     inkscape:window-height="1179"
     id="namedview5223"
     showgrid="false"
     inkscape:zoom="2.4973487"
     inkscape:cx="186.08488"
     inkscape:cy="99.457291"
     inkscape:window-x="0"
     inkscape:window-y="19"
     inkscape:window-maximized="0"
     inkscape:current-layer="_лой_1" />
  <defs
     id="defs5074">
    <style
       id="style5072">.cls-1{fill:#fff;}.cls-2{fill:#a3a3a3;}.cls-3{fill:#f9c2cf;}</style>
  </defs>
  <title
     id="title5076">Монтажная область 2 копия</title>
  <path
     class="cls-1"
     d="m -7.6901194,39.111283 c -1.93,-16.22 20.1400004,-10.46 26.5300004,-18 2.89,-3.4 2.56,-8.9 6.12,-12.65 5.37,-5.65 9.48,-5 16,-5.34 11.69,-0.62 19.06,-12.93 32,-14.05 15.09,-1.3 20.54,2.13 30.509999,12.05 8.21,8.18 18.94,9.31 30.16,9.3 14.86,0 29.3,0.74 44,2 27,2.32 53,2.27 79.2,7.35 29.37,5.7 60.13,5.14 90.31,4 8.11,-0.31 35.11,-3.55 32.68,10.7 -1.22,7.16 -11.17,15.75 -16.33,20.61 -17.06,16.06 -42.22,17.37 -63.85,21.5 -10.32,2 -21.41,1 -31.34,3.84 -11.53,3.33 -11.14,14 -14,23.999997 -4.51,15.62 -7.4,32.45 -13.13,47.53 -2.92,7.69 -8.68,14.51 -16.85,17.19 -9.42,3.08 -15,-0.64 -20.65,-7.41 -6.84,5.57 -21.73,6 -28.16,-0.44 -3.8,-3.8 -5,-7.83 -5.8,-12.87 -0.65,-4 0.44,-11.85 -2,-15.33 -7.19,-10.19 -20.32,-3.47 -24.16,5.22 -4.78,10.79 -10.56,21.77 -18.35,30.83 -3.11,3.61 -9.49,9.46 -14.85,8 -5.07,-1.38 -5.66,-6.23 -11.999999,-6.72 -8.44,-0.65 -29.31,2.44 -27.3,-11.26 0.76,-5.18 5.46,-9.65 6.48,-14.85 0.95,-4.84 0.32,-11.41 -0.37,-16 -1.47,-9.77 -6.78,-22.25 -13.63,-29.869997 -14,-15.59 -40.12,-1.43 -57.1800004,-12.15 -11.68,-7.34 -4.65,-13.51 -4,-23.83 0.65,-10.32 -5.26,-15.15 -9.33,-23.33 z"
     id="path5078"
     inkscape:connector-curvature="0"
     style="fill:#ffffff" />
  <path
     class="cls-2"
     d="m 103.62988,129.25128 c 1.4,-1.44 2.54,-1.25 3.94,0.24 a 46.35,46.35 0 0 0 -5.93,-19 c -3.289999,-6.06 -8.769999,-9.49 -14.129999,-13.429997 a 4.47,4.47 0 0 0 1,3.459997 69,69 0 0 1 4.3,9.58 69.37,69.37 0 0 1 4.51,15.33 5.69,5.69 0 0 0 1,2.88 c 0.59,0.72 1,1.08 1.58,-0.14 0.789999,-1.67 1.619999,-1.83 2.219999,0.25 0.14,0.71 0.7,1.66 1.51,0.83 z"
     id="path5080"
     inkscape:connector-curvature="0"
     style="fill:#a3a3a3" />
  <path
     class="cls-2"
     d="m 201.30988,112.08128 c -0.06,0 -0.12,0.12 -0.19,0.13 a 179,179 0 0 1 -18.93,0.18 c -0.65,0.14 -1.6,-0.4 -2,0.51 -0.3,0.67 0.3,1.27 0.68,1.86 0.38,0.59 0.49,1.33 0.83,1.93 1.65,2.91 2.15,6.49 4.5,9 0.57,0.61 0.75,1.33 1.54,0.1 1,-1.49 2,-0.75 2.46,0.58 0.54,1.61 1.22,1.8 2.21,0.58 0.81,-1 2.07,-0.61 2.22,0 0.56,2.13 1.42,0.6 2,0.3 0.58,-0.3 1.17,-1.25 1.8,-1.32 1.68,-0.17 2.2,-1.31 2.48,-2.77 a 34.31,34.31 0 0 1 2.59,-7.08 c 1.7,-3.82 1.58,-4.09 -2.19,-4 z"
     id="path5082"
     inkscape:connector-curvature="0"
     style="fill:#a3a3a3" />
  <path
     class="cls-1"
     d="m 30.139881,65.851283 c 0,-0.36 -0.81,-1.18 -1,-1.1 -1.11,0.51 -0.78,1.81 -1.47,3.17 1.37,-0.59 2.38,-0.92 2.47,-2.07 z"
     id="path5084"
     inkscape:connector-curvature="0"
     style="fill:#ffffff" />
  <path
     class="cls-1"
     d="m 13.569881,43.991283 c -0.24,-0.22 -1.11,-0.17 -0.9,0.52 0.21,0.69 0.36,1.65 1.29,1.81 0.93,0.16 1.18,-0.54 1.63,-1.16 -0.32,-1.05 -1.39,-0.63 -2.02,-1.17 z"
     id="path5086"
     inkscape:connector-curvature="0"
     style="fill:#ffffff" />
  <path
     class="cls-3"
     d="m 263.28988,40.011283 c 0.12,-2 -1.41,-2.07 -2.5,-2.39 -1.33,-0.39 -1.38,0.79 -1.69,1.89 a 11.5,11.5 0 0 0 -0.33,3.57 19.7,19.7 0 0 1 -5.57,14.37 c -0.79,0.86 -1.95,1.8 -1.6,3 0.4,1.37 1.86,0.21 2.7,0.65 1,-0.05 2.08,0.24 2.75,-0.21 a 11.54,11.54 0 0 0 5.23,-7.42 c 0.92,-4.42 0.75,-8.97 1.01,-13.46 z"
     id="path5088"
     inkscape:connector-curvature="0"
     style="fill:#f9c2cf" />
  <path
     class="cls-3"
     d="m 282.01988,45.781283 c 0.32,-3.14 -1.36,-3.29 -3.15,-3.81 -0.43,-0.12 -0.9,0 -1.33,-0.16 -3.9,-1.11 -4.33,-0.7 -3.82,3.66 0,0.24 0.09,0.47 0.13,0.71 a 9.65,9.65 0 0 1 -2.08,8.5 c -1.07,1.31 -2.29,2.72 -2.5,4.66 1.69,0.67 3.26,-0.25 4.86,-0.23 3.24,0 5.15,-2 6.75,-4.67 1.6,-2.67 0.85,-5.76 1.14,-8.66 z"
     id="path5090"
     inkscape:connector-curvature="0"
     style="fill:#f9c2cf" />
  <path
     class="cls-3"
     d="m 271.70988,41.071283 c -0.07,-0.54 -0.6,-0.89 -1.21,-1.19 -0.93,-0.46 -1.91,-0.2 -2.82,-0.66 -1.4,-0.72 -2.28,0 -2.47,1.57 -0.39,3.18 -0.84,6.36 -1,9.56 -0.14,3.58 -1.92,6.6 -2.37,10.11 a 3.58,3.58 0 0 0 2.18,-0.21 c 0.92,-0.37 2.45,0.34 2.74,-0.75 a 10,10 0 0 1 2.82,-4.36 c 3.89,-4.09 2.78,-9.15 2.13,-14.07 z"
     id="path5092"
     inkscape:connector-curvature="0"
     style="fill:#f9c2cf" />
  <path
     class="cls-2"
     d="m 84.699881,25.551283 a 1.83,1.83 0 0 1 -2.08,-0.21 c -2.09,-1.85 -10.94,-1.86 -11.9,-2 -3.23,-0.46 -6.13,0.91 -9.16,1.67 -4.51,1.13 -8.68,3.43 -13.4,4 -2.74,0.32 -20.1,3.85 -24.54,5.26 -2.63,0.83 -12.76,3.16 -15.3000004,2.84 -0.69,-0.09 -1.13,0.38 -1.19,1.15 -0.06,0.77 0.64,0.71 1.09,0.86 3.3100004,1.11 6.5700004,2.41 9.9200004,3.28 7.87,2.06 15.81,3.79 23.67,5.9 a 62.59,62.59 0 0 0 12.32,2 c 2,0.12 2.65,1.16 1.86,3.11 a 4.93,4.93 0 0 1 -2.54,2.84 c -5.72,2.7 -11,6.29 -16.53,9.44 -3.22,1.84 -6.26,4.15 -9.86,5.2 a 1.1,1.1 0 0 0 -0.87,1.23 c 0.09,1.07 0.9,0.64 1.41,0.67 5.41,0.26 10.83,-0.45 16.23,0.5 a 71.38,71.38 0 0 1 15.33,4 c 3.32,1.38 6.34,3.33 9.58,4.83 5.34,2.48 11,4 15.55,8.6 3.31,3.36 7.38,6.1 11.17,9 a 32.25,32.25 0 0 1 10.199999,13.339997 c 1.25,2.94 1,7.1 4.57,8.73 0.39,0.17 0.53,1.1 0.69,1.71 0.35,1.38 0.58,2.8 1,4.16 0.21,0.71 0.46,1.45 1.51,1.43 2,0 2.86,3.54 5.43,2.1 0.21,-0.12 0.16,0.69 0.27,1 0.49,1.54 0.9,3.25 2.7,1 0.29,-0.35 0.9,-1 1.5,-0.39 1.2,1.26 1.4,-0.16 1.59,-0.79 1.63,-5.19 3.07,-10.45 4.81,-15.6 0.85,-2.5 0.5,-5.23 1.61,-7.65 0.54,-1.17 0.81,-1.91 2.41,-1.57 a 157,157 0 0 0 19,2.69 c 2.36,0.2 4.83,-0.15 7.05,0.2 4.65,0.73 9.26,0.34 13.82,0.12 5.42,-0.26 10.85,-0.45 16.24,-0.22 6.13,0.26 12.15,-2.1 18.3,-0.61 a 1.54,1.54 0 0 0 1.1,-0.15 1.69,1.69 0 0 1 2.59,1.32 c 0.1,2.18 1.5,3.63 2.08,5.5 a 60.23,60.23 0 0 0 6.57,15.14 c 1.4,-0.65 1.09,-2.51 2,-3.33 1.58,-1.4 2.14,0.67 3,1.54 1.72,-2.62 2.52,-2.6 4,-0.15 0.24,0.41 0.22,1.34 0.95,1.07 a 1.83,1.83 0 0 0 1.06,-1.17 c 0.29,-2.33 1.41,-2.44 3.14,-1.7 a 1.17,1.17 0 0 0 1.75,-0.94 c 0.46,-2.58 1.31,-5.05 1.6,-7.69 a 109.38,109.38 0 0 1 1.62,-11.86 108.19,108.19 0 0 0 2.44,-20.459997 72.44,72.44 0 0 0 -1,-13 c -0.39,-2.63 -2.21,-10.53 -1.76,-11.89 0.51,-1.53 1.64,-1.26 2.75,-1.16 3.87,0.35 7.52,0.41 9.93,-4 1.71,-3.11 4.21,-5.69 4.75,-9.52 0.52,-3.68 -0.39,-7.12 -1.07,-10.62 -0.09,-0.45 -0.22,-0.75 -0.68,-0.78 -1.73,-0.1 -3.21,-1.29 -4.89,-1.45 -3.34,-0.31 -6.58,-1.72 -10,-1 a 0.93,0.93 0 0 1 -1,-0.49 c -1,-1.7 -2.6,-1.48 -4.38,-1.34 1.26,2 -0.16,2.81 -1.14,3.86 -0.73,0.78 -1.25,0.28 -1.95,-0.2 -1.86,-1.29 -0.62,-3 -0.6,-4.58 -6.19,-1.47 -12.57,-1.89 -18.75,-3.53 a 3.17,3.17 0 0 0 -2.86,0.23 c -1.26,1.05 -2.49,0.46 -3.81,0.43 -1.64,0 -2.16,-1.74 -3.55,-2 a 43,43 0 0 0 -9.85,-0.6 c -0.46,0 -1,0 -0.93,0.74 0.09,1.48 -0.89,1.18 -1.68,1.21 a 6.88,6.88 0 0 1 -4.2,-1.32 c -2.78,-2 -5.89,-2 -8.92,-2 a 79.66,79.66 0 0 1 -8.61,-0.31 c -4.63,-0.51 -9.29,0 -13.91,-0.74 -0.58,-0.1 -1.56,0.17 -1.36,0.94 0.54,2.07 -1.17,1.64 -1.84,1.86 -1.4,0.44 -2.95,-0.14 -4.42,0.51 -0.86,0.38 -1.06,-0.62 -0.82,-1.19 0.81,-1.95 -0.46,-1.84 -1.51,-1.87 -4.24,-0.12 -8.49,-0.1 -12.72,-0.29 -10.92,-0.51 -21.78,0.85 -32.679999,1.07 a 46.59,46.59 0 0 0 -13.83,2.12 m -24.4,11.5 a 3.44,3.44 0 0 1 -3.31,-3.42 c 0,-1.77 1.87,-4.38 3.17,-4.4 1.68,0 3.57,2.33 3.62,4.53 a 3.59,3.59 0 0 1 -3.55,3.27 z m 129.999999,-7.81 c 0.35,-1.06 1,-0.58 1.61,-0.54 1.05,0.05 2,0.14 2.54,1.11 -0.17,0.9 -0.5,1.3 -1.1,1.34 a 7.27,7.27 0 0 1 -1.81,0 c -0.57,-0.1 -1.11,1 -1.57,0.13 -0.46,-0.66 -0.01,-1.37 0.22,-2.06 z m -47.52,3.42 a 1.1,1.1 0 0 1 1.27,1.27 c 0,0.9 -0.62,1.17 -1.39,1.15 -0.94,0 -1.31,-0.57 -1.29,-1.62 0.02,-1.05 0.7,-0.8 1.31,-0.81 z m -5.93,-4.41 c 0.77,0.15 2,0.23 2.12,1.61 0.05,0.44 -0.38,1.75 -1.23,1.22 -0.85,-0.53 -2.54,0.23 -2.68,-1.57 -0.19,-1.1 0.59,-1.31 1.69,-1.27 z m -7.22,-2 c 0.24,-2 2,-1.18 3.18,-1.41 0.64,-0.13 2,-0.53 1.69,1 -0.3,1.71 -1.75,1.31 -3,1.39 -0.64,-0.41 -2.18,0.79 -1.97,-0.97 z m -17.85,10.88 a 0.83,0.83 0 0 1 -1.12,0.81 c -1,-0.56 -2.6,-0.5 -2.82,-2.23 -0.08,-0.62 0.37,-1 1,-1.11 0.9,0.83 2.54,0.86 2.84,2.54 z m -21.299999,-7.51 a 9.79,9.79 0 0 1 4.43,-0.76 c 0.26,0 0.47,0.52 0.69,0.78 -0.5,0.79 -0.87,1.45 -1.75,1.51 -0.88,0.06 -1.75,-0.24 -2.59,0.36 -0.41,0.29 -0.84,-0.17 -1,-0.63 -0.16,-0.46 -0.34,-1.06 0.12,-1.25 z m 7,8.32 c 0.42,0 0.93,-0.93 1.21,0.1 0.2,0.74 0.08,1.56 -0.7,1.82 -1.12,0.37 -2.28,0.57 -3.51,0.86 a 1.48,1.48 0 0 1 -1.42,-1.42 1.33,1.33 0 0 1 1.38,-1.25 c 0.91,0 1.92,-0.03 2.93,-0.1 z m -11.55,10.19 c 0.07,-0.85 -0.25,-2.06 0.87,-2.17 1.12,-0.11 0.77,1.08 1,1.79 a 4.07,4.07 0 0 0 1.76,2.3 c 0.25,0.14 0.93,0.1 0.55,0.94 -0.3,0.68 -0.75,0.91 -1.2,0.68 -1.4,-0.73 -3.12,-1.26 -2.98,-3.54 z m 2.53,9.81 c -0.41,-0.15 -0.32,-0.88 -0.2,-1.33 a 0.81,0.81 0 0 1 1.3,-0.43 c 1.47,1 3.24,1.4 4.73,2.84 -2.51,1.86 -4.02,-0.43 -5.83,-1.08 z m 7.13,-10.12 c -0.43,-0.05 -1.1,0.18 -1.68,-0.43 a 1.86,1.86 0 0 1 -0.65,-1.91 c 0.32,-1 1.06,-0.52 1.67,-0.39 a 10,10 0 0 0 1.05,0.29 c 0.93,0.1 1.7,0.66 1.63,1.59 -0.07,0.93 -1.08,0.85 -2.02,0.85 z m 3.29,5.85 c -1,-0.1 -2.35,0 -2.38,-1.41 -0.03,-1.41 1.63,-0.64 2.33,-1.34 0.65,0.53 1.999999,0.07 1.999999,1.43 0,1.36 -1.069999,1.36 -1.959999,1.27 z m 2.359999,-27.23 c -0.18,1.48 -1.909999,1 -3.069999,0.89 -0.52,0 -1.06,0 -1.58,0 -0.52,0 -1.63,0.39 -1.57,-1 0,-1.22 0.75,-1.45 1.68,-1.41 0.53,0 1.06,0 1.76,0 0.9,0.28 3.069999,-1.02 2.769999,1.47 z m 2,5.7 a 1,1 0 0 1 -1.28,-0.68 1.3,1.3 0 0 1 1,-1.58 11.93,11.93 0 0 1 2.89,-0.07 v -0.05 c 0.9,0 1.79,-0.05 2.69,0 a 1.06,1.06 0 0 1 0.93,1.15 c 0,0.92 -0.62,0.73 -1.1,0.75 a 17.55,17.55 0 0 0 -5.15,0.43 z m 2.74,12.94 c -0.06,-1.23 1,-1 1.81,-1.2 a 11.28,11.28 0 0 1 3.63,0 c 0.74,0 0.84,0.46 0.83,1.1 -0.01,0.64 -0.27,0.81 -0.81,0.87 -1.15,0.12 -2.29,0.31 -3.53,0.49 -0.78,-0.1 -1.89,-0.11 -1.95,-1.3 z m 6.11,11.92 c -1.52,0.73 -3,-0.29 -4.51,-0.48 -0.45,-0.06 -0.22,-0.68 -0.25,-0.75 -0.24,-1.44 0.4,-1.85 1.23,-1.5 a 7.81,7.81 0 0 0 3,0.42 c 0.72,0 1.65,-0.21 1.88,0.79 0.23,1 -0.81,1.21 -1.37,1.48 z m 3.65,-30.73 c -0.75,0.13 -1.92,0.31 -2,-0.86 -0.05,-1 0.82,-1.61 2.08,-1.53 0.84,0.71 3.11,-0.18 3,1.53 -0.02,2.05 -1.99,0.62 -3.1,0.82 z m 3.23,5.12 c -0.45,-0.32 -1,-0.49 -0.76,-1.23 0.24,-0.74 0.65,-1.11 1.16,-0.87 1.3,0.61 2.64,0.36 4,0.45 0.42,0 0.71,0.18 0.69,0.72 -0.02,0.54 -0.28,0.66 -0.71,0.73 -0.95,0.15 -1.88,0.34 -2.75,0.5 a 2.93,2.93 0 0 1 -1.65,-0.34 z m 3.94,25.15 c -0.48,-0.86 -2.17,0.34 -2,-1.5 0,-0.72 0.44,-1.52 1,-1.22 0.88,0.49 2.44,0.07 2.57,1.67 0.02,1.03 -1.21,0.33 -1.59,1.02 z m 3.22,-11.8 c -1.39,1.32 -3.06,0.77 -4.58,0.43 -1.38,-0.31 -1.26,-1.51 -0.89,-2.74 1.49,0.39 2.87,1.51 4.48,0.52 a 0.73,0.73 0 0 1 1.12,0.4 c 0.05,0.47 0.07,1.16 -0.13,1.39 z m 4.67,-7.24 -2.12,0.41 a 6.08,6.08 0 0 0 -3,-0.42 c -0.61,0 -0.7,-0.45 -0.69,-1 0.01,-0.55 0,-0.8 0.51,-0.91 1.8,-0.43 3.59,0.77 5.41,0 0.27,-0.11 0.42,0.39 0.4,0.72 -0.02,0.33 0.1,1.08 -0.55,1.2 z m 0.53,9.49 c 0,-0.6 0,-1.24 0.6,-1.45 1.42,-0.52 2.88,-0.07 4.31,0.07 0.54,0.05 0.54,0.87 0.52,1.46 -0.02,0.59 -0.48,0.71 -0.94,0.72 -0.46,0.01 -1.21,0 -1.81,0 -0.6,0 -1.06,0 -1.58,0 -0.52,0 -1.13,0.03 -1.14,-0.8 z m 7.22,9.64 a 13.47,13.47 0 0 1 -4.74,0.5 c -1,-0.13 -2,-0.54 -1.9,-1.58 0.06,-1.19 1.22,-0.84 2,-0.9 h 4.37 c 0.61,0 1.23,-0.05 1.2,1 -0.06,0.67 -0.35,0.83 -0.97,0.98 z m 7.75,-15.16 c -0.49,0.17 -1,0.36 -1.53,0.56 -1.13,-0.82 -2.43,-0.55 -3.69,-0.61 -0.63,0 -0.68,-0.45 -0.69,-1 -0.01,-0.55 0.25,-1.39 0.77,-1.21 1.69,0.6 3.48,-0.26 5.08,0.5 0.45,0.21 1.35,-0.1 1.36,0.9 0.01,1 -0.84,0.69 -1.34,0.86 z m 7,7.77 a 19.68,19.68 0 0 1 -2.24,0 h -2.47 c -0.59,0 -1,-0.12 -1,-0.92 0,-0.49 0,-1 0.66,-1 1.77,-0.15 3.54,-0.42 5.3,-0.4 a 1.28,1.28 0 0 1 1.29,1.57 c -0.15,1.19 -0.98,0.69 -1.54,0.75 z m -1.4,-15.82 a 1.33,1.33 0 0 1 -0.85,-1 1.26,1.26 0 0 1 1.16,-1.22 c 1.12,-0.09 2.25,0 3.38,0 v 0 h 2.93 c 0.78,0 1.33,0.36 1.3,1.28 a 1.08,1.08 0 0 1 -1.19,1.14 c -2.26,-0.06 -4.5,-0.07 -6.74,-0.2 z m 7.89,10 a 3.45,3.45 0 0 1 -2.39,-0.34 c -0.43,-0.31 -1.3,0 -1.13,-1.06 a 1.15,1.15 0 0 1 1.3,-1 h 2.43 c 0.87,0.41 2.88,-0.89 2.88,1.18 -0.02,1.62 -1.92,1.14 -3.1,1.17 z m 2.78,-15.7 c 0.07,-0.87 0.42,-1.46 1.22,-1.37 a 19.18,19.18 0 0 1 5.24,1.47 c 0.19,0.08 0.27,0.5 0.36,0.68 -0.21,0.86 -0.7,1.42 -1.31,1.13 -1.44,-0.68 -3,-0.27 -4.46,-0.82 -0.61,-0.22 -1.13,-0.23 -1.06,-1.14 z m 13.56,23.22 c -0.05,0.3 -0.41,0.6 -1,0.76 -2.7,0.73 -5.4,1.46 -8.07,2.28 -0.72,0.22 -1,-0.16 -1.21,-0.67 a 1,1 0 0 1 0.52,-1.42 c 3,-0.72 5.85,-2.22 9,-2.15 0.51,0.03 0.85,0.21 0.76,1.2 z m 0.94,-9.79 a 38.34,38.34 0 0 1 -4.88,1.16 c -0.58,0.11 -0.84,-0.47 -1,-1.08 a 1.22,1.22 0 0 1 1,-1.55 c 1.5,-0.33 3,-0.47 4.59,-0.69 0.43,0.11 1.1,-0.25 1.18,0.65 a 1.47,1.47 0 0 1 -0.93,1.51 z m 2.64,-9 a 23.88,23.88 0 0 1 -6.69,1.09 0.79,0.79 0 0 1 -0.87,-0.87 c 0,-0.55 -0.12,-1.13 0.67,-1.26 0.79,-0.13 1.5,-0.8 2.5,-0.24 1.13,-0.38 2.45,-0.09 3.72,-0.64 0.44,-0.19 1.43,-0.56 1.66,0.53 0.11,0.79 -0.4,1.18 -1.03,1.42 z m 8.35,18.67 c -0.92,1.41 -2.59,0.45 -3.41,1.27 -0.93,0.19 -1.19,-0.21 -1.37,-0.82 a 1.08,1.08 0 0 1 0.83,-1.39 6,6 0 0 0 2.9,-1 1.16,1.16 0 0 1 1.62,0.42 c 0.56,0.82 -0.27,1.08 -0.57,1.52 z m -2.72,-11.1 c -0.29,0 -1.23,-0.19 -0.86,-1.05 0.22,-0.52 0.34,-1.26 1.2,-1.18 0.86,0.08 2,0 2.94,0 0.94,0 1.81,0 2.72,0 0.49,0 1.06,-0.15 1.16,0.74 a 1.17,1.17 0 0 1 -0.9,1.42 16,16 0 0 1 -6.26,0.1 z m 11.66,5.1 c -1.13,0.28 -2.25,0.61 -3.39,0.89 -0.88,0.21 -1.43,-0.13 -1.57,-1.15 -0.14,-1.02 0.34,-1.3 1.16,-1.2 1.28,0.15 2.41,-0.89 3.72,-0.49 0.73,0.26 2,-0.52 2.16,0.4 0.16,1.22 -1.16,1.36 -2.08,1.55 z m 3.7,-10.51 c 0.19,-1.52 1.44,-1.56 2.5,-1.76 0.57,0.22 1.66,-0.39 1.46,0.85 -0.23,1.43 -1.43,1.91 -2.63,2.1 a 1,1 0 0 1 -1.33,-1.15 z m 2.08,15.79 a 1.71,1.71 0 0 1 -1.13,-1.37 c 0,-0.64 0.47,-1 1.05,-1 2.13,-0.08 4.22,-1 6.56,-0.3 -0.94,1.63 -5.18,3.31 -6.48,2.72 z m 19,-18.86 c 0.59,-0.13 1.14,-0.57 1.87,-0.25 0.73,0.32 2.44,-0.07 2.34,1.49 -0.1,1.56 -1.65,0.79 -2.22,1 -0.68,0 -1,-0.48 -1.35,-0.11 -0.68,0.73 -1.31,0.85 -1.7,-0.24 a 1.37,1.37 0 0 1 1.02,-1.84 z m -6,6.4 c -1.34,0.41 -2.66,0.85 -4,1.22 -0.52,0.14 -0.86,-0.29 -1,-0.75 a 1.07,1.07 0 0 1 0.53,-1.43 c 1.32,-0.47 2.69,-0.8 4,-1.18 0.51,0.1 1.15,-0.22 1.27,0.66 0.01,0.77 -0.15,1.31 -0.86,1.53 z m 7.86,8 c -1.52,0.72 -3.13,1.22 -4.71,1.8 -0.83,-0.18 -1.7,-0.13 -1.84,-1.19 -0.19,-1.45 1,-0.77 1.56,-1 a 21.24,21.24 0 0 0 3.9,-1.54 1.34,1.34 0 0 1 2,0.31 c 0.44,0.87 -0.52,1.48 -0.96,1.69 z m 5,-7.68 a 5.76,5.76 0 0 1 -3,0.43 c -0.45,-0.2 -1.48,0.59 -1.72,-0.52 -0.24,-1.11 0.83,-1.17 1.53,-1.56 a 4.66,4.66 0 0 1 3.11,-0.33 c 0.58,0.08 1.06,0.33 1.09,1 0.03,0.67 -0.58,0.84 -1.1,1.05 z m 7,3.85 c -0.89,0.07 -0.93,-0.43 -0.89,-0.93 a 2.41,2.41 0 0 1 1.87,-2.31 c 0.51,-0.12 1.38,0.73 1.18,1.42 -0.4,1.17 -1.67,1.31 -2.24,1.89 z m 8.39,7.32 a 1,1 0 0 1 -1.11,-1.21 c 0.09,-2.11 1.92,-1.52 3,-2.1 0.47,-0.26 1.44,0 1.31,0.73 -0.42,1.86 -2.3,1.68 -3.28,2.65 z m 2.69,-11.5 a 1.92,1.92 0 0 1 -2.44,-2.11 c 0.34,-0.59 0.67,-1.73 1.63,-1.3 1.34,0.61 3.73,0.08 3.68,2.47 -0.13,1.85 -2,0.85 -2.95,1 z"
     id="path5094"
     inkscape:connector-curvature="0"
     style="fill:#a3a3a3" />
  <path
     class="cls-1"
     d="m 6.6498806,36.441283 c 3,-1.28 8.0000004,-0.61 11.5300004,-1.49 3.31,-0.82 6.68,-2.18 10,-3 7.19,-1.79 14.52,-3.81 22,-5.4 13.18,-2.81 38.89,-8.78 32,14.38 -1.2,4 -3.29,7.66 -4.65,11.51 -1.62,4.57 -0.67,7 0.17,11.48 1,5.36 0.73,20.63 -7.54,20.53 -1.94,0 -6.9,-4.55 -9.1,-5.4 -3.14,-1.22 -6.53,-2.14 -9.77,-3.23 -7.41,-2.51 -13.14,-2.23 -21.12,-1.88 -3.49,0.15 -7,1.63 -10.46,0.39 6,-3.57 13.46,-5.85 19.1,-10.26 4.49,-3.52 13.41,-7.85 15.79,-13 -4,-2 -10.35,-0.12 -14.92,-0.63 -3.89,-0.43 -8.95,-1.37 -12.47,-3.11 a 60.2,60.2 0 0 0 -12.46,-4.48 c -1.43,-0.39 -13.94000042,-4.62 -7.1100004,-5.39 z"
     id="path5096"
     inkscape:connector-curvature="0"
     style="fill:#ffffff" />
  <path
     class="cls-3"
     d="m 293.66988,44.751283 c -0.09,-0.61 -0.34,-0.87 -0.86,-0.83 -2.63,0.23 -5.18,-0.7 -7.83,-0.55 -1.43,0.08 -1.47,0.91 -1.25,1.89 1.19,5.21 0.17,9.69 -3.57,13.62 3.88,-1 8.09,0.1 11.65,-2.86 2.25,-1.88 3.16,-3.06 2.74,-6.11 -0.23,-1.73 -0.63,-3.43 -0.88,-5.16 z"
     id="path5098"
     inkscape:connector-curvature="0"
     style="fill:#f9c2cf" />
  <path
     class="cls-3"
     d="m 326.51988,43.921283 c -0.8,-0.06 -2,-0.19 -1.95,1 0,2 -1.79,2.49 -2.42,3.93 -0.32,0.75 -1.18,0.58 -1.73,0.11 -0.75,-0.64 0.13,-0.92 0.37,-1.31 a 22.72,22.72 0 0 1 1.33,-1.91 c 1.24,-1.59 0.46,-1.87 -1,-1.86 -3.25,0 -6.5,0.08 -9.74,0 -1.46,0 -2.05,0.38 -1.89,2 a 10.57,10.57 0 0 1 -1.77,7.37 c 14.55,-3.31 28.86,-6 42.82,-10.43 a 110.76,110.76 0 0 1 -12.19,0.79 c -3.95,-0.08 -7.88,0.6 -11.83,0.31 z"
     id="path5100"
     inkscape:connector-curvature="0"
     style="fill:#f9c2cf" />
  <path
     class="cls-3"
     d="m 307.76988,46.111283 c -0.23,-1.41 -0.68,-2.16 -2,-2.18 -2.93,0 -5.87,0 -8.81,0 -1.24,0 -1.57,0.49 -1.35,2 0.51,3.37 2.1,6.85 -0.88,10.38 a 98.18,98.18 0 0 1 10,-2.12 0.75,0.75 0 0 0 0.54,-0.3 c 1.23,-2.49 3.01,-4.65 2.5,-7.78 z"
     id="path5102"
     inkscape:connector-curvature="0"
     style="fill:#f9c2cf" />
  <path
     d="m 366.80988,38.531283 c -0.38,0 -0.76,0 -1.13,0 -4.66,-0.27 -9.19,0.82 -13.78,1.39 -5.43,0.67 -10.93,0.78 -16.4,1 -4.74,0.23 -9.48,0.45 -14.22,0.48 -9.82,0.07 -19.65,0.12 -29.46,0 a 31.43,31.43 0 0 1 -9,-1.26 c -8.12,-2.6 -16.69,-3 -24.64,-6.46 -5.2,-2.24 -10.91,-2.39 -16.32,-3.9 a 105.49,105.49 0 0 0 -14.39,-2.93 c -4.4,-0.59 -8.72,-1.69 -13.15,-2.1 a 99.75,99.75 0 0 1 -11.48,-1.62 c -4.85,-1 -9.76,-0.92 -14.62,-1.55 a 126.73,126.73 0 0 0 -12.86,-0.71 c -7.32,-0.19 -14.67,-1.18 -21.95,-0.73 -4.37,0.27 -8.66,-0.74 -13,-0.08 a 22.78,22.78 0 0 1 -8.06,-0.25 c -5.29,-1.13 -10.56,-0.09 -15.83,-0.18 -5.27,-0.09 -10.81,1.22 -16.32,1.22 -4.089999,0 -8.179999,0.43 -12.279999,0.52 -1.15,0 -1.89,1.9 -3.26,0.67 1.62,-3.34 4.26,-6.05 5.18,-9.87 0.8,-3.31 1.2,-6.52 -0.94,-9.34 a 7.2,7.2 0 0 0 -12.66,2.44 59.14,59.14 0 0 0 -2.46,12.11 3,3 0 0 1 -2.86,3 c -1.75,0.32 -2.11,-0.9 -1.61,-3.74 0.54,-3.12 1.43,-6.27 0.35,-9.48 -1.08,-3.21 -6.29,-5.11 -7.85,-2.86 -1.76,2.53 -2.88,5.36 -1.75,8.72 a 62.63,62.63 0 0 0 2.83,7 c 0.51,1.07 0.6,1.48 -0.69,2 a 56.69,56.69 0 0 1 -10.36,3.17 c -6.07,1.28 -12.14,2.58 -18.19,4 -4.92,1.16 -9.87,2.18 -14.78,3.37 -4,1 -8.08,1.12 -12.0000004,2.4 a 4.61,4.61 0 0 1 -3.89,-0.51 c -1.28,-0.78 -4,4.78 -2.58000002,5.21 1.21000002,0.35 2.21000002,1.17 3.50000002,1.35 3.22,0.44 5.81,1.88 6.8600004,5.59 a 6.35,6.35 0 0 0 1.74,2.73 c 1,0.91 2.18,1.58 3.31,0.09 l 1.59,-2.05 a 20.79,20.79 0 0 0 1.4,2 c 1.58,1.76 2.94,2 4.39,0.23 1.78,-2.14 3.85,-2 6.1,-1.58 1.67,0.32 3.31,0.75 5,1.17 5.25,1.32 10.45,3 15.87,3.47 0.65,0.05 1.28,0.19 1.36,1 0.08,0.81 -0.56,0.8 -1,1.11 -4.24,2.92 -8.83,5.15 -13.2,7.82 -3.41,2.08 -3.42,2.06 -6.35,-0.58 -2.22,-2 -2.77,-1.91 -3.79,1.14 -0.37,1.11 -0.92,1.52 -1.79,1.29 -1.56,-0.42 -2.11,0.55 -2.92,1.71 -1.43,2 -1.85,5.1 -4.74,5.79 a 15.46,15.46 0 0 0 -2.69,1 c -0.75,0.34 -2,0.43 -1.45,1.82 0.43,1.11 9.64,0.65 13.23,0.63 2,0 8.59,-0.22 9.83,-0.09 3.32,0.36 17.77,2.71 21.22,4.46 6.26,3.18 13.14,4.85 18.69,9.93 2.75,2.52 5.57,4.63 7.59,8 a 102.17,102.17 0 0 1 8.82,20.209997 57.28,57.28 0 0 1 2.3,10.68 c 0.43,3.28 0.05,6.5 0.22,9.74 a 12.21,12.21 0 0 1 -1.1,5.54 c -1.58,3.52 -4.29,5.52 -7.29,7.3 -0.86,0.51 -1.95,1.15 -1.07,2.56 0.76,1.22 1.76,1.67 3,0.71 0.45,-0.36 0.9,-0.74 1.39,-0.3 0.49,0.44 -0.06,0.92 -0.25,1.24 -0.78,1.29 -0.25,2.28 0.52,3.24 0.77,0.96 1.59,0.08 2.36,-0.14 0.77,-0.22 1.4,-1.11 2.08,0.15 1.17,2.2 2.18,1 3.41,-0.11 1.23,-1.11 1.29,-3.13 2.999999,-4 -0.53,2.17 1,2.33 2.15,2.77 0.65,0.26 1.65,0.39 1.34,1.2 -1,2.46 0.14,2.9 2,2.78 0.62,0 1,0.4 1.33,0.8 a 1.58,1.58 0 0 0 2.4,0.26 c 0.93,-0.69 1.69,-1.23 2.47,0.45 0.51,1.1 1.71,0.33 1.95,-0.46 0.74,-2.53 2.45,-4.35 3.8,-6.42 3,-4.65 4.09,-10.22 6,-15.36 1.65,-4.4 2.59,-9.11 4,-13.61 1.6,-5 3.47,-9.82 4.18,-15.06 0.18,-1.37 0.87,-1.54 1.88,-1.43 5.7,0.61 11.33,1.69 17.07,2 3.16,0.19 14.23,1.11 16.58,0.53 5.22,-1.28 8.32,-0.26 10.4,3.68 0.69,1.31 1.11,2.78 1.73,4.13 a 40.88,40.88 0 0 1 4.07,20.41 c -0.21,2.81 -2.34,6.9 -5.39,6.82 -1,0 -1.25,0.75 -1.31,1.31 -0.1,0.88 3.61,1.67 4.64,0.28 0.45,4.07 0.45,4.07 3.44,2.58 0.56,-0.28 1,-0.51 1.35,0.5 0.45,1.42 2.33,1.8 2.93,0.48 0.6,-1.32 1.64,-1.69 2.51,-2.44 3.13,-2.72 4.1,-6.81 5.29,-10.53 2.86,-9 4.71,-18.39 9.12,-26.78 0.25,-0.47 0.12,-1.08 0.89,-1.09 0.77,-0.01 0.89,0.28 1.16,0.86 0.66,1.43 1.48,2.77 2.12,4.2 3.39,7.75 5.86,15.89 8.42,24 a 18.61,18.61 0 0 1 0.64,6.46 c 0,1.08 -4.67,2.7 -6.43,2.24 -1.05,-0.28 -1.34,1.35 -1.17,1.51 4.12,1.75 3,2.88 2.25,5.46 2.11,-0.4 4.86,0 4.11,2.68 a 1.72,1.72 0 0 0 2.07,-0.56 c 0.2,-0.25 10.1,-4.65 10.66,-7.56 a 29.76,29.76 0 0 1 1.07,-3.37 c 1,-3.24 2.75,-6.19 3.34,-9.59 0.74,-4.23 1.36,-8.48 2.26,-12.67 1.33,-6.23 1.88,-12.61 3.14,-18.84 a 130.91,130.91 0 0 0 2.2,-19.279997 75.68,75.68 0 0 0 -0.34,-9.45 c -0.37,-4.95 -1.41,-9.78 -1.71,-15 2.05,0 11.37,0 13.93,0.11 6.17,0.28 12.2,-1.84 18.39,-1.69 3.55,0.09 10.41,-1 13.31,-1.38 0.66,-0.09 1.29,-0.32 1.95,-0.47 6.5,-1.47 13.07,-2.66 19.48,-4.49 a 143.58,143.58 0 0 1 14.06,-3.18 c 7.29,-1.3 14.3,-3.8 21.62,-4.9 3.83,-0.57 7.41,-2.71 11.28,-3.26 3.87,-0.55 7.18,-2.8 11,-3.55 0.49,-0.1 1.56,0 1.28,-1.2 -0.25,-0.81 -0.92,-0.89 -1.64,-0.86 z m -352.849999,7.8 c -0.93,-0.16 -1.09,-1.13 -1.29,-1.81 -0.2,-0.68 0.66,-0.74 0.9,-0.52 0.61,0.55 1.7,0.12 2,1.17 -0.43,0.61 -0.78,1.3 -1.61,1.15 z m 15.24,18.37 c 0.17,-0.08 1,0.75 1,1.1 -0.09,1.2 -1.1,1.53 -2.45,2.07 0.63,-1.36 0.3,-2.66 1.45,-3.17 z m 70.66,63.419997 c -0.58,1.22 -1,0.86 -1.58,0.14 a 5.69,5.69 0 0 1 -1,-2.88 69.37,69.37 0 0 0 -4.51,-15.33 69,69 0 0 0 -4.3,-9.58 4.47,4.47 0 0 1 -1,-3.459997 c 5.37,3.949997 10.84,7.369997 14.129999,13.429997 a 46.35,46.35 0 0 1 5.93,19 c -1.4,-1.48 -2.54,-1.68 -3.94,-0.24 -0.81,0.83 -1.37,-0.12 -1.58,-0.88 -0.56,-2.02 -1.4,-1.86 -2.189999,-0.19 z m 8.209999,22.28 c -0.26,1.63 -1,3.09 -3.12,2.67 -0.9,-0.18 -1.94,0.41 -3.32,0.76 l 7,-10.42 c 0.39,2.59 -0.25,4.8 -0.6,6.99 z m 95.53,-34.38 a 34.31,34.31 0 0 0 -2.59,7.08 c -0.28,1.46 -0.8,2.6 -2.48,2.77 -0.63,0.07 -1.14,1 -1.8,1.32 -0.66,0.32 -1.49,1.83 -2,-0.3 -0.15,-0.57 -1.41,-1 -2.22,0 -1,1.22 -1.67,1 -2.21,-0.58 -0.45,-1.32 -1.51,-2.07 -2.46,-0.58 -0.79,1.23 -1,0.51 -1.54,-0.1 -2.35,-2.52 -2.85,-6.1 -4.5,-9 -0.34,-0.6 -0.46,-1.35 -0.83,-1.93 -0.37,-0.58 -1,-1.19 -0.68,-1.86 0.41,-0.9 1.35,-0.37 2,-0.51 a 179,179 0 0 0 18.93,-0.18 c 0.07,0 0.13,-0.13 0.19,-0.13 3.67,-0.03 3.79,0.24 2.15,4 z m 38.42,-55.519997 c -1.11,-0.1 -2.24,-0.36 -2.75,1.16 -0.45,1.36 1.37,9.26 1.76,11.89 a 72.44,72.44 0 0 1 1,13 108.19,108.19 0 0 1 -2.44,20.459997 109.38,109.38 0 0 0 -1.67,11.84 c -0.29,2.64 -1.14,5.11 -1.6,7.69 a 1.17,1.17 0 0 1 -1.75,0.94 c -1.73,-0.74 -2.85,-0.63 -3.14,1.7 a 1.83,1.83 0 0 1 -1.06,1.17 c -0.73,0.27 -0.71,-0.67 -0.95,-1.07 -1.44,-2.45 -2.23,-2.47 -4,0.15 -0.84,-0.87 -1.4,-2.94 -3,-1.54 -0.93,0.82 -0.62,2.68 -2,3.33 a 60.23,60.23 0 0 1 -6.57,-15.14 c -0.58,-1.87 -2,-3.32 -2.08,-5.5 a 1.69,1.69 0 0 0 -2.59,-1.32 1.54,1.54 0 0 1 -1.1,0.15 c -6.14,-1.49 -12.16,0.87 -18.3,0.61 -5.39,-0.23 -10.82,0 -16.24,0.22 -4.55,0.22 -9.17,0.61 -13.82,-0.12 -2.22,-0.35 -4.69,0 -7.05,-0.2 a 157,157 0 0 1 -19,-2.69 c -1.6,-0.34 -1.88,0.4 -2.41,1.57 -1.11,2.42 -0.76,5.15 -1.61,7.65 -1.74,5.15 -3.18,10.41 -4.81,15.6 -0.2,0.63 -0.39,2 -1.59,0.79 -0.59,-0.62 -1.2,0 -1.5,0.39 -1.8,2.2 -2.21,0.5 -2.7,-1 -0.11,-0.36 -0.05,-1.17 -0.27,-1 -2.57,1.43 -3.43,-2.14 -5.43,-2.1 -1,0 -1.3,-0.71 -1.51,-1.43 -0.4,-1.36 -0.63,-2.78 -1,-4.16 -0.16,-0.61 -0.3,-1.54 -0.69,-1.71 -3.61,-1.63 -3.33,-5.79 -4.57,-8.73 A 32.25,32.25 0 0 0 95.379881,99.761283 c -3.79,-2.92 -7.86,-5.67 -11.17,-9 -4.57,-4.63 -10.21,-6.12 -15.55,-8.6 -3.24,-1.5 -6.26,-3.45 -9.58,-4.83 a 71.38,71.38 0 0 0 -15.33,-4 c -5.4,-0.94 -10.82,-0.24 -16.23,-0.5 -0.5,0 -1.31,0.41 -1.41,-0.67 a 1.1,1.1 0 0 1 0.87,-1.23 c 3.6,-1 6.64,-3.37 9.86,-5.2 5.51,-3.15 10.81,-6.74 16.53,-9.44 a 4.93,4.93 0 0 0 2.54,-2.84 c 0.79,-1.95 0.1,-3 -1.86,-3.11 a 62.59,62.59 0 0 1 -12.32,-2 c -7.85,-2.11 -15.8,-3.84 -23.67,-5.9 -3.36,-0.88 -6.62,-2.17 -9.9200004,-3.28 -0.46,-0.15 -1.15,0 -1.09,-0.86 0.06,-0.86 0.5,-1.24 1.19,-1.15 2.5400004,0.33 12.6700004,-2 15.3000004,-2.84 4.44,-1.4 21.8,-4.94 24.54,-5.26 4.72,-0.55 8.89,-2.85 13.4,-4 3,-0.76 5.93,-2.13 9.16,-1.67 1,0.14 9.81,0.15 11.9,2 a 1.83,1.83 0 0 0 2.08,0.21 46.59,46.59 0 0 1 13.83,-2.12 c 10.899999,-0.22 21.759999,-1.58 32.679999,-1.07 4.24,0.2 8.48,0.18 12.72,0.29 1.06,0 2.32,-0.08 1.51,1.87 -0.24,0.58 0,1.57 0.82,1.19 1.48,-0.64 3,-0.07 4.42,-0.51 0.67,-0.21 2.38,0.22 1.84,-1.86 -0.2,-0.77 0.78,-1 1.36,-0.94 4.61,0.77 9.28,0.23 13.91,0.74 a 79.66,79.66 0 0 0 8.61,0.31 c 3,0 6.14,0 8.92,2 a 6.88,6.88 0 0 0 4.2,1.32 c 0.79,0 1.76,0.27 1.68,-1.21 0,-0.7 0.47,-0.73 0.93,-0.74 a 43,43 0 0 1 9.86,0.63 c 1.39,0.3 1.91,2 3.55,2 1.32,0 2.55,0.62 3.81,-0.43 a 3.17,3.17 0 0 1 2.93,-0.21 c 6.18,1.64 12.56,2.05 18.75,3.53 0,1.62 -1.25,3.29 0.6,4.58 0.7,0.48 1.22,1 1.95,0.2 1,-1 2.4,-1.91 1.14,-3.86 1.79,-0.14 3.33,-0.36 4.38,1.34 a 0.93,0.93 0 0 0 1,0.49 c 3.43,-0.68 6.67,0.73 10,1 1.67,0.16 3.16,1.34 4.89,1.45 0.46,0 0.59,0.32 0.68,0.78 0.68,3.5 1.59,6.94 1.07,10.62 -0.54,3.84 -3,6.41 -4.75,9.52 -2.41,4.41 -6.06,4.35 -9.93,4 z m 15.08,0.37 c -0.68,0.44 -1.77,0.15 -2.75,0.21 -0.84,-0.44 -2.3,0.73 -2.7,-0.65 -0.34,-1.18 0.81,-2.11 1.6,-3 a 19.7,19.7 0 0 0 5.55,-14.38 11.5,11.5 0 0 1 0.33,-3.57 c 0.31,-1.1 0.36,-2.28 1.69,-1.89 1.09,0.32 2.61,0.42 2.5,2.39 -0.26,4.49 -0.14,9 -1,13.44 a 11.54,11.54 0 0 1 -5.25,7.43 z m 7,-0.62 a 3.58,3.58 0 0 1 -2.18,0.21 c 0.45,-3.51 2.24,-6.53 2.37,-10.11 0.13,-3.2 0.58,-6.38 1,-9.56 0.19,-1.54 1.07,-2.29 2.47,-1.57 0.91,0.47 1.89,0.2 2.82,0.66 0.61,0.3 1.14,0.65 1.21,1.19 0.65,4.92 1.76,10 -2.1,14.08 a 10,10 0 0 0 -2.82,4.36 c -0.38,1.09 -1.91,0.34 -2.83,0.74 z m 10.1,-1.15 c -1.6,0 -3.17,0.91 -4.86,0.23 0.21,-1.94 1.43,-3.35 2.5,-4.66 a 9.65,9.65 0 0 0 2.08,-8.5 c 0,-0.24 -0.11,-0.47 -0.13,-0.71 -0.51,-4.36 -0.08,-4.77 3.82,-3.66 0.43,0.12 0.9,0 1.33,0.16 1.79,0.52 3.47,0.66 3.15,3.81 -0.3,2.91 0.5,5.92 -1.13,8.66 -1.63,2.74 -3.58,4.7 -6.82,4.68 z m 17.67,-3.09 c -3.55,3 -7.77,1.82 -11.65,2.86 3.74,-3.93 4.76,-8.41 3.57,-13.62 -0.22,-1 -0.18,-1.81 1.25,-1.89 2.64,-0.15 5.2,0.78 7.83,0.55 0.52,0 0.77,0.22 0.86,0.83 0.25,1.73 0.65,3.43 0.89,5.16 0.35,3.06 -0.55,4.24 -2.81,6.12 z m 13,-1.87 a 98.18,98.18 0 0 0 -10,2.12 c 3,-3.52 1.39,-7 0.88,-10.38 -0.22,-1.49 0.11,-2 1.35,-2 2.94,0 5.87,0 8.81,0 1.27,0 1.72,0.77 2,2.18 0.51,3.13 -1.28,5.29 -2.42,7.74 a 0.75,0.75 0 0 1 -0.67,0.35 z m 2.93,-0.89 a 10.57,10.57 0 0 0 1.77,-7.37 c -0.17,-1.64 0.43,-2.07 1.89,-2 3.25,0.11 6.5,0.05 9.74,0 1.43,0 2.21,0.27 1,1.86 a 22.72,22.72 0 0 0 -1.33,1.91 c -0.24,0.39 -1.12,0.67 -0.37,1.31 0.55,0.47 1.41,0.64 1.73,-0.11 0.63,-1.44 2.43,-1.94 2.42,-3.93 0,-1.21 1.14,-1.08 1.95,-1 4,0.29 7.88,-0.39 11.85,-0.3 a 110.76,110.76 0 0 0 12.19,-0.79 c -14.03,4.39 -28.34,7.12 -42.89,10.43 z"
     id="path5104"
     inkscape:connector-curvature="0" />
  <path
     d="m 29.849881,11.281283 c -0.67,0 -0.8,1 -1,1.65 -0.44,1.76 -1,3.5 -1.41,5.26 -0.41,1.76 -0.88,3.66 -1.24,5.54 a 1.18,1.18 0 0 0 1,1.56 1,1 0 0 0 1.16,-0.92 c 0.8,-3.72 1.56,-7.45 2.31,-11.06 0.01,-0.91 0.18,-1.99 -0.82,-2.03 z"
     id="path5106"
     inkscape:connector-curvature="0" />
  <path
     d="m 30.739881,25.281283 c 0.62,0.15 1,-0.25 1.28,-0.76 q 1,-2 2,-4 c 0.87,-1.83 1.77,-3.65 2.53,-5.54 0.2,-0.5 0.35,-1.41 -0.26,-1.78 -0.61,-0.37 -0.88,0.5 -1.31,0.83 -0.94,0.73 -1.09,1.89 -1.59,2.84 -1.19,2.26 -2.19,4.62 -3.19,6.79 0.17,0.7 -0.25,1.43 0.54,1.62 z"
     id="path5108"
     inkscape:connector-curvature="0" />
  <path
     d="m 271.80988,27.331283 a 1,1 0 0 0 -1.41,0.74 40.11,40.11 0 0 1 -1.88,4 0.89,0.89 0 0 0 0.4,1.37 c 0.46,0.26 1.34,0.37 1.43,-0.09 0.32,-1.7 1.72,-2.79 2,-4.42 -0.15,-0.55 0.36,-1.39 -0.54,-1.6 z"
     id="path5110"
     inkscape:connector-curvature="0" />
  <path
     d="m 273.50988,65.851283 a 21.26,21.26 0 0 0 -2.51,-0.85 1.48,1.48 0 0 0 -1.78,1 c -0.33,1.06 0.44,1.46 1.14,1.71 a 22,22 0 0 0 2.47,0.59 c 0.85,0.07 1.55,0 1.74,-0.92 0.19,-0.92 -0.31,-1.28 -1.06,-1.53 z"
     id="path5112"
     inkscape:connector-curvature="0" />
  <path
     d="m 285.48988,28.791283 c -0.56,1.62 -1.23,3.2 -1.7,4.86 -0.1,0.35 0.36,1 0.72,1.34 0.36,0.34 0.74,-0.21 0.88,-0.54 0.69,-1.64 1.33,-3.31 1.91,-4.79 a 1.2,1.2 0 0 0 -0.72,-1.31 c -0.38,-0.15 -0.86,-0.2 -1.09,0.44 z"
     id="path5114"
     inkscape:connector-curvature="0" />
  <path
     d="m 306.29988,31.041283 c -1,1.56 -2,3.13 -3,4.73 -0.24,0.4 -0.31,1 0.25,1.21 0.39,0.13 1.11,0.11 1.26,-0.14 1,-1.63 1.9,-3.35 2.9,-5.15 a 5.12,5.12 0 0 0 -0.48,-0.71 0.56,0.56 0 0 0 -0.93,0.06 z"
     id="path5116"
     inkscape:connector-curvature="0" />
  <path
     d="m 275.51988,28.311283 c -0.46,1.23 -1.41,2.18 -1.52,3.64 0,0.56 -0.32,1 0.19,1.44 0.68,0.57 1.4,-0.12 1.53,-0.41 a 44.48,44.48 0 0 0 1.61,-4.27 c -0.2,-0.39 -0.35,-1.11 -0.73,-1.3 -0.55,-0.27 -0.88,0.34 -1.08,0.9 z"
     id="path5118"
     inkscape:connector-curvature="0" />
  <path
     d="m 310.34988,58.111283 a 1.1,1.1 0 0 0 -1.25,1.08 c -0.08,0.59 2.89,3.05 3.68,3.07 0.79,0.02 0.79,-0.51 0.82,-1.1 0.07,-1.31 -1.74,-2.99 -3.25,-3.05 z"
     id="path5120"
     inkscape:connector-curvature="0" />
  <path
     d="m 291.66988,61.521283 a 1,1 0 0 0 -0.95,1.27 4.31,4.31 0 0 0 2.84,3.1 c 0.55,0.14 1.08,0 1,-0.86 -0.02,-1.53 -1.68,-3.52 -2.89,-3.51 z"
     id="path5122"
     inkscape:connector-curvature="0" />
  <path
     d="m 323.52988,32.261283 a 8,8 0 0 0 -3.46,3.21 c -0.24,0.49 -0.47,1.49 0.5,1.57 0.55,0 3.88,-3.31 3.92,-3.74 0.07,-0.78 -0.29,-1.45 -0.96,-1.04 z"
     id="path5124"
     inkscape:connector-curvature="0" />
  <path
     d="m 313.42988,32.341283 a 13.36,13.36 0 0 0 -2.41,3.06 1,1 0 0 0 0.8,1.58 c 0.59,0.1 3.16,-3.17 3.1,-3.94 -0.26,-0.7 -0.9,-1.25 -1.49,-0.7 z"
     id="path5126"
     inkscape:connector-curvature="0" />
  <path
     d="m 301.90988,60.011283 c -0.58,0.19 -1.59,-0.28 -1.37,0.77 a 3.38,3.38 0 0 0 2.54,2.67 c 0.77,0.19 1,-0.28 1,-1.09 0.12,-1.84 -1.16,-1.93 -2.17,-2.35 z"
     id="path5128"
     inkscape:connector-curvature="0" />
  <path
     d="m 294.19988,35.051283 a 0.48,0.48 0 0 0 0.6,0.51 c 1.5,-0.25 2.3,-1.25 2.61,-3.24 0.26,-0.62 -0.62,-0.63 -1.09,-0.88 -0.34,-0.16 -2.19,3.06 -2.12,3.61 z"
     id="path5130"
     inkscape:connector-curvature="0" />
  <path
     d="m 333.53988,38.491283 c 0.43,-0.49 1.76,-0.24 1.84,-1.83 a 1.22,1.22 0 0 0 -1.36,-1.43 c -1.14,0.28 -1.41,1.7 -2,2.63 -0.23,0.31 0.59,0.7 1.52,0.63 z"
     id="path5132"
     inkscape:connector-curvature="0" />
  <path
     d="m 324.00988,54.851283 c -0.44,-0.26 -1.2,0.66 -1.22,1.16 a 2.82,2.82 0 0 0 1.48,2.49 c 0.53,0.29 1,-0.29 1.33,-0.64 a 3.89,3.89 0 0 0 -1.59,-3.01 z"
     id="path5134"
     inkscape:connector-curvature="0" />
  <path
     d="m 60.199881,29.241283 c -1.3,0 -3.17,2.63 -3.17,4.4 a 3.44,3.44 0 0 0 3.31,3.42 3.59,3.59 0 0 0 3.49,-3.29 c -0.09,-2.2 -1.98,-4.56 -3.63,-4.53 z"
     id="path5136"
     inkscape:connector-curvature="0" />
  <path
     d="m 175.41988,49.781283 c -3.17,-0.08 -6,1.43 -9,2.15 a 1,1 0 0 0 -0.52,1.42 c 0.2,0.51 0.49,0.89 1.21,0.67 2.68,-0.82 5.38,-1.55 8.07,-2.28 0.58,-0.16 0.93,-0.46 1,-0.76 0.11,-1 -0.23,-1.18 -0.76,-1.2 z"
     id="path5138"
     inkscape:connector-curvature="0" />
  <path
     d="m 159.87988,32.481283 c 0,-0.92 -0.51,-1.28 -1.3,-1.28 h -2.93 v 0 c -1.13,0 -2.26,-0.06 -3.38,0 a 1.26,1.26 0 0 0 -1.16,1.22 1.33,1.33 0 0 0 0.85,1 c 2.24,0.13 4.48,0.14 6.72,0.18 a 1.08,1.08 0 0 0 1.2,-1.12 z"
     id="path5140"
     inkscape:connector-curvature="0" />
  <path
     d="m 179.05988,30.301283 c -1.27,0.55 -2.59,0.26 -3.72,0.64 -1,-0.56 -1.71,0.11 -2.5,0.24 -0.79,0.13 -0.65,0.71 -0.67,1.26 a 0.79,0.79 0 0 0 0.88,0.87 23.88,23.88 0 0 0 6.69,-1.09 c 0.63,-0.24 1.14,-0.63 1,-1.39 -0.24,-1.09 -1.23,-0.73 -1.68,-0.53 z"
     id="path5142"
     inkscape:connector-curvature="0" />
  <path
     d="m 192.55988,38.301283 c -0.09,-0.89 -0.67,-0.73 -1.16,-0.74 -0.91,0 -1.81,0 -2.72,0 -0.91,0 -2,0.07 -2.94,0 -0.94,-0.07 -1,0.67 -1.2,1.18 -0.37,0.86 0.58,1 0.86,1.05 a 16,16 0 0 0 6.25,-0.05 1.17,1.17 0 0 0 0.91,-1.44 z"
     id="path5144"
     inkscape:connector-curvature="0" />
  <path
     d="m 138.31988,54.671283 h -4.37 c -0.78,0.06 -1.95,-0.29 -2,0.9 -0.05,1 0.88,1.45 1.9,1.58 a 13.47,13.47 0 0 0 4.74,-0.5 c 0.62,-0.14 0.91,-0.3 0.93,-1 0.02,-1.03 -0.59,-0.98 -1.2,-0.98 z"
     id="path5146"
     inkscape:connector-curvature="0" />
  <path
     d="m 222.55988,43.851283 a 21.24,21.24 0 0 1 -3.9,1.54 c -0.59,0.22 -1.74,-0.46 -1.56,1 0.13,1.06 1,1 1.84,1.19 1.58,-0.58 3.19,-1.08 4.71,-1.8 0.45,-0.21 1.4,-0.82 0.86,-1.61 a 1.34,1.34 0 0 0 -1.95,-0.32 z"
     id="path5148"
     inkscape:connector-curvature="0" />
  <path
     d="m 202.76988,47.851283 c -0.58,0 -1.09,0.33 -1.05,1 a 1.71,1.71 0 0 0 1.13,1.37 c 1.3,0.59 5.54,-1.08 6.48,-2.64 -2.34,-0.73 -4.43,0.18 -6.56,0.27 z"
     id="path5150"
     inkscape:connector-curvature="0" />
  <path
     d="m 176.84988,39.011283 c -1.54,0.22 -3.08,0.36 -4.59,0.69 a 1.22,1.22 0 0 0 -1,1.55 c 0.13,0.61 0.38,1.19 1,1.08 a 38.34,38.34 0 0 0 4.88,-1.16 1.47,1.47 0 0 0 0.93,-1.51 c -0.12,-0.89 -0.79,-0.53 -1.22,-0.65 z"
     id="path5152"
     inkscape:connector-curvature="0" />
  <path
     d="m 153.63988,46.941283 c -1.77,0 -3.53,0.26 -5.3,0.4 -0.63,0 -0.62,0.53 -0.66,1 -0.06,0.81 0.39,0.93 1,0.92 h 2.47 a 19.68,19.68 0 0 0 2.24,0 c 0.57,-0.06 1.4,0.44 1.56,-0.76 a 1.28,1.28 0 0 0 -1.31,-1.56 z"
     id="path5154"
     inkscape:connector-curvature="0" />
  <path
     d="m 169.45988,28.531283 c -0.09,-0.18 -0.16,-0.6 -0.36,-0.68 a 19.18,19.18 0 0 0 -5.25,-1.52 c -0.8,-0.09 -1.15,0.5 -1.22,1.37 -0.07,0.87 0.45,0.92 1.05,1.14 1.45,0.55 3,0.13 4.46,0.82 0.61,0.29 1.06,-0.27 1.32,-1.13 z"
     id="path5156"
     inkscape:connector-curvature="0" />
  <path
     d="m 98.529881,24.851283 c -0.71,0 -1.24,0 -1.76,0 -0.93,0 -1.63,0.19 -1.68,1.41 -0.05,1.41 0.91,1 1.57,1 0.66,0 1.05,0 1.58,0 1.16,0.1 2.889999,0.59 3.069999,-0.89 0.29,-2.44 -1.879999,-1.14 -2.779999,-1.52 z"
     id="path5158"
     inkscape:connector-curvature="0" />
  <path
     d="m 109.55988,30.921283 a 1.06,1.06 0 0 0 -0.93,-1.15 c -0.89,-0.07 -1.79,0 -2.69,0 v 0.08 a 11.93,11.93 0 0 0 -2.89,0.07 1.3,1.3 0 0 0 -1,1.58 1,1 0 0 0 1.28,0.68 17.55,17.55 0 0 1 5.16,-0.45 c 0.45,-0.07 1.1,0.12 1.07,-0.81 z"
     id="path5160"
     inkscape:connector-curvature="0" />
  <path
     d="m 160.05988,40.981283 h -2.43 a 1.15,1.15 0 0 0 -1.3,1 c -0.17,1 0.7,0.74 1.13,1.06 a 3.45,3.45 0 0 0 2.39,0.34 c 1.18,0 3.08,0.47 3.09,-1.24 0.01,-2.05 -2.01,-0.76 -2.88,-1.16 z"
     id="path5162"
     inkscape:connector-curvature="0" />
  <path
     d="m 245.89988,34.311283 c -1,-0.43 -1.29,0.71 -1.63,1.3 a 1.92,1.92 0 0 0 2.44,2.11 c 1,-0.16 2.83,0.85 2.87,-0.94 0.05,-2.38 -2.38,-1.85 -3.68,-2.47 z"
     id="path5164"
     inkscape:connector-curvature="0" />
  <path
     d="m 146.27988,39.771283 c -1.61,-0.76 -3.39,0.1 -5.08,-0.5 -0.52,-0.19 -0.79,0.57 -0.77,1.21 0.02,0.64 0.06,0.95 0.69,1 1.26,0.06 2.55,-0.21 3.69,0.61 0.56,-0.21 1,-0.4 1.53,-0.56 0.53,-0.16 1.33,0.27 1.31,-0.82 -0.02,-1.09 -0.92,-0.72 -1.37,-0.94 z"
     id="path5166"
     inkscape:connector-curvature="0" />
  <path
     d="m 196.98988,42.941283 c -1.31,-0.4 -2.44,0.64 -3.72,0.49 -0.82,-0.1 -1.29,0.2 -1.16,1.2 0.13,1 0.69,1.37 1.57,1.15 1.13,-0.28 2.25,-0.61 3.39,-0.89 0.92,-0.23 2.24,-0.37 2.08,-1.55 -0.12,-0.93 -1.43,-0.15 -2.16,-0.4 z"
     id="path5168"
     inkscape:connector-curvature="0" />
  <path
     d="m 111.66988,54.671283 a 7.81,7.81 0 0 1 -3,-0.42 c -0.84,-0.35 -1.47,0.07 -1.23,1.5 0,0.08 -0.2,0.7 0.25,0.75 1.51,0.19 3,1.21 4.51,0.48 0.56,-0.27 1.66,-0.43 1.41,-1.53 -0.25,-1.1 -1.22,-0.77 -1.94,-0.78 z"
     id="path5170"
     inkscape:connector-curvature="0" />
  <path
     d="m 111.48988,45.851283 c 0.54,-0.05 0.8,-0.26 0.81,-0.87 0.01,-0.61 -0.09,-1.08 -0.83,-1.1 a 11.28,11.28 0 0 0 -3.63,0 c -0.78,0.22 -1.87,0 -1.81,1.2 0.06,1.2 1.15,1.2 1.93,1.3 1.24,-0.19 2.38,-0.39 3.53,-0.53 z"
     id="path5172"
     inkscape:connector-curvature="0" />
  <path
     d="m 125.19988,42.981283 c -1.61,1 -3,-0.13 -4.48,-0.52 -0.37,1.23 -0.49,2.44 0.89,2.74 1.53,0.34 3.19,0.89 4.58,-0.43 0.24,-0.23 0.23,-0.94 0.13,-1.38 a 0.73,0.73 0 0 0 -1.12,-0.41 z"
     id="path5174"
     inkscape:connector-curvature="0" />
  <path
     d="m 90.199881,51.011283 c 0.38,-0.85 -0.3,-0.8 -0.55,-0.94 a 4.07,4.07 0 0 1 -1.76,-2.3 c -0.26,-0.71 0,-1.89 -1,-1.79 -1,0.1 -0.8,1.32 -0.87,2.17 -0.14,2.29 1.58,2.81 3,3.54 0.43,0.24 0.88,0 1.18,-0.68 z"
     id="path5176"
     inkscape:connector-curvature="0" />
  <path
     d="m 215.28988,35.581283 c -1.31,0.38 -2.68,0.71 -4,1.18 a 1.07,1.07 0 0 0 -0.53,1.43 c 0.16,0.47 0.5,0.89 1,0.75 1.35,-0.37 2.67,-0.81 4,-1.22 0.71,-0.22 0.87,-0.76 0.77,-1.48 -0.09,-0.88 -0.73,-0.56 -1.24,-0.66 z"
     id="path5178"
     inkscape:connector-curvature="0" />
  <path
     d="m 222.43988,33.501283 c 0.35,-0.37 0.67,0.14 1.35,0.11 0.57,-0.25 2.12,0.65 2.22,-1 0.1,-1.65 -1.46,-1.1 -2.34,-1.49 -0.88,-0.39 -1.28,0.11 -1.87,0.25 a 1.37,1.37 0 0 0 -1.07,1.94 c 0.4,1.03 1.02,0.92 1.71,0.19 z"
     id="path5180"
     inkscape:connector-curvature="0" />
  <path
     d="m 93.019881,39.351283 a 1.48,1.48 0 0 0 1.42,1.42 c 1.23,-0.29 2.39,-0.49 3.51,-0.86 0.79,-0.26 0.9,-1.08 0.7,-1.82 -0.28,-1 -0.79,-0.13 -1.21,-0.1 -1,0.07 -2,0.1 -3,0.11 a 1.33,1.33 0 0 0 -1.42,1.25 z"
     id="path5182"
     inkscape:connector-curvature="0" />
  <path
     d="m 134.03988,47.851283 c 0.6,0 1.21,0 1.81,0 0.6,0 0.91,0 0.94,-0.72 0.03,-0.72 0,-1.4 -0.52,-1.46 -1.43,-0.14 -2.89,-0.59 -4.31,-0.07 -0.57,0.21 -0.6,0.85 -0.6,1.45 0,0.88 0.58,0.78 1.1,0.8 0.52,0.02 1.05,0 1.58,0 z"
     id="path5184"
     inkscape:connector-curvature="0" />
  <path
     d="m 187.06988,48.851283 a 6,6 0 0 1 -2.9,1 1.08,1.08 0 0 0 -0.83,1.39 c 0.18,0.61 0.45,1 1.38,0.82 0.82,-0.82 2.49,0.14 3.41,-1.27 0.31,-0.47 1.13,-0.73 0.56,-1.58 a 1.16,1.16 0 0 0 -1.62,-0.36 z"
     id="path5186"
     inkscape:connector-curvature="0" />
  <path
     d="m 130.93988,35.681283 c -1.82,0.73 -3.61,-0.47 -5.41,0 -0.47,0.11 -0.5,0.5 -0.51,0.91 -0.01,0.41 0.08,1 0.69,1 a 6.08,6.08 0 0 1 3,0.42 l 2.12,-0.41 c 0.65,-0.12 0.49,-0.68 0.51,-1.13 0.02,-0.45 -0.14,-0.9 -0.4,-0.79 z"
     id="path5188"
     inkscape:connector-curvature="0" />
  <path
     d="m 88.339881,56.641283 c -0.12,0.45 -0.21,1.18 0.2,1.33 1.8,0.65 3.31,2.93 5.83,1.07 -1.49,-1.44 -3.26,-1.85 -4.73,-2.84 a 0.81,0.81 0 0 0 -1.3,0.44 z"
     id="path5190"
     inkscape:connector-curvature="0" />
  <path
     d="m 228.55988,36.081283 a 4.66,4.66 0 0 0 -3.11,0.33 c -0.7,0.39 -1.8,0.34 -1.53,1.56 0.27,1.22 1.27,0.32 1.72,0.52 a 5.76,5.76 0 0 0 3,-0.43 c 0.52,-0.21 1.05,-0.38 1,-1 -0.05,-0.62 -0.5,-0.9 -1.08,-0.98 z"
     id="path5192"
     inkscape:connector-curvature="0" />
  <path
     d="m 118.93988,25.401283 c 0.06,-1.71 -2.21,-0.81 -3,-1.53 -1.26,-0.08 -2.14,0.52 -2.08,1.53 0.06,1.17 1.24,1 2,0.86 1.04,-0.2 3.01,1.23 3.08,-0.86 z"
     id="path5194"
     inkscape:connector-curvature="0" />
  <path
     d="m 131.47988,27.291283 c 1.23,-0.08 2.68,0.32 3,-1.39 0.28,-1.55 -1.05,-1.15 -1.69,-1 -1.14,0.23 -2.94,-0.64 -3.18,1.41 -0.22,1.74 1.32,0.54 1.87,0.98 z"
     id="path5196"
     inkscape:connector-curvature="0" />
  <path
     d="m 91.199881,31.561283 c 0.85,-0.6 1.73,-0.29 2.59,-0.36 0.86,-0.07 1.25,-0.72 1.75,-1.51 -0.22,-0.26 -0.43,-0.74 -0.69,-0.78 a 9.79,9.79 0 0 0 -4.43,0.76 c -0.46,0.15 -0.43,0.8 -0.25,1.27 0.18,0.47 0.66,0.91 1.03,0.62 z"
     id="path5198"
     inkscape:connector-curvature="0" />
  <path
     d="m 191.50988,31.171283 a 7.27,7.27 0 0 0 1.81,0 c 0.6,0 0.93,-0.44 1.1,-1.34 -0.52,-1 -1.49,-1.05 -2.54,-1.11 -0.63,0 -1.25,-0.52 -1.61,0.54 -0.23,0.69 -0.68,1.39 -0.33,2.05 0.45,0.85 1,-0.24 1.57,-0.14 z"
     id="path5200"
     inkscape:connector-curvature="0" />
  <path
     d="m 123.35988,31.191283 c 0.42,-0.07 0.69,-0.23 0.71,-0.73 0.02,-0.5 -0.27,-0.69 -0.69,-0.72 -1.32,-0.09 -2.66,0.16 -4,-0.45 -0.52,-0.24 -1,0.27 -1.16,0.87 -0.16,0.6 0.32,0.91 0.76,1.23 a 2.93,2.93 0 0 0 1.6,0.31 c 0.9,-0.17 1.84,-0.36 2.78,-0.51 z"
     id="path5202"
     inkscape:connector-curvature="0" />
  <path
     d="m 97.669881,46.961283 c 0.07,-0.93 -0.7,-1.49 -1.63,-1.59 a 10,10 0 0 1 -1.05,-0.29 c -0.61,-0.13 -1.35,-0.63 -1.67,0.39 a 1.86,1.86 0 0 0 0.65,1.91 c 0.58,0.61 1.25,0.38 1.68,0.43 0.95,0.04 1.95,0.16 2.02,-0.85 z"
     id="path5204"
     inkscape:connector-curvature="0" />
  <path
     d="m 245.87988,45.921283 c -1,0.58 -2.88,0 -3,2.1 a 1,1 0 0 0 1.11,1.21 c 1,-1 2.86,-0.79 3.17,-2.58 0.16,-0.8 -0.81,-1 -1.28,-0.73 z"
     id="path5206"
     inkscape:connector-curvature="0" />
  <path
     d="m 98.889881,50.901283 c -0.7,0.7 -2.37,-0.17 -2.33,1.34 0.04,1.51 1.43,1.31 2.38,1.41 0.95,0.1 1.999999,0 1.999999,-1.32 0,-1.32 -1.399999,-0.9 -2.049999,-1.43 z"
     id="path5208"
     inkscape:connector-curvature="0" />
  <path
     d="m 204.72988,33.471283 c 0.2,-1.24 -0.9,-0.62 -1.46,-0.85 -1.06,0.2 -2.3,0.23 -2.5,1.76 a 1,1 0 0 0 1.33,1.18 c 1.2,-0.18 2.4,-0.66 2.63,-2.09 z"
     id="path5210"
     inkscape:connector-curvature="0" />
  <path
     d="m 137.70988,31.091283 c 0.84,0.53 1.28,-0.78 1.23,-1.22 -0.17,-1.38 -1.35,-1.46 -2.12,-1.61 -1.1,0 -1.88,0.18 -1.79,1.26 0.17,1.81 1.79,1.02 2.68,1.57 z"
     id="path5212"
     inkscape:connector-curvature="0" />
  <path
     d="m 107.81988,35.761283 c 0.21,1.72 1.77,1.66 2.82,2.23 a 0.83,0.83 0 0 0 1.12,-0.81 c -0.3,-1.68 -1.94,-1.72 -3,-2.53 -0.56,0.11 -1.02,0.49 -0.94,1.11 z"
     id="path5214"
     inkscape:connector-curvature="0" />
  <path
     d="m 121.91988,53.851283 c -0.55,-0.3 -0.94,0.5 -1,1.22 -0.13,1.84 1.55,0.64 2,1.5 0.38,-0.66 1.61,0 1.53,-1 -0.09,-1.72 -1.65,-1.27 -2.53,-1.72 z"
     id="path5216"
     inkscape:connector-curvature="0" />
  <path
     d="m 236.59988,38.661283 a 2.41,2.41 0 0 0 -1.87,2.31 c 0,0.5 0,1 0.89,0.93 0.6,-0.58 1.84,-0.72 2.15,-1.83 0.21,-0.68 -0.65,-1.52 -1.17,-1.41 z"
     id="path5218"
     inkscape:connector-curvature="0" />
  <path
     d="m 142.61988,35.101283 c 0.76,0 1.34,-0.26 1.39,-1.15 a 1.1,1.1 0 0 0 -1.27,-1.27 c -0.6,0 -1.44,-0.31 -1.41,0.8 0.03,1.11 0.36,1.6 1.29,1.62 z"
     id="path5220"
     inkscape:connector-curvature="0" />
</svg>
