<?xml version="1.0" encoding="UTF-8" standalone="no"?>
<svg
   xmlns:dc="http://purl.org/dc/elements/1.1/"
   xmlns:cc="http://creativecommons.org/ns#"
   xmlns:rdf="http://www.w3.org/1999/02/22-rdf-syntax-ns#"
   xmlns:svg="http://www.w3.org/2000/svg"
   xmlns="http://www.w3.org/2000/svg"
   xmlns:sodipodi="http://sodipodi.sourceforge.net/DTD/sodipodi-0.dtd"
   xmlns:inkscape="http://www.inkscape.org/namespaces/inkscape"
   id="_лой_1"
   data-name="—лой 1"
   viewBox="0 0 439.77 396.02"
   version="1.1"
   sodipodi:docname="5.svg"
   inkscape:version="0.92.4 5da689c313, 2019-01-14">
  <metadata
     id="metadata1651">
    <rdf:RDF>
      <cc:Work
         rdf:about="">
        <dc:format>image/svg+xml</dc:format>
        <dc:type
           rdf:resource="http://purl.org/dc/dcmitype/StillImage" />
      </cc:Work>
    </rdf:RDF>
  </metadata>
  <sodipodi:namedview
     pagecolor="#ffffff"
     bordercolor="#666666"
     borderopacity="1"
     objecttolerance="10"
     gridtolerance="10"
     guidetolerance="10"
     inkscape:pageopacity="0"
     inkscape:pageshadow="2"
     inkscape:window-width="1918"
     inkscape:window-height="1179"
     id="namedview1649"
     showgrid="false"
     inkscape:zoom="1.2486743"
     inkscape:cx="156.86156"
     inkscape:cy="132.27176"
     inkscape:window-x="0"
     inkscape:window-y="19"
     inkscape:window-maximized="0"
     inkscape:current-layer="_лой_1" />
  <defs
     id="defs1294">
    <style
       id="style1292">.cls-1{fill:#fff;}.cls-2{fill:#b4ff97;}.cls-3{fill:#ffe46c;}.cls-4{fill:#a3a3a3;}.cls-5{fill:#f9c2cf;}</style>
  </defs>
  <title
     id="title1296">Монтажная область 9</title>
  <path
     class="cls-1"
     d="M54.08,189.73c5.55-3.44,9.77-3.23,12.37-9.48,1.93-4.64,1.9-11.62,2.15-16.67.59-12,.54-23.75,9.31-33.17,8.4-9,18.84-6.7,29.32-10.18,10-3.33,17.17-13.65,27.37-18,10.54-4.47,23.08-5.92,34.67-4.68,11,1.18,20.36,7.41,32,6.68,11.08-.69,21.13-7.08,31.33-11.19a66.51,66.51,0,0,1,33.33-3.63c5.7.91,10.07,2.89,16,2.81s11-2.46,16.67-3.37c10-1.61,24.07-.89,33.33,3.53,11,5.23,10.91,16.45,19.19,23.35s21.66,4.41,30.79,10.65c8.79,6,9.56,18.85,10,28.5a158.6,158.6,0,0,1-26.52,94.68,75.3,75.3,0,0,1-35,28.15c-14.24,5.41-28.56,6.76-41.85,14.32-11,6.26-17.24,15.56-26.65,23.5-12.34,10.4-30.34,14-46,15.5-17.62,1.68-32.45-4-45.37-15.51-9.79-8.75-19.06-18.56-31.3-24-29-12.82-68.75-17.5-85.2-48.67C50.32,235.79,41.72,197.38,54.08,189.73Z"
     id="path1298" />
  <path
     class="cls-2"
     d="M105.23,220.6a54.67,54.67,0,0,1-1.76-19.81c.55-6.58,1.84-13,2.63-19.57s2.72-12.7,4-19.07c1-4.78,2.6-9.44,2.25-14.46a15.22,15.22,0,0,0-2-7.16c-1.38-2.27-2.27-4.91-5.29-5.86a13.77,13.77,0,0,0-6.22-.51,14.3,14.3,0,0,0-9.49,5.13,26.27,26.27,0,0,0-2.79,4.5c-2.58,4.71-4.8,9.56-4.65,15.11.13,4.57-.17,9.16.44,13.71a58.4,58.4,0,0,0,.94,7.28c1.34,5,2,10.12,4.11,15,3.37,7.93,5.42,16.38,9.94,23.87,1.07,1.77,1.74,3.79,2.91,5.48,4.07,5.87,8.51,11.49,13.09,17,.53.64.69,1.68,2.09,1.86-1.3-1.7-1.73-3.61-2.8-5.13C108.89,232.64,107,226.64,105.23,220.6Z"
     id="path1300"
     style="fill:#8aad00;fill-opacity:1" />
  <path
     class="cls-3"
     d="M175.79,140.89c.33,1.08,2.77,2.8,3.58,2.35a3.2,3.2,0,0,0,1.46-2.9,3.49,3.49,0,0,1,.25-1.67c.31-.59.21-1.48,1.25-1.37.88.1.77.82.89,1.46a15.06,15.06,0,0,0,.75,2.29,2.36,2.36,0,0,0,2.16,1.37c.76.05.85-1,1.09-1.73a8.75,8.75,0,0,0,.3-2.61c0-.65.23-1.12,1-1.2a1.21,1.21,0,0,1,1.41.75c.2.47.28,1,.44,1.42a2.5,2.5,0,0,0,2.75,1.64c1.46-.06,1.09-1.15,1.14-2,0-.51,0-1,0-1.53a21.06,21.06,0,0,0-2.59-10.28A9.38,9.38,0,0,0,181,122c-1.42.35-2.9.88-3.6,2.61a41.19,41.19,0,0,0-2.47,9.57A15.28,15.28,0,0,0,175.79,140.89Z"
     id="path1302" />
  <path
     class="cls-2"
     d="M132.3,235.89a50.57,50.57,0,0,1-3.05-14.45c-.12-3.67.54-7.34.38-11a24.66,24.66,0,0,1,1.76-9.77,67.12,67.12,0,0,1,13.85-22.28,110.51,110.51,0,0,0,12.09-16.48c2.7-4.26,4.29-9,5.87-13.71a27.52,27.52,0,0,0,.7-16.78c-.75-2.61-1.58-5.37-3.55-7.14-3.38-3.05-7.81-2.75-11.7-1.29-4.58,1.71-8,5.23-11.5,8.58-2.87,2.75-5.12,6-7.73,8.89a44,44,0,0,0-7,10.74,115.53,115.53,0,0,0-6,16.2,61.24,61.24,0,0,0-2.29,10c-.41,3.42-1.1,6.82-1.4,10.25a57.79,57.79,0,0,0,0,10.66c.33,3.38,1.34,6.64,1.72,10a45,45,0,0,0,4.79,15.11,93.65,93.65,0,0,1,4.72,10,29.08,29.08,0,0,0,4.22,8.48c2,2.47,3.55,5.2,5.59,7.61s4,5.31,7.39,6.45a1.18,1.18,0,0,0-.11-1.07C137.9,248.7,134.55,242.57,132.3,235.89Z"
     id="path1304"
     style="fill:#8aad00;fill-opacity:1" />
  <path
     class="cls-2"
     d="M72.89,197.79c-3-2.55-7-2.68-9.4-.54a22,22,0,0,0-7.58,16.15,43.34,43.34,0,0,0,1.23,11.06,31.21,31.21,0,0,0,5.29,12.13A58.88,58.88,0,0,0,72.79,247a65.71,65.71,0,0,0,6.72,5.2,43.59,43.59,0,0,0,11.2,5.11,169.23,169.23,0,0,0,16.86,3.77l9.23,1.62c.74-.29,1.73.35,2-.42.4-1-.64-1.58-1.3-1.87-1.67-.73-2.71-2.14-4.08-3.18-3.24-2.46-7-4.17-10.1-6.83-1-.9-2.07-1.84-3.17-2.69-5.39-4.16-10.58-8.46-12.83-15.17-1.31-3.91-3.15-7.67-4.18-11.64-1.53-5.9-3.29-11.68-6.35-17C75.64,201.81,74.87,199.49,72.89,197.79Z"
     id="path1306"
     style="fill:#8aad00;fill-opacity:1" />
  <path
     class="cls-4"
     d="M183.6,196.76c-.52.32-1.62-.09-1.54,1,0,.68.68.37,1.05.47.67,0,1.41-.17,1.55-.79S184,196.49,183.6,196.76Z"
     id="path1308" />
  <path
     class="cls-2"
     d="M339.57,207.71c.35-.84,3.16-9.79,3.21-10.15.93-7.33,2.91-14.48,3.73-21.85.47-4.23.87-8.5,1.25-12.73a72.28,72.28,0,0,0-.5-15.84A146.27,146.27,0,0,0,343.31,129c-1.56-5.91-5.38-11-9.11-15.92a31.93,31.93,0,0,0-14.63-10.91c-3.24-1.18-8.33-.28-10.81,2-2.69,2.53-3,5.86-3.38,9.15a32.16,32.16,0,0,0,2.86,16.36A63.1,63.1,0,0,0,315,140.88a70.63,70.63,0,0,1,7.1,13.36,84.61,84.61,0,0,1,5.29,16.36c1.15,5.88,2.82,11.69,3.33,17.67.32,3.69,2,7.19,1.46,11a33.07,33.07,0,0,0-.21,7,24.68,24.68,0,0,1-.33,7.12c-1.46,7.1-2.07,14.34-3.46,21.56q2.78-5.5,5.55-11C336.34,218.74,337.37,213,339.57,207.71Z"
     id="path1310"
     style="fill:#8aad00;fill-opacity:1" />
  <path
     class="cls-4"
     d="M230.26,272c1.08-.48,2.22-.9,3.28-1.46.79-.42,1.57-.49,2,.4s-.17,1.26-.89,1.58a7,7,0,0,0-2.8,1.63,9.05,9.05,0,0,1-4,2.58,40.62,40.62,0,0,1-5.12,1.53,2.61,2.61,0,0,0-2.19,1.92,2.41,2.41,0,0,0,1-.14c2-.58,2.65-.23,2.68,1.78,0,1.42.92,1.25,1.69,1,1.2-.35,1.9-.21,1.89,1.15,0,1.56.78,1.68,2.14,1.37a17,17,0,0,1,4.77-.14c.74,0,1.08,1.15,1.9.7,2.32-1.27,4.95-.76,7.37-.95a57.19,57.19,0,0,0,9.81-2,89,89,0,0,0,8.67-3c5.79-2.14,10.25-5.92,14.3-10.15,2.23-2.33,4.4-4.73,6.64-7.08a39,39,0,0,0,7.25-10.15c2.74-5.82,3.55-12.1,4.17-18.4.21-2.11.35-4.21.5-6.32.29-4.14,1.13-8.25.27-12.41-.06-.3,0-.58-.41-.74-1.31-.53-1.64-1.1-.83-2.05.94-1.1.63-2.29.88-3.46.28-1.32-.78-2.11-.85-3.26-.25-4.17-2.24-7.9-3.27-11.87-.06-.21-.28-.53-.44-.55-1.52-.13-1.25-.23-1.85-1.55-.73-1.59,0-3.29-.81-4.78a58.86,58.86,0,0,0-5-7.76c-2.74-3.61-5.39-7.27-8.85-10.27-1.34-1.16-2.89-2.08-4.35-3.12a1,1,0,0,0,.28,1.41c.79.68,1.13,1.7.35,2.27s-1.26-.59-1.84-1c-.09-.07-.11-.23-.19-.32a6.76,6.76,0,0,0-4.85-2.7c-1.56-.09-1.81-.87-1.14-2,.38-.63.29-.83-.3-1.12a24.27,24.27,0,0,1-2.17-1.2c-.41-.26-.84-.53-1.24-.17s.13.68.27,1c.28.67.17,1.52-.46,1.41-1.95-.32-4.42-.75-5.2-2.39-1.32-2.77-3.63-2.51-5.85-2.81-.6-.08-1.46-.45-1.92.41a2.39,2.39,0,0,1-3.4.88,13,13,0,0,0-7.88-1.79c-1.62.2-4-1.42-4.55,1.69,0,.13-.46.32-.65.27-1.42-.38-3.56,1.16-4.19-1.44a.64.64,0,0,0-.8-.41c-1.16.59-2.44.21-3.64.47-3.5.76-7,1.4-10.51,2.2a28.59,28.59,0,0,0-9.1,3.25,4.65,4.65,0,0,0,.74.47c.57.22,1.63-.21,1.41,1-.18,1-.94.58-1.58.71a7.75,7.75,0,0,0-3.86,1.55c-.29.27-.57.91-1.08.49s0-.79.14-1.21.76-.73.29-1.16-.83,0-1.24.18c-2.73,1.33-5.48,2.63-8.22,4-.22.11-.49.34-.51.55-.37,2.68-3,3.39-4.61,5-.3.3-1.17.42-1.31-.22-.34-1.5-1.22-.66-1.71-.35-1.24.79-2.29,1.86-3.54,2.62a34,34,0,0,0-13.43,14.81,2.18,2.18,0,0,0,.08,2.29c1,1.61.12,2.91-1.82,2.79-.63,0-1.15-.16-1.48.41a22.72,22.72,0,0,0-2.33,5.47c.69-.82,1.13-1.07,1.72-.6s.25.74,0,1.16-.38,1.06-.6,1.58c-.59,1.46-1.51,3.23-.89,4.49.82,1.7.48,3.27.61,4.9.11,1.33-.06,2.69.07,4,.07.68.61,1.41-.5,1.59-.91.15-1-.71-1.09-1.27a6.37,6.37,0,0,1-.07-4.25c.66-1.57-.86-2.86-.8-4.45s.77-3.25.83-5.45c-1.95,3.91-2.35,7.67-3.37,11.26-.15.54,0,.75.45.71,1-.07,1,.57,1,1.23,0,1,0,2,0,3.07s-.1,2-1.55,1.18c-.67-.39-.68.37-.69.43a12.18,12.18,0,0,0-.47,3.91c.78,4.34-.17,8.76.73,13.08.57,2.77.41,5.62,1.14,8.39,1.07,4.11,2.34,8.16,3.59,12.22a2.65,2.65,0,0,0,1.93,2.16,15.14,15.14,0,0,0-.25-3.78,5.59,5.59,0,0,1,.27-3.72c.18-.44.3-.92.85-.84s.33.61.34.94a25,25,0,0,0,.36,4.91c.22,1,.43,2.49-.1,3-1.46,1.29-.06,2.14.1,3.16a.62.62,0,0,0,1,.45c2.21-1.37,4.62-2.39,6.89-3.64,4.23-2.33,8.2-5.1,12.33-7.6,3.85-2.33,7.85-4.43,11.65-6.84a100.48,100.48,0,0,0,8.9-6.4c1.09-.87,3-1.55,2.56-3.45a13.43,13.43,0,0,1,0-6.35c.08-.3.25-.84-.2-1-.21-.07-.56.33-.92.56a10.42,10.42,0,0,1,1.07-5c1.55-3.73,1.09-7.64.9-11.53-.11-2.32-1.11-4.3-1.94-6.4-1.3-3.3-4.3-4.89-6.85-6.91a10.84,10.84,0,0,0-7.66-2.55,30.39,30.39,0,0,0-12,2.95c-3.46,1.72-6.47,3.75-8.06,7.4-.32.73-.48,1.71-1.35,2.23-.39.23-.68.66-1.19.47s-.41-.78-.34-1.15a12.92,12.92,0,0,1,5.18-8,26.32,26.32,0,0,1,7.88-4.28,2,2,0,0,0,1.58-2.07c.07-1.46,1.95-2.65,4-2.43,1.15.13,3.18-.4,3,1.93,0,.82.62.7,1.1.67a11.69,11.69,0,0,1,9.16,3.09c1.9,1.77,4.36,2.88,5.86,5.15,2,3.08,3.78,6.22,3.87,10a40.08,40.08,0,0,1-.16,8,34.57,34.57,0,0,1-2.64,7.31,15.64,15.64,0,0,1,6.25-3.14,4,4,0,0,1,4.67,2.16,7.75,7.75,0,0,1-2.56,9.46,1.43,1.43,0,0,1-2.36-.62,6.2,6.2,0,0,1-.35-2.41c0-.34.16-.81-.38-.95s-.84.17-1.14.55c-.74,1-.33,1.9,0,2.87.39,1.26-.78,3.82-1.87,3.69s-1.49.48-2,1c-.25.29-.34.68-.84.6-1.36-.21-2.2.58-3.27,1.25-1.44.92-2.69,2.08-4.15,2.94-3.51,2.08-7.17,3.95-10.5,6.26-4,2.79-8.35,5.06-12.45,7.7-2.5,1.61-5.14,3-7.72,4.53-.34.2-1.28,5.59-1,5.81a11.69,11.69,0,0,0,1.18.63c1,.62,2.24.86,3.34,1.37,4.92,2.28,3.87,2.8,5-2.39.29-1.34-.15-3,1.33-4,.3-.2.21-1,.92-.57a.91.91,0,0,1,.39,1.17c-.79,2.14-.84,4.42-1.31,6.61-.24,1.13,0,1.41,1.06,1.65,3.82.82,7.59,1.83,11.42,2.6a15.36,15.36,0,0,0,4.81.28c3.77-.5,7.57-.56,11.34-1.28,5.35-1,10.66-2.13,15.92-3.49A64.72,64.72,0,0,0,230.26,272ZM154.6,237.83a29.68,29.68,0,0,1-1-7.55c0-.55.05-1,.72-1.12s.75.32.89.82c.57,2.07.44,4.2.74,6.3C156.08,237,155.44,237.34,154.6,237.83Zm38.6-3c-.61-.11-.53-.74-.35-1.39a25.55,25.55,0,0,0,1-5.12c0-.66.35-1.63,1.07-1.59.91,0,.29,1,.45,1.56a2,2,0,0,1,0,.57c.13,1.72-.59,3.3-.81,5A1.24,1.24,0,0,1,193.2,234.82Zm7.2-20.8c.62-.13.76.59.8.86a15.92,15.92,0,0,1-.38,6.52.65.65,0,0,1-.73.48c-.46-.08-.32-.49-.32-.76,0-1,0-2,0-3s0-2,0-3A.91.91,0,0,1,200.4,214Zm-2.48,18.45c.87,0,.61,1.08.64,1.75,0,.38,0,.77,0,1.45.61,1.68-.76,3.21-1.33,4.91a1.17,1.17,0,0,1-1.7.8c-.74-.41-.53-1-.18-1.63a12.58,12.58,0,0,0,1.63-5.53C197,233.46,197.06,232.45,197.92,232.48Zm-4.7-26.78c.71-.44.86.43,1.17.84,1.06,1.41,2.59,2.57,2.62,4.54,0,.64.11,1.51-.67,1.59s-.81-.77-.93-1.37a5.73,5.73,0,0,0-1.57-2.93c-.31-.31-.77-.54-.77-1S192.93,205.88,193.22,205.7Zm-.91,9.12c1.85.71,2.71,4.3,1.33,6.19C193,218.87,192.07,217,192.31,214.82Zm-19.89,21.85c.32-.12,1-.14,1.08,0a28.4,28.4,0,0,0,2.19,4c0,.75-.24,1.05-.62,1.18a.75.75,0,0,1-1-.32,11.43,11.43,0,0,1-1.91-4C172.13,237.24,172.25,236.74,172.42,236.67Zm.14-12a1.09,1.09,0,0,1,1.27.69c.58,1.86,1.95,3.56,1.21,6.24a15.93,15.93,0,0,1-2.86-6.19C172.11,225.17,172.11,224.79,172.57,224.7ZM176,254.85a7.42,7.42,0,0,1-2.86-2.36,1,1,0,0,1,.28-1.49,1,1,0,0,1,1.18.57,2.13,2.13,0,0,0,1.65,1.16,1.44,1.44,0,0,1,1.08,1.24C177.18,254.74,176.67,255.18,176,254.85Zm3.15-35c2.89,2.93,3.24,5.54.9,7.21C180.64,224.57,178.51,222.58,179.1,219.89Zm1,26.81c0-.38.32-.72.6-.52,1,.69.92,1.75.93,2.8C179.95,248.87,180,247.81,180.06,246.7Zm1.17-4.13c-1,0-.7-1-.8-1.64-.23-1.54-.56-3.06-.75-4.6-.05-.41-.34-1.09.41-1.27s.64.57.85,1c.82,1.54.6,3.29,1.09,4.58C182,241.59,182.21,242.57,181.23,242.57Zm3.21-5c-1,.08-.93-.92-.83-1.56.19-1.22-.82-2.33-.29-3.51.22-.5.33-1.41,1.21-1.23.69.14.73.85.62,1.41-.2,1.11.46,2.08.42,3.27A1.34,1.34,0,0,1,184.44,237.59Zm1.88-13.41c-.21.58-.34,1.48-1,1.43s-.59-.91-.51-1.45c.18-1.11-.55-2.08-.41-3.17,0-.29-.13-.67.28-.82a.62.62,0,0,1,.77.43c.39.92,1.22,1.7.91,2.67A3.25,3.25,0,0,1,186.32,224.18Zm.46,24.65a14.49,14.49,0,0,1,1.12-5.27.62.62,0,0,1,.72-.46c.31,0,.39.21.48.47C189.48,244.74,188.12,248.09,186.78,248.83Zm2.19-11.2c-.24.27-.53.62-1,.28s-.56-.49-.3-.94a5,5,0,0,0-.11-5c-.2-.42-.22-1.12.38-1.32s.91.38,1.08.81a9,9,0,0,1,.86,3.36C189.64,235.68,189.73,236.79,189,237.63Zm-5.28-32.55c.52-.87,1.43-.22,2,.13,2.93,1.71,3.52,3.67,2.29,7a2.34,2.34,0,0,0,.42,2.11c.83,1.33,2,2.69,1.27,4.48a1.15,1.15,0,0,1-1.24-.81,34.66,34.66,0,0,0-2.2-3.91c-.46-.91-1.34-1.65.21-2.64,1.15-.73,0-3.84-1.85-4.62C183.53,206.39,183.3,205.74,183.69,205.08Zm-2.28,5.52c.45-.21.71,0,1.08.4.88,1.08,1,2.42,1.49,3.44,0,.54.05,1-.38,1.16-.59.27-.92-.31-1-.59a10.92,10.92,0,0,0-1.63-3.16C180.6,211.37,180.87,210.85,181.41,210.6Zm-2.6-3.85c1,.06.81.92.84,1.67.14.59-.27,1.17-.84,1.05s-.74-1-.74-1.62S178.24,206.71,178.82,206.74Zm-5,3.56c.26-.79.86-.31,1.25-.19,1.54.46,2.74,1.29,3,2.66,0,.82.16,1.46-.45,1.68s-.86-.44-1.17-.78c-.63-.68-.72-1.79-2.12-1.8C173.62,211.87,173.63,210.94,173.83,210.31Zm-2.08,5.22c1,.37,1,1.86,1.79,2.79a2.16,2.16,0,0,1,.41,2.47.57.57,0,0,1-1,0,9.08,9.08,0,0,1-2.39-4.53C170.52,215.78,170.71,215.41,171.75,215.53ZM177.2,181a1,1,0,0,1,1.16.51.89.89,0,0,1-.46,1.29,5.16,5.16,0,0,0-2.56,2.41c-.15.29-.64.6-.24,1a.73.73,0,0,0,.91,0c.7-.45,1.32-.3,1.61.41s-.33,1.21-.89,1.52c-2,1.14-3.77.1-3.78-2.18C172.95,184.67,175.9,181.23,177.2,181Zm-17.35,69.19c-.73.46-1-.09-1.3-.61-1-1.77-1.18-3.75-1.75-5.21,0-1.13-.11-2,.9-2s.51.92.69,1.43c.58,1.64,1.08,3.31,1.72,4.93C160.35,249.33,160.46,249.81,159.85,250.19Zm.28-17.9c-.74,0-.83-.54-1-1.15a18.28,18.28,0,0,1-.37-4.69c0-.59,0-1.27.76-1.3s.57.83.65,1.18c.35,1.52,0,3.14.64,4.49C160.58,231.45,161.09,232.26,160.13,232.29Zm2.54-19.9c-.61.75-.11,2.6-1.71,2.22-1.37-.32-.24-1.52-.26-2.34a17.88,17.88,0,0,1,.45-3.15.54.54,0,0,1,.65-.52.49.49,0,0,1,.5.46c.14.86.29,1.72.39,2.33S162.79,212.23,162.66,212.39Zm1.55,24.8c-.65-1.08-.15-2.24-.36-3.34.21-1-.3-2.14.32-3.15.16-.26.18-.67.61-.58.22,0,.56.3.56.45,0,2.22.47,4.43.15,6.65-.05.35,0,.79-.55.84S164.42,237.53,164.22,237.19Zm2,20.2a.7.7,0,0,1-.71.55c-.58-.07-.47-.63-.37-.9.67-1.73.21-3.51.37-5.25.05-.54-.39-1.39.72-1.42,1.28,0,.73.93.83,1.51a11.36,11.36,0,0,1,0,1.6C167.44,254.74,166.6,256,166.18,257.39Zm1.65-28.62c-.13-.9.12-1.93,1-2,.61,0,1,1,1,1.85a8.49,8.49,0,0,0,.33,3.37,1.1,1.1,0,0,1-.7,1.36,1.08,1.08,0,0,1-1.15-1c0-1.1-.77-2.06-.46-3A5.6,5.6,0,0,0,167.83,228.77Zm-1.06,13.6c1,0,1,.95,1.05,1.69a13,13,0,0,0,1.08,3.76c.21.64.26,1.37-.46,1.66s-1.07-.41-1.31-.87a14.89,14.89,0,0,1-1.29-4.24C165.91,243.41,165.62,242.38,166.76,242.37ZM165,218.56c.3,1.34.56,2.69.84,4,.07.48-.23.85-.37,1.26s-.05.78-.62.79-.5-.41-.61-.77c-.49-1.61-.43-3.34-1.12-4.92-.23-.53.13-1,.73-1.15A.9.9,0,0,1,165,218.56ZM166.11,200a20.29,20.29,0,0,0-3,6.34c-.05.22-.3.4-.52.67-.72-.56-1.24-1.2-1-1.92a14.37,14.37,0,0,1,2.93-5.77.89.89,0,0,1,1.21-.23C166,199.32,166.41,199.59,166.11,200Zm-.83-6.65c-.89,0-.52-1-.63-1.63.1-2.32,1.81-4,3-5.81.33-.5.72-.11.84.24a1.75,1.75,0,0,1-.33,1.58c-.82,1.31-1.93,2.54-1.93,4.2C166.27,192.71,165.89,193.42,165.28,193.39Zm1.56,3.23c-.24-2,2.49-6.62,4-7.12.36-.12.76-.2,1,.29s.65.9.06,1.33C169.88,192.54,168.93,194.83,166.84,196.62Zm13.1-5.3c-1.56,1.11-2.81,2.54-4.83,3.09-1.54.42-2.34,1.88-2.94,3.29-.21.5-.37,1-1,.79a.92.92,0,0,1-.5-1.29c.84-1.47,1.23-3.29,3.2-4s3.51-2.12,5.16-3.36a15.83,15.83,0,0,1,1.62-.95A1.73,1.73,0,0,1,179.94,191.32Zm-.77,82.75a1.32,1.32,0,0,1-1.44-1.24c-.1-1.58,0-3.16,0-4.74a.8.8,0,0,1,.67-.8c.45-.09.66.29.86.62,1,1.54-.14,3.39.79,4.76C180.07,273.47,179.9,274,179.17,274.07Zm7.51-.72c-.16.61-.75.38-1.16.36-1.55-.08-3.87-2.45-3.91-4,0-.53,0-1.12.73-1.29s1.09.18,1.24.86c.32,1.41,1.76,1.88,2.65,2.81A1.22,1.22,0,0,1,186.68,273.35Zm33.6-51.25c.86-2.75.33-5.54.36-8.31,0-.44,0-.89,0-1.33s.15-1.09.76-1.11.81.51.81,1.07v4.3a19.91,19.91,0,0,1-.39,5.5c-.17.56-.43.93-1,.89S220.17,222.45,220.28,222.1Zm-12.37-39.91q1.8,2,3.66,3.95a1,1,0,0,1,.29,1.19c-.1.19-.33.32-.51.49a6.89,6.89,0,0,1-1.69-1c-1-1.13-2-2.26-3-3.33-.36-.36-1-1-.3-1.65S207.44,181.68,207.91,182.19Zm-1-4a1,1,0,0,1,1.25-.21,22.82,22.82,0,0,1,3,1.91c.21.16.58.55.3,1a1.15,1.15,0,0,1-1.18.51c-1.5-.24-2.28-1.5-3.37-2.31C206.75,178.95,206.78,178.38,206.93,178.16ZM209,193.72a3.24,3.24,0,0,1,2.54,2.65,1.24,1.24,0,0,1-.11.54c-.3.51-1,.82-1.27.4-.73-1.14-2.68-1-2.88-2.44C207.16,193.83,208.47,194.17,209,193.72Zm.39-2.7c-.67-.29-1.21-.62-.9-1.39.38-1,1.2-.28,1.63-.14a16.07,16.07,0,0,1,6.75,4.92,1.19,1.19,0,0,1,.22,1.51.58.58,0,0,1-.52.34,5,5,0,0,1-1.79-1.22A14.58,14.58,0,0,0,209.41,191Zm69.17,37.74c-.24.39-.39.77-.76.85-.81.1-1-.4-.81-.8.8-1.66,1.17-3.58,2.82-4.74.32-.23.79-.73,1.3-.14s0,1-.26,1.15C279.58,226,279.34,227.54,278.58,228.77Zm.72,5.07c-.8,1.67-1.44,3.47-3.21,4.48a1.8,1.8,0,0,1-.49.14c-.65-.09-.64-.37-.38-.79.88-1.44,1.72-2.9,2.61-4.33.23-.38.7-.24,1.07-.21A.47.47,0,0,1,279.31,233.84Zm1.09-13.13c-.33.66-1.06.9-1.74,1.23-.7-.06-.62-.65-.37-.93,1.52-1.71,1.82-3.92,2.63-5.92a1.38,1.38,0,0,1,1.48-.94c.67.15.64,1,.41,1.47C282.06,217.34,281.24,219,280.4,220.71Zm.9-14.9c-.75,2.32-1,4.89-3.64,6.68.35-2.82,1.64-5,2.33-7.37a.54.54,0,0,1,.81-.26C281.14,205.08,281.43,205.41,281.3,205.81Zm-2.32-5c-.2.54-.13,1.27-.89,1.2s-.77-.75-.65-1.64c.76-1.72-.17-3.5-.74-5.34-.15-.49-.46-1.15.46-1.35a1,1,0,0,1,1.24.89C278.82,196.58,279.77,198.58,279,200.77Zm-1.35,15a5.1,5.1,0,0,1-1,4.12c-.15.22-.36.57-.75.39a.67.67,0,0,1-.41-.79C275.86,218.14,275.9,216.61,277.64,215.73Zm-1.72-8.95-1.72,4.12c-.15.36-.37.72-.82.66s-.39-.51-.31-.75c.66-2.23.93-4.63,2.88-6.41C276.66,205.34,276.22,206.05,275.91,206.78Zm-2.85,9.32a4.38,4.38,0,0,1,.39.56,18.07,18.07,0,0,0-1.31,2.18c-.66,1.56-1.9,2.81-2.38,4.48-.16.55-.8,1.25-1.5.89s.07-1,.25-1.39c.74-1.73,1.62-3.39,2.4-5.1a5.13,5.13,0,0,1,1.32-1.62A.54.54,0,0,1,273.07,216.1Zm-6.72,10a2.73,2.73,0,0,1-.25,1.3,25.92,25.92,0,0,1-3.9,4.91c-.36.36-.82.58-1.2.21s.13-.65.35-.92a21.64,21.64,0,0,0,3.15-5.33,1.72,1.72,0,0,1,1.38-1.17C266.6,225.08,266.23,225.79,266.35,226.14Zm-2.85,10.74c.8-.46,1.18.32,1.79.72-.24.31-.35.56-.55.68a25.33,25.33,0,0,0-3.93,2.68c-.29.27-.56.17-.84-.07s-.08-.57.06-.8A9.51,9.51,0,0,1,263.49,236.88Zm7.33,2.8c.25-.27.52-.6,1-.28a.9.9,0,0,1,.37,1.16,2.14,2.14,0,0,1-.55,1c-2.36,1.59-4,4-6.53,5.41l-.42-.39Q267.75,243.12,270.83,239.68Zm-.5-7.25a18.85,18.85,0,0,1-2.18,2.18c-.35.36-.79.6-1.19.28s-.25-.82.13-1.14c1.68-1.44,2.49-3.47,3.77-5.18.33-.45.71-1,1.43-.79.32.07.35.32.34.75C271.92,229.75,271.22,231.15,270.32,232.43Zm.73-24.64c.17,1.66-.56,3-1,4.31-.22.61-.57,1.33-1.36,1-.63-.27-.31-.93-.15-1.49.37-1.25.7-2.52,1-3.8.16-.78,0-1.95,1.12-1.8S270.85,207.29,271.05,207.79Zm-3,9.92c-1.44.74-1.82,2.38-3.35,3.58.27-2.11.67-3.75,2.36-4.79.42-.25.9-.47,1.18,0C268.4,216.85,268.53,217.45,268,217.71Zm-2.69-6.22c-.16.74.43,2.6-1.15,2.24-1.42-.32-.26-1.89-.09-2.62.45-1.91.28-4.16,2.58-5.94C266.79,207.68,265.76,209.54,265.34,211.49Zm-1.82,6.62a.88.88,0,0,1,.4,1.23c-.49,1.14-4.71,6-5.8,6.52C259.36,222.49,260.92,220,263.52,218.11Zm-3.12-1.7c-1.17,1.64-1.25,3.91-3.31,5.11a12.6,12.6,0,0,1,1.93-5.6.74.74,0,1,1,1.38.49Zm-.81-30.88c-1,.14-.56-.75-.78-1.18-.62-1.17-1.27-2.32-1.94-3.45-.35-.59-.68-1.21.09-1.64s.91.31,1.2.78c.82,1.31,1.69,2.59,2.54,3.88C260.45,184.71,260.46,185.42,259.59,185.53Zm2,9.25c.11.83-.1,1-.52,1.23-.63.31-.75-.07-1-.46-1-1.56-1.55-3.41-3-4.73-.35-.32-.19-.84.22-1.17a.83.83,0,0,1,1.23,0A20,20,0,0,1,261.55,194.78Zm-4.14,1.83a16,16,0,0,0,1.83,3.71c.19.27.42.48.39.77a.92.92,0,0,1-.67.92.83.83,0,0,1-1-.32c-.82-1.52-2.05-2.86-2.2-4.68-.05-.61,0-1.2.69-1.41C257.35,195.3,257.24,196.14,257.41,196.61Zm.58,9.61c.38-.75.78-.83,1.29-.65.77.27.11.74,0,1-1.14,2.28-1.36,4.93-3,7-.21.27-.13.87-.64.68-.71,0-.48-.3-.35-.58C256.39,211.3,256.77,208.63,258,206.22Zm-2.47,11.65a.86.86,0,0,1,.47,1.27,34.68,34.68,0,0,1-5.13,6.92,2.8,2.8,0,0,1-1,.5c-.54.05-.84-.09-1-.39s.18-.56.4-.74c2.34-1.89,3.37-4.69,5.12-7C254.7,218,254.9,217.58,255.52,217.87Zm-.36,8.29-6.75,6.17c-.23.21-.5.54-.81.25a.71.71,0,0,1,0-1c.81-1,1.8-1.79,2.63-2.78a37.68,37.68,0,0,1,3.87-3.46,1.29,1.29,0,0,1,1.26-.18c.11,0,.19.26.29.42C255.5,225.78,255.35,226,255.16,226.16Zm.16,6.34c0,.45,0,.52,0,.58-.1.59-4,4.22-4.63,4.22a1.18,1.18,0,0,1-.73-.16c-.2-.18,0-.44.13-.65,1-1.26,2-2.56,3.13-3.77a1.46,1.46,0,0,1,1.65-.6A1.81,1.81,0,0,1,255.32,232.5Zm-6.69-14.34c.86-2.27,1-4.76,2.21-6.93.19-.34.58-.88,1.06-.64.33.16.45.72.61,1-.75,2.31-1.11,4.62-2.37,6.62a1.37,1.37,0,0,1-1.31.6C248.74,218.8,248.57,218.34,248.64,218.16Zm4.4-10.82c-.53.31-1-.16-1.32-.54s-.67-.56-.74-1.07c-.24-1.72-.55-3.43-.76-5.15,0-.41-.3-1.07.58-1.2,1,.14,1.26,1,1.32,1.79.12,1.62.13,3.21,1.14,4.65A1.1,1.1,0,0,1,253,207.34Zm-.82-12.08c-.4.3-.57-.07-.79-.25-1.75-1.49-2.22-3.61-2.79-5.65-.19-.66.4-1.1.92-1.29.18-.07.89.49.91.78a9.32,9.32,0,0,0,1.92,4.84,1.19,1.19,0,0,1,.15.49C252.56,194.74,252.51,195,252.22,195.26Zm-3.33-13.8c-2.07-.74-3.36-2.44-4.9-3.82-.31-.28-.15-.83.54-.89,1-.09,5.19,3,5.26,4C249.71,181.23,249.64,181.73,248.88,181.46Zm-1.11,16.72a.59.59,0,0,1-.75-.39c-.72-2-2.16-3.64-3.07-5.55-.13-.28-.12-.61.33-1,1.85,1.69,3.59,3.42,3.92,6.07C248.24,197.63,248.35,198.11,247.77,198.19ZM244.3,216.9c.36-1.22,1.51-2.36.09-3.72-.37-.35-.2-1.37-.07-2a32.57,32.57,0,0,0,.81-4.43,1.17,1.17,0,0,1,.81-1.16c.35-.09.66,0,.68.44.12,1.92-.34,3.91.93,5.49-.89,2.87-1.36,5.65-3.2,7.9-.2.24-.39.73-.89.42s0-.55,0-.83C243.46,218.18,244.09,217.62,244.3,216.9Zm-.74,8.3c.67.32-.2,1.38-.46,2.08s-.46,1.15-.69,1.72c-.14.35-.27.73-.81.62a1,1,0,0,1-.85-1.23,6.87,6.87,0,0,1,.75-1.69C242,225.89,242.54,224.72,243.56,225.2Zm-3.8-21.89c-.34-1-.07-1.74.74-1.94,1-.23.93.7,1.05,1.42.18,1.09.51,2.16.75,3.08-.17.39-.35.62-.35.85,0,.78-.27,1.64-1,1.6-1-.06-.61-1.1-.58-1.7A8.41,8.41,0,0,0,239.76,203.31Zm2.64-9a1.09,1.09,0,0,1-1.53-.38c-.91-1.49-1.43-3.11-3-4.32-.68-.52-.78-2.46-1.31-3.71-.33-.79.32-.61.77-.69.15,0,.47,0,.5.13.55,1.67,2.71,2.29,2.92,4.18a3.51,3.51,0,0,0,1.58,3A1.08,1.08,0,0,1,242.4,194.29ZM239.54,216a2.17,2.17,0,0,1,0,.65,6.16,6.16,0,0,1-1.59,4.74c-.35.4-.82.82-1.32.45s-.21-.9.21-1.27c1.1-1,1.15-2.31,1.13-3.64,0-.25,0-.5,0-.76,0-.86.14-2.13,1-2.13C240.19,214.07,239.28,215.36,239.54,216Zm-15.09-22.21c-.36.72-.92.62-1.64.27a16.4,16.4,0,0,1-4.3-3.51.73.73,0,0,1,0-1.18c1.74-1,.53-1.61-.16-2.41a10,10,0,0,0-2.54-1.7,1.71,1.71,0,0,1-.71-1.85c0-.37.19-.6.87-.47a9.29,9.29,0,0,1,2.47,1.62c.85,1,1.9,1.82,2.74,2.83.59.72,1.18,1.37.47,2.26-.5.63,0,.89.36,1.26a5.74,5.74,0,0,0,1.95,1.2A1.15,1.15,0,0,1,224.45,193.82Zm-.47,8.52c-.77.23-.92-.53-1.15-1a7.56,7.56,0,0,0-2-2.73c-.55-.45-.87-1-.25-1.62s1.21,0,1.51.27c1.13,1,2.54,1.86,2.5,3.84C224.61,201.46,224.64,202.15,224,202.34Zm.23-12.68c-.21-.62,0-1.15,1.22-1a6.3,6.3,0,0,1,2.62,2.71c.29.7-.49,1.28-1.18,1A4.6,4.6,0,0,1,224.22,189.67Zm1.82-5.14c-.35-.53-.51-1.17,0-1.54s.93.14,1.34.48c1.54,1.3,2.64,3,4.47,4.05.37.2.47.86.67,1.27-.26.76-.59,1.35-1.38.68A24.52,24.52,0,0,1,226,184.53Zm6.41,26.83a1.86,1.86,0,0,1,.63-1.7c.26-.2.19-.85.77-.6a.69.69,0,0,1,.44.92q-.34,3.07-.67,6.14c-.07.64-.68.9-1,1.33a.83.83,0,0,1-1.06.24c-.36-.23-.28-.64-.08-1A10.46,10.46,0,0,0,232.45,211.36ZM231,229.88c1.12-1.25,1.38-2.92,2.33-4.25a1,1,0,0,1,1.14-.53c.63.19.26.75.47,1.43-.89,1.26-1.87,2.69-2.91,4.08a1,1,0,0,1-.88.09A.54.54,0,0,1,231,229.88Zm1.54-35.65c-.4-.56-1.52-1.3-.29-2,.84-.46,1.52.17,2,.95,1,1.77,2.56,3.26,3.13,5.3a4,4,0,0,1,.24,1.13,1.93,1.93,0,0,1-.35,1.2c-.13.25,0,.71-.38.76s-.66-.57-.67-.76C236.14,198,234,196.3,232.52,194.23Zm6.16-18.87c-.33.94-1,.54-1.57.25a16.61,16.61,0,0,0-4.48-1.87.92.92,0,0,1-.74-1.1c.09-.48.67-.51,1.47-.44a27.65,27.65,0,0,1,4.75,1.53A1.22,1.22,0,0,1,238.68,175.36Zm-2.28,5.46c.6.37.47,1,.26,1.57a.46.46,0,0,1-.77.23c-1.91-1.5-4.44-1.52-6.53-2.59-.29-.14-1.11-.14-.7-.83a1.59,1.59,0,0,1,1.35-.91C231.93,179.41,234.39,179.57,236.4,180.83Zm-8.12,1.2c-.71.72-1-.23-1.41-.52-1.12-.7-2-1.82-3.39-2.09-.28-.05-.73-.33-.73-.51,0-1.74-1.22-1.8-2.52-2-.61-.11-1.76-.2-1.51-1.31.21-.92,1.11-.68,2-.72.92.16,2.21.09,2.27,1.74,0,.71.61.77,1.18,1a12.52,12.52,0,0,1,3.88,2.77C228.6,180.87,228.78,181.52,228.28,182Zm-8.65-.68a1.13,1.13,0,0,1-1.78.34c-1.7-1.2-3.53-2.27-4.42-4.33-.4-.93,0-1.08.47-1.35.79,0,.94.51,1.29.86,1,1,1.65,2.39,3.37,2.67A1.39,1.39,0,0,1,219.63,181.34Zm-2.52,50.79a5.27,5.27,0,0,0,.07-3.84c-.18-.42.18-.73.56-.87s.74.07,1,.52c.51.8.1,1.62.24,2a11.43,11.43,0,0,1,0,2.48c-.13.5-.6,1.11-1.26,1A1,1,0,0,1,217.11,232.13Zm.75-27.21a1.07,1.07,0,0,1,.64-1.25c.53-.18.87.31,1.07.65a21.22,21.22,0,0,1,1.42,2.82,1,1,0,0,1-.49,1.31,1,1,0,0,1-1.18-.36A7.12,7.12,0,0,1,217.86,204.92Zm8.19,29c-1.64,1.57-2.7,3.7-4.8,5.11-.2-.85-.34-1.24.29-1.85a10.73,10.73,0,0,0,2.64-4,1.11,1.11,0,0,1,1.49-.8C226.57,232.65,226.31,233.69,226,233.94Zm-1.93-6.14c1.69-2.4,2.11-5.42,4-8.15C228.79,222.67,226.72,226.81,224.12,227.8Zm4.54-15.58h-.5c-.77-2.31-.46-4.68-.27-7a1.27,1.27,0,0,1,1.19-1.05c.39,0,.65.38.6.79C229.35,207.37,229,209.8,228.66,212.23Zm1.06-11.41c-.76.06-.69-.71-.9-1.23a6.14,6.14,0,0,0-1.51-2.77,1.06,1.06,0,0,1-.09-1.67c.64-.57,1.22.07,1.56.5a7.89,7.89,0,0,1,1.7,3.29C230.48,200,230.59,200.75,229.73,200.82Zm7.66,45.7c-.28.18-.73.52-.82.35-.9-1.72-2.13-.2-3.17-.33-.47-.06-1-.05-1.19-.51-.77-1.64-1.95-3.13-1.9-5.07-.11-3.91,3-7.79,6.62-8.25,1.92-.24,3.67,0,5,1.52a5.23,5.23,0,0,1,.91,6.25A15.27,15.27,0,0,1,237.38,246.52Zm4.44,1c-.12.11-.36.11-.59.17s-.4-.16-.44-.28a.87.87,0,0,1,.29-1,30.82,30.82,0,0,1,7.93-4.85c.34-.13.69-.41,1,.06s0,.76-.3.95C247,244.05,244.16,245.4,241.83,247.52Zm12.53,9.06c-1.43,1.07-3.23.22-4.41,1.1-.65-.12-1.22.14-1.31-.55-.07-.53-.05-.95.71-1.07,1.5-.23,3-.63,4.46-.87.3,0,.9-.65,1.07.15A1.07,1.07,0,0,1,254.36,256.58Zm.66-11.51c-1.44,1.36-2.93,2.67-4.47,3.92-.61.5-.94-.16-.7-.54,1.18-1.83,2.34-3.72,4.48-4.7l.37-.19C255.42,243.95,255.57,244.55,255,245.07Zm.5,7.56c-.38-.41-.05-.72.17-1a8.94,8.94,0,0,1,3.79-2.38c.91-.39,1.25.58.88,1.1a7.52,7.52,0,0,1-4,2.66A1,1,0,0,1,255.52,252.63Zm13.81,2.22c-3,1.42-5.3,4-8.32,5.38-.42.2-1,.91-1.49.08s.5-.66.84-.9c2.38-1.7,4.81-3.33,7.14-5.09a17,17,0,0,1,1.73-.78c.38-.24.58,0,.64.37A.87.87,0,0,1,269.33,254.86Zm6.06-6.34c-1,.78-2,1.89-3.46,1.82-.41,0-1,.25-1.18-.33s.19-.89.68-1.2c1.57-1,3.09-2,4.64-3,.76-.49,1.14-1.53,2.7-1.49A9,9,0,0,1,275.39,248.52Zm9-5.26c-1.58,2.8-2.95,5.75-5.65,7.78-.24.18-.63.13-1-.26a29.8,29.8,0,0,0,4.78-7.1,2.41,2.41,0,0,1,1.18-.93C284,242.6,284.67,242.72,284.36,243.26Zm3.14.11a1,1,0,0,1-1.19.38c-.42-.2-.19-.67-.3-1.11.51-1.16.76-2.53,2.1-3.27a.59.59,0,0,1,.92.35A5.93,5.93,0,0,1,287.5,243.37Zm3.11-22.57c.43-.38.89-1,1.47-.63s0,.93-.26,1.43a79.44,79.44,0,0,1-3.63,7.37.92.92,0,0,0,0,.87c1.86,1.88-.71,3.09-.75,4.68a6.07,6.07,0,0,1-1.35.36c-.25,0,0-.58,0-.76a12.65,12.65,0,0,0,.71-2.31c.14-3.52,1.85-6.53,3.12-9.7A3,3,0,0,1,290.61,220.8ZM288,207.93c.29-1.53.54-3.07.92-4.58.08-.31.45-.83,1-.71.3.07.5.39.42.85-.78,2.43-.75,5.08-1.28,7.64a22.07,22.07,0,0,1-1,4.55c-.27.62-.57,1.11-1.23.86s-.23-.8-.07-1.26C287.58,212.91,287.54,210.37,288,207.93Zm-1.87-6.38c.89,2.18.64,4.2.71,6.21a3.27,3.27,0,0,1-.63,1.93.88.88,0,0,1-.64.3c-.37,0-.3-.35-.31-.58a30.17,30.17,0,0,0-.38-6.2C284.68,202.38,285.48,202.07,286.15,201.55Zm-.74,17.12c.41.12.73.39.57.79a31.93,31.93,0,0,0-2.09,4.77.39.39,0,0,1-.74.05c-.74-1.26.39-2.25.58-3.37A3.55,3.55,0,0,1,285.41,218.67Zm-2.14-27.3a10.76,10.76,0,0,1,.4,4c0,1.22,0,2.11,0,3,0,.36-.15.6-.57.6a.52.52,0,0,1-.57-.6,60.59,60.59,0,0,0-.61-7.15.54.54,0,0,1,.61-.59A.82.82,0,0,1,283.27,191.38ZM277.7,176a6.24,6.24,0,0,1,1.6,1.11,8.78,8.78,0,0,1,3,3.77c.31.72.3,1.25-.41,1.57a1.08,1.08,0,0,1-1.43-.67,10.5,10.5,0,0,0-2.88-4.35A1,1,0,0,1,277.7,176Zm-3.57,7a1,1,0,0,1,1.4.26c1.13,2.12,2.65,4.07,3,6.52a.92.92,0,0,1-.6,1.08c-.66.2-.77-.55-.81-.82-.33-2.25-2.13-3.77-2.93-5.78C274,183.79,273.53,183.35,274.12,183Zm-.91,13c.42,1.23,1.15,2.4,1,3.95a2.08,2.08,0,0,1,0,1c-.28.58-.32,1.56-1.22,1.47s-.74-.93-.69-1.54a9.83,9.83,0,0,0-.75-4.23c-.14-.39-.33-1.08.29-1.34A1.1,1.1,0,0,1,273.21,196Zm-1.65-7.27a4.89,4.89,0,0,1-2-2.42c-.29-.54.26-.74.79-.7s2.4,2,2.17,2.48C272.4,188.33,272.46,189.14,271.56,188.7Zm-4.84-15.55c.41-.34,1.09-.37,1.26-.15,1.38,1.75,2.92,3.43,3.44,5.29.09,1.15-.45,1.69-1,1.82-.73.17-.8-.53-.94-1.12a12.11,12.11,0,0,0-2.62-4.7C266.67,174.05,266.17,173.6,266.72,173.15Zm-2.08,10.23a1.26,1.26,0,0,1,1,.35c1.27,2.07,2.43,4.2,2.45,6.73-2.31-1.54-2.9-4-3.73-6.28C264.3,183.93,264.27,183.44,264.64,183.39Zm-.54,9.87a4.53,4.53,0,0,1,.69.6,25.29,25.29,0,0,1,2.31,4.61.92.92,0,0,1-.63,1.24c-.48.18-.7-.19-1-.52-1.36-1.3-1.21-3.21-2.19-4.66C262.93,194.07,263.3,193.42,264.1,193.25Zm-.67,10c.85.06.42.76.58,1.26-.38,1.06-.73,2.2-1.21,3.28-.66,1.49-.68,3.17-1.56,4.58-.25.39-.44.9-1,.7s-.3-.69-.2-1c.75-2.63,1.56-5.25,2.31-7.88C262.55,203.59,262.82,203.19,263.43,203.24Zm-1.46-28c.41.52.85,1.35.15,1.86-.55.39-1.38-.13-1.7-.56a13.77,13.77,0,0,0-4.38-4.22.5.5,0,0,1-.17-.8c.26-.34.59-.48,1.29-.41a3,3,0,0,1,1,.39A21,21,0,0,1,262,175.19ZM246.43,161.6c.34-.38.8-.12,1.18.2,2.6,2.26,5.82,3.28,9.07,4.22.55.16,1.07.32.89,1-.13.46-.57.66-1.15.28-3.26-1.34-7.07-1.76-9.87-4.33A.91.91,0,0,1,246.43,161.6Zm-1.49,4.82c.26-.36.58-1,1.21-.62,1.85,1.22,3.66,2.49,5.46,3.78.16.11.13.47.19.71-.24,1.14-1,.87-1.6.5-1.66-1-3.27-2.16-4.87-3.28C245,167.26,244.65,166.82,244.94,166.42Zm-2.16,4.46a1.14,1.14,0,0,1,1.66-.53,7.71,7.71,0,0,1,2.28,1.37,23,23,0,0,1,4.31,5.2,1.74,1.74,0,0,1,.32,1.14c-.08.3.26.88-.46,1a1.26,1.26,0,0,1-1.36-.9c-.59-2-2.18-3.16-3.56-4.52a4.36,4.36,0,0,0-2.23-1.43C242.93,172,242.52,171.6,242.78,170.87Zm3.5,14.56c.32.29.75.54.74,1.14,0,.3-.22.41-.51.6a.91.91,0,0,1-1.2-.14c-1.54-1.93-3.74-3.14-5.5-4.83-.63-.6-1.06-1.34-.4-2s1.23.1,1.73.55C242.86,182.35,244.58,183.88,246.28,185.44Zm-9.54-17.89c.83,1.07,1.66,2.11,3.12,2.29.68.08.89.3.87.93s-.51.59-1,.63c-2.87.29-4.83-1.56-4.3-4.09-1.51-.5-2.91.5-4.4.28-.76-.11-1.73.12-1.71-1,0-1,.87-.91,1.6-.92a16.5,16.5,0,0,0,4.81-.36c.2-.06.49.2.72.17a1.69,1.69,0,0,1,2,1C238.71,167.61,237.23,166.84,236.74,167.54ZM229,161.49a37.56,37.56,0,0,1,5.76-.18c.8,0,1.43-.47,2.23-.28.59.14,1.28.12,1.25.85,0,.59-.61.73-1.17.71a49.8,49.8,0,0,0-8.06.8c-.65-.14-1.51.65-1.66-.44S228.3,161.56,229,161.49Zm-13.31,0c.13-.39.23-.93.87-.8,1.18.24,2.36.48,3.53.77.56.14,1.19.47,1,1.07s-.76-.07-1.17.06a3.21,3.21,0,0,1-.76,0c-.9.29-1.84-.37-2.87-.42C216,162.15,215.56,162,215.73,161.48Zm-1.25,4.29a6.31,6.31,0,0,1,1.49-.13c1.53,0,2.88-.46,2.8,1.51,0,.56,1.12.68,1.77.74s.89-.45.88-1a1.05,1.05,0,0,1,1.35-1.2c1.39.2,2.76.52,4.15.71A1.23,1.23,0,0,1,228,168c-.22.88-.94.73-1.73.42a4.72,4.72,0,0,0-2.63-.49c-.34.07-.87-.19-1,.34s.31.63.68.8l4.33,2.09c.57.28,1.28.63.93,1.33s-1.1.5-1.73.21c-1.74-.8-3.48-1.59-5.21-2.41-.78-.37-1.46-1-2.44-.54a.63.63,0,0,1-.88-.5c-.09-3-2.38-1.33-3.7-1.65-.59-.14-1.41,1.28-1.85,0S213.55,166,214.48,165.77Zm-7.39-.15a4.89,4.89,0,0,1,3.67-1.51c.49.24,1.52-.52,1.58.71.05,1.07-.85,1.11-1.59,1.2a4.92,4.92,0,0,0-2.66.91.91.91,0,0,1-1.37-.08C206.13,166.23,206.75,165.92,207.09,165.62Zm-.77,8.06c1.23-1.12,3.07-1.63,3.58-3.47.07-.26.38-.17.64,0,1.74.92,3.75.65,5.58,1.21.55.17,1.41-.24,1.35.84s-.92.59-1.46.7a4.89,4.89,0,0,1-.86,0,12,12,0,0,1-2.21-.25,2.13,2.13,0,0,0-2.7.73c-.69.94-2.24,1.11-3.14,2.06-.29.31-.63,0-.81-.24A1.13,1.13,0,0,1,206.32,173.67Zm-3.37.38c.46,0,.94.19.95.53a1,1,0,0,1-.65,1,8,8,0,0,0-3.09,1.69.9.9,0,0,1-1.37-.17.79.79,0,0,1,.06-1.2A7.78,7.78,0,0,1,202.95,174.05Zm.73,12.58c.08.65-.19,1.11-1,1.25a2.4,2.4,0,0,1-1.7-1.58c-.22-.65.26-1.08,1-1.11A1.5,1.5,0,0,1,203.67,186.64Zm-15.81-11.49a11.35,11.35,0,0,1,2.87-2.18c2.62-1.12,5.24-2.25,7.73-3.62,1-.54,1.39-.08,1.67.5,0,.7-.3,1-.69,1.11a50.41,50.41,0,0,0-7.2,3.29,12.58,12.58,0,0,0-3,2.2c-.44.39-1,1-1.46.58A1.29,1.29,0,0,1,187.87,175.15Zm9.74,1c0,.47-.35.92-1.13,1a6.52,6.52,0,0,0-2.59,1.05c-.52.34-.92,1.08-1.47.3a1.2,1.2,0,0,1,.5-1.81,29.48,29.48,0,0,1,2.88-1.08C196.89,175.57,197.58,175.62,197.61,176.18Zm-16.68,2.58c0-1.29,1.08-1.32,1.82-1.27.88-.26,1.53-.15,1.57.5.08,1.29-1.24,1.58-2.07,2C181.59,180.3,180.93,179.37,180.92,178.76Zm1.17,7.15c-.42-.85.38-1.24,1.08-1.7,2.32-1.52,5.14-1.95,7.49-3.39a4,4,0,0,1,1.1-.29c.91-.11,1.78.26,1.91,1s-.81.93-1.49,1-.8.35-1.16.62-1,.87-1.27.77c-2.57-1-3.84,1.28-5.69,2C183.43,186.18,182.59,186.93,182.09,185.91Zm7.17,10c-.9-.35-1.13-.92-.86-1.59s1-.68,1.58-.32c1.09.65,2.28.35,3.42.31s1.36.45,1.64,1.43C193,196,191.21,196.72,189.25,196Zm6.5-9.7c-1.54,2.89-4.62,3.3-7.28,4.39a8.67,8.67,0,0,0-2.07,1.5c-.22-.16-.57-.29-.57-.45a1.36,1.36,0,0,1,.24-1,7.29,7.29,0,0,1,3.09-2c1.9-.46,3.68-.72,4.6-3,.51-1.27,2.54-1.79,4-2.34.71-.26,1,.34.67.88a3.07,3.07,0,0,1-1.54,1.38C196.49,185.76,195.93,185.93,195.76,186.25Zm1.11,6.28c-.47-.35-.92-.8-.54-1.44s1-.63,1.65-.22a4.58,4.58,0,0,0,2.84.9c.51,0,1.33.17,1.29,1.07,0,.65-.3,1.28-1,1.11C199.69,193.59,198.12,193.47,196.87,192.53Zm7.44,11.35c-.67.77-1.23,0-1.71-.41a9.48,9.48,0,0,1-2.47-3.42,1.55,1.55,0,0,1,1.09-1.35c.49-.16.7.36.93.77a6,6,0,0,0,1.92,2.21A1.33,1.33,0,0,1,204.31,203.88Zm1.78-3.53a.84.84,0,0,1-.33-1.17.85.85,0,0,1,.86-.56c.6,0,7.18,5.19,7.27,5.71a1.23,1.23,0,0,1-.39,1.38c-.46.33-.68,0-1-.24C210.23,203.92,208.46,201.78,206.09,200.35Zm8.17,24.1c-.57.13-.61-.4-.73-.84-.75-2.56-1.55-5.11-2.3-7.67-.16-.56-.17-1.33.51-1.45a1.23,1.23,0,0,1,1.23,1,51.74,51.74,0,0,1,1.73,7.83C214.74,223.76,214.77,224.33,214.25,224.45Zm.09-13.94c0-.7-.28-1.91.75-1.79s1.26,1.38,1.19,2.54c-.23.43.54,1.51-.66,1.49C214.08,212.72,214.33,211.47,214.34,210.51ZM209,264c-.61-.54-1.14-1.54-.2-2.33s1.44-.26,2,.65c1.11,1.75,4.09,1.94,5.81.51.44-.37.83-.8,1.24-1.22.62-.63,1.38-.87,2-.21a1.37,1.37,0,0,1-.29,2.15C217.65,264.41,214.31,267.28,209,264Z"
     id="path1312" />
  <path
     class="cls-1"
     d="M206.26,241.25c2.38-.28,1.46,2.48,0,3.63,10.06-3.67,23-.5,27.31,10.37,1.45,3.64,3.39,11.82.6,15.32-2.6,3.27-11.39,5-15.27,5.34-9.93.93-20.19,5.76-30.67,4.26a108.69,108.69,0,0,1-14-2.92c-2.86-.81-12-2-12.67-5.33-.59-2.76,2.43-3.82,4-5.26s2.48-3.2,4.32-4.43c3.58-2.4,7.86-4.13,11.68-6.32,7.74-4.46,14.94-9.94,23-14,.61.14.09.37.33.71Z"
     id="path1314" />
  <path
     class="cls-4"
     d="M235.67,244.32c.76-2.12,2.43-3.39,2.14-5.7C235.85,240.08,235.5,241.86,235.67,244.32Z"
     id="path1316" />
  <path
     class="cls-3"
     d="M228.14,117c-2,4.1-2.76,8.24-.44,12.56,1.23,2.29,2.43,2.55,4.12.52a14.79,14.79,0,0,0,1.5-1.73c.55-.9.69-2.69,2.07-2.33,1.22.31.41,1.91.59,2.92.27,1.55.49,3.51,2.29,3.66s2.11-1.86,2.41-3.29c.16-.74.38-1.18,1.21-1.18s1.21.55,1.19,1.37a11.87,11.87,0,0,0,.05,2.1,2.44,2.44,0,0,0,1.48,1.75c.55.23.9-.66,1.3-1.16a9.24,9.24,0,0,0,2-6,32,32,0,0,0-3.15-10.09C243.55,113.46,236.83,109.16,228.14,117Z"
     id="path1318" />
  <path
     class="cls-5"
     d="M232.56,313.19a38.64,38.64,0,0,0,9.9-3.48.9.9,0,0,0,.45-1.43,4.39,4.39,0,0,1-.59-3.1c.11-1.11-.44-1.38-1.38-1.11a16.62,16.62,0,0,1-4.4.32,15.06,15.06,0,0,1-1.57,0c-2.85-.3-4,1.05-4.48,4.2a16.68,16.68,0,0,0,.37,3.36C230.92,313.14,231.64,313.35,232.56,313.19Z"
     id="path1320" />
  <path
     class="cls-5"
     d="M246.74,307.5c1-.84,2.07-1.49,3.1-2.23a18.56,18.56,0,0,0,4.41-4.07,2,2,0,0,0-2.1.14,17.21,17.21,0,0,1-5.88,2.11c-1.91.35-2.41,1.31-2,3.21C244.62,308.06,245.61,308.46,246.74,307.5Z"
     id="path1322" />
  <path
     class="cls-5"
     d="M219.88,314a76.54,76.54,0,0,1,7.84-.09c2.16.22,1.91-.87,1.49-2a7.1,7.1,0,0,1-.45-4.94c.75-2.31.76-2.57-1.59-2.78-2.17-.2-4.64-1.42-6.58.61s-3.12,4.11-3.15,5.6C217.53,314.35,217.13,314,219.88,314Z"
     id="path1324" />
  <path
     class="cls-5"
     d="M204.66,310.49c-.35,1-.14,1.64.85,1.87,2.61.6,5.14,1.56,7.9,1.63.8-.23,2.24.63,2.11-1.26a11,11,0,0,1,3.28-8.71c.33-.34,1-1.11.44-1.44-1.78-1-3.69-1.87-5.56-2.76-.12-.06-.38.07-.52.18C209.47,302.84,206.2,306,204.66,310.49Z"
     id="path1326" />
  <path
     class="cls-5"
     d="M176.32,280c0-.28-.31-.49-.66-.56a94.72,94.72,0,0,1-10.58-3.38c-.16,3.51,1.51,6.12,3.56,8.59.73.88,1.22.31,1.73-.17a16.43,16.43,0,0,1,5.35-3.76A1.07,1.07,0,0,0,176.32,280Z"
     id="path1328" />
  <path
     class="cls-2"
     d="M356.7,204.87a149.69,149.69,0,0,1-5.81,19.37c-.65,1.82-1.52,3.57-2.34,5.34A120.07,120.07,0,0,0,343.8,241a2,2,0,0,0,1.75-1.36c.67-1.21,1.35-2.4,2.14-3.56,1.92-2.83,4.14-5.43,6.11-8.22,2.62-3.71,4.73-7.73,7.09-11.59A54.09,54.09,0,0,0,365.1,209c1.15-2.76,2.73-5.35,4.08-8,1.73-3.44,3.38-6.92,5.12-10.36,1.92-3.76,2.81-7.88,4.35-11.76a55.59,55.59,0,0,0,3.89-17.92,46,46,0,0,0-.73-12.37c-1-4.68-2.23-9.24-6.23-12.54-2.5-2.07-6.58-2.5-8.23-.39A26.08,26.08,0,0,0,364,141c-2.62,5.88-2.45,12.17-3,18.33a65.91,65.91,0,0,0,.27,10.46c.29,4.29-.46,8.58-.69,12.88-.24,4.59-1.48,9-1.88,13.6C358.43,199.2,357.3,202,356.7,204.87Z"
     id="path1330"
     style="fill:#8aad00;fill-opacity:1" />
  <path
     class="cls-2"
     d="M306.57,255.06c-.11.34-.7,1.08.16,1.23.41.07.9-.48,1-1,.41-3,2.37-5.43,3.61-8.09,2-4.32,2.89-8.9,4.22-13.36a89.18,89.18,0,0,0,2.39-11.37,48.83,48.83,0,0,0,.91-9.67,75.78,75.78,0,0,1,.56-10.38,52.29,52.29,0,0,0,.41-7.16c-.11-2.6.83-5.19-.15-7.54a1.18,1.18,0,0,0,.14-.92c-.63-3.5-1.21-7-1.83-10.53a52.19,52.19,0,0,0-3.29-12.06c-1.92-4.35-3.38-8.87-5.27-13.23a63.29,63.29,0,0,0-10.61-17.08,55.46,55.46,0,0,0-16.16-12.73c-2.79-1.43-7.6-.19-8.72,2.49a26.21,26.21,0,0,0-2.2,12.38,24.63,24.63,0,0,0,4.25,12.6q5.74,8.17,11.87,16.1A81.38,81.38,0,0,1,294.68,176c4.24,7.86,6.08,16.55,8.7,25,1.51,4.85,1.9,9.93,3.15,14.84,1.3,5.1,2.58,10.2,2.77,15.48.1,2.68-.52,5.33-.63,7.94C308.44,244.59,308.23,249.89,306.57,255.06Z"
     id="path1332"
     style="fill:#8aad00;fill-opacity:1" />
  <path
     class="cls-5"
     d="M209.53,300.42c2.08-2,1.9-1.9.52-4.29-1.1-1.91-1.92-3.37-4.5-1.76-1.29.8-3.3,1.48-3.58,2.58-.54,2.21-2.45,2.7-3.72,4-1.81,1.79-3.51,3.61-4,6.12.11.46-.13.89.43,1.22,2.14,1.24,4.19,2.6,6.72,3.12.8.17.92-.29,1-.63C203.67,306.56,206.4,303.37,209.53,300.42Z"
     id="path1334" />
  <path
     class="cls-5"
     d="M187.15,283.65c.43-.1,1.09-.2,1.14-.85.06-.82-.74-.84-1.21-1-2-.55-4.1-.4-5.93-1.18-1-.08-5.51,2.07-7.09,3.31-4,3.16-4,3.5-.44,7.09,1.58,1.58,1.8,1.54,3.14-.16C179.46,287.46,182.67,284.7,187.15,283.65Z"
     id="path1336" />
  <path
     class="cls-5"
     d="M195.51,297.57c-.84-.48-2.56-.72-2.5-2.42,0-.6.68-1.91-1.06-1.5-.88.21-1.56-1.26-2.6-.33-1.71,1.54-3.55,3-4.15,5.33a1.23,1.23,0,0,1-1.31,1.05c-.71,0-.77-.77-.69-1.36a6.21,6.21,0,0,1,2.13-3.49c3.62-3.58,8.11-6,12.4-8.64a13.89,13.89,0,0,0,3.08-2.15,1.5,1.5,0,0,0-.49-2.18c-.89-.48-3.39,0-3.76.68s-.51,1.85-2.14,1.31c-2.73,1-6,.73-8.93,2.22s-4.76,3.73-7.06,5.65c-.73.61-2.39,1.82-1.13,3.14,1.09,1.14,2.09,2.37,3.23,3.47,3,3,6.66,5.09,10,7.6.67.5,1.6.62,1.86-.09.83-2.25,2.52-3.9,3.81-5.82C196.83,299.11,196.94,298.37,195.51,297.57Z"
     id="path1338" />
  <path
     d="M212.2,292.51c2.32-.49,4.64-.94,6.93-1.54,5.9-1.55,12.07-1.14,18-2.57,5.46-1.31,11.13-1.66,16.61-3.11a50.41,50.41,0,0,0,15.92-6.92c4-2.73,7.77-5.57,10.73-9.53,2.69-3.59,6.24-6.54,8.89-10.26a40.49,40.49,0,0,0,5-10.29c1.32-3.75,1.5-7.73,2.08-11.63.85-5.7.88-11.44,1.56-17.13,0-2.8-.57-5.53-.82-8.29a54.85,54.85,0,0,0-3.71-16.41c-1.45-3.46-2.41-7.12-4.56-10.29-.28-.42-.37-.95-1.09-.75-.26.07.16,1.15-.6.38-.36-.36-.54-1-.1-1.15,1-.43.38-1,.13-1.33-1.17-1.33-2-2.91-3.06-4.29-2-2.48-4-5-6-7.35a20.53,20.53,0,0,0-4.13-3.91,105.39,105.39,0,0,0-10.7-5.69,26.63,26.63,0,0,0-6.64-2.36c-4.41-.81-8.72-2-13.32-2.18s-9.42-.17-14.12-.22a65.23,65.23,0,0,0-14.74,1.92c-1.87.42-3.84.51-5.67,1a98.09,98.09,0,0,0-13.8,5.46c-5.44,2.5-10.92,4.94-15.83,8.39-4.67,3.28-9.68,6.15-13.33,10.65-1.42,1.75-3.33,3.22-4.38,5.14-3.42,6.25-6.69,12.57-8.75,19.44a91.45,91.45,0,0,0-3.37,19.6c-.18,2.37.48,4.66.46,7,0,.88.25,6,.38,7.8a39.42,39.42,0,0,0,1,7.63c1.65,5.89,2.94,11.88,5.55,17.49.27.58.76,1.28-.41,2a1.62,1.62,0,0,0,.57,2.93c2.95.85,6.22,1.41,5.43,5.66a.74.74,0,0,0,.08.37c1.59,4.21,4.24,7.89,6.89,11.43s6.34,6.65,9.55,10a38.56,38.56,0,0,0,7.25,5.83c3.1,1.93,6.07,4.06,9.35,5.74A56.1,56.1,0,0,0,205.8,315a22.15,22.15,0,0,0,8,1,51.93,51.93,0,0,1,6.65.12c3.68.12,7.3-.42,11-.42a10.78,10.78,0,0,0,3.78-.59c5.55-2.1,10.94-4.43,15.67-8a40.88,40.88,0,0,0,3.64-2.62c1.84-1.75,3.2-3.93,5.24-5.55.74-.59,1.58-1.74,1-2.63s-1.83-.31-2.58.2c-1.86,1.29-4.13,1.63-6.11,2.66-1.25.65-2.59,1.64-4,1.67-2.58.06-5,.88-7.58,1-4.39.14-8.72.63-13.16,0a29.81,29.81,0,0,1-13.69-5.41,9.64,9.64,0,0,1-2-2.45C210.94,293.11,211.25,292.71,212.2,292.51Zm-43.55-7.81c-2-2.47-3.72-5.07-3.56-8.59a94.72,94.72,0,0,0,10.58,3.38c.34.08.69.28.66.56a1.07,1.07,0,0,1-.59.71,16.43,16.43,0,0,0-5.35,3.76C169.86,285,169.37,285.57,168.65,284.7Zm5,6.35c-3.61-3.6-3.59-3.93.44-7.09,1.58-1.24,6.12-3.39,7.09-3.31,1.83.78,4,.63,5.93,1.18.46.13,1.27.16,1.21,1-.05.65-.71.75-1.14.85-4.48,1.05-7.68,3.81-10.39,7.25C175.42,292.59,175.2,292.63,173.62,291ZM190.54,306c-3.35-2.52-7-4.65-10-7.6-1.14-1.11-2.15-2.34-3.23-3.47-1.26-1.32.4-2.53,1.13-3.14,2.3-1.92,4.22-4.23,7.06-5.65s6.2-1.24,8.93-2.22c1.63.54,1.74-.6,2.14-1.31s2.87-1.17,3.76-.68a1.5,1.5,0,0,1,.49,2.18,13.89,13.89,0,0,1-3.08,2.15c-4.29,2.66-8.78,5.06-12.4,8.64a6.21,6.21,0,0,0-2.13,3.49c-.08.59,0,1.31.69,1.36a1.23,1.23,0,0,0,1.31-1.05c.59-2.31,2.44-3.78,4.15-5.33,1-.93,1.71.54,2.6.33,1.74-.41,1.08.9,1.06,1.5-.06,1.7,1.66,1.94,2.5,2.42,1.43.81,1.32,1.55.69,2.49-1.28,1.93-3,3.58-3.81,5.82C192.14,306.58,191.21,306.47,190.54,306Zm10.81,5.4c-2.52-.52-4.57-1.88-6.72-3.12-.56-.33-.32-.75-.43-1.22.53-2.51,2.23-4.33,4-6.12,1.27-1.25,3.18-1.75,3.72-4,.27-1.11,2.29-1.78,3.58-2.58,2.58-1.61,3.4-.15,4.5,1.76,1.38,2.38,1.56,2.33-.52,4.29-3.13,2.95-5.86,6.14-7.14,10.31C202.28,311.08,202.16,311.53,201.36,311.36Zm2.51-29.91c.77-.55,1.56-1.06,2.54-.44l.29.18c-.27.47-.57.62-.9.58-.69-.09-1.07,1.42-1.93.35C203.71,281.92,203.61,281.64,203.87,281.46Zm42.39,22a17.21,17.21,0,0,0,5.88-2.11,2,2,0,0,1,2.1-.14,18.56,18.56,0,0,1-4.41,4.07c-1,.74-2.12,1.39-3.1,2.23s-2.12.56-2.44-.84C243.86,304.76,244.35,303.8,246.26,303.45Zm-15.78,5.13c.45-3.15,1.63-4.5,4.48-4.2a15.06,15.06,0,0,0,1.57,0,16.62,16.62,0,0,0,4.4-.32c.94-.27,1.49,0,1.38,1.11a4.39,4.39,0,0,0,.59,3.1.9.9,0,0,1-.45,1.43,38.64,38.64,0,0,1-9.9,3.48c-.92.17-1.64,0-1.71-1.24A16.68,16.68,0,0,1,230.48,308.59Zm-3.3-4.39c2.35.21,2.34.47,1.59,2.78a7.1,7.1,0,0,0,.45,4.94c.42,1.08.66,2.17-1.49,2a76.54,76.54,0,0,0-7.84.09c-2.75,0-2.35.39-2.42-3.55,0-1.49,1.32-3.69,3.15-5.6S225,304,227.18,304.2Zm-14-4.2c.14-.11.41-.24.52-.18,1.87.88,3.78,1.71,5.56,2.76.56.33-.12,1.1-.44,1.44a11,11,0,0,0-3.28,8.71c.13,1.89-1.31,1-2.11,1.26-2.76-.07-5.29-1-7.9-1.63-1-.23-1.2-.85-.85-1.87C206.2,306,209.47,302.84,213.16,300Zm-9.4-21.2c-3.77.71-7.58.77-11.34,1.28a15.36,15.36,0,0,1-4.81-.28c-3.83-.77-7.6-1.77-11.42-2.6-1.09-.23-1.3-.52-1.06-1.65.47-2.2.52-4.47,1.31-6.61a.91.91,0,0,0-.39-1.17c-.71-.44-.62.37-.92.57-1.48,1-1,2.64-1.33,4-1.13,5.19-.07,4.67-5,2.39-1.1-.51-2.3-.75-3.34-1.37a11.69,11.69,0,0,1-1.18-.63c-.29-.22.65-5.61,1-5.81,2.57-1.51,5.22-2.92,7.72-4.53,4.1-2.64,8.44-4.91,12.45-7.7,3.33-2.32,7-4.18,10.5-6.26,1.46-.87,2.71-2,4.15-2.94,1.06-.68,1.91-1.46,3.27-1.25.5.08.59-.31.84-.6.48-.57.85-1.18,2-1s2.26-2.42,1.87-3.69c-.3-1-.7-1.91,0-2.87.29-.38.61-.69,1.14-.55s.35.6.38.95a6.2,6.2,0,0,0,.35,2.41,1.43,1.43,0,0,0,2.36.62,7.75,7.75,0,0,0,2.56-9.46,4,4,0,0,0-4.67-2.16,15.64,15.64,0,0,0-6.25,3.14,34.57,34.57,0,0,0,2.64-7.31,40.08,40.08,0,0,0,.16-8c-.09-3.77-1.83-6.91-3.87-10-1.5-2.27-4-3.38-5.86-5.15a11.69,11.69,0,0,0-9.16-3.09c-.49,0-1.15.15-1.1-.67.13-2.33-1.9-1.8-3-1.93-2-.22-3.92,1-4,2.43a2,2,0,0,1-1.58,2.07,26.32,26.32,0,0,0-7.88,4.28,12.92,12.92,0,0,0-5.18,8c-.07.37-.25.93.34,1.15s.81-.24,1.19-.47c.87-.51,1-1.5,1.35-2.23,1.6-3.66,4.61-5.68,8.06-7.4a30.39,30.39,0,0,1,12-2.95,10.84,10.84,0,0,1,7.66,2.55c2.55,2,5.54,3.61,6.85,6.91.83,2.1,1.82,4.08,1.94,6.4.19,3.89.65,7.8-.9,11.53a10.42,10.42,0,0,0-1.07,5c.36-.23.71-.63.92-.56.45.14.28.68.2,1a13.43,13.43,0,0,0,0,6.35c.41,1.9-1.47,2.57-2.56,3.45a100.48,100.48,0,0,1-8.9,6.4c-3.8,2.41-7.8,4.51-11.65,6.84-4.13,2.5-8.1,5.27-12.33,7.6-2.27,1.25-4.68,2.27-6.89,3.64a.62.62,0,0,1-1-.45c-.16-1-1.56-1.87-.1-3.16.53-.47.32-2,.1-3a25,25,0,0,1-.36-4.91c0-.34.2-.87-.34-.94s-.66.41-.85.84a5.59,5.59,0,0,0-.27,3.72,15.14,15.14,0,0,1,.25,3.78,2.65,2.65,0,0,1-1.93-2.16c-1.25-4.06-2.52-8.1-3.59-12.22-.72-2.77-.56-5.62-1.14-8.39-.9-4.32.05-8.73-.73-13.08a12.18,12.18,0,0,1,.47-3.91c0-.06,0-.81.69-.43,1.45.84,1.58-.08,1.55-1.18s0-2,0-3.07c0-.66.07-1.3-1-1.23-.49,0-.6-.18-.45-.71,1-3.59,1.42-7.35,3.37-11.26-.06,2.19-.76,3.78-.83,5.45s1.45,2.87.8,4.45a6.37,6.37,0,0,0,.07,4.25c.14.56.19,1.41,1.09,1.27,1.12-.18.57-.91.5-1.59-.13-1.33,0-2.68-.07-4-.13-1.62.21-3.2-.61-4.9-.61-1.26.3-3,.89-4.49.21-.52.34-1.08.6-1.58s.46-.77,0-1.16-1-.22-1.72.6a22.72,22.72,0,0,1,2.33-5.47c.32-.57.85-.45,1.48-.41,1.94.12,2.78-1.18,1.82-2.79a2.18,2.18,0,0,1-.08-2.29,34,34,0,0,1,13.43-14.81c1.25-.76,2.31-1.83,3.54-2.62.49-.31,1.37-1.15,1.71.35.15.64,1,.51,1.31.22,1.6-1.59,4.24-2.29,4.61-5,0-.2.3-.44.51-.55,2.73-1.33,5.48-2.63,8.22-4,.42-.2.84-.56,1.24-.18s-.17.79-.29,1.16-.54.87-.14,1.21.78-.22,1.08-.49a7.75,7.75,0,0,1,3.86-1.55c.64-.13,1.4.25,1.58-.71.22-1.22-.84-.79-1.41-1a4.65,4.65,0,0,1-.74-.47,28.59,28.59,0,0,1,9.1-3.25c3.49-.8,7-1.44,10.51-2.2,1.2-.26,2.47.12,3.64-.47a.64.64,0,0,1,.8.41c.63,2.6,2.77,1.06,4.19,1.44.19,0,.63-.14.65-.27.52-3.11,2.93-1.49,4.55-1.69A13,13,0,0,1,242,159.7a2.39,2.39,0,0,0,3.4-.88c.47-.86,1.32-.49,1.92-.41,2.22.3,4.54,0,5.85,2.81.78,1.64,3.25,2.08,5.2,2.39.64.1.75-.75.46-1.41-.13-.31-.66-.63-.27-1s.83-.09,1.24.17a24.27,24.27,0,0,0,2.17,1.2c.59.29.69.48.3,1.12-.67,1.11-.42,1.89,1.14,2a6.76,6.76,0,0,1,4.85,2.7c.08.1.1.25.19.32.58.46,1.09,1.6,1.84,1s.44-1.59-.35-2.27a1,1,0,0,1-.28-1.41c1.47,1,3,2,4.35,3.12,3.46,3,6.11,6.66,8.85,10.27a58.86,58.86,0,0,1,5,7.76c.8,1.49.08,3.2.81,4.78.6,1.32.33,1.42,1.85,1.55.17,0,.39.34.44.55,1,4,3,7.71,3.27,11.87.07,1.15,1.13,1.94.85,3.26-.25,1.16.06,2.36-.88,3.46-.81.95-.48,1.52.83,2.05.41.17.35.45.41.74.85,4.16,0,8.27-.27,12.41-.15,2.11-.29,4.22-.5,6.32-.62,6.3-1.43,12.59-4.17,18.4a39,39,0,0,1-7.25,10.15c-2.23,2.34-4.41,4.75-6.64,7.08-4,4.23-8.51,8-14.3,10.15a89,89,0,0,1-8.67,3,57.19,57.19,0,0,1-9.81,2c-2.43.19-5-.33-7.37.95-.82.45-1.16-.66-1.9-.7a17,17,0,0,0-4.77.14c-1.36.31-2.15.19-2.14-1.37,0-1.36-.69-1.5-1.89-1.15-.76.22-1.67.4-1.69-1,0-2-.63-2.36-2.68-1.78a2.41,2.41,0,0,1-1,.14,2.61,2.61,0,0,1,2.19-1.92,40.62,40.62,0,0,0,5.12-1.53,9.05,9.05,0,0,0,4-2.58,7,7,0,0,1,2.8-1.63c.72-.32,1.27-.8.89-1.58s-1.2-.82-2-.4c-1.06.56-2.2,1-3.28,1.46a64.72,64.72,0,0,1-10.59,3.31C214.41,276.67,209.1,277.79,203.75,278.8Zm-19.09-81.37c-.13.61-.87.78-1.55.79-.38-.09-1,.22-1.05-.47-.08-1.08,1-.68,1.54-1S184.78,196.9,184.66,197.44Z"
     id="path1340" />
  <path
     d="M150.76,265.34c.21-.5-5.52-7-6-7.84-1.95-3.28-3.71-6.67-5.71-9.92-2.4-3.91-3.21-8.43-5.17-12.47a33.47,33.47,0,0,1-2.92-12.49c-.25-3.45.28-7,.25-10.47a37.33,37.33,0,0,1,1.46-9.08c1.17-4.85,3.66-9.14,6.12-13.43a32.67,32.67,0,0,1,4.28-5.78,148.1,148.1,0,0,0,12-15,64.72,64.72,0,0,0,10.15-20.62c1.51-5.67,2.17-11.19.59-16.78-1.39-4.94-3.1-10-9.46-10.86-3-.42-6.25-.83-8.93.67A45.6,45.6,0,0,0,138,128.1c-2.92,2.81-5.37,6-8.12,8.94a51.32,51.32,0,0,0-10.44,16.32c-3.18,8.07-6.56,16.1-7.3,24.92-.41,4.88-1.61,9.7-1.46,14.93-.26,4.66.91,9.47,1.59,14.33a51.48,51.48,0,0,0,3.56,13.16c1.57,3.66,7.42,17.17,9.22,20a99.82,99.82,0,0,0,10.1,13.77,15.25,15.25,0,0,0,3.4,2.57c2.49,1.6,5.13,3,7.18,5.25C146.74,263.4,150.37,266.25,150.76,265.34ZM141.3,256c-3.41-1.15-5.26-3.94-7.39-6.45s-3.62-5.14-5.59-7.61a29.08,29.08,0,0,1-4.22-8.48,93.65,93.65,0,0,0-4.72-10,45,45,0,0,1-4.79-15.11c-.38-3.35-1.39-6.61-1.72-10a57.79,57.79,0,0,1,0-10.66c.3-3.43,1-6.83,1.4-10.25a61.24,61.24,0,0,1,2.29-10,115.53,115.53,0,0,1,6-16.2,44,44,0,0,1,7-10.74c2.61-2.93,4.86-6.14,7.73-8.89,3.5-3.35,6.92-6.87,11.5-8.58,3.89-1.46,8.32-1.76,11.7,1.29,2,1.78,2.8,4.53,3.55,7.14a27.52,27.52,0,0,1-.7,16.78c-1.59,4.75-3.18,9.45-5.87,13.71a110.51,110.51,0,0,1-12.09,16.48,67.12,67.12,0,0,0-13.85,22.28,24.66,24.66,0,0,0-1.76,9.77c.16,3.7-.5,7.36-.38,11a50.57,50.57,0,0,0,3.05,14.45c2.25,6.68,5.6,12.82,8.9,19A1.18,1.18,0,0,1,141.3,256Z"
     id="path1342" />
  <path
     d="M306.43,248.18c-.08,2.3-5.93,15-7.22,16-.33.26-.79.56-.33,1.1a1,1,0,0,0,1.23.28,13.33,13.33,0,0,0,7.1-5.41,35.61,35.61,0,0,0,4.81-9.51c1.16-4.06,3-7.93,4.18-12a130.06,130.06,0,0,0,3.63-15.48,77.6,77.6,0,0,0,.92-14.6c0-2.27.71-14.64,1-18.56.26-3.32-.47-6.76-1.11-10.09a121.52,121.52,0,0,0-6-21.59,112.57,112.57,0,0,0-10-20.4c-2.64-4.1-6.19-7.34-9.59-10.66a56.4,56.4,0,0,0-9.72-7.08,13.78,13.78,0,0,0-5.33-1.69c-4.28.12-7.07,1.88-8.44,5.58-2.15,5.8-2,11.67-.58,17.59,1.54,6.3,5.82,11.08,9.6,16.07,5.09,6.71,10,13.55,13.69,21.06a64.54,64.54,0,0,1,4.51,12.48c.79,3,1.89,6,2.61,9,1.68,7.11,3.13,14.28,4.78,21.4,1,4.34,1.85,8.74,1.47,13.16S306.58,243.69,306.43,248.18Zm.1-32.38c-1.25-4.91-1.64-10-3.15-14.84-2.62-8.41-4.46-17.1-8.7-25a81.38,81.38,0,0,0-6.84-11.29q-6.13-7.92-11.87-16.1a24.63,24.63,0,0,1-4.25-12.6,26.21,26.21,0,0,1,2.2-12.38c1.12-2.67,5.93-3.92,8.72-2.49a55.46,55.46,0,0,1,16.16,12.73,63.29,63.29,0,0,1,10.61,17.08c1.89,4.36,3.35,8.87,5.27,13.23A52.19,52.19,0,0,1,318,176.24c.61,3.51,1.2,7,1.83,10.53a1.18,1.18,0,0,1-.14.92c1,2.35,0,4.95.15,7.54a52.29,52.29,0,0,1-.41,7.16,75.78,75.78,0,0,0-.56,10.38,48.83,48.83,0,0,1-.91,9.67,89.18,89.18,0,0,1-2.39,11.37c-1.34,4.46-2.22,9-4.22,13.36-1.24,2.67-3.2,5.07-3.61,8.09-.07.54-.56,1.09-1,1-.87-.15-.27-.88-.16-1.23,1.66-5.17,1.87-10.47,2.1-15.84.11-2.61.73-5.26.63-7.94C309.11,226,307.83,220.89,306.53,215.8Z"
     id="path1344" />
  <path
     d="M318.71,253.16c1.36-1.74,2.67-3.53,4-5.27,2-2.62,3.08-5.77,4.8-8.54a103.09,103.09,0,0,0,8.08-15.3c2.66-6.47,4.81-13.15,6.95-19.8.48-1.5,2.63-10.34,3.11-13.37.81-5.12,2-10.17,2.72-15.34.9-6.6.91-13.23,1.52-19.82.34-2.56-.21-5.1-.53-7.58a111.91,111.91,0,0,0-3-14.69c-1.09-4-1.74-8.21-4-11.85a93.91,93.91,0,0,0-6.32-9.37,40.49,40.49,0,0,0-14.75-11.59c-4.18-1.94-12.72-.35-15.28,4.26-2.79,5-2.73,10.44-2,15.68a41.79,41.79,0,0,0,4.9,14.08c1.32,2.41,3.26,4.46,4.7,6.75a100.18,100.18,0,0,1,9.07,18.73,60.22,60.22,0,0,1,3,9.64c1,5.41,2.33,10.76,3.08,16.24.77,5.68,2,11.28,1.82,17.06a65.87,65.87,0,0,1-.77,10.39c-.82,4.5-1.27,9.07-2.05,13.58a43,43,0,0,1-2,8.36c-2.08,5.34-5.43,10-8.81,14.67a8.39,8.39,0,0,0-1.83,3C315,253.66,317.9,254.2,318.71,253.16Zm12.94-39.81a24.68,24.68,0,0,0,.33-7.12,33.07,33.07,0,0,1,.21-7c.49-3.8-1.14-7.3-1.46-11-.52-6-2.18-11.79-3.33-17.67a84.61,84.61,0,0,0-5.29-16.36,70.63,70.63,0,0,0-7.1-13.36,63.1,63.1,0,0,1-6.77-11.12,32.16,32.16,0,0,1-2.86-16.36c.37-3.28.69-6.62,3.38-9.15,2.48-2.32,7.57-3.23,10.81-2a31.93,31.93,0,0,1,14.63,10.91c3.73,4.9,7.56,10,9.11,15.92a146.27,146.27,0,0,1,3.93,18.12,72.28,72.28,0,0,1,.5,15.84c-.38,4.23-.78,8.5-1.25,12.73-.81,7.37-2.79,14.52-3.73,21.85,0,.36-2.86,9.31-3.21,10.15-2.19,5.32-3.23,11-5.82,16.2q-2.76,5.51-5.55,11C329.58,227.69,330.19,220.45,331.65,213.35Z"
     id="path1346" />
  <path
     d="M140.83,270.29c.58-1.49-.17-2.28-1.1-2.95-.66-.47-1.32-.91-1.94-1.43-2.74-2.27-4.67-5.24-7.45-7.51a46.41,46.41,0,0,1-8.61-8.92c-2.13-3-3.82-6.17-5.62-9.32-3.15-5.48-6.39-10.87-8.11-17.06a65.16,65.16,0,0,1-2.84-18.53c.11-7.29,1.76-14.41,2.5-21.64.67-6.57,2.68-13,4.16-19.41,1.19-5.18,2.86-10.28,2.49-15.76a17.38,17.38,0,0,0-2.37-8.38c-1.6-2.57-3-5.1-6.18-6.42-2.47-1-4.87-.47-7.3-.63a10.85,10.85,0,0,0-6,1.74,18.14,18.14,0,0,0-6.41,6.64c-3.75,6-6.32,12.39-6.18,19.64.07,3.62.63,7.21.47,10.84a37.81,37.81,0,0,0,.93,8.63c1.08,5.74,2.29,11.48,4.73,16.92,1.51,3.35,2.26,7,3.73,10.38,1.54,3.54,2.59,7.25,4.71,10.6,2.6,4.12,4.32,8.73,7.5,12.55,2.22,2.67,4.3,5.47,6.37,8.25a113.71,113.71,0,0,0,15.39,17.28c4.08,3.63,8,7.49,12.28,10.85C137.56,267.88,138.73,269.63,140.83,270.29Zm-27.5-29.09c-4.58-5.5-9-11.11-13.09-17-1.17-1.7-1.84-3.71-2.91-5.48-4.52-7.49-6.57-15.94-9.94-23.87-2.06-4.85-2.77-10-4.11-15a58.4,58.4,0,0,1-.94-7.28c-.61-4.55-.31-9.14-.44-13.71-.15-5.56,2.07-10.4,4.65-15.11a26.27,26.27,0,0,1,2.79-4.5,14.3,14.3,0,0,1,9.49-5.13,13.77,13.77,0,0,1,6.22.51c3,1,3.91,3.59,5.29,5.86a15.22,15.22,0,0,1,2,7.16c.34,5-1.3,9.68-2.25,14.46-1.27,6.37-3.2,12.65-4,19.07s-2.08,13-2.63,19.57a54.67,54.67,0,0,0,1.76,19.81c1.73,6,3.66,12,7.39,17.32,1.08,1.52,1.5,3.43,2.8,5.13C114,242.88,113.86,241.84,113.33,241.2Z"
     id="path1348" />
  <path
     d="M359.34,177c0,1.39-.26,2.78-.32,4.14A109.28,109.28,0,0,1,357.26,195a135.08,135.08,0,0,1-4.94,19.6,170.79,170.79,0,0,1-7.07,18c-2.78,6-5.18,12.14-9.2,17.48-1.48,2-2.82,4.15-4.92,5.57-1.74,1.18-2.09,2.9-2.51,4.65-.06.26-.11.68.33.78a.66.66,0,0,0,.82-.28,26.55,26.55,0,0,1,3-3.37c2.64-3,4.67-6.61,7.41-9.55,4.94-5.3,8.86-11.33,13.39-16.92,3.17-3.91,5.16-8.51,8-12.64a83.67,83.67,0,0,0,4.43-7.74c3.82-7.18,7.7-14.34,10.78-21.83,3-7.31,6.16-14.6,7.1-22.58a68,68,0,0,0,.37-15,28.52,28.52,0,0,0-5-14.18c-2.91-4-6.87-6.47-11.83-3.5-2.28,1.37-3.38,3.71-4.48,6-1.82,3.71-2.43,7.67-2.94,11.77a131.35,131.35,0,0,0-.82,14.57C359.1,169.45,359.3,173.22,359.34,177Zm1.22,5.74c.23-4.29,1-8.58.69-12.88a65.91,65.91,0,0,1-.27-10.46c.57-6.16.4-12.45,3-18.33a26.08,26.08,0,0,1,3.35-5.44c1.65-2.11,5.73-1.68,8.23.39,4,3.31,5.2,7.86,6.23,12.54a46,46,0,0,1,.73,12.37,55.59,55.59,0,0,1-3.89,17.92c-1.55,3.88-2.43,8-4.35,11.76-1.75,3.43-3.39,6.91-5.12,10.36-1.35,2.68-2.92,5.27-4.08,8a54.09,54.09,0,0,1-4.21,7.31c-2.37,3.86-4.47,7.88-7.09,11.59-2,2.78-4.19,5.39-6.11,8.22-.78,1.16-1.47,2.35-2.14,3.56A2,2,0,0,1,343.8,241a120.07,120.07,0,0,1,4.74-11.44c.82-1.76,1.69-3.51,2.34-5.34a149.69,149.69,0,0,0,5.81-19.37c.6-2.85,1.73-5.66,2-8.55C359.08,191.74,360.32,187.31,360.56,182.72Z"
     id="path1350" />
  <path
     d="M67.83,194c-2.63-.46-4.82.94-6.74,2.84A24,24,0,0,0,54,213.65a43.94,43.94,0,0,0,3.74,18.26,37.46,37.46,0,0,0,9.13,12.64c2.65,2.55,5.56,4.84,8.45,7.14A42.82,42.82,0,0,0,84,257.06c4.9,2.26,10.19,3.51,15.43,4.77,4,1,8.13,1.77,12.27,2.36,3.8.54,7.56,1.37,11.31,2.17a1.74,1.74,0,0,0,2.14-.84c.46-.84-.44-1.19-.84-1.73S110.23,253,108.17,251.66c-2.58-1.7-4.76-3.86-7.34-5.52a33,33,0,0,1-9-9c-3.46-4.94-4.75-10.86-6.76-16.44-1.33-3.7-1.76-7.68-3.51-11.26-1.56-3.21-3.24-6.36-4.7-9.61A10.08,10.08,0,0,0,67.83,194Zm15.35,26.88c1,4,2.87,7.74,4.18,11.64,2.25,6.71,7.43,11,12.83,15.17,1.09.85,2.12,1.78,3.17,2.69,3.09,2.66,6.86,4.37,10.1,6.83,1.37,1,2.41,2.45,4.08,3.18.67.29,1.7.9,1.3,1.87-.32.77-1.3.13-2,.42l-9.23-1.62a169.23,169.23,0,0,1-16.86-3.77,43.59,43.59,0,0,1-11.2-5.11,65.71,65.71,0,0,1-6.72-5.2,58.88,58.88,0,0,1-10.37-10.4,31.21,31.21,0,0,1-5.29-12.13,43.34,43.34,0,0,1-1.23-11.06,22,22,0,0,1,7.58-16.15c2.44-2.15,6.4-2,9.4.54,2,1.69,2.76,4,4,6.1C79.9,209.21,81.66,215,83.19,220.89Z"
     id="path1352" />
  <path
     d="M117.09,138.58a3.39,3.39,0,0,0,.64,3c.18.2.47.36.68.16a3.61,3.61,0,0,0,.95-2.57c.21-3.31,1.81-6.08,3.67-8.73a57.91,57.91,0,0,1,12-12.53,23,23,0,0,1,10.73-5.06c3.63-.52,7.17-1.7,11-1.37,3,.25,6,.3,8.81,1.19a25.4,25.4,0,0,1,10.45,6.6c1.08,1.09,1.84,1.93.27,3.2a3.53,3.53,0,0,0-.87,1.66,47.36,47.36,0,0,0-2.83,15.48c.05,3.19,3.38,4.66,3.61,4.77,1.8.91,4.6.92,5.55-.18s1.57-.9,2.67-.3c1.32.72,2.94,1.8,4-.37,1-1.89,2.1-1.86,3.84-.84,1.11.65,2.56.83,3.43-.84a7,7,0,0,0,.91-3.38,28.34,28.34,0,0,0-2.58-12c-1.9-4-6.54-7.49-10.95-7.08-3.16.3-5.19-1.18-6.94-3.05-3.41-3.64-7.91-5.24-12.47-6.49a19.39,19.39,0,0,0-7.84-.47,38.88,38.88,0,0,0-7.43.62c-6.66.77-12.17,3.83-17,7.94a50.14,50.14,0,0,0-7.49,7.84C120.91,129.68,117.94,133.58,117.09,138.58ZM181,122a9.38,9.38,0,0,1,10.63,4.91,21.06,21.06,0,0,1,2.59,10.28c0,.51,0,1,0,1.53,0,.83.32,1.92-1.14,2a2.5,2.5,0,0,1-2.75-1.64c-.16-.46-.24-1-.44-1.42a1.21,1.21,0,0,0-1.41-.75c-.73.08-.95.54-1,1.2a8.75,8.75,0,0,1-.3,2.61c-.24.74-.33,1.78-1.09,1.73a2.36,2.36,0,0,1-2.16-1.37,15.06,15.06,0,0,1-.75-2.29c-.12-.64,0-1.35-.89-1.46-1-.12-.94.78-1.25,1.37a3.49,3.49,0,0,0-.25,1.67,3.2,3.2,0,0,1-1.46,2.9c-.81.44-3.25-1.27-3.58-2.35a15.28,15.28,0,0,1-.85-6.69,41.19,41.19,0,0,1,2.47-9.57C178.12,122.91,179.59,122.37,181,122Z"
     id="path1354" />
  <path
     d="M243.69,108.53c.31-.31.73-.25,1.05-.42,4.09-2.17,8.65-3,13-4.34a20.1,20.1,0,0,1,10.4-.18c3,.72,5.79,2,8.73,2.88,7,2.14,12.32,7,17.37,11.94,3.12,3.05,5.17,7,7.59,10.63.44.65.81,1.63,1.83,1.15s.31-1.44,0-2c-1.85-3.66-4.49-6.83-6.92-10.13-2-2.7-5-4.34-7.31-6.73-3.4-3.54-7.94-5.24-12.42-6.85l-6.26-2.27a20.89,20.89,0,0,0-10-1c-4.06.52-7.92,2-11.85,3.09a32.34,32.34,0,0,0-10.81,5.55,3,3,0,0,1-2.12.66c-3.05-.17-5.48,1.19-7.64,3.06-3.43,3-3.42,7.23-4.16,10.89a14.44,14.44,0,0,0,2,6.84c2,3.3,3.86,3.52,6.64.88A.92.92,0,0,0,233,132c.73-1,1.31-.66,1.83.2.13.22.23.45.35.67,1.39,2.4,2.83,2.71,5.18,1.21.76-.48,1.35-.26,2,.45,1.49,1.63,2.86,1.61,4.46.13s2-3.72,2.61-5.73c1-3.34,0-6.46-1.21-9.51-1.08-2.65-2-5.4-4.62-7.17-.82-.56-2.37-.7-2.32-1.77S242.94,109.28,243.69,108.53Zm1.05,7.54a32,32,0,0,1,3.15,10.09,9.24,9.24,0,0,1-2,6c-.4.5-.74,1.38-1.3,1.16a2.44,2.44,0,0,1-1.48-1.75,11.87,11.87,0,0,1-.05-2.1c0-.82-.22-1.37-1.19-1.37s-1,.44-1.21,1.18c-.3,1.43-.49,3.45-2.41,3.29s-2-2.11-2.29-3.66c-.18-1,.63-2.61-.59-2.92-1.38-.36-1.53,1.43-2.07,2.33a14.79,14.79,0,0,1-1.5,1.73c-1.7,2-2.89,1.77-4.12-.52-2.32-4.32-1.55-8.45.44-12.56C236.83,109.16,243.55,113.46,244.74,116.07Z"
     id="path1356" />
  <path
     d="M191.87,147.58a1.3,1.3,0,0,0,1.16,1.48c.7,0,1.21-.63,1.19-1.59-.23-.45-.1-1.39-1.08-1.31A1.39,1.39,0,0,0,191.87,147.58Z"
     id="path1358" />
  <path
     d="M226.24,139.9a1.27,1.27,0,0,0,1.28,1.22c1,0,1.34-.36,1.39-1.15.05-1-.71-1.28-1.33-1.36A1.29,1.29,0,0,0,226.24,139.9Z"
     id="path1360" />
  <path
     d="M233.69,139.11c.07.54.2,1.28,1.13,1.25s1.22-.56,1.17-1.42c0-.68-.18-1.29-1-1.22A1.27,1.27,0,0,0,233.69,139.11Z"
     id="path1362" />
  <path
     d="M243.09,138.43c-.93,0-1.27.51-1.16,1.33.06.48.13.9.94.71s1.63-.25,1.76-1.39C244.37,138.44,243.76,138.42,243.09,138.43Z"
     id="path1364" />
  <path
     d="M177.32,150.19a1.75,1.75,0,0,0,1.51,1.42c.46,0,.87-.33.85-1,0-.94-.84-1-1.4-1.36C178,149.58,177.12,149.46,177.32,150.19Z"
     id="path1366" />
  <path
     d="M184.61,147.31a1.61,1.61,0,0,0-.42,2.46,1,1,0,0,0,1.52-.24C186.47,148.28,185.08,148,184.61,147.31Z"
     id="path1368" />
  <path
     d="M241.9,234.23c-1.31-1.52-3.06-1.77-5-1.52-3.58.45-6.74,4.34-6.62,8.25,0,1.94,1.13,3.44,1.9,5.07.21.45.71.44,1.19.51,1,.14,2.27-1.38,3.17.33.09.18.55-.17.82-.35a15.27,15.27,0,0,0,5.42-6A5.23,5.23,0,0,0,241.9,234.23Zm-6.23,10.08c-.17-2.46.18-4.24,2.14-5.7C238.09,240.93,236.43,242.19,235.67,244.32Z"
     id="path1370" />
  <path
     d="M214.68,167.62c1.32.31,3.6-1.34,3.7,1.65a.63.63,0,0,0,.88.5c1-.44,1.66.17,2.44.54,1.73.82,3.47,1.61,5.21,2.41.63.29,1.39.47,1.73-.21s-.36-1-.93-1.33l-4.33-2.09c-.36-.17-.76-.37-.68-.8s.63-.27,1-.34a4.72,4.72,0,0,1,2.63.49c.79.3,1.51.46,1.73-.42a1.23,1.23,0,0,0-1.12-1.63c-1.39-.2-2.76-.52-4.15-.71a1.05,1.05,0,0,0-1.35,1.2c0,.59-.28,1.09-.88,1s-1.79-.18-1.77-.74c.08-2-1.26-1.46-2.8-1.51a6.31,6.31,0,0,0-1.49.13c-.93.25-2,.68-1.64,1.84S214.08,167.48,214.68,167.62Z"
     id="path1372" />
  <path
     d="M224,192.16A5.74,5.74,0,0,1,222,191c-.32-.37-.86-.63-.36-1.26.71-.9.12-1.54-.47-2.26-.84-1-1.89-1.81-2.74-2.83A9.29,9.29,0,0,0,216,183c-.68-.13-.82.1-.87.47a1.71,1.71,0,0,0,.71,1.85,10,10,0,0,1,2.54,1.7c.69.79,1.9,1.44.16,2.41a.73.73,0,0,0,0,1.18,16.4,16.4,0,0,0,4.3,3.51c.72.35,1.27.45,1.64-.27A1.15,1.15,0,0,0,224,192.16Z"
     id="path1374" />
  <path
     d="M184.65,206.85c1.88.77,3,3.88,1.85,4.62-1.55,1-.67,1.73-.21,2.64a34.66,34.66,0,0,1,2.2,3.91,1.15,1.15,0,0,0,1.24.81c.69-1.79-.45-3.15-1.27-4.48a2.34,2.34,0,0,1-.42-2.11c1.23-3.35.64-5.32-2.29-7-.61-.35-1.52-1-2-.13C183.3,205.74,183.53,206.39,184.65,206.85Z"
     id="path1376" />
  <path
     d="M219.93,261.42c-.66-.67-1.41-.42-2,.21-.41.42-.8.85-1.24,1.22-1.72,1.44-4.7,1.24-5.81-.51-.58-.91-1.07-1.44-2-.65s-.41,1.79.2,2.33c5.28,3.26,8.62.39,10.61-.45A1.37,1.37,0,0,0,219.93,261.42Z"
     id="path1378" />
  <path
     d="M236.48,165.45c-.23,0-.52-.23-.72-.17a16.5,16.5,0,0,1-4.81.36c-.73,0-1.59-.06-1.6.92,0,1.13,1,.9,1.71,1,1.5.23,2.9-.77,4.4-.28-.52,2.54,1.43,4.39,4.3,4.09.45,0,.93.06,1-.63s-.18-.85-.87-.93c-1.46-.18-2.3-1.22-3.12-2.29.49-.7,2,.07,1.74-1.06A1.69,1.69,0,0,0,236.48,165.45Z"
     id="path1380" />
  <path
     d="M243.46,219.81c.5.31.69-.17.89-.42,1.84-2.26,2.31-5,3.2-7.9-1.28-1.58-.81-3.58-.93-5.49,0-.42-.34-.53-.68-.44a1.17,1.17,0,0,0-.81,1.16,32.57,32.57,0,0,1-.81,4.43c-.13.67-.29,1.69.07,2,1.43,1.37.27,2.5-.09,3.72-.21.72-.84,1.28-.84,2.08C243.45,219.26,243,219.55,243.46,219.81Z"
     id="path1382" />
  <path
     d="M189.24,176.45a12.58,12.58,0,0,1,3-2.2,50.41,50.41,0,0,1,7.2-3.29c.38-.11.65-.41.69-1.11-.28-.59-.69-1-1.67-.5-2.49,1.37-5.11,2.5-7.73,3.62a11.35,11.35,0,0,0-2.87,2.18,1.29,1.29,0,0,0-.08,1.88C188.27,177.47,188.81,176.84,189.24,176.45Z"
     id="path1384" />
  <path
     d="M207.09,175.47c.89-1,2.45-1.12,3.14-2.06a2.13,2.13,0,0,1,2.7-.73,12,12,0,0,0,2.21.25,4.89,4.89,0,0,0,.86,0c.54-.11,1.4.39,1.46-.7s-.8-.67-1.35-.84c-1.83-.56-3.84-.3-5.58-1.21-.26-.14-.57-.22-.64,0-.51,1.84-2.35,2.36-3.58,3.47a1.13,1.13,0,0,0,0,1.56C206.47,175.48,206.81,175.78,207.09,175.47Z"
     id="path1386" />
  <path
     d="M198.45,184.22c.31-.54,0-1.15-.67-.88-1.5.55-3.53,1.07-4,2.34-.92,2.28-2.69,2.54-4.6,3a7.29,7.29,0,0,0-3.09,2,1.36,1.36,0,0,0-.24,1c0,.15.36.29.57.45a8.67,8.67,0,0,1,2.07-1.5c2.66-1.09,5.74-1.51,7.28-4.39.17-.32.74-.49,1.15-.65A3.07,3.07,0,0,0,198.45,184.22Z"
     id="path1388" />
  <path
     d="M189.76,183.88c.28.11.86-.47,1.27-.77s.63-.6,1.16-.62,1.63-.15,1.49-1-1-1.12-1.91-1a4,4,0,0,0-1.1.29c-2.35,1.44-5.17,1.87-7.49,3.39-.7.46-1.5.84-1.08,1.7.5,1,1.35.27,2,0C185.92,185.16,187.19,182.92,189.76,183.88Z"
     id="path1390" />
  <path
     d="M179,189.88c-1.64,1.24-3.15,2.68-5.16,3.36s-2.36,2.48-3.2,4a.92.92,0,0,0,.5,1.29c.67.25.83-.29,1-.79.6-1.41,1.4-2.87,2.94-3.29,2-.55,3.27-2,4.83-3.09a1.73,1.73,0,0,0,.67-2.39A15.83,15.83,0,0,0,179,189.88Z"
     id="path1392" />
  <path
     d="M286.8,231.8a12.65,12.65,0,0,1-.71,2.31c0,.19-.28.81,0,.76a6.07,6.07,0,0,0,1.35-.36c0-1.59,2.62-2.8.75-4.68a.92.92,0,0,1,0-.87,79.44,79.44,0,0,0,3.63-7.37c.25-.5.92-1,.26-1.43s-1,.25-1.47.63a3,3,0,0,0-.69,1.3C288.65,225.27,286.94,228.28,286.8,231.8Z"
     id="path1394" />
  <path
     d="M176.73,188.14c.55-.32,1.18-.79.89-1.52s-.91-.86-1.61-.41a.73.73,0,0,1-.91,0c-.4-.38.09-.69.24-1a5.16,5.16,0,0,1,2.56-2.41.89.89,0,0,0,.46-1.29,1,1,0,0,0-1.16-.51c-1.3.22-4.25,3.66-4.25,4.95C173,188.24,174.73,189.28,176.73,188.14Z"
     id="path1396" />
  <path
     d="M243.75,172.18a4.36,4.36,0,0,1,2.23,1.43c1.39,1.36,3,2.53,3.56,4.52a1.26,1.26,0,0,0,1.36.9c.72-.09.37-.68.46-1a1.74,1.74,0,0,0-.32-1.14,23,23,0,0,0-4.31-5.2,7.71,7.71,0,0,0-2.28-1.37,1.14,1.14,0,0,0-1.66.53C242.52,171.6,242.93,172,243.75,172.18Z"
     id="path1398" />
  <path
     d="M224.19,177.59c-.57-.24-1.15-.3-1.18-1-.06-1.65-1.35-1.58-2.27-1.74-.91,0-1.81-.2-2,.72-.25,1.11.89,1.2,1.51,1.31,1.29.24,2.54.3,2.52,2,0,.17.46.45.73.51,1.41.28,2.26,1.39,3.39,2.09.46.29.7,1.24,1.41.52.5-.51.32-1.16-.21-1.67A12.52,12.52,0,0,0,224.19,177.59Z"
     id="path1400" />
  <path
     d="M286.81,216.55c.66.25,1-.24,1.23-.86a22.07,22.07,0,0,0,1-4.55c.53-2.56.5-5.21,1.28-7.64.08-.46-.12-.78-.42-.85-.53-.12-.9.4-1,.71-.37,1.51-.62,3-.92,4.58-.47,2.44-.44,5-1.28,7.35C286.58,215.75,286.09,216.28,286.81,216.55Z"
     id="path1402" />
  <path
     d="M240.73,189.5c-.21-1.9-2.37-2.51-2.92-4.18,0-.09-.35-.09-.5-.13-.45.08-1.1-.1-.77.69.53,1.25.63,3.19,1.31,3.71,1.58,1.21,2.1,2.83,3,4.32a1,1,0,1,0,1.44-1.38A3.51,3.51,0,0,1,240.73,189.5Z"
     id="path1404" />
  <path
     d="M214.79,195a5,5,0,0,0,1.79,1.22.58.58,0,0,0,.52-.34,1.19,1.19,0,0,0-.22-1.51,16.07,16.07,0,0,0-6.75-4.92c-.42-.14-1.24-.84-1.63.14-.3.77.23,1.1.9,1.39A14.58,14.58,0,0,1,214.79,195Z"
     id="path1406" />
  <path
     d="M213.5,205.71a1.23,1.23,0,0,0,.39-1.38c-.09-.52-6.68-5.68-7.27-5.71a.85.85,0,0,0-.86.56.84.84,0,0,0,.33,1.17c2.37,1.43,4.14,3.58,6.42,5.12C212.82,205.68,213,206,213.5,205.71Z"
     id="path1408" />
  <path
     d="M236.84,201.59c.42-.06.25-.51.38-.76a1.93,1.93,0,0,0,.35-1.2,4,4,0,0,0-.24-1.13c-.57-2-2.1-3.53-3.13-5.3-.46-.78-1.14-1.41-2-.95-1.23.68-.11,1.42.29,2,1.47,2.07,3.62,3.76,3.66,6.6C236.18,201,236.31,201.66,236.84,201.59Z"
     id="path1410" />
  <path
     d="M239.42,180.25c-.66.62-.23,1.36.4,2,1.76,1.69,4,2.89,5.5,4.83a.91.91,0,0,0,1.2.14c.29-.2.54-.3.51-.6,0-.6-.42-.85-.74-1.14-1.71-1.55-3.43-3.09-5.14-4.64C240.64,180.35,240,179.66,239.42,180.25Z"
     id="path1412" />
  <path
     d="M254.35,218.45c-1.76,2.29-2.78,5.09-5.12,7-.22.17-.59.36-.4.74s.45.44,1,.39a2.8,2.8,0,0,0,1-.5,34.68,34.68,0,0,0,5.13-6.92.86.86,0,0,0-.47-1.27C254.9,217.58,254.7,218,254.35,218.45Z"
     id="path1414" />
  <path
     d="M221.82,222.22a19.91,19.91,0,0,0,.39-5.5v-4.3c0-.55-.17-1.09-.81-1.07s-.78.56-.76,1.11,0,.89,0,1.33c0,2.77.5,5.56-.36,8.31-.11.35-.22,1,.49,1S221.65,222.78,221.82,222.22Z"
     id="path1416" />
  <path
     d="M229,163.37a49.8,49.8,0,0,1,8.06-.8c.57,0,1.15-.12,1.17-.71,0-.74-.66-.71-1.25-.85-.81-.19-1.43.33-2.23.28a37.56,37.56,0,0,0-5.76.18c-.74.08-1.81.32-1.66,1.45S228.38,163.24,229,163.37Z"
     id="path1418" />
  <path
     d="M195.36,239.76c-.34.66-.56,1.22.18,1.63a1.17,1.17,0,0,0,1.7-.8c.57-1.7,1.94-3.23,1.33-4.91,0-.69,0-1.07,0-1.45,0-.67.23-1.72-.64-1.75s-.92,1-.94,1.75A12.58,12.58,0,0,1,195.36,239.76Z"
     id="path1420" />
  <path
     d="M256.42,167.26c.58.38,1,.18,1.15-.28.18-.64-.35-.8-.89-1-3.25-.95-6.47-2-9.07-4.22-.38-.33-.84-.58-1.18-.2a.91.91,0,0,0,.13,1.34C249.36,165.5,253.16,165.92,256.42,167.26Z"
     id="path1422" />
  <path
     d="M231.11,189.47c.79.67,1.12.07,1.38-.68-.21-.41-.31-1.06-.67-1.27-1.83-1-2.93-2.76-4.47-4.05-.41-.34-.87-.84-1.34-.48s-.33,1,0,1.54A24.52,24.52,0,0,0,231.11,189.47Z"
     id="path1424" />
  <path
     d="M276.06,245.79c-1.55,1-3.07,2-4.64,3-.49.31-.87.63-.68,1.2s.77.31,1.18.33c1.51.08,2.5-1,3.46-1.82a9,9,0,0,0,3.37-4.22C277.19,244.26,276.82,245.29,276.06,245.79Z"
     id="path1426" />
  <path
     d="M213,215.48a1.23,1.23,0,0,0-1.23-1c-.68.12-.67.89-.51,1.45.74,2.56,1.55,5.11,2.3,7.67.13.43.17,1,.73.84s.49-.68.44-1.13A51.74,51.74,0,0,0,213,215.48Z"
     id="path1428" />
  <path
     d="M215.19,176.87c-.35-.36-.5-.86-1.29-.86-.44.27-.87.41-.47,1.35.89,2.07,2.72,3.13,4.42,4.33a1.13,1.13,0,0,0,1.78-.34,1.39,1.39,0,0,0-1.07-1.81C216.84,179.25,216.19,177.87,215.19,176.87Z"
     id="path1430" />
  <path
     d="M255.87,171.46a.5.5,0,0,0,.17.8,13.77,13.77,0,0,1,4.38,4.22c.32.44,1.15,1,1.7.56.7-.51.26-1.33-.15-1.86a21,21,0,0,0-3.84-3.75,3,3,0,0,0-1-.39C256.46,171,256.13,171.12,255.87,171.46Z"
     id="path1432" />
  <path
     d="M154.35,229.15c-.67.14-.72.58-.72,1.12a29.68,29.68,0,0,0,1,7.55c.84-.49,1.49-.83,1.39-1.56-.3-2.09-.16-4.23-.74-6.3C155.1,229.47,155.09,229,154.35,229.15Z"
     id="path1434" />
  <path
     d="M165.73,199.12a.89.89,0,0,0-1.21.23,14.37,14.37,0,0,0-2.93,5.77c-.2.72.33,1.36,1,1.92.22-.27.47-.45.52-.67a20.29,20.29,0,0,1,3-6.34C166.41,199.59,166,199.32,165.73,199.12Z"
     id="path1436" />
  <path
     d="M228.66,179.19c-.41.7.41.69.7.83,2.09,1.07,4.62,1.09,6.53,2.59a.46.46,0,0,0,.77-.23c.21-.54.33-1.19-.26-1.57-2-1.25-4.46-1.42-6.39-2.54A1.59,1.59,0,0,0,228.66,179.19Z"
     id="path1438" />
  <path
     d="M250.15,218.21c1.25-2,1.61-4.31,2.37-6.62-.16-.28-.28-.83-.61-1-.48-.25-.87.29-1.06.64-1.2,2.16-1.34,4.66-2.21,6.93-.07.18.1.64.2.65A1.37,1.37,0,0,0,250.15,218.21Z"
     id="path1440" />
  <path
     d="M269.23,253.55a17,17,0,0,0-1.73.78c-2.33,1.76-4.76,3.39-7.14,5.09-.34.24-1.23.16-.84.9s1.06.12,1.49-.08c3-1.43,5.29-4,8.32-5.38a.87.87,0,0,0,.54-.94C269.81,253.54,269.61,253.31,269.23,253.55Z"
     id="path1442" />
  <path
     d="M260.08,212c-.1.34-.2.88.2,1s.72-.31,1-.7c.88-1.41.9-3.09,1.56-4.58.48-1.08.82-2.22,1.21-3.28-.16-.5.27-1.2-.58-1.26-.62,0-.88.35-1,.92C261.64,206.78,260.83,209.4,260.08,212Z"
     id="path1444" />
  <path
     d="M171.82,191.12c.59-.43.14-.89-.06-1.33s-.61-.41-1-.29c-1.46.5-4.19,5.08-4,7.12C168.93,194.83,169.88,192.54,171.82,191.12Z"
     id="path1446" />
  <path
     d="M269.47,179c.13.6.21,1.29.94,1.12.58-.13,1.11-.67,1-1.82-.52-1.85-2.06-3.53-3.44-5.29-.17-.22-.86-.19-1.26.15s-.05.9.13,1.13A12.11,12.11,0,0,1,269.47,179Z"
     id="path1448" />
  <path
     d="M250,241.58c-.31-.47-.67-.19-1-.06a30.82,30.82,0,0,0-7.93,4.85.87.87,0,0,0-.29,1c0,.13.3.19.44.28s.46-.05.59-.17c2.33-2.12,5.17-3.47,7.89-5C250.05,242.34,250.32,242,250,241.58Z"
     id="path1450" />
  <path
     d="M245.32,167.5c1.6,1.13,3.21,2.24,4.87,3.28.58.37,1.36.63,1.6-.5-.06-.24,0-.59-.19-.71-1.8-1.29-3.61-2.56-5.46-3.78-.62-.41-1,.26-1.21.62S245,167.26,245.32,167.5Z"
     id="path1452" />
  <path
     d="M252.11,201.16c-.06-.74-.29-1.65-1.32-1.79-.88.14-.62.79-.58,1.2.21,1.72.53,3.43.76,5.15.07.51.44.75.74,1.07s.79.85,1.32.54a1.1,1.1,0,0,0,.21-1.53C252.24,204.37,252.23,202.79,252.11,201.16Z"
     id="path1454" />
  <path
     d="M158.38,243.78c-.18-.5.45-1.47-.69-1.43s-.9.9-.9,2c.57,1.45.78,3.44,1.75,5.21.29.52.57,1.07,1.3.61s.5-.86.26-1.48C159.47,247.09,159,245.42,158.38,243.78Z"
     id="path1456" />
  <path
     d="M231.52,217.68a.83.83,0,0,0,1.06-.24c.37-.43,1-.68,1-1.33q.34-3.07.67-6.14a.69.69,0,0,0-.44-.92c-.58-.26-.51.39-.77.6a1.86,1.86,0,0,0-.63,1.7,10.46,10.46,0,0,1-1,5.3C231.24,217,231.16,217.46,231.52,217.68Z"
     id="path1458" />
  <path
     d="M271.62,241.53a2.14,2.14,0,0,0,.55-1,.9.9,0,0,0-.37-1.16c-.45-.32-.73,0-1,.28q-3.08,3.43-6.14,6.87l.42.39C267.63,245.57,269.26,243.12,271.62,241.53Z"
     id="path1460" />
  <path
     d="M183.59,269.27c-.15-.68-.57-1-1.24-.86s-.78.76-.73,1.29c0,1.56,2.36,3.93,3.91,4,.4,0,1,.25,1.16-.36a1.22,1.22,0,0,0-.44-1.27C185.35,271.15,183.91,270.69,183.59,269.27Z"
     id="path1462" />
  <path
     d="M255.41,225.13a1.29,1.29,0,0,0-1.26.18,37.68,37.68,0,0,0-3.87,3.46c-.82,1-1.81,1.8-2.63,2.78a.71.71,0,0,0,0,1c.31.29.58,0,.81-.25l6.75-6.17c.19-.17.34-.37.55-.61C255.6,225.39,255.53,225.16,255.41,225.13Z"
     id="path1464" />
  <path
     d="M282.4,214.16a1.38,1.38,0,0,0-1.48.94c-.81,2-1.1,4.2-2.63,5.92-.25.28-.33.87.37.93.67-.33,1.4-.57,1.74-1.23.84-1.68,1.66-3.37,2.41-5.09C283,215.11,283.07,214.3,282.4,214.16Z"
     id="path1466" />
  <path
     d="M272.22,216.09a5.13,5.13,0,0,0-1.32,1.62c-.78,1.71-1.66,3.38-2.4,5.1-.17.42-1.08,1-.25,1.39s1.34-.33,1.5-.89c.48-1.67,1.71-2.92,2.38-4.48a18.07,18.07,0,0,1,1.31-2.18,4.38,4.38,0,0,0-.39-.56A.54.54,0,0,0,272.22,216.09Z"
     id="path1468" />
  <path
     d="M167.13,248.59c.25.46.64,1.15,1.31.88s.67-1,.46-1.66a13,13,0,0,1-1.08-3.76c0-.74-.05-1.7-1.05-1.69s-.85,1-.92,2A14.89,14.89,0,0,0,167.13,248.59Z"
     id="path1470" />
  <path
     d="M277.17,193.64c-.93.2-.61.86-.46,1.35.56,1.84,1.5,3.62.74,5.34-.13.89-.06,1.57.65,1.64s.7-.66.89-1.2c.79-2.19-.17-4.19-.57-6.24A1,1,0,0,0,277.17,193.64Z"
     id="path1472" />
  <path
     d="M277.14,190c0,.27.16,1,.81.82a.92.92,0,0,0,.6-1.08c-.37-2.45-1.89-4.4-3-6.52a1,1,0,0,0-1.4-.26c-.59.36-.1.8.09,1.27C275,186.27,276.81,187.79,277.14,190Z"
     id="path1474" />
  <path
     d="M206.6,183.47c1.08,1.07,2.05,2.2,3,3.33a6.89,6.89,0,0,0,1.69,1c.18-.17.41-.3.51-.49a1,1,0,0,0-.29-1.19q-1.86-1.95-3.66-3.95c-.47-.52-1-.93-1.6-.37S206.24,183.11,206.6,183.47Z"
     id="path1476" />
  <path
     d="M238.11,173.73a27.65,27.65,0,0,0-4.75-1.53c-.8-.07-1.38,0-1.47.44a.92.92,0,0,0,.74,1.1,16.61,16.61,0,0,1,4.48,1.87c.53.29,1.24.7,1.57-.25A1.22,1.22,0,0,0,238.11,173.73Z"
     id="path1478" />
  <path
     d="M195.4,228.28c-.16-.54.46-1.51-.45-1.56-.72,0-1,.93-1.07,1.59a25.55,25.55,0,0,1-1,5.12c-.18.65-.26,1.29.35,1.39a1.24,1.24,0,0,0,1.4-1c.22-1.67.94-3.25.81-5A2,2,0,0,0,195.4,228.28Z"
     id="path1480" />
  <path
     d="M272.28,227.78c-.72-.17-1.09.35-1.43.79-1.28,1.71-2.09,3.74-3.77,5.18-.38.33-.56.8-.13,1.14s.84.08,1.19-.28a18.85,18.85,0,0,0,2.18-2.18c.9-1.28,1.59-2.68,2.3-3.91C272.64,228.1,272.6,227.85,272.28,227.78Z"
     id="path1482" />
  <path
     d="M257.26,189.64c-.41.33-.57.85-.22,1.17,1.45,1.32,2,3.17,3,4.73.25.38.37.77,1,.46.42-.2.62-.4.52-1.23a20,20,0,0,0-3.07-5.12A.83.83,0,0,0,257.26,189.64Z"
     id="path1484" />
  <path
     d="M280.42,181.77a1.08,1.08,0,0,0,1.43.67c.72-.32.72-.85.41-1.57a8.78,8.78,0,0,0-3-3.77,6.24,6.24,0,0,0-1.6-1.11,1,1,0,0,0-.16,1.44A10.5,10.5,0,0,1,280.42,181.77Z"
     id="path1486" />
  <path
     d="M271.8,195.23c-.62.26-.42,1-.29,1.34a9.83,9.83,0,0,1,.75,4.23c-.05.61-.15,1.46.69,1.54s.95-.89,1.22-1.47a2.08,2.08,0,0,0,0-1c.16-1.55-.58-2.72-1-3.95A1.1,1.1,0,0,0,271.8,195.23Z"
     id="path1488" />
  <path
     d="M265.87,225.14a1.72,1.72,0,0,0-1.38,1.17,21.64,21.64,0,0,1-3.15,5.33c-.22.27-.75.53-.35.92s.84.14,1.2-.21a25.92,25.92,0,0,0,3.9-4.91,2.73,2.73,0,0,0,.25-1.3C266.23,225.79,266.6,225.08,265.87,225.14Z"
     id="path1490" />
  <path
     d="M283.7,242.74a2.41,2.41,0,0,0-1.18.93,29.8,29.8,0,0,1-4.78,7.1c.34.39.73.44,1,.26,2.7-2,4.07-5,5.65-7.78C284.67,242.72,284,242.6,283.7,242.74Z"
     id="path1492" />
  <path
     d="M179.24,267.91c-.2-.33-.41-.71-.86-.62a.8.8,0,0,0-.67.8c0,1.58-.07,3.16,0,4.74a1.32,1.32,0,0,0,1.44,1.24c.73,0,.91-.6.86-1.39C179.09,271.3,180.19,269.45,179.24,267.91Z"
     id="path1494" />
  <path
     d="M252.39,193.69a9.32,9.32,0,0,1-1.92-4.84c0-.29-.72-.85-.91-.78-.52.2-1.11.64-.92,1.29.58,2,1,4.15,2.79,5.65.21.18.39.55.79.25s.34-.52.32-1.08A1.19,1.19,0,0,0,252.39,193.69Z"
     id="path1496" />
  <path
     d="M204.06,201.67a6,6,0,0,1-1.92-2.21c-.22-.41-.44-.93-.93-.77a1.55,1.55,0,0,0-1.09,1.35,9.48,9.48,0,0,0,2.47,3.42c.48.4,1,1.18,1.71.41A1.33,1.33,0,0,0,204.06,201.67Z"
     id="path1498" />
  <path
     d="M265.43,199.18c.35.33.57.7,1,.52a.92.92,0,0,0,.63-1.24,25.29,25.29,0,0,0-2.31-4.61,4.53,4.53,0,0,0-.69-.6c-.8.17-1.17.81-.86,1.27C264.21,196,264.07,197.89,265.43,199.18Z"
     id="path1500" />
  <path
     d="M285.27,209.42c0,.23-.06.58.31.58a.88.88,0,0,0,.64-.3,3.27,3.27,0,0,0,.63-1.93c-.07-2,.18-4-.71-6.21-.66.52-1.46.83-1.26,1.66A30.17,30.17,0,0,1,285.27,209.42Z"
     id="path1502" />
  <path
     d="M268.12,190.46c0-2.53-1.17-4.66-2.45-6.73a1.26,1.26,0,0,0-1-.35c-.37,0-.34.55-.25.8C265.22,186.49,265.81,188.92,268.12,190.46Z"
     id="path1504" />
  <path
     d="M258.12,225.86c1.09-.47,5.32-5.38,5.8-6.52a.88.88,0,0,0-.4-1.23C260.92,220,259.36,222.49,258.12,225.86Z"
     id="path1506" />
  <path
     d="M255.72,197c.15,1.82,1.38,3.16,2.2,4.68a.83.83,0,0,0,1,.32.92.92,0,0,0,.67-.92c0-.29-.2-.51-.39-.77a16,16,0,0,1-1.83-3.71c-.17-.47-.07-1.3-1-1C255.72,195.8,255.67,196.39,255.72,197Z"
     id="path1508" />
  <path
     d="M165.49,237.22c.32-2.22-.18-4.43-.15-6.65,0-.15-.34-.4-.56-.45-.43-.1-.45.32-.61.58-.62,1-.11,2.11-.32,3.15.21,1.11-.29,2.26.36,3.34.21.34,0,.93.73.87S165.44,237.58,165.49,237.22Z"
     id="path1510" />
  <path
     d="M168.53,186.19c-.12-.34-.51-.74-.84-.24-1.23,1.86-2.95,3.5-3,5.81.12.68-.25,1.6.63,1.63.6,0,1-.68,1-1.43,0-1.66,1.11-2.89,1.93-4.2A1.75,1.75,0,0,0,168.53,186.19Z"
     id="path1512" />
  <path
     d="M238.92,214.07c-.82,0-.93,1.27-1,2.13,0,.25,0,.51,0,.76,0,1.33,0,2.63-1.13,3.64-.41.38-.74.88-.21,1.27s1-.05,1.32-.45a6.16,6.16,0,0,0,1.59-4.74,2.17,2.17,0,0,0,0-.65C239.28,215.36,240.19,214.07,238.92,214.07Z"
     id="path1514" />
  <path
     d="M240.94,208.32c.73,0,1-.82,1-1.6,0-.23.18-.46.35-.85-.23-.93-.57-2-.75-3.08-.12-.71-.08-1.65-1.05-1.42-.81.19-1.08.95-.74,1.94a8.41,8.41,0,0,1,.61,3.31C240.33,207.22,240,208.26,240.94,208.32Z"
     id="path1516" />
  <path
     d="M193.84,208.37a5.73,5.73,0,0,1,1.57,2.93c.12.6.21,1.45.93,1.37s.65-1,.67-1.59c0-2-1.55-3.12-2.62-4.54-.31-.41-.46-1.28-1.17-.84-.29.18-.15,1.06-.15,1.63S193.53,208.06,193.84,208.37Z"
     id="path1518" />
  <path
     d="M255.6,214.3c.51.19.43-.41.64-.68,1.64-2.07,1.86-4.73,3-7,.15-.3.81-.78,0-1-.51-.18-.91-.1-1.29.65-1.22,2.41-1.6,5.08-2.74,7.5C255.12,214,254.9,214.29,255.6,214.3Z"
     id="path1520" />
  <path
     d="M193.39,194.35c-1.13,0-2.33.34-3.42-.31-.61-.36-1.32-.34-1.58.32s0,1.24.86,1.59c2,.77,3.78.09,5.78-.17C194.75,194.8,194.42,194.31,193.39,194.35Z"
     id="path1522" />
  <path
     d="M224.12,227.8c2.61-1,4.67-5.13,4-8.15C226.23,222.39,225.81,225.41,224.12,227.8Z"
     id="path1524" />
  <path
     d="M222.08,197.24c-.31-.27-.89-.9-1.51-.27s-.3,1.17.25,1.62a7.56,7.56,0,0,1,2,2.73c.23.49.38,1.25,1.15,1s.63-.88.6-1.26C224.62,199.1,223.21,198.23,222.08,197.24Z"
     id="path1526" />
  <path
     d="M202.1,192.84c0-.9-.78-1.1-1.29-1.07a4.58,4.58,0,0,1-2.84-.9c-.65-.41-1.23-.48-1.65.22s.07,1.09.54,1.44c1.25.94,2.82,1.06,4.28,1.43C201.81,194.12,202.12,193.49,202.1,192.84Z"
     id="path1528" />
  <path
     d="M270.59,206c-1.09-.15-1,1-1.12,1.8-.26,1.28-.59,2.55-1,3.8-.16.55-.49,1.21.15,1.49.79.35,1.14-.38,1.36-1,.47-1.35,1.2-2.65,1-4.31C270.85,207.29,271.56,206.13,270.59,206Z"
     id="path1530" />
  <path
     d="M244.52,176.76c-.69.07-.85.61-.54.89,1.54,1.38,2.83,3.08,4.9,3.82.76.27.82-.24.9-.7C249.71,179.8,245.5,176.66,244.52,176.76Z"
     id="path1532" />
  <path
     d="M163.88,217.81c-.6.13-1,.61-.73,1.15.69,1.58.62,3.31,1.12,4.92.11.36,0,.78.61.77s.5-.43.62-.79.44-.78.37-1.26c-.28-1.34-.54-2.69-.84-4A.9.9,0,0,0,163.88,217.81Z"
     id="path1534" />
  <path
     d="M264.1,211.11c-.17.73-1.33,2.3.09,2.62,1.58.35,1-1.5,1.15-2.24.42-2,1.44-3.81,1.34-6.32C264.38,206.95,264.55,209.2,264.1,211.11Z"
     id="path1536" />
  <path
     d="M168.29,232.32a1.08,1.08,0,0,0,1.15,1,1.1,1.1,0,0,0,.7-1.36,8.49,8.49,0,0,1-.33-3.37c0-.81-.37-1.89-1-1.85-.88.06-1.12,1.08-1,2a5.6,5.6,0,0,1,0,.57C167.52,230.26,168.33,231.22,168.29,232.32Z"
     id="path1538" />
  <path
     d="M188,230.66c-.6.2-.58.9-.38,1.32a5,5,0,0,1,.11,5c-.25.45,0,.71.3.94s.74,0,1-.28c.76-.84.67-2,.94-2.8a9,9,0,0,0-.86-3.36C188.87,231,188.54,230.47,188,230.66Z"
     id="path1540" />
  <path
     d="M280.79,204.87a.54.54,0,0,0-.81.26c-.69,2.36-2,4.55-2.33,7.37,2.63-1.79,2.9-4.36,3.64-6.68C281.43,205.41,281.14,205.08,280.79,204.87Z"
     id="path1542" />
  <path
     d="M229.08,204.15a1.27,1.27,0,0,0-1.19,1.05c-.18,2.36-.5,4.73.27,7h.5c.34-2.43.69-4.86,1-7.29C229.73,204.53,229.47,204.11,229.08,204.15Z"
     id="path1544" />
  <path
     d="M225.66,232.38a1.11,1.11,0,0,0-1.49.8,10.73,10.73,0,0,1-2.64,4c-.63.61-.49,1-.29,1.85,2.1-1.42,3.16-3.54,4.8-5.11C226.31,233.69,226.57,232.65,225.66,232.38Z"
     id="path1546" />
  <path
     d="M185.15,232.7c.1-.57.06-1.28-.62-1.41-.88-.18-1,.73-1.21,1.23-.52,1.18.48,2.3.29,3.51-.1.65-.18,1.64.83,1.56a1.34,1.34,0,0,0,1.13-1.62C185.61,234.78,185,233.8,185.15,232.7Z"
     id="path1548" />
  <path
     d="M257,179.25c-.77.43-.44,1.05-.09,1.64.67,1.14,1.33,2.29,1.94,3.45.23.43-.25,1.32.78,1.18.87-.11.86-.82,1.11-1.63-.85-1.29-1.72-2.57-2.54-3.88C257.86,179.56,257.74,178.81,257,179.25Z"
     id="path1550" />
  <path
     d="M199.76,221.12c0,.28-.13.68.32.76a.65.65,0,0,0,.73-.48,15.92,15.92,0,0,0,.38-6.52c0-.27-.17-1-.8-.86a.91.91,0,0,0-.65,1c0,1,0,2,0,3S199.74,220.11,199.76,221.12Z"
     id="path1552" />
  <path
     d="M180.09,235.07c-.75.18-.46.86-.41,1.27.19,1.54.52,3.07.75,4.6.1.65-.19,1.64.8,1.64s.75-1,.81-2c-.5-1.29-.27-3-1.09-4.58C180.74,235.63,180.93,234.87,180.09,235.07Z"
     id="path1554" />
  <path
     d="M244.28,191.24c-.45.41-.46.74-.33,1,.91,1.91,2.35,3.54,3.07,5.55a.59.59,0,0,0,.75.39c.57-.08.47-.56.43-.89C247.88,194.66,246.14,192.93,244.28,191.24Z"
     id="path1556" />
  <path
     d="M167,251.88c-.1-.58.46-1.55-.83-1.51-1.12,0-.67.88-.72,1.42-.17,1.75.3,3.53-.37,5.25-.1.27-.21.82.37.9a.7.7,0,0,0,.71-.55c.42-1.36,1.26-2.65.86-3.91A11.36,11.36,0,0,0,167,251.88Z"
     id="path1558" />
  <path
     d="M228.78,195.65c-.34-.42-.92-1.07-1.56-.5a1.06,1.06,0,0,0,.09,1.67,6.14,6.14,0,0,1,1.51,2.77c.21.51.15,1.29.9,1.23s.75-.87.76-1.88A7.89,7.89,0,0,0,228.78,195.65Z"
     id="path1560" />
  <path
     d="M254.7,243.57l-.37.19c-2.14,1-3.3,2.86-4.48,4.7-.24.37.08,1,.7.54,1.54-1.25,3-2.56,4.47-3.92C255.57,244.55,255.42,243.95,254.7,243.57Z"
     id="path1562" />
  <path
     d="M281.91,191.22a60.59,60.59,0,0,1,.61,7.15.52.52,0,0,0,.57.6c.42,0,.57-.25.57-.6,0-.89,0-1.79,0-3a10.76,10.76,0,0,0-.4-4,.82.82,0,0,0-.74-.75A.54.54,0,0,0,281.91,191.22Z"
     id="path1564" />
  <path
     d="M254.83,232.12a1.46,1.46,0,0,0-1.65.6c-1.09,1.21-2.08,2.51-3.13,3.77-.17.21-.32.47-.13.65a1.18,1.18,0,0,0,.73.16c.58,0,4.53-3.63,4.63-4.22,0-.06,0-.13,0-.58A1.81,1.81,0,0,0,254.83,232.12Z"
     id="path1566" />
  <path
     d="M160.17,226.33c-.08-.34.06-1.21-.65-1.18s-.76.71-.76,1.3a18.28,18.28,0,0,0,.37,4.69c.16.61.26,1.18,1,1.15,1,0,.45-.84.68-1.47C160.2,229.47,160.51,227.86,160.17,226.33Z"
     id="path1568" />
  <path
     d="M175,231.63c.74-2.69-.63-4.38-1.21-6.24a1.09,1.09,0,0,0-1.27-.69c-.46.09-.45.47-.38.74A15.93,15.93,0,0,0,175,231.63Z"
     id="path1570" />
  <path
     d="M174,220.79a2.16,2.16,0,0,0-.41-2.47c-.75-.93-.77-2.43-1.79-2.79-1-.12-1.23.25-1.16.76a9.08,9.08,0,0,0,2.39,4.53A.57.57,0,0,0,174,220.79Z"
     id="path1572" />
  <path
     d="M208.08,166.92a4.92,4.92,0,0,1,2.66-.91c.74-.08,1.65-.12,1.59-1.2-.06-1.23-1.09-.46-1.58-.71a4.89,4.89,0,0,0-3.67,1.51c-.33.31-1,.62-.38,1.22A.91.91,0,0,0,208.08,166.92Z"
     id="path1574" />
  <path
     d="M253.81,255.19c-1.5.24-3,.63-4.46.87-.76.12-.78.53-.71,1.07.09.69.66.43,1.31.55,1.18-.88,3,0,4.41-1.1a1.07,1.07,0,0,0,.52-1.24C254.7,254.54,254.11,255.15,253.81,255.19Z"
     id="path1576" />
  <path
     d="M174.35,211.88c1.4,0,1.5,1.12,2.12,1.8.31.34.57,1,1.17.78s.4-.86.45-1.68c-.27-1.37-1.47-2.2-3-2.66-.4-.12-1-.6-1.25.19C173.63,210.94,173.62,211.87,174.35,211.88Z"
     id="path1578" />
  <path
     d="M162.29,209.06a.49.49,0,0,0-.5-.46.54.54,0,0,0-.65.52,17.88,17.88,0,0,0-.45,3.15c0,.82-1.11,2,.26,2.34,1.6.37,1.11-1.48,1.71-2.22.13-.16,0-.49,0-1S162.43,209.92,162.29,209.06Z"
     id="path1580" />
  <path
     d="M179.1,219.89c-.59,2.69,1.54,4.68.9,7.21C182.34,225.43,182,222.83,179.1,219.89Z"
     id="path1582" />
  <path
     d="M260.35,250.36c.37-.52,0-1.49-.88-1.1a8.94,8.94,0,0,0-3.79,2.38c-.22.28-.55.59-.17,1a1,1,0,0,0,.85.38A7.52,7.52,0,0,0,260.35,250.36Z"
     id="path1584" />
  <path
     d="M210.18,197.32c.27.42,1,.11,1.27-.4a1.24,1.24,0,0,0,.11-.54,3.24,3.24,0,0,0-2.54-2.65c-.55.45-1.86.1-1.72,1.15C207.5,196.34,209.45,196.17,210.18,197.32Z"
     id="path1586" />
  <path
     d="M198.78,177.14a.9.9,0,0,0,1.38.17,8,8,0,0,1,3.09-1.69,1,1,0,0,0,.65-1c0-.34-.48-.56-.95-.53a7.78,7.78,0,0,0-4.1,1.89A.79.79,0,0,0,198.78,177.14Z"
     id="path1588" />
  <path
     d="M175.07,241.84c.37-.13.64-.43.62-1.18a28.4,28.4,0,0,1-2.19-4c-.08-.16-.76-.14-1.08,0-.17.07-.29.57-.23.83a11.43,11.43,0,0,0,1.91,4A.75.75,0,0,0,175.07,241.84Z"
     id="path1590" />
  <path
     d="M217.7,233.4c.66.16,1.13-.45,1.26-1a11.43,11.43,0,0,0,0-2.48c-.14-.39.27-1.21-.24-2-.29-.46-.52-.71-1-.52s-.74.45-.56.87a5.27,5.27,0,0,1-.07,3.84A1,1,0,0,0,217.7,233.4Z"
     id="path1592" />
  <path
     d="M277.84,233.34c-.89,1.43-1.74,2.89-2.61,4.33-.25.42-.26.7.38.79a1.8,1.8,0,0,0,.49-.14c1.77-1,2.41-2.81,3.21-4.48a.47.47,0,0,0-.39-.7C278.54,233.1,278.07,233,277.84,233.34Z"
     id="path1594" />
  <path
     d="M280.88,225.08c.23-.16.69-.66.26-1.15s-1-.08-1.3.14c-1.64,1.16-2,3.08-2.82,4.74-.19.4,0,.9.81.8.37-.08.52-.45.76-.85C279.34,227.54,279.58,226,280.88,225.08Z"
     id="path1596" />
  <path
     d="M231.12,230.7a1,1,0,0,0,.88-.09c1-1.39,2-2.82,2.91-4.08-.21-.68.15-1.24-.47-1.43a1,1,0,0,0-1.14.53c-.95,1.33-1.21,3-2.33,4.25A.54.54,0,0,0,231.12,230.7Z"
     id="path1598" />
  <path
     d="M273.07,210.8c-.07.25-.13.7.31.75s.67-.29.82-.66l1.72-4.12c.3-.73.74-1.44,0-2.39C274,206.17,273.72,208.57,273.07,210.8Z"
     id="path1600" />
  <path
     d="M220.5,208.46a1,1,0,0,0,.49-1.31,21.22,21.22,0,0,0-1.42-2.82c-.2-.34-.54-.83-1.07-.65a1.07,1.07,0,0,0-.64,1.25,7.12,7.12,0,0,0,1.46,3.17A1,1,0,0,0,220.5,208.46Z"
     id="path1602" />
  <path
     d="M260,240.88c.29.23.55.34.84.07a25.33,25.33,0,0,1,3.93-2.68c.2-.12.3-.37.55-.68-.61-.4-1-1.18-1.79-.72a9.51,9.51,0,0,0-3.46,3.21C259.89,240.31,259.57,240.56,260,240.88Z"
     id="path1604" />
  <path
     d="M211.45,180.85c.28-.43-.09-.83-.3-1a22.82,22.82,0,0,0-3-1.91,1,1,0,0,0-1.25.21c-.15.22-.19.79,0,.9,1.09.81,1.88,2.07,3.37,2.31A1.15,1.15,0,0,0,211.45,180.85Z"
     id="path1606" />
  <path
     d="M195.8,175.66a29.48,29.48,0,0,0-2.88,1.08,1.2,1.2,0,0,0-.5,1.81c.55.77,1,0,1.47-.3a6.52,6.52,0,0,1,2.59-1.05c.78-.1,1.15-.55,1.13-1S196.89,175.57,195.8,175.66Z"
     id="path1608" />
  <path
     d="M259,215.92a12.6,12.6,0,0,0-1.93,5.6c2.07-1.2,2.14-3.47,3.31-5.11a.74.74,0,1,0-1.38-.49Z"
     id="path1610" />
  <path
     d="M226.87,192.41c.69.29,1.47-.28,1.18-1a6.3,6.3,0,0,0-2.62-2.71c-1.2-.19-1.43.33-1.22,1A4.6,4.6,0,0,0,226.87,192.41Z"
     id="path1612" />
  <path
     d="M176.21,252.73a2.13,2.13,0,0,1-1.65-1.16,1,1,0,0,0-1.18-.57,1,1,0,0,0-.28,1.49,7.42,7.42,0,0,0,2.86,2.36c.72.33,1.23-.11,1.33-.89A1.44,1.44,0,0,0,176.21,252.73Z"
     id="path1614" />
  <path
     d="M192.31,214.82c-.25,2.18.67,4.06,1.33,6.19C195,219.12,194.16,215.53,192.31,214.82Z"
     id="path1616" />
  <path
     d="M288.11,239.37c-1.34.74-1.59,2.11-2.1,3.27.11.44-.11.92.3,1.11a1,1,0,0,0,1.19-.38,5.93,5.93,0,0,0,1.53-3.65A.59.59,0,0,0,288.11,239.37Z"
     id="path1618" />
  <path
     d="M182.59,215c.09.27.42.86,1,.59.43-.2.38-.62.38-1.16-.53-1-.6-2.36-1.49-3.44-.36-.44-.63-.6-1.08-.4s-.81.78-.45,1.26A10.92,10.92,0,0,1,182.59,215Z"
     id="path1620" />
  <path
     d="M188.62,243.09a.62.62,0,0,0-.72.46,14.49,14.49,0,0,0-1.12,5.27c1.33-.74,2.7-4.09,2.31-5.26C189,243.3,188.93,243.11,188.62,243.09Z"
     id="path1622" />
  <path
     d="M241.5,226.71a6.87,6.87,0,0,0-.75,1.69,1,1,0,0,0,.85,1.23c.53.1.67-.27.81-.62.23-.57.48-1.14.69-1.72s1.13-1.76.46-2.08C242.54,224.72,242,225.89,241.5,226.71Z"
     id="path1624" />
  <path
     d="M283.14,224.29a.39.39,0,0,0,.74-.05,31.93,31.93,0,0,1,2.09-4.77c.17-.4-.16-.68-.57-.79a3.55,3.55,0,0,0-1.68,2.25C283.53,222,282.4,223,283.14,224.29Z"
     id="path1626" />
  <path
     d="M185.43,220.6a.62.62,0,0,0-.77-.43c-.4.14-.24.53-.28.82-.15,1.09.59,2.06.41,3.17-.09.54-.16,1.41.51,1.45s.82-.85,1-1.43a3.25,3.25,0,0,0,0-.92C186.65,222.3,185.82,221.51,185.43,220.6Z"
     id="path1628" />
  <path
     d="M216.37,162.16c1,0,2,.71,2.87.42a3.21,3.21,0,0,0,.76,0c.41-.13,1,.61,1.17-.06s-.47-.93-1-1.07c-1.17-.28-2.35-.53-3.53-.77-.64-.13-.75.41-.87.8S216,162.15,216.37,162.16Z"
     id="path1630" />
  <path
     d="M267,216.5c-1.69,1-2.09,2.69-2.36,4.79,1.53-1.2,1.91-2.84,3.35-3.58.5-.26.37-.86.19-1.19C267.94,216,267.46,216.24,267,216.5Z"
     id="path1632" />
  <path
     d="M216.28,211.25c.07-1.15,0-2.41-1.19-2.54s-.74,1.1-.75,1.79c0,1-.26,2.22,1.27,2.24C216.82,212.76,216,211.68,216.28,211.25Z"
     id="path1634" />
  <path
     d="M182.25,180c.83-.4,2.15-.69,2.07-2,0-.64-.7-.76-1.57-.5-.75-.06-1.84,0-1.82,1.27C180.93,179.37,181.59,180.3,182.25,180Z"
     id="path1636" />
  <path
     d="M275.84,220.23c.39.19.6-.16.75-.39a5.1,5.1,0,0,0,1-4.12c-1.74.88-1.78,2.41-2.21,3.72A.67.67,0,0,0,275.84,220.23Z"
     id="path1638" />
  <path
     d="M270.35,185.58c-.53,0-1.08.16-.79.7a4.89,4.89,0,0,0,2,2.42c.9.45.84-.37,1-.63C272.75,187.55,271,185.6,270.35,185.58Z"
     id="path1640" />
  <path
     d="M202,185.2c-.71,0-1.19.46-1,1.11a2.4,2.4,0,0,0,1.7,1.58c.8-.14,1.07-.6,1-1.25A1.5,1.5,0,0,0,202,185.2Z"
     id="path1642" />
  <path
     d="M178.81,209.47c.57.12,1-.46.84-1.05,0-.75.16-1.61-.84-1.67-.57,0-.75.55-.75,1.11S178.1,209.32,178.81,209.47Z"
     id="path1644" />
  <path
     d="M180.66,246.18c-.28-.2-.57.14-.6.52-.09,1.11-.11,2.17,1.53,2.29C181.58,247.93,181.63,246.87,180.66,246.18Z"
     id="path1646" />
</svg>
