<svg width="18" height="16" viewBox="0 0 18 16" fill="none" xmlns="http://www.w3.org/2000/svg">
<path d="M17.7972 13.7504C18.374 14.7502 17.65 16 16.4979 16H1.50145C0.347171 16 -0.373516 14.7483 0.202171 13.7504L7.70048 0.749531C8.27758 -0.25075 9.72298 -0.248937 10.299 0.749531L17.7972 13.7504ZM8.99976 11.0625C8.20586 11.0625 7.56226 11.7061 7.56226 12.5C7.56226 13.2939 8.20586 13.9375 8.99976 13.9375C9.79367 13.9375 10.4373 13.2939 10.4373 12.5C10.4373 11.7061 9.79367 11.0625 8.99976 11.0625ZM7.63498 5.89544L7.8668 10.1454C7.87764 10.3443 8.04208 10.5 8.24123 10.5H9.7583C9.95745 10.5 10.1219 10.3443 10.1327 10.1454L10.3645 5.89544C10.3763 5.68063 10.2052 5.5 9.99011 5.5H8.00939C7.79426 5.5 7.62326 5.68063 7.63498 5.89544Z" fill="#FF4D4F"/>
</svg>
