<svg id="Слой_1" data-name="Слой 1" xmlns="http://www.w3.org/2000/svg" viewBox="0 0 156.09 156.09"><defs><style>.cls-1,.cls-2{fill:#8aad00;}.cls-1{opacity:0.2;}.cls-2{stroke:#000;stroke-miterlimit:10;stroke-width:0.75px;}.cls-3{fill:none;}.cls-4{fill:#f9c2cf;}.cls-5{fill:#a3a3a3;}.cls-6{fill:#fff;}</style></defs><title>heartex_icon_opossum_green</title><rect class="cls-1" x="38.09" y="38.04" width="80" height="80" rx="4.67" ry="4.67"/><path class="cls-2" d="M131,132.94H25.28a2,2,0,0,1-2-2V25.34a2,2,0,0,1,2-2H131a2,2,0,0,1,2,2v105.6A2,2,0,0,1,131,132.94Zm-103.69-4H129V27.34H27.28Z"/><rect class="cls-2" x="18.78" y="18.84" width="13" height="13" rx="1.69" ry="1.69"/><rect class="cls-2" x="124.25" y="18.84" width="13" height="13" rx="1.69" ry="1.69"/><rect class="cls-2" x="18.78" y="124.43" width="13" height="13" rx="1.69" ry="1.69"/><rect class="cls-2" x="71.64" y="18.84" width="13" height="13" rx="1.69" ry="1.69"/><rect class="cls-2" x="71.64" y="124.43" width="13" height="13" rx="1.69" ry="1.69"/><rect class="cls-2" x="124.25" y="124.43" width="13" height="13" rx="1.69" ry="1.69"/><rect class="cls-2" x="18.78" y="71.64" width="13" height="13" rx="1.69" ry="1.69"/><rect class="cls-2" x="124.25" y="71.64" width="13" height="13" rx="1.69" ry="1.69"/><path class="cls-3" d="M91.85,20.26a1.27,1.27,0,0,0,.67,1.21l-.61-1.33A.3.3,0,0,0,91.85,20.26Z"/><path class="cls-4" d="M86.77,15.59c-.37-.29-.68-.57-1-.81a7.49,7.49,0,0,0-1.82-1.13c-1.08-.34-1.68.44-2.38,1.06a7.73,7.73,0,0,0-2.66,6.78c0,.23.41.5-.13.61s-.49-.24-.61-.47a3.78,3.78,0,0,1,0-2.46,7.29,7.29,0,0,1,2.16-4.36c.75-.68,1.46-1.41,2.2-2.13a25.47,25.47,0,0,0-3.59-1.2,1.82,1.82,0,0,0-2.33,1,9.71,9.71,0,0,0-.86,2.6c-.26,1.88-.64,3.71.7,5.47.5.66.61,1.47,1.59,1.92s1.66,1.08,2.56,1.54C80.53,19.93,82.75,17.25,86.77,15.59Z"/><path class="cls-4" d="M70.15,18A2.93,2.93,0,0,0,73,20.44a9.93,9.93,0,0,1,1.58.27c.24.05.49.17.68,0s0-.39-.09-.58a6.55,6.55,0,0,1-.68-3,14,14,0,0,1,1.62-5.7l-3.79.36c-.26,0-.52.11-.78.15a10.38,10.38,0,0,0-1.47,2.29C69.61,15.47,70,16.74,70.15,18Z"/><path class="cls-4" d="M86.39,22.5a14.31,14.31,0,0,1,3.7-1.31c.28-.07.6-.1.65-.47a.88.88,0,0,1-.15-.27c-.26-1.61-1.61-2.67-2.47-4a.57.57,0,0,0-.8-.13,2.37,2.37,0,0,1-.72.3,7.45,7.45,0,0,0-4,3c-1.53,2-1.47,4.42-.55,6.74.07.17,0,.38.34.39s.33-.16.46-.36A10.35,10.35,0,0,1,86.39,22.5Z"/><path class="cls-4" d="M85,30.12a10.86,10.86,0,0,1,7.76-2.86c.94,0,1-.11.72-.87-.53-1.27-1.09-2.52-1.6-3.8A.9.9,0,0,0,90.75,22c-.32-.16-.64.1-1,.17a7.77,7.77,0,0,0-4.21,2,12.44,12.44,0,0,0-1.76,2.52,3.86,3.86,0,0,0-.33,3.08C83.7,30.76,84.18,30.84,85,30.12Z"/><path class="cls-4" d="M84.93,47.4a1.36,1.36,0,0,1,1-.5c.57-.08.8.33,1.1.62s.68.56,1-.07c.06-.14.24-.24.37-.35.78-.7,1.11-.71,2-.05.34.25.58.1.81-.17.88-1,1.25-1.1,2.24-.14.61.59,1.46-.32,2,.37a.31.31,0,0,0,.25,0,1.52,1.52,0,0,0,.27-.57,11.19,11.19,0,0,0,.2-2.58c-.19-1.51-.1-3-.32-4.53,0-.17,0-.54-.19-.44-1,.46-1.57-.28-2.28-.56a7.44,7.44,0,0,0-4.66-.28c-1.55.41-3.43.37-4,2.38A13.59,13.59,0,0,0,84,42.91a17.7,17.7,0,0,1,3.11-1.24,9.85,9.85,0,0,1,7.69.36,1.79,1.79,0,0,1,.62.47c.3.37.13.61-.34.67a1.21,1.21,0,0,1-.76-.18A7.53,7.53,0,0,0,91,41.88a13.22,13.22,0,0,0-5.28,1.26,6.72,6.72,0,0,0-2.15,1.29.84.84,0,0,0-.27,1c.19.26.59-.09.83-.22A10.63,10.63,0,0,1,87.74,44a13,13,0,0,1,3.68-.13c.88.15,1.72.4,2.59.56.46.09,1,.09,1.15.59.09.24.11.52-.18.66a1.43,1.43,0,0,1-1.37-.17,7.06,7.06,0,0,0-4-.79,14.58,14.58,0,0,0-6.11,1.74c-.23.1-.74.29-.47.74A1.08,1.08,0,0,0,84.93,47.4Z"/><path class="cls-4" d="M91.43,28.15A11.81,11.81,0,0,0,86.55,30a5,5,0,0,0-1.75,1.51c-.37.66-.15,1.48-.49,2.19-.07.15.11.4.17.61s.25.26.11.44-.22.37,0,.5.39,0,.56-.16.35-.2.52-.31A9.86,9.86,0,0,1,92,32.85c.9.07,1.88.16,2.2,1.34a5.14,5.14,0,0,1-1.46-.13,4.23,4.23,0,0,0-2.6-.27,16.7,16.7,0,0,0-2.87,1c-1.6.61-2.13,2-2.8,3.2-.06.11-.22.27,0,.43s.32,0,.48,0a14.87,14.87,0,0,1,2.39-.88,11.61,11.61,0,0,1,4.11-.44A10.22,10.22,0,0,1,95,38c.2.1.72.48.7-.1a11.24,11.24,0,0,0-.07-1.53c-.41-2.32-.8-4.65-1.24-7-.1-.5,0-1.25-.83-1.34A8.46,8.46,0,0,0,91.43,28.15Z"/><path class="cls-4" d="M75,24.28a1.92,1.92,0,0,0-1.43-.37,3.52,3.52,0,0,0-3,1.19.82.82,0,0,0-.15.92c.14.33.49.11.77.06a2.78,2.78,0,0,1,1,0A8.32,8.32,0,0,1,76.47,28c.53.49.68.25.9-.22C77.88,26.59,75.36,24.56,75,24.28Z"/><path class="cls-4" d="M71.64,26.8a6.25,6.25,0,0,0-1.66.85c-.86.77-.22.92.29,1.26a4.65,4.65,0,0,1,1.61,1.71,2.49,2.49,0,0,1-.11,2.61c-.16.26-.32.66-.07.86s.57-.06.86-.24c.87-.54,1.65-1.16,2.45-1.75,1.14-.84.44-2.08,1.22-2.9,0,0-.13-.22-.21-.33C75,27.49,73.45,27.07,71.64,26.8Z"/><path class="cls-4" d="M58.75,25.84a4.74,4.74,0,0,0,2.36,1.47,9,9,0,0,0,2.69.07c1.21-.29,2.27-2.6.66-3a8.12,8.12,0,0,1-3.76-.76,2.66,2.66,0,0,1-1.19-1.17.43.43,0,0,1,.21-.64c.26-.12.54-.05.6.18.26.91,1.16,1.1,1.93,1.33A3.48,3.48,0,0,0,66,22.65a8.78,8.78,0,0,1-4-4c-.09-.23-.19-.39,0-.58s.33-.35.61-.27a.42.42,0,0,1,.34.51c0,.3.15.51.25.76a6.31,6.31,0,0,0,2.73,2.59,1.8,1.8,0,0,0,2.5-.15c.38-.31.45-.6,0-.82a6.86,6.86,0,0,1-1.64-1.34,4.9,4.9,0,0,1-1.42-3.85,2,2,0,0,1,.25-.93.66.66,0,0,1,.83-.35c.39.15.09.39,0,.61a3.45,3.45,0,0,0,.9,3.89,4.21,4.21,0,0,0,2.58,1.59c.55,0,.31,0,.21-.3A15.3,15.3,0,0,1,69.29,17a7.84,7.84,0,0,1,.61-4.48,1.62,1.62,0,0,0-.25-.07,1.49,1.49,0,0,0-.52.1,15.33,15.33,0,0,0-7.94,5.15,9.47,9.47,0,0,0-2.47,6.62C58.73,24.81,58.49,25.35,58.75,25.84Z"/><path class="cls-4" d="M69.94,29.68a1.67,1.67,0,0,0-1.24-.39c-.47.07-.36.49-.55.73-1,1.25-1.94,2.67-4,2.7-.15,0-.33,0-.32.19a.38.38,0,0,0,.12.28,10,10,0,0,0,4.22,1.68,2.83,2.83,0,0,0,2.91-1.68A2.89,2.89,0,0,0,69.94,29.68Z"/><path class="cls-4" d="M64.59,31.79a4.35,4.35,0,0,0,2.89-2.6c.24-.47,0-.67-.52-.49-1.58.54-3.17,1-4.79,1.48-.71.19-.73.52-.16,1s1.5.45,2.16.64C64.38,31.92,64.47,31.81,64.59,31.79Z"/><path class="cls-4" d="M69.35,22.93a1,1,0,0,1,.8.6c.16.42.39.42.81.16a4.71,4.71,0,0,1,2.45-.64,5.27,5.27,0,0,1,3,.8,2.91,2.91,0,0,0-3.3-2.43,4.82,4.82,0,0,1-1.34-.11,2.29,2.29,0,0,0-2.21.51c.21.17.58-.06.65.24C70.35,22.63,69.62,22.54,69.35,22.93Z"/><path class="cls-5" d="M113.44,59.69a1.09,1.09,0,0,1,.18-.53,2.6,2.6,0,0,0,.15-1.61,35.15,35.15,0,0,0-1-3.54c-.09-.42-1.38-.86-1.74-.58a10.29,10.29,0,0,0-2.05,1.7c-.91,1.22-2.33,1.57-3.69,2a3.36,3.36,0,0,1-3.46-.43,3.32,3.32,0,0,0-1.32-.66,13.47,13.47,0,0,1-3.87-2,3,3,0,0,0-1.66-.73c-.49,0-.89-.81-.55-1.12.56-.5.47-1.2.81-1.75.46-.75,0-1.41-.24-2.09-.11-.36-.47-.35-.79-.08-.58.49-1,.4-1.35-.24-.13-.26-.07-.7-.55-.67s-.49.43-.61.77-.29.85-.8.87-.64-.34-.81-.67a1,1,0,0,0-.17-.19c-.66-.71-.87-.69-1.25.19-.2.46-.35,1-.9,1.16s-.74-.6-1.1-.92-.39-.59-.82-.51a1,1,0,0,0-.84.82c-.11.48.08,1.16-.66,1.26s-.73-.64-1-1-.74-.57-1.13-.06a5.36,5.36,0,0,0-1,1.5c-.14.48-.6,1.16-.14,1.52a1.06,1.06,0,0,1,.39,1.07,34.62,34.62,0,0,0-.23,4.1.44.44,0,1,1-.87,0,17.52,17.52,0,0,0,0-1.88c-.06-.68.49-1.36,0-2.14-1.53,2.66-2.22,5.47-3.14,8.2-.57,1.7-1,3.43-1.49,5.15-.38,1.32-.74,2.63-1,4a38.81,38.81,0,0,0-.82,6.14c-.11,2-.73,3.85-.93,5.81a34.71,34.71,0,0,0-.59,4.64A45.82,45.82,0,0,1,72.67,93a15.12,15.12,0,0,0,.09,2.79,36.44,36.44,0,0,1,.24,4.94c-.08,1.61.34,3.17.42,4.77a58.35,58.35,0,0,0,.83,5.81c.06.39.08.81.56,1,.13.05.39.08.42,0a1.17,1.17,0,0,0,0-1.09c-.15-.33-.06-.69-.24-1s0-.63.23-.91a.43.43,0,0,1,.46-.19c.26,0,.21.25.19.39a3.69,3.69,0,0,0,.22,1.6c.22.84.13,1.88,1.45,2.26.52.15.72.76.87,1.27.6,1.95-.37,3.61-1.21,5.29a2.67,2.67,0,0,1-1,1.09c1.11,1,1.84,4.38,2.3,5.6,1.09-1,1.32-2.71,2.56-3.77a12.9,12.9,0,0,1,4.66-2.41c4.09-.86,6.67.75,6.86,4.72a8.14,8.14,0,0,1-1.46,5.2,13.62,13.62,0,0,0,1.87-2,19.94,19.94,0,0,1,1.38-1.59.59.59,0,0,1,.81-.05c.32.23.17.46-.07.69a4,4,0,0,0-.85.94c-.28.58-1,.94-1.14,1.7a53.92,53.92,0,0,1,6.51-2.12c1.2-.27,1.63-.2,2.17.83a7,7,0,0,1,1.2,3.66.82.82,0,0,0,.4.79,10.43,10.43,0,0,1,.71-.92c.29-.3,0-1.06.87-.88.7.15.2.77.62,1.24.26-1,.71-1.47,1.86-1.11.57.18,1.67-.68,1.76-1.2.32-1.75.09-3.53.55-5.28.5-1.92.14-3.91.39-5.86s.92-3.81,1.16-5.76c.16-1.3.55-2.57.6-3.91a20.78,20.78,0,0,1,.61-3.87,27.67,27.67,0,0,0,.67-4.45c.07-1,.15-2.08.16-3.12q.06-5.22.07-10.43c0-1.83,0-3.67,0-5.5a11.59,11.59,0,0,0,0-2.32c-.19-.9.67-2-.6-2.71,0,0,0-.13.07-.2a54.26,54.26,0,0,0,1.78-6.67,11.29,11.29,0,0,0-.62-6.27A14.26,14.26,0,0,1,113.44,59.69Zm-37.72,11a2.27,2.27,0,0,1,.36-.64.39.39,0,0,1,.5,0c.15.09.27.19.18.4a7.33,7.33,0,0,0-.51,3.29c0,.22.11.53-.35.51-.29,0-.56,0-.37-.5A10,10,0,0,1,75.72,70.71Zm-1,8.24a.81.81,0,0,1,.31-.65c.23-.22.45-.65.86-.41s0,.48-.14.71a2.6,2.6,0,0,0-.31,1.32c.1,1-.18,2,0,2.95,0,.21.13.52-.33.53s-.57-.15-.57-.48,0-.82,0-1.34C74.41,80.76,74.87,79.88,74.76,79Zm-.07,13.47a7.08,7.08,0,0,0-.19-2.49c-.25-.79,0-1.6-.31-2.34a.68.68,0,0,0,.16-.57c0-.31.18-.36.46-.33s.52.18.44.42c-.45,1.33.23,2.6.2,3.91,0,.49-.21.94-.21,1.43,0,.2-.06.41-.32.38S74.69,92.6,74.69,92.42Zm.15,3.46c0-.54-.08-1,.44-1s.46.41.49.72c.11,1,.23,2.07.3,3.11a1.53,1.53,0,0,1-.21.68.38.38,0,0,1-.27.18c-.22,0-.17-.17-.2-.29A30.6,30.6,0,0,0,74.84,95.88Zm1.93,11.53c-.2,0-.35-.18-.41-.47-.34-1.61-.76-3.21-1.13-4.82a.53.53,0,0,1,.36-.66.55.55,0,0,1,.67.6c0,.91.52,1.71.43,2.63a8,8,0,0,0,.23,1.77c0,.12,0,.3-.07.49S77.09,107.37,76.77,107.41Zm26-42.74c.45,0,.37.25.38.49,0,.67.33,1.32.16,1.94a7,7,0,0,1,0,1.19c0,.19-.1.52-.49.46a.42.42,0,0,1-.38-.55,9.32,9.32,0,0,0-.13-3A.46.46,0,0,1,102.78,64.67Zm-.91,22.76c.24-.95-.08-1.94.29-2.88.11-.27.16-.61.62-.54s.19.43.32.7a24.91,24.91,0,0,0-.6,2.83c-.06.25-.2.42-.48.38S101.82,87.65,101.88,87.44Zm-.43,2.91c0,.49,0,1,0,1.46,0,.14,0,.27,0,.41,0,.37-.08.9-.45.91s-.19-.63-.51-.87a5.68,5.68,0,0,0,.27-2c0-.28.22-.61.67-.47S101.47,90.14,101.44,90.35Zm-.15-12.14c0,.28,0,.73-.42.66s-.49-.49-.52-.83c.43-1.14.09-2.26,0-3.38,0-.18-.13-.48.28-.47a.4.4,0,0,1,.43.35A15.27,15.27,0,0,1,101.29,78.21Zm-.64-11.9c.25,0,.3.13.3.31,0,1,.37,2,0,3.09a6.12,6.12,0,0,1-.7-3.19C100.26,66.29,100.47,66.31,100.65,66.31ZM99.26,83.78c.59-1.14.36-2.33.36-3.52,0-.18-.15-.48.24-.51s.38.16.49.38a4.22,4.22,0,0,1,.17,1.66A2.59,2.59,0,0,1,99.74,84c-.1.1-.2.24-.37.17A.23.23,0,0,1,99.26,83.78Zm-1-12.46c.59,1,.16,2.09.47,3.11,0,.13-.12.3-.14.45-.05.35-.29.46-.64.42-.6-.07,0-.36-.12-.53a.31.31,0,0,1,0-.39A7.22,7.22,0,0,0,97.54,72a2.56,2.56,0,0,1-.07-.56c0-.31-.15-.78.3-.84S98.07,71.07,98.22,71.32Zm-1.73-11.9c.29,0,.4.17.5.39A2.63,2.63,0,0,1,97.31,61a8.49,8.49,0,0,0,.26,1.91c.08.43-.06.78-.39.84s-.58-.4-.57-.67c0-.68-.25-1.33-.19-2A4.45,4.45,0,0,0,96.21,60C96.3,59.74,96.09,59.44,96.49,59.42Zm-.22,5.89c.3,0,.61,0,.64.32a10.78,10.78,0,0,0,1,3.14c.12.29.06.52-.22.6s-.35-.17-.45-.4c-.38-.92-.8-1.82-1.2-2.74a4.43,4.43,0,0,1-.15-.53C96,65.6,96,65.34,96.28,65.31Zm.16,14.41c0-.17,0-.59.42-.46a.51.51,0,0,1,.34.57c0,.51,0,1,0,1.52a5.69,5.69,0,0,1-.14,2c-.07.27-.15.49-.49.46s-.14-.4-.13-.48C96.57,82.12,96.14,80.92,96.44,79.72Zm-1.3-5.22c.41,0,.42.36.48.64q.16.78.34,1.55a.4.4,0,0,1-.28.53.33.33,0,0,1-.41-.33c0-.6-.57-1.09-.36-1.64C94.83,74.91,94.66,74.54,95.13,74.5ZM92.47,93.26c-.07-.36,0-.7.42-.74s.5.35.44.64c-.16.67.38,1.31.1,2,.18.54-.22,1.1-.12,1.68a.32.32,0,0,1-.39.35c-.27,0-.17-.23-.18-.43A20.55,20.55,0,0,0,92.47,93.26Zm.1,8.51c0,.36-.16.56-.59.55s-.31-.32-.32-.53,0-.6,0-.9h0a8.84,8.84,0,0,1,0-1.14.54.54,0,0,1,.59-.5.48.48,0,0,1,.38.58A10.06,10.06,0,0,0,92.58,101.77Zm.69,5.84a8.74,8.74,0,0,0,1-1.76,4.81,4.81,0,0,0,.3-1.82c0-.31.06-.64.44-.69.58-.07.27.38.38.78a5.16,5.16,0,0,1-1,3.19c-.14.2-.35.34-.41.61a.53.53,0,0,1-.67.37C92.93,108.15,93.1,107.85,93.27,107.6Zm.3-24.2c0-.16,0-.32,0-.49a.5.5,0,0,1,.41-.48c.33-.05.25.26.35.43.32.57,0,1.18.15,1.66a3.87,3.87,0,0,1-.34,2.14c-.1.15-.16.28-.39.25a.25.25,0,0,1-.19-.38C94,85.48,93.49,84.44,93.57,83.4Zm.78,8.42c-.41,0-.45-.29-.45-.58s0-.82,0-1.23h0a11.9,11.9,0,0,1,0-1.47.48.48,0,0,1,.59-.47c.57.1.1.36.1.54,0,.88,0,1.76,0,2.64C94.62,91.47,94.79,91.82,94.35,91.82Zm-.06-14.7a.35.35,0,0,1,.4.35c0,.39,0,.79.07,1.4a3.37,3.37,0,0,1-.07,1.4c0,.18-.1.34-.29.35s-.24-.14-.26-.3A13.66,13.66,0,0,1,94,77.48.36.36,0,0,1,94.28,77.13Zm-.11-6.3a2.56,2.56,0,0,1-.07.48c-.1.22-.24.43-.6.37s-.17-.35-.21-.41a5.34,5.34,0,0,0-.54-3.64c-.07-.12-.06-.39,0-.46,1-.77.22-1.61.11-2.41,0-.31-.26-.6-.32-.91s-.15-.47.23-.52.57,0,.65.31c.25,1,.95,2.23.62,3.11C93.55,68.21,94.5,69.48,94.18,70.83ZM92.83,54.73c.24-.07.37.2.49.38a1.72,1.72,0,0,1,.37,1.32,6.9,6.9,0,0,1-.45,2.43c-.06.18-.15.46-.49.34s-.19-.34-.15-.49a5.89,5.89,0,0,0,0-3.38A.45.45,0,0,1,92.83,54.73Zm-1.66-4c0-.27.13-.6.59-.56s.27.35.3.56a1.66,1.66,0,0,1-.91,2C91.16,52,91.13,51.38,91.18,50.77Zm.16,10.15c.57,0,.53.61.51,1.05,0,.11,0,.22,0,.32,0,.3,0,.65-.42.67s-.49-.36-.49-.68c0-.13,0-.27,0-.46S90.66,60.9,91.33,60.92Zm0,9.78c.41,0,.31.28.37.45a20.12,20.12,0,0,1,.86,3.5c0,.22,0,.51-.26.55a.45.45,0,0,1-.47-.42c.05-1.11-.78-2-.9-3.06,0-.16,0-.33,0-.49S91,70.74,91.3,70.7Zm-.44,9.2a.41.41,0,0,1,.43-.35c.26,0,.22.18.31.32.31.5.15,1.06.29,1.58a11.36,11.36,0,0,1,.2,1.68c0,.34-.11.79-.56.79s-.33-.44-.33-.72c0-.95-.27-1.86-.35-2.8A3.8,3.8,0,0,1,90.86,79.89Zm.66,14.18c0,.9-.48,1.63-.46,2.45,0,.17-.15.62-.56.5s-.32-.38-.16-.67c.39-.71.14-1.5.3-2.23.07-.32.09-.93.53-.91C91.77,93.24,91.38,93.83,91.51,94.07ZM90.14,72.92c0,1.21.65,2.34.58,3.57,0,.22,0,.36-.23.41s-.34-.1-.38-.32a24.81,24.81,0,0,1-.72-3,3.83,3.83,0,0,1,.07-.68.4.4,0,0,1,.42-.25A.23.23,0,0,1,90.14,72.92ZM88.76,59a6.35,6.35,0,0,1,0-1.06h0a12,12,0,0,1,0-1.46.5.5,0,0,1,.56-.51c.46,0,.32.32.32.53,0,.81,0,1.63,0,2.44,0,.35,0,.76-.54.78S88.8,59.22,88.76,59Zm0,4a.48.48,0,0,1,.65.49c-.06,1.14.66,2.21.38,3.21,0,.53,0,.9,0,1.26a.55.55,0,0,1-.63.55c-.27,0-.19-.35-.22-.6-.15-1.4.17-2.84-.37-4.22C88.5,63.47,88.35,63.11,88.78,63Zm-1,5.22a14.36,14.36,0,0,0,.33,2.48.21.21,0,0,1-.2.29.41.41,0,0,1-.49-.28,6.84,6.84,0,0,1-.38-2,.7.7,0,0,1,0-.52c.07-.2.1-.34.38-.34S87.76,68,87.79,68.21ZM87.52,92c-.07.25,0,.66-.37.61s-.33-.42-.22-.71c0-.06,0-.15,0-.23h-.11c0-1.2,0-2.4,0-3.6,0-.37.07-.66.58-.64s.34.39.32.61A18.15,18.15,0,0,1,87.52,92ZM87.46,99a27.67,27.67,0,0,1-.39,3.21.47.47,0,0,1-.49.47c-.28,0-.28-.35-.22-.55.4-1.19,0-2.41.24-3.61a2.92,2.92,0,0,1,.18-.58.42.42,0,0,1,.52-.22c.24.07.15.26.16.41S87.47,98.69,87.46,99ZM85.35,79.86c-.1-1.11.26-2.2.23-3.31a2.12,2.12,0,0,1,.39-.88c.08-.15.22-.29.42-.21s.3.2.27.31c-.46,1.78-.27,3.57-.88,5.24-.07.19,0,.6-.45.43a.42.42,0,0,1-.18-.66A1,1,0,0,0,85.35,79.86Zm.23-6.17c-.07-.67.41-1.25.06-1.89-.05-.1,0-.73.54-.63a.6.6,0,0,1,.45.81,4.45,4.45,0,0,0-.13,1.6c0,.42,0,1-.55,1S85.66,73.94,85.57,73.68ZM85.69,85a4.21,4.21,0,0,0,0-.57A2.32,2.32,0,0,1,86,83c.14-.18.23-.41.53-.3a.41.41,0,0,1,.28.54A3.82,3.82,0,0,0,86.68,85c0,.31-.11.82-.56.79S85.65,85.38,85.69,85ZM87,62.44c-.46.07-.5-.28-.49-.59s0-.43,0-.65a.63.63,0,0,1,0-.24c.11-.26-.28-.74.32-.77s.36.5.38.78.17.51.19.77S87.38,62.39,87,62.44ZM86.28,50.2c.39,0,.48.32.47.56,0,.62.63,1,.55,1.64,0,.21.17.53-.29.56s-.61-.08-.62-.43c0-.6-.52-1.07-.55-1.66C85.85,50.57,85.81,50.22,86.28,50.2Zm-.57,5.61c.09-.17.13-.46.48-.38a.41.41,0,0,1,.36.41,5.68,5.68,0,0,0,.34,2.71.29.29,0,0,1-.19.46.56.56,0,0,1-.64-.2c-.1-.16-.24-.35-.23-.51a10.82,10.82,0,0,0-.21-1.92A1.66,1.66,0,0,1,85.71,55.81ZM85.59,63c.33.11.16.31.09.52-.23.78.13,1.58-.07,2.37,0,.16,0,.34,0,.48-.15.31-.14.89-.66.76s-.21-.56-.13-.92a9.48,9.48,0,0,0,.11-1.46h0a9.75,9.75,0,0,1,0-1.38A.46.46,0,0,1,85.59,63Zm-1.8,37.3c.07.3-.14.41-.38.43s-.49,0-.51-.3,0-.6,0-.9a7,7,0,0,1,.17-1.62c0-.26.11-.56.44-.48a.52.52,0,0,1,.4.67A5.33,5.33,0,0,0,83.79,100.28ZM83.6,60.13c-.42-.13-.24-.51-.15-.76.3-.81.07-1.68.36-2.49a.43.43,0,0,0,0-.16c0-.44.19-.84.68-.77s.12.55.27.84c-.15.92-.26,1.85-.47,2.77C84.24,59.83,84.09,60.28,83.6,60.13Zm0-8.7c.24-.13.62-.26.55.16-.14.91.67,1.46.95,2.31-1.14.15-1.35-.66-1.6-1.25C83.38,52.32,83,51.78,83.63,51.43Zm-1,16.86c0-.26-.14-.67.44-.59s.42.31.38.7a26.7,26.7,0,0,0-.11,3,3.23,3.23,0,0,1-.17,1.26c-.1.23-.21.41-.49.38s-.19-.33-.19-.5C82.43,71.15,82.68,69.73,82.67,68.3ZM82.3,81.76c-.2-.37,0-.9,0-1.36a.4.4,0,0,1,.37-.4c.29-.06.29.15.39.32.26.44.09.9.17,1.37-.23.32.36,1-.35,1S82.47,82.09,82.3,81.76Zm.14-6.47a7.65,7.65,0,0,0-.18,2.32,1,1,0,0,1-.12.46c-.13.22-.06.62-.48.56s-.3-.41-.32-.8a9,9,0,0,0,.22-2.51c0-.24.09-.57.49-.55A.38.38,0,0,1,82.44,75.29Zm-1.2-12.8c0-.15.14-.31.25-.29a.68.68,0,0,1,.39.29A2.13,2.13,0,0,1,80.81,65C81,64.06,81.1,63.27,81.23,62.49Zm-.5,34.19c0-.17.24-.15.38-.11s.13.22.15.34c.06.45-.23.83-.27,1.28a1.62,1.62,0,0,0,.16,1.12c.2.3.1.54-.25.64s-.48-.23-.52-.42c-.08-.44-.35-.87-.2-1.36C79.86,97.55,80.59,97.2,80.73,96.68ZM80.3,65.94l-.93,3.39c-.08.27-.07.67-.51.62s-.06-.47-.26-.64c.21-1.11.4-2.19.63-3.26,0-.17.25-.3.33-.47s.41-.2.62-.15C80.55,65.51,80.35,65.75,80.3,65.94Zm-2.05,8.5c0-.11,0-.22,0-.39a4.39,4.39,0,0,1,.36-1.72A.54.54,0,0,1,79.3,72c.45.11.13.36.1.57a8.11,8.11,0,0,0-.25,1.91c0,.33.11.79-.49.76S78.27,74.74,78.25,74.44ZM78.94,86a4.81,4.81,0,0,1,0-.85c-.15-.72.29-1.53.2-2.37,0-.25.16-.45.31-.65a.4.4,0,0,1,.48-.11c.18.07.19.17.16.37-.17,1.21-.27,2.42-.45,3.62,0,.24,0,.69-.42.68S79,86.21,78.94,86ZM78.16,63c.69-.8.48-1.83.94-2.67,0-.07.09-.14.13-.21a.45.45,0,0,1,.55-.31c.28.07.15.31.21.61-.24.72-.5,1.55-.82,2.38a1,1,0,0,1-.59.46C78.22,63.43,78,63.17,78.16,63Zm-.49,18.18c0-.16,0-.33,0-.73a15.87,15.87,0,0,0,.2-3c0-.1,0-.27.07-.3.26-.14.25-.68.69-.49s.1.47.09.73c0,1.19-.58,2.36-.18,3.58a.51.51,0,0,1-.49.71C77.54,81.81,77.69,81.45,77.67,81.21Zm1.51,17.27c-.41,0-.43-.25-.5-.54-.38-1.51-.33-3.07-.66-4.59-.05-.24.09-.37.31-.42a.42.42,0,0,1,.54.31,5.58,5.58,0,0,1,.11.87,12.64,12.64,0,0,0,.58,3.8C79.33,98,79.58,98.46,79.18,98.48Zm.15-6.42c-.47.1-.41-.39-.51-.63A9.53,9.53,0,0,1,78.19,89c0-.33,0-.61.42-.63s.33.28.39.49c.21.8.45,1.58.62,2.39C79.68,91.51,79.78,92,79.33,92.06Zm1.25,18.23a.67.67,0,0,1-.81-.49,3.43,3.43,0,0,1,0-.89h0c0-.27,0-.54,0-.81a.56.56,0,0,1,.56-.54c.34,0,.33.3.35.55a3.81,3.81,0,0,0,.13,1.52C80.88,109.81,81,110.2,80.57,110.29ZM81.2,106c-.44.13-.49-.23-.54-.55-.15-.95-.36-1.89-.51-2.84,0-.21-.12-.53.34-.51s.71.21.56.81a16,16,0,0,1,.46,2.29C81.58,105.59,81.52,105.91,81.2,106Zm1.33-10.73c0,.22,0,.44-.33.45s-.37-.17-.39-.41c-.08-1-.18-2.06-.28-3.23.25-.45.07-1.08.13-1.7a.42.42,0,0,1,.56-.38.4.4,0,0,1,.32.51A13.9,13.9,0,0,0,82.53,95.27Zm.05-7.4a17,17,0,0,1,0-2.72,1.7,1.7,0,0,1,.31-.9c.13-.14.25-.42.57-.27s0,.33.06.55a8.2,8.2,0,0,0-.08,3.31c0,.22,0,.77-.46.78S82.58,88.18,82.58,87.88Zm1,22a.42.42,0,0,1-.57.37c-.31-.08-.3-.26-.22-.56a18.24,18.24,0,0,0,.42-2.44,1.23,1.23,0,0,1,.32-.64c.11-.13.16-.29.39-.25s.13.31.22.41Zm.38-5.24c-.44,0-.32-.42-.35-.7-.06-.45-.12-.9-.19-1.39a1.8,1.8,0,0,1,.1-.6c.12-.22.19-.57.6-.51s.2.39.23.6a9.47,9.47,0,0,0,.11,1.77A.7.7,0,0,1,84,104.68Zm.57-12.16c-.06-.26,0-.49.29-.54a.39.39,0,0,1,.48.38,11.46,11.46,0,0,1,.29,3.93c-1-.5-.62-1.33-.79-1.95S84.67,93.12,84.53,92.52Zm4.07,11.63a.12.12,0,0,0,0,.07,4.44,4.44,0,0,1-.92,2.67c-.76,1.18-1,2.59-1.68,3.83a2.4,2.4,0,0,1-.73.76c-.25-.14-.5-.23-.28-.51,1-1.25,1.1-2.79,1.73-4.16a3.09,3.09,0,0,1,.73-1.17,1.37,1.37,0,0,0,.39-1,1.55,1.55,0,0,1,.08-.64c.14-.28.32-.74.69-.63S88.83,103.86,88.6,104.14Zm.67-3.52a2.07,2.07,0,0,1-.18.53c0,.12-.14.16-.27.16s-.25-.11-.25-.26c0-.41,0-.82,0-1.45,0-.84-.11-1.9-.18-3,0-.23,0-.48.3-.52s.37.28.4.45A19.8,19.8,0,0,1,89.27,100.62Zm0-16.83a2.18,2.18,0,0,0,.07-.95,3.45,3.45,0,0,0-.28-1.92c-.13-.25-.21-.67.16-.79s.56.25.64.47A4.27,4.27,0,0,1,90,84c-.12.25-.25.58-.63.44S89.16,84,89.27,83.79Zm.28,4.92a.83.83,0,0,1,.17-.67c.08-.15.19-.33.39-.27a.48.48,0,0,1,.28.36,11.75,11.75,0,0,0,.4,2.54c0,.25,0,.55-.28.62s-.5-.31-.56-.52C89.76,90.07,89.67,89.35,89.55,88.71Zm.6,17.51c.72-.8.51-1.79.75-2.68.1-.35.22-.71.6-.68s.39.52.32.8c-.2.83-.47,1.64-.74,2.45a.88.88,0,0,1-.52.47C90.24,106.55,89.93,106.47,90.15,106.22Zm4.18,14.68a3.1,3.1,0,0,1-2.12.39,1.45,1.45,0,0,1-1.51-1.18,7.61,7.61,0,0,1-.56-3,4.85,4.85,0,0,1,2.24-4.36,2.91,2.91,0,0,1,4.33,1.4A6.44,6.44,0,0,1,94.33,120.9Zm3.2-25c-.31,1.51.08,3.09-.56,4.57-.1.23-.22.43-.5.35s-.07-.34,0-.46c.38-1.29-.06-2.64.38-3.91-.31-.34.12-.48.19-.72s.18-.12.3-.12A.21.21,0,0,1,97.53,95.92Zm-.13-4.39c.5-.93.38-2,.81-2.93.15-.33.06-.69.25-1s.12-.47.42-.42.12.32.15.49a1.27,1.27,0,0,1,0,.24,10.2,10.2,0,0,1-1.14,4c-.06.12-.14.27-.31.2A.39.39,0,0,1,97.4,91.53Zm2.11,10.86c-.46,1.12-.38,2.37-1,3.45-.11.19-.17.41-.47.44s-.4-.29-.3-.44c.64-1,.48-2.13.88-3.16a1.24,1.24,0,0,1,.36-.54.44.44,0,0,1,.42-.09A.23.23,0,0,1,99.51,102.39Zm.42-2.82a.58.58,0,0,1-.48-.17c-.23-.28.12-.36.22-.53a8.25,8.25,0,0,0,.41-2.36,3.33,3.33,0,0,1,.33-.91c.1-.19.21-.34.47-.25s.11.28.14.42c-.19,1.12-.37,2.23-.59,3.33C100.38,99.28,100.31,99.58,99.93,99.57Zm2.68,2c-.31,1.24-.59,2.49-.94,3.73-.14.51-.58.71-1.3.55a5.32,5.32,0,0,0,1.15-3.45,1.39,1.39,0,0,1,.57-1.13.54.54,0,0,1,.42-.06C102.67,101.31,102.64,101.49,102.61,101.62Zm-.2-5c-.62,0-.57-.34-.44-.55a5.68,5.68,0,0,0,.43-2.4c0-.33.13-.67.6-.63s.18.4.21.62a15.35,15.35,0,0,1-.21,2.16A.7.7,0,0,1,102.41,96.63Zm1.42,4.12a1,1,0,0,1-.93.44,3,3,0,0,0,.48-2.19c0-.33-.11-.83.45-.79s.28.52.28.82A2.68,2.68,0,0,1,103.83,100.75Zm0-21.4c-.56,0-.34-.68-.29-1,.14-1.15-.46-2.14-.77-3.19a1.51,1.51,0,0,1-.15-.62c0-.26.08-.59.43-.62s.27.33.3.53c.18,1.31.85,2.53.91,3.92C104.09,78.66,104.17,79.36,103.78,79.34Zm.94,8.26c.07-1,.15-2,.18-3a1.38,1.38,0,0,1,.94-1.33,19.09,19.09,0,0,0-.38,4.29A.42.42,0,0,1,105,88C104.74,88,104.7,87.81,104.72,87.6Zm.81,8.16a.41.41,0,0,1-.45.31c-.24-.05-.26-.29-.22-.48a19.71,19.71,0,0,0,.57-3,.33.33,0,0,1,.41-.33c.41.13.29.48.31,1C106.15,94,105.53,94.81,105.53,95.76Z"/><path class="cls-6" d="M85.75,120.45a12.9,12.9,0,0,0-4.66,2.41c-1.25,1.06-1.48,2.76-2.56,3.77-.47-1.22-1.2-4.59-2.3-5.6a3.22,3.22,0,0,1-.94.41.93.93,0,0,0-.7.69c-.24,1.26-.94,2.39-1.26,3.65-.41,1.64-1,3.28-1.53,4.91s-.83,3.06-1.47,4.51c-1.13,2.57-2.05,5.2-3.19,7.77-.14.32.07.33.34.33.51,0,1.14.11,1.27.5.29.86,1,.58,1.47.46,2.22-.56,4-1.91,6-2.82,1.29-.59,2.35-1.46,3.59-2.1a18.7,18.7,0,0,0,4.42-2.7c1.75-1.69,3.91-3,5.42-4.88a3.1,3.1,0,0,1,.49-.57c.35-.26.68-.54,1-.83a8.14,8.14,0,0,0,1.46-5.2C92.42,121.2,89.84,119.59,85.75,120.45Zm-10.12,6.8q-1.45.68-1.45-.82a3.22,3.22,0,0,1,1.23-2.23.51.51,0,0,1,.78,0C76.7,124.7,76.3,126.94,75.63,127.25ZM86.29,129c-.35.26-.74.72-1.33.39s-.31-.72-.2-1.15c.24-.94.46-1.88,1.69-2.2a1.13,1.13,0,0,1,1.45,1A3.78,3.78,0,0,1,86.29,129Z"/><path d="M118.78,59.63c-1.25-1.23-1.78-3-3-4.29a10.79,10.79,0,0,0-3.59-2.89,1.68,1.68,0,0,0-1.9.18c-1.13.86-2.08,1.89-3.22,2.74a4.47,4.47,0,0,1-4.12.84c-1.1-.4-2.11-1.11-3.28-1.51a18.48,18.48,0,0,1-3.08-1.75c-.8-.46-1.06-.94-.64-1.7a3.32,3.32,0,0,0,.31-.65A22.72,22.72,0,0,0,96.73,48a16,16,0,0,0,.43-3.45c-.1-2.47-.29-4.95-.61-7.42-.34-2.63-.88-5.24-1.29-7.86a10,10,0,0,0-.54-2c-.48-1.25-1-2.49-1.47-3.75a29,29,0,0,0-2.3-4.69,24.67,24.67,0,0,0-5.36-5.56A39.22,39.22,0,0,0,81,10.94,13.63,13.63,0,0,0,76.1,10a17.31,17.31,0,0,0-3.59.56,23.22,23.22,0,0,0-6.61,2,24.63,24.63,0,0,0-4.16,2.94,13.25,13.25,0,0,0-2.91,3.63A11.43,11.43,0,0,0,58,21.9a9.47,9.47,0,0,0-.43,3.78,32.3,32.3,0,0,0,3,5.56c.91.57,1.28,1.52,2,2.2a12.19,12.19,0,0,0,4.54,2.24,6.91,6.91,0,0,0,4.22-.28,10.24,10.24,0,0,0,4.48-2.68,8.16,8.16,0,0,0,1.88-3.19c.32-1.06,1.4-2,.85-3.26-.07-.16.16-.28.29-.39a1.29,1.29,0,0,1,2.09.56,37.91,37.91,0,0,1,1.79,4.85,5.23,5.23,0,0,1,.52,1.94c-.11,1.7.19,3.38.06,5.1a26.93,26.93,0,0,1-1.6,7.47c-.87,2.31-2.47,4.4-2.45,7a1.48,1.48,0,0,1-.2.52,34.5,34.5,0,0,0-2.05,5.44c-.31,1.27-.72,2.53-1.1,3.78-1,2.45-2.79,12.81-3.06,14.26-.34,1.82-.54,3.67-.87,5.49-.28,1.51-.29,6.81-.33,7.93-.14,3.47.39,6.91.36,10.37,0,.57.44,6.49.89,8.85.14.73.46,3.18-.12,3.46a3,3,0,0,0-1.71,2.46,4.71,4.71,0,0,0,1.39,3.88,3.57,3.57,0,0,1,.87,3.82c-.69,2.15-1.43,4.28-2.08,6.44s-1.3,4.25-2.15,6.33c-.34.82-.78,1.61-1.05,2.44A44,44,0,0,1,66,143.28c-.22.47-.49,1-.24,1.38a2,2,0,0,0,1.29.78,7.88,7.88,0,0,0,4.65-.59c.95-.5,1.91-1,2.86-1.49.3-.16.51-.24.71.13.45.83,1.36,1.33,1.93,2.08.19.25.54.61,1,.3a.57.57,0,0,0-.11-.94c-.95-.59-1.44-1.56-2.39-2.14l3.85-2.2L82,139.16c.38-.21.67-.23.75.28.1.71.28,1.41.34,2.12.13,1.44.38,2.9-.81,4.15a.74.74,0,0,0,0,1c.25.28.58.14.91,0a4.7,4.7,0,0,1,.87-.15s.07.09.07.14c.12,1.27.19,1.32,1.47.73a.36.36,0,0,1,.47.09,1.25,1.25,0,0,0,2.11-.39,11.2,11.2,0,0,0,.9-2.24,49,49,0,0,0,1-5.29c.31-2.25.82-4.48,1.24-6.73.3-1.6.36-1.88,1.94-1.88a.47.47,0,0,0,.18,0,52.62,52.62,0,0,1,5.66-1.9c1.46-.42,1.74-.25,2.31,1s0,2.8.28,4.21a17.79,17.79,0,0,1,.06,5.38,14.42,14.42,0,0,1-1.66,6.14c-.2.32-.82.82-.16,1.29s.9-.27,1.22-.47c.57-.35.64-.25.77.26a1.29,1.29,0,0,0,2,.37c.33-.4.56-.36.83,0,.58.69,1.07.39,1.4-.14s.5-.46.9-.23a.59.59,0,0,0,.93-.4,16.35,16.35,0,0,0,.59-3.89,18.72,18.72,0,0,1,.33-4.29c.33-1.77.5-3.56.83-5.33s.5-3.86.73-5.79.54-3.69.59-5.53a32.16,32.16,0,0,1,.55-4.61c.35-2,.81-4.05,1.17-6.08.07-.37.09-.95.14-1.4.13-1.1.28-2.21.5-3.27a43.51,43.51,0,0,0,.9-8.94c0-5.68,0-11.35.07-17a27,27,0,0,1,.73-7.19,33.23,33.23,0,0,0,.7-4.42c0-.3,0-.57.45-.35,1.16.55,1.39.45,1.64-.75.09-.43.46.14.93.3a.57.57,0,0,0,.81-.38c.05-.13.16-.63.33-.46.57.57,1.1.35,1.26.16S120.23,61.06,118.78,59.63ZM94.34,29.45c.45,2.32.83,4.64,1.24,7a11.24,11.24,0,0,1,.07,1.53c0,.58-.5.21-.7.1a10.22,10.22,0,0,0-3.54-1,11.61,11.61,0,0,0-4.11.44,14.87,14.87,0,0,0-2.39.88c-.16.07-.29.2-.48,0s-.05-.31,0-.43c.67-1.25,1.2-2.59,2.8-3.2a16.7,16.7,0,0,1,2.87-1,4.23,4.23,0,0,1,2.6.27,5.14,5.14,0,0,0,1.46.13c-.32-1.18-1.3-1.27-2.2-1.34a9.86,9.86,0,0,0-6.31,1.91c-.17.11-.36.19-.52.31s-.36.27-.56.16-.13-.33,0-.5-.07-.3-.11-.44-.24-.46-.17-.61c.34-.71.12-1.53.49-2.19A5,5,0,0,1,86.55,30a11.81,11.81,0,0,1,4.88-1.83,8.46,8.46,0,0,1,2.08,0C94.37,28.19,94.24,28.95,94.34,29.45ZM71.58,11.92c.26,0,.51-.13.78-.15l3.79-.36a14,14,0,0,0-1.62,5.7,6.55,6.55,0,0,0,.68,3c.07.19.33.39.09.58s-.44,0-.68,0A9.93,9.93,0,0,0,73,20.44,2.93,2.93,0,0,1,70.15,18c-.14-1.24-.54-2.51,0-3.76A10.38,10.38,0,0,1,71.58,11.92ZM70.23,22.08c-.06-.3-.44-.08-.65-.24a2.29,2.29,0,0,1,2.21-.51,4.82,4.82,0,0,0,1.34.11,2.91,2.91,0,0,1,3.3,2.43,5.27,5.27,0,0,0-3-.8,4.71,4.71,0,0,0-2.45.64c-.41.26-.64.26-.81-.16a1,1,0,0,0-.8-.6C69.62,22.54,70.35,22.63,70.23,22.08Zm-9-4.41a15.33,15.33,0,0,1,7.94-5.15,1.49,1.49,0,0,1,.52-.1,1.62,1.62,0,0,1,.25.07A7.84,7.84,0,0,0,69.29,17,15.3,15.3,0,0,0,70.15,20c.09.31.33.35-.21.3a4.21,4.21,0,0,1-2.58-1.59,3.45,3.45,0,0,1-.9-3.89c.07-.21.37-.45,0-.61a.66.66,0,0,0-.83.35,2,2,0,0,0-.25.93,4.9,4.9,0,0,0,1.42,3.85,6.86,6.86,0,0,0,1.64,1.34c.46.22.4.51,0,.82a1.8,1.8,0,0,1-2.5.15,6.31,6.31,0,0,1-2.73-2.59c-.1-.25-.3-.47-.25-.76a.42.42,0,0,0-.34-.51c-.29-.08-.45.11-.61.27s-.1.36,0,.58a8.78,8.78,0,0,0,4,4,3.48,3.48,0,0,1-3.78.63c-.77-.23-1.67-.43-1.93-1.33-.07-.23-.34-.31-.6-.18a.43.43,0,0,0-.21.64,2.66,2.66,0,0,0,1.19,1.17,8.12,8.12,0,0,0,3.76.76c1.32.65.55,2.42-.66,2.72a7.52,7.52,0,0,1-2.39.19c-.57-.16-2.34-.81-2.65-1.4s0-1,0-1.56A9.47,9.47,0,0,1,61.19,17.67ZM62,31.16c-.57-.47-.55-.8.16-1,1.62-.44,3.21-.94,4.79-1.48.55-.19.76,0,.52.49a4.35,4.35,0,0,1-2.89,2.6c-.11,0-.2.13-.42,0C63.51,31.62,62.64,31.7,62,31.16Zm9.06,2a2.83,2.83,0,0,1-2.91,1.68,10,10,0,0,1-4.22-1.68.38.38,0,0,1-.12-.28c0-.19.17-.19.32-.19,2.07,0,3-1.44,4-2.7.19-.23.08-.66.55-.73a1.67,1.67,0,0,1,1.24.39A2.89,2.89,0,0,1,71.07,33.18ZM75,32.1c-.8.59-1.58,1.22-2.45,1.75-.29.18-.71.36-.86.24s-.08-.6.07-.86a2.49,2.49,0,0,0,.11-2.61,4.65,4.65,0,0,0-1.61-1.71c-.51-.34-1.16-.49-.29-1.26a6.25,6.25,0,0,1,1.66-.85c1.81.28,3.38.69,4.38,2.07.08.11.24.3.21.33C75.45,30,76.16,31.25,75,32.1Zm2.35-4.34c-.21.47-.37.7-.9.22A8.32,8.32,0,0,0,72.23,26a2.78,2.78,0,0,0-1,0c-.29.05-.63.27-.77-.06a.82.82,0,0,1,.15-.92,3.52,3.52,0,0,1,3-1.19,1.92,1.92,0,0,1,1.43.37C75.36,24.56,77.88,26.59,77.37,27.75Zm3.2-3.69c-.9-.46-1.67-1.13-2.56-1.54s-1.09-1.26-1.59-1.92c-1.33-1.76-1-3.59-.7-5.47a9.71,9.71,0,0,1,.86-2.6,1.82,1.82,0,0,1,2.33-1,25.47,25.47,0,0,1,3.59,1.2c-.74.72-1.44,1.45-2.2,2.13a7.29,7.29,0,0,0-2.16,4.36,3.78,3.78,0,0,0,0,2.46c.11.23.19.56.61.47s.15-.38.13-.61a7.73,7.73,0,0,1,2.66-6.78c.7-.62,1.29-1.4,2.38-1.06a7.49,7.49,0,0,1,1.82,1.13c.35.23.66.51,1,.81C82.75,17.25,80.53,19.93,80.57,24.06Zm1.87,2.67c-.32,0-.27-.22-.34-.39-.92-2.32-1-4.69.55-6.74a7.45,7.45,0,0,1,4-3,2.37,2.37,0,0,0,.72-.3.57.57,0,0,1,.8.13c.86,1.31,2.21,2.37,2.47,4a.88.88,0,0,0,.15.27c-.05.38-.38.4-.65.47a14.31,14.31,0,0,0-3.7,1.31,10.35,10.35,0,0,0-3.5,3.87C82.76,26.57,82.75,26.74,82.43,26.73Zm1.36,0a12.44,12.44,0,0,1,1.76-2.52,7.77,7.77,0,0,1,4.21-2c.34-.07.66-.32,1-.17a.9.9,0,0,1,1.09.58c.51,1.27,1.07,2.53,1.6,3.8.32.76.22.87-.72.87A10.86,10.86,0,0,0,85,30.12c-.78.72-1.26.64-1.49-.32A3.86,3.86,0,0,1,83.8,26.72Zm-.27,19.77a14.58,14.58,0,0,1,6.11-1.74,7.06,7.06,0,0,1,4,.79,1.43,1.43,0,0,0,1.37.17c.28-.14.27-.42.18-.66-.19-.49-.69-.5-1.15-.59-.87-.17-1.71-.42-2.59-.56a13,13,0,0,0-3.68.13,10.63,10.63,0,0,0-3.59,1.17c-.24.12-.65.48-.83.22a.84.84,0,0,1,.27-1,6.72,6.72,0,0,1,2.15-1.29A13.22,13.22,0,0,1,91,41.88,7.53,7.53,0,0,1,94.34,43a1.21,1.21,0,0,0,.76.18c.47-.06.64-.31.34-.67a1.79,1.79,0,0,0-.62-.47,9.85,9.85,0,0,0-7.69-.36A17.7,17.7,0,0,0,84,42.91a13.59,13.59,0,0,1,.57-2.42c.61-2,2.5-2,4-2.38a7.44,7.44,0,0,1,4.66.28c.71.28,1.3,1,2.28.56.22-.1.17.28.19.44.22,1.5.13,3,.32,4.53a11.19,11.19,0,0,1-.2,2.58,1.52,1.52,0,0,1-.27.57.31.31,0,0,1-.25,0c-.53-.69-1.38.22-2-.37-1-1-1.37-.9-2.24.14-.23.27-.47.42-.81.17-.89-.65-1.22-.65-2,.05-.13.12-.31.21-.37.35-.28.63-.58.44-1,.07s-.53-.7-1.1-.62a1.36,1.36,0,0,0-1,.5,1.08,1.08,0,0,1-1.88-.17C82.79,46.78,83.3,46.59,83.52,46.49Zm31.21,23.76A54.26,54.26,0,0,1,113,76.92c0,.07-.09.19-.07.2,1.27.7.41,1.81.6,2.71a11.59,11.59,0,0,1,0,2.32c0,1.83,0,3.67,0,5.5q0,5.22-.07,10.43c0,1-.09,2.08-.16,3.12a27.67,27.67,0,0,1-.67,4.45,20.78,20.78,0,0,0-.61,3.87c-.05,1.33-.44,2.6-.6,3.91-.23,1.95-.9,3.81-1.16,5.76s.11,3.94-.39,5.86c-.45,1.75-.23,3.53-.55,5.28-.09.52-1.19,1.38-1.76,1.2-1.15-.36-1.59.14-1.86,1.11-.42-.47.08-1.09-.62-1.24-.86-.19-.59.58-.87.88a10.43,10.43,0,0,0-.71.92.82.82,0,0,1-.4-.79,7,7,0,0,0-1.2-3.66c-.54-1-1-1.1-2.17-.83A53.92,53.92,0,0,0,93.16,130c.15-.76.85-1.13,1.14-1.7a4,4,0,0,1,.85-.94c.23-.23.39-.46.07-.69a.59.59,0,0,0-.81.05A19.94,19.94,0,0,0,93,128.34a13.62,13.62,0,0,1-1.87,2,15.27,15.27,0,0,1-2.67,2.89c-2.12,1.84-4.3,4.11-6.63,5.56-2,1.23-14.22,8.86-15.38,5-.25-.84,1.22-3.2,1.52-4.09.45-1.35,1-2.66,1.55-4,1.14-2.68,1.49-5.59,2.68-8.24.63-1.4.66-3.08,1.33-4.45l.43-.64c.88-1.72,1.62-1.9,2.24-1.34a2.67,2.67,0,0,0,1-1.09c.84-1.68,1.81-3.35,1.21-5.29-.15-.5-.35-1.12-.87-1.27-1.32-.37-1.22-1.41-1.45-2.26a3.69,3.69,0,0,1-.22-1.6c0-.14.07-.34-.19-.39a.43.43,0,0,0-.46.19c-.19.28-.39.61-.23.91s.09.69.24,1a1.17,1.17,0,0,1,0,1.09s-.29,0-.42,0c-.47-.2-.5-.61-.56-1a58.35,58.35,0,0,1-.83-5.81c-.08-1.6-.5-3.16-.42-4.77a36.44,36.44,0,0,0-.24-4.94A15.12,15.12,0,0,1,72.67,93a45.82,45.82,0,0,0-.32-5.92,34.71,34.71,0,0,1,.59-4.64c.2-2,.82-3.84.93-5.81a38.81,38.81,0,0,1,.82-6.14c.29-1.34.66-2.65,1-4,.5-1.72.93-3.45,1.49-5.15.92-2.74,1.6-5.55,3.14-8.2.49.78-.06,1.46,0,2.14a17.52,17.52,0,0,1,0,1.88.44.44,0,1,0,.87,0,34.62,34.62,0,0,1,.23-4.1,1.06,1.06,0,0,0-.39-1.07c-.45-.36,0-1,.14-1.52a5.36,5.36,0,0,1,1-1.5c.39-.51.79-.47,1.13.06s.23,1.15,1,1,.54-.77.66-1.26a1,1,0,0,1,.84-.82c.42-.07.56.29.82.51s.42,1.07,1.1.92.7-.7.9-1.16c.38-.88.59-.9,1.25-.19a1,1,0,0,1,.17.19c.17.33.41.69.81.67s.68-.51.8-.87.11-.75.61-.77.42.41.55.67c.32.64.77.73,1.35.24.32-.27.68-.29.79.08.2.67.69,1.34.24,2.09-.34.55-.25,1.25-.81,1.75-.34.31.06,1.11.55,1.12a3,3,0,0,1,1.66.73,13.47,13.47,0,0,0,3.87,2,3.32,3.32,0,0,1,1.32.66,3.36,3.36,0,0,0,3.46.43c1.36-.39,2.78-.75,3.69-2a10.29,10.29,0,0,1,2.05-1.7c.36-.28,1.66.16,1.74.58a35.15,35.15,0,0,1,1,3.54,2.6,2.6,0,0,1-.15,1.61,1.09,1.09,0,0,0-.18.53,14.26,14.26,0,0,0,.67,4.28A11.29,11.29,0,0,1,114.73,70.25Z"/><path class="cls-4" d="M67.09,27.64a1.67,1.67,0,0,0-.91-.93c-.45-.16-.55.27-.82.39-1.5.63-3,1.46-4.8.52-.13-.07-.29-.15-.38,0a.38.38,0,0,0,0,.3c.73,1.49.89,2.65,2,3.45,1.35.72,3.62.58,4.36-.13A2.89,2.89,0,0,0,67.09,27.64Z"/><path d="M89.65,131.77c-1.52,1.88-3.67,3.19-5.42,4.88a18.7,18.7,0,0,1-4.42,2.7c-1.24.64-2.3,1.52-3.59,2.1-2,.92-3.8,2.26-6,2.82-.48.12-1.18.41-1.47-.46-.13-.39-.76-.5-1.27-.5-.27,0-.48,0-.34-.33,1.14-2.56,2.06-5.2,3.19-7.77.64-1.45.95-3,1.47-4.51s1.11-3.26,1.53-4.91c.32-1.26,1-2.38,1.26-3.65a.93.93,0,0,1,.7-.69,3.22,3.22,0,0,0,.94-.41c-.62-.56-1.36-.38-2.24,1.34l-.43.64c-.67,1.37-.7,3-1.33,4.45-1.2,2.65-1.55,5.56-2.68,8.24-.57,1.35-1.1,2.67-1.55,4-.3.89-1.77,3.25-1.52,4.09,1.16,3.86,13.42-3.77,15.38-5,2.32-1.45,4.5-3.72,6.63-5.56a15.27,15.27,0,0,0,2.67-2.89c-.32.29-.65.57-1,.83A3.1,3.1,0,0,0,89.65,131.77Z"/><path d="M65,135.53a11.85,11.85,0,0,0-3.17-1.41c-.27.07-.53-.08-.61.2s.23.35.42.43a8.88,8.88,0,0,1,2.71,1.46c.32.32,1.06.46,1.31.15C66,135.91,65.29,135.74,65,135.53Z"/><path d="M62.64,132.54c-.3.43.09.75.44.9a15.77,15.77,0,0,1,2.13,1,.71.71,0,0,0,.31.06c.42,0,.69,0,.75-.34s-.27-.48-.54-.55a6,6,0,0,1-2.15-.93C63.36,132.51,63,132,62.64,132.54Z"/><path d="M66.81,133.39c.27.19.59.27.76-.1,0-.1,0-.17-.05-.2a16.46,16.46,0,0,0-2.84-2.19.39.39,0,0,0-.47.14.33.33,0,0,0,0,.51c.17.14.39.24.57.37C65.47,132.41,66.12,132.92,66.81,133.39Z"/><path d="M79.55,143.74a3.27,3.27,0,0,1-1.07-.57,2.74,2.74,0,0,0-1.25-.6c-.19,0-.46-.1-.55.16a.48.48,0,0,0,.25.64,7,7,0,0,1,2.14,1.25c.17.17.68.25.83-.1S80.06,143.84,79.55,143.74Z"/><path d="M79.17,141.84c-.4-.21-.46.17-.5.39,0,.47,1.41,1.4,1.9,1.34s.34-.27.21-.47A4,4,0,0,0,79.17,141.84Z"/><path d="M92.38,112.71a4.85,4.85,0,0,0-2.24,4.36,7.61,7.61,0,0,0,.56,3,1.45,1.45,0,0,0,1.51,1.18,3.1,3.1,0,0,0,2.12-.39,6.44,6.44,0,0,0,2.39-6.8A2.91,2.91,0,0,0,92.38,112.71Z"/><path d="M86.45,126.05c-1.23.32-1.44,1.26-1.69,2.2-.11.43-.35.85.2,1.15s1-.13,1.33-.39a3.78,3.78,0,0,0,1.6-1.92A1.13,1.13,0,0,0,86.45,126.05Z"/><path d="M93.46,63.64c-.07-.3-.35-.35-.65-.31s-.27.34-.23.52.28.6.32.91c.11.8.94,1.64-.11,2.41-.09.07-.1.34,0,.46a5.34,5.34,0,0,1,.54,3.64c0,.06-.19.34.21.41s.49-.15.6-.37a2.56,2.56,0,0,0,.07-.48c.33-1.35-.63-2.62-.1-4.08C94.4,65.87,93.71,64.69,93.46,63.64Z"/><path d="M88.57,103.35c-.37-.11-.55.35-.69.63a1.55,1.55,0,0,0-.08.64,1.37,1.37,0,0,1-.39,1,3.09,3.09,0,0,0-.73,1.17c-.63,1.37-.76,2.91-1.73,4.16-.22.28,0,.37.28.51a2.4,2.4,0,0,0,.73-.76c.68-1.24.92-2.65,1.68-3.83a4.44,4.44,0,0,0,.92-2.67.12.12,0,0,1,0-.07C88.83,103.86,89,103.47,88.57,103.35Z"/><path d="M75.4,124.2a3.22,3.22,0,0,0-1.23,2.23q0,1.49,1.45.82c.66-.31,1.07-2.55.55-3.06A.51.51,0,0,0,75.4,124.2Z"/><path d="M76.9,106.46a8,8,0,0,1-.23-1.77c.09-.92-.47-1.72-.43-2.63a.55.55,0,0,0-.67-.6.53.53,0,0,0-.36.66c.38,1.61.8,3.21,1.13,4.82.06.29.21.5.41.47s0-.3.06-.47S76.88,106.58,76.9,106.46Z"/><path d="M85.33,81.44c.42.17.38-.24.45-.43.61-1.68.41-3.46.88-5.24,0-.12-.11-.24-.27-.31s-.35.06-.42.21a2.12,2.12,0,0,0-.39.88c0,1.11-.33,2.2-.23,3.31a1,1,0,0,1-.19.93A.42.42,0,0,0,85.33,81.44Z"/><path d="M75.24,92.43c0-.48.2-.93.21-1.43,0-1.31-.65-2.58-.2-3.91.08-.23-.15-.39-.44-.42s-.48,0-.46.33a.68.68,0,0,1-.16.57c.33.74.06,1.56.31,2.34a7.08,7.08,0,0,1,.19,2.49c0,.18,0,.38.23.4S75.24,92.63,75.24,92.43Z"/><path d="M74.56,82.91c0,.34.2.49.57.48s.36-.32.33-.53c-.16-1,.13-2,0-2.95a2.6,2.6,0,0,1,.31-1.32c.1-.23.47-.52.14-.71s-.63.19-.86.41a.81.81,0,0,0-.31.65c.11.92-.35,1.81-.2,2.62C74.56,82.1,74.56,82.51,74.56,82.91Z"/><path d="M88.94,67.9c0,.25-.06.55.22.6a.55.55,0,0,0,.63-.55c0-.36,0-.73,0-1.26.28-1-.44-2.06-.38-3.21a.48.48,0,0,0-.65-.49c-.43.12-.28.48-.2.69C89.11,65.06,88.79,66.49,88.94,67.9Z"/><path d="M78.88,93.25a.42.42,0,0,0-.54-.31c-.22,0-.36.18-.31.42.33,1.52.28,3.08.66,4.59.07.29.09.56.5.54s.15-.43.38-.56a12.64,12.64,0,0,1-.58-3.8A5.58,5.58,0,0,0,78.88,93.25Z"/><path d="M82.71,73.1c.28,0,.39-.15.49-.38a3.23,3.23,0,0,0,.17-1.26,26.7,26.7,0,0,1,.11-3c0-.39.12-.63-.38-.7s-.44.32-.44.59c0,1.43-.24,2.86-.14,4.3C82.52,72.77,82.32,73.07,82.71,73.1Z"/><path d="M87.36,87.39c-.51,0-.58.27-.58.64,0,1.2,0,2.4,0,3.6h.11c0,.08.07.17,0,.23-.11.29-.05.68.22.71s.3-.37.37-.61a18.15,18.15,0,0,0,.17-4C87.7,87.78,87.89,87.41,87.36,87.39Z"/><path d="M82.23,90a.42.42,0,0,0-.56.38c-.07.61.12,1.25-.13,1.7.1,1.17.2,2.2.28,3.23,0,.24,0,.42.39.41s.37-.23.33-.45a13.9,13.9,0,0,1,0-4.76A.4.4,0,0,0,82.23,90Z"/><path d="M93.31,108.29a.53.53,0,0,0,.67-.37c.05-.27.26-.41.41-.61a5.16,5.16,0,0,0,1-3.19c-.1-.41.21-.85-.38-.78-.38,0-.44.38-.44.69a4.81,4.81,0,0,1-.3,1.82,8.74,8.74,0,0,1-1,1.76C93.1,107.85,92.93,108.15,93.31,108.29Z"/><path d="M79.56,65.58c-.08.17-.3.3-.33.47-.23,1.07-.42,2.14-.63,3.26.2.17-.2.59.26.64s.43-.35.51-.62l.93-3.39c.05-.19.25-.43-.13-.51C80,65.38,79.7,65.29,79.56,65.58Z"/><path d="M97.76,70.61c-.45.06-.28.53-.3.84a2.56,2.56,0,0,0,.07.56,7.22,7.22,0,0,1,.25,2.37.31.31,0,0,0,0,.39c.1.16-.47.46.12.53.35,0,.58-.07.64-.42,0-.15.18-.32.14-.45-.31-1,.11-2.12-.47-3.11C98.07,71.07,98.31,70.54,97.76,70.61Z"/><path d="M87.3,97.74a.42.42,0,0,0-.52.22,2.92,2.92,0,0,0-.18.58c-.2,1.2.16,2.42-.24,3.61-.07.2-.06.52.22.55a.47.47,0,0,0,.49-.47A27.67,27.67,0,0,0,87.46,99c0-.33,0-.6,0-.87S87.54,97.81,87.3,97.74Z"/><path d="M88.69,96.12c-.27,0-.32.29-.3.52.06,1.06.13,2.12.18,3,0,.63,0,1,0,1.45,0,.15,0,.27.25.26s.23,0,.27-.16a2.07,2.07,0,0,0,.18-.53,19.8,19.8,0,0,0-.18-4.05C89.07,96.4,89,96.08,88.69,96.12Z"/><path d="M78.55,81.05c-.39-1.22.16-2.39.18-3.58,0-.26.21-.6-.09-.73s-.43.34-.69.49c-.07,0-.07.2-.07.3a15.87,15.87,0,0,1-.2,3c0,.4,0,.57,0,.73s-.13.6.39.55A.51.51,0,0,0,78.55,81.05Z"/><path d="M96.42,61.11c-.05.67.23,1.32.19,2,0,.27.14.75.57.67s.46-.41.39-.84A8.49,8.49,0,0,1,97.31,61,2.63,2.63,0,0,0,97,59.8c-.1-.22-.21-.4-.5-.39s-.19.33-.28.55A4.45,4.45,0,0,1,96.42,61.11Z"/><path d="M75.59,99.59a.38.38,0,0,0,.27-.18,1.53,1.53,0,0,0,.21-.68c-.08-1-.2-2.08-.3-3.11,0-.32,0-.73-.49-.72s-.4.45-.44,1a30.6,30.6,0,0,1,.55,3.42C75.42,99.42,75.37,99.6,75.59,99.59Z"/><path d="M84.3,59.56c.2-.92.32-1.85.47-2.77-.16-.29.21-.78-.27-.84s-.7.33-.68.77a.43.43,0,0,1,0,.16c-.28.81-.06,1.68-.36,2.49-.09.25-.28.63.15.76S84.24,59.83,84.3,59.56Z"/><path d="M79.21,86.66c.39,0,.39-.44.42-.68.18-1.2.28-2.42.45-3.62,0-.2,0-.31-.16-.37a.4.4,0,0,0-.48.11c-.15.2-.33.4-.31.65.09.84-.35,1.64-.2,2.37a4.81,4.81,0,0,0,0,.85C79,86.21,78.69,86.65,79.21,86.66Z"/><path d="M102.51,101.26a.54.54,0,0,0-.42.06,1.39,1.39,0,0,0-.57,1.13,5.32,5.32,0,0,1-1.15,3.45c.72.16,1.16,0,1.3-.55.35-1.23.64-2.48.94-3.73C102.64,101.49,102.67,101.31,102.51,101.26Z"/><path d="M103,73.88c-.34,0-.39.36-.43.62a1.51,1.51,0,0,0,.15.62c.31,1.05.91,2,.77,3.19,0,.36-.26,1,.29,1,.39,0,.31-.68.42-1-.05-1.39-.72-2.61-.91-3.92C103.27,74.21,103.47,73.83,103,73.88Z"/><path d="M91.8,74.78a.45.45,0,0,0,.47.42c.28,0,.25-.33.26-.55a20.12,20.12,0,0,0-.86-3.5c-.06-.17,0-.5-.37-.45s-.43.26-.42.53,0,.33,0,.49C91,72.78,91.86,73.67,91.8,74.78Z"/><path d="M91.2,83.19c0,.28-.11.72.33.72s.6-.45.56-.79a11.36,11.36,0,0,0-.2-1.68c-.14-.53,0-1.09-.29-1.58-.08-.13-.05-.33-.31-.32a.41.41,0,0,0-.43.35,3.8,3.8,0,0,0,0,.49C90.92,81.32,91.21,82.24,91.2,83.19Z"/><path d="M97.31,95.64c-.11,0-.26,0-.3.12s-.5.38-.19.72c-.44,1.27,0,2.62-.38,3.91,0,.12-.28.37,0,.46s.4-.12.5-.35c.64-1.48.24-3.06.56-4.57A.21.21,0,0,0,97.31,95.64Z"/><path d="M100.67,74.18c-.41,0-.29.29-.28.47.06,1.12.4,2.24,0,3.38,0,.34.12.78.52.83s.4-.39.42-.66a15.27,15.27,0,0,0-.19-3.68A.4.4,0,0,0,100.67,74.18Z"/><path d="M83.43,87.85a8.2,8.2,0,0,1,.08-3.31c0-.22.24-.42-.06-.55s-.44.13-.57.27a1.7,1.7,0,0,0-.31.9,17,17,0,0,0,0,2.72c0,.3-.14.77.39.75S83.48,88.07,83.43,87.85Z"/><path d="M92.6,58.7c0,.15-.12.4.15.49s.43-.16.49-.34a6.9,6.9,0,0,0,.45-2.43,1.72,1.72,0,0,0-.37-1.32c-.11-.18-.25-.45-.49-.38a.45.45,0,0,0-.28.6A5.89,5.89,0,0,1,92.6,58.7Z"/><path d="M90,84a4.27,4.27,0,0,0-.12-3.37c-.07-.22-.35-.57-.64-.47s-.29.54-.16.79a3.45,3.45,0,0,1,.28,1.92,2.18,2.18,0,0,1-.07.95c-.11.22-.24.51.08.62S89.86,84.22,90,84Z"/><path d="M96.56,83.81c.34,0,.42-.19.49-.46a5.69,5.69,0,0,0,.14-2c0-.51,0-1,0-1.52a.51.51,0,0,0-.34-.57c-.45-.12-.38.3-.42.46-.29,1.19.13,2.4,0,3.61C96.43,83.4,96.16,83.77,96.56,83.81Z"/><path d="M97.9,91.9a10.2,10.2,0,0,0,1.14-4,1.27,1.27,0,0,0,0-.24c0-.17.12-.44-.15-.49s-.31.23-.42.42-.1.69-.25,1c-.44.94-.31,2-.81,2.93a.39.39,0,0,0,.19.57C97.76,92.17,97.84,92,97.9,91.9Z"/><path d="M81,102.92c.15-.6-.08-.79-.56-.81s-.38.3-.34.51c.16.95.36,1.89.51,2.84.05.33.11.68.54.55s.38-.41.31-.8A16,16,0,0,0,81,102.92Z"/><path d="M99.37,84.13c.17.06.28-.08.37-.17a2.59,2.59,0,0,0,.79-2.15,4.22,4.22,0,0,0-.17-1.66c-.1-.23-.2-.41-.49-.38s-.24.33-.24.51c0,1.18.23,2.38-.36,3.52A.23.23,0,0,0,99.37,84.13Z"/><path d="M92.93,97.21a.32.32,0,0,0,.39-.35c-.1-.58.3-1.14.12-1.68.28-.71-.26-1.35-.1-2,.07-.29,0-.69-.44-.64s-.5.38-.42.74a20.55,20.55,0,0,1,.27,3.53C92.75,97,92.65,97.18,92.93,97.21Z"/><path d="M93.76,86.91c.23,0,.29-.1.39-.25a3.87,3.87,0,0,0,.34-2.14c-.12-.48.17-1.08-.15-1.66-.1-.17,0-.49-.35-.43a.5.5,0,0,0-.41.48c0,.16,0,.33,0,.49-.07,1,.44,2.08,0,3.13A.25.25,0,0,0,93.76,86.91Z"/><path d="M75.88,74.22c.47,0,.37-.29.35-.51a7.33,7.33,0,0,1,.51-3.29c.09-.21,0-.32-.18-.4a.39.39,0,0,0-.5,0,2.27,2.27,0,0,0-.36.64,10,10,0,0,0-.21,3C75.32,74.17,75.59,74.21,75.88,74.22Z"/><path d="M102.42,68.21a.42.42,0,0,0,.38.55c.39.06.45-.27.49-.46a7,7,0,0,0,0-1.19c.18-.62-.15-1.27-.16-1.94,0-.24.07-.51-.38-.49a.46.46,0,0,0-.49.55A9.32,9.32,0,0,1,102.42,68.21Z"/><path d="M99.37,102.05a.44.44,0,0,0-.42.09,1.24,1.24,0,0,0-.36.54c-.4,1-.24,2.18-.88,3.16-.1.15-.11.46.3.44s.35-.25.47-.44c.66-1.07.58-2.33,1-3.45A.23.23,0,0,0,99.37,102.05Z"/><path d="M89.12,59.68c.52,0,.53-.43.54-.78,0-.81,0-1.63,0-2.44,0-.21.14-.51-.32-.53a.5.5,0,0,0-.56.51,12,12,0,0,0,0,1.46h0a6.35,6.35,0,0,0,0,1.06C88.8,59.22,88.46,59.71,89.12,59.68Z"/><path d="M89.46,72.91a3.83,3.83,0,0,0-.07.68,24.81,24.81,0,0,0,.72,3c0,.22.09.38.38.32s.22-.19.23-.41c.07-1.23-.58-2.35-.58-3.57a.23.23,0,0,0-.26-.26A.4.4,0,0,0,89.46,72.91Z"/><path d="M101,95.76c0-.14.08-.34-.14-.42s-.37.07-.47.25a3.33,3.33,0,0,0-.33.91,8.25,8.25,0,0,1-.41,2.36c-.09.17-.44.25-.22.53a.58.58,0,0,0,.48.17c.38,0,.45-.29.49-.48C100.64,98,100.82,96.88,101,95.76Z"/><path d="M97.28,69c.09.22.16.47.45.4s.35-.31.22-.6a10.78,10.78,0,0,1-1-3.14c0-.3-.34-.35-.64-.32s-.27.29-.34.39a4.43,4.43,0,0,0,.15.53C96.48,67.15,96.9,68.05,97.28,69Z"/><path d="M85.59,96.28a11.46,11.46,0,0,0-.29-3.93.39.39,0,0,0-.48-.38c-.34.05-.35.27-.29.54.14.6.11,1.25.27,1.82S84.61,95.78,85.59,96.28Z"/><path d="M84.92,64.74h0a9.48,9.48,0,0,1-.11,1.46c-.08.35-.28.81.13.92s.51-.45.66-.76c.07-.14,0-.33,0-.48.21-.79-.15-1.59.07-2.37.06-.21.23-.41-.09-.52a.46.46,0,0,0-.64.38A9.75,9.75,0,0,0,84.92,64.74Z"/><path d="M79,88.84c-.06-.21,0-.52-.39-.49s-.44.31-.42.63a9.53,9.53,0,0,0,.63,2.46c.1.24,0,.72.51.63s.35-.54.29-.83C79.45,90.42,79.21,89.63,79,88.84Z"/><path d="M102,87.93c.28,0,.42-.13.48-.38a24.91,24.91,0,0,1,.6-2.83c-.13-.27.18-.63-.32-.7s-.52.27-.62.54c-.37.94-.05,1.93-.29,2.88C101.82,87.65,101.66,87.87,102,87.93Z"/><path d="M86.07,58.82a.56.56,0,0,0,.64.2.29.29,0,0,0,.19-.46,5.68,5.68,0,0,1-.34-2.71.41.41,0,0,0-.36-.41c-.35-.08-.39.21-.48.38a1.66,1.66,0,0,0-.09.57,10.82,10.82,0,0,1,.21,1.92C85.83,58.47,86,58.65,86.07,58.82Z"/><path d="M105.44,87.58a19.09,19.09,0,0,1,.38-4.29,1.38,1.38,0,0,0-.94,1.33c0,1-.11,2-.18,3,0,.21,0,.44.27.44A.42.42,0,0,0,105.44,87.58Z"/><path d="M83.92,106.39c-.23,0-.29.12-.39.25a1.23,1.23,0,0,0-.32.64,18.24,18.24,0,0,1-.42,2.44c-.08.3-.1.48.22.56a.42.42,0,0,0,.57-.37l.57-3.12C84.05,106.71,84.27,106.45,83.92,106.39Z"/><path d="M90.55,106.58a.88.88,0,0,0,.52-.47c.27-.81.54-1.62.74-2.45.07-.28.18-.76-.32-.8s-.5.33-.6.68c-.24.89,0,1.88-.75,2.68C89.93,106.47,90.24,106.55,90.55,106.58Z"/><path d="M81.55,75.32a9,9,0,0,1-.22,2.51c0,.4-.07.75.32.8s.35-.34.48-.56a1,1,0,0,0,.12-.46,7.65,7.65,0,0,1,.18-2.32.38.38,0,0,0-.39-.52C81.64,74.75,81.57,75.07,81.55,75.32Z"/><path d="M103.22,93.67c0-.22.32-.58-.21-.62s-.55.3-.6.63a5.68,5.68,0,0,1-.43,2.4c-.13.21-.18.56.44.55a.7.7,0,0,0,.59-.79A15.35,15.35,0,0,0,103.22,93.67Z"/><path d="M78.58,63.29a1,1,0,0,0,.59-.46c.31-.82.57-1.66.82-2.38-.07-.3.07-.54-.21-.61a.45.45,0,0,0-.55.31c0,.07-.09.14-.13.21-.46.85-.25,1.88-.94,2.67C78,63.17,78.22,63.43,78.58,63.29Z"/><path d="M78.66,75.2c.61,0,.53-.43.49-.76a8.11,8.11,0,0,1,.25-1.91c0-.21.35-.46-.1-.57a.54.54,0,0,0-.69.36A4.39,4.39,0,0,0,78.25,74c0,.17,0,.28,0,.39C78.27,74.74,78.14,75.17,78.66,75.2Z"/><path d="M91.17,93.21c-.43,0-.46.59-.53.91-.16.73.09,1.52-.3,2.23-.17.3-.18.57.16.67s.56-.33.56-.5c0-.82.5-1.55.46-2.45C91.38,93.83,91.77,93.24,91.17,93.21Z"/><path d="M90.5,91.29c.31-.06.33-.37.28-.62a11.75,11.75,0,0,1-.4-2.54.48.48,0,0,0-.28-.36c-.2-.07-.31.12-.39.27a.83.83,0,0,0-.17.67c.12.64.21,1.36.4,2.06C90,91,90.1,91.38,90.5,91.29Z"/><path d="M85.94,74.54c.53,0,.54-.53.55-1a4.45,4.45,0,0,1,.13-1.6.6.6,0,0,0-.45-.81c-.56-.11-.6.53-.54.63.35.64-.13,1.21-.06,1.89C85.66,73.94,85.33,74.53,85.94,74.54Z"/><path d="M86.12,85.81c.46,0,.6-.48.56-.79a3.82,3.82,0,0,1,.11-1.82.41.41,0,0,0-.28-.54c-.3-.11-.39.12-.53.3a2.32,2.32,0,0,0-.27,1.49,4.21,4.21,0,0,1,0,.57C85.65,85.38,85.76,85.8,86.12,85.81Z"/><path d="M83.5,97.41c-.32-.09-.41.22-.44.48a7,7,0,0,0-.17,1.62c0,.3,0,.6,0,.9s.28.32.51.3.46-.14.38-.43a5.33,5.33,0,0,1,.11-2.19A.52.52,0,0,0,83.5,97.41Z"/><path d="M92.28,99.25a.54.54,0,0,0-.59.5,8.84,8.84,0,0,0,0,1.14h0c0,.3,0,.6,0,.9s-.14.52.32.53.57-.19.59-.55a10.06,10.06,0,0,1,.08-1.94A.48.48,0,0,0,92.28,99.25Z"/><path d="M94.54,88.08a.48.48,0,0,0-.59.47,11.9,11.9,0,0,0,0,1.47h0c0,.41,0,.82,0,1.23s0,.59.45.58.27-.36.28-.56c0-.88,0-1.76,0-2.64C94.64,88.44,95.11,88.18,94.54,88.08Z"/><path d="M105.84,92.26a.33.33,0,0,0-.41.33,19.71,19.71,0,0,1-.57,3c0,.19,0,.42.22.48a.41.41,0,0,0,.45-.31c0-1,.63-1.78.63-2.54C106.13,92.74,106.25,92.39,105.84,92.26Z"/><path d="M80.18,98.18c-.15.5.13.92.2,1.36,0,.19.14.53.52.42s.44-.35.25-.64A1.62,1.62,0,0,1,81,98.19c0-.45.32-.84.27-1.28,0-.13,0-.29-.15-.34s-.33-.05-.38.11C80.59,97.2,79.86,97.55,80.18,98.18Z"/><path d="M84.34,102.09c0-.21.17-.53-.23-.6s-.48.28-.6.51a1.8,1.8,0,0,0-.1.6c.07.49.14.94.19,1.39,0,.28-.09.74.35.7a.7.7,0,0,0,.5-.82A9.47,9.47,0,0,1,84.34,102.09Z"/><path d="M100.7,90.23a5.68,5.68,0,0,1-.27,2c.32.24,0,.88.51.87s.45-.53.45-.91c0-.14,0-.27,0-.41,0-.49,0-1,0-1.46,0-.21.34-.46-.08-.58S100.75,90,100.7,90.23Z"/><path d="M80.66,108.11c0-.25,0-.55-.35-.55a.56.56,0,0,0-.56.54c0,.27,0,.54,0,.81h0a3.43,3.43,0,0,0,0,.89.67.67,0,0,0,.81.49c.46-.08.31-.48.22-.66A3.81,3.81,0,0,1,80.66,108.11Z"/><path d="M87,53c.46,0,.26-.35.29-.56.07-.61-.58-1-.55-1.64,0-.24-.08-.58-.47-.56s-.42.37-.43.67c0,.59.54,1.06.55,1.66C86.41,52.88,86.67,53,87,53Z"/><path d="M94,77.48a13.66,13.66,0,0,0,.17,2.86c0,.16.13.3.26.3s.26-.17.29-.35a3.37,3.37,0,0,0,.07-1.4c0-.61,0-1-.07-1.4a.35.35,0,0,0-.4-.35A.36.36,0,0,0,94,77.48Z"/><path d="M87,68.22a.7.7,0,0,0,0,.52,6.84,6.84,0,0,0,.38,2,.41.41,0,0,0,.49.28.21.21,0,0,0,.2-.29,14.36,14.36,0,0,1-.33-2.48c0-.24-.12-.33-.38-.33S87.1,68,87,68.22Z"/><path d="M82.82,82.74c.71-.08.12-.72.35-1-.09-.47.08-.93-.17-1.37-.1-.17-.09-.37-.39-.32a.4.4,0,0,0-.37.4c0,.46-.15,1,0,1.36S82.08,82.82,82.82,82.74Z"/><path d="M85.12,53.9c-.28-.86-1.09-1.41-.95-2.31.06-.42-.31-.28-.55-.16-.66.35-.24.88-.1,1.22C83.77,53.24,84,54.05,85.12,53.9Z"/><path d="M101,66.63c0-.18-.06-.32-.3-.31s-.39,0-.41.21a6.12,6.12,0,0,0,.7,3.19C101.32,68.66,101,67.65,101,66.63Z"/><path d="M103.82,98.2c-.55,0-.43.46-.45.79a3,3,0,0,1-.48,2.19,1,1,0,0,0,.93-.44A2.68,2.68,0,0,0,104.1,99C104.1,98.73,104.29,98.24,103.82,98.2Z"/><path d="M81.88,62.48a.68.68,0,0,0-.39-.29c-.11,0-.23.14-.25.29-.13.79-.27,1.57-.42,2.48A2.13,2.13,0,0,0,81.88,62.48Z"/><path d="M92.07,50.77c0-.21.16-.52-.3-.56s-.57.29-.59.56c0,.61,0,1.23,0,2A1.66,1.66,0,0,0,92.07,50.77Z"/><path d="M95.26,76.9a.33.33,0,0,0,.41.33A.4.4,0,0,0,96,76.7q-.18-.78-.34-1.55c-.06-.28-.07-.67-.48-.64s-.31.41-.24.76C94.69,75.81,95.25,76.31,95.26,76.9Z"/><path d="M90.92,62.28c0,.33,0,.71.49.68s.42-.38.42-.67c0-.11,0-.22,0-.32,0-.44.06-1-.51-1.05s-.28.62-.41.9S90.92,62.15,90.92,62.28Z"/><path d="M86.87,60.2c-.6,0-.21.51-.32.77a.63.63,0,0,0,0,.24c0,.22,0,.43,0,.65s0,.66.49.59.44-.39.42-.7-.17-.5-.19-.77S87.57,60.17,86.87,60.2Z"/><path class="cls-2" d="M54.42,27.34H69a3.18,3.18,0,0,0,1-2.2,2.48,2.48,0,0,0-1-1.8H54.83"/></svg>