<svg id="_лой_1" data-name="—лой 1" xmlns="http://www.w3.org/2000/svg" viewBox="0 0 439.77 396.02"><defs><style>.cls-1{fill:#fff;}.cls-2{fill:#a3a3a3;}.cls-3{fill:#f9c2cf;}</style></defs><title>Монтажная область 8</title><path class="cls-1" d="M97,115.7C93,103.58,95.79,89.05,108.3,83c5.24-2.52,10-2.88,15.15.17,7,4.14,4.18,5.72,11.53.63,9.93-6.86,18.7-2.44,28.12,2.37,11.64,5.95,19.73,7.23,31.22-.35,8.57-5.66,22.66-14,33.3-11.5,12.24,2.85,17,18.19,11.35,28.65-5.14,9.43-15.17,18.28-18.68,28.7-4.2,12.47,15.37,12,23.32,15.85A179.92,179.92,0,0,1,279,169.68c9.18,7.52,14.74,18.36,24.52,25.52,10.52,7.69,27.08,6.18,39.48,9.18a379.8,379.8,0,0,0,45.5,7.83c10.81,1.26,22.25,3,25.82,14.82,4.17,13.85,1.7,20.51-10,28.13-27.57,18-59.9,23.91-92.7,23.87-10.17,0-20.89-2.31-28.13,5.82-6,6.73-9.6,14.41-15.33,21.37-5.89,7.14-12.45,15.68-22.5,15.48a20.52,20.52,0,0,1-14-5.33c-3.47-3.33-4.68-10.12-8.52-11.91-5,16.69-46.27,20.26-52.13,3.52-3.2,12.12-20.62,16.53-32,16.4-8.42-.1-7.52-2.55-13.28-6.16-5.47-3.43-9.71.33-15.35,1.51-10,2.09-23.55-.05-31.35-7.5-9.22-8.81-.1-21.81,1.33-32.52,4.35-32.47-6.19-63.16-9.33-94.63-2.46-24.71,4.71-46.72,21.5-65.2,1.31-1.44,2.77-2.75,3.83-4.17Z"/><path class="cls-2" d="M124.45,276.78A16.49,16.49,0,0,0,127,275c1.81-1.26,3.2-.59,3.4,1.65a13.64,13.64,0,0,1,0,1.73,1.17,1.17,0,0,0,.62,1.19c.55.26.83-.27,1.14-.59,2.19-2.25,2.75-6.92,1.56-9.84-1.91-4.67-5.35-8.18-8.48-11.93-.73-.87-10.2-7-11.79-9.93.64,3.16-.4,6.41.39,9.35,1.45,5.41-1.42,10.62-.27,16,.12.56-.87,1.46-.06,2s1.36-.25,2-.73c2.66-2.09,3.37-2,4.31,1.07C120.65,277.82,122.34,277.71,124.45,276.78Z"/><path class="cls-3" d="M278.37,234.16a132.71,132.71,0,0,1-1.25,14.13c-.19,1.41,4.82,8.17,9.41-.73,1.37-3.46,3.6-6.52,4.38-10.28,1.45-7,.21-13.67-1.84-20.29a2.12,2.12,0,0,0-.94-1c-2.49-1.51-4.84-3.22-7.2-4.91-1.57-1.13-2.52-3.2-5.28-3.49A111.36,111.36,0,0,1,278,222.92C278.31,226.67,278.46,230.4,278.37,234.16Z"/><path class="cls-2" d="M123.35,250.12a1.93,1.93,0,0,1,1,.55c3,3.59,6,7.16,8.92,10.82,4.35,5.5,5,12.38,6.85,18.83.29,1,.63,2,1.48,2.25,1.11.39,1.59-.73,2-1.55.73-1.34,1.93-1.77,2.61-.4,1.59,3.19,3,1.44,4.24,0,1.58-1.85,2.86-1.43,3.43.52.76,2.58,1.81,1.08,2.73.4.57-.43.82-1.25,1.32-1.81,1.17-1.31,2.31-1.61,3.3.25.23.43.25,1.25,1.26.86.64-5.67,1.06-11.41,1.4-17.19a74.65,74.65,0,0,0-.11-14.46c-.18-1.28.05-2.44,1.43-3,2.41,2.79,2.09,6.18,2,9.46a2.41,2.41,0,0,0,1.92,2.83,22.87,22.87,0,0,0,3.55.77c2,.34,3.59-1,5.44-1,5.38.17,10.81.78,16.12-.31,3-.61,5.85.2,8.68-.09a80.49,80.49,0,0,1,17.35,0,36,36,0,0,0,11.38-.29c2.73-.56,2.25-1.62.93-3-1.73-1.75-3.79-3.2-5.47-5-6.48-6.91-9.67-15.49-12-24.45a10.44,10.44,0,0,1,0-4,1.82,1.82,0,0,1,1.74-1.61c.72,0,1.07.71,1,1.46-.2,4.88,2,9.15,3.57,13.54a33.22,33.22,0,0,0,9.63,14,37.1,37.1,0,0,1,6.85,8c5.21,8.12,8,17.28,11.18,26.43a4.45,4.45,0,0,0,2.21-1.92c1-1.49,2.28-3.2,3.42,0,.31.88.74.66,1.24.25s1-1.15,1.66-.36c1.34,1.65,2.58,1.75,3.92,0a1.12,1.12,0,0,1,1.56-.22c1.26.9,2-.18,2.26-.87,1.1-2.8,2.76-5.48,2.07-8.75a3.92,3.92,0,0,1,.31-2.78,48.52,48.52,0,0,0,4.62-12.64c1.54-6.81,3.06-13.61,3.06-20.64,0-3.81-.33-7.62-.43-11.41a71.92,71.92,0,0,0-2.27-15.08c-1.76-7.21-3.26-14.65-7.72-20.86-3.38-4.72-5.86-10.16-11-13.54-4.07-2.71-8.77-4.43-12.64-7.24-6.65-4.82-14.16-6.13-21.87-7.29-5.12-.77-10.22-1.73-15.37-2.17-4.39-.38-8.85,0-13.26-.21-3.41-.13-6.33,1.64-9.61,2.08a10.78,10.78,0,0,0-6.45,4c-2.75,3.19-5,6.79-8.36,9.48-.87.7-1.67,2-2.81.69s-.28-2.54.94-3.33a10.49,10.49,0,0,0,3-2.37,124.4,124.4,0,0,1,8.8-10.07c6.5-6.76,13.76-12.7,20.66-19,.35-.32.82-.66.59-1.18s-.76-.43-1.35-.47c-3.73-.25-7.34.74-10.82,1.55-5.21,1.21-10.56,1.59-15.71,3.08a2.41,2.41,0,0,1-3-1.6c-.42-1.41.95-1.42,1.88-1.91,3.4-1.77,7-3.22,10.23-5.18,6.43-3.92,13-7.46,19.72-10.93,5.25-2.72,10.6-5.37,14.64-9.91.43-.48,1.46-1.05,1.07-1.53-1.36-1.63-2.78-4-4.54-4.34a24.79,24.79,0,0,0-10-.08c-11.16,2.3-22.5,2-33.75,2.83-5.77.43-11.58,1-17.31,1.27-3.25.16-6.14,4.76-9.63,1,0,0-.17.05-.27.06-2.65.35-5.3.66-7.93,1.07s-4.65,1.13-3.94,4.46c.18.81-.32,1.39-.85,2.13-1.53,2.11-3.4,2.66-5.83,2.65-1.54,0-3.39-.82-4.61.69a46.87,46.87,0,0,0-6.84,10.31c-2.7,6.16-5.12,12.44-7.55,18.71-3.88,10-3.83,20.49-5.25,30.79a46.73,46.73,0,0,0,.38,12.55c.87,6.43,1.27,13,3.6,19.07,3.87,10,7.6,20.18,14.83,28.59C117.36,245.3,119.06,249,123.35,250.12Zm144.44-44.46c2,.3,2.29,2.14,3,3.49-.05,1-.52,1.69-1.38,1.58-1.88-.23-2.81-1.62-3.17-3.31A1.33,1.33,0,0,1,267.78,205.66Zm-5.66.23c.54.63,1.07,1.25.74,2.17-.24.68-.05,1.76-.95,1.88a1.67,1.67,0,0,1-1.64-1.16c-.95-2.31-3.76-3.49-3.95-6.19.19-.63-.23-1.35.61-1.54a1.22,1.22,0,0,1,1.47.6C259.23,203.44,260.9,204.46,262.12,205.89ZM252,183.29a1.45,1.45,0,0,1,1.72-.65c2.7.58,6.71,5.53,6.69,8.35a1.54,1.54,0,0,1-.91,1.81c-.77.27-1.31-.46-1.57-1a20.28,20.28,0,0,0-5.63-6.75A1.27,1.27,0,0,1,252,183.29Zm-7.49,7.11a33.67,33.67,0,0,1-4.57-5.18c-.77-1.1.07-1.93,1.2-2.06,1.69.1,5.64,4.93,5.46,6.46S245,190.85,244.49,190.4Zm-7-20.45c.1-.79.83-.61,1.36-.62,1.56,0,7.8,4.15,8.26,5.56a3.18,3.18,0,0,1,.09.73c0,1.4-.66,1.88-1.74,1.16-2.51-1.65-4.85-3.55-7.66-4.73C237,171.74,237.37,170.67,237.46,170Zm-3,15.81c-.46,1.46-1.78,1.06-2.37.29-1.44-1.88-3.22-3.43-4.68-5.26-.68-.85-1-2.23,1.57-2.29C230.5,178.44,235.08,183.77,234.45,185.76ZM219,164.84c.39-1.43,1.68-.22,2.23-.73,2.55.13,4.41,1.41,6.28,2.63a1.71,1.71,0,0,1,.45,2.31c-.43.93-1.19.84-2.16.59-2.19-.55-3.48-2.87-6-2.88C219.47,166.77,218.82,165.61,219,164.84Zm-9.7.36c.78-.34,1.27-.52,2,.16,1.14,1.11,2.4,2.09,3.63,3.11a1.82,1.82,0,0,1,.49,2.09c-.2.65-.93.74-1.42.84-2.43-.78-4.51-1.82-5.32-4.29C208.5,166.5,208.29,165.65,209.34,165.19Zm-6.45,8c-.09-.75.44-.89,1.08-1,1.22-.12,7.29,2.51,7.82,3.51a3.21,3.21,0,0,1-.07,2.92,41.39,41.39,0,0,0-8.17-3.56C202.44,174.67,203,173.81,202.89,173.15Zm-11-10a29.26,29.26,0,0,1,8.55,1.26,1.17,1.17,0,0,1,.64,1.45c-.21.88-.85,1.11-1.7,1.19-1.45.14-2.68-1.17-3.57-.71-1.45.13-2.45-.06-3.12.34-1.41.84-1.89,0-2.3-1A1.77,1.77,0,0,1,191.89,163.13ZM190,178a8,8,0,0,1,5.48,1.72,1,1,0,0,1,.35,1.46c-.45.95-1.38.85-2.94.79a15.66,15.66,0,0,0-3.75-.61,1.15,1.15,0,0,1-1.17-1.34A2.15,2.15,0,0,1,190,178Zm-12.79-12c2-.57,4.15-.86,6,.61,1.3,1.05.47,1.47-.61,2.17-2.08,1.36-4.51-1.25-6.57,1.41C175.81,168.14,175.28,166.55,177.18,166Zm-8.72,8.91c1.67-1.18,3.68-1.15,5.65-.93.45,0,.53.45.52.86a1.88,1.88,0,0,1-1.3,1.71c-1.42.4-2.93.41-4.23,1.3-.4.27-.87-.23-1.13-.63A1.74,1.74,0,0,1,168.47,174.93Zm-19-59c.73-1.63,2.54-.34,3.56-.74,2.67,0,5,0,6.92,2,.7.73,1,1.3.79,2.13a1.5,1.5,0,0,1-1.81,1,13.9,13.9,0,0,0-5.55.67c-1.8.52-2.58-.64-3.53-1.61A3.15,3.15,0,0,1,149.5,115.93Z"/><path class="cls-1" d="M123.62,119.7c2.41,11.31,2.19,19.2,7.19,30,4.07,8.79,10.34,20.39,20.15,24,11.8,4.34,16.73-6.44,23.5-13.83s14.7-13.4,21.67-20.33c2-2,3.7-3.12,4.06-5.73-4-.37-7.81,2.17-11.9,2.57-5,.49-9.86-.66-14.41,1.38,7.53-3.47,14.76-8.29,21.9-12.57,4.9-2.94,19.88-9,20.55-15.45,1-9.76-20.91-5.21-26.7-4.7-10.43.92-21.19.37-32,1.33-9.33.83-31.05-1.53-33.33,10Z"/><path class="cls-2" d="M219.3,262.05c-1.48.17-2.77-.56-4.15-.73-3.14-.36-6.31-1.83-9.45-.61a11.54,11.54,0,0,1-5.27.66,8.46,8.46,0,0,0-4,.49c-.69.29-1.79.6-1.46,1.45,1.49,3.78,1.45,7.74,1.8,11.68.06.68,0,2.21,1.19,2.29.81.06,1.21-1,1.65-1.77a2.37,2.37,0,0,1,2.31-1.39c1.47.11.69,1.32,1.08,1.93s.56,2,1.77,1.46c1.68-.92,1.91,0,2.22,1.2.14.52.41,1.95,1.15,1.22,1.81-1.77,3.59-3.24,6.26-3.31.31,0,.59-.9.88-1.37,2.19-3.52,2.8-7.76,5.25-11.19C221.08,263.25,221,261.85,219.3,262.05Z"/><path class="cls-3" d="M352.63,249.43c-.61.73.06,2.46,1.2,3,4.37-.92,9-1.72,13.47-3,4.84-1.33,8.78-6.68,8.2-11.5-.09-.74-.12-1.4-1.07-1.23-5.2,1-10.23-1.29-15.44-.7-1.93.22-2.73.53-2.51,2.57C356.9,242.79,355.25,246.31,352.63,249.43Z"/><path class="cls-3" d="M377.42,246.68c3-.65,17.2-8.19,21.92-11.46-2.49-.44-18.82.28-21.08,1.42-.64.32-1.19.2-.77,1.27,1,2.61-.44,5-1.14,7.36-.13.45-1.07.63-.42,1.35C376.44,247.17,376.86,246.8,377.42,246.68Z"/><path class="cls-3" d="M284.79,253.08a63.37,63.37,0,0,0,16.35,2.14c12.38-.24,24.76-.24,37.12-1.24,3.89-.31,7.49-.15,10.62-3.82a17.88,17.88,0,0,0,4.66-11.56c.06-1.85-.8-3.63-3.13-3.62-5.42,0-10.41-2.35-15.8-2.74-2.27-.16-2.75.58-2.22,2.13.91,2.66,0,5.06-.74,7.37a17.08,17.08,0,0,1-7.87,9.54,1.85,1.85,0,0,1-2.13.13c-.61-.51.08-1,.51-1.33a17.2,17.2,0,0,0,7.49-12.66c.36-3.11-.6-6.34-2.65-7a79.53,79.53,0,0,0-12.48-2.89c-1-.16-2.09-.15-1.66,1.41,1.21,4.47.06,8.56-2.16,12.39-2,3.5-3.44,7.5-7,9.87-.82.54-2,1.89-2.85.55-.72-1.11,2.27-2.18,2.47-2.48,2.81-4.21,5.5-8.52,7-13.4,1.32-4.32-.85-9.84-4.11-11.12-3.65-1.43-7.33-2.83-11-4.29-.54-.22-1.08-.66-1.59-.34-.9.56.75,4.84.79,6.49C294.6,236.49,292.11,245.38,284.79,253.08Z"/><path d="M127.84,293.65c2.38-4.12,6.4-7.2,7.66-12,.17-.66.16-1.34,1-1.42a113.93,113.93,0,0,1,2.45,14.44c.37,2.93-.85,6.71-4.34,7.19a2.16,2.16,0,0,0-1.91,2.16c-.07,1.1,0,2,1.34,2.49a2.75,2.75,0,0,1,2.17,2.89c0,2.47,1.76,3.37,3.93,2.68,1.67-.53,2.23-.25,2.36,1.46.15,2,1.73,2.86,3.15,1.87,5.48-3.82,11.35-7.1,13.74-14.28,1.36-4.08,2.34-8.27,3.76-12.31,2.61-7.4,3.27-15.08,3.47-22.83.1-4,6.36-3.14,7.45-3.39,4.74-1.08,9.52-.27,14.27-.52,1-.05,2-.15,2.4,1,1.21,3.75,3.11,7.12,2.52,11.54-1.17,8.67-2,17.16-10.77,22-.63.35-1.78,1-1.28,2a3.12,3.12,0,0,0,2.58,2c.76,0,1.53,0,2.3,0,.56,0,1.2,0,1.24.79.16,3.37,2.1,2.79,4.34,2.15,1-.29,2.39-1.22,3.11.82.84,2.39,2.88,2.81,4.69,1.08a74.24,74.24,0,0,0,16.73-24.56c2.13-4.89,3.68-10.07,6.74-14.53,1.14-1.67,2-3.52,4.22-4.17a30,30,0,0,1,8.47-.75,1.69,1.69,0,0,1,1.78,1.12c1.36,3.4,3.5,6.39,4.72,9.89,1.78,5.1,2.14,10.48,3.5,15.63.83,3.15-.28,5.12-2.57,6.76-1.75,1.26-3.71,2.22-5.48,3.46-1.27.89-1.92,2-.48,3.45,2,2,5.41,2.93,4.68,6.84a1.42,1.42,0,0,0,2,1c.74-.34,1.72-.13,2.49-.44,1.64-.66,2.8-.91,3.4,1.38.28,1.08,1.45,1.56,3,1.27,4-.78,5.76-3.3,7-7,2.11-6.28,3.34-12.84,6.07-18.95,1.55-3.48,3.83-6.69,4.34-10.63.34-2.6,4.66-15.5,5.38-19.69.3-1.74,1.13-1.69,2.38-1a15.57,15.57,0,0,0,5.12,2.1c6.34.72,12.56,2.53,19,2.25,7.75-.34,15.51-.53,23.26-.91,6.71-.33,13.44-.16,20.09-1.58,1.8-.38,5.49-2,4.47,2.87-.09.44.42,1,.71,1.51.74,1.3,1.88.39,2.8.38s1.38-.76,1.57-1.68c.23-1.13-.55-1.43-1.3-1.88s-1.86-.4-2.11-1.68c4.78-.86,9.52-1.47,14.14-2.6,5-1.21,10-2.4,14.65-4.49,6.55-3,13-6.1,19.48-9.34,3.5-1.77,6.25-4.26,9.24-6.57a4.42,4.42,0,0,0,1.22-1.55c.4-.79.57-1.3-.16-2A1.53,1.53,0,0,0,408,229c-7.47,2.85-15.38,3.59-23.23,4.06-6.11.36-12.29.29-18.45.26-8.63,0-17-1.78-25.3-3.36-5.5-1-11-2.08-16.44-3.59-6.36-1.78-12.95-2.72-19.11-5.27a106.11,106.11,0,0,1-18.58-9.74,56.4,56.4,0,0,1-7.71-6.42c-3-2.93-8.55-14.13-9.63-15.89-1.28-2.08-2.45-4.24-3.88-6.22-3-4.1-5.47-8.58-9.82-11.56-3.52-2.4-22.12-12.63-28.53-13.62-6-.94-12-2.3-18.08-2.92-7.67-.78-15.27-1.56-23-.43-.56.08-1.45-1.31-.85-1.81,3.34-2.78,6.8-5.42,10-8.35a42.5,42.5,0,0,0,7.47-8.05c1.33-2.06.75-3.1-1.68-3.09a52.89,52.89,0,0,0-10.11,1.13l-11.51,2.28c.42-.71.52-1.14.79-1.3,4.18-2.52,8.22-5.33,12.61-7.39,4.22-2,8.12-4.56,12.44-6.35,6.79-2.81,11.11-8.7,16.36-13.42a3.94,3.94,0,0,0,1-4.47c-.54-1.36-12.85-.45-17.06-.58a106.69,106.69,0,0,0-17,1.36c-3.81.5-7.62.23-11.4.59-7.57.71-15.16,1-22.75,1.08-1.33,0-2.24,0-1.54-1.88a9.9,9.9,0,0,0-.9-9.15c-1.94-3.05-7.25-5.85-10.48-1.89a15.19,15.19,0,0,0-3.45,12.55c.29,1.86-.14,2.74-2.12,2.69-2.64-.07-10.5.82-10.9-.53-.88-3-2.76-5.34-4.55-7.73-3.91-5.24-8-5.12-11.64.07-4.16,5.94-2.14,13.24,1.68,17.06,3,3,2.95,3-.23,6.22a4.44,4.44,0,0,0-.56,1,96.79,96.79,0,0,0-6.17,12.23c-2.62,6.72-5.39,13.37-7.38,20.31-2.23,7.75-2.58,15.81-3.32,23.75-1,10.53.61,21,3,31.29,1.22,5.37,3.68,10.17,5.88,15.11,1.71,3.83,3.05,7.82,4.77,11.64a47.77,47.77,0,0,1,2.35,34.06c-3.11,10.51-6.47,21-13.92,29.52a2.21,2.21,0,0,0,.09,3.11c.88.85,1.84.46,2.8-.26a8.33,8.33,0,0,1,4.6-2.08c0,.61,0,1.18.13,1.73.47,2.68,1.54,3.29,4,2.18,1.6-.73,1.57.22,1.82,1.38.57,2.61,2.7,3.4,4.49,1.68C118.33,304.88,124.07,300.18,127.84,293.65Zm92.66-29.59c-2.45,3.42-3.06,7.67-5.25,11.19-.29.48-.57,1.36-.88,1.37-2.67.08-4.46,1.54-6.26,3.31-.74.73-1-.7-1.15-1.22-.3-1.15-.54-2.11-2.22-1.2-1.21.54-1.33-.74-1.77-1.46s.39-1.82-1.08-1.93a2.37,2.37,0,0,0-2.31,1.39c-.44.77-.85,1.82-1.65,1.77-1.17-.08-1.13-1.61-1.19-2.29-.35-3.93-.31-7.9-1.8-11.68-.33-.84.77-1.15,1.46-1.45a8.46,8.46,0,0,1,4-.49,11.54,11.54,0,0,0,5.27-.66c3.14-1.22,6.31.25,9.45.61,1.39.16,2.68.9,4.15.73C221,261.85,221.08,263.25,220.5,264.06Zm155.86-18.79c.7-2.41,2.14-4.74,1.14-7.36-.41-1.06.14-.94.77-1.27,2.26-1.14,18.59-1.86,21.08-1.42-4.72,3.26-18.93,10.81-21.92,11.46-.56.12-1,.5-1.49-.06C375.29,245.9,376.23,245.72,376.36,245.27ZM359,236c5.21-.59,10.25,1.67,15.44.7.95-.18,1,.48,1.07,1.23.58,4.82-3.35,10.17-8.2,11.5-4.51,1.24-9.09,2-13.47,3-1.14-.52-1.81-2.25-1.2-3,2.62-3.13,4.27-6.64,3.83-10.83C356.25,236.56,357,236.24,359,236Zm-65.36-15.92c.51-.32,1,.12,1.59.34,3.64,1.47,7.31,2.86,11,4.29,3.27,1.28,5.43,6.81,4.11,11.12-1.49,4.88-4.17,9.19-7,13.4-.2.29-3.19,1.36-2.47,2.48.88,1.34,2,0,2.85-.55,3.59-2.37,5-6.37,7-9.87,2.22-3.83,3.37-7.91,2.16-12.39-.43-1.56.71-1.58,1.66-1.41A79.53,79.53,0,0,1,327,230.41c2,.7,3,3.93,2.65,7a17.2,17.2,0,0,1-7.49,12.66c-.43.3-1.12.83-.51,1.33a1.85,1.85,0,0,0,2.13-.13,17.08,17.08,0,0,0,7.87-9.54c.78-2.31,1.65-4.72.74-7.37-.53-1.56-.05-2.29,2.22-2.13,5.38.39,10.37,2.77,15.8,2.74,2.32,0,3.19,1.77,3.13,3.62a17.88,17.88,0,0,1-4.66,11.56c-3.14,3.67-6.73,3.5-10.62,3.82-12.36,1-24.74,1-37.12,1.24a63.37,63.37,0,0,1-16.35-2.14c7.32-7.7,9.81-16.59,9.61-26.49C294.37,224.95,292.72,220.67,293.62,220.11Zm-12.7-9c2.37,1.69,4.72,3.4,7.2,4.91a2.12,2.12,0,0,1,.94,1c2,6.63,3.29,13.3,1.84,20.29-.78,3.76-3,6.82-4.38,10.28-4.59,8.9-9.59,2.14-9.41.73a132.71,132.71,0,0,0,1.25-14.13c.09-3.76-.06-7.49-.34-11.25a111.36,111.36,0,0,0-2.39-15.31C278.4,207.89,279.35,210,280.92,211.1Zm-181,2.6c-2.34-6.05-2.73-12.63-3.6-19.07A46.73,46.73,0,0,1,96,182.08c1.42-10.3,1.37-20.78,5.25-30.79,2.43-6.27,4.85-12.55,7.55-18.71a46.87,46.87,0,0,1,6.84-10.31c1.22-1.52,3.07-.7,4.61-.69,2.42,0,4.3-.54,5.83-2.65.54-.74,1-1.33.85-2.13-.72-3.33,1.44-4.07,3.94-4.46s5.28-.72,7.93-1.07c.09,0,.23-.1.27-.06,3.48,3.75,6.37-.85,9.63-1,5.73-.28,11.54-.84,17.31-1.27,11.26-.84,22.59-.53,33.75-2.83a24.79,24.79,0,0,1,10,.08c1.76.38,3.18,2.71,4.54,4.34.4.47-.64,1-1.07,1.53-4,4.53-9.39,7.19-14.64,9.91-6.68,3.46-13.29,7-19.72,10.93-3.23,2-6.83,3.41-10.23,5.18-.93.48-2.3.5-1.88,1.91a2.41,2.41,0,0,0,3,1.6c5.15-1.49,10.5-1.87,15.71-3.08,3.48-.81,7.09-1.79,10.82-1.55.6,0,1.1-.1,1.35.47s-.24.85-.59,1.18c-6.9,6.34-14.16,12.28-20.66,19a124.4,124.4,0,0,0-8.8,10.07,10.49,10.49,0,0,1-3,2.37c-1.21.79-2.09,2-.94,3.33s1.94,0,2.81-.69c3.32-2.69,5.61-6.29,8.36-9.48a10.78,10.78,0,0,1,6.45-4c3.28-.44,6.21-2.22,9.61-2.08,4.42.17,8.87-.17,13.26.21,5.15.44,10.25,1.41,15.37,2.17,7.7,1.16,15.21,2.47,21.87,7.29,3.87,2.81,8.57,4.53,12.64,7.24,5.09,3.38,7.57,8.83,11,13.54,4.46,6.21,6,13.65,7.72,20.86a71.92,71.92,0,0,1,2.27,15.08c.11,3.79.43,7.6.43,11.41,0,7-1.53,13.83-3.06,20.64a48.52,48.52,0,0,1-4.62,12.64,3.92,3.92,0,0,0-.31,2.78c.7,3.27-1,6-2.07,8.75-.27.69-1,1.77-2.26.87a1.12,1.12,0,0,0-1.56.22c-1.34,1.73-2.57,1.62-3.92,0-.64-.79-1.16-.05-1.66.36s-.93.63-1.24-.25c-1.14-3.17-2.38-1.46-3.42,0A4.45,4.45,0,0,1,249,282.9c-3.21-9.15-6-18.31-11.18-26.43a37.1,37.1,0,0,0-6.85-8,33.22,33.22,0,0,1-9.63-14c-1.57-4.39-3.77-8.66-3.57-13.54,0-.75-.31-1.45-1-1.46a1.82,1.82,0,0,0-1.74,1.61,10.44,10.44,0,0,0,0,4c2.34,9,5.54,17.53,12,24.45,1.68,1.8,3.74,3.24,5.47,5,1.32,1.34,1.8,2.4-.93,3a36,36,0,0,1-11.38.29,80.49,80.49,0,0,0-17.35,0c-2.83.28-5.71-.52-8.68.09-5.32,1.09-10.74.48-16.12.31-1.85-.06-3.44,1.33-5.44,1a22.87,22.87,0,0,1-3.55-.77,2.41,2.41,0,0,1-1.92-2.83c.12-3.28.45-6.66-2-9.46-1.38.55-1.61,1.71-1.43,3a74.65,74.65,0,0,1,.11,14.46c-.33,5.77-.76,11.52-1.4,17.19-1,.39-1-.43-1.26-.86-1-1.85-2.13-1.55-3.3-.25-.5.56-.75,1.38-1.32,1.81-.91.69-2,2.19-2.73-.4-.57-1.95-1.84-2.37-3.43-.52-1.24,1.46-2.65,3.22-4.24,0-.68-1.37-1.88-.94-2.61.4-.44.82-.92,1.94-2,1.55-.84-.29-1.19-1.23-1.48-2.25-1.81-6.44-2.5-13.33-6.85-18.83-2.9-3.67-5.93-7.23-8.92-10.82a1.93,1.93,0,0,0-1-.55c-4.28-1.08-6-4.82-8.57-7.83C107.54,233.88,103.81,223.74,99.94,213.7Zm19.82,61.21c-.95-3.11-1.66-3.16-4.31-1.07-.61.48-1.23,1.23-2,.73s.19-1.44.06-2c-1.15-5.34,1.71-10.54.27-16-.78-2.94.26-6.19-.39-9.35,1.59,2.89,11.06,9.06,11.79,9.93,3.13,3.76,6.57,7.27,8.48,11.93,1.19,2.92.62,7.59-1.56,9.84-.31.32-.59.84-1.14.59a1.17,1.17,0,0,1-.62-1.19,13.64,13.64,0,0,0,0-1.73c-.21-2.24-1.59-2.91-3.4-1.65a16.49,16.49,0,0,1-2.51,1.81C122.34,277.71,120.65,277.82,119.76,274.9Z"/><path d="M211,95.89c.79-1.09,1.77-1.64,2.32-2.89,1.72-3.89,3.34-7.9,6.68-10.8.76-.66,1.09-1.38.35-2.2s-1.46-.61-2.22.09c-3.95,3.67-5.94,8.6-8.53,13.14C208.73,94.66,210.21,94.88,211,95.89Z"/><path d="M217.36,94.07c1,1.11,2.05,0,2.71-.52a43.29,43.29,0,0,1,7.06-4.63c.48-.25,1.15-.33,1-1.53-.74-1.58-2.23-1.34-3.58-.48a75.81,75.81,0,0,0-6.14,4.46C217.56,92,216.24,92.78,217.36,94.07Z"/><path d="M336.46,259.85c-1.6.26-3.91.33-4,2.67-.07,1.89,1.55,2,2.94,1.8,1.79.11,3.67.12,3.7-2.08A2.44,2.44,0,0,0,336.46,259.85Z"/><path d="M225.57,93.84c.48.67,1,.26,1.47,0a46.48,46.48,0,0,1,5.5-2.52c.76-.24,2.23-.53,1.76-1.75-.26-.68-1.48-1.11-2.54-1a11.88,11.88,0,0,0-5.83,3.72C225.53,92.8,225.09,93.19,225.57,93.84Z"/><path d="M352.43,221.5a9.8,9.8,0,0,1,2.58-2.21c.57-.25,1.36-.66,1.1-1.69s-1.11-1.11-2-1.06a4.63,4.63,0,0,0-4.34,3,2.15,2.15,0,0,0,.71,2.54C351.15,222.72,351.85,222,352.43,221.5Z"/><path d="M367.26,227.5c1.92,0,3-.71,3-2.47,0-1.18-.66-1.59-1.84-1.54-1.75.06-3.52.48-3.69,2.33C364.63,227,366.11,227.68,367.26,227.5Z"/><path d="M374,258.3c-.31-1.5-2.09-1.52-3.42-2-.25,1.32-2.12-.54-1.95.87s.88,3.17,3,3.11C372.95,260.25,374.17,258.94,374,258.3Z"/><path d="M334,221.58a2.7,2.7,0,0,0,2.71-2.52c-.31-.44-.32-1.76-1.22-1.28-1.18.63-3.22-.25-3.54,1.6A2.06,2.06,0,0,0,334,221.58Z"/><path d="M322,216.42c.26.19,1.09-.36.72-1.09-.68-1.33-.14-3.29-1.63-4-1.82.14-2,1-2,2.21C319.06,215.52,320.89,215.64,322,216.42Z"/><path d="M389.82,256.88c-.68-1.82-2.24-1.76-4.15-1.61.93,1.62.55,3.83,2.85,3.67A1.48,1.48,0,0,0,389.82,256.88Z"/><path d="M383.28,226.32c1.47,0,2.58-.09,2.41-1.37-.13-1-.91-1.58-2.21-1.57s-2.15.68-2.09,1.63C381.47,226.12,382.73,226.3,383.28,226.32Z"/><path d="M321.15,266.56c1.14-.05,1.15-1.26,1.38-2,0-.93-.06-1.82-1.09-1.63-.79.14-1.79.47-1.73,1.57C319.77,265.44,320,266.61,321.15,266.56Z"/><path d="M153.41,121a13.9,13.9,0,0,1,5.55-.67,1.5,1.5,0,0,0,1.81-1c.23-.83-.09-1.4-.79-2.13-1.92-2-4.25-2-6.92-2-1,.4-2.83-.89-3.56.74a3.15,3.15,0,0,0,.39,3.49C150.83,120.39,151.61,121.55,153.41,121Z"/><path d="M257.92,191.82c.26.52.79,1.26,1.57,1a1.54,1.54,0,0,0,.91-1.81c0-2.82-4-7.78-6.69-8.35a1.45,1.45,0,0,0-1.72.65,1.27,1.27,0,0,0,.31,1.78A20.28,20.28,0,0,1,257.92,191.82Z"/><path d="M237.76,172.05c2.82,1.18,5.15,3.08,7.66,4.73,1.09.72,1.72.24,1.74-1.16a3.18,3.18,0,0,0-.09-.73c-.46-1.41-6.7-5.6-8.26-5.56-.53,0-1.26-.17-1.36.62S237,171.74,237.76,172.05Z"/><path d="M192.7,166.66c.66-.39,1.67-.21,3.12-.34.9-.46,2.12.85,3.57.71.85-.08,1.49-.31,1.7-1.19a1.17,1.17,0,0,0-.64-1.45,29.26,29.26,0,0,0-8.55-1.26,1.77,1.77,0,0,0-1.49,2.54C190.81,166.68,191.29,167.5,192.7,166.66Z"/><path d="M219.86,166.77c2.49,0,3.79,2.32,6,2.88,1,.25,1.73.34,2.16-.59a1.71,1.71,0,0,0-.45-2.31c-1.87-1.22-3.73-2.5-6.28-2.63-.56.51-1.84-.7-2.23.73C218.82,165.61,219.47,166.77,219.86,166.77Z"/><path d="M227.4,180.8c1.46,1.83,3.23,3.38,4.68,5.26.59.77,1.91,1.17,2.37-.29.63-2-3.95-7.32-5.48-7.25C226.39,178.57,226.72,179.95,227.4,180.8Z"/><path d="M203.55,175.06a41.39,41.39,0,0,1,8.17,3.56,3.21,3.21,0,0,0,.07-2.92c-.52-1-6.59-3.64-7.82-3.51-.64.07-1.17.2-1.08,1S202.44,174.67,203.55,175.06Z"/><path d="M258.4,201.65a1.22,1.22,0,0,0-1.47-.6c-.84.19-.43.91-.61,1.54.19,2.7,3,3.88,3.95,6.19a1.67,1.67,0,0,0,1.64,1.16c.89-.12.7-1.2.95-1.88.33-.92-.2-1.54-.74-2.17C260.9,204.46,259.23,203.44,258.4,201.65Z"/><path d="M214,171.39c.49-.1,1.22-.19,1.42-.84a1.82,1.82,0,0,0-.49-2.09c-1.23-1-2.5-2-3.63-3.11-.7-.68-1.18-.51-2-.16-1,.46-.84,1.3-.65,1.9C209.5,169.57,211.59,170.61,214,171.39Z"/><path d="M241.12,183.16c-1.13.13-2,1-1.2,2.06a33.67,33.67,0,0,0,4.57,5.18c.47.45,1.9.86,2.09-.78S242.81,183.26,241.12,183.16Z"/><path d="M189.11,181.34a15.66,15.66,0,0,1,3.75.61c1.56.06,2.49.15,2.94-.79a1,1,0,0,0-.35-1.46A8,8,0,0,0,190,178a2.15,2.15,0,0,0-2,2A1.15,1.15,0,0,0,189.11,181.34Z"/><path d="M182.54,168.79c1.08-.7,1.91-1.12.61-2.17-1.81-1.46-3.93-1.17-6-.61s-1.38,2.13-1.22,4.19C178,167.54,180.46,170.15,182.54,168.79Z"/><path d="M169.11,177.85c1.3-.89,2.81-.9,4.23-1.3a1.88,1.88,0,0,0,1.3-1.71c0-.41-.07-.81-.52-.86-2-.21-4-.25-5.65.93a1.74,1.74,0,0,0-.49,2.3C168.24,177.62,168.7,178.13,169.11,177.85Z"/><path d="M269.37,210.72c.86.11,1.33-.57,1.38-1.58-.68-1.34-1-3.19-3-3.49a1.33,1.33,0,0,0-1.58,1.75C266.56,209.1,267.49,210.5,269.37,210.72Z"/></svg>