<svg xmlns="http://www.w3.org/2000/svg" xmlns:xlink="http://www.w3.org/1999/xlink" contentStyleType="text/css" height="766px" preserveAspectRatio="none" style="width:1710px;height:766px;background:#FFFFFF;" version="1.1" viewBox="0 0 1710 766" width="1710px" zoomAndPan="magnify"><defs/><g><!--cluster ee434023cf89d7dfb21f63d64f0f9d74--><g id="cluster_ee434023cf89d7dfb21f63d64f0f9d74"><polygon fill="none" points="554,73.04,564,63.04,1068,63.04,1068,648.15,1058,658.15,554,658.15,554,73.04" style="stroke:#181818;stroke-width:1.0;"/><line style="stroke:#181818;stroke-width:1.0;" x1="1058" x2="1068" y1="73.04" y2="63.04"/><line style="stroke:#181818;stroke-width:1.0;" x1="554" x2="1058" y1="73.04" y2="73.04"/><line style="stroke:#181818;stroke-width:1.0;" x1="1058" x2="1058" y1="73.04" y2="658.15"/><text fill="#000000" font-family="sans-serif" font-size="14" font-weight="bold" lengthAdjust="spacing" textLength="44" x="785" y="89.0351">Nginx</text></g><!--cluster d2a57dc1d883fd21fb9951699df71cc7--><g id="cluster_d2a57dc1d883fd21fb9951699df71cc7"><polygon fill="none" points="16,16,26,6,530,6,530,648.15,520,658.15,16,658.15,16,16" style="stroke:#181818;stroke-width:1.0;"/><line style="stroke:#181818;stroke-width:1.0;" x1="520" x2="530" y1="16" y2="6"/><line style="stroke:#181818;stroke-width:1.0;" x1="16" x2="520" y1="16" y2="16"/><line style="stroke:#181818;stroke-width:1.0;" x1="520" x2="520" y1="16" y2="658.15"/><text fill="#000000" font-family="sans-serif" font-size="14" font-weight="bold" lengthAdjust="spacing" textLength="31" x="253.5" y="31.9951">App</text></g><!--cluster d77d5e503ad1439f585ac494268b351b--><g id="cluster_d77d5e503ad1439f585ac494268b351b"><polygon fill="none" points="1243,73.04,1253,63.04,1693,63.04,1693,648.15,1683,658.15,1243,658.15,1243,73.04" style="stroke:#181818;stroke-width:1.0;"/><line style="stroke:#181818;stroke-width:1.0;" x1="1683" x2="1693" y1="73.04" y2="63.04"/><line style="stroke:#181818;stroke-width:1.0;" x1="1243" x2="1683" y1="73.04" y2="73.04"/><line style="stroke:#181818;stroke-width:1.0;" x1="1683" x2="1683" y1="73.04" y2="658.15"/><text fill="#000000" font-family="sans-serif" font-size="14" font-weight="bold" lengthAdjust="spacing" textLength="21" x="1453.5" y="89.0351">Db</text></g><!--entity af7a7f0b3b2e57bd500b4dc604f1838f--><g id="elem_af7a7f0b3b2e57bd500b4dc604f1838f"><rect fill="#F1F1F1" height="127.7813" rx="2.5" ry="2.5" style="stroke:#181818;stroke-width:0.5;" width="481" x="570.5" y="103.04"/><rect fill="#F1F1F1" height="10" style="stroke:#181818;stroke-width:0.5;" width="15" x="1031.5" y="108.04"/><rect fill="#F1F1F1" height="2" style="stroke:#181818;stroke-width:0.5;" width="4" x="1029.5" y="110.04"/><rect fill="#F1F1F1" height="2" style="stroke:#181818;stroke-width:0.5;" width="4" x="1029.5" y="114.04"/><text fill="#000000" font-family="sans-serif" font-size="14" font-weight="bold" lengthAdjust="spacing" textLength="43" x="585.5" y="136.0351">nginx</text><text fill="#000000" font-family="sans-serif" font-size="14" lengthAdjust="spacing" textLength="4" x="585.5" y="152.332">&#160;</text><text fill="#000000" font-family="sans-serif" font-size="14" lengthAdjust="spacing" textLength="259" x="585.5" y="168.6289">image: heartexlabs/label-studio:latest</text><text fill="#000000" font-family="sans-serif" font-size="14" lengthAdjust="spacing" textLength="163" x="585.5" y="184.9257">restart: unless-stopped</text><text fill="#000000" font-family="sans-serif" font-size="14" lengthAdjust="spacing" textLength="441" x="585.5" y="201.2226">environment: LABEL_STUDIO_HOST=${LABEL_STUDIO_HOST:-}</text><text fill="#000000" font-family="sans-serif" font-size="14" lengthAdjust="spacing" textLength="4" x="585.5" y="217.5195">&#160;</text></g><!--entity 48e7b6e018f8f9ace7b5ee8ae4dba262--><g id="elem_48e7b6e018f8f9ace7b5ee8ae4dba262"><ellipse cx="905" cy="377.86" fill="#F1F1F1" rx="8" ry="8" style="stroke:#181818;stroke-width:0.5;"/><text fill="#000000" font-family="sans-serif" font-size="14" lengthAdjust="spacing" textLength="36" x="887" y="407.8551">8085</text></g><!--entity af3a29016891e5e524e18532976f8e70--><g id="elem_af3a29016891e5e524e18532976f8e70"><ellipse cx="1015" cy="377.86" fill="#F1F1F1" rx="8" ry="8" style="stroke:#181818;stroke-width:0.5;"/><text fill="#000000" font-family="sans-serif" font-size="14" lengthAdjust="spacing" textLength="36" x="997" y="407.8551">8086</text></g><!--entity 59267e85dee21fdb21575bdf1488b3f8--><g id="elem_59267e85dee21fdb21575bdf1488b3f8"><rect fill="#F1F1F1" height="39.2969" rx="2.5" ry="2.5" style="stroke:#181818;stroke-width:0.5;" width="150" x="582" y="602.86"/><polygon fill="#F1F1F1" points="715,607.86,715,621.86,727,621.86,727,613.86,721,607.86,715,607.86" style="stroke:#181818;stroke-width:0.5;"/><line style="stroke:#181818;stroke-width:0.5;" x1="721" x2="721" y1="607.86" y2="613.86"/><line style="stroke:#181818;stroke-width:0.5;" x1="727" x2="721" y1="613.86" y2="613.86"/><text fill="#000000" font-family="sans-serif" font-size="14" lengthAdjust="spacing" textLength="120" x="592" y="628.8551">/label-studio/data</text></g><!--entity 6d2099696e9c78fa76d6e089091997d3--><g id="elem_6d2099696e9c78fa76d6e089091997d3"><rect fill="#F1F1F1" height="39.2969" rx="2.5" ry="2.5" style="stroke:#181818;stroke-width:0.5;" width="70" x="776" y="602.86"/><polygon fill="#F1F1F1" points="829,607.86,829,621.86,841,621.86,841,613.86,835,607.86,829,607.86" style="stroke:#181818;stroke-width:0.5;"/><line style="stroke:#181818;stroke-width:0.5;" x1="835" x2="835" y1="607.86" y2="613.86"/><line style="stroke:#181818;stroke-width:0.5;" x1="841" x2="835" y1="613.86" y2="613.86"/><text fill="#000000" font-family="sans-serif" font-size="14" lengthAdjust="spacing" textLength="40" x="786" y="628.8551">/certs</text></g><!--entity 893aba7f849e8e7e9eba282605c4877b--><g id="elem_893aba7f849e8e7e9eba282605c4877b"><rect fill="#F1F1F1" height="241.8594" rx="2.5" ry="2.5" style="stroke:#181818;stroke-width:0.5;" width="481" x="32.5" y="46"/><rect fill="#F1F1F1" height="10" style="stroke:#181818;stroke-width:0.5;" width="15" x="493.5" y="51"/><rect fill="#F1F1F1" height="2" style="stroke:#181818;stroke-width:0.5;" width="4" x="491.5" y="53"/><rect fill="#F1F1F1" height="2" style="stroke:#181818;stroke-width:0.5;" width="4" x="491.5" y="57"/><text fill="#000000" font-family="sans-serif" font-size="14" font-weight="bold" lengthAdjust="spacing" textLength="29" x="47.5" y="78.9951">app</text><text fill="#000000" font-family="sans-serif" font-size="14" lengthAdjust="spacing" textLength="4" x="47.5" y="95.292">&#160;</text><text fill="#000000" font-family="sans-serif" font-size="14" lengthAdjust="spacing" textLength="259" x="47.5" y="111.5889">image: heartexlabs/label-studio:latest</text><text fill="#000000" font-family="sans-serif" font-size="14" lengthAdjust="spacing" textLength="163" x="47.5" y="127.8857">restart: unless-stopped</text><text fill="#000000" font-family="sans-serif" font-size="14" lengthAdjust="spacing" textLength="238" x="47.5" y="144.1826">environment: DJANGO_DB=default</text><text fill="#000000" font-family="sans-serif" font-size="14" lengthAdjust="spacing" textLength="285" x="47.5" y="160.4795">environment: POSTGRE_NAME=postgres</text><text fill="#000000" font-family="sans-serif" font-size="14" lengthAdjust="spacing" textLength="283" x="47.5" y="176.7764">environment: POSTGRE_USER=postgres</text><text fill="#000000" font-family="sans-serif" font-size="14" lengthAdjust="spacing" textLength="264" x="47.5" y="193.0732">environment: POSTGRE_PASSWORD=</text><text fill="#000000" font-family="sans-serif" font-size="14" lengthAdjust="spacing" textLength="258" x="47.5" y="209.3701">environment: POSTGRE_PORT=5432</text><text fill="#000000" font-family="sans-serif" font-size="14" lengthAdjust="spacing" textLength="240" x="47.5" y="225.667">environment: POSTGRE_HOST=db</text><text fill="#000000" font-family="sans-serif" font-size="14" lengthAdjust="spacing" textLength="441" x="47.5" y="241.9639">environment: LABEL_STUDIO_HOST=${LABEL_STUDIO_HOST:-}</text><text fill="#000000" font-family="sans-serif" font-size="14" lengthAdjust="spacing" textLength="186" x="47.5" y="258.2607">environment: JSON_LOG=1</text><text fill="#000000" font-family="sans-serif" font-size="14" lengthAdjust="spacing" textLength="4" x="47.5" y="274.5576">&#160;</text></g><!--entity ca300012467db12d42c88cf44a30e699--><g id="elem_ca300012467db12d42c88cf44a30e699"><rect fill="#F1F1F1" height="39.2969" rx="2.5" ry="2.5" style="stroke:#181818;stroke-width:0.5;" width="150" x="281" y="602.86"/><polygon fill="#F1F1F1" points="414,607.86,414,621.86,426,621.86,426,613.86,420,607.86,414,607.86" style="stroke:#181818;stroke-width:0.5;"/><line style="stroke:#181818;stroke-width:0.5;" x1="420" x2="420" y1="607.86" y2="613.86"/><line style="stroke:#181818;stroke-width:0.5;" x1="426" x2="420" y1="613.86" y2="613.86"/><text fill="#000000" font-family="sans-serif" font-size="14" lengthAdjust="spacing" textLength="120" x="291" y="628.8551">/label-studio/data</text></g><!--entity 355aeb7ac3f8fa43e8d94fbf0e4b8d6c--><g id="elem_355aeb7ac3f8fa43e8d94fbf0e4b8d6c"><rect fill="#F1F1F1" height="127.7813" rx="2.5" ry="2.5" style="stroke:#181818;stroke-width:0.5;" width="417" x="1259.5" y="103.04"/><rect fill="#F1F1F1" height="10" style="stroke:#181818;stroke-width:0.5;" width="15" x="1656.5" y="108.04"/><rect fill="#F1F1F1" height="2" style="stroke:#181818;stroke-width:0.5;" width="4" x="1654.5" y="110.04"/><rect fill="#F1F1F1" height="2" style="stroke:#181818;stroke-width:0.5;" width="4" x="1654.5" y="114.04"/><text fill="#000000" font-family="sans-serif" font-size="14" font-weight="bold" lengthAdjust="spacing" textLength="20" x="1274.5" y="136.0351">db</text><text fill="#000000" font-family="sans-serif" font-size="14" lengthAdjust="spacing" textLength="4" x="1274.5" y="152.332">&#160;</text><text fill="#000000" font-family="sans-serif" font-size="14" lengthAdjust="spacing" textLength="149" x="1274.5" y="168.6289">image: postgres:11.5</text><text fill="#000000" font-family="sans-serif" font-size="14" lengthAdjust="spacing" textLength="163" x="1274.5" y="184.9257">restart: unless-stopped</text><text fill="#000000" font-family="sans-serif" font-size="14" lengthAdjust="spacing" textLength="377" x="1274.5" y="201.2226">environment: POSTGRES_HOST_AUTH_METHOD=trust</text><text fill="#000000" font-family="sans-serif" font-size="14" lengthAdjust="spacing" textLength="4" x="1274.5" y="217.5195">&#160;</text></g><!--entity ea411b5d3793e158ec90badb5b17fef1--><g id="elem_ea411b5d3793e158ec90badb5b17fef1"><rect fill="#F1F1F1" height="39.2969" rx="2.5" ry="2.5" style="stroke:#181818;stroke-width:0.5;" width="150" x="1278" y="602.86"/><polygon fill="#F1F1F1" points="1411,607.86,1411,621.86,1423,621.86,1423,613.86,1417,607.86,1411,607.86" style="stroke:#181818;stroke-width:0.5;"/><line style="stroke:#181818;stroke-width:0.5;" x1="1417" x2="1417" y1="607.86" y2="613.86"/><line style="stroke:#181818;stroke-width:0.5;" x1="1423" x2="1417" y1="613.86" y2="613.86"/><text fill="#000000" font-family="sans-serif" font-size="14" lengthAdjust="spacing" textLength="120" x="1288" y="628.8551">-./postgres-data}</text></g><!--entity 09fca77465f0ed3a6388c471712ebe8f--><g id="elem_09fca77465f0ed3a6388c471712ebe8f"><rect fill="#F1F1F1" height="39.2969" rx="2.5" ry="2.5" style="stroke:#181818;stroke-width:0.5;" width="194" x="1469" y="602.86"/><polygon fill="#F1F1F1" points="1646,607.86,1646,621.86,1658,621.86,1658,613.86,1652,607.86,1646,607.86" style="stroke:#181818;stroke-width:0.5;"/><line style="stroke:#181818;stroke-width:0.5;" x1="1652" x2="1652" y1="607.86" y2="613.86"/><line style="stroke:#181818;stroke-width:0.5;" x1="1658" x2="1652" y1="613.86" y2="613.86"/><text fill="#000000" font-family="sans-serif" font-size="14" lengthAdjust="spacing" textLength="164" x="1479" y="628.8551">/var/lib/postgresql/certs</text></g><!--entity 600c44c1349e9154dce569ba37e2d70b--><g id="elem_600c44c1349e9154dce569ba37e2d70b"><ellipse cx="1111" cy="512.86" fill="#F1F1F1" rx="8" ry="8" style="stroke:#181818;stroke-width:0.5;"/><text fill="#000000" font-family="sans-serif" font-size="14" lengthAdjust="spacing" textLength="36" x="1093" y="542.8551">8080</text></g><!--entity 71cd0360f6326df5c4cd7e29e675c5c1--><g id="elem_71cd0360f6326df5c4cd7e29e675c5c1"><ellipse cx="1200" cy="512.86" fill="#F1F1F1" rx="8" ry="8" style="stroke:#181818;stroke-width:0.5;"/><text fill="#000000" font-family="sans-serif" font-size="14" lengthAdjust="spacing" textLength="36" x="1182" y="542.8551">8081</text></g><!--entity 0b495f64c395c2223ca0372804ccf3af--><g id="elem_0b495f64c395c2223ca0372804ccf3af"><rect fill="#F1F1F1" height="39.2969" rx="2.5" ry="2.5" style="stroke:#181818;stroke-width:0.5;" width="89" x="518.5" y="721.15"/><polygon fill="#F1F1F1" points="590.5,726.15,590.5,740.15,602.5,740.15,602.5,732.15,596.5,726.15,590.5,726.15" style="stroke:#181818;stroke-width:0.5;"/><line style="stroke:#181818;stroke-width:0.5;" x1="596.5" x2="596.5" y1="726.15" y2="732.15"/><line style="stroke:#181818;stroke-width:0.5;" x1="602.5" x2="596.5" y1="732.15" y2="732.15"/><text fill="#000000" font-family="sans-serif" font-size="14" lengthAdjust="spacing" textLength="59" x="528.5" y="747.1451">./mydata</text></g><!--entity 5b4d8ec281ca350374518dd9c363a7e6--><g id="elem_5b4d8ec281ca350374518dd9c363a7e6"><rect fill="#F1F1F1" height="39.2969" rx="2.5" ry="2.5" style="stroke:#181818;stroke-width:0.5;" width="167" x="727.5" y="721.15"/><polygon fill="#F1F1F1" points="877.5,726.15,877.5,740.15,889.5,740.15,889.5,732.15,883.5,726.15,877.5,726.15" style="stroke:#181818;stroke-width:0.5;"/><line style="stroke:#181818;stroke-width:0.5;" x1="883.5" x2="883.5" y1="726.15" y2="732.15"/><line style="stroke:#181818;stroke-width:0.5;" x1="889.5" x2="883.5" y1="732.15" y2="732.15"/><text fill="#000000" font-family="sans-serif" font-size="14" lengthAdjust="spacing" textLength="137" x="737.5" y="747.1451">./deploy/nginx/certs</text></g><!--entity 6065445429dbac4399be0b43a7b9ecb8--><g id="elem_6065445429dbac4399be0b43a7b9ecb8"><rect fill="#F1F1F1" height="39.2969" rx="2.5" ry="2.5" style="stroke:#181818;stroke-width:0.5;" width="201" x="1248.5" y="721.15"/><polygon fill="#F1F1F1" points="1432.5,726.15,1432.5,740.15,1444.5,740.15,1444.5,732.15,1438.5,726.15,1432.5,726.15" style="stroke:#181818;stroke-width:0.5;"/><line style="stroke:#181818;stroke-width:0.5;" x1="1438.5" x2="1438.5" y1="726.15" y2="732.15"/><line style="stroke:#181818;stroke-width:0.5;" x1="1444.5" x2="1438.5" y1="732.15" y2="732.15"/><text fill="#000000" font-family="sans-serif" font-size="14" lengthAdjust="spacing" textLength="171" x="1258.5" y="747.1451">${POSTGRES_DATA_DIR</text></g><!--entity b2154870842952147bdf616ed428b7fa--><g id="elem_b2154870842952147bdf616ed428b7fa"><rect fill="#F1F1F1" height="39.2969" rx="2.5" ry="2.5" style="stroke:#181818;stroke-width:0.5;" width="168" x="1485" y="721.15"/><polygon fill="#F1F1F1" points="1636,726.15,1636,740.15,1648,740.15,1648,732.15,1642,726.15,1636,726.15" style="stroke:#181818;stroke-width:0.5;"/><line style="stroke:#181818;stroke-width:0.5;" x1="1642" x2="1642" y1="726.15" y2="732.15"/><line style="stroke:#181818;stroke-width:0.5;" x1="1648" x2="1642" y1="732.15" y2="732.15"/><text fill="#000000" font-family="sans-serif" font-size="14" lengthAdjust="spacing" textLength="138" x="1495" y="747.1451">./deploy/pgsql/certs</text></g><!--link af7a7f0b3b2e57bd500b4dc604f1838f to 48e7b6e018f8f9ace7b5ee8ae4dba262--><g id="link_af7a7f0b3b2e57bd500b4dc604f1838f_48e7b6e018f8f9ace7b5ee8ae4dba262"><path codeLine="52" d="M839.46,231.18 C862.05,281.38 891.44,346.71 901.47,369 " fill="none" id="af7a7f0b3b2e57bd500b4dc604f1838f-48e7b6e018f8f9ace7b5ee8ae4dba262" style="stroke:#181818;stroke-width:1.0;"/></g><!--link 48e7b6e018f8f9ace7b5ee8ae4dba262 to 600c44c1349e9154dce569ba37e2d70b--><g id="link_48e7b6e018f8f9ace7b5ee8ae4dba262_600c44c1349e9154dce569ba37e2d70b"><path codeLine="53" d="M913.84,384.53 C938.36,400.27 1009.23,445.79 1068,483.86 C1079.81,491.51 1093.42,500.38 1102.11,506.05 " fill="none" id="48e7b6e018f8f9ace7b5ee8ae4dba262-600c44c1349e9154dce569ba37e2d70b" style="stroke:#181818;stroke-width:1.0;"/></g><!--link af7a7f0b3b2e57bd500b4dc604f1838f to af3a29016891e5e524e18532976f8e70--><g id="link_af7a7f0b3b2e57bd500b4dc604f1838f_af3a29016891e5e524e18532976f8e70"><path codeLine="54" d="M872.76,231.18 C921.78,281.38 985.56,346.71 1007.33,369 " fill="none" id="af7a7f0b3b2e57bd500b4dc604f1838f-af3a29016891e5e524e18532976f8e70" style="stroke:#181818;stroke-width:1.0;"/></g><!--link af3a29016891e5e524e18532976f8e70 to 71cd0360f6326df5c4cd7e29e675c5c1--><g id="link_af3a29016891e5e524e18532976f8e70_71cd0360f6326df5c4cd7e29e675c5c1"><path codeLine="55" d="M1023.77,382.87 C1042.22,391.48 1086.04,412.93 1119,436.86 C1148.78,458.47 1179.45,489.85 1192.93,504.19 " fill="none" id="af3a29016891e5e524e18532976f8e70-71cd0360f6326df5c4cd7e29e675c5c1" style="stroke:#181818;stroke-width:1.0;"/></g><!--link 59267e85dee21fdb21575bdf1488b3f8 to 0b495f64c395c2223ca0372804ccf3af--><g id="link_59267e85dee21fdb21575bdf1488b3f8_0b495f64c395c2223ca0372804ccf3af"><path codeLine="56" d="M641.69,642.45 C624.21,664.07 595.78,699.24 578.31,720.87 " fill="none" id="59267e85dee21fdb21575bdf1488b3f8-0b495f64c395c2223ca0372804ccf3af" style="stroke:#181818;stroke-width:1.0;"/><text fill="#000000" font-family="sans-serif" font-size="13" lengthAdjust="spacing" textLength="14" x="616" y="687.2169">rw</text></g><!--link af7a7f0b3b2e57bd500b4dc604f1838f to 59267e85dee21fdb21575bdf1488b3f8--><g id="link_af7a7f0b3b2e57bd500b4dc604f1838f_59267e85dee21fdb21575bdf1488b3f8"><path codeLine="57" d="M789.59,230.99 C754.05,335.67 686.6191,534.2786 665.3091,597.0386 " fill="none" id="af7a7f0b3b2e57bd500b4dc604f1838f-to-59267e85dee21fdb21575bdf1488b3f8" style="stroke:#181818;stroke-width:1.0;stroke-dasharray:7.0,7.0;"/><polygon fill="#181818" points="663.38,602.72,670.0613,595.4839,664.9876,597.9855,662.4861,592.9118,663.38,602.72" style="stroke:#181818;stroke-width:1.0;"/><text fill="#000000" font-family="sans-serif" font-size="13" lengthAdjust="spacing" textLength="23" x="720" y="449.9269">use</text></g><!--link 6d2099696e9c78fa76d6e089091997d3 to 5b4d8ec281ca350374518dd9c363a7e6--><g id="link_6d2099696e9c78fa76d6e089091997d3_5b4d8ec281ca350374518dd9c363a7e6"><path codeLine="58" d="M811,642.45 C811,664.07 811,699.24 811,720.87 " fill="none" id="6d2099696e9c78fa76d6e089091997d3-5b4d8ec281ca350374518dd9c363a7e6" style="stroke:#181818;stroke-width:1.0;"/><text fill="#000000" font-family="sans-serif" font-size="13" lengthAdjust="spacing" textLength="13" x="812" y="687.2169">ro</text></g><!--link af7a7f0b3b2e57bd500b4dc604f1838f to 6d2099696e9c78fa76d6e089091997d3--><g id="link_af7a7f0b3b2e57bd500b4dc604f1838f_6d2099696e9c78fa76d6e089091997d3"><path codeLine="59" d="M811,230.99 C811,335.67 811,533.96 811,596.72 " fill="none" id="af7a7f0b3b2e57bd500b4dc604f1838f-to-6d2099696e9c78fa76d6e089091997d3" style="stroke:#181818;stroke-width:1.0;stroke-dasharray:7.0,7.0;"/><polygon fill="#181818" points="811,602.72,815,593.72,811,597.72,807,593.72,811,602.72" style="stroke:#181818;stroke-width:1.0;"/><text fill="#000000" font-family="sans-serif" font-size="13" lengthAdjust="spacing" textLength="23" x="812" y="449.9269">use</text></g><!--link ca300012467db12d42c88cf44a30e699 to 0b495f64c395c2223ca0372804ccf3af--><g id="link_ca300012467db12d42c88cf44a30e699_0b495f64c395c2223ca0372804ccf3af"><path codeLine="60" d="M389.72,642.45 C428.1,664.01 490.44,699.03 528.95,720.67 " fill="none" id="ca300012467db12d42c88cf44a30e699-0b495f64c395c2223ca0372804ccf3af" style="stroke:#181818;stroke-width:1.0;"/><text fill="#000000" font-family="sans-serif" font-size="13" lengthAdjust="spacing" textLength="14" x="472" y="687.2169">rw</text></g><!--link 893aba7f849e8e7e9eba282605c4877b to ca300012467db12d42c88cf44a30e699--><g id="link_893aba7f849e8e7e9eba282605c4877b_ca300012467db12d42c88cf44a30e699"><path codeLine="61" d="M295.02,288.29 C315.05,397.73 341.8197,544.0281 351.4697,596.7481 " fill="none" id="893aba7f849e8e7e9eba282605c4877b-to-ca300012467db12d42c88cf44a30e699" style="stroke:#181818;stroke-width:1.0;stroke-dasharray:7.0,7.0;"/><polygon fill="#181818" points="352.55,602.65,354.8642,593.0769,351.6497,597.7317,346.9949,594.5173,352.55,602.65" style="stroke:#181818;stroke-width:1.0;"/><text fill="#000000" font-family="sans-serif" font-size="13" lengthAdjust="spacing" textLength="23" x="326" y="449.9269">use</text></g><!--link ea411b5d3793e158ec90badb5b17fef1 to 6065445429dbac4399be0b43a7b9ecb8--><g id="link_ea411b5d3793e158ec90badb5b17fef1_6065445429dbac4399be0b43a7b9ecb8"><path codeLine="62" d="M1352.35,642.45 C1351.6,664.07 1350.4,699.24 1349.65,720.87 " fill="none" id="ea411b5d3793e158ec90badb5b17fef1-6065445429dbac4399be0b43a7b9ecb8" style="stroke:#181818;stroke-width:1.0;"/><text fill="#000000" font-family="sans-serif" font-size="13" lengthAdjust="spacing" textLength="146" x="1352" y="687.2169">/var/lib/postgresql/data</text></g><!--link 355aeb7ac3f8fa43e8d94fbf0e4b8d6c to ea411b5d3793e158ec90badb5b17fef1--><g id="link_355aeb7ac3f8fa43e8d94fbf0e4b8d6c_ea411b5d3793e158ec90badb5b17fef1"><path codeLine="63" d="M1452.01,230.99 C1425.47,335.67 1375.1444,534.144 1359.2344,596.904 " fill="none" id="355aeb7ac3f8fa43e8d94fbf0e4b8d6c-to-ea411b5d3793e158ec90badb5b17fef1" style="stroke:#181818;stroke-width:1.0;stroke-dasharray:7.0,7.0;"/><polygon fill="#181818" points="1357.76,602.72,1363.8489,594.9789,1358.9887,597.8733,1356.0942,593.013,1357.76,602.72" style="stroke:#181818;stroke-width:1.0;"/><text fill="#000000" font-family="sans-serif" font-size="13" lengthAdjust="spacing" textLength="23" x="1400" y="449.9269">use</text></g><!--link 09fca77465f0ed3a6388c471712ebe8f to b2154870842952147bdf616ed428b7fa--><g id="link_09fca77465f0ed3a6388c471712ebe8f_b2154870842952147bdf616ed428b7fa"><path codeLine="64" d="M1566.49,642.45 C1567.05,664.07 1567.95,699.24 1568.51,720.87 " fill="none" id="09fca77465f0ed3a6388c471712ebe8f-b2154870842952147bdf616ed428b7fa" style="stroke:#181818;stroke-width:1.0;"/><text fill="#000000" font-family="sans-serif" font-size="13" lengthAdjust="spacing" textLength="13" x="1568" y="687.2169">ro</text></g><!--link 355aeb7ac3f8fa43e8d94fbf0e4b8d6c to 09fca77465f0ed3a6388c471712ebe8f--><g id="link_355aeb7ac3f8fa43e8d94fbf0e4b8d6c_09fca77465f0ed3a6388c471712ebe8f"><path codeLine="65" d="M1481.63,230.99 C1504.24,335.67 1547.1129,534.0953 1560.6729,596.8553 " fill="none" id="355aeb7ac3f8fa43e8d94fbf0e4b8d6c-to-09fca77465f0ed3a6388c471712ebe8f" style="stroke:#181818;stroke-width:1.0;stroke-dasharray:7.0,7.0;"/><polygon fill="#181818" points="1561.94,602.72,1563.9491,593.0782,1560.8841,597.8328,1556.1295,594.7677,1561.94,602.72" style="stroke:#181818;stroke-width:1.0;"/><text fill="#000000" font-family="sans-serif" font-size="13" lengthAdjust="spacing" textLength="23" x="1530" y="449.9269">use</text></g><!--SRC=[hLLTRrf747s_l-8AvQ6r1Ept1nALYB2SH8w935OVgWhjxiowI1WeuCIHvV-UuHeiKDskM_NbIdTtTlRCd3Ddmto-_7OtUvWjRgl54h1kNTtE5W-jEcngH2KL4p9bvy52Ze9d8y6ep38jgFgngjFoRhLSu69RXso3pIpAA53R29gng20PfZ9tqkNwj-hiRB5BVdPMLRExS8kz-WyCwoq-p4FSTEc3y_PcUm-pPMyUjhZPLclwK4Illb_CSREXtULgXL3XukjilLpSqSMz-dBm_lnoEfxS33-EfXz6uqd_tUDVrdhjfwhwlVhfvxhbcDDDWSgXZGOPTzbb7nBzQKGNK44CmeX3j6cYGvP1UCQDynmrQg6GEos5joPJ8bOHq5aEQLktJchfGjY69eFsmbXq6X2fbK3zr5P7o5mv5sLsnnaIhhURvfG1mRmttg1FrkLW3H1cvvddtbkGrTEUkS5grHm04RI5nC4vcO5kYjvhRho7R7bAzfGtvsM8n9nJ7gaCz4YrEs6OJifP6nlUmchrVxCs_3IukXXDX-_xW3dSpxUdsr-8iulhy-dLuFDvVxNSR6yfw-iXD-FpwqB8by5u_EleUjZ_c-tHzQIlbHIlRpUQWlWVLNTowjDuT3Mz75tq-KwDHSMa81bZN2XZ8N81IYJdKbQArf4OVU5-69-fjnP8cam6u4hwh9qEINab30bCytXAlTGwOBGXaVPoK18TU9LZPgYY0vCQwY4UCN_eSe_pZduRp_icZfj-J0Stam_Jp-UJ3wDXVxk-9x6SjA7TwHwkQE-QyFHiH45n7ZL8woLoxJ1v5WD47RdDcFbn7x-6TNS-Yozf_fmVZHBpEGLhbT5K8yXW97LJMMwvm8WkKplt8y-UHu-nf5JYacR3SqrsXjhu6AH50PR5GpHleccuW4d3o2I5WKppau02FHghaqx7C3lTk-yl99DFUfsDIjBh90GPRc3I2iTKIkGv-UGSu6g-_DvjZFIeCarUItqHZfDaY7-hD7S0FaaZWqLpbEFTumibmy5aC1r-lDuNQxHIMWbFxfT8FJuYGQFZqMEAxZKOgzlJ1kyiZLo3ESgY1LVq3cJ33P9mNRGvLCLNeWtjiY-N0feiHVBUXANi-eM09ajH6gMdeSbI4ahTgrlhRwroOPqET3g_5D-ZNRxx3RQgqXFKe2j9i46tV3kwugK7T2MJ_5UzApw7UtJ5Im_eIkQrr-e_pzuksslMrdX8LVJnFUOYb0Fcaaysc4kpVk3xhUYAb-xH_G00]--></g></svg>