<svg width="16" height="9" viewBox="0 0 18 10" fill="none" xmlns="http://www.w3.org/2000/svg">
    <path fill-rule="evenodd" clip-rule="evenodd" d="M1.72529 0.0387335C2.25633 -0.112991 2.80981 0.194501 2.96154 0.725536C4.68524 6.7585 13.3148 6.7585 15.0385 0.725536C15.1902 0.194501 15.7437 -0.112991 16.2747 0.0387335C16.8058 0.190458 17.1133 0.743944 16.9615 1.27498C14.6852 9.24202 3.31479 9.24202 1.03849 1.27498C0.886765 0.743944 1.19426 0.190458 1.72529 0.0387335Z" fill="currentColor"/>
    <path fill-rule="evenodd" clip-rule="evenodd" d="M14.2493 3.33963C13.8844 3.75424 13.9248 4.38612 14.3394 4.75097L15.5894 5.85097C16.004 6.21583 16.6359 6.17549 17.0007 5.76089C17.3656 5.34628 17.3252 4.7144 16.9106 4.34954L15.6606 3.24954C15.246 2.88469 14.6142 2.92502 14.2493 3.33963Z" fill="currentColor"/>
    <path fill-rule="evenodd" clip-rule="evenodd" d="M13.4972 8.19473C13.0032 8.44172 12.4026 8.2415 12.1556 7.74752L11.4056 6.24752C11.1586 5.75354 11.3588 5.15287 11.8528 4.90588C12.3468 4.65889 12.9474 4.85911 13.1944 5.35309L13.9444 6.85309C14.1914 7.34707 13.9912 7.94774 13.4972 8.19473Z" fill="currentColor"/>
    <path fill-rule="evenodd" clip-rule="evenodd" d="M9.00001 6.00026C9.5523 6.00026 10 6.44797 10 7.00026V8.20026C10 8.75254 9.5523 9.20026 9.00001 9.20026C8.44773 9.20026 8.00001 8.75254 8.00001 8.20026V7.00026C8.00001 6.44797 8.44773 6.00026 9.00001 6.00026Z" fill="currentColor"/>
    <path fill-rule="evenodd" clip-rule="evenodd" d="M6.14724 4.90588C6.64122 5.15287 6.84144 5.75354 6.59445 6.24752L5.84445 7.74752C5.59746 8.2415 4.99679 8.44172 4.50281 8.19473C4.00883 7.94774 3.80861 7.34707 4.0556 6.85309L4.8056 5.35309C5.05259 4.85911 5.65326 4.65889 6.14724 4.90588Z" fill="currentColor"/>
    <path fill-rule="evenodd" clip-rule="evenodd" d="M3.75073 3.33963C4.11558 3.75424 4.07525 4.38612 3.66064 4.75097L2.41064 5.85097C1.99603 6.21583 1.36415 6.17549 0.999299 5.76089C0.634444 5.34628 0.674777 4.7144 1.08938 4.34954L2.33938 3.24954C2.75399 2.88469 3.38587 2.92502 3.75073 3.33963Z" fill="currentColor"/>
</svg>
