<svg width="12" height="9" viewBox="0 0 12 9" fill="none" xmlns="http://www.w3.org/2000/svg">
    <path fill-rule="evenodd" clip-rule="evenodd" d="M1.89429 4.70846C3.52617 1.25342 8.47383 1.25342 10.1047 4.70846C10.1634 4.83291 10.2447 4.9439 10.3439 5.03509C10.4431 5.12629 10.5583 5.19589 10.6829 5.23994C10.8075 5.28399 10.9391 5.30162 11.0701 5.29182C11.2012 5.28202 11.3291 5.24499 11.4466 5.18283C11.5641 5.12067 11.669 5.03461 11.7551 4.92956C11.8412 4.82451 11.9069 4.70253 11.9485 4.57058C11.9901 4.43863 12.0068 4.2993 11.9975 4.16053C11.9883 4.02177 11.9533 3.8863 11.8946 3.76185C9.52476 -1.25395 2.47525 -1.25395 0.105411 3.76185C-0.013133 4.01319 -0.0325336 4.3041 0.0514769 4.57058C0.135487 4.83707 0.316027 5.0573 0.553379 5.18283C0.790732 5.30836 1.06545 5.3289 1.31711 5.23994C1.56877 5.15098 1.77574 4.9598 1.89429 4.70846ZM6 3.70573C5.33701 3.70573 4.70116 3.98462 4.23236 4.48106C3.76355 4.97749 3.50017 5.6508 3.50017 6.35286C3.50017 7.05493 3.76355 7.72824 4.23236 8.22467C4.70116 8.72111 5.33701 9 6 9C6.663 9 7.29884 8.72111 7.76764 8.22467C8.23645 7.72824 8.49983 7.05493 8.49983 6.35286C8.49983 5.6508 8.23645 4.97749 7.76764 4.48106C7.29884 3.98462 6.663 3.70573 6 3.70573Z" fill="currentColor"/>
</svg>