<svg width="18" height="18" viewBox="0 0 18 18" fill="none" xmlns="http://www.w3.org/2000/svg">
<path d="M0.993428 0C0.444716 0 0 0.444648 0 0.993428V17.0066C0 17.5552 0.444716 18 0.993428 18H9.61433V11.0295H7.26862V8.3129H9.61433V6.30952C9.61433 3.98457 11.0343 2.71861 13.1083 2.71861C14.1018 2.71861 14.9556 2.79259 15.2044 2.82564V5.25532L13.766 5.256C12.6381 5.256 12.4197 5.79196 12.4197 6.57848V8.3129H15.1098L14.7595 11.0295H12.4197V18H17.0066C17.5552 18 18 17.5552 18 17.0066V0.993428C18 0.444648 17.5552 0 17.0066 0H0.993428Z" fill="black" fill-opacity="0.4"/>
</svg>
