<svg width="20" height="20" viewBox="0 0 20 20" fill="none" xmlns="http://www.w3.org/2000/svg">
<path fill-rule="evenodd" clip-rule="evenodd" d="M9.99908 0C4.47773 0 0 4.47712 0 10.0003C0 14.4185 2.86504 18.1663 6.83876 19.4886C7.33908 19.5807 7.52141 19.2719 7.52141 19.0067C7.52141 18.7698 7.51281 18.1405 7.5079 17.3062C4.72636 17.9103 4.13948 15.9655 4.13948 15.9655C3.68458 14.8102 3.02894 14.5026 3.02894 14.5026C2.121 13.8826 3.0977 13.8948 3.0977 13.8948C4.10142 13.9654 4.62936 14.9256 4.62936 14.9256C5.52135 16.4535 6.97013 16.0122 7.53983 15.7562C7.63068 15.1103 7.88913 14.6696 8.17459 14.4197C5.95414 14.1674 3.61951 13.3092 3.61951 9.47727C3.61951 8.38577 4.00933 7.49256 4.64901 6.79395C4.54587 6.54102 4.20271 5.5238 4.74723 4.14746C4.74723 4.14746 5.58642 3.87857 7.49685 5.17266C8.2943 4.95043 9.15007 4.83993 10.0003 4.83563C10.8499 4.83993 11.7051 4.95043 12.5038 5.17266C14.413 3.87857 15.2509 4.14746 15.2509 4.14746C15.7967 5.5238 15.4535 6.54102 15.351 6.79395C15.9919 7.49256 16.3786 8.38577 16.3786 9.47727C16.3786 13.319 14.0403 14.1643 11.8131 14.4117C12.1716 14.7205 12.4915 15.3307 12.4915 16.2639C12.4915 17.6003 12.4792 18.6789 12.4792 19.0067C12.4792 19.2744 12.6597 19.5856 13.1668 19.488C17.1374 18.1626 20 14.4173 20 10.0003C20 4.47712 15.5223 0 9.99908 0Z" fill="black" fill-opacity="0.4"/>
</svg>
