<svg width="115" height="40" xmlns="http://www.w3.org/2000/svg">
 <defs>
  <clipPath id="clip0">
   <rect id="svg_1" x="0" y="9.16699" fill="white" height="21.3333" width="21.2104"/>
  </clipPath>
 </defs>
 <g>
  <title>Layer 1</title>
  <path id="svg_12" fill="white" d="m11.2863,28.5l0,-7.5918l-4.8012,0l0,7.5918l-2.7468,0l0,-17.25l2.7468,0l0,7.1313l4.8012,0l0,-7.1313l2.7468,0l0,17.25l-2.7468,0z"/>
  <path id="svg_13" fill="white" d="m27.767,22.75c0,0.2096 -0.0149,0.5166 -0.0447,0.9209l-8.5976,0c0.1488,0.846 0.4875,1.4974 1.0161,1.9541c0.5359,0.4567 1.2282,0.6851 2.0768,0.6851c1.1463,0 1.9093,-0.4193 2.289,-1.2579l2.97,0c-0.3349,1.183 -0.9751,2.0927 -1.9205,2.7291c-0.9379,0.6289 -2.088,0.9433 -3.4502,0.9433c-1.6451,0 -3.0036,-0.5578 -4.0755,-1.6733c-1.0644,-1.1156 -1.5967,-2.5493 -1.5967,-4.3013c0,-1.752 0.5323,-3.1857 1.5967,-4.3013c1.0719,-1.1155 2.4304,-1.6733 4.0755,-1.6733c1.6451,0 2.9999,0.5578 4.0644,1.6733c1.0644,1.1156 1.5967,2.5493 1.5967,4.3013zm-3.7071,-2.8975c-0.5062,-0.4417 -1.1575,-0.6626 -1.954,-0.6626c-0.7965,0 -1.4515,0.2209 -1.9651,0.6626c-0.5137,0.4343 -0.8449,1.0557 -0.9938,1.8643l5.9067,0c-0.1489,-0.8086 -0.4801,-1.43 -0.9938,-1.8643z"/>
  <path id="svg_14" fill="white" d="m37.0903,28.5l0,-1.707c-0.6997,1.2877 -1.913,1.9316 -3.64,1.9316c-0.6848,0 -1.3101,-0.1086 -1.8758,-0.3257c-0.5583,-0.2171 -1.0273,-0.5802 -1.4069,-1.0893c-0.3722,-0.5166 -0.5583,-1.1455 -0.5583,-1.8867c0,-0.5915 0.1042,-1.1044 0.3126,-1.5386c0.2159,-0.4343 0.4988,-0.7712 0.8486,-1.0108c0.3499,-0.2395 0.7481,-0.4417 1.1948,-0.6064c0.4466,-0.1722 0.9007,-0.292 1.3622,-0.3594c0.4615,-0.0674 0.9156,-0.1422 1.3622,-0.2246c0.4466,-0.0824 0.8449,-0.161 1.1947,-0.2358c0.3499,-0.0824 0.629,-0.2134 0.8375,-0.3931c0.2158,-0.1797 0.3238,-0.4043 0.3238,-0.6738c0,-0.4343 -0.201,-0.7787 -0.603,-1.0332c-0.3945,-0.2621 -0.897,-0.3931 -1.5073,-0.3931c-0.6477,0 -1.165,0.1685 -1.5521,0.5054c-0.3796,0.3369 -0.5694,0.8198 -0.5694,1.4487l-2.8585,0c0,-0.7187 0.1377,-1.3514 0.4132,-1.8979c0.2754,-0.5466 0.6513,-0.9771 1.1277,-1.2915c0.4764,-0.322 1.0012,-0.5578 1.5744,-0.7076c0.5806,-0.1572 1.2022,-0.2358 1.8647,-0.2358c0.655,0 1.2617,0.0711 1.82,0.2134c0.5657,0.1347 1.0793,0.3444 1.5408,0.6289c0.4616,0.2845 0.8263,0.6738 1.0943,1.1679c0.268,0.4867 0.402,1.0557 0.402,1.7071l0,8.0073l-2.7022,0zm-4.6672,-3.2681c0,0.3894 0.1451,0.6888 0.4354,0.8985c0.2978,0.2021 0.6849,0.3032 1.1613,0.3032c0.8486,0 1.5706,-0.2358 2.1661,-0.7075c0.603,-0.4717 0.9044,-1.1268 0.9044,-1.9654l0,-0.5278c-0.3126,0.1348 -0.7034,0.2546 -1.1724,0.3594c-0.4689,0.0973 -0.8932,0.1834 -1.2729,0.2583c-0.3796,0.0674 -0.7481,0.1535 -1.1054,0.2583c-0.3498,0.1048 -0.6252,0.2508 -0.8262,0.438c-0.1936,0.1797 -0.2903,0.408 -0.2903,0.685z"/>
  <path id="svg_15" fill="white" d="m45.4981,22.6377l0,5.8623l-2.7467,0l0,-11.5l2.7467,0l0,1.8643c0.8486,-1.3926 2.129,-2.0889 3.8411,-2.0889c0.2903,0 0.4801,0.015 0.5694,0.0449l0,3.0098c-0.3424,-0.1198 -0.7369,-0.1797 -1.1836,-0.1797c-1.0198,0 -1.8125,0.2583 -2.3783,0.7749c-0.5657,0.5166 -0.8486,1.2541 -0.8486,2.2124z"/>
  <path id="svg_16" fill="white" d="m55.4133,24.5693c0,0.5616 0.1377,0.9733 0.4132,1.2354c0.2754,0.262 0.7071,0.3931 1.2952,0.3931c0.4466,0 0.8672,-0.0674 1.2617,-0.2022l0,2.4595c-0.5508,0.1797 -1.1538,0.2695 -1.8088,0.2695c-0.5955,0 -1.1203,-0.0674 -1.5744,-0.2021c-0.4541,-0.1273 -0.8635,-0.337 -1.2282,-0.6289c-0.3573,-0.292 -0.6328,-0.7001 -0.8263,-1.2242c-0.1861,-0.5315 -0.2792,-1.1717 -0.2792,-1.9204l0,-5.3344l-1.8311,0l0,-2.4146l1.8311,0l0,-3.4478l2.7468,0l0,3.4478l2.9701,0l0,2.4146l-2.9701,0l0,5.1547z"/>
  <path id="svg_17" fill="white" d="m71.313,22.75c0,0.2096 -0.015,0.5166 -0.044,0.9209l-8.5979,0c0.1488,0.846 0.4875,1.4974 1.016,1.9541c0.536,0.4567 1.2283,0.6851 2.0769,0.6851c1.1463,0 1.9093,-0.4193 2.2889,-1.2579l2.9701,0c-0.335,1.183 -0.975,2.0927 -1.92,2.7291c-0.9384,0.6289 -2.0885,0.9433 -3.4507,0.9433c-1.6451,0 -3.0036,-0.5578 -4.0755,-1.6733c-1.0645,-1.1156 -1.5967,-2.5493 -1.5967,-4.3013c0,-1.752 0.5322,-3.1857 1.5967,-4.3013c1.0719,-1.1155 2.4304,-1.6733 4.0755,-1.6733c1.6451,0 2.9999,0.5578 4.0647,1.6733c1.064,1.1156 1.596,2.5493 1.596,4.3013zm-3.7067,-2.8975c-0.5062,-0.4417 -1.1575,-0.6626 -1.954,-0.6626c-0.7965,0 -1.4515,0.2209 -1.9652,0.6626c-0.5136,0.4343 -0.8448,1.0557 -0.9937,1.8643l5.9067,0c-0.1489,-0.8086 -0.4802,-1.43 -0.9938,-1.8643z"/>
  <path id="svg_18" fill="white" d="m80.592,28.5l-2.881,-3.9082l-2.601,3.9082l-3.205,0l4.321,-5.9297l-4.098,-5.5703l3.205,0l2.635,3.5601l2.401,-3.5601l3.193,0l-4.087,5.6377l4.322,5.8623l-3.205,0z"/>
 </g>
</svg>