<svg width="179" height="80" viewBox="0 0 179 80" fill="none" xmlns="http://www.w3.org/2000/svg">
<path d="M128.302 62.6088C127.624 61.9112 127.071 62.0033 126.393 62.725C126.673 59.4853 127.653 56.345 129.266 53.5214C130.859 50.5859 133.514 48.9244 136.11 47.0159C136.191 47.6178 136.015 48.2259 135.626 48.6919C134.815 50.1836 134.118 51.7349 133.543 53.3325C132.531 55.7153 131.798 58.2072 131.358 60.7583C131.327 61.2588 131.159 61.7411 130.874 62.1534C130.588 62.5022 130.389 62.6766 130.109 62.0856C129.726 61.2767 129.324 61.1991 129.033 62.2067C128.965 62.5506 128.694 63.0108 128.302 62.6088Z" fill="#A3A3A3"/>
<path d="M80.9854 54.2918C81.0145 54.2918 81.0436 54.3499 81.0775 54.3548C84.1304 54.5456 87.1912 54.5747 90.2472 54.442C90.5621 54.5098 91.0222 54.2482 91.216 54.689C91.3613 55.0136 91.0707 55.3042 90.8866 55.59C90.7025 55.8758 90.6493 56.2343 90.4846 56.5249C89.6853 57.9345 89.4431 59.6687 88.3047 60.8845C88.0286 61.18 87.9414 61.5288 87.5588 60.933C87.0744 60.2112 86.59 60.5696 86.3671 61.2139C86.1056 61.9938 85.7762 62.0858 85.2966 61.4949C84.9042 61.0105 84.2939 61.1994 84.2212 61.4949C83.95 62.5266 83.5334 61.7855 83.2524 61.6402C82.9715 61.4949 82.6857 61.0347 82.3805 61.0008C81.5667 60.9184 81.3148 60.3662 81.1792 59.659C80.8882 58.4732 80.4675 57.323 79.9246 56.2294C79.1011 54.379 79.1592 54.2482 80.9854 54.2918Z" fill="#A3A3A3"/>
<path d="M163.9 31.8963C163.9 31.7219 164.293 31.3247 164.385 31.3635C164.922 31.6105 164.762 32.2403 165.097 32.899C164.433 32.6132 163.944 32.4534 163.9 31.8963Z" fill="white"/>
<path d="M171.927 21.309C172.043 21.2025 172.464 21.2267 172.363 21.5609C172.261 21.8951 172.188 22.3602 171.738 22.4377C171.287 22.5152 171.166 22.1761 170.948 21.8758C171.103 21.3671 171.622 21.5706 171.927 21.309Z" fill="white"/>
<path d="M50.962 19.3814C50.9039 18.4126 51.645 18.3787 52.173 18.2237C52.8173 18.0348 52.8415 18.6063 52.9917 19.1392C53.135 19.7037 53.189 20.2873 53.1515 20.8685C53.0683 23.4589 54.0423 25.9717 55.8497 27.8294C56.2323 28.2459 56.7942 28.7013 56.6247 29.2826C56.4309 29.9462 55.7237 29.3843 55.3168 29.5974C54.8324 29.5732 54.3093 29.7137 53.9847 29.4957C52.6847 28.694 51.7693 27.3953 51.4513 25.9014C51.0056 23.7604 51.088 21.5564 50.962 19.3814Z" fill="#F9C2CF"/>
<path d="M41.8887 22.1762C41.7337 20.6552 42.5475 20.5826 43.4146 20.3307C43.6229 20.2725 43.8505 20.3307 44.0588 20.2532C45.948 19.7155 46.1563 19.9141 45.9092 22.0261C45.9092 22.1423 45.8656 22.2537 45.8463 22.37C45.5047 23.8246 45.8792 25.3548 46.8538 26.4874C47.3721 27.122 47.9631 27.805 48.0648 28.7447C47.2462 29.0693 46.4857 28.6236 45.7106 28.6333C44.1412 28.6333 43.216 27.6645 42.4409 26.3712C41.6659 25.0778 42.0292 23.581 41.8887 22.1762Z" fill="#F9C2CF"/>
<path d="M46.8837 19.8941C46.9176 19.6325 47.1743 19.463 47.4698 19.3176C47.9203 19.0948 48.395 19.2208 48.8358 18.9979C49.514 18.6492 49.9403 18.9979 50.0323 19.7585C50.2212 21.2988 50.4392 22.8392 50.5167 24.3893C50.5845 26.1235 51.4468 27.5864 51.6647 29.2866C51.3108 29.3639 50.9415 29.3283 50.6087 29.1849C50.1631 29.0057 49.4219 29.3496 49.2815 28.8216C49.02 28.0096 48.5488 27.2811 47.9155 26.7096C46.0311 24.7284 46.5688 22.2773 46.8837 19.8941Z" fill="#F9C2CF"/>
<path d="M137.471 12.3772C137.795 12.5574 138.197 12.5168 138.479 12.2755C139.491 11.3794 143.778 11.3745 144.243 11.3067C145.808 11.0839 147.213 11.7475 148.68 12.1157C150.865 12.663 152.885 13.7772 155.171 14.0533C156.499 14.2083 164.908 15.9182 167.059 16.6012C168.333 17.0033 173.239 18.1319 174.47 17.9769C174.804 17.9333 175.017 18.161 175.046 18.534C175.075 18.907 174.736 18.8779 174.518 18.9506C172.915 19.4882 171.336 20.118 169.713 20.5394C165.901 21.5373 162.055 22.3753 158.247 23.3974C156.295 23.9183 154.296 24.2429 152.279 24.3662C151.311 24.4243 150.996 24.9281 151.378 25.8727C151.588 26.4776 152.031 26.9732 152.609 27.2484C155.38 28.5562 157.937 30.2952 160.616 31.8211C162.176 32.7124 163.648 33.8314 165.392 34.34C165.668 34.3961 165.853 34.6571 165.814 34.9358C165.77 35.4541 165.378 35.2458 165.131 35.2604C162.51 35.3863 159.885 35.0424 157.269 35.5026C154.729 35.8709 152.239 36.5207 149.843 37.4402C148.235 38.1086 146.772 39.0532 145.202 39.7798C142.616 40.9811 139.874 41.7174 137.67 43.9457C136.067 45.5733 134.095 46.9005 132.259 48.3053C130.07 49.9851 128.366 52.2147 127.318 54.7672C126.713 56.1913 126.834 58.2065 125.105 58.996C124.916 59.0784 124.848 59.5289 124.77 59.8244C124.601 60.4928 124.489 61.1807 124.286 61.8395C124.184 62.1834 124.063 62.5418 123.554 62.5322C122.586 62.5322 122.169 64.2469 120.924 63.5494C120.822 63.4913 120.847 63.8836 120.793 64.0338C120.556 64.7798 120.357 65.6081 119.485 64.5182C119.345 64.3487 119.05 64.0338 118.759 64.3293C118.178 64.9396 118.081 64.2518 117.989 63.9466C117.199 61.4326 116.502 58.8846 115.659 56.3899C115.247 55.1789 115.417 53.8565 114.879 52.6843C114.617 52.1175 114.486 51.7591 113.711 51.9238C110.673 52.5454 107.599 52.9805 104.508 53.2268C103.365 53.3237 102.168 53.1541 101.093 53.3237C98.8403 53.6773 96.6072 53.4884 94.3983 53.3818C91.7729 53.2559 89.1426 53.1638 86.5317 53.2752C83.5623 53.4012 80.6462 52.258 77.6671 52.9798C77.4866 53.0226 77.2967 52.9967 77.1343 52.9071C76.89 52.7526 76.5824 52.7383 76.3249 52.8696C76.0674 53.0008 75.8982 53.2581 75.8797 53.5465C75.8312 54.6025 75.1531 55.3049 74.8721 56.2107C74.1528 58.7898 73.0819 61.2576 71.6896 63.5446C71.0114 63.2297 71.1616 62.3287 70.7208 61.9315C69.9554 61.2533 69.6842 62.256 69.2676 62.6775C68.4344 61.4083 68.0469 61.418 67.33 62.6048C67.2137 62.8034 67.2234 63.2539 66.8698 63.1231C66.6218 63.0215 66.433 62.8132 66.3563 62.5564C66.2159 61.4277 65.6733 61.3744 64.8353 61.7329C64.6655 61.8303 64.4575 61.8333 64.285 61.7406C64.1126 61.648 64.0001 61.4729 63.9876 61.2776C63.7648 60.0278 63.3531 58.8313 63.2126 57.5525C63.0561 55.6246 62.7941 53.7067 62.4278 51.8075C61.7195 48.549 61.3237 45.2304 61.2459 41.8967C61.2178 39.7873 61.3799 37.6797 61.7303 35.5994C61.9192 34.3255 62.8008 30.4987 62.5828 29.8399C62.3358 29.0988 61.7884 29.2296 61.2507 29.278C59.3761 29.4475 57.608 29.4766 56.4406 27.3404C55.6123 25.8339 54.4013 24.5841 54.1397 22.7289C53.8878 20.9463 54.3286 19.28 54.658 17.5845C54.7016 17.3666 54.7646 17.2212 54.9874 17.2067C55.8255 17.1583 56.5424 16.5818 57.3562 16.5043C58.9741 16.3542 60.5435 15.6712 62.2002 16.0199C62.3964 16.0569 62.5936 15.9603 62.6846 15.7826C63.169 14.9591 63.944 15.0657 64.8062 15.1335C64.1959 16.1023 64.8838 16.4946 65.3585 17.0033C65.7121 17.3811 65.964 17.1389 66.3031 16.9064C67.204 16.2815 66.6034 15.4532 66.5937 14.6878C69.5921 13.9758 72.6826 13.7723 75.6762 12.9779C76.1293 12.7919 76.644 12.8333 77.0616 13.0893C77.672 13.5979 78.2678 13.3121 78.9072 13.2976C79.7016 13.2976 79.9535 12.4547 80.6268 12.3288C82.2008 12.0491 83.8018 11.9516 85.3982 12.0382C85.621 12.0382 85.8826 12.0382 85.8486 12.3966C85.805 13.1135 86.2798 12.9682 86.6624 12.9827C87.3923 12.9982 88.1071 12.7735 88.6969 12.3433C90.0436 11.3745 91.55 11.3745 93.0178 11.3745C94.4097 11.3997 95.802 11.3496 97.1885 11.2244C99.4313 10.9773 101.689 11.2244 103.927 10.8659C104.207 10.8175 104.682 10.9482 104.585 11.3212C104.324 12.3239 105.152 12.1157 105.477 12.2222C106.155 12.4354 106.906 12.1544 107.618 12.4693C108.034 12.6533 108.131 12.1689 108.015 11.8928C107.622 10.9482 108.238 11.0015 108.746 10.987C110.8 10.9289 112.859 10.9386 114.908 10.8465C120.198 10.5995 125.458 11.2583 130.738 11.3648C133.01 11.368 135.269 11.7142 137.437 12.3918L137.471 12.3772ZM149.257 17.9624C150.149 17.9287 150.856 17.1982 150.86 16.3057C150.86 15.4483 149.954 14.184 149.325 14.1744C148.511 14.1744 147.595 15.303 147.571 16.3687C147.651 17.2607 148.395 17.9463 149.291 17.9527L149.257 17.9624ZM86.2846 14.1792C86.1151 13.6657 85.8002 13.8983 85.5047 13.9176C84.9961 13.9418 84.5359 13.9854 84.2743 14.4553C84.3567 14.8913 84.5165 15.085 84.8072 15.1044C85.0983 15.1409 85.3928 15.1409 85.684 15.1044C85.9601 15.056 86.2216 15.5888 86.4445 15.1674C86.6673 14.8477 86.4493 14.5038 86.3379 14.1695L86.2846 14.1792ZM109.303 15.8359C109.133 15.8066 108.959 15.862 108.837 15.9843C108.714 16.1066 108.659 16.2806 108.688 16.451C108.688 16.887 108.989 17.0178 109.361 17.0081C109.817 17.0081 109.996 16.732 109.986 16.2234C109.977 15.7148 109.647 15.8359 109.352 15.831L109.303 15.8359ZM112.176 13.6996C111.803 13.7723 111.207 13.8111 111.149 14.4795C111.125 14.6927 111.333 15.3272 111.745 15.0705C112.156 14.8138 112.975 15.1819 113.043 14.31C113.135 13.7772 112.757 13.6754 112.224 13.6948L112.176 13.6996ZM115.673 12.7308C115.557 11.762 114.704 12.1593 114.133 12.0478C113.823 11.9849 113.164 11.7911 113.314 12.5322C113.46 13.3606 114.162 13.1668 114.767 13.2056C115.077 13.007 115.823 13.5882 115.722 12.7357L115.673 12.7308ZM124.32 18.0011C124.315 18.1356 124.377 18.2638 124.486 18.3427C124.595 18.4216 124.736 18.4406 124.862 18.3935C125.347 18.1222 126.122 18.1513 126.228 17.3133C126.267 17.013 126.049 16.8289 125.744 16.7756C125.308 17.1776 124.514 17.1922 124.368 18.006L124.32 18.0011ZM134.638 14.3633C133.96 14.0758 133.226 13.9498 132.492 13.9951C132.366 13.9951 132.264 14.247 132.157 14.373C132.4 14.7556 132.579 15.0753 133.005 15.1044C133.431 15.1335 133.853 14.9882 134.26 15.2788C134.458 15.4193 134.667 15.1964 134.744 14.9736C134.822 14.7508 134.909 14.4602 134.686 14.3681L134.638 14.3633ZM131.247 18.3935C131.043 18.3935 130.796 17.943 130.661 18.4419C130.564 18.8004 130.622 19.1976 131 19.3235C131.542 19.5028 132.104 19.5997 132.7 19.7401C133.074 19.7253 133.373 19.4258 133.388 19.0523C133.367 18.7021 133.07 18.433 132.719 18.4468C132.279 18.4468 131.789 18.4322 131.3 18.3983L131.247 18.3935ZM136.842 23.3295C136.808 22.9178 136.963 22.3317 136.42 22.2784C135.878 22.2251 136.047 22.8016 135.936 23.1455C135.798 23.6088 135.494 24.0053 135.083 24.2596C134.962 24.3274 134.633 24.308 134.817 24.7149C134.962 25.0443 135.18 25.1557 135.398 25.0443C136.076 24.6907 136.909 24.434 136.842 23.3295ZM135.616 28.0815C135.815 28.0089 135.771 27.6553 135.713 27.4373C135.68 27.3067 135.583 27.2019 135.455 27.1597C135.328 27.1174 135.187 27.1436 135.083 27.229C134.371 27.7134 133.514 27.9071 132.792 28.6047C134.008 29.5057 134.739 28.3964 135.616 28.0815ZM132.162 23.1794C132.371 23.1552 132.695 23.2666 132.976 22.9711C133.254 22.7513 133.377 22.3894 133.291 22.0459C133.136 21.5615 132.777 21.794 132.482 21.857C132.315 21.913 132.145 21.9599 131.973 21.9974C131.523 22.0459 131.15 22.3171 131.184 22.7676C131.218 23.2181 131.707 23.1794 132.162 23.1794ZM130.569 26.0131C131.053 25.9647 131.707 26.0131 131.721 25.3301C131.736 24.6471 130.932 25.0201 130.593 24.681C130.278 24.9378 129.624 24.7149 129.624 25.3737C129.624 26.0325 130.142 26.0325 130.573 25.9889L130.569 26.0131ZM129.425 12.8229C129.513 13.5398 130.351 13.3073 130.913 13.254C131.164 13.254 131.426 13.254 131.678 13.254C131.93 13.254 132.467 13.4429 132.438 12.7696C132.438 12.1786 132.075 12.0672 131.625 12.0866C131.368 12.0866 131.111 12.0866 130.772 12.0866C130.336 12.2222 129.285 11.5925 129.43 12.7987L129.425 12.8229ZM128.457 15.584C128.582 15.626 128.72 15.6145 128.837 15.5523C128.954 15.49 129.041 15.3824 129.077 15.2546C129.117 15.0886 129.088 14.9134 128.997 14.7691C128.905 14.6248 128.759 14.5238 128.592 14.4892C128.129 14.4212 127.659 14.4098 127.192 14.4553V14.4311C126.756 14.4311 126.325 14.4069 125.889 14.4311C125.613 14.464 125.413 14.7111 125.439 14.9882C125.439 15.4338 125.739 15.3418 125.972 15.3515C126.809 15.2974 127.65 15.3676 128.466 15.5598L128.457 15.584ZM127.129 21.8521C127.158 21.2563 126.645 21.3677 126.253 21.2708C125.67 21.1759 125.076 21.1759 124.494 21.2708C124.136 21.2708 124.087 21.4937 124.092 21.8037C124.097 22.1137 124.223 22.196 124.485 22.2251C125.042 22.2832 125.594 22.3753 126.194 22.4625C126.572 22.414 127.11 22.4092 127.139 21.8327L127.129 21.8521ZM124.17 27.6262C124.906 27.9798 125.623 27.4857 126.354 27.3937C126.572 27.3646 126.461 27.0643 126.475 27.0304C126.592 26.3328 126.282 26.1342 125.88 26.3038C125.413 26.4658 124.919 26.5349 124.426 26.5072C124.078 26.5072 123.627 26.4055 123.516 26.8899C123.404 27.3743 123.908 27.476 124.179 27.6068L124.17 27.6262ZM122.402 12.7405C122.765 12.8035 123.332 12.8907 123.37 12.3239C123.395 11.8395 122.973 11.5441 122.363 11.5828C121.956 11.9267 120.856 11.4956 120.91 12.3239C120.919 13.317 121.874 12.6243 122.411 12.7212L122.402 12.7405ZM120.837 15.2207C121.055 15.0657 121.321 14.9833 121.205 14.6249C121.089 14.2664 120.89 14.0872 120.643 14.2034C120.013 14.4989 119.364 14.3778 118.706 14.4214C118.502 14.4214 118.362 14.5086 118.371 14.7702C118.381 15.0318 118.507 15.0899 118.715 15.1238C119.175 15.1964 119.626 15.2885 120.047 15.366C120.324 15.3905 120.602 15.3333 120.847 15.2013L120.837 15.2207ZM118.928 27.4034C119.161 26.9868 119.98 27.5681 119.897 26.6768C119.897 26.328 119.684 25.9405 119.413 26.0858C118.987 26.3231 118.231 26.1197 118.168 26.8947C118.158 27.3937 118.754 27.0546 118.938 27.3888L118.928 27.4034ZM117.369 21.6874C118.042 22.3268 118.851 22.0604 119.587 21.8957C120.256 21.7456 120.198 21.1643 120.018 20.5685C119.297 20.7574 118.628 21.2999 117.848 20.8203C117.754 20.7549 117.635 20.7389 117.527 20.7774C117.419 20.8159 117.337 20.904 117.306 21.0141C117.281 21.2418 117.272 21.576 117.369 21.6874ZM115.106 18.1804L116.133 18.379C116.593 18.1896 117.093 18.1196 117.587 18.1755C117.882 18.1755 117.926 17.9575 117.921 17.6911C117.916 17.4247 117.921 17.3036 117.674 17.2503C116.802 17.042 115.935 17.6233 115.053 17.2503C114.922 17.197 114.85 17.4392 114.859 17.5991C114.869 17.7589 114.811 18.1222 115.126 18.1804H115.106ZM114.85 22.7773C114.85 22.4867 114.85 22.1767 114.559 22.0749C113.871 21.8231 113.164 22.041 112.471 22.1089C112.21 22.1331 112.21 22.5303 112.219 22.8161C112.229 23.1019 112.452 23.16 112.675 23.1649C112.898 23.1697 113.261 23.1649 113.552 23.1649C113.842 23.1649 114.065 23.1649 114.317 23.1649C114.569 23.1649 114.864 23.1794 114.869 22.7773H114.85ZM111.352 27.447C112.097 27.6635 112.875 27.7456 113.648 27.6892C114.133 27.6262 114.617 27.4276 114.569 26.9238C114.54 26.3474 113.978 26.5169 113.6 26.4878H111.483C111.188 26.4878 110.887 26.4636 110.902 26.9722C110.931 27.2968 111.071 27.3743 111.372 27.447H111.352ZM107.598 20.1034C107.836 20.1858 108.083 20.2778 108.339 20.3747C108.887 19.9775 109.516 20.1083 110.127 20.0792C110.432 20.0792 110.456 19.8612 110.461 19.5948C110.466 19.3284 110.34 18.9215 110.088 19.0087C109.269 19.2993 108.402 18.8827 107.627 19.2509C107.409 19.3526 106.973 19.2024 106.969 19.6868C106.964 20.1713 107.375 20.0211 107.618 20.1034H107.598ZM104.207 23.8672C104.569 23.8878 104.931 23.8878 105.293 23.8672H106.489C106.775 23.8672 106.973 23.8091 106.973 23.4216C106.973 23.1842 106.973 22.9372 106.654 22.9372C105.796 22.8645 104.939 22.7337 104.086 22.7434C103.894 22.7369 103.709 22.8204 103.586 22.9695C103.464 23.1185 103.418 23.3161 103.461 23.5039C103.534 24.0804 103.936 23.8382 104.207 23.8672ZM104.886 16.204C105.099 16.1262 105.255 15.9423 105.297 15.7196C105.288 15.408 105.046 15.1532 104.735 15.1286C104.193 15.085 103.646 15.1286 103.098 15.1286H101.679C101.301 15.1286 101.035 15.303 101.049 15.7487C101.04 15.9021 101.098 16.052 101.209 16.1583C101.32 16.2647 101.473 16.3168 101.626 16.3009C102.72 16.2718 103.805 16.267 104.89 16.204H104.886ZM101.064 21.048C101.457 21.1343 101.868 21.0758 102.221 20.8833C102.43 20.7332 102.851 20.8833 102.769 20.3699C102.751 20.2216 102.674 20.0867 102.555 19.9957C102.437 19.9046 102.287 19.8649 102.139 19.8855H100.962C100.541 20.0841 99.5669 19.4543 99.5669 20.457C99.5766 21.2418 100.497 21.0093 101.069 21.0238L101.064 21.048ZM99.7171 13.4429C99.6832 13.0215 99.5136 12.7357 99.1261 12.7793C98.2505 12.8948 97.3958 13.1346 96.5878 13.4914C96.4958 13.5301 96.457 13.7336 96.4134 13.8207C96.5152 14.2373 96.7525 14.5086 97.048 14.3681C97.7455 14.0387 98.5012 14.2373 99.2084 13.9709C99.5039 13.8643 99.7558 13.8595 99.7219 13.4187L99.7171 13.4429ZM93.1486 24.6907C93.1728 24.836 93.3472 24.9814 93.633 25.0589C94.9409 25.4125 96.2487 25.7661 97.5421 26.1633C97.8909 26.2699 98.0265 26.0858 98.1282 25.8387C98.1964 25.7158 98.2078 25.5693 98.1595 25.4373C98.1111 25.3052 98.0078 25.2007 97.8763 25.1509C96.4231 24.8021 95.0426 24.0755 93.5167 24.1094C93.2697 24.124 93.105 24.2112 93.1486 24.6907ZM92.6932 19.9484C93.4681 20.1871 94.2577 20.3748 95.0571 20.5103C95.3381 20.5636 95.464 20.2827 95.5415 19.9872C95.5896 19.8226 95.5638 19.6452 95.4708 19.5011C95.3779 19.357 95.2269 19.2604 95.0571 19.2364C94.3305 19.0765 93.6039 19.0087 92.8337 18.9021C92.6254 18.9554 92.3009 18.781 92.2621 19.217C92.2317 19.5341 92.4157 19.8328 92.7126 19.9484H92.6932ZM91.4144 15.5888C92.464 15.918 93.5552 16.0958 94.6551 16.1168C94.7702 16.1292 94.8847 16.0888 94.9666 16.0069C95.0485 15.925 95.0889 15.8105 95.0765 15.6954C95.0765 15.429 95.1346 15.148 94.7519 15.085C94.3693 15.0221 94.0253 14.6975 93.5409 14.9688C92.9936 14.7847 92.3542 14.9252 91.739 14.6588C91.5258 14.5667 91.0463 14.3875 90.9349 14.9155C90.8816 15.2982 91.1286 15.4871 91.4338 15.6033L91.4144 15.5888ZM87.3697 24.6326C87.8153 25.3156 88.6243 24.8506 89.0215 25.2478C89.472 25.3398 89.5979 25.1461 89.6851 24.8506C89.7307 24.7077 89.7128 24.552 89.6359 24.4233C89.559 24.2945 89.4305 24.2049 89.2831 24.1772C88.7807 24.1402 88.2967 23.9733 87.8783 23.6928C87.748 23.6126 87.5907 23.589 87.4426 23.6273C87.2945 23.6657 87.1684 23.7629 87.0936 23.8963C86.8223 24.2935 87.2243 24.4195 87.3697 24.6326ZM88.6872 19.2557C88.8277 19.2557 89.2831 19.1637 89.1038 18.7471C88.9973 18.4952 88.9391 18.1368 88.5225 18.1755C88.106 18.2143 87.5537 18.1755 87.0984 18.1755C86.6431 18.1755 86.2216 18.1755 85.7808 18.1755C85.5435 18.1755 85.2674 18.1029 85.2189 18.534C85.1829 18.6832 85.209 18.8406 85.2912 18.9703C85.3733 19.0999 85.5046 19.1907 85.6549 19.2218C86.6526 19.4375 87.6831 19.454 88.6872 19.2703V19.2557ZM83.0391 21.7262C83.5865 21.8618 84.129 22.0217 84.6812 22.1573C85.1075 22.259 85.3739 22.0943 85.4417 21.6002C85.5096 21.1061 85.2771 20.9705 84.8798 21.019C84.2598 21.0916 83.7124 20.5878 83.0779 20.7816C82.7243 20.9075 82.1091 20.5297 82.0316 20.9754C81.9541 21.5663 82.5935 21.6341 83.0391 21.7262ZM81.2468 16.6351C81.1548 15.8988 80.5493 15.8795 80.0358 15.7826C79.7597 15.8891 79.2317 15.5937 79.3286 16.1943C79.44 16.887 80.0213 17.1195 80.6026 17.2116C80.7688 17.2743 80.9561 17.241 81.0905 17.1248C81.225 17.0086 81.2849 16.8281 81.2468 16.6545V16.6351ZM80.2393 24.2838C80.5313 24.1821 80.7424 23.9262 80.7867 23.6202C80.7867 23.3102 80.559 23.1358 80.278 23.1358C79.2463 23.097 78.2339 22.6514 77.1004 22.9905C77.5557 23.78 79.6096 24.5938 80.2393 24.308V24.2838ZM71.0357 15.148C70.7499 15.085 70.4834 14.8719 70.1298 15.0269C69.7762 15.1819 68.9479 14.993 68.9963 15.7487C69.0448 16.5043 69.7956 16.1313 70.0717 16.2331C70.4011 16.2331 70.5561 16.0006 70.7256 16.1798C71.055 16.5334 71.3602 16.5915 71.5491 16.0635C71.6201 15.88 71.606 15.6744 71.5106 15.5023C71.4152 15.3301 71.2483 15.2092 71.055 15.1722L71.0357 15.148ZM73.9421 18.2482C74.5912 18.4468 75.2306 18.6599 75.8797 18.8391C76.1316 18.907 76.2962 18.6987 76.3641 18.4758C76.423 18.3501 76.429 18.206 76.3808 18.0757C76.3325 17.9455 76.234 17.8401 76.1073 17.7832C75.4679 17.5555 74.8043 17.3956 74.1697 17.2116C73.9227 17.26 73.6127 17.105 73.5545 17.5313C73.5497 17.9043 73.6272 18.1658 73.9711 18.2724L73.9421 18.2482ZM70.1347 22.1234C70.871 22.4722 71.6508 22.7144 72.4162 22.9953C72.8183 22.9081 73.2397 22.9323 73.3075 22.4189C73.3995 21.7165 72.8231 22.0459 72.5518 21.9345C71.899 21.7487 71.2662 21.4989 70.6627 21.1885C70.5191 21.067 70.3299 21.0138 70.144 21.0426C69.9582 21.0714 69.7939 21.1794 69.6939 21.3387C69.4807 21.7601 69.9457 22.0556 70.1589 22.1573L70.1347 22.1234ZM67.7127 18.4032C68.1698 18.6011 68.6715 18.673 69.1659 18.6115C69.3838 18.5146 69.8828 18.8973 69.999 18.3596C70.1153 17.8219 69.597 17.7928 69.2579 17.6039C68.7891 17.3787 68.257 17.3222 67.7514 17.4441C67.4705 17.4828 67.2379 17.6039 67.2234 17.9285C67.2089 18.253 67.5044 18.3354 67.7563 18.4371L67.7127 18.4032ZM64.3218 20.2681C64.753 20.302 64.7723 20.0598 64.753 19.8176C64.7443 19.2807 64.3705 18.8189 63.8471 18.6987C63.6001 18.6405 63.1787 19.0523 63.2755 19.3865C63.4693 19.9533 64.0845 20.0211 64.3606 20.302L64.3218 20.2681ZM60.2577 23.8139C60.4149 23.8352 60.5725 23.7783 60.6797 23.6614C60.7869 23.5445 60.8301 23.3826 60.7954 23.2278C60.7518 22.2057 59.8654 22.4915 59.3422 22.2106C59.1145 22.0846 58.6447 22.2106 58.7076 22.5642C58.9111 23.4652 59.8218 23.378 60.2965 23.8479L60.2577 23.8139ZM58.9547 18.2433C59.2578 18.3319 59.5851 18.2607 59.824 18.0541C60.0628 17.8476 60.1805 17.534 60.1366 17.2212C59.9719 16.9355 59.8121 16.3832 59.347 16.5915C58.698 16.887 57.5402 16.6303 57.5644 17.788C57.6274 18.6841 58.5332 18.1997 58.9934 18.2724L58.9547 18.2433Z" fill="#A3A3A3"/>
<path d="M175.279 17.6533C173.826 17.0333 171.404 17.3578 169.694 16.9315C168.09 16.5343 166.458 15.8755 164.85 15.4783C161.367 14.6113 157.816 13.6328 154.193 12.8626C147.808 11.5014 135.354 8.60952 138.692 19.8283C139.273 21.7659 140.286 23.5388 140.944 25.4037C141.729 27.6174 141.269 28.7945 140.862 30.9647C140.378 33.5611 140.508 40.9579 144.514 40.9097C145.454 40.9097 147.857 38.7054 148.922 38.2937C150.444 37.7027 152.086 37.257 153.655 36.729C157.245 35.5132 160.02 35.6488 163.886 35.8184C165.576 35.891 167.276 36.6079 168.953 36.0073C166.046 34.278 162.432 33.1735 159.7 31.0373C157.525 29.3322 153.205 27.2348 152.052 24.7401C153.989 23.7713 157.487 23.8632 159.7 23.6162C161.585 23.4079 163.353 23.3111 165.058 22.4683C166.984 21.5252 169.27 21.2576 171.355 20.7583C172.048 20.5694 178.108 18.5204 174.799 18.1474L175.279 17.6533Z" fill="white"/>
<path d="M36.2456 21.6779C36.2892 21.3824 36.4103 21.2565 36.6622 21.2759C37.9362 21.3873 39.1714 20.9368 40.455 21.0094C41.1477 21.0482 41.1671 21.4502 41.0605 21.925C40.4841 24.4487 40.9782 26.6188 42.7899 28.5225C40.9104 28.0381 38.8711 28.571 37.1466 27.1371C36.0567 26.2264 35.6159 25.6549 35.8193 24.1774C35.9307 23.3394 36.1245 22.5159 36.2456 21.6779Z" fill="#F9C2CF"/>
<path d="M20.3334 21.2748C20.721 21.2457 21.3022 21.1827 21.278 21.7592C21.278 22.728 22.1451 22.9653 22.4503 23.6629C22.6053 24.0262 23.0219 23.9438 23.2883 23.7162C23.6516 23.4062 23.2253 23.2705 23.1091 23.0816C22.9103 22.7624 22.6952 22.4536 22.4648 22.1564C21.8641 21.3862 22.242 21.2506 22.9492 21.2554C24.5235 21.2554 26.0978 21.2942 27.6673 21.2554C28.3745 21.2554 28.6603 21.4395 28.5828 22.2242C28.4174 23.4793 28.7229 24.7512 29.4402 25.7943C22.3921 24.1909 15.4604 22.8878 8.69811 20.7419C10.6579 20.978 12.6291 21.1058 14.603 21.1246C16.5164 21.0859 18.4201 21.4153 20.3334 21.2748Z" fill="#F9C2CF"/>
<path d="M29.4153 22.3382C29.5268 21.6552 29.7447 21.2919 30.3841 21.2822C31.8034 21.2822 33.2276 21.2822 34.6517 21.2822C35.2524 21.2822 35.4122 21.5196 35.3057 22.251C35.0586 23.8835 34.2884 25.5692 35.7319 27.2791C34.1362 26.8529 32.5193 26.5102 30.8879 26.2522C30.7839 26.2436 30.6886 26.1906 30.6264 26.1069C30.0305 24.9007 29.1683 23.8544 29.4153 22.3382Z" fill="#F9C2CF"/>
<path d="M0.816711 18.6647C1.00078 18.6647 1.18484 18.6647 1.36407 18.6647C3.6214 18.5339 5.81573 19.0619 8.03914 19.3381C10.6694 19.6626 13.3336 19.7159 15.9833 19.8225C18.2794 19.9339 20.5754 20.0404 22.8715 20.055C27.6283 20.0889 32.39 20.1131 37.142 20.055C38.6171 20.0638 40.0856 19.8582 41.5016 19.4446C45.4349 18.1852 49.5863 17.9914 53.4373 16.3154C55.9561 15.2303 58.7221 15.1577 61.3427 14.4262C63.6304 13.7918 65.9596 13.3175 68.3132 13.0069C70.4446 12.7211 72.5372 12.1883 74.6831 11.9897C76.5504 11.8361 78.4072 11.5741 80.244 11.2049C82.5934 10.7205 84.9718 10.7593 87.326 10.4541C89.3953 10.234 91.4744 10.1192 93.5554 10.1102C97.1012 10.0182 100.662 9.5386 104.188 9.75658C106.305 9.88737 108.383 9.39813 110.485 9.71783C111.784 9.90996 113.106 9.86896 114.39 9.59673C116.952 9.04936 119.505 9.55313 122.058 9.50954C124.61 9.46594 127.294 10.1005 129.963 10.1005C131.944 10.1005 133.925 10.3088 135.911 10.3524C136.469 10.3524 136.827 11.2728 137.491 10.6769C136.706 9.05905 135.427 7.74632 134.981 5.8959C134.594 4.29253 134.4 2.7376 135.437 1.37159C136.24 0.319462 137.569 -0.187361 138.869 0.0631363C140.169 0.313633 141.215 1.27827 141.569 2.55353C142.17 4.46192 142.57 6.42802 142.761 8.41963C142.76 9.19646 143.37 9.83659 144.146 9.87284C144.994 10.0278 145.168 9.43688 144.926 8.06118C144.665 6.54984 144.233 5.02398 144.757 3.46905C145.28 1.91412 147.804 0.993755 148.559 2.08366C149.412 3.3092 149.954 4.68005 149.407 6.30764C149.019 7.46445 148.561 8.59678 148.036 9.69846C147.789 10.2168 147.745 10.4154 148.37 10.6673C149.99 11.3381 151.671 11.8523 153.389 12.2028C156.329 12.8228 159.269 13.4526 162.2 14.1404C164.583 14.7023 166.981 15.1964 169.359 15.7729C171.297 16.2573 173.273 16.3154 175.172 16.9354C175.806 17.1378 176.497 17.0472 177.057 16.6884C177.677 16.3105 178.994 19.0038 178.306 19.2121C177.72 19.3816 177.236 19.7789 176.611 19.866C175.051 20.0792 173.797 20.7767 173.288 22.5739C173.126 23.0801 172.836 23.5357 172.445 23.8963C171.961 24.3371 171.389 24.6616 170.842 23.9399L170.071 22.9468C169.865 23.2828 169.638 23.6063 169.393 23.9156C168.628 24.7682 167.969 24.8845 167.267 24.0271C166.405 22.9904 165.402 23.0583 164.312 23.2617C163.503 23.4167 162.709 23.625 161.89 23.8285C159.347 24.4679 156.828 25.2817 154.202 25.5093C153.888 25.5336 153.582 25.6014 153.544 25.9937C153.505 26.3861 153.815 26.3813 154.028 26.5314C156.082 27.9459 158.305 29.0261 160.422 30.3194C162.074 31.327 162.079 31.3173 163.498 30.0385C164.574 29.0697 164.84 29.1133 165.334 30.5907C165.513 31.1284 165.78 31.327 166.201 31.2156C166.957 31.0121 167.223 31.482 167.616 32.0439C168.308 33.0127 168.512 34.5144 169.912 34.8486C170.36 34.9693 170.796 35.1315 171.215 35.333C171.578 35.4977 172.183 35.5413 171.917 36.2146C171.709 36.7523 167.247 36.5295 165.508 36.5198C164.54 36.5198 161.347 36.4132 160.747 36.4762C159.139 36.6506 152.139 37.7889 150.468 38.6366C147.435 40.177 144.103 40.986 141.414 43.4467C140.082 44.6674 138.716 45.6895 137.738 47.3219C135.965 50.4215 134.532 53.7039 133.465 57.1117C132.93 58.7967 132.557 60.5291 132.351 62.2851C132.143 63.874 132.327 65.4337 132.245 67.0032C132.21 67.9271 132.392 68.8462 132.777 69.6868C133.543 71.3919 134.855 72.3607 136.309 73.2229C136.725 73.47 137.253 73.78 136.827 74.463C136.459 75.0539 135.974 75.2719 135.374 74.8069C135.156 74.6325 134.938 74.4484 134.7 74.6616C134.463 74.8747 134.73 75.1072 134.822 75.2622C135.199 75.8871 134.943 76.3667 134.57 76.8317C134.197 77.2967 133.799 76.8705 133.426 76.7639C133.053 76.6573 132.748 76.2262 132.419 76.8365C131.852 77.9022 131.363 77.3209 130.767 76.7833C130.171 76.2456 130.142 75.2671 129.314 74.8457C129.571 75.8968 128.83 75.9743 128.272 76.1874C127.958 76.3134 127.473 76.3764 127.623 76.7687C128.108 77.9604 127.556 78.1735 126.655 78.1154C126.354 78.1154 126.17 78.3091 126.01 78.5029C125.884 78.6897 125.682 78.8115 125.458 78.8358C125.234 78.86 125.011 78.7843 124.848 78.6288C124.397 78.2946 124.029 78.033 123.651 78.8468C123.404 79.3797 122.823 79.0067 122.707 78.624C122.348 77.3985 121.52 76.5168 120.866 75.5141C119.413 73.2617 118.885 70.5635 117.96 68.0737C117.16 65.9424 116.705 63.6608 116.022 61.481C115.247 59.059 114.341 56.7242 113.997 54.1859C113.91 53.5223 113.576 53.4399 113.086 53.4932C110.325 53.7887 107.598 54.3119 104.818 54.462C103.287 54.5541 97.9247 54.9997 96.7863 54.7188C94.2578 54.0987 92.7561 54.5928 91.7486 56.5014C91.4143 57.1359 91.2109 57.848 90.9106 58.5019C89.4115 61.5722 88.7323 64.9781 88.939 68.3886C89.0408 69.7497 90.0725 71.731 91.55 71.6922C92.0344 71.6922 92.1555 72.0555 92.1845 72.3268C92.233 72.753 90.4358 73.1357 89.9369 72.4624C89.7189 74.4339 89.7189 74.4339 88.2706 73.7122C87.9993 73.5765 87.7862 73.4651 87.6166 73.9544C87.3987 74.6422 86.488 74.8263 86.1973 74.1869C85.9067 73.5475 85.4029 73.3682 84.9815 73.0049C83.4653 71.6874 82.9954 69.7062 82.419 67.9042C81.0336 63.5446 80.1375 58.996 78.0013 54.9319C77.8802 54.7042 77.9431 54.4087 77.5701 54.4039C77.1972 54.3991 77.139 54.5395 77.0082 54.8205C76.6885 55.5132 76.2913 56.1623 75.9813 56.855C74.3392 60.6091 73.1427 64.5521 71.9026 68.4806C71.6168 69.4975 71.5118 70.5567 71.5926 71.6099C71.5926 72.133 73.8548 72.9177 74.7073 72.6949C75.2159 72.5593 75.3564 73.3489 75.2741 73.4264C73.2783 74.2741 73.8209 74.8214 74.1842 76.0712C73.1621 75.8774 71.83 76.0712 72.1933 77.3694C71.8367 77.5239 71.4206 77.4113 71.1906 77.0981C71.0937 76.977 66.2981 74.8456 66.0268 73.436C65.8866 72.8821 65.7135 72.337 65.5085 71.8036C65.0241 70.2341 64.1764 68.8052 63.8906 67.1582C63.5322 65.1092 63.2318 63.0505 62.7959 61.0208C62.1516 58.003 61.8852 54.9125 61.2749 51.8947C60.6891 48.8123 60.3329 45.6906 60.2092 42.5554C60.1686 41.0276 60.2236 39.4988 60.3739 37.9778C60.5531 35.58 61.0569 33.2404 61.2022 30.7118C60.2092 30.7118 55.6946 30.7118 54.4545 30.7651C51.4657 30.9007 48.5448 29.8738 45.5463 29.9465C43.8267 29.99 40.5037 29.462 39.099 29.278C38.7793 29.2344 38.4741 29.123 38.1544 29.0503C35.0058 28.3382 31.8233 27.7618 28.7182 26.8753C26.4752 26.2482 24.2021 25.7341 21.9076 25.3349C18.3763 24.7052 14.9806 23.4942 11.4348 22.9614C9.57953 22.6853 7.84537 21.6486 5.97073 21.3822C4.0961 21.1158 2.49272 20.0259 0.642319 19.6626C0.404953 19.6142 -0.113358 19.6626 0.0222778 19.0813C0.143372 18.689 0.467941 18.6502 0.816711 18.6647ZM171.738 22.4431C172.188 22.3656 172.266 21.8957 172.363 21.5663C172.46 21.2369 172.043 21.2078 171.927 21.3144C171.631 21.5808 171.103 21.3725 170.958 21.8812C171.166 22.1766 171.336 22.5109 171.738 22.4382V22.4431ZM164.356 31.3415C164.273 31.3028 163.871 31.7048 163.871 31.8744C163.915 32.4557 164.404 32.6155 165.058 32.8771C164.753 32.2183 164.913 31.5886 164.356 31.3415ZM130.128 62.0623C130.409 62.6533 130.612 62.4789 130.893 62.1301C131.178 61.7178 131.346 61.2355 131.377 60.735C131.817 58.1838 132.55 55.692 133.562 53.3092C134.138 51.7116 134.834 50.1603 135.645 48.6686C136.034 48.2026 136.21 47.5944 136.129 46.9926C133.528 48.9059 130.879 50.5626 129.285 53.4981C127.672 56.3217 126.692 59.462 126.412 62.7017C127.091 61.9848 127.643 61.8879 128.321 62.5854C128.713 62.9875 128.985 62.5273 129.086 62.1592C129.358 61.1807 129.764 61.2582 130.147 62.0671L130.128 62.0623ZM126.151 72.8548C126.277 73.6443 126.635 74.3516 127.662 74.1481C128.098 74.0609 128.602 74.3467 129.27 74.5163L125.88 69.4688C125.691 70.7234 126.001 71.7939 126.17 72.8548H126.151ZM79.8759 56.201C80.4188 57.2947 80.8395 58.4448 81.1305 59.6306C81.2661 60.3378 81.518 60.89 82.3318 60.9724C82.637 61.0063 82.884 61.4568 83.2037 61.6118C83.5234 61.7668 83.9255 62.4983 84.1725 61.4665C84.2452 61.1904 84.8555 60.9821 85.2479 61.4665C85.7323 62.0574 86.0569 61.9509 86.3184 61.1855C86.5364 60.5461 87.0499 60.1828 87.5101 60.9046C87.8927 61.5004 87.9945 61.1516 88.256 60.8561C89.3944 59.6354 89.6366 57.9013 90.4358 56.4965C90.6005 56.2059 90.6587 55.8426 90.8379 55.5616C91.0171 55.2807 91.3223 54.9852 91.1673 54.6606C90.9687 54.2247 90.5133 54.4814 90.1985 54.4136C87.1425 54.5463 84.0817 54.5172 81.0288 54.3264C80.9949 54.3264 80.9658 54.2634 80.9367 54.2634C79.159 54.2489 79.1009 54.3797 79.8953 56.201H79.8759ZM61.2652 29.307C61.8029 29.2586 62.3502 29.1327 62.5973 29.8689C62.8153 30.5277 61.9337 34.3545 61.7447 35.6285C61.3943 37.7087 61.2322 39.8163 61.2603 41.9257C61.3381 45.2594 61.7339 48.5781 62.4423 51.8366C62.8163 53.7322 63.0864 55.6468 63.2512 57.5719C63.3917 58.8507 63.8034 60.0472 64.0263 61.2969C64.0388 61.4923 64.1512 61.6674 64.3237 61.76C64.4961 61.8526 64.7042 61.8497 64.874 61.7523C65.712 61.3938 66.2545 61.4471 66.395 62.5758C66.4717 62.8326 66.6604 63.0409 66.9085 63.1425C67.2621 63.2733 67.2524 62.818 67.3686 62.6242C68.0662 61.4374 68.4489 61.4277 69.3063 62.6969C69.7131 62.2754 69.9844 61.2727 70.7595 61.9509C71.2099 62.3481 71.0598 63.2491 71.7283 63.5639C73.1206 61.2769 74.1915 58.8092 74.9108 56.2301C75.1917 55.3243 75.8796 54.6219 75.9183 53.5659C75.9368 53.2775 76.1061 53.0202 76.3636 52.8889C76.6211 52.7577 76.9287 52.772 77.1729 52.9265C77.3353 53.0161 77.5253 53.042 77.7058 52.9991C80.68 52.2774 83.5961 53.4206 86.5703 53.2946C89.1812 53.1832 91.8115 53.2946 94.437 53.4012C96.641 53.5078 98.879 53.6967 101.131 53.3431C102.207 53.1735 103.403 53.3431 104.546 53.2462C107.638 52.9999 110.712 52.5647 113.75 51.9431C114.525 51.7784 114.661 52.1369 114.918 52.7036C115.455 53.8759 115.286 55.1983 115.697 56.4093C116.54 58.904 117.238 61.452 118.027 63.966C118.124 64.2712 118.216 64.9348 118.798 64.3487C119.083 64.0483 119.379 64.3487 119.524 64.5376C120.396 65.6033 120.595 64.7798 120.832 64.0532C120.885 63.8788 120.856 63.4864 120.963 63.5688C122.208 64.2615 122.624 62.5322 123.593 62.5515C124.078 62.5515 124.223 62.2076 124.325 61.8588C124.518 61.2001 124.63 60.5122 124.809 59.8437C124.886 59.5482 124.954 59.0978 125.143 59.0154C126.892 58.2258 126.756 56.2107 127.357 54.7866C128.404 52.2341 130.109 50.0045 132.298 48.3247C134.134 46.9102 136.105 45.5781 137.709 43.965C139.922 41.7223 142.654 41.0005 145.241 39.7992C146.811 39.0726 148.273 38.128 149.882 37.4595C152.277 36.5401 154.768 35.8902 157.307 35.5219C159.923 35.0666 162.549 35.4057 165.169 35.2797C165.412 35.2797 165.804 35.4783 165.852 34.9552C165.891 34.6764 165.707 34.4155 165.431 34.3594C163.687 33.875 162.214 32.7269 160.655 31.8405C157.986 30.3146 155.418 28.5756 152.648 27.2677C152.07 26.9926 151.626 26.4969 151.417 25.892C151.034 24.9474 151.369 24.4388 152.318 24.3855C154.335 24.2622 156.334 23.9377 158.286 23.4167C162.089 22.3946 165.94 21.5566 169.752 20.5587C171.379 20.1325 172.959 19.5076 174.557 18.9699C174.78 18.8972 175.114 18.9699 175.085 18.5533C175.056 18.1367 174.843 17.9527 174.509 17.9963C173.278 18.1561 168.371 17.0275 167.097 16.6206C164.947 15.9424 156.537 14.2276 155.21 14.0726C152.924 13.8062 150.904 12.6921 148.719 12.135C147.266 11.7669 145.847 11.1032 144.282 11.326C143.798 11.3939 139.53 11.3987 138.518 12.2948C138.236 12.5361 137.834 12.5767 137.51 12.3966C135.341 11.719 133.083 11.3728 130.811 11.3696C125.531 11.2631 120.27 10.6043 114.98 10.8513C112.927 10.9482 110.873 10.9385 108.819 10.9918C108.305 10.9918 107.695 10.9531 108.087 11.8976C108.204 12.1786 108.087 12.6582 107.69 12.4741C106.973 12.1641 106.237 12.4402 105.549 12.227C105.225 12.1253 104.396 12.3336 104.658 11.326C104.755 10.9531 104.28 10.8416 103.999 10.8707C101.766 11.2437 99.5038 10.9821 97.2611 11.2292C95.8746 11.3544 94.4823 11.4045 93.0904 11.3793C91.6372 11.3793 90.1161 11.3793 88.7695 12.3481C88.1797 12.7784 87.4649 13.003 86.735 12.9875C86.3523 12.9875 85.8825 13.1183 85.9212 12.4014C85.9212 12.0623 85.6936 12.0478 85.4707 12.043C83.8722 11.9608 82.2696 12.0632 80.6945 12.3481C80.0212 12.4935 79.7693 13.3169 78.9749 13.3169C78.3355 13.3169 77.7397 13.6173 77.1293 13.1086C76.7014 12.8444 76.1712 12.8064 75.71 13.0069C72.7164 13.8013 69.626 13.9999 66.6275 14.7169C66.6275 15.5016 67.233 16.3105 66.3369 16.9354C65.9978 17.1679 65.7459 17.4198 65.3923 17.0323C64.9079 16.5479 64.2297 16.1071 64.8401 15.1625C63.973 15.0947 63.227 14.9881 62.7184 15.8116C62.6274 15.9893 62.4302 16.0859 62.234 16.049C60.5725 15.7196 59.003 16.4026 57.39 16.5334C56.581 16.6109 55.8593 17.1825 55.0212 17.2357C54.7984 17.2357 54.7355 17.3908 54.6918 17.6136C54.3625 19.309 53.9217 20.9753 54.1735 22.7579C54.4351 24.618 55.6267 25.8629 56.4744 27.3694C57.6419 29.5056 59.4099 29.4766 61.2846 29.307H61.2652ZM53.9604 29.4863C54.2898 29.6994 54.8178 29.5589 55.2925 29.588C55.6994 29.3749 56.4066 29.9416 56.6004 29.2731C56.7651 28.7015 56.208 28.251 55.8253 27.8199C54.0203 25.9595 53.0498 23.4449 53.1369 20.8542C53.1744 20.273 53.1204 19.6894 52.9771 19.1249C52.8269 18.5921 52.8027 18.0205 52.1584 18.2094C51.6304 18.3644 50.8941 18.4128 50.9474 19.3671C51.0734 21.5421 51.0152 23.7267 51.4318 25.8775C51.7509 27.3748 52.6701 28.6757 53.9749 29.4766L53.9604 29.4863ZM50.5696 29.1859C50.9023 29.3293 51.2716 29.3649 51.6256 29.2877C51.4076 27.5874 50.5405 26.1245 50.4776 24.3904C50.4146 22.8403 50.1966 21.2999 49.9931 19.7595C49.9011 19.0135 49.4748 18.6502 48.7967 18.999C48.3559 19.2266 47.8811 19.0958 47.4307 19.3187C47.1352 19.464 46.8784 19.6335 46.8445 19.8951C46.5297 22.2784 45.992 24.7391 47.8618 26.7155C48.4951 27.2869 48.9664 28.0155 49.2278 28.8275C49.4119 29.3555 50.153 28.9922 50.5987 29.1859H50.5696ZM45.6771 28.6289C46.4522 28.6289 47.2127 29.0697 48.0313 28.7403C47.9296 27.8006 47.3386 27.1175 46.8203 26.483C45.8457 25.3504 45.4713 23.8202 45.8128 22.3656C45.8128 22.2493 45.866 22.1379 45.8757 22.0216C46.1228 19.9096 45.9145 19.711 44.0253 20.2487C43.817 20.3069 43.5894 20.2487 43.3811 20.3262C42.514 20.5781 41.7002 20.6459 41.8552 22.1718C42.0005 23.5814 41.613 25.0395 42.4026 26.3667C43.1922 27.694 44.1367 28.6434 45.7062 28.6337L45.6771 28.6289ZM37.1178 27.1321C38.8374 28.5853 40.8816 28.0137 42.761 28.5175C40.9494 26.6138 40.4553 24.4436 41.0317 21.9199C41.1383 21.4355 41.1189 21.0431 40.4262 21.0044C39.1474 20.9317 37.9073 21.3822 36.6334 21.2708C36.3815 21.2708 36.2604 21.3774 36.2168 21.6729C36.0957 22.5109 35.9019 23.3344 35.7857 24.1724C35.6161 25.6547 36.0521 26.2262 37.1468 27.1369L37.1178 27.1321ZM30.8205 26.2262C32.452 26.4842 34.0688 26.827 35.6646 27.2532C34.2113 25.5481 34.9912 23.8624 35.2383 22.2251C35.3448 21.5033 35.185 21.2563 34.5843 21.2563C33.1602 21.2563 31.7409 21.2563 30.3168 21.2563C29.7016 21.2563 29.4836 21.6293 29.348 22.3123C29.1009 23.8285 29.968 24.8748 30.5202 26.0616C30.5899 26.1724 30.7139 26.2372 30.8448 26.2311L30.8205 26.2262ZM29.4012 25.7951C28.6839 24.752 28.3785 23.4802 28.5439 22.2251C28.6262 21.4307 28.3356 21.2224 27.6283 21.2563C26.054 21.3096 24.4797 21.2805 22.9102 21.2563C22.2176 21.2563 21.8397 21.3871 22.4259 22.1573C22.6563 22.4545 22.8713 22.7633 23.0701 23.0825C23.1864 23.2714 23.6126 23.407 23.2493 23.717C22.9829 23.9447 22.5663 24.0271 22.4113 23.6638C22.1062 22.9662 21.2342 22.724 21.2391 21.7601C21.2391 21.1739 20.6869 21.2369 20.2945 21.2757C18.3569 21.4161 16.4774 21.0867 14.5543 21.1303C12.5805 21.1115 10.6092 20.9837 8.64948 20.7477C15.4456 22.8742 22.3774 24.1966 29.4255 25.8L29.4012 25.7951Z" fill="black"/>
<path d="M164.041 5.4646C164.365 5.4646 164.428 5.949 164.525 6.26386C164.738 7.11641 165.009 7.95927 165.208 8.81181C165.407 9.66436 165.634 10.5847 165.809 11.4954C165.866 11.6608 165.844 11.8433 165.75 11.9907C165.655 12.138 165.498 12.234 165.324 12.2511C165.19 12.2732 165.052 12.2375 164.945 12.1526C164.838 12.0677 164.772 11.9417 164.762 11.8054C164.375 10.0034 164.007 8.19662 163.643 6.44793C163.639 6.00713 163.556 5.48398 164.041 5.4646Z" fill="black"/>
<path d="M163.61 12.2472C163.309 12.3198 163.125 12.1261 162.99 11.879C162.667 11.2332 162.344 10.5873 162.021 9.94144C161.599 9.05498 161.163 8.17337 160.795 7.25785C160.698 7.01565 160.626 6.57485 160.921 6.39562C161.217 6.21639 161.347 6.63782 161.556 6.79767C162.011 7.15128 162.084 7.71319 162.326 8.17337C162.902 9.26812 163.387 10.4113 163.871 11.4625C163.789 11.8015 163.992 12.1552 163.61 12.2472Z" fill="black"/>
<path d="M46.8348 13.2383C46.9719 13.1741 47.1311 13.1778 47.2652 13.2481C47.3992 13.3185 47.4927 13.4474 47.5178 13.5967C47.7855 14.2589 48.0895 14.9057 48.4285 15.5343C48.5104 15.643 48.5363 15.7841 48.4981 15.9148C48.4599 16.0455 48.3623 16.1505 48.2347 16.198C48.0119 16.3239 47.5856 16.3772 47.542 16.1544C47.387 15.3309 46.7088 14.8029 46.5732 14.0133C46.6458 13.7469 46.3988 13.34 46.8348 13.2383Z" fill="black"/>
<path d="M46.0113 31.8989C46.4076 31.7365 46.8137 31.599 47.2272 31.4872C47.5978 31.3928 47.9772 31.606 48.0894 31.9716C48.2493 32.485 47.8763 32.6788 47.5372 32.7999C47.1442 32.9181 46.7447 33.0135 46.3407 33.0857C45.929 33.1196 45.5899 33.0857 45.4979 32.64C45.4058 32.1944 45.648 32.02 46.0113 31.8989Z" fill="black"/>
<path d="M40.2082 13.9445C40.4795 14.7292 40.804 15.4946 41.0317 16.2987C41.0802 16.4682 40.8573 16.7831 40.6829 16.9478C40.5086 17.1125 40.3245 16.8461 40.2567 16.6862C39.9224 15.8918 39.6124 15.0828 39.3315 14.3659C39.2857 14.099 39.4303 13.8358 39.6802 13.7314C39.8643 13.6587 40.0968 13.6345 40.2082 13.9445Z" fill="black"/>
<path d="M30.1277 15.038C30.6121 15.7937 31.0965 16.5542 31.5809 17.3292C31.6972 17.523 31.7311 17.8136 31.4598 17.9153C31.2709 17.9783 30.9221 17.9686 30.8495 17.8475C30.3651 17.058 29.9291 16.2248 29.4447 15.3529C29.5125 15.2319 29.5902 15.1169 29.6772 15.0089C29.7323 14.9369 29.8197 14.8971 29.9102 14.9029C30.0008 14.9087 30.0824 14.9594 30.1277 15.038Z" fill="black"/>
<path d="M45.0374 13.7143C45.2602 14.3101 45.7204 14.7703 45.7737 15.4775C45.7737 15.7487 45.9287 15.9619 45.6817 16.175C45.3523 16.4511 45.0035 16.1169 44.9405 15.9764C44.6454 15.3007 44.385 14.6104 44.1606 13.908C44.2575 13.7191 44.3302 13.3703 44.5143 13.2783C44.7807 13.1475 44.9405 13.443 45.0374 13.7143Z" fill="black"/>
<path d="M28.1661 28.151C28.3178 28.1301 28.4712 28.1755 28.5871 28.2756C28.703 28.3758 28.7702 28.521 28.7716 28.6741C28.8103 28.9599 27.3717 30.1516 26.989 30.1612C26.6063 30.1709 26.6063 29.9142 26.5918 29.6284C26.5579 28.9938 27.4346 28.18 28.1661 28.151Z" fill="black"/>
<path d="M37.2148 29.802C37.3653 29.804 37.5063 29.8757 37.5965 29.9962C37.6866 30.1168 37.7156 30.2723 37.675 30.4172C37.5082 31.1227 36.9874 31.6911 36.2993 31.9189C36.0329 31.9867 35.7761 31.9189 35.8149 31.5023C35.8246 30.7612 36.6287 29.7972 37.2148 29.802Z" fill="black"/>
<path d="M21.782 15.6294C22.4844 15.9673 23.0685 16.5092 23.4581 17.1843C23.5743 17.4216 23.6857 17.906 23.2159 17.9448C22.9494 17.9448 21.3364 16.3414 21.317 16.1331C21.2831 15.7553 21.4575 15.4307 21.782 15.6294Z" fill="black"/>
<path d="M26.674 15.666C27.1335 16.1004 27.5268 16.5998 27.8414 17.1482C27.9459 17.2949 27.9604 17.4874 27.879 17.6481C27.7977 17.8087 27.634 17.911 27.4539 17.9136C27.1681 17.962 25.9232 16.378 25.9523 16.0051C26.0782 15.666 26.3882 15.3996 26.674 15.666Z" fill="black"/>
<path d="M32.2545 29.0698C32.5355 29.1619 33.0247 28.9342 32.9182 29.4428C32.7998 30.0793 32.3175 30.5862 31.6878 30.7362C31.3148 30.8282 31.2034 30.6005 31.2034 30.2082C31.1453 29.3169 31.7653 29.2733 32.2545 29.0698Z" fill="black"/>
<path d="M35.9892 16.9793C35.9964 17.0549 35.9662 17.1294 35.9083 17.1786C35.8504 17.2279 35.7721 17.2457 35.6985 17.2263C34.9719 17.1052 34.5844 16.6208 34.4342 15.6568C34.3083 15.3565 34.7346 15.3517 34.9622 15.2306C35.1269 15.1531 36.0231 16.7128 35.9892 16.9793Z" fill="black"/>
<path d="M16.9331 18.6451C16.7248 18.4077 16.0806 18.5288 16.0418 17.7586C16.0076 17.5726 16.0645 17.3815 16.1948 17.2445C16.3251 17.1075 16.5131 17.0411 16.7006 17.0659C17.2528 17.2015 17.3836 17.8894 17.6694 18.3399C17.7808 18.49 17.3836 18.679 16.9331 18.6451Z" fill="black"/>
<path d="M21.5486 26.5698C21.7617 26.4439 22.1299 26.8895 22.1396 27.1317C22.1411 27.6352 21.8656 28.0987 21.4227 28.3379C21.1659 28.4784 20.9383 28.1974 20.7784 28.0279C20.7976 27.4494 21.0815 26.9118 21.5486 26.5698Z" fill="black"/>
<path d="M149.339 14.1659C149.969 14.1659 150.875 15.4399 150.875 16.2973C150.87 17.1898 150.163 17.9202 149.271 17.9539C148.383 17.9323 147.655 17.2452 147.581 16.3602C147.624 15.2946 148.54 14.1514 149.339 14.1659Z" fill="black"/>
<path d="M93.5263 24.1145C95.0619 24.0758 96.4327 24.8072 97.8859 25.156C98.0174 25.2058 98.1207 25.3103 98.169 25.4423C98.2174 25.5744 98.206 25.7209 98.1378 25.8438C98.0409 26.0909 97.9004 26.2749 97.5517 26.1684C96.2535 25.7712 94.9456 25.4176 93.6426 25.0639C93.3616 24.9864 93.1921 24.8411 93.1582 24.6958C93.1049 24.2114 93.2696 24.1242 93.5263 24.1145Z" fill="black"/>
<path d="M101.054 15.7357C101.054 15.2901 101.301 15.1157 101.683 15.1157H103.103C103.65 15.1157 104.198 15.0866 104.74 15.1157C105.051 15.1403 105.293 15.3951 105.302 15.7067C105.259 15.9293 105.103 16.1133 104.89 16.1911C103.805 16.254 102.72 16.2589 101.635 16.2783C101.483 16.2954 101.331 16.2452 101.219 16.1409C101.108 16.0365 101.047 15.8885 101.054 15.7357Z" fill="black"/>
<path d="M91.7632 14.6768C92.3784 14.9433 93.0178 14.8028 93.5652 14.9869C94.0496 14.7156 94.3935 15.0401 94.7762 15.1031C95.1589 15.1661 95.0911 15.447 95.1008 15.7135C95.1134 15.8295 95.0724 15.945 94.9894 16.0271C94.9064 16.1092 94.7904 16.1489 94.6745 16.1349C93.5747 16.1139 92.4835 15.9361 91.4338 15.6069C91.1287 15.4906 90.8816 15.3017 90.9494 14.9336C91.0657 14.4056 91.5453 14.58 91.7632 14.6768Z" fill="black"/>
<path d="M85.2233 18.5522C85.2669 18.1211 85.5478 18.1986 85.7852 18.1937C86.226 18.1937 86.6619 18.1937 87.1028 18.1937C87.5436 18.1937 88.0716 18.2276 88.5269 18.1937C88.9822 18.1598 89.0113 18.5183 89.1082 18.7653C89.2874 19.1819 88.8272 19.2497 88.6916 19.274C87.6906 19.465 86.6618 19.4568 85.6641 19.2497C85.5107 19.2199 85.3765 19.1282 85.2931 18.9962C85.2096 18.8641 85.1844 18.7035 85.2233 18.5522Z" fill="black"/>
<path d="M111.498 26.4822H113.615C113.992 26.5112 114.559 26.3417 114.583 26.9181C114.608 27.4025 114.157 27.6205 113.663 27.6835C112.889 27.7399 112.112 27.6578 111.367 27.4413C111.067 27.3734 110.926 27.2959 110.916 26.9569C110.907 26.4579 111.202 26.4822 111.498 26.4822Z" fill="black"/>
<path d="M70.6914 21.2412C71.295 21.5516 71.9278 21.8014 72.5806 21.9872C72.8664 22.0937 73.4234 21.7644 73.3362 22.4716C73.2733 22.985 72.8518 22.956 72.4449 23.048C71.6796 22.7671 70.8997 22.5249 70.1634 22.1761C69.9454 22.0744 69.4853 21.7789 69.7468 21.3962C69.8464 21.2439 70.0054 21.1403 70.185 21.1109C70.3646 21.0814 70.5484 21.1287 70.6914 21.2412Z" fill="black"/>
<path d="M80.2777 23.1793C80.5586 23.1793 80.8057 23.3391 80.7863 23.6637C80.742 23.9697 80.531 24.2256 80.2389 24.3273C79.6092 24.6131 77.5554 23.8041 77.1 23.0485C78.2335 22.6949 79.2459 23.1357 80.2777 23.1793Z" fill="black"/>
<path d="M92.8336 18.8984C93.5796 19.005 94.3255 19.0728 95.057 19.2327C95.2268 19.2567 95.3777 19.3533 95.4707 19.4974C95.5637 19.6415 95.5895 19.8189 95.5414 19.9835C95.4784 20.279 95.3573 20.5599 95.057 20.5067C94.2576 20.3711 93.468 20.1834 92.6931 19.9447C92.3962 19.8292 92.2122 19.5304 92.2426 19.2133C92.3007 18.7822 92.6253 18.9566 92.8336 18.8984Z" fill="black"/>
<path d="M104.077 22.7385C104.934 22.7385 105.787 22.8644 106.644 22.9323C106.949 22.9323 106.945 23.189 106.964 23.4167C106.993 23.809 106.775 23.8672 106.48 23.8623H105.283C104.922 23.8829 104.559 23.8829 104.198 23.8623C103.922 23.8333 103.52 24.0755 103.442 23.4942C103.4 23.3053 103.448 23.1074 103.572 22.9591C103.697 22.8108 103.884 22.7292 104.077 22.7385Z" fill="black"/>
<path d="M96.4131 13.8198C96.4567 13.7326 96.4906 13.5292 96.5875 13.4904C97.3957 13.1249 98.2521 12.8769 99.1306 12.7541C99.5181 12.7105 99.6877 12.9963 99.7216 13.4178C99.7555 13.8392 99.5036 13.8634 99.2129 13.97C98.5106 14.2364 97.7597 14.033 97.0525 14.3672C96.757 14.5077 96.539 14.2364 96.4131 13.8198Z" fill="black"/>
<path d="M130.772 12.0362C131.116 12.0362 131.373 12.0362 131.625 12.0362C132.075 12.0362 132.414 12.1283 132.438 12.7192C132.463 13.4022 131.998 13.2036 131.678 13.2036C131.358 13.2036 131.169 13.2036 130.913 13.2036C130.351 13.2521 129.513 13.4894 129.425 12.7725C129.285 11.5906 130.336 12.2203 130.772 12.0362Z" fill="black"/>
<path d="M125.429 14.9777C125.404 14.7006 125.603 14.4535 125.88 14.4206C126.311 14.3867 126.747 14.4206 127.183 14.4206V14.4593C127.649 14.4139 128.119 14.4252 128.583 14.4932C128.75 14.5278 128.896 14.6288 128.987 14.7732C129.079 14.9175 129.107 15.0927 129.067 15.2586C129.031 15.3864 128.945 15.4941 128.828 15.5563C128.71 15.6186 128.573 15.63 128.447 15.588C127.629 15.3921 126.787 15.3187 125.947 15.37C125.729 15.3361 125.415 15.4281 125.429 14.9777Z" fill="black"/>
<path d="M100.967 19.8508H102.144C102.292 19.8302 102.442 19.8699 102.56 19.961C102.679 20.0521 102.756 20.1869 102.774 20.3352C102.856 20.8196 102.435 20.6936 102.226 20.8486C101.873 21.0412 101.462 21.0996 101.069 21.0133C100.497 21.0133 99.5767 21.241 99.5718 20.4127C99.567 19.4196 100.545 20.0445 100.967 19.8508Z" fill="black"/>
<path d="M59.3855 16.6216C59.8699 16.4133 60.0104 16.9655 60.1751 17.2513C60.219 17.564 60.1013 17.8776 59.8625 18.0842C59.6236 18.2907 59.2963 18.362 58.9932 18.2734C58.5088 18.1959 57.6223 18.6851 57.6029 17.818C57.5787 16.6652 58.7558 16.9219 59.3855 16.6216Z" fill="black"/>
<path d="M107.641 19.2649C108.421 18.8967 109.283 19.3133 110.102 19.0227C110.354 18.9306 110.485 19.2988 110.475 19.6088C110.465 19.9188 110.446 20.069 110.141 20.0932C109.531 20.1223 108.906 19.9915 108.353 20.3887C108.082 20.287 107.869 20.1949 107.612 20.1174C107.356 20.0399 106.968 20.2482 106.978 19.7202C106.987 19.1922 107.423 19.3714 107.641 19.2649Z" fill="black"/>
<path d="M83.0778 20.8003C83.7123 20.6065 84.2597 21.1103 84.8797 21.0376C85.2769 20.9892 85.5046 21.1345 85.4416 21.6189C85.3787 22.1033 85.1074 22.2826 84.6811 22.176C84.1337 22.0404 83.5912 21.8805 83.039 21.7449C82.5933 21.6335 81.9539 21.5656 82.0314 20.994C82.0896 20.5435 82.7241 20.9214 83.0778 20.8003Z" fill="black"/>
<path d="M124.407 26.4841C124.9 26.5117 125.394 26.4426 125.86 26.2806C126.267 26.1111 126.572 26.3145 126.456 27.0072C126.456 27.046 126.553 27.3463 126.335 27.3705C125.604 27.4626 124.882 27.9567 124.15 27.603C123.879 27.4722 123.346 27.3947 123.467 26.8619C123.589 26.3291 124.058 26.4889 124.407 26.4841Z" fill="black"/>
<path d="M124.494 22.2105C124.233 22.1863 124.107 22.0846 124.102 21.7891C124.097 21.4936 124.146 21.2659 124.504 21.2563C125.086 21.1613 125.68 21.1613 126.262 21.2563C126.64 21.3628 127.168 21.2563 127.139 21.8375C127.11 22.4188 126.582 22.4188 126.204 22.4673C125.604 22.3752 125.051 22.2783 124.494 22.2105Z" fill="black"/>
<path d="M117.853 20.8195C118.633 21.3039 119.306 20.7565 120.023 20.5676C120.202 21.1634 120.26 21.7496 119.592 21.8949C118.851 22.0596 118.047 22.326 117.373 21.6866C117.257 21.5752 117.262 21.2313 117.31 21.0181C117.34 20.9072 117.422 20.8178 117.53 20.7783C117.638 20.7388 117.759 20.7542 117.853 20.8195Z" fill="black"/>
<path d="M134.807 24.7109C134.623 24.2992 134.952 24.3234 135.073 24.2556C135.484 24.0013 135.788 23.6048 135.926 23.1415C136.052 22.7975 135.926 22.2259 136.41 22.2744C136.895 22.3228 136.798 22.9138 136.832 23.3255C136.899 24.4348 136.066 24.6867 135.378 25.0403C135.17 25.1566 134.952 25.0403 134.807 24.7109Z" fill="black"/>
<path d="M74.2133 17.2358C74.8478 17.4199 75.5115 17.5798 76.1509 17.8074C76.2775 17.8644 76.376 17.9698 76.4243 18.1C76.4726 18.2302 76.4665 18.3744 76.4076 18.5001C76.3301 18.7278 76.1654 18.9312 75.9232 18.8634C75.2693 18.6842 74.6299 18.4711 73.9856 18.2725C73.6417 18.1659 73.5642 17.9043 73.6126 17.5555C73.6562 17.1293 73.9662 17.2843 74.2133 17.2358Z" fill="black"/>
<path d="M70.7496 16.2282C70.5801 16.0489 70.4251 16.296 70.0957 16.2815C69.8196 16.1604 69.0688 16.5963 69.0203 15.7971C68.9719 14.9978 69.7276 15.2642 70.1538 15.0753C70.5801 14.8864 70.7739 15.1286 71.0597 15.1964C71.2703 15.2229 71.4555 15.3485 71.558 15.5343C71.6605 15.7202 71.6679 15.9439 71.578 16.1361C71.3842 16.6351 71.0839 16.5818 70.7496 16.2282Z" fill="black"/>
<path d="M133.441 19.0599C133.426 19.4334 133.126 19.7328 132.753 19.7477C132.157 19.6072 131.595 19.5103 131.053 19.3311C130.67 19.2052 130.617 18.808 130.714 18.4495C130.849 17.9651 131.096 18.3865 131.3 18.4011C131.784 18.435 132.268 18.4495 132.753 18.4544C132.925 18.4424 133.094 18.4997 133.223 18.6135C133.352 18.7272 133.431 18.888 133.441 19.0599Z" fill="black"/>
<path d="M113.571 23.1778C113.28 23.1778 112.985 23.1778 112.694 23.1778C112.403 23.1778 112.253 23.1778 112.239 22.829C112.224 22.4802 112.239 22.1508 112.491 22.1218C113.183 22.054 113.891 21.836 114.578 22.0879C114.855 22.1896 114.869 22.4996 114.869 22.7903C114.869 23.2165 114.588 23.1681 114.336 23.1778C114.084 23.1875 113.828 23.1778 113.571 23.1778Z" fill="black"/>
<path d="M87.8832 23.6639C88.3015 23.9444 88.7856 24.1113 89.2879 24.1483C89.4354 24.1759 89.5639 24.2655 89.6408 24.3943C89.7177 24.5231 89.7356 24.6787 89.69 24.8216C89.6028 25.1171 89.472 25.306 89.0215 25.2188C88.6243 24.8216 87.8154 25.2867 87.3697 24.6037C87.2195 24.376 86.8223 24.25 87.0984 23.8383C87.1782 23.7097 87.3064 23.6187 87.4541 23.5859C87.6018 23.5531 87.7565 23.5812 87.8832 23.6639Z" fill="black"/>
<path d="M115.073 17.284C115.954 17.6377 116.821 17.0564 117.693 17.284C117.921 17.3373 117.936 17.5262 117.94 17.7249C117.945 17.9235 117.902 18.2093 117.606 18.2093C117.112 18.1534 116.612 18.2234 116.153 18.4127L115.126 18.2141C114.811 18.156 114.889 17.8847 114.879 17.6667C114.869 17.4487 114.947 17.2308 115.073 17.284Z" fill="black"/>
<path d="M135.708 27.4365C135.766 27.6545 135.81 28.0081 135.611 28.0807C134.739 28.3956 134.008 29.5 132.787 28.5991C133.509 27.9015 134.366 27.7029 135.079 27.2234C135.183 27.138 135.324 27.1124 135.452 27.1557C135.58 27.199 135.677 27.3051 135.708 27.4365Z" fill="black"/>
<path d="M67.7851 17.4784C68.2907 17.3565 68.8228 17.413 69.2916 17.6382C69.6307 17.8271 70.1635 17.8029 70.0327 18.3939C69.9019 18.9848 69.4175 18.5489 69.1995 18.6458C68.7052 18.7073 68.2035 18.6354 67.7463 18.4375C67.4944 18.3357 67.2377 18.2534 67.2619 17.9531C67.2861 17.6527 67.5041 17.5171 67.7851 17.4784Z" fill="black"/>
<path d="M120.885 12.3044C120.856 11.4761 121.956 11.912 122.339 11.5633C122.949 11.5245 123.375 11.8151 123.346 12.3044C123.317 12.8711 122.746 12.7888 122.377 12.721C121.874 12.6241 120.919 13.3168 120.885 12.3044Z" fill="black"/>
<path d="M114.811 13.2217C114.215 13.1829 113.513 13.3767 113.358 12.5483C113.222 11.7975 113.866 11.9913 114.176 12.0639C114.729 12.1753 115.601 11.7539 115.717 12.7469C115.823 13.5898 115.077 13.0085 114.811 13.2217Z" fill="black"/>
<path d="M134.323 15.2885C133.911 14.9979 133.485 15.1481 133.068 15.1142C132.652 15.0803 132.463 14.7654 132.221 14.3827C132.327 14.2568 132.429 14.0243 132.555 14.0049C133.289 13.9595 134.024 14.0855 134.701 14.373C134.924 14.4457 134.909 14.7605 134.822 14.9882C134.735 15.2159 134.502 15.429 134.323 15.2885Z" fill="black"/>
<path d="M85.7322 15.1006C85.4411 15.1371 85.1466 15.1371 84.8555 15.1006C84.5648 15.1006 84.405 14.8875 84.3226 14.4515C84.5745 13.9671 85.0444 13.9429 85.553 13.9138C85.8582 13.9138 86.1585 13.6619 86.3329 14.1754C86.4443 14.5096 86.6623 14.8487 86.4927 15.1684C86.2748 15.5802 86.0083 15.0522 85.7322 15.1006Z" fill="black"/>
<path d="M118.745 15.1096C118.541 15.0757 118.41 14.9982 118.401 14.756C118.391 14.5138 118.531 14.4218 118.735 14.4073C119.374 14.3637 120.023 14.4848 120.673 14.1893C120.924 14.073 121.157 14.3201 121.234 14.6107C121.312 14.9014 121.079 15.0515 120.866 15.2065C120.627 15.3289 120.359 15.3809 120.091 15.3567C119.655 15.2743 119.2 15.1823 118.745 15.1096Z" fill="black"/>
<path d="M131.189 22.748C131.155 22.2975 131.528 22.0262 131.978 21.9778C132.15 21.9402 132.32 21.8933 132.487 21.8373C132.782 21.7743 133.141 21.5321 133.296 22.0262C133.382 22.3697 133.259 22.7317 132.981 22.9514C132.7 23.2469 132.375 23.1355 132.167 23.1597C131.707 23.1791 131.223 23.2372 131.189 22.748Z" fill="black"/>
<path d="M59.3954 22.2437C59.8798 22.5246 60.7905 22.2437 60.8486 23.2609C60.8833 23.4156 60.8401 23.5776 60.7329 23.6945C60.6257 23.8113 60.4681 23.8683 60.3109 23.847C59.8265 23.3626 58.9255 23.4644 58.7753 22.5973C58.6978 22.2098 59.1677 22.1129 59.3954 22.2437Z" fill="black"/>
<path d="M130.598 24.6562C130.937 24.9953 131.746 24.5739 131.726 25.3053C131.707 26.0368 131.034 25.9399 130.573 25.9884C130.113 26.0368 129.605 25.9884 129.605 25.3489C129.605 24.7095 130.283 24.913 130.598 24.6562Z" fill="black"/>
<path d="M79.3283 16.2135C79.2315 15.6128 79.7643 15.9132 80.0356 15.8018C80.549 15.8986 81.1497 15.9132 81.2466 16.6543C81.2915 16.83 81.2344 17.0161 81.0987 17.1365C80.963 17.2569 80.7715 17.2914 80.6023 17.2259C80.021 17.1387 79.4398 16.9062 79.3283 16.2135Z" fill="black"/>
<path d="M111.793 15.0603C111.386 15.317 111.173 14.6825 111.198 14.4693C111.28 13.8009 111.851 13.7621 112.224 13.6895C112.757 13.6895 113.135 13.7766 113.092 14.2998C113.009 15.1766 112.224 14.7939 111.793 15.0603Z" fill="black"/>
<path d="M126.272 17.3226C126.17 18.1558 125.415 18.1267 124.906 18.4028C124.78 18.4499 124.639 18.4309 124.53 18.352C124.421 18.2731 124.358 18.1449 124.364 18.0104C124.509 17.1967 125.303 17.1773 125.817 16.7849C126.088 16.8382 126.311 17.0223 126.272 17.3226Z" fill="black"/>
<path d="M119.442 26.0856C119.708 25.9402 119.897 26.3278 119.926 26.6765C119.989 27.5678 119.175 26.9865 118.957 27.4031C118.773 27.0834 118.178 27.4031 118.216 26.9187C118.26 26.0856 119.016 26.3035 119.442 26.0856Z" fill="black"/>
<path d="M63.8902 18.7289C64.4136 18.8491 64.7874 19.3109 64.796 19.8478C64.796 20.09 64.796 20.3322 64.3649 20.2983C64.0743 20.0174 63.4736 19.9496 63.3234 19.4119C63.2217 19.0825 63.6383 18.6756 63.8902 18.7289Z" fill="black"/>
<path d="M109.415 17.0033C109.046 17.0033 108.765 16.8774 108.741 16.4462C108.712 16.2758 108.767 16.1018 108.89 15.9795C109.012 15.8572 109.186 15.8018 109.356 15.8311C109.647 15.8311 110.054 15.6809 110.039 16.2186C110.025 16.7563 109.865 16.9936 109.415 17.0033Z" fill="black"/>
</svg>
