<svg xmlns="http://www.w3.org/2000/svg"  viewBox="0 0 40 40" width="16px" height="16px"><path fill="#b6dcfe" d="M14.485,28.5c-0.208-3.539-2.576-6.599-4.87-9.563C7.499,16.203,5.5,13.62,5.5,11 c0-5.238,6.505-9.5,14.5-9.5S34.5,5.762,34.5,11c0,2.644-1.987,5.181-4.09,7.867c-2.309,2.948-4.693,5.993-4.896,9.633H14.485z"/><path fill="#4788c7" d="M20,2c7.72,0,14,4.037,14,9c0,2.471-1.935,4.943-3.984,7.559c-2.259,2.885-4.589,5.86-4.964,9.441 H14.945c-0.382-3.487-2.693-6.473-4.934-9.369C7.948,15.966,6,13.449,6,11C6,6.037,12.28,2,20,2 M20,1C11.716,1,5,5.477,5,11 c0,5.824,9,11.124,9,18h12c0-7.063,9-12.102,9-18C35,5.477,28.284,1,20,1L20,1z"/><path fill="#fff" d="M22.714,13c0.502,0,0.974,0.195,1.329,0.55c0.733,0.733,0.733,1.925,0,2.657l-1.75,1.75L22,18.25 v0.414v12h-4v-12V18.25l-0.293-0.293l-1.75-1.75c-0.733-0.733-0.733-1.925,0-2.657c0.355-0.355,0.827-0.55,1.329-0.55 c0.502,0,0.974,0.195,1.329,0.55l0.679,0.679L20,14.936l0.707-0.707l0.679-0.679C21.741,13.195,22.212,13,22.714,13 M22.714,12 c-0.737,0-1.474,0.281-2.036,0.843L20,13.522l-0.679-0.679C18.759,12.281,18.022,12,17.286,12c-0.737,0-1.474,0.281-2.036,0.843v0 c-1.124,1.124-1.124,2.947,0,4.071l1.75,1.75v13h6v-13l1.75-1.75c1.124-1.124,1.124-2.947,0-4.071l0,0 C24.188,12.281,23.451,12,22.714,12L22.714,12z"/><path fill="#4788c7" d="M20 32A3.5 3.5 0 1 0 20 39A3.5 3.5 0 1 0 20 32Z"/><path fill="#dff0fe" d="M17,36.5c-1.378,0-2.5-1.122-2.5-2.5v-5.5h11V34c0,1.378-1.122,2.5-2.5,2.5H17z"/><path fill="#4788c7" d="M25,29v5c0,1.103-0.897,2-2,2h-6c-1.103,0-2-0.897-2-2v-5H25 M26,28H14v6c0,1.657,1.343,3,3,3h6 c1.657,0,3-1.343,3-3V28L26,28z"/><path fill="#dff0fe" d="M33.908,10C33.131,5.507,27.193,2,20,2C12.807,2,6.869,5.507,6.092,10H33.908z"/><path fill="#98ccfd" d="M6.365,9c-0.116,0.328-0.214,0.66-0.273,1h27.817c-0.059-0.34-0.157-0.672-0.273-1H6.365z"/><g><path fill="#4788c7" d="M25.5 31h-6c-.275 0-.5-.225-.5-.5l0 0c0-.275.225-.5.5-.5h6c.275 0 .5.225.5.5l0 0C26 30.775 25.775 31 25.5 31zM25.5 33h-6c-.275 0-.5-.225-.5-.5l0 0c0-.275.225-.5.5-.5h6c.275 0 .5.225.5.5l0 0C26 32.775 25.775 33 25.5 33zM24.988 35H19.5c-.275 0-.5-.225-.5-.5l0 0c0-.275.225-.5.5-.5h5.488c.275 0 .5.225.5.5l0 0C25.488 34.775 25.263 35 24.988 35zM14.5 31h2c.275 0 .5-.225.5-.5l0 0c0-.275-.225-.5-.5-.5h-2c-.275 0-.5.225-.5.5l0 0C14 30.775 14.225 31 14.5 31zM14.5 33h2c.275 0 .5-.225.5-.5l0 0c0-.275-.225-.5-.5-.5h-2c-.275 0-.5.225-.5.5l0 0C14 32.775 14.225 33 14.5 33zM14.907 35H16.5c.275 0 .5-.225.5-.5l0 0c0-.275-.225-.5-.5-.5h-1.593c-.275 0-.5.225-.5.5l0 0C14.407 34.775 14.632 35 14.907 35z"/></g></svg>