<svg width="18" height="18" viewBox="0 0 18 18" fill="none" xmlns="http://www.w3.org/2000/svg">
<path fill-rule="evenodd" clip-rule="evenodd" d="M2 7C0.895431 7 0 7.89543 0 9C0 10.1046 0.895431 11 2 11C3.10457 11 4 10.1046 4 9C4 7.89543 3.10457 7 2 7ZM7 9C7 7.89543 7.89543 7 9 7C10.1046 7 11 7.89543 11 9C11 10.1046 10.1046 11 9 11C7.89543 11 7 10.1046 7 9ZM14 9C14 7.89543 14.8954 7 16 7C17.1046 7 18 7.89543 18 9C18 10.1046 17.1046 11 16 11C14.8954 11 14 10.1046 14 9Z" fill="currentColor"/>
</svg>
