<svg xmlns="http://www.w3.org/2000/svg"  viewBox="0 0 48 48" width="14px" height="14px"><path d="M 24 4.0078125 C 16.28 4.0098125 10 10.282234 10 17.990234 C 10 21.873234 11.558672 25.484203 14.388672 28.158203 C 14.711672 28.463203 14.938875 28.881281 15.046875 29.363281 L 17.513672 40.466797 C 17.974672 42.541797 19.78125 43.990234 21.90625 43.990234 L 26.095703 43.990234 C 28.220703 43.990234 30.026281 42.541797 30.488281 40.466797 L 32.955078 29.363281 C 33.062078 28.880281 33.290281 28.464203 33.613281 28.158203 C 36.441281 25.486203 38 21.875187 38 17.992188 C 38 10.283188 31.72 4.0098125 24 4.0078125 z M 24 7.0097656 C 30.066 7.0117656 35 11.938188 35 17.992188 C 35 21.041187 33.774781 23.877516 31.550781 25.978516 C 30.790781 26.696516 30.263391 27.642891 30.025391 28.712891 L 28.851562 34 L 25.521484 34 C 25.629978 31.955626 26.36723 29.873976 27.320312 27.611328 C 27.999312 25.999328 28.741109 25.127219 29.162109 24.699219 C 31.698109 22.118219 31.574719 17.792641 28.886719 15.056641 C 25.067719 11.169641 20.311375 12.082047 20.109375 12.123047 C 19.675375 12.211047 19.301844 12.487953 19.089844 12.876953 C 18.877844 13.266953 18.849719 13.730578 19.011719 14.142578 C 19.276719 14.816578 18.966719 15.903688 18.636719 17.054688 C 18.039719 19.136688 17.222281 21.985922 19.613281 24.419922 C 19.976281 24.789922 20.941641 25.581313 22.431641 26.070312 C 22.458641 26.037312 22.471906 25.99875 22.503906 25.96875 C 24.102906 24.44975 24.128906 20.489797 24.003906 19.091797 C 23.954906 18.541797 24.360156 18.054859 24.910156 18.005859 C 25.464156 17.951859 25.946094 18.360156 25.996094 18.910156 C 26.044094 19.434156 26.352219 23.4895 24.824219 26.1875 C 24.103219 27.4605 23.492516 28.800938 23.103516 30.210938 C 22.751405 31.488219 22.560291 32.752601 22.517578 34 L 19.148438 34 L 17.974609 28.712891 C 17.736609 27.642891 17.209219 26.696516 16.449219 25.978516 C 14.225219 23.877516 13 21.041188 13 17.992188 C 13 11.937188 17.934 7.0117656 24 7.0097656 z"/></svg>