<svg xmlns="http://www.w3.org/2000/svg" xmlns:xlink="http://www.w3.org/1999/xlink" viewBox="0,0,256,256" width="16px" height="16px"><g fill="#42c1e7" fill-rule="nonzero" stroke="none" stroke-width="1" stroke-linecap="butt" stroke-linejoin="miter" stroke-miterlimit="10" stroke-dasharray="" stroke-dashoffset="0" font-family="none" font-weight="none" font-size="none" text-anchor="none" style="mix-blend-mode: normal"><g transform="scale(5.33333,5.33333)"><path d="M13,13c-6.05167,0 -11,4.94833 -11,11c0,6.05167 4.94833,11 11,11h4c0.72127,0.0102 1.39216,-0.36875 1.75578,-0.99175c0.36361,-0.623 0.36361,-1.39351 0,-2.01651c-0.36361,-0.623 -1.0345,-1.00195 -1.75578,-0.99175h-4c-3.89033,0 -7,-3.10967 -7,-7c0,-3.89033 3.10967,-7 7,-7h4c0.72127,0.0102 1.39216,-0.36875 1.75578,-0.99175c0.36361,-0.623 0.36361,-1.39351 0,-2.01651c-0.36361,-0.623 -1.0345,-1.00195 -1.75578,-0.99175zM31,13c-0.72127,-0.0102 -1.39216,0.36875 -1.75578,0.99175c-0.36361,0.623 -0.36361,1.39351 0,2.01651c0.36361,0.623 1.0345,1.00195 1.75578,0.99175h4c3.89033,0 7,3.10967 7,7c0,3.89033 -3.10967,7 -7,7h-4c-0.72127,-0.0102 -1.39216,0.36875 -1.75578,0.99175c-0.36361,0.623 -0.36361,1.39351 0,2.01651c0.36361,0.623 1.0345,1.00195 1.75578,0.99175h4c6.05167,0 11,-4.94833 11,-11c0,-6.05167 -4.94833,-11 -11,-11zM12,22c-0.72127,-0.0102 -1.39216,0.36875 -1.75578,0.99175c-0.36361,0.623 -0.36361,1.39351 0,2.01651c0.36361,0.623 1.0345,1.00195 1.75578,0.99175h24c0.72127,0.0102 1.39216,-0.36875 1.75578,-0.99175c0.36361,-0.623 0.36361,-1.39351 0,-2.01651c-0.36361,-0.623 -1.0345,-1.00195 -1.75578,-0.99175z"></path></g></g></svg>