<svg xmlns="http://www.w3.org/2000/svg"  viewBox="0 0 64 64" width="20px" height="20px"><radialGradient id="-ziWjtFbzBgvnhYp6VOTka" cx="32" cy="-1100.5" r="51.925" gradientTransform="matrix(1 0 0 -1 0 -1068)" gradientUnits="userSpaceOnUse"><stop offset="0" stop-color="#9ceeff"/><stop offset=".642" stop-color="#c5f5ff"/><stop offset="1" stop-color="#dcf9ff"/></radialGradient><path fill="url(#-ziWjtFbzBgvnhYp6VOTka)" d="M60.5,31c1.995,0,3.6-1.669,3.495-3.688C63.896,25.419,62.197,24,60.302,24H59.5	c-0.828,0-1.5-0.671-1.5-1.5s0.672-1.5,1.5-1.5h0.802c1.895,0,3.594-1.419,3.693-3.312C64.1,15.669,62.495,14,60.5,14h-1.393	c-0.996,0-1.92-0.681-2.08-1.664C56.823,11.083,57.785,10,59,10h0.302c1.895,0,3.594-1.419,3.693-3.312	C63.101,4.669,61.495,3,59.5,3H4.698C2.803,3,1.104,4.419,1.005,6.312C0.899,8.331,2.505,10,4.5,10h0.393	c0.996,0,1.92,0.681,2.08,1.664C7.177,12.917,6.215,14,5,14H3.698c-1.895,0-3.594,1.419-3.693,3.312C-0.101,19.331,1.505,21,3.5,21	C4.328,21,5,21.671,5,22.5S4.328,24,3.5,24h0.198c-1.895,0-3.594,1.419-3.693,3.312C-0.101,29.331,1.505,31,3.5,31l0,0	C4.328,31,5,31.672,5,32.5l0,0C5,33.328,4.328,34,3.5,34l0,0c-1.995,0-3.6,1.669-3.495,3.688C0.104,39.581,1.803,41,3.698,41H4.5	C5.328,41,6,41.671,6,42.5C6,43.328,5.328,44,4.5,44H3.698c-1.895,0-3.594,1.419-3.693,3.312C-0.101,49.331,1.505,51,3.5,51h1.393	c0.996,0,1.92,0.681,2.08,1.664C7.176,53.917,6.215,55,5,55H4.698c-1.895,0-3.594,1.419-3.693,3.312C0.899,60.331,2.505,62,4.5,62	h54.802c1.895,0,3.594-1.419,3.693-3.312C63.1,56.669,61.495,55,59.5,55H59c-1.105,0-2-0.896-2-2l0,0c0-1.104,0.895-2,2-2h1.302	c1.895,0,3.594-1.419,3.693-3.312C64.1,45.669,62.495,44,60.5,44c-0.828,0-1.5-0.672-1.5-1.5l0,0c0-0.829,0.672-1.5,1.5-1.5h-0.198	c1.895,0,3.594-1.419,3.693-3.312C64.101,35.669,62.495,34,60.5,34l0,0c-0.828,0-1.5-0.672-1.5-1.5l0,0C59,31.672,59.672,31,60.5,31	L60.5,31z"/><linearGradient id="-ziWjtFbzBgvnhYp6VOTkb" x1="32" x2="32" y1="-1124.075" y2="-1072.49" gradientTransform="matrix(1 0 0 -1 0 -1068)" gradientUnits="userSpaceOnUse"><stop offset=".128" stop-color="#dbdee1"/><stop offset=".202" stop-color="#dee1e4"/><stop offset=".657" stop-color="#eff1f2"/><stop offset="1" stop-color="#f5f6f7"/></linearGradient><path fill="url(#-ziWjtFbzBgvnhYp6VOTkb)" d="M18,8h28c5.523,0,10,4.477,10,10v28	c0,5.523-4.477,10-10,10H18c-5.523,0-10-4.477-10-10V18C8,12.477,12.477,8,18,8z"/><linearGradient id="-ziWjtFbzBgvnhYp6VOTkc" x1="32" x2="32" y1="39" y2="48" gradientTransform="matrix(1 0 0 -1 0 66)" gradientUnits="userSpaceOnUse"><stop offset=".284" stop-color="#1ca3f6"/><stop offset=".34" stop-color="#1ba7f7"/><stop offset=".515" stop-color="#19aef8"/><stop offset="1" stop-color="#19b0f8"/></linearGradient><path fill="url(#-ziWjtFbzBgvnhYp6VOTkc)" d="M14,27v-7c0-1.105,0.895-2,2-2h6.757	c0.796,0,1.559,0.316,2.121,0.879l1.243,1.243C26.684,20.684,27.447,21,28.243,21H48c1.105,0,2,0.895,2,2v4H14z"/><path fill="#fff" d="M47,27H17c-0.552,0-1-0.448-1-1v-2c0-0.552,0.448-1,1-1h30c0.552,0,1,0.448,1,1v2	C48,26.552,47.552,27,47,27z"/><linearGradient id="-ziWjtFbzBgvnhYp6VOTkd" x1="32" x2="32" y1="20" y2="41" gradientTransform="matrix(1 0 0 -1 0 66)" gradientUnits="userSpaceOnUse"><stop offset="0" stop-color="#1c77f1"/><stop offset="1" stop-color="#18bff9"/></linearGradient><path fill="url(#-ziWjtFbzBgvnhYp6VOTkd)" d="M14,27v17c0,1.105,0.895,2,2,2h32	c1.105,0,2-0.895,2-2V27c0-1.105-0.895-2-2-2H16C14.895,25,14,25.895,14,27z"/></svg>