<svg xmlns="http://www.w3.org/2000/svg" xmlns:xlink="http://www.w3.org/1999/xlink" viewBox="0,0,256,256" width="16px" height="16px"><g fill="#b40808" fill-rule="nonzero" stroke="none" stroke-width="1" stroke-linecap="butt" stroke-linejoin="miter" stroke-miterlimit="10" stroke-dasharray="" stroke-dashoffset="0" font-family="none" font-weight="none" font-size="none" text-anchor="none" style="mix-blend-mode: normal"><g transform="scale(8.53333,8.53333)"><path d="M15,3c-6.627,0 -12,5.373 -12,12c0,6.627 5.373,12 12,12c6.627,0 12,-5.373 12,-12c0,-6.627 -5.373,-12 -12,-12zM16.212,8l-0.2,9h-2.024l-0.2,-9zM15.003,22.189c-0.828,0 -1.323,-0.441 -1.323,-1.182c0,-0.755 0.494,-1.196 1.323,-1.196c0.822,0 1.316,0.441 1.316,1.196c0,0.741 -0.494,1.182 -1.316,1.182z"></path></g></g></svg>