<svg width="116" height="84" viewBox="0 0 116 84" fill="none" xmlns="http://www.w3.org/2000/svg">
<path d="M15.0454 69.3682C15.3622 69.1876 15.6614 68.9773 15.9389 68.74C16.5731 68.2953 17.0601 68.5318 17.1302 69.3223C17.143 69.5257 17.143 69.7296 17.1302 69.9329C17.1193 70.0169 17.1342 70.1023 17.1731 70.1774C17.212 70.2525 17.2728 70.3138 17.3474 70.3529C17.5401 70.4447 17.6382 70.2576 17.7469 70.1447C18.5142 69.3506 18.7104 67.7024 18.2934 66.6718C17.6242 65.0236 16.4189 63.7847 15.3222 62.4612C15.0665 62.1542 11.7484 59.9906 11.1913 58.9565C11.4155 60.0718 11.0511 61.2189 11.3279 62.2565C11.836 64.1659 10.8304 66.0047 11.2333 67.9035C11.2754 68.1012 10.9285 68.4188 11.2123 68.6094C11.4961 68.8 11.6888 68.5212 11.9131 68.3518C12.8451 67.6141 13.0938 67.6459 13.4232 68.7294C13.714 69.7353 14.3061 69.6964 15.0454 69.3682Z" fill="#A49F95"/>
<path opacity="0.5" d="M38.5 82.9668C59.763 82.9668 77 81.8475 77 80.4668C77 79.0861 59.763 77.9668 38.5 77.9668C17.237 77.9668 0 79.0861 0 80.4668C0 81.8475 17.237 82.9668 38.5 82.9668Z" fill="#E1DED5"/>
<path d="M69.1552 54.469C69.0977 56.1425 68.9518 57.8116 68.7181 59.4693C68.6517 59.9683 70.4036 62.3605 72.0086 59.211C72.4876 57.9866 73.2674 56.9037 73.5401 55.5731C74.0472 53.096 73.6136 50.7356 72.8967 48.3929C72.829 48.2413 72.7134 48.1168 72.568 48.039C71.6974 47.5047 70.8756 46.8995 70.0504 46.3015C69.5014 45.9016 69.1692 45.1691 68.2041 45.0664C68.6023 46.8532 68.8769 48.6659 69.0259 50.4914C69.1343 51.8185 69.1867 53.1384 69.1552 54.469Z" fill="#FF7557"/>
<path d="M14.9188 60.0686C15.0523 60.0962 15.1745 60.1636 15.2692 60.2621C16.3205 61.5252 17.3717 62.7812 18.395 64.0689C19.9193 66.004 20.1471 68.4246 20.7954 70.694C20.897 71.0458 21.0162 71.3976 21.314 71.4856C21.703 71.6228 21.8712 71.2288 22.0149 70.9403C22.2707 70.4688 22.6912 70.3175 22.9295 70.7995C23.4866 71.9219 23.9807 71.3062 24.4153 70.7995C24.9689 70.1486 25.4175 70.2964 25.6172 70.9825C25.8835 71.8902 26.2515 71.3625 26.5739 71.1232C26.7736 70.9719 26.8612 70.6834 27.0364 70.4864C27.4464 70.0255 27.8459 69.9199 28.1928 70.5743C28.2734 70.7256 28.2804 71.0141 28.6344 70.8769C28.8586 68.882 29.0058 66.8625 29.125 64.8289C29.2761 63.1358 29.2632 61.432 29.0864 59.7414C29.0233 59.291 29.1039 58.8829 29.5875 58.6859C30.432 59.6675 30.3199 60.8602 30.2884 62.0142C30.267 62.124 30.2675 62.2369 30.2899 62.3465C30.3122 62.4561 30.3559 62.5601 30.4184 62.6527C30.4809 62.7452 30.5611 62.8244 30.6542 62.8857C30.7474 62.947 30.8517 62.9893 30.9612 63.0099C31.368 63.1332 31.784 63.2238 32.2052 63.2808C32.906 63.4005 33.4632 62.929 34.1115 62.929C35.9968 62.9888 37.8996 63.2034 39.7603 62.8199C40.8116 62.6053 41.8103 62.8903 42.802 62.7883C44.8227 62.5683 46.8612 62.5683 48.8819 62.7883C50.2081 62.9668 51.5542 62.9324 52.8697 62.6862C53.8264 62.4892 53.6581 62.1163 53.1956 61.6307C52.5894 61.015 51.8675 60.5049 51.2788 59.8716C49.008 57.4404 47.8902 54.4217 47.0737 51.2692C46.9833 50.8045 46.9833 50.3266 47.0737 49.8619C47.0912 49.7099 47.1623 49.5692 47.2741 49.4653C47.3859 49.3614 47.5311 49.3012 47.6834 49.2955C47.9357 49.2955 48.0584 49.5453 48.0338 49.8091C47.9638 51.5261 48.7347 53.0284 49.2849 54.573C49.9654 56.4808 51.1283 58.1782 52.6594 59.4986C53.5888 60.3175 54.3971 61.2652 55.0598 62.3133C56.8856 65.1702 57.8632 68.393 58.9776 71.6123C59.3042 71.4812 59.5771 71.2432 59.752 70.9367C60.1024 70.4125 60.551 69.8109 60.9505 70.9367C61.0591 71.2464 61.2098 71.1689 61.385 71.0247C61.5602 70.8804 61.7354 70.6201 61.9667 70.898C62.4363 71.4786 62.8708 71.5137 63.3404 70.898C63.403 70.8155 63.4955 70.761 63.5978 70.7465C63.7002 70.732 63.8041 70.7587 63.887 70.8206C64.3286 71.1373 64.5879 70.7573 64.679 70.5145C65.0645 69.5294 65.6462 68.5865 65.4044 67.436C65.3195 67.1076 65.3582 66.7594 65.513 66.4579C66.2558 65.0582 66.8007 63.5614 67.132 62.0107C67.6716 59.6147 68.2043 57.2223 68.2043 54.7489C68.2043 53.4084 68.0886 52.0679 68.0536 50.7344C67.9764 48.9426 67.7098 47.164 67.2581 45.4288C66.6414 42.8921 66.1157 40.2744 64.5528 38.0896C63.3684 36.4289 62.4993 34.5149 60.6982 33.3257C59.2719 32.3723 57.625 31.7671 56.2688 30.7784C53.9385 29.0826 51.3068 28.6217 48.605 28.2136C46.8109 27.9427 45.0237 27.6049 43.219 27.4501C41.6807 27.3164 40.1178 27.4501 38.5724 27.3762C37.3774 27.3305 36.3542 27.9532 35.2048 28.108C34.3064 28.2865 33.5032 28.7867 32.9446 29.5154C31.9809 30.6377 31.1925 31.9043 30.015 32.8507C29.7102 33.097 29.4298 33.5544 29.0303 33.0935C28.6309 32.6326 28.9322 32.1999 29.3597 31.9219C29.7581 31.711 30.1144 31.4283 30.411 31.0881C31.3749 29.8524 32.4043 28.6697 33.4947 27.5451C35.7725 25.1667 38.3166 23.0768 40.7345 20.8603C40.8572 20.7477 41.0219 20.628 40.9413 20.4451C40.8607 20.2621 40.6749 20.2938 40.4682 20.2797C39.1611 20.1918 37.8961 20.5401 36.6766 20.8251C34.8509 21.2508 32.9761 21.3845 31.1714 21.9087C30.9577 21.9735 30.7271 21.9506 30.5301 21.8451C30.3331 21.7396 30.1857 21.5601 30.1202 21.3458C29.973 20.8497 30.4531 20.8462 30.779 20.6738C31.9704 20.051 33.2319 19.5409 34.3638 18.8513C36.617 17.4721 38.9193 16.2266 41.2742 15.0057C43.1139 14.0488 44.9887 13.1164 46.4044 11.5191C46.555 11.3502 46.916 11.1497 46.7793 10.9808C46.3027 10.4073 45.8051 9.57349 45.1884 9.45387C44.0343 9.20557 42.842 9.196 41.6842 9.42572C37.7734 10.2349 33.7996 10.1293 29.8573 10.4214C27.8354 10.5726 25.7994 10.7732 23.7915 10.8682C22.6526 10.9245 21.6399 12.5429 20.4169 11.22C20.4169 11.22 20.3574 11.2376 20.3223 11.2411C19.3937 11.3643 18.4651 11.4733 17.5434 11.6176C16.6218 11.7618 15.914 12.0152 16.1628 13.1868C16.2259 13.4718 16.0506 13.6758 15.8649 13.9362C15.3288 14.6785 14.6735 14.8721 13.8219 14.8685C13.2823 14.8685 12.634 14.58 12.2065 15.1113C11.2514 16.2088 10.4454 17.4285 9.80959 18.7387C8.86344 20.906 8.01542 23.1155 7.16389 25.3215C5.80424 28.8398 5.82176 32.5306 5.32416 36.1545C5.17051 37.6256 5.2153 39.1109 5.45732 40.57C5.76219 42.8323 5.90236 45.1438 6.71885 47.2794C8.07499 50.7978 9.38207 54.3794 11.9156 57.3384C12.8197 58.3728 13.4155 59.6745 14.9188 60.0686ZM65.534 44.4261C66.2349 44.5316 66.3365 45.179 66.5853 45.654C66.5678 46.0058 66.4031 46.2486 66.1017 46.2099C65.4429 46.1289 65.117 45.6399 64.9909 45.0453C64.9617 44.9663 64.9543 44.8808 64.9694 44.7979C64.9846 44.715 65.0218 44.6378 65.0771 44.5744C65.1323 44.5109 65.2037 44.4637 65.2835 44.4376C65.3633 44.4115 65.4486 44.4075 65.5305 44.4261H65.534ZM63.5506 44.507C63.7398 44.7286 63.9256 44.9468 63.8099 45.2705C63.7258 45.5097 63.7924 45.8897 63.477 45.9319C63.3501 45.9357 63.2254 45.8979 63.1217 45.8243C63.0181 45.7507 62.9411 45.6452 62.9023 45.5238C62.5694 44.7111 61.5847 44.2959 61.5182 43.3459C61.5847 43.1243 61.4376 42.871 61.7319 42.8041C61.8287 42.7718 61.9339 42.7753 62.0284 42.814C62.1228 42.8527 62.2004 42.9241 62.247 43.0152C62.5344 43.645 63.1196 44.0039 63.5471 44.507H63.5506ZM60.0008 36.5556C60.0595 36.4534 60.1516 36.3747 60.2615 36.333C60.3714 36.2913 60.4922 36.2892 60.6036 36.3269C61.5497 36.5309 62.9549 38.2725 62.9479 39.2647C62.9804 39.3916 62.9661 39.5261 62.9074 39.6431C62.8488 39.7602 62.7499 39.852 62.629 39.9015C62.3592 39.9965 62.1699 39.7397 62.0788 39.5497C61.602 38.6227 60.9286 37.8121 60.106 37.1748C60.0108 37.1062 59.9464 37.0028 59.9267 36.8868C59.907 36.7709 59.9337 36.6519 60.0008 36.5556ZM57.3761 39.0571C56.7815 38.5063 56.2449 37.8956 55.7747 37.2346C55.5049 36.8476 55.7992 36.5556 56.1952 36.5098C56.7874 36.545 58.1716 38.2444 58.1085 38.7827C58.0455 39.321 57.5479 39.2154 57.3691 39.0571H57.3761ZM54.9232 31.8621C54.9582 31.5841 55.214 31.6475 55.3998 31.644C55.9464 31.644 58.1331 33.1041 58.2943 33.6002C58.3146 33.6843 58.3252 33.7704 58.3258 33.857C58.3258 34.3496 58.0945 34.5184 57.7161 34.2651C56.8365 33.6846 56.0165 33.0161 55.0318 32.6009C54.7445 32.4919 54.8741 32.1154 54.9057 31.8797L54.9232 31.8621ZM53.8719 37.4246C53.7107 37.9383 53.2482 37.7975 53.0414 37.5266C52.5368 36.8652 51.913 36.3198 51.4014 35.676C51.1631 35.3769 51.051 34.8914 51.9516 34.8703C52.4667 34.8492 54.0716 36.7244 53.8509 37.4246H53.8719ZM48.4368 30.0642C48.5735 29.5611 49.0255 29.9868 49.2183 29.8074C50.1119 29.8531 50.7636 30.3035 51.4189 30.7327C51.5439 30.8222 51.6299 30.9563 51.6592 31.1075C51.6885 31.2587 51.659 31.4155 51.5766 31.5454C51.4259 31.8727 51.1596 31.841 50.8197 31.753C50.0523 31.5595 49.6002 30.7433 48.7172 30.7397C48.6015 30.7433 48.3738 30.3351 48.4368 30.0642ZM45.0377 30.1909C45.311 30.0713 45.4828 30.0079 45.7386 30.2472C46.138 30.6377 46.5796 30.9825 47.0106 31.3414C47.1132 31.4298 47.1851 31.5487 47.2159 31.6809C47.2468 31.8131 47.235 31.9517 47.1823 32.0767C47.1122 32.3054 46.8564 32.3371 46.6847 32.3723C45.8332 32.0978 45.1043 31.7319 44.8204 30.8629C44.7574 30.6483 44.6838 30.3492 45.0517 30.1874L45.0377 30.1909ZM42.7775 33.0056C42.7459 32.7417 42.9317 32.6924 43.1559 32.6537C43.5835 32.6115 45.7105 33.5368 45.8963 33.8887C45.9734 34.0496 46.0114 34.2267 46.0071 34.4053C46.0028 34.5839 45.9564 34.7589 45.8717 34.916C44.9651 34.3963 44.0052 33.9763 43.0088 33.6635C42.6338 33.5228 42.83 33.2202 42.7915 32.988L42.7775 33.0056ZM38.9228 29.4872C39.9379 29.4853 40.9476 29.6347 41.9189 29.9305C42.0133 29.9718 42.0887 30.0472 42.1302 30.1417C42.1718 30.2362 42.1764 30.3429 42.1432 30.4407C42.0696 30.7503 41.8454 30.8312 41.5475 30.8594C41.0394 30.9086 40.6084 30.4477 40.2965 30.6096C39.7884 30.6553 39.4379 30.5885 39.2032 30.7292C38.7091 31.0247 38.5409 30.7292 38.3972 30.3774C38.3473 30.2831 38.3224 30.1775 38.3249 30.0708C38.3274 29.9641 38.3571 29.8598 38.4113 29.7679C38.4655 29.6761 38.5423 29.5997 38.6343 29.5463C38.7263 29.4928 38.8305 29.464 38.9368 29.4626L38.9228 29.4872ZM38.2745 34.6944C38.9672 34.6505 39.6514 34.8661 40.1949 35.2995C40.2389 35.3229 40.2774 35.3554 40.3079 35.3949C40.3384 35.4344 40.3602 35.4799 40.3718 35.5285C40.3834 35.5771 40.3846 35.6276 40.3752 35.6767C40.3658 35.7258 40.3462 35.7723 40.3175 35.8132C40.1598 36.1474 39.8339 36.1122 39.2873 36.0911C38.8595 35.9663 38.4183 35.8942 37.9732 35.8765C37.9136 35.8784 37.8543 35.867 37.7996 35.843C37.7449 35.8191 37.6963 35.7833 37.657 35.7382C37.6178 35.6931 37.589 35.6398 37.5728 35.5822C37.5566 35.5246 37.5533 35.4641 37.5632 35.4051C37.5741 35.2196 37.6526 35.0446 37.7838 34.9135C37.915 34.7824 38.0897 34.7044 38.2745 34.6944ZM33.7926 30.4724C34.4935 30.2718 35.2469 30.1698 35.8952 30.687C36.3507 31.0564 36.0599 31.2042 35.6814 31.4505C34.9525 31.9289 34.101 31.0107 33.3791 31.9465C33.302 31.2253 33.1163 30.6659 33.7821 30.4724H33.7926ZM30.7369 33.6072C31.3221 33.192 32.0265 33.2026 32.7168 33.28C32.8745 33.28 32.9025 33.4383 32.899 33.5826C32.8934 33.7176 32.8467 33.8476 32.7653 33.9551C32.6838 34.0627 32.5715 34.1426 32.4435 34.1842C31.9459 34.3249 31.4167 34.3285 30.9612 34.6416C30.821 34.7366 30.6563 34.5607 30.5652 34.4199C30.4881 34.2891 30.4623 34.1341 30.4927 33.9852C30.5232 33.8362 30.6077 33.704 30.7299 33.6142L30.7369 33.6072ZM24.0789 12.849C24.3347 12.2755 24.9689 12.7294 25.3264 12.5887C26.262 12.5887 27.0785 12.5887 27.7513 13.2923C27.9966 13.5492 28.1017 13.7497 28.0281 14.0417C27.9876 14.1709 27.8991 14.2794 27.781 14.3449C27.663 14.4104 27.5244 14.4278 27.3939 14.3936C26.7364 14.3391 26.0747 14.4193 25.449 14.6293C24.8182 14.8122 24.5449 14.4041 24.212 14.0628C24.0758 13.8961 23.991 13.6932 23.968 13.4788C23.945 13.2645 23.9847 13.0481 24.0824 12.856L24.0789 12.849Z" fill="#A49F95"/>
<path d="M14.8037 14.3215C15.6539 18.2954 15.5763 21.0677 17.3403 24.8624C18.7762 27.9508 20.9882 32.0266 24.4491 33.295C28.6121 34.8199 30.3514 31.0322 32.7398 28.4357C35.1283 25.8391 37.9259 23.7275 40.3849 21.2925C41.0905 20.5898 41.6903 20.1963 41.8173 19.2792C40.4061 19.1492 39.0619 20.0417 37.619 20.1822C35.855 20.3544 34.1404 19.9503 32.5352 20.6671C35.1918 19.4479 37.7425 17.7543 40.2614 16.2505C41.9901 15.2175 47.275 13.0883 47.5114 10.822C47.8642 7.39273 40.1344 8.99142 38.0918 9.17062C34.4121 9.49387 30.616 9.30062 26.8023 9.63793C23.5107 9.92955 15.848 9.10034 15.0436 13.1515L14.8037 14.3215Z" fill="white"/>
<path d="M48.5185 64.2065C47.9899 64.2645 47.5291 64.0154 47.0361 63.9574C45.9145 63.8346 44.7821 63.3329 43.6605 63.7492C43.0599 63.9631 42.4153 64.0402 41.778 63.9745C41.2946 63.9194 40.8044 63.9768 40.3492 64.1417C40.1027 64.2407 39.7098 64.3464 39.8277 64.6365C40.3599 65.9265 40.3456 67.2779 40.4707 68.6225C40.4921 68.8545 40.4707 69.3767 40.8957 69.404C41.1851 69.4245 41.328 69.0627 41.4851 68.7999C41.5559 68.6501 41.6728 68.5245 41.8202 68.4398C41.9676 68.355 42.1386 68.3152 42.3103 68.3256C42.8354 68.3631 42.5568 68.7761 42.6961 68.9842C42.8354 69.1924 42.8961 69.6668 43.3283 69.4825C43.9284 69.1685 44.0106 69.4825 44.1213 69.892C44.1713 70.0694 44.2678 70.5575 44.5321 70.3083C45.1786 69.7043 45.8145 69.2026 46.7682 69.1787C46.879 69.1787 46.979 68.8716 47.0826 68.7112C47.8648 67.51 48.0827 66.063 48.9579 64.8925C49.1544 64.616 49.1258 64.1383 48.5185 64.2065Z" fill="#A49F95"/>
<path d="M95.1387 59.7442C94.9273 60.0032 95.1595 60.6171 95.5546 60.8087C97.0691 60.4822 98.6737 60.1984 100.223 59.7442C101.9 59.2723 103.266 57.374 103.065 55.6637C103.033 55.4011 103.023 55.167 102.694 55.2273C100.892 55.5821 99.1485 54.7696 97.3429 54.9789C96.674 55.057 96.3967 55.167 96.473 55.8908C96.6185 57.3882 96.0467 58.6371 95.1387 59.7442Z" fill="#FF7557"/>
<path d="M103.976 58.8714C104.994 58.6338 109.816 55.8781 111.418 54.683C110.573 54.5222 105.028 54.7853 104.261 55.202C104.044 55.3189 103.857 55.2751 104 55.6661C104.339 56.62 103.85 57.4935 103.613 58.356C103.568 58.5205 103.249 58.5863 103.47 58.8494C103.643 59.0504 103.786 58.9152 103.976 58.8714Z" fill="#FF7557"/>
<path d="M71.2908 60.9842C73.1585 61.483 75.0833 61.7352 77.0164 61.7346C81.3517 61.6504 85.6871 61.6504 90.0154 61.2998C91.3776 61.1911 92.6383 61.2472 93.7344 59.9604C94.7463 58.849 95.3255 57.4104 95.3663 55.907C95.3873 55.2583 95.0861 54.6342 94.2702 54.6377C92.3722 54.6377 90.6247 53.8137 88.7372 53.6769C87.9423 53.6208 87.7742 53.8803 87.9598 54.4238C88.2785 55.3565 87.9598 56.198 87.7006 57.008C87.2315 58.4286 86.2484 59.6219 84.9446 60.3531C84.8402 60.4369 84.7125 60.4862 84.5789 60.4944C84.4454 60.5026 84.3126 60.4691 84.1987 60.3987C83.9851 60.2198 84.2268 60.048 84.3773 59.9323C85.1152 59.4326 85.7331 58.7753 86.1866 58.0077C86.6402 57.2401 86.9181 56.3813 87.0003 55.4932C87.1263 54.4028 86.7901 53.2702 86.0723 53.0388C84.6451 52.5839 83.1835 52.245 81.7019 52.0254C81.3517 51.9693 80.97 51.9728 81.1206 52.5198C81.5443 54.0872 81.1416 55.5213 80.3642 56.8642C79.6638 58.0915 79.1595 59.494 77.9129 60.325C77.6257 60.5144 77.2125 60.9877 76.9148 60.5179C76.6627 60.1287 77.7097 59.7535 77.7798 59.6483C78.7638 58.1721 79.7058 56.6609 80.2311 54.9498C80.6934 53.435 79.9334 51.4995 78.7918 51.0507C77.5136 50.5493 76.2249 50.0584 74.9397 49.5464C74.7506 49.4693 74.5615 49.315 74.3829 49.4272C74.0678 49.6236 74.6456 51.1243 74.6596 51.7029C74.7261 55.1672 73.8542 58.2843 71.2908 60.9842Z" fill="#FF7557"/>
<path d="M16.324 75.2685C17.1584 73.8257 18.5678 72.7471 19.0095 71.0661C19.0691 70.835 19.0656 70.5969 19.3601 70.5689C19.7547 72.2343 20.0416 73.9234 20.2191 75.6257C20.3488 76.6518 19.9211 77.9755 18.6975 78.1436C18.5122 78.1652 18.3414 78.2543 18.2178 78.3939C18.0943 78.5335 18.0266 78.7137 18.0279 78.9C18.0033 79.2852 18.0279 79.6004 18.4977 79.772C18.7255 79.8205 18.928 79.9496 19.0679 80.1357C19.2077 80.3217 19.2754 80.552 19.2584 80.7841C19.2584 81.6491 19.8755 81.9642 20.6363 81.7226C21.2218 81.537 21.4181 81.635 21.4637 82.2339C21.5163 82.9343 22.0702 83.2354 22.568 82.8887C24.4893 81.551 26.5473 80.4024 27.3852 77.888C27.862 76.4592 28.2056 74.9918 28.7034 73.577C29.6185 70.9856 29.8499 68.2961 29.92 65.5821C29.9551 64.1813 32.1498 64.4825 32.5319 64.3949C34.1937 64.0167 35.8696 64.3004 37.5349 64.2128C37.8855 64.1953 38.2361 64.1603 38.3763 64.563C38.8005 65.8762 39.4667 67.0564 39.2598 68.6043C38.8496 71.6405 38.5586 74.6136 35.4839 76.3086C35.2631 76.4311 34.8599 76.6588 35.0352 77.009C35.1065 77.1977 35.2288 77.3631 35.3884 77.4867C35.5481 77.6104 35.7389 77.6874 35.9397 77.7093C36.2061 77.7093 36.4761 77.7093 36.7461 77.7093C36.9424 77.7093 37.1668 77.7094 37.1808 77.986C37.2369 79.1662 37.917 78.9631 38.7024 78.7389C39.053 78.6374 39.5403 78.3117 39.7927 79.0261C40.0872 79.8631 40.8024 80.0101 41.437 79.4043C43.9525 76.9615 45.9476 74.036 47.3024 70.8035C48.0492 69.091 48.5926 67.277 49.6654 65.7152C50.0651 65.1303 50.3666 64.4825 51.1449 64.2548C52.1173 64.0269 53.1172 63.9385 54.1145 63.9922C54.2476 63.9775 54.3817 64.0083 54.495 64.0795C54.6083 64.1508 54.6942 64.2582 54.7385 64.3844C55.2153 65.5751 55.9656 66.6222 56.3933 67.8478C57.0174 69.6338 57.1436 71.5179 57.6204 73.3214C57.9114 74.4245 57.5222 75.1144 56.7194 75.6887C56.1058 76.13 55.4187 76.4662 54.7981 76.9004C54.3529 77.2121 54.125 77.6008 54.6298 78.1086C55.331 78.809 56.5266 79.1347 56.2706 80.5039C56.2857 80.5779 56.3174 80.6474 56.3633 80.7073C56.4093 80.7672 56.4683 80.8158 56.5358 80.8496C56.6034 80.8833 56.6778 80.9013 56.7533 80.9021C56.8288 80.9028 56.9036 80.8864 56.9718 80.8541C57.2313 80.735 57.5748 80.8086 57.8448 80.7C58.4198 80.4689 58.8265 80.3813 59.0368 81.1833C59.135 81.5615 59.5452 81.7296 60.0886 81.628C61.491 81.3549 62.108 80.4724 62.5428 79.1767C63.2825 76.9774 63.7137 74.6802 64.6708 72.5405C65.2143 71.3218 66.0136 70.1977 66.1924 68.8179C66.3116 67.9074 67.8262 63.3898 68.0786 61.9225C68.1838 61.3132 68.4748 61.3307 68.913 61.5723C69.4626 61.9226 70.0706 62.1716 70.7081 62.3078C72.9308 62.5599 75.1115 63.1937 77.3694 63.0957C80.0865 62.9766 82.8071 62.9101 85.5242 62.777C87.8767 62.6614 90.2361 62.721 92.5676 62.2237C93.1987 62.0906 94.4924 61.5233 94.1348 63.2288C94.1032 63.3828 94.282 63.579 94.3837 63.7576C94.6431 64.2128 95.0428 63.8941 95.3653 63.8906C95.6879 63.8871 95.8492 63.6245 95.9158 63.3023C95.9964 62.9066 95.7229 62.8015 95.46 62.6439C95.1971 62.4864 94.8079 62.5039 94.7203 62.0556C96.3961 61.7544 98.0579 61.5408 99.6776 61.1451C101.431 60.7214 103.184 60.3046 104.814 59.5727C107.11 58.5221 109.372 57.4365 111.643 56.3019C112.87 55.682 113.835 54.8101 114.883 54.0011C115.065 53.8547 115.211 53.6691 115.311 53.4583C115.451 53.1816 115.51 53.003 115.255 52.7579C115.174 52.6524 115.056 52.5808 114.925 52.5568C114.795 52.5329 114.659 52.5584 114.546 52.6283C111.927 53.6264 109.154 53.8855 106.402 54.0501C104.26 54.1762 102.093 54.1517 99.9336 54.1412C96.908 54.1412 93.9735 53.5178 91.0635 52.9645C89.1353 52.6143 87.207 52.2361 85.2998 51.7073C83.07 51.084 80.7596 50.7548 78.5999 49.8618C76.3211 48.9425 74.1391 47.8 72.0859 46.4509C71.1198 45.7832 70.2152 45.0308 69.3828 44.2026C68.331 43.1766 66.3853 39.2544 66.0066 38.638C65.5578 37.9096 65.1477 37.1532 64.6463 36.4598C63.5945 35.024 62.7286 33.4551 61.2035 32.4115C59.9694 31.5711 53.4483 27.9886 51.201 27.6419C49.0975 27.3127 46.9939 26.8364 44.8623 26.6193C42.1733 26.3462 39.5087 26.073 36.7987 26.4687C36.6023 26.4967 36.2903 26.01 36.5006 25.8349C37.6716 24.8613 38.8847 23.9368 40.0066 22.9107C40.9979 22.0881 41.8783 21.1405 42.6255 20.0917C43.0918 19.3703 42.8885 19.0061 42.0365 19.0096C40.845 19.0274 39.658 19.1599 38.492 19.4053L34.4567 20.2037C34.6039 19.9551 34.639 19.8045 34.7337 19.7485C36.1991 18.866 37.6155 17.8819 39.1546 17.1605C40.6341 16.4601 42.0015 15.5636 43.516 14.9368C45.8966 13.9527 47.4111 11.8901 49.2517 10.2372C49.4662 10.0453 49.6153 9.79121 49.6782 9.51054C49.741 9.22988 49.7145 8.93662 49.6023 8.67174C49.413 8.19548 45.0972 8.51415 43.6212 8.46863C41.625 8.46827 39.6319 8.62753 37.6611 8.94489C36.3253 9.11999 34.9896 9.02544 33.6643 9.15151C31.0103 9.40015 28.3493 9.5017 25.6883 9.52972C25.222 9.52972 24.903 9.52972 25.1484 8.87135C25.3592 8.35158 25.4406 7.7885 25.3856 7.2304C25.3307 6.6723 25.141 6.13585 24.8329 5.66706C24.1527 4.59897 22.2911 3.61842 21.1587 5.00519C20.6436 5.60247 20.2679 6.30662 20.0588 7.06671C19.8496 7.8268 19.8121 8.62383 19.9491 9.40015C20.0508 10.0516 19.9 10.3597 19.2059 10.3422C18.2803 10.3177 15.5246 10.6294 15.3844 10.1566C15.0759 9.10598 14.4167 8.28652 13.7892 7.44956C12.4184 5.61453 10.9844 5.65655 9.70827 7.47407C8.2498 9.55423 8.958 12.1107 10.2973 13.4485C11.3491 14.499 11.3315 14.499 10.2166 15.6267C10.1363 15.7344 10.0703 15.8521 10.0203 15.9769C9.19889 17.3517 8.47602 18.7829 7.85714 20.2598C6.93858 22.6131 5.96744 24.9419 5.26975 27.3722C4.48793 30.0862 4.36522 32.9088 4.10578 35.6894C3.75519 39.3769 4.31965 43.0435 5.15756 46.647C5.58529 48.5275 6.44775 50.2085 7.21906 51.9385C7.81857 53.2797 8.28837 54.677 8.89139 56.0147C10.6276 59.7535 10.921 64.0009 9.71528 67.9424C8.62494 71.623 7.44694 75.2965 4.83502 78.2802C4.69548 78.4292 4.62051 78.6272 4.62642 78.8312C4.63232 79.0352 4.71864 79.2286 4.86657 79.3693C5.1751 79.6669 5.51166 79.5304 5.84823 79.2782C6.29744 78.8746 6.8609 78.6201 7.46097 78.5498C7.46097 78.7634 7.46097 78.9631 7.50654 79.1557C7.67132 80.0942 8.04646 80.3078 8.90892 79.9191C9.46987 79.6634 9.45935 79.9961 9.547 80.4024C9.74684 81.3164 10.4936 81.593 11.1212 80.9907C12.9898 79.2012 15.0022 77.5553 16.324 75.2685ZM48.81 64.9062C47.951 66.1039 47.7372 67.5922 46.9694 68.8249C46.8677 68.993 46.7695 69.3012 46.6609 69.3047C45.7248 69.3327 45.0972 69.844 44.4661 70.4638C44.2067 70.7194 44.1155 70.2187 44.063 70.0366C43.9578 69.6338 43.8736 69.2977 43.2846 69.6163C42.8604 69.8054 42.8183 69.3572 42.6641 69.105C42.5098 68.8529 42.8008 68.4677 42.2854 68.4292C42.1169 68.4185 41.9491 68.4594 41.8045 68.5463C41.6598 68.6333 41.5451 68.7622 41.4756 68.9159C41.3213 69.1856 41.1776 69.5533 40.8971 69.5358C40.4869 69.5078 40.5009 68.972 40.4799 68.7338C40.3572 67.3576 40.3712 65.9673 39.8488 64.6436C39.7331 64.3494 40.1188 64.2408 40.3607 64.1358C40.8075 63.9666 41.2886 63.9077 41.7631 63.9642C42.3885 64.0317 43.0212 63.9525 43.6107 63.733C44.7116 63.3058 45.8229 63.8206 46.9238 63.9467C47.4111 64.0027 47.8634 64.2618 48.3788 64.2023C48.9853 64.1323 49.0133 64.6225 48.81 64.9062ZM103.454 58.326C103.699 57.4821 104.204 56.6661 103.853 55.7486C103.709 55.3774 103.902 55.4194 104.123 55.3038C104.916 54.9046 110.641 54.6525 111.514 54.8066C109.859 55.9482 104.877 58.5922 103.829 58.8198C103.632 58.8618 103.478 58.9949 103.306 58.7988C103.078 58.5466 103.408 58.4836 103.454 58.326ZM97.3672 55.0797C99.1938 54.8731 100.961 55.6645 102.78 55.3248C103.113 55.2618 103.131 55.4929 103.156 55.7556C103.359 57.4435 101.981 59.3171 100.281 59.7828C98.6995 60.2171 97.0938 60.4832 95.5582 60.8334C95.1585 60.6513 94.9236 60.0455 95.1375 59.7828C96.056 58.6867 96.6345 57.4575 96.4802 55.9902C96.4031 55.2758 96.666 55.1638 97.3672 55.0797ZM74.4524 49.5046C74.6312 49.3925 74.803 49.5466 75.0099 49.6237C76.286 50.1384 77.5727 50.6252 78.8664 51.126C80.0128 51.5743 80.7701 53.5108 80.3073 55.0202C79.7849 56.7291 78.8454 58.2385 77.8532 59.7128C77.7831 59.8144 76.7348 60.1891 76.9872 60.5813C77.2957 61.0505 77.6884 60.5813 77.9864 60.3887C79.245 59.5587 79.7394 58.1579 80.4406 56.9322C81.2189 55.591 81.6221 54.1622 81.1978 52.5933C81.0471 52.047 81.4468 52.04 81.7798 52.0995C83.2611 52.3226 84.722 52.6646 86.1482 53.1221C86.8494 53.3673 87.2 54.4984 87.0773 55.5735C86.995 56.4604 86.7168 57.3181 86.2627 58.0848C85.8087 58.8514 85.19 59.5079 84.4514 60.007C84.3006 60.112 84.0587 60.2976 84.2725 60.4727C84.3865 60.5431 84.5194 60.5765 84.6532 60.5683C84.7869 60.5602 84.9148 60.5109 85.0193 60.4272C86.3245 59.6969 87.3089 58.5051 87.7785 57.0863C88.0519 56.2774 88.357 55.4334 88.0379 54.5054C87.8521 53.9591 88.0204 53.7034 88.8162 53.7595C90.7024 53.896 92.4519 54.7295 94.3556 54.719C95.169 54.719 95.474 55.3389 95.453 55.9867C95.4121 57.4882 94.8323 58.925 93.8192 60.035C92.7184 61.3202 91.4597 61.2607 90.0959 61.3727C85.7626 61.7229 81.4222 61.7229 77.0819 61.807C75.1466 61.8076 73.2196 61.5557 71.3497 61.0576C73.916 58.361 74.789 55.2478 74.7189 51.7809C74.7084 51.21 74.1299 49.7112 74.4454 49.5151L74.4524 49.5046ZM69.9999 46.3528C70.8308 46.9447 71.6547 47.5435 72.5242 48.0723C72.6698 48.1493 72.7858 48.2725 72.8537 48.4225C73.5549 50.7443 74.0072 53.0801 73.4988 55.528C73.2253 56.8447 72.447 57.9163 71.9632 59.128C70.354 62.2447 68.601 59.8774 68.6641 59.3836C68.8984 57.7432 69.0447 56.0914 69.1024 54.4354C69.1339 53.1186 69.0813 51.8124 68.9832 50.4957C68.8288 48.6912 68.5488 46.8997 68.1452 45.1342C69.1094 45.2357 69.4424 45.9746 69.9929 46.3598L69.9999 46.3528ZM6.54241 47.2633C5.72202 45.1447 5.58529 42.8404 5.28027 40.5851C5.04344 39.1344 5.00334 37.6585 5.16107 36.1972C5.65891 32.5901 5.64138 28.9201 7.00169 25.4146C7.85363 23.2189 8.70207 21.0197 9.64867 18.8625C10.2848 17.5584 11.0912 16.3443 12.0467 15.252C12.4745 14.7197 13.1231 15.0068 13.663 15.0103C14.5114 15.0103 15.1705 14.8212 15.7069 14.0823C15.8963 13.8232 16.0575 13.6165 16.0049 13.3364C15.7525 12.1702 16.5098 11.9111 17.3863 11.7745C18.2628 11.6379 19.2374 11.5224 20.1665 11.3998C20.198 11.3998 20.2471 11.3648 20.2611 11.3788C21.4812 12.692 22.4944 11.0811 23.6374 11.0286C25.6463 10.9305 27.6832 10.7344 29.7061 10.5838C33.6538 10.2897 37.626 10.3982 41.5387 9.59276C42.6971 9.3641 43.89 9.37364 45.0446 9.62077C45.6617 9.75385 46.1595 10.5698 46.6363 11.1407C46.7766 11.3053 46.4119 11.4909 46.2612 11.6765C44.8588 13.2628 42.9691 14.1944 41.1285 15.1469C38.7865 16.3586 36.4691 17.5983 34.2148 18.9745C33.0824 19.6749 31.8202 20.1687 30.6282 20.7886C30.3021 20.9566 29.8218 20.9637 29.9691 21.4574C30.0346 21.6707 30.1821 21.8494 30.3792 21.9544C30.5763 22.0594 30.807 22.0822 31.0209 22.0177C32.8264 21.4959 34.7021 21.3629 36.5287 20.9391C37.7488 20.6555 39.0144 20.3123 40.3221 20.3963C40.5325 20.3963 40.7078 20.3613 40.7954 20.5609C40.8831 20.7605 40.7113 20.8586 40.5886 20.9742C38.1695 23.1944 35.6242 25.2746 33.3453 27.6279C32.2543 28.7473 31.2244 29.9244 30.2601 31.1543C29.9633 31.493 29.6068 31.7743 29.2083 31.9843C28.7841 32.261 28.4756 32.6847 28.8787 33.1505C29.2819 33.6162 29.5589 33.1505 29.8639 32.9088C31.0279 31.9668 31.8307 30.7061 32.7949 29.589C33.3537 28.8637 34.1574 28.3659 35.0562 28.1882C36.2062 28.0341 37.2334 27.4108 38.4254 27.4598C39.975 27.5193 41.5352 27.4002 43.0743 27.5333C44.8798 27.6874 46.6679 28.0271 48.4629 28.2932C51.1625 28.6995 53.7954 29.1582 56.1304 30.8462C57.4872 31.8302 59.135 32.4326 60.5619 33.3816C62.3464 34.5652 63.2159 36.4738 64.4184 38.1232C65.9821 40.298 66.522 42.9034 67.125 45.4283C67.5769 47.1555 67.8437 48.9258 67.9209 50.7093C67.9594 52.0365 68.0716 53.3708 68.0716 54.705C68.0716 57.1564 67.5352 59.5482 66.9988 61.933C66.6674 63.4765 66.1222 64.9663 65.3791 66.3595C65.2242 66.6596 65.1855 67.0062 65.2704 67.3331C65.5158 68.4782 64.9198 69.4342 64.5446 70.3973C64.45 70.6389 64.194 71.0171 63.7523 70.7019C63.6693 70.6403 63.5654 70.6137 63.463 70.6282C63.3606 70.6426 63.268 70.6968 63.2054 70.779C62.7356 71.3848 62.3043 71.3463 61.831 70.779C61.6067 70.5023 61.4244 70.7615 61.2491 70.9051C61.0738 71.0486 60.923 71.1257 60.8143 70.8175C60.4146 69.7074 59.9799 70.3062 59.6153 70.8175C59.4331 71.1345 59.1452 71.3774 58.8019 71.5039C57.6765 68.2996 56.6984 65.0918 54.8823 62.2482C54.2192 61.205 53.4105 60.2617 52.4807 59.4467C50.9488 58.1324 49.7853 56.4429 49.1045 54.5439C48.5541 53.0066 47.7828 51.5112 47.8529 49.8023C47.8529 49.5396 47.7442 49.2945 47.5023 49.291C47.3499 49.2967 47.2047 49.3567 47.0928 49.4601C46.9809 49.5635 46.9097 49.7035 46.8922 49.8548C46.8019 50.3174 46.8019 50.793 46.8922 51.2556C47.7126 54.4073 48.8345 57.3945 51.0994 59.8179C51.6884 60.4482 52.4106 60.9525 53.0171 61.5688C53.4799 62.0381 53.6482 62.4093 52.6911 62.6194C51.375 62.8644 50.0282 62.8987 48.7013 62.721C46.6796 62.5021 44.6402 62.5021 42.6185 62.721C41.6263 62.819 40.6166 62.5389 39.5754 62.7525C37.7102 63.1342 35.81 62.9206 33.9238 62.8611C33.2752 62.84 32.7177 63.3268 32.0166 63.2113C31.5952 63.1545 31.179 63.0643 30.7719 62.9416C30.6624 62.921 30.5581 62.879 30.4649 62.818C30.3717 62.757 30.2915 62.6781 30.2289 62.586C30.1663 62.4939 30.1226 62.3903 30.1003 62.2813C30.078 62.1722 30.0775 62.0598 30.0988 61.9505C30.1409 60.8019 30.2566 59.6182 29.3976 58.6377C28.9138 58.8303 28.8332 59.2365 28.8963 59.6883C29.0731 61.371 29.0861 63.0669 28.9348 64.7521C28.8191 66.7727 28.6684 68.7864 28.444 70.772C28.0934 70.9086 28.0934 70.6214 28.0023 70.4708C27.6517 69.823 27.2555 69.928 26.8453 70.3833C26.67 70.5794 26.5823 70.8665 26.3825 71.0171C26.0635 71.2588 25.6813 71.784 25.4254 70.877C25.2256 70.1942 24.7803 70.0471 24.2229 70.6949C23.7881 71.2062 23.2938 71.8226 22.7363 70.6949C22.4979 70.2152 22.0772 70.3657 21.8213 70.835C21.667 71.1222 21.4987 71.5144 21.1201 71.3778C20.8256 71.2763 20.7029 70.9471 20.6012 70.5899C19.9666 68.3346 19.7247 65.9218 18.1997 63.9957C17.1829 62.7105 16.1206 61.4638 15.0724 60.2066C14.9776 60.1085 14.8554 60.0414 14.7218 60.014C13.2212 59.6358 12.6182 58.326 11.7172 57.2719C9.20692 54.3373 7.89921 50.7863 6.54241 47.2703V47.2633ZM13.4912 68.6988C13.1581 67.6097 12.9092 67.5922 11.9801 68.3241C11.7663 68.4922 11.5489 68.7548 11.2789 68.5797C11.009 68.4046 11.3455 68.0755 11.3 67.8794C10.8968 66.0093 11.8995 64.1883 11.3946 62.2762C11.1212 61.2466 11.4858 60.1085 11.2579 59.0019C11.8153 60.014 15.1355 62.1747 15.3914 62.4793C16.4888 63.7961 17.6948 65.0253 18.3644 66.6572C18.7816 67.6797 18.5818 69.3152 17.8175 70.1031C17.7088 70.2152 17.6107 70.3973 17.4178 70.3097C17.3432 70.2709 17.2823 70.2101 17.2434 70.1356C17.2045 70.061 17.1895 69.9763 17.2005 69.893C17.2133 69.6912 17.2133 69.4889 17.2005 69.2871C17.1268 68.5027 16.643 68.2681 16.0084 68.7093C15.7357 68.9477 15.441 69.1599 15.1285 69.3432C14.3957 69.6864 13.8032 69.7249 13.4912 68.7023V68.6988Z" fill="black"/>
<path d="M45.6383 5.8648C45.9157 5.47549 46.2597 5.27905 46.4528 4.83259C47.0565 3.44323 47.6252 2.011 48.7977 0.97523C49.0645 0.739502 49.1803 0.482345 48.9206 0.189471C48.6608 -0.103403 48.4081 -0.0283994 48.1413 0.221615C46.7547 1.5324 46.0561 3.29322 45.1469 4.91474C44.8415 5.42549 45.361 5.50406 45.6383 5.8648Z" fill="black"/>
<path d="M47.6771 5.37923C48.0346 5.79138 48.4101 5.37923 48.6461 5.18615C49.4316 4.52907 50.2771 3.95328 51.1705 3.46701C51.3421 3.37419 51.5817 3.34448 51.5281 2.89892C51.2635 2.31226 50.7307 2.40137 50.248 2.7207C49.49 3.23429 48.7572 3.78699 48.0525 4.37671C47.7486 4.61063 47.2766 4.90025 47.6771 5.37923Z" fill="black"/>
<path d="M89.4471 63.2812C88.8523 63.3871 87.9935 63.4155 87.96 64.3681C87.934 65.1375 88.5363 65.1823 89.0531 65.1008C89.7185 65.1456 90.4175 65.1497 90.4286 64.2541C90.4265 64.1183 90.3989 63.9843 90.3476 63.8606C90.2964 63.7369 90.2224 63.626 90.1304 63.5348C90.0384 63.4436 89.9303 63.374 89.8128 63.3304C89.6953 63.2868 89.5708 63.2701 89.4471 63.2812Z" fill="black"/>
<path d="M50.6816 5.12816C50.8456 5.34772 51.0234 5.21336 51.184 5.12816C51.7913 4.81403 52.4193 4.53817 53.064 4.30233C53.3237 4.22368 53.8262 4.12864 53.6656 3.72883C53.5767 3.50599 53.1597 3.36507 52.7974 3.40112C52.0217 3.60903 51.3281 4.03337 50.8046 4.62021C50.6679 4.78734 50.5175 4.91515 50.6816 5.12816Z" fill="black"/>
<path d="M95.0626 50.0037C95.3016 49.6756 95.5896 49.3971 95.9136 49.1809C96.1016 49.0878 96.3622 48.9351 96.2764 48.5517C96.1907 48.1682 95.9103 48.1384 95.6167 48.157C95.3057 48.1565 95.002 48.2632 94.7462 48.4628C94.4904 48.6624 94.2946 48.9454 94.1852 49.2739C94.1256 49.4385 94.1163 49.6208 94.1587 49.7921C94.2011 49.9633 94.2928 50.1137 94.4194 50.2196C94.6404 50.4579 94.8713 50.1898 95.0626 50.0037Z" fill="black"/>
<path d="M100.228 52.155C100.871 52.155 101.232 51.8839 101.232 51.212C101.232 50.7615 101.011 50.605 100.617 50.6241C100.031 50.647 99.4386 50.8073 99.3817 51.5136C99.3482 51.9641 99.8435 52.2237 100.228 52.155Z" fill="black"/>
<path d="M102.769 62.8187C102.645 62.2373 101.932 62.2295 101.4 62.0435C101.3 62.5551 100.551 61.8342 100.619 62.3807C100.687 62.9273 100.972 63.6095 101.82 63.5863C102.349 63.5746 102.837 63.0668 102.769 62.8187Z" fill="black"/>
<path d="M88.6248 50.0053C88.8475 50.0069 89.0624 49.9047 89.2255 49.7195C89.3887 49.5344 89.4877 49.2802 89.5026 49.0089C89.4022 48.835 89.3989 48.3131 89.1074 48.5029C88.7252 48.752 88.0644 48.404 87.9608 49.1355C87.9546 49.2467 87.9671 49.3582 87.9977 49.4632C88.0282 49.5683 88.0761 49.6645 88.1383 49.7461C88.2006 49.8276 88.2758 49.8927 88.3595 49.9373C88.4432 49.9818 88.5335 50.005 88.6248 50.0053Z" fill="black"/>
<path d="M84.2941 48.1392C84.3803 48.2078 84.6555 48.0092 84.5328 47.7455C84.3074 47.2652 84.4864 46.5573 83.9924 46.3008C83.3889 46.3514 83.3292 46.662 83.3292 47.099C83.3193 47.8141 83.9261 47.8575 84.2941 48.1392Z" fill="black"/>
<path d="M108.289 62.2879C108.043 61.688 107.479 61.7078 106.788 61.7572C107.125 62.2912 106.987 63.0196 107.819 62.9669C107.905 62.9636 107.99 62.9413 108.065 62.9017C108.14 62.8622 108.203 62.8066 108.249 62.7398C108.295 62.673 108.323 62.597 108.33 62.5183C108.337 62.4396 108.323 62.3605 108.289 62.2879Z" fill="black"/>
<path d="M105.921 51.5486C106.446 51.5486 106.843 51.5202 106.782 51.1171C106.736 50.8021 106.457 50.6194 105.993 50.6226C105.528 50.6257 105.225 50.8367 105.246 51.136C105.275 51.4856 105.725 51.5423 105.921 51.5486Z" fill="black"/>
<path d="M84.1112 65.7468C84.4852 65.7299 84.4885 65.3215 84.5639 65.0716C84.5639 64.7577 84.5443 64.4572 84.2063 64.5214C83.9472 64.5686 83.6191 64.68 83.6388 65.0514C83.6584 65.3687 83.7339 65.7637 84.1112 65.7468Z" fill="black"/>
<path d="M25.3306 14.7659C25.9901 14.5528 26.6875 14.4714 27.3806 14.5266C27.5181 14.5614 27.6642 14.5437 27.7887 14.4773C27.9131 14.4108 28.0063 14.3007 28.0491 14.1696C28.1341 13.8733 28.0159 13.6698 27.7573 13.4092C27.0481 12.6951 26.1875 12.6951 25.2013 12.6951C24.832 12.8379 24.156 12.3774 23.8864 12.9593C23.7797 13.1574 23.7365 13.3816 23.7621 13.6035C23.7878 13.8254 23.8812 14.0349 24.0305 14.2053C24.3777 14.5481 24.6658 14.9622 25.3306 14.7659Z" fill="black"/>
<path d="M62.0589 39.4711C62.1512 39.6426 62.3394 39.8868 62.6163 39.801C62.7387 39.7546 62.839 39.6685 62.8984 39.5587C62.9578 39.4489 62.9723 39.3228 62.9394 39.2038C62.9394 38.2732 61.5192 36.6366 60.5642 36.4485C60.4514 36.4131 60.329 36.4151 60.2176 36.4543C60.1063 36.4934 60.013 36.5671 59.9535 36.663C59.9189 36.7081 59.8943 36.7592 59.8811 36.8133C59.8679 36.8674 59.8663 36.9234 59.8766 36.978C59.8868 37.0326 59.9086 37.0848 59.9407 37.1316C59.9728 37.1783 60.0146 37.2187 60.0636 37.2503C60.895 37.8465 61.576 38.6044 62.0589 39.4711Z" fill="black"/>
<path d="M54.8017 32.4595C55.8591 32.8799 56.7329 33.5568 57.6741 34.1447C58.0829 34.4012 58.3191 34.2302 58.3266 33.7314C58.326 33.6437 58.3147 33.5565 58.2929 33.4713C58.1204 32.9689 55.7804 31.4761 55.1954 31.4904C54.9967 31.4904 54.7229 31.4298 54.6854 31.7113C54.6479 31.9927 54.5167 32.349 54.8017 32.4595Z" fill="black"/>
<path d="M39.0997 30.7173C39.3236 30.5634 39.6662 30.6345 40.158 30.5832C40.4633 30.4016 40.8771 30.9186 41.369 30.8634C41.6573 30.8318 41.8743 30.741 41.9456 30.3937C41.9777 30.284 41.9732 30.1643 41.933 30.0583C41.8928 29.9523 41.8198 29.8678 41.7285 29.8215C40.7883 29.4896 39.8109 29.322 38.8284 29.3242C38.7297 29.3308 38.634 29.3657 38.5498 29.4257C38.4655 29.4857 38.3952 29.5689 38.3452 29.6681C38.2952 29.7673 38.2671 29.8792 38.2632 29.9941C38.2593 30.109 38.2798 30.2232 38.323 30.3266C38.4587 30.7252 38.6215 31.0489 39.0997 30.7173Z" fill="black"/>
<path d="M48.7325 30.8027C49.5609 30.8027 49.9933 31.5567 50.7285 31.7387C51.0612 31.8199 51.304 31.8492 51.447 31.5469C51.5252 31.4269 51.5533 31.2821 51.5254 31.1424C51.4976 31.0027 51.4159 30.8788 51.2973 30.7962C50.6753 30.3997 50.0565 29.9837 49.2082 29.9414C49.0219 30.1072 48.5961 29.7139 48.4664 30.1787C48.3866 30.4257 48.6028 30.8027 48.7325 30.8027Z" fill="black"/>
<path d="M51.3845 35.6495C51.8593 36.2671 52.4349 36.7901 52.9065 37.4245C53.0984 37.6844 53.5276 37.8193 53.6772 37.3267C53.8821 36.6518 52.3927 34.8565 51.8951 34.8801C51.0561 34.897 51.1634 35.3627 51.3845 35.6495Z" fill="black"/>
<path d="M42.8459 33.6846C43.8873 33.9831 44.8905 34.3839 45.838 34.88C45.9266 34.7301 45.975 34.563 45.9795 34.3926C45.984 34.2221 45.9442 34.0531 45.8636 33.8995C45.6732 33.5637 43.4502 32.6772 42.9997 32.7208C42.7653 32.7443 42.5712 32.788 42.6042 33.0566C42.6371 33.3253 42.4394 33.5536 42.8459 33.6846Z" fill="black"/>
<path d="M62.09 42.8479C62.0467 42.7497 61.9747 42.6728 61.887 42.631C61.7993 42.5893 61.7017 42.5855 61.6118 42.6204C61.3385 42.6924 61.4719 42.9655 61.4133 43.2044C61.4751 44.2284 62.3893 44.6759 62.6983 45.5519C62.7342 45.6828 62.8057 45.7965 62.902 45.8759C62.9982 45.9552 63.114 45.9959 63.2318 45.9919C63.5213 45.9463 63.4595 45.5368 63.5409 45.2789C63.6482 44.93 63.4758 44.6948 63.3001 44.4559C62.9032 43.9136 62.36 43.5268 62.09 42.8479Z" fill="black"/>
<path d="M46.6671 32.4108C46.8386 32.3729 47.0941 32.3387 47.1641 32.092C47.2167 31.9571 47.2285 31.8076 47.1977 31.665C47.1668 31.5225 47.095 31.3942 46.9926 31.2988C46.5621 30.9192 46.1176 30.5397 45.7221 30.1184C45.4771 29.8603 45.3091 29.9248 45.0222 30.0577C44.6722 30.2323 44.7282 30.5511 44.7947 30.7788C45.0922 31.7201 45.8236 32.1148 46.6671 32.4108Z" fill="black"/>
<path d="M56.0832 36.4233C55.6833 36.4705 55.3753 36.7869 55.6585 37.1723C56.1334 37.8555 56.6754 38.4866 57.2759 39.0558C57.4423 39.2195 57.9484 39.3686 58.0156 38.7722C58.0829 38.1759 56.6813 36.4596 56.0832 36.4233Z" fill="black"/>
<path d="M37.7279 35.866C38.1691 35.8854 38.6065 35.9645 39.0304 36.1014C39.5722 36.1245 39.8953 36.1592 40.0516 35.7965C40.08 35.7517 40.0995 35.7007 40.1088 35.6469C40.118 35.5931 40.1169 35.5376 40.1054 35.4843C40.0939 35.431 40.0723 35.3811 40.042 35.3378C40.0118 35.2945 39.9736 35.2588 39.93 35.2332C39.3931 34.7634 38.7192 34.5298 38.0371 34.5773C37.8568 34.5908 37.6871 34.6764 37.5594 34.8183C37.4317 34.9602 37.3546 35.1487 37.3424 35.349C37.3329 35.4118 37.3357 35.4761 37.3506 35.5376C37.3655 35.5991 37.3921 35.6564 37.4287 35.7054C37.4653 35.7545 37.511 35.7942 37.5626 35.8219C37.6142 35.8496 37.6706 35.8647 37.7279 35.866Z" fill="black"/>
<path d="M35.6179 31.3251C36.0283 31.0926 36.3438 30.9532 35.8497 30.6045C35.1619 30.1196 34.3562 30.2159 33.5696 30.4019C32.7829 30.5879 33.0451 31.1092 33.106 31.7934C33.8926 30.91 34.8275 31.7768 35.6179 31.3251Z" fill="black"/>
<path d="M30.7277 34.5472C31.1929 34.2769 31.7333 34.2739 32.2415 34.1524C32.3722 34.1165 32.4869 34.0475 32.5701 33.9547C32.6532 33.8618 32.7009 33.7496 32.7067 33.6331C32.7067 33.5085 32.6816 33.3871 32.5206 33.3719C31.8049 33.3081 31.0892 33.2959 30.4987 33.6543C30.3718 33.731 30.2834 33.8453 30.251 33.9746C30.2185 34.104 30.2443 34.2389 30.3234 34.3529C30.4164 34.4774 30.581 34.6323 30.7277 34.5472Z" fill="black"/>
<path d="M65.8952 46.2966C66.1799 46.3364 66.3354 46.0906 66.352 45.7255C66.1269 45.2412 66.021 44.5725 65.359 44.4641C65.2812 44.4421 65.1993 44.4438 65.1222 44.4691C65.0452 44.4943 64.976 44.5422 64.9221 44.6073C64.8682 44.6725 64.8317 44.7526 64.8165 44.8389C64.8013 44.9251 64.8081 45.0143 64.8361 45.0966C64.9652 45.7111 65.273 46.2171 65.8952 46.2966Z" fill="black"/>
<path class="spike-fill" fill-rule="evenodd" clip-rule="evenodd" d="M55.6801 11L51.9973 18.9794L68.1989 11.9588L68.0001 11H55.6801ZM54.0028 17.0206L56.32 12H65.5887L54.0028 17.0206Z" fill="currentColor"/>
<path class="spike-stroke" fill-rule="evenodd" clip-rule="evenodd" d="M56 11V11.5L53 18L68 11.5V11H56Z" fill="currentColor"/>
</svg>
