<svg width="116" height="84" viewBox="0 0 116 84" fill="none" xmlns="http://www.w3.org/2000/svg">
<g id="Group 1">
<path id="Vector" d="M15.0454 69.3683C15.3622 69.1877 15.6614 68.9774 15.9389 68.7401C16.5731 68.2954 17.0601 68.5319 17.1302 69.3224C17.143 69.5258 17.143 69.7297 17.1302 69.933C17.1193 70.017 17.1342 70.1024 17.1731 70.1775C17.212 70.2526 17.2728 70.3139 17.3474 70.353C17.5401 70.4448 17.6382 70.2577 17.7469 70.1448C18.5142 69.3507 18.7104 67.7025 18.2934 66.6719C17.6242 65.0237 16.4189 63.7848 15.3222 62.4613C15.0665 62.1543 11.7484 59.9907 11.1913 58.9566C11.4155 60.0719 11.0511 61.219 11.3279 62.2566C11.836 64.166 10.8304 66.0048 11.2333 67.9036C11.2754 68.1013 10.9285 68.4189 11.2123 68.6095C11.4961 68.8001 11.6888 68.5213 11.9131 68.3519C12.8451 67.6142 13.0938 67.646 13.4232 68.7295C13.714 69.7354 14.3061 69.6965 15.0454 69.3683Z" fill="#A49F95"/>
<ellipse id="Ellipse 1" opacity="0.5" cx="38.5" cy="80.4668" rx="38.5" ry="2.5" fill="#E1DED5"/>
<path id="Vector_2" d="M69.1553 54.4689C69.0978 56.1424 68.9519 57.8115 68.7182 59.4692C68.6518 59.9682 70.4037 62.3604 72.0087 59.2109C72.4877 57.9865 73.2675 56.9036 73.5402 55.573C74.0473 53.0959 73.6137 50.7355 72.8968 48.3928C72.8291 48.2412 72.7135 48.1167 72.5681 48.0389C71.6975 47.5046 70.8757 46.8994 70.0505 46.3014C69.5015 45.9015 69.1693 45.169 68.2042 45.0663C68.6024 46.8531 68.877 48.6658 69.026 50.4913C69.1344 51.8184 69.1868 53.1383 69.1553 54.4689Z" fill="#FF7557"/>
<path id="Vector_3" d="M14.9188 60.0686C15.0523 60.0962 15.1745 60.1636 15.2692 60.2621C16.3205 61.5252 17.3717 62.7812 18.395 64.0689C19.9193 66.004 20.1471 68.4246 20.7954 70.694C20.897 71.0458 21.0162 71.3976 21.314 71.4856C21.703 71.6228 21.8712 71.2288 22.0149 70.9403C22.2707 70.4688 22.6912 70.3175 22.9295 70.7995C23.4866 71.9219 23.9807 71.3062 24.4153 70.7995C24.9689 70.1486 25.4175 70.2964 25.6172 70.9825C25.8835 71.8902 26.2515 71.3625 26.5739 71.1232C26.7736 70.9719 26.8612 70.6834 27.0364 70.4864C27.4464 70.0255 27.8459 69.9199 28.1928 70.5743C28.2734 70.7256 28.2804 71.0141 28.6344 70.8769C28.8586 68.882 29.0058 66.8625 29.125 64.8289C29.2761 63.1358 29.2632 61.432 29.0864 59.7414C29.0233 59.291 29.1039 58.8829 29.5875 58.6859C30.432 59.6675 30.3199 60.8602 30.2884 62.0142C30.267 62.124 30.2675 62.2369 30.2899 62.3465C30.3122 62.4561 30.3559 62.5601 30.4184 62.6527C30.4809 62.7452 30.5611 62.8244 30.6542 62.8857C30.7474 62.947 30.8517 62.9893 30.9612 63.0099C31.368 63.1332 31.784 63.2238 32.2052 63.2808C32.906 63.4005 33.4632 62.929 34.1115 62.929C35.9968 62.9888 37.8996 63.2034 39.7603 62.8199C40.8116 62.6053 41.8103 62.8903 42.802 62.7883C44.8227 62.5683 46.8612 62.5683 48.8819 62.7883C50.2081 62.9668 51.5542 62.9324 52.8697 62.6862C53.8264 62.4892 53.6581 62.1163 53.1956 61.6307C52.5894 61.015 51.8675 60.5049 51.2788 59.8716C49.008 57.4404 47.8902 54.4217 47.0737 51.2692C46.9833 50.8045 46.9833 50.3266 47.0737 49.8619C47.0912 49.7099 47.1623 49.5692 47.2741 49.4653C47.3859 49.3614 47.5311 49.3012 47.6834 49.2955C47.9357 49.2955 48.0584 49.5453 48.0338 49.8091C47.9638 51.5261 48.7347 53.0284 49.2849 54.573C49.9654 56.4808 51.1283 58.1782 52.6594 59.4986C53.5888 60.3175 54.3971 61.2652 55.0598 62.3133C56.8856 65.1702 57.8632 68.393 58.9776 71.6123C59.3042 71.4812 59.5771 71.2432 59.752 70.9367C60.1024 70.4125 60.551 69.8109 60.9505 70.9367C61.0591 71.2464 61.2098 71.1689 61.385 71.0247C61.5602 70.8804 61.7354 70.6201 61.9667 70.898C62.4363 71.4786 62.8708 71.5137 63.3404 70.898C63.403 70.8155 63.4955 70.761 63.5978 70.7465C63.7002 70.732 63.8041 70.7587 63.887 70.8206C64.3286 71.1373 64.5879 70.7573 64.679 70.5145C65.0645 69.5294 65.6462 68.5865 65.4044 67.436C65.3195 67.1076 65.3582 66.7594 65.513 66.4579C66.2558 65.0582 66.8007 63.5614 67.132 62.0107C67.6716 59.6147 68.2043 57.2223 68.2043 54.7489C68.2043 53.4084 68.0886 52.0679 68.0536 50.7344C67.9764 48.9426 67.7098 47.164 67.2581 45.4288C66.6414 42.8921 66.1157 40.2744 64.5528 38.0896C63.3684 36.4289 62.4993 34.5149 60.6982 33.3257C59.2719 32.3723 57.625 31.7671 56.2688 30.7784C53.9385 29.0826 51.3068 28.6217 48.605 28.2136C46.8109 27.9427 45.0237 27.6049 43.219 27.4501C41.6807 27.3164 40.1178 27.4501 38.5724 27.3762C37.3774 27.3305 36.3542 27.9532 35.2048 28.108C34.3064 28.2865 33.5032 28.7867 32.9446 29.5154C31.9809 30.6377 31.1925 31.9043 30.015 32.8507C29.7102 33.097 29.4298 33.5544 29.0303 33.0935C28.6309 32.6326 28.9322 32.1999 29.3597 31.9219C29.7581 31.711 30.1144 31.4283 30.411 31.0881C31.3749 29.8524 32.4043 28.6697 33.4947 27.5451C35.7725 25.1667 38.3166 23.0768 40.7345 20.8603C40.8572 20.7477 41.0219 20.628 40.9413 20.4451C40.8607 20.2621 40.6749 20.2938 40.4682 20.2797C39.1611 20.1918 37.8961 20.5401 36.6766 20.8251C34.8509 21.2508 32.9761 21.3845 31.1714 21.9087C30.9577 21.9735 30.7271 21.9506 30.5301 21.8451C30.3331 21.7396 30.1857 21.5601 30.1202 21.3458C29.973 20.8497 30.4531 20.8462 30.779 20.6738C31.9704 20.051 33.2319 19.5409 34.3638 18.8513C36.617 17.4721 38.9193 16.2266 41.2742 15.0057C43.1139 14.0488 44.9887 13.1164 46.4044 11.5191C46.555 11.3502 46.916 11.1497 46.7793 10.9808C46.3027 10.4073 45.8051 9.57344 45.1884 9.45382C44.0343 9.20552 42.842 9.19595 41.6842 9.42567C37.7734 10.2349 33.7996 10.1293 29.8573 10.4214C27.8354 10.5726 25.7994 10.7732 23.7915 10.8682C22.6526 10.9245 21.6399 12.5429 20.4169 11.22C20.4169 11.22 20.3574 11.2376 20.3223 11.2411C19.3937 11.3643 18.4651 11.4733 17.5434 11.6176C16.6218 11.7618 15.914 12.0152 16.1628 13.1868C16.2259 13.4718 16.0506 13.6758 15.8649 13.9362C15.3288 14.6785 14.6735 14.8721 13.8219 14.8685C13.2823 14.8685 12.634 14.58 12.2065 15.1113C11.2514 16.2088 10.4454 17.4285 9.80959 18.7387C8.86344 20.906 8.01542 23.1155 7.16389 25.3215C5.80424 28.8398 5.82176 32.5306 5.32416 36.1545C5.17051 37.6256 5.2153 39.1109 5.45732 40.57C5.76219 42.8323 5.90236 45.1438 6.71885 47.2794C8.07499 50.7978 9.38207 54.3794 11.9156 57.3384C12.8197 58.3728 13.4155 59.6745 14.9188 60.0686ZM65.534 44.4261C66.2349 44.5316 66.3365 45.179 66.5853 45.654C66.5678 46.0058 66.4031 46.2486 66.1017 46.2099C65.4429 46.1289 65.117 45.6399 64.9909 45.0453C64.9617 44.9663 64.9543 44.8808 64.9694 44.7979C64.9846 44.715 65.0218 44.6378 65.0771 44.5744C65.1323 44.5109 65.2037 44.4637 65.2835 44.4376C65.3633 44.4115 65.4486 44.4075 65.5305 44.4261H65.534ZM63.5506 44.507C63.7398 44.7286 63.9256 44.9468 63.8099 45.2705C63.7258 45.5097 63.7924 45.8897 63.477 45.9319C63.3501 45.9357 63.2254 45.8979 63.1217 45.8243C63.0181 45.7507 62.9411 45.6452 62.9023 45.5238C62.5694 44.7111 61.5847 44.2959 61.5182 43.3459C61.5847 43.1243 61.4376 42.871 61.7319 42.8041C61.8287 42.7718 61.9339 42.7753 62.0284 42.814C62.1228 42.8527 62.2004 42.9241 62.247 43.0152C62.5344 43.645 63.1196 44.0039 63.5471 44.507H63.5506ZM60.0008 36.5556C60.0595 36.4534 60.1516 36.3747 60.2615 36.333C60.3714 36.2913 60.4922 36.2892 60.6036 36.3269C61.5497 36.5309 62.9549 38.2725 62.9479 39.2647C62.9804 39.3916 62.9661 39.5261 62.9074 39.6431C62.8488 39.7602 62.7499 39.852 62.629 39.9015C62.3592 39.9965 62.1699 39.7397 62.0788 39.5497C61.602 38.6227 60.9286 37.8121 60.106 37.1748C60.0108 37.1062 59.9464 37.0028 59.9267 36.8868C59.907 36.7709 59.9337 36.6519 60.0008 36.5556ZM57.3761 39.0571C56.7815 38.5063 56.2449 37.8956 55.7747 37.2346C55.5049 36.8476 55.7992 36.5556 56.1952 36.5098C56.7874 36.545 58.1716 38.2444 58.1085 38.7827C58.0455 39.321 57.5479 39.2154 57.3691 39.0571H57.3761ZM54.9232 31.8621C54.9582 31.5841 55.214 31.6475 55.3998 31.644C55.9464 31.644 58.1331 33.1041 58.2943 33.6002C58.3146 33.6843 58.3252 33.7704 58.3258 33.857C58.3258 34.3496 58.0945 34.5184 57.7161 34.2651C56.8365 33.6846 56.0165 33.0161 55.0318 32.6009C54.7445 32.4919 54.8741 32.1154 54.9057 31.8797L54.9232 31.8621ZM53.8719 37.4246C53.7107 37.9383 53.2482 37.7975 53.0414 37.5266C52.5368 36.8652 51.913 36.3198 51.4014 35.676C51.1631 35.3769 51.051 34.8914 51.9516 34.8703C52.4667 34.8492 54.0716 36.7244 53.8509 37.4246H53.8719ZM48.4368 30.0642C48.5735 29.5611 49.0255 29.9868 49.2183 29.8074C50.1119 29.8531 50.7636 30.3035 51.4189 30.7327C51.5439 30.8222 51.6299 30.9563 51.6592 31.1075C51.6885 31.2587 51.659 31.4155 51.5766 31.5454C51.4259 31.8727 51.1596 31.841 50.8197 31.753C50.0523 31.5595 49.6002 30.7433 48.7172 30.7397C48.6015 30.7433 48.3738 30.3351 48.4368 30.0642ZM45.0377 30.1909C45.311 30.0713 45.4828 30.0079 45.7386 30.2472C46.138 30.6377 46.5796 30.9825 47.0106 31.3414C47.1132 31.4298 47.1851 31.5487 47.2159 31.6809C47.2468 31.8131 47.235 31.9517 47.1823 32.0767C47.1122 32.3054 46.8564 32.3371 46.6847 32.3723C45.8332 32.0978 45.1043 31.7319 44.8204 30.8629C44.7574 30.6483 44.6838 30.3492 45.0517 30.1874L45.0377 30.1909ZM42.7775 33.0056C42.7459 32.7417 42.9317 32.6924 43.1559 32.6537C43.5835 32.6115 45.7105 33.5368 45.8963 33.8887C45.9734 34.0496 46.0114 34.2267 46.0071 34.4053C46.0028 34.5839 45.9564 34.7589 45.8717 34.916C44.9651 34.3963 44.0052 33.9763 43.0088 33.6635C42.6338 33.5228 42.83 33.2202 42.7915 32.988L42.7775 33.0056ZM38.9228 29.4872C39.9379 29.4853 40.9476 29.6347 41.9189 29.9305C42.0133 29.9718 42.0887 30.0472 42.1302 30.1417C42.1718 30.2362 42.1764 30.3429 42.1432 30.4407C42.0696 30.7503 41.8454 30.8312 41.5475 30.8594C41.0394 30.9086 40.6084 30.4477 40.2965 30.6096C39.7884 30.6553 39.4379 30.5885 39.2032 30.7292C38.7091 31.0247 38.5409 30.7292 38.3972 30.3774C38.3473 30.2831 38.3224 30.1775 38.3249 30.0708C38.3274 29.9641 38.3571 29.8598 38.4113 29.7679C38.4655 29.6761 38.5423 29.5997 38.6343 29.5463C38.7263 29.4928 38.8305 29.464 38.9368 29.4626L38.9228 29.4872ZM38.2745 34.6944C38.9672 34.6505 39.6514 34.8661 40.1949 35.2995C40.2389 35.3229 40.2774 35.3554 40.3079 35.3949C40.3384 35.4344 40.3602 35.4799 40.3718 35.5285C40.3834 35.5771 40.3846 35.6276 40.3752 35.6767C40.3658 35.7258 40.3462 35.7723 40.3175 35.8132C40.1598 36.1474 39.8339 36.1122 39.2873 36.0911C38.8595 35.9663 38.4183 35.8942 37.9732 35.8765C37.9136 35.8784 37.8543 35.867 37.7996 35.843C37.7449 35.8191 37.6963 35.7833 37.657 35.7382C37.6178 35.6931 37.589 35.6398 37.5728 35.5822C37.5566 35.5246 37.5533 35.4641 37.5632 35.4051C37.5741 35.2196 37.6526 35.0446 37.7838 34.9135C37.915 34.7824 38.0897 34.7044 38.2745 34.6944ZM33.7926 30.4724C34.4935 30.2718 35.2469 30.1698 35.8952 30.687C36.3507 31.0564 36.0599 31.2042 35.6814 31.4505C34.9525 31.9289 34.101 31.0107 33.3791 31.9465C33.302 31.2253 33.1163 30.6659 33.7821 30.4724H33.7926ZM30.7369 33.6072C31.3221 33.192 32.0265 33.2026 32.7168 33.28C32.8745 33.28 32.9025 33.4383 32.899 33.5826C32.8934 33.7176 32.8467 33.8476 32.7653 33.9551C32.6838 34.0627 32.5715 34.1426 32.4435 34.1842C31.9459 34.3249 31.4167 34.3285 30.9612 34.6416C30.821 34.7366 30.6563 34.5607 30.5652 34.4199C30.4881 34.2891 30.4623 34.1341 30.4927 33.9852C30.5232 33.8362 30.6077 33.704 30.7299 33.6142L30.7369 33.6072ZM24.0789 12.849C24.3347 12.2755 24.9689 12.7294 25.3264 12.5887C26.262 12.5887 27.0785 12.5887 27.7513 13.2923C27.9966 13.5492 28.1017 13.7497 28.0281 14.0417C27.9876 14.1709 27.8991 14.2794 27.781 14.3449C27.663 14.4104 27.5244 14.4278 27.3939 14.3936C26.7364 14.3391 26.0747 14.4193 25.449 14.6293C24.8182 14.8122 24.5449 14.4041 24.212 14.0628C24.0758 13.8961 23.991 13.6932 23.968 13.4788C23.945 13.2645 23.9847 13.0481 24.0824 12.856L24.0789 12.849Z" fill="#A49F95"/>
<path id="Vector_4" d="M14.8037 14.3213C15.6539 18.2952 15.5763 21.0675 17.3403 24.8622C18.7762 27.9506 20.9882 32.0264 24.4491 33.2948C28.6121 34.8197 30.3514 31.032 32.7398 28.4355C35.1283 25.8389 37.9259 23.7273 40.3849 21.2923C41.0905 20.5896 41.6903 20.1961 41.8173 19.279C40.4061 19.149 39.0619 20.0415 37.619 20.182C35.855 20.3542 34.1404 19.9501 32.5352 20.6669C35.1918 19.4477 37.7425 17.7541 40.2614 16.2503C41.9901 15.2173 47.275 13.0881 47.5114 10.8218C47.8642 7.39252 40.1344 8.99121 38.0918 9.17041C34.4121 9.49366 30.616 9.30041 26.8023 9.63772C23.5107 9.92934 15.848 9.10013 15.0436 13.1513L14.8037 14.3213Z" fill="white"/>
<path id="Vector_5" d="M48.5185 64.2063C47.9899 64.2643 47.5291 64.0152 47.0361 63.9572C45.9145 63.8344 44.7821 63.3327 43.6605 63.749C43.0599 63.9629 42.4153 64.04 41.778 63.9743C41.2946 63.9192 40.8044 63.9766 40.3492 64.1415C40.1027 64.2405 39.7098 64.3462 39.8277 64.6363C40.3599 65.9263 40.3456 67.2777 40.4707 68.6223C40.4921 68.8543 40.4707 69.3765 40.8957 69.4038C41.1851 69.4243 41.328 69.0625 41.4851 68.7997C41.5559 68.6499 41.6728 68.5243 41.8202 68.4396C41.9676 68.3548 42.1386 68.315 42.3103 68.3254C42.8354 68.3629 42.5568 68.7759 42.6961 68.984C42.8354 69.1922 42.8961 69.6666 43.3283 69.4823C43.9284 69.1683 44.0106 69.4823 44.1213 69.8918C44.1713 70.0692 44.2678 70.5573 44.5321 70.3081C45.1786 69.7041 45.8145 69.2024 46.7682 69.1785C46.879 69.1785 46.979 68.8714 47.0826 68.711C47.8648 67.5098 48.0827 66.0628 48.9579 64.8923C49.1544 64.6158 49.1258 64.1381 48.5185 64.2063Z" fill="#A49F95"/>
<path id="Vector_6" d="M95.1387 59.7442C94.9273 60.0032 95.1595 60.6171 95.5546 60.8087C97.0691 60.4822 98.6737 60.1984 100.223 59.7442C101.9 59.2723 103.266 57.374 103.065 55.6637C103.033 55.4011 103.023 55.167 102.694 55.2273C100.892 55.5821 99.1485 54.7696 97.3429 54.9789C96.674 55.057 96.3967 55.167 96.473 55.8908C96.6185 57.3882 96.0467 58.6371 95.1387 59.7442Z" fill="#FF7557"/>
<path id="Vector_7" d="M103.976 58.8714C104.994 58.6338 109.816 55.8781 111.418 54.683C110.573 54.5222 105.028 54.7853 104.261 55.202C104.044 55.3189 103.857 55.2751 104 55.6661C104.339 56.62 103.85 57.4935 103.613 58.356C103.568 58.5205 103.249 58.5863 103.47 58.8494C103.643 59.0504 103.786 58.9152 103.976 58.8714Z" fill="#FF7557"/>
<path id="Vector_8" d="M71.2908 60.9843C73.1585 61.4831 75.0833 61.7353 77.0164 61.7347C81.3517 61.6505 85.6871 61.6505 90.0154 61.2999C91.3776 61.1912 92.6383 61.2473 93.7344 59.9605C94.7463 58.8491 95.3255 57.4105 95.3663 55.9071C95.3873 55.2584 95.0861 54.6343 94.2702 54.6378C92.3722 54.6378 90.6247 53.8138 88.7372 53.677C87.9423 53.6209 87.7742 53.8804 87.9598 54.4239C88.2785 55.3566 87.9598 56.1981 87.7006 57.0081C87.2315 58.4287 86.2484 59.622 84.9446 60.3532C84.8402 60.437 84.7125 60.4863 84.5789 60.4945C84.4454 60.5027 84.3126 60.4692 84.1987 60.3988C83.9851 60.2199 84.2268 60.0481 84.3773 59.9324C85.1152 59.4327 85.7331 58.7754 86.1866 58.0078C86.6402 57.2402 86.9181 56.3814 87.0003 55.4933C87.1263 54.4029 86.7901 53.2703 86.0723 53.0389C84.6451 52.584 83.1835 52.2451 81.7019 52.0255C81.3517 51.9694 80.97 51.9729 81.1206 52.5199C81.5443 54.0873 81.1416 55.5214 80.3642 56.8643C79.6638 58.0916 79.1595 59.4941 77.9129 60.3251C77.6257 60.5145 77.2125 60.9878 76.9148 60.518C76.6627 60.1288 77.7097 59.7536 77.7798 59.6484C78.7638 58.1722 79.7058 56.661 80.2311 54.9499C80.6934 53.4351 79.9334 51.4996 78.7918 51.0508C77.5136 50.5494 76.2249 50.0585 74.9397 49.5465C74.7506 49.4694 74.5615 49.3151 74.3829 49.4273C74.0678 49.6237 74.6456 51.1244 74.6596 51.703C74.7261 55.1673 73.8542 58.2844 71.2908 60.9843Z" fill="#FF7557"/>
<path id="Vector_9" d="M16.324 75.2686C17.1584 73.8258 18.5678 72.7472 19.0095 71.0662C19.0691 70.8351 19.0656 70.597 19.3601 70.569C19.7547 72.2344 20.0416 73.9235 20.2191 75.6258C20.3488 76.6519 19.9211 77.9756 18.6975 78.1437C18.5122 78.1653 18.3414 78.2544 18.2178 78.394C18.0943 78.5336 18.0266 78.7138 18.0279 78.9001C18.0033 79.2853 18.0279 79.6005 18.4977 79.7721C18.7255 79.8206 18.928 79.9497 19.0679 80.1358C19.2077 80.3218 19.2754 80.5521 19.2584 80.7842C19.2584 81.6492 19.8755 81.9643 20.6363 81.7227C21.2218 81.5371 21.4181 81.6351 21.4637 82.234C21.5163 82.9344 22.0702 83.2355 22.568 82.8888C24.4893 81.5511 26.5473 80.4025 27.3852 77.8881C27.862 76.4593 28.2056 74.9919 28.7034 73.5771C29.6185 70.9857 29.8499 68.2962 29.92 65.5822C29.9551 64.1814 32.1498 64.4826 32.5319 64.395C34.1937 64.0168 35.8696 64.3005 37.5349 64.2129C37.8855 64.1954 38.2361 64.1604 38.3763 64.5631C38.8005 65.8763 39.4667 67.0565 39.2598 68.6044C38.8496 71.6406 38.5586 74.6137 35.4839 76.3087C35.2631 76.4312 34.8599 76.6589 35.0352 77.0091C35.1065 77.1978 35.2288 77.3632 35.3884 77.4868C35.5481 77.6105 35.7389 77.6875 35.9397 77.7094C36.2061 77.7094 36.4761 77.7094 36.7461 77.7094C36.9424 77.7094 37.1668 77.7095 37.1808 77.9861C37.2369 79.1663 37.917 78.9632 38.7024 78.739C39.053 78.6375 39.5403 78.3118 39.7927 79.0262C40.0872 79.8632 40.8024 80.0102 41.437 79.4044C43.9525 76.9616 45.9476 74.0361 47.3024 70.8036C48.0492 69.0911 48.5926 67.2771 49.6654 65.7153C50.0651 65.1304 50.3666 64.4826 51.1449 64.2549C52.1173 64.027 53.1172 63.9386 54.1145 63.9923C54.2476 63.9776 54.3817 64.0084 54.495 64.0796C54.6083 64.1509 54.6942 64.2583 54.7385 64.3845C55.2153 65.5752 55.9656 66.6223 56.3933 67.8479C57.0174 69.6339 57.1436 71.518 57.6204 73.3215C57.9114 74.4246 57.5222 75.1145 56.7194 75.6888C56.1058 76.1301 55.4187 76.4663 54.7981 76.9005C54.3529 77.2122 54.125 77.6009 54.6298 78.1087C55.331 78.8091 56.5266 79.1348 56.2706 80.504C56.2857 80.578 56.3174 80.6475 56.3633 80.7074C56.4093 80.7673 56.4683 80.8159 56.5358 80.8497C56.6034 80.8834 56.6778 80.9014 56.7533 80.9022C56.8288 80.9029 56.9036 80.8865 56.9718 80.8542C57.2313 80.7351 57.5748 80.8087 57.8448 80.7001C58.4198 80.469 58.8265 80.3814 59.0368 81.1834C59.135 81.5616 59.5452 81.7297 60.0886 81.6281C61.491 81.355 62.108 80.4725 62.5428 79.1768C63.2825 76.9775 63.7137 74.6803 64.6708 72.5406C65.2143 71.3219 66.0136 70.1978 66.1924 68.818C66.3116 67.9075 67.8262 63.3899 68.0786 61.9226C68.1838 61.3133 68.4748 61.3308 68.913 61.5724C69.4626 61.9227 70.0706 62.1717 70.7081 62.3079C72.9308 62.56 75.1115 63.1938 77.3694 63.0958C80.0865 62.9767 82.8071 62.9102 85.5242 62.7771C87.8767 62.6615 90.2361 62.7211 92.5676 62.2238C93.1987 62.0907 94.4924 61.5234 94.1348 63.2289C94.1032 63.3829 94.282 63.5791 94.3837 63.7577C94.6431 64.2129 95.0428 63.8942 95.3653 63.8907C95.6879 63.8872 95.8492 63.6246 95.9158 63.3024C95.9964 62.9067 95.7229 62.8016 95.46 62.644C95.1971 62.4865 94.8079 62.504 94.7203 62.0557C96.3961 61.7545 98.0579 61.5409 99.6776 61.1452C101.431 60.7215 103.184 60.3047 104.814 59.5728C107.11 58.5222 109.372 57.4366 111.643 56.302C112.87 55.6821 113.835 54.8102 114.883 54.0012C115.065 53.8548 115.211 53.6692 115.311 53.4584C115.451 53.1817 115.51 53.0031 115.255 52.758C115.174 52.6525 115.056 52.5809 114.925 52.5569C114.795 52.533 114.659 52.5585 114.546 52.6284C111.927 53.6265 109.154 53.8856 106.402 54.0502C104.26 54.1763 102.093 54.1518 99.9336 54.1413C96.908 54.1413 93.9735 53.5179 91.0635 52.9646C89.1353 52.6144 87.207 52.2362 85.2998 51.7074C83.07 51.0841 80.7596 50.7549 78.5999 49.8619C76.3211 48.9426 74.1391 47.8001 72.0859 46.451C71.1198 45.7833 70.2152 45.0309 69.3828 44.2027C68.331 43.1767 66.3853 39.2545 66.0066 38.6381C65.5578 37.9097 65.1477 37.1533 64.6463 36.4599C63.5945 35.0241 62.7286 33.4552 61.2035 32.4116C59.9694 31.5712 53.4483 27.9887 51.201 27.642C49.0975 27.3128 46.9939 26.8365 44.8623 26.6194C42.1733 26.3463 39.5087 26.0731 36.7987 26.4688C36.6023 26.4968 36.2903 26.0101 36.5006 25.835C37.6716 24.8614 38.8847 23.9369 40.0066 22.9108C40.9979 22.0882 41.8783 21.1406 42.6255 20.0918C43.0918 19.3704 42.8885 19.0062 42.0365 19.0097C40.845 19.0275 39.658 19.16 38.492 19.4054L34.4567 20.2038C34.6039 19.9552 34.639 19.8046 34.7337 19.7486C36.1991 18.8661 37.6155 17.882 39.1546 17.1606C40.6341 16.4602 42.0015 15.5637 43.516 14.9369C45.8966 13.9528 47.4111 11.8902 49.2517 10.2373C49.4662 10.0454 49.6153 9.79135 49.6782 9.51068C49.741 9.23002 49.7145 8.93676 49.6023 8.67188C49.413 8.19562 45.0972 8.51429 43.6212 8.46877C41.625 8.46841 39.6319 8.62767 37.6611 8.94503C36.3253 9.12013 34.9896 9.02558 33.6643 9.15165C31.0103 9.40029 28.3493 9.50184 25.6883 9.52986C25.222 9.52986 24.903 9.52986 25.1484 8.87149C25.3592 8.35172 25.4406 7.78864 25.3856 7.23054C25.3307 6.67244 25.141 6.13599 24.8329 5.6672C24.1527 4.59911 22.2911 3.61856 21.1587 5.00533C20.6436 5.60261 20.2679 6.30676 20.0588 7.06685C19.8496 7.82694 19.8121 8.62397 19.9491 9.40029C20.0508 10.0517 19.9 10.3598 19.2059 10.3423C18.2803 10.3178 15.5246 10.6295 15.3844 10.1567C15.0759 9.10612 14.4167 8.28666 13.7892 7.4497C12.4184 5.61467 10.9844 5.65669 9.70827 7.47421C8.2498 9.55437 8.958 12.1108 10.2973 13.4486C11.3491 14.4991 11.3315 14.4991 10.2166 15.6268C10.1363 15.7345 10.0703 15.8522 10.0203 15.977C9.19889 17.3518 8.47602 18.783 7.85714 20.2599C6.93858 22.6132 5.96744 24.942 5.26975 27.3723C4.48793 30.0863 4.36522 32.9089 4.10578 35.6895C3.75519 39.377 4.31965 43.0436 5.15756 46.6471C5.58529 48.5276 6.44775 50.2086 7.21906 51.9386C7.81857 53.2798 8.28837 54.6771 8.89139 56.0148C10.6276 59.7536 10.921 64.001 9.71528 67.9425C8.62494 71.6231 7.44694 75.2966 4.83502 78.2803C4.69548 78.4293 4.62051 78.6273 4.62642 78.8313C4.63232 79.0353 4.71864 79.2287 4.86657 79.3694C5.1751 79.667 5.51166 79.5305 5.84823 79.2783C6.29744 78.8747 6.8609 78.6202 7.46097 78.5499C7.46097 78.7635 7.46097 78.9632 7.50654 79.1558C7.67132 80.0943 8.04646 80.3079 8.90892 79.9192C9.46987 79.6635 9.45935 79.9962 9.547 80.4025C9.74684 81.3165 10.4936 81.5931 11.1212 80.9908C12.9898 79.2013 15.0022 77.5554 16.324 75.2686ZM48.81 64.9063C47.951 66.104 47.7372 67.5923 46.9694 68.825C46.8677 68.9931 46.7695 69.3013 46.6609 69.3048C45.7248 69.3328 45.0972 69.8441 44.4661 70.4639C44.2067 70.7195 44.1155 70.2188 44.063 70.0367C43.9578 69.6339 43.8736 69.2978 43.2846 69.6164C42.8604 69.8055 42.8183 69.3573 42.6641 69.1051C42.5098 68.853 42.8008 68.4678 42.2854 68.4293C42.1169 68.4186 41.9491 68.4595 41.8045 68.5464C41.6598 68.6334 41.5451 68.7623 41.4756 68.916C41.3213 69.1857 41.1776 69.5534 40.8971 69.5359C40.4869 69.5079 40.5009 68.9721 40.4799 68.7339C40.3572 67.3577 40.3712 65.9674 39.8488 64.6437C39.7331 64.3495 40.1188 64.2409 40.3607 64.1359C40.8075 63.9667 41.2886 63.9078 41.7631 63.9643C42.3885 64.0318 43.0212 63.9526 43.6107 63.7331C44.7116 63.3059 45.8229 63.8207 46.9238 63.9468C47.4111 64.0028 47.8634 64.2619 48.3788 64.2024C48.9853 64.1324 49.0133 64.6226 48.81 64.9063ZM103.454 58.3261C103.699 57.4822 104.204 56.6662 103.853 55.7487C103.709 55.3775 103.902 55.4195 104.123 55.3039C104.916 54.9047 110.641 54.6526 111.514 54.8067C109.859 55.9483 104.877 58.5923 103.829 58.8199C103.632 58.8619 103.478 58.995 103.306 58.7989C103.078 58.5467 103.408 58.4837 103.454 58.3261ZM97.3672 55.0798C99.1938 54.8732 100.961 55.6646 102.78 55.3249C103.113 55.2619 103.131 55.493 103.156 55.7557C103.359 57.4436 101.981 59.3172 100.281 59.7829C98.6995 60.2172 97.0938 60.4833 95.5582 60.8335C95.1585 60.6514 94.9236 60.0456 95.1375 59.7829C96.056 58.6868 96.6345 57.4576 96.4802 55.9903C96.4031 55.2759 96.666 55.1639 97.3672 55.0798ZM74.4524 49.5047C74.6312 49.3926 74.803 49.5467 75.0099 49.6238C76.286 50.1385 77.5727 50.6253 78.8664 51.1261C80.0128 51.5744 80.7701 53.5109 80.3073 55.0203C79.7849 56.7292 78.8454 58.2386 77.8532 59.7129C77.7831 59.8145 76.7348 60.1892 76.9872 60.5814C77.2957 61.0506 77.6884 60.5814 77.9864 60.3888C79.245 59.5588 79.7394 58.158 80.4406 56.9323C81.2189 55.5911 81.6221 54.1623 81.1978 52.5934C81.0471 52.0471 81.4468 52.0401 81.7798 52.0996C83.2611 52.3227 84.722 52.6647 86.1482 53.1222C86.8494 53.3674 87.2 54.4985 87.0773 55.5736C86.995 56.4605 86.7168 57.3182 86.2627 58.0849C85.8087 58.8515 85.19 59.508 84.4514 60.0071C84.3006 60.1121 84.0587 60.2977 84.2725 60.4728C84.3865 60.5432 84.5194 60.5766 84.6532 60.5684C84.7869 60.5603 84.9148 60.511 85.0193 60.4273C86.3245 59.697 87.3089 58.5052 87.7785 57.0864C88.0519 56.2775 88.357 55.4335 88.0379 54.5055C87.8521 53.9592 88.0204 53.7035 88.8162 53.7596C90.7024 53.8961 92.4519 54.7296 94.3556 54.7191C95.169 54.7191 95.474 55.339 95.453 55.9868C95.4121 57.4883 94.8323 58.9251 93.8192 60.0351C92.7184 61.3203 91.4597 61.2608 90.0959 61.3728C85.7626 61.723 81.4222 61.723 77.0819 61.8071C75.1466 61.8077 73.2196 61.5558 71.3497 61.0577C73.916 58.3611 74.789 55.2479 74.7189 51.781C74.7084 51.2101 74.1299 49.7113 74.4454 49.5152L74.4524 49.5047ZM69.9999 46.3529C70.8308 46.9448 71.6547 47.5436 72.5242 48.0724C72.6698 48.1494 72.7858 48.2726 72.8537 48.4226C73.5549 50.7444 74.0072 53.0802 73.4988 55.5281C73.2253 56.8448 72.447 57.9164 71.9632 59.1281C70.354 62.2448 68.601 59.8775 68.6641 59.3837C68.8984 57.7433 69.0447 56.0915 69.1024 54.4355C69.1339 53.1187 69.0813 51.8125 68.9832 50.4958C68.8288 48.6913 68.5488 46.8998 68.1452 45.1343C69.1094 45.2358 69.4424 45.9747 69.9929 46.3599L69.9999 46.3529ZM6.54241 47.2634C5.72202 45.1448 5.58529 42.8405 5.28027 40.5852C5.04344 39.1345 5.00334 37.6586 5.16107 36.1973C5.65891 32.5902 5.64138 28.9202 7.00169 25.4147C7.85363 23.219 8.70207 21.0198 9.64867 18.8626C10.2848 17.5585 11.0912 16.3444 12.0467 15.2521C12.4745 14.7198 13.1231 15.0069 13.663 15.0104C14.5114 15.0104 15.1705 14.8213 15.7069 14.0824C15.8963 13.8233 16.0575 13.6166 16.0049 13.3365C15.7525 12.1703 16.5098 11.9112 17.3863 11.7746C18.2628 11.638 19.2374 11.5225 20.1665 11.3999C20.198 11.3999 20.2471 11.3649 20.2611 11.3789C21.4812 12.6921 22.4944 11.0812 23.6374 11.0287C25.6463 10.9306 27.6832 10.7345 29.7061 10.5839C33.6538 10.2898 37.626 10.3983 41.5387 9.5929C42.6971 9.36424 43.89 9.37378 45.0446 9.62091C45.6617 9.75399 46.1595 10.5699 46.6363 11.1408C46.7766 11.3054 46.4119 11.491 46.2612 11.6766C44.8588 13.2629 42.9691 14.1945 41.1285 15.147C38.7865 16.3587 36.4691 17.5984 34.2148 18.9746C33.0824 19.675 31.8202 20.1688 30.6282 20.7887C30.3021 20.9567 29.8218 20.9638 29.9691 21.4575C30.0346 21.6708 30.1821 21.8495 30.3792 21.9545C30.5763 22.0595 30.807 22.0823 31.0209 22.0178C32.8264 21.496 34.7021 21.363 36.5287 20.9392C37.7488 20.6556 39.0144 20.3124 40.3221 20.3964C40.5325 20.3964 40.7078 20.3614 40.7954 20.561C40.8831 20.7606 40.7113 20.8587 40.5886 20.9743C38.1695 23.1945 35.6242 25.2747 33.3453 27.628C32.2543 28.7474 31.2244 29.9245 30.2601 31.1544C29.9633 31.4931 29.6068 31.7744 29.2083 31.9844C28.7841 32.2611 28.4756 32.6848 28.8787 33.1506C29.2819 33.6163 29.5589 33.1506 29.8639 32.9089C31.0279 31.9669 31.8307 30.7062 32.7949 29.5891C33.3537 28.8638 34.1574 28.366 35.0562 28.1883C36.2062 28.0342 37.2334 27.4109 38.4254 27.4599C39.975 27.5194 41.5352 27.4003 43.0743 27.5334C44.8798 27.6875 46.6679 28.0272 48.4629 28.2933C51.1625 28.6996 53.7954 29.1583 56.1304 30.8463C57.4872 31.8303 59.135 32.4327 60.5619 33.3817C62.3464 34.5653 63.2159 36.4739 64.4184 38.1233C65.9821 40.2981 66.522 42.9035 67.125 45.4284C67.5769 47.1556 67.8437 48.9259 67.9209 50.7094C67.9594 52.0366 68.0716 53.3709 68.0716 54.7051C68.0716 57.1565 67.5352 59.5483 66.9988 61.9331C66.6674 63.4766 66.1222 64.9664 65.3791 66.3596C65.2242 66.6597 65.1855 67.0063 65.2704 67.3332C65.5158 68.4783 64.9198 69.4343 64.5446 70.3974C64.45 70.639 64.194 71.0172 63.7523 70.702C63.6693 70.6404 63.5654 70.6138 63.463 70.6283C63.3606 70.6427 63.268 70.6969 63.2054 70.7791C62.7356 71.3849 62.3043 71.3464 61.831 70.7791C61.6067 70.5024 61.4244 70.7616 61.2491 70.9052C61.0738 71.0487 60.923 71.1258 60.8143 70.8176C60.4146 69.7075 59.9799 70.3063 59.6153 70.8176C59.4331 71.1346 59.1452 71.3775 58.8019 71.504C57.6765 68.2997 56.6984 65.0919 54.8823 62.2483C54.2192 61.2051 53.4105 60.2618 52.4807 59.4468C50.9488 58.1325 49.7853 56.443 49.1045 54.544C48.5541 53.0067 47.7828 51.5113 47.8529 49.8024C47.8529 49.5397 47.7442 49.2946 47.5023 49.2911C47.3499 49.2968 47.2047 49.3568 47.0928 49.4602C46.9809 49.5636 46.9097 49.7036 46.8922 49.8549C46.8019 50.3175 46.8019 50.7931 46.8922 51.2557C47.7126 54.4074 48.8345 57.3946 51.0994 59.818C51.6884 60.4483 52.4106 60.9526 53.0171 61.5689C53.4799 62.0382 53.6482 62.4094 52.6911 62.6195C51.375 62.8645 50.0282 62.8988 48.7013 62.7211C46.6796 62.5022 44.6402 62.5022 42.6185 62.7211C41.6263 62.8191 40.6166 62.539 39.5754 62.7526C37.7102 63.1343 35.81 62.9207 33.9238 62.8612C33.2752 62.8401 32.7177 63.3269 32.0166 63.2114C31.5952 63.1546 31.179 63.0644 30.7719 62.9417C30.6624 62.9211 30.5581 62.8791 30.4649 62.8181C30.3717 62.7571 30.2915 62.6782 30.2289 62.5861C30.1663 62.494 30.1226 62.3904 30.1003 62.2814C30.078 62.1723 30.0775 62.0599 30.0988 61.9506C30.1409 60.802 30.2566 59.6183 29.3976 58.6378C28.9138 58.8304 28.8332 59.2366 28.8963 59.6884C29.0731 61.3711 29.0861 63.067 28.9348 64.7522C28.8191 66.7728 28.6684 68.7865 28.444 70.7721C28.0934 70.9087 28.0934 70.6215 28.0023 70.4709C27.6517 69.8231 27.2555 69.9281 26.8453 70.3834C26.67 70.5795 26.5823 70.8666 26.3825 71.0172C26.0635 71.2589 25.6813 71.7841 25.4254 70.8771C25.2256 70.1943 24.7803 70.0472 24.2229 70.695C23.7881 71.2063 23.2938 71.8227 22.7363 70.695C22.4979 70.2153 22.0772 70.3658 21.8213 70.8351C21.667 71.1223 21.4987 71.5145 21.1201 71.3779C20.8256 71.2764 20.7029 70.9472 20.6012 70.59C19.9666 68.3347 19.7247 65.9219 18.1997 63.9958C17.1829 62.7106 16.1206 61.4639 15.0724 60.2067C14.9776 60.1086 14.8554 60.0415 14.7218 60.0141C13.2212 59.6359 12.6182 58.3261 11.7172 57.272C9.20692 54.3374 7.89921 50.7864 6.54241 47.2704V47.2634ZM13.4912 68.6989C13.1581 67.6098 12.9092 67.5923 11.9801 68.3242C11.7663 68.4923 11.5489 68.7549 11.2789 68.5798C11.009 68.4047 11.3455 68.0756 11.3 67.8795C10.8968 66.0094 11.8995 64.1884 11.3946 62.2763C11.1212 61.2467 11.4858 60.1086 11.2579 59.002C11.8153 60.0141 15.1355 62.1748 15.3914 62.4794C16.4888 63.7962 17.6948 65.0254 18.3644 66.6573C18.7816 67.6798 18.5818 69.3153 17.8175 70.1032C17.7088 70.2153 17.6107 70.3974 17.4178 70.3098C17.3432 70.271 17.2823 70.2102 17.2434 70.1357C17.2045 70.0611 17.1895 69.9764 17.2005 69.8931C17.2133 69.6913 17.2133 69.489 17.2005 69.2872C17.1268 68.5028 16.643 68.2682 16.0084 68.7094C15.7357 68.9478 15.441 69.16 15.1285 69.3433C14.3957 69.6865 13.8032 69.725 13.4912 68.7024V68.6989Z" fill="black"/>
<path id="Vector_10" d="M45.6382 5.8648C45.9156 5.47549 46.2596 5.27905 46.4527 4.83259C47.0564 3.44323 47.6251 2.011 48.7976 0.97523C49.0644 0.739502 49.1802 0.482345 48.9205 0.189471C48.6607 -0.103403 48.408 -0.0283996 48.1412 0.221615C46.7546 1.5324 46.056 3.29322 45.1468 4.91474C44.8414 5.42549 45.3609 5.50406 45.6382 5.8648Z" fill="black"/>
<path id="Vector_11" d="M47.6772 5.37937C48.0347 5.79152 48.4102 5.37937 48.6462 5.18629C49.4317 4.52921 50.2772 3.95342 51.1706 3.46715C51.3422 3.37433 51.5818 3.34462 51.5282 2.89906C51.2636 2.3124 50.7308 2.40151 50.2481 2.72084C49.4901 3.23443 48.7573 3.78713 48.0526 4.37685C47.7487 4.61077 47.2767 4.90039 47.6772 5.37937Z" fill="black"/>
<path id="Vector_12" d="M89.4471 63.2814C88.8523 63.3873 87.9935 63.4157 87.96 64.3683C87.934 65.1377 88.5363 65.1825 89.0531 65.101C89.7185 65.1458 90.4175 65.1499 90.4286 64.2543C90.4265 64.1185 90.3989 63.9845 90.3476 63.8608C90.2964 63.7371 90.2224 63.6262 90.1304 63.535C90.0384 63.4438 89.9303 63.3742 89.8128 63.3306C89.6953 63.287 89.5708 63.2703 89.4471 63.2814Z" fill="black"/>
<path id="Vector_13" d="M50.6816 5.12805C50.8456 5.34761 51.0234 5.21325 51.184 5.12805C51.7913 4.81392 52.4193 4.53806 53.064 4.30222C53.3237 4.22357 53.8262 4.12853 53.6656 3.72872C53.5767 3.50588 53.1597 3.36496 52.7974 3.40101C52.0217 3.60892 51.3281 4.03326 50.8046 4.6201C50.6679 4.78723 50.5175 4.91504 50.6816 5.12805Z" fill="black"/>
<path id="Vector_14" d="M95.0627 50.0039C95.3017 49.6758 95.5897 49.3973 95.9137 49.1811C96.1017 49.088 96.3623 48.9353 96.2765 48.5519C96.1908 48.1684 95.9104 48.1386 95.6168 48.1572C95.3058 48.1567 95.0021 48.2634 94.7463 48.463C94.4905 48.6626 94.2947 48.9456 94.1853 49.2741C94.1257 49.4387 94.1164 49.621 94.1588 49.7923C94.2012 49.9635 94.2929 50.1139 94.4195 50.2198C94.6405 50.4581 94.8714 50.19 95.0627 50.0039Z" fill="black"/>
<path id="Vector_15" d="M100.228 52.1549C100.871 52.1549 101.232 51.8838 101.232 51.2119C101.232 50.7614 101.011 50.6049 100.617 50.624C100.031 50.6469 99.4387 50.8072 99.3818 51.5135C99.3483 51.964 99.8436 52.2236 100.228 52.1549Z" fill="black"/>
<path id="Vector_16" d="M102.769 62.8186C102.645 62.2372 101.932 62.2294 101.4 62.0434C101.3 62.555 100.551 61.8341 100.619 62.3806C100.687 62.9272 100.972 63.6094 101.82 63.5862C102.349 63.5745 102.837 63.0667 102.769 62.8186Z" fill="black"/>
<path id="Vector_17" d="M88.6248 50.0051C88.8475 50.0067 89.0624 49.9045 89.2255 49.7193C89.3887 49.5342 89.4877 49.28 89.5026 49.0087C89.4022 48.8348 89.3989 48.3129 89.1074 48.5027C88.7252 48.7518 88.0644 48.4038 87.9608 49.1353C87.9546 49.2465 87.9671 49.358 87.9977 49.463C88.0282 49.5681 88.0761 49.6643 88.1383 49.7459C88.2006 49.8274 88.2758 49.8925 88.3595 49.9371C88.4432 49.9816 88.5335 50.0048 88.6248 50.0051Z" fill="black"/>
<path id="Vector_18" d="M84.2942 48.1394C84.3804 48.208 84.6556 48.0094 84.5329 47.7457C84.3075 47.2654 84.4865 46.5575 83.9925 46.301C83.389 46.3516 83.3293 46.6622 83.3293 47.0992C83.3194 47.8143 83.9262 47.8577 84.2942 48.1394Z" fill="black"/>
<path id="Vector_19" d="M108.289 62.2877C108.043 61.6878 107.479 61.7076 106.788 61.757C107.125 62.291 106.987 63.0194 107.819 62.9667C107.905 62.9634 107.99 62.9411 108.065 62.9015C108.14 62.862 108.203 62.8064 108.249 62.7396C108.295 62.6728 108.323 62.5968 108.33 62.5181C108.337 62.4394 108.323 62.3603 108.289 62.2877Z" fill="black"/>
<path id="Vector_20" d="M105.921 51.5485C106.446 51.5485 106.843 51.5201 106.782 51.117C106.736 50.802 106.457 50.6193 105.993 50.6225C105.528 50.6256 105.225 50.8366 105.246 51.1359C105.275 51.4855 105.725 51.5422 105.921 51.5485Z" fill="black"/>
<path id="Vector_21" d="M84.1111 65.7469C84.4851 65.73 84.4884 65.3216 84.5638 65.0717C84.5638 64.7578 84.5442 64.4573 84.2062 64.5215C83.9471 64.5687 83.619 64.6801 83.6387 65.0515C83.6583 65.3688 83.7338 65.7638 84.1111 65.7469Z" fill="black"/>
<path id="Vector_22" d="M25.3308 14.7657C25.9903 14.5526 26.6877 14.4712 27.3808 14.5264C27.5183 14.5612 27.6644 14.5435 27.7889 14.4771C27.9133 14.4106 28.0065 14.3005 28.0493 14.1694C28.1343 13.8731 28.0161 13.6696 27.7575 13.409C27.0483 12.6949 26.1877 12.6949 25.2015 12.6949C24.8322 12.8377 24.1562 12.3772 23.8866 12.9591C23.7799 13.1572 23.7367 13.3814 23.7623 13.6033C23.788 13.8252 23.8814 14.0347 24.0307 14.2051C24.3779 14.5479 24.666 14.962 25.3308 14.7657Z" fill="black"/>
<path id="Vector_23" d="M62.059 39.4712C62.1513 39.6427 62.3395 39.8869 62.6164 39.8011C62.7388 39.7547 62.8391 39.6686 62.8985 39.5588C62.9579 39.449 62.9724 39.3229 62.9395 39.2039C62.9395 38.2733 61.5193 36.6367 60.5643 36.4486C60.4515 36.4132 60.3291 36.4152 60.2177 36.4544C60.1064 36.4935 60.0131 36.5672 59.9536 36.6631C59.919 36.7082 59.8944 36.7593 59.8812 36.8134C59.868 36.8675 59.8664 36.9235 59.8767 36.9781C59.8869 37.0327 59.9087 37.0849 59.9408 37.1317C59.9729 37.1784 60.0147 37.2188 60.0637 37.2504C60.8951 37.8466 61.5761 38.6045 62.059 39.4712Z" fill="black"/>
<path id="Vector_24" d="M54.8016 32.4593C55.859 32.8797 56.7328 33.5566 57.674 34.1445C58.0828 34.401 58.319 34.23 58.3265 33.7312C58.3259 33.6435 58.3146 33.5563 58.2928 33.4711C58.1203 32.9687 55.7803 31.4759 55.1953 31.4902C54.9966 31.4902 54.7228 31.4296 54.6853 31.7111C54.6478 31.9925 54.5166 32.3488 54.8016 32.4593Z" fill="black"/>
<path id="Vector_25" d="M39.0998 30.7171C39.3237 30.5632 39.6663 30.6343 40.1581 30.583C40.4634 30.4014 40.8772 30.9184 41.3691 30.8632C41.6574 30.8316 41.8744 30.7408 41.9457 30.3935C41.9778 30.2838 41.9733 30.1641 41.9331 30.0581C41.8929 29.9521 41.8199 29.8676 41.7286 29.8213C40.7884 29.4894 39.811 29.3218 38.8285 29.324C38.7298 29.3306 38.6341 29.3655 38.5499 29.4255C38.4656 29.4855 38.3953 29.5687 38.3453 29.6679C38.2953 29.7671 38.2672 29.879 38.2633 29.9939C38.2594 30.1088 38.2799 30.223 38.3231 30.3264C38.4588 30.725 38.6216 31.0487 39.0998 30.7171Z" fill="black"/>
<path id="Vector_26" d="M48.7323 30.8026C49.5607 30.8026 49.9931 31.5566 50.7283 31.7386C51.061 31.8198 51.3038 31.8491 51.4468 31.5468C51.525 31.4268 51.5531 31.282 51.5252 31.1423C51.4974 31.0026 51.4157 30.8787 51.2971 30.7961C50.6751 30.3996 50.0563 29.9836 49.208 29.9413C49.0217 30.1071 48.5959 29.7138 48.4662 30.1786C48.3864 30.4256 48.6026 30.8026 48.7323 30.8026Z" fill="black"/>
<path id="Vector_27" d="M51.3845 35.6497C51.8593 36.2673 52.4349 36.7903 52.9065 37.4247C53.0984 37.6846 53.5276 37.8195 53.6772 37.3269C53.8821 36.652 52.3927 34.8567 51.8951 34.8803C51.0561 34.8972 51.1634 35.3629 51.3845 35.6497Z" fill="black"/>
<path id="Vector_28" d="M42.8457 33.6847C43.8871 33.9832 44.8903 34.384 45.8378 34.8801C45.9264 34.7302 45.9748 34.5631 45.9793 34.3927C45.9838 34.2222 45.944 34.0532 45.8634 33.8996C45.673 33.5638 43.45 32.6773 42.9995 32.7209C42.7651 32.7444 42.571 32.7881 42.604 33.0567C42.6369 33.3254 42.4392 33.5537 42.8457 33.6847Z" fill="black"/>
<path id="Vector_29" d="M62.09 42.8481C62.0467 42.7499 61.9747 42.673 61.887 42.6312C61.7993 42.5895 61.7017 42.5857 61.6118 42.6206C61.3385 42.6926 61.4719 42.9657 61.4133 43.2046C61.4751 44.2286 62.3893 44.6761 62.6983 45.5521C62.7342 45.683 62.8057 45.7967 62.902 45.8761C62.9982 45.9554 63.114 45.9961 63.2318 45.9921C63.5213 45.9465 63.4595 45.537 63.5409 45.2791C63.6482 44.9302 63.4758 44.695 63.3001 44.4561C62.9032 43.9138 62.36 43.527 62.09 42.8481Z" fill="black"/>
<path id="Vector_30" d="M46.667 32.4107C46.8385 32.3728 47.094 32.3386 47.164 32.0919C47.2166 31.957 47.2284 31.8075 47.1976 31.6649C47.1667 31.5224 47.0949 31.3941 46.9925 31.2987C46.562 30.9191 46.1175 30.5396 45.722 30.1183C45.477 29.8602 45.309 29.9247 45.0221 30.0576C44.6721 30.2322 44.7281 30.551 44.7946 30.7787C45.0921 31.72 45.8235 32.1147 46.667 32.4107Z" fill="black"/>
<path id="Vector_31" d="M56.0832 36.4235C55.6833 36.4707 55.3753 36.7871 55.6585 37.1725C56.1334 37.8557 56.6754 38.4868 57.2759 39.056C57.4423 39.2197 57.9484 39.3688 58.0156 38.7724C58.0829 38.1761 56.6813 36.4598 56.0832 36.4235Z" fill="black"/>
<path id="Vector_32" d="M37.7278 35.8662C38.169 35.8856 38.6064 35.9647 39.0303 36.1016C39.5721 36.1247 39.8952 36.1594 40.0515 35.7967C40.0799 35.7519 40.0994 35.7009 40.1087 35.6471C40.1179 35.5933 40.1168 35.5378 40.1053 35.4845C40.0938 35.4312 40.0722 35.3813 40.0419 35.338C40.0117 35.2947 39.9735 35.259 39.9299 35.2334C39.393 34.7636 38.7191 34.53 38.037 34.5775C37.8567 34.591 37.687 34.6766 37.5593 34.8185C37.4316 34.9604 37.3545 35.1489 37.3423 35.3492C37.3328 35.412 37.3356 35.4763 37.3505 35.5378C37.3654 35.5993 37.392 35.6566 37.4286 35.7056C37.4652 35.7547 37.5109 35.7944 37.5625 35.8221C37.6141 35.8498 37.6705 35.8649 37.7278 35.8662Z" fill="black"/>
<path id="Vector_33" d="M35.6181 31.3251C36.0285 31.0926 36.344 30.9532 35.8499 30.6045C35.1621 30.1196 34.3564 30.2159 33.5698 30.4019C32.7831 30.5879 33.0453 31.1092 33.1062 31.7934C33.8928 30.91 34.8277 31.7768 35.6181 31.3251Z" fill="black"/>
<path id="Vector_34" d="M30.7276 34.547C31.1928 34.2767 31.7332 34.2737 32.2414 34.1522C32.3721 34.1163 32.4868 34.0473 32.57 33.9545C32.6531 33.8616 32.7008 33.7494 32.7066 33.6329C32.7066 33.5083 32.6815 33.3869 32.5205 33.3717C31.8048 33.3079 31.0891 33.2957 30.4986 33.6541C30.3717 33.7308 30.2833 33.8451 30.2509 33.9744C30.2184 34.1038 30.2442 34.2387 30.3233 34.3527C30.4163 34.4772 30.5809 34.6321 30.7276 34.547Z" fill="black"/>
<path id="Vector_35" d="M65.8953 46.2968C66.18 46.3366 66.3355 46.0908 66.3521 45.7257C66.127 45.2414 66.0211 44.5727 65.3591 44.4643C65.2813 44.4423 65.1994 44.444 65.1223 44.4693C65.0453 44.4945 64.9761 44.5424 64.9222 44.6075C64.8683 44.6727 64.8318 44.7528 64.8166 44.8391C64.8014 44.9253 64.8082 45.0145 64.8362 45.0968C64.9653 45.7113 65.2731 46.2173 65.8953 46.2968Z" fill="black"/>
<path id="Polygon 1" d="M53 18L56 11.5V10.5H68V11.5L53 18Z" fill="white"/>
<path id="Polygon 2" d="M56 11.5L53 18L68 11.5" stroke="#CAC5B8" stroke-linecap="round"/>
</g>
</svg>
