<svg width="236" height="195" viewBox="0 0 236 195" fill="none" xmlns="http://www.w3.org/2000/svg">
<g id="pictogram2" clip-path="url(#clip0_1366_658536)">
<circle id="Ellipse 24" cx="118" cy="97.5" r="97" fill="white"/>
<path id="stars" d="M189.342 23.9263C189.139 23.6592 188.96 22.764 188.602 20.9737C188.36 19.7653 188.239 19.1611 188.023 18.6371C187.432 17.2055 186.295 16.0684 184.863 15.4774C184.339 15.261 183.735 15.1402 182.526 14.8985C180.736 14.5404 179.841 14.3614 179.574 14.158C178.809 13.5754 178.809 12.4246 179.574 11.842C179.841 11.6386 180.736 11.4596 182.526 11.1015C183.735 10.8598 184.339 10.739 184.863 10.5226C186.295 9.93159 187.432 8.79452 188.023 7.36295C188.239 6.83891 188.36 6.23472 188.601 5.02636C188.96 3.23602 189.139 2.3408 189.342 2.07366C189.925 1.30878 191.075 1.30878 191.658 2.07366C191.861 2.34079 192.04 3.23595 192.398 5.02625C192.64 6.23465 192.761 6.83891 192.977 7.36295C193.568 8.79452 194.705 9.93159 196.137 10.5226C196.661 10.739 197.265 10.8598 198.474 11.1015C200.264 11.4596 201.159 11.6386 201.426 11.842C202.191 12.4246 202.191 13.5754 201.426 14.158C201.159 14.3614 200.264 14.5404 198.474 14.8985C197.265 15.1402 196.661 15.261 196.137 15.4774C194.705 16.0684 193.568 17.2055 192.977 18.6371C192.761 19.1611 192.64 19.7653 192.398 20.9737C192.04 22.764 191.861 23.6592 191.658 23.9263C191.075 24.6912 189.925 24.6912 189.342 23.9263Z" fill="#5296E0"/>
<g id="Frame 1">
<path id="Vector 2" d="M217.127 119.074H224.325L222.076 121.773L215.328 124.922L209.03 127.621L199.583 129.87H194.634L184.738 131.22L168.093 131.67L160.445 130.32L155.497 127.621L156.397 123.122V117.724L155.497 108.277L154.147 102.879L164.044 109.177L173.941 113.675L184.738 115.925L195.984 119.074H202.282L209.93 119.524L217.127 119.074Z" fill="#DFEAF6" stroke="black"/>
<path id="Vector" d="M73.2377 142.271C73.7298 141.991 74.1946 141.664 74.6257 141.295C75.611 140.604 76.3676 140.972 76.4765 142.2C76.4964 142.516 76.4964 142.833 76.4765 143.149C76.4595 143.279 76.4828 143.412 76.5432 143.528C76.6036 143.645 76.6981 143.74 76.814 143.801C77.1134 143.944 77.2658 143.653 77.4346 143.478C78.6267 142.244 78.9315 139.683 78.2838 138.082C77.244 135.521 75.3715 133.597 73.6677 131.541C73.2703 131.064 68.1153 127.702 67.2498 126.096C67.5982 127.828 67.0321 129.61 67.4621 131.223C68.2514 134.189 66.6892 137.046 67.3152 139.996C67.3805 140.303 66.8416 140.796 67.2825 141.092C67.7234 141.388 68.0228 140.955 68.3712 140.692C69.8192 139.546 70.2056 139.595 70.7173 141.279C71.1691 142.842 72.0891 142.781 73.2377 142.271Z" fill="#CFE1F4"/>
<path id="Vector_2" d="M73.0409 127.823C73.2484 127.865 73.4382 127.97 73.5854 128.123C75.2186 130.085 76.8519 132.037 78.4416 134.037C80.8098 137.044 81.1636 140.804 82.1708 144.33C82.3287 144.877 82.5138 145.423 82.9766 145.56C83.5809 145.773 83.8422 145.161 84.0654 144.713C84.4628 143.98 85.1161 143.745 85.4863 144.494C86.352 146.238 87.1196 145.281 87.7947 144.494C88.6548 143.483 89.3517 143.712 89.662 144.778C90.0758 146.189 90.6474 145.369 91.1483 144.997C91.4586 144.762 91.5947 144.314 91.8669 144.008C92.5039 143.292 93.1245 143.128 93.6635 144.144C93.7887 144.379 93.7996 144.828 94.3495 144.614C94.6979 141.515 94.9265 138.378 95.1116 135.218C95.3465 132.588 95.3264 129.941 95.0518 127.314C94.9538 126.615 95.079 125.98 95.8303 125.674C97.1423 127.199 96.9681 129.052 96.9191 130.845C96.886 131.016 96.8868 131.191 96.9214 131.361C96.9561 131.532 97.024 131.693 97.1211 131.837C97.2183 131.981 97.3428 132.104 97.4875 132.199C97.6323 132.294 97.7943 132.36 97.9644 132.392C98.5965 132.584 99.2427 132.724 99.8971 132.813C100.986 132.999 101.852 132.266 102.859 132.266C105.788 132.359 108.744 132.693 111.635 132.097C113.268 131.764 114.82 132.206 116.36 132.048C119.5 131.706 122.667 131.706 125.806 132.048C127.866 132.325 129.958 132.272 132.001 131.889C133.488 131.583 133.226 131.004 132.508 130.249C131.566 129.293 130.444 128.5 129.53 127.516C126.002 123.739 124.265 119.049 122.997 114.152C122.856 113.43 122.856 112.687 122.997 111.965C123.024 111.729 123.134 111.511 123.308 111.349C123.482 111.188 123.707 111.094 123.944 111.085C124.336 111.085 124.527 111.473 124.488 111.883C124.38 114.551 125.577 116.885 126.432 119.285C127.489 122.249 129.296 124.886 131.675 126.937C133.119 128.209 134.374 129.682 135.404 131.31C138.24 135.748 139.759 140.755 141.491 145.757C141.998 145.553 142.422 145.183 142.694 144.707C143.238 143.893 143.935 142.958 144.556 144.707C144.724 145.188 144.959 145.068 145.231 144.844C145.503 144.62 145.775 144.215 146.134 144.647C146.864 145.549 147.539 145.604 148.269 144.647C148.366 144.519 148.51 144.434 148.669 144.412C148.828 144.389 148.989 144.431 149.118 144.527C149.804 145.019 150.207 144.428 150.348 144.051C150.947 142.521 151.851 141.056 151.475 139.269C151.343 138.758 151.404 138.217 151.644 137.749C152.798 135.574 153.645 133.249 154.159 130.84C154.998 127.117 155.825 123.4 155.825 119.558C155.825 117.475 155.645 115.393 155.591 113.321C155.471 110.537 155.057 107.774 154.355 105.078C153.397 101.137 152.58 97.0704 150.152 93.6759C148.312 91.0959 146.962 88.1224 144.164 86.2749C141.948 84.7936 139.389 83.8534 137.282 82.3174C133.662 79.6828 129.573 78.9667 125.376 78.3326C122.588 77.9118 119.812 77.387 117.008 77.1465C114.618 76.9388 112.19 77.1465 109.789 77.0317C107.933 76.9607 106.343 77.9282 104.557 78.1687C103.162 78.446 101.914 79.223 101.046 80.3551C99.5486 82.0988 98.3237 84.0666 96.4945 85.5369C96.0208 85.9196 95.5853 86.6302 94.9646 85.9141C94.344 85.198 94.8122 84.5257 95.4764 84.0939C96.0953 83.7662 96.6489 83.3271 97.1097 82.7984C98.6072 80.8787 100.206 79.0413 101.901 77.2941C105.439 73.599 109.392 70.3522 113.148 66.9085C113.339 66.7336 113.595 66.5478 113.469 66.2635C113.344 65.9793 113.056 66.0285 112.734 66.0066C110.704 65.87 108.738 66.4111 106.844 66.8539C104.007 67.5153 101.095 67.723 98.291 68.5374C97.959 68.638 97.6007 68.6025 97.2946 68.4386C96.9886 68.2747 96.7596 67.9958 96.6578 67.6629C96.4291 66.8921 97.175 66.8867 97.6813 66.6188C99.5323 65.6513 101.492 64.8588 103.251 63.7874C106.751 61.6447 110.328 59.7097 113.987 57.813C116.845 56.3262 119.757 54.8777 121.957 52.3961C122.191 52.1337 122.752 51.8222 122.539 51.5598C121.799 50.6688 121.026 49.3734 120.068 49.1875C118.275 48.8018 116.422 48.7869 114.624 49.1438C108.548 50.401 102.374 50.237 96.2495 50.6907C93.1082 50.9257 89.9451 51.2373 86.8256 51.3849C85.0562 51.4723 83.4829 53.9867 81.5828 51.9315C81.5828 51.9315 81.4903 51.9588 81.4359 51.9643C79.9932 52.1556 78.5504 52.325 77.1186 52.5491C75.6868 52.7733 74.5871 53.1668 74.9736 54.987C75.0716 55.4298 74.7994 55.7468 74.5109 56.1513C73.6779 57.3046 72.6598 57.6053 71.3369 57.5998C70.4985 57.5998 69.4913 57.1516 68.8271 57.977C67.3433 59.682 66.0911 61.577 65.1033 63.6125C63.6334 66.9796 62.3159 70.4123 60.993 73.8395C58.8806 79.3056 58.9078 85.0395 58.1348 90.6696C57.8961 92.9552 57.9656 95.2626 58.3416 97.5295C58.8153 101.044 59.0331 104.635 60.3015 107.953C62.4084 113.419 64.4391 118.984 68.3753 123.581C69.7799 125.188 70.7054 127.21 73.0409 127.823ZM151.677 103.52C152.766 103.684 152.923 104.69 153.31 105.428C153.283 105.975 153.027 106.352 152.559 106.292C151.535 106.166 151.029 105.406 150.833 104.482C150.787 104.36 150.776 104.227 150.8 104.098C150.823 103.969 150.881 103.849 150.967 103.751C151.053 103.652 151.163 103.579 151.287 103.538C151.411 103.498 151.544 103.491 151.671 103.52H151.677ZM148.595 103.646C148.889 103.99 149.178 104.329 148.998 104.832C148.867 105.204 148.971 105.794 148.481 105.86C148.284 105.866 148.09 105.807 147.929 105.693C147.768 105.578 147.648 105.414 147.588 105.226C147.071 103.963 145.541 103.318 145.438 101.842C145.541 101.498 145.312 101.104 145.77 101C145.92 100.95 146.084 100.956 146.23 101.016C146.377 101.076 146.498 101.187 146.57 101.328C147.016 102.307 147.926 102.864 148.59 103.646H148.595ZM143.08 91.2927C143.171 91.1339 143.315 91.0118 143.485 90.947C143.656 90.8822 143.844 90.8788 144.017 90.9374C145.487 91.2545 147.67 93.9602 147.659 95.5016C147.709 95.6988 147.687 95.9077 147.596 96.0896C147.505 96.2715 147.351 96.4141 147.163 96.491C146.744 96.6385 146.45 96.2395 146.309 95.9444C145.568 94.5043 144.522 93.2449 143.244 92.2548C143.096 92.1482 142.996 91.9875 142.965 91.8074C142.935 91.6273 142.976 91.4424 143.08 91.2927ZM139.003 95.1791C138.079 94.3234 137.245 93.3746 136.515 92.3477C136.095 91.7464 136.553 91.2927 137.168 91.2217C138.088 91.2763 140.238 93.9164 140.14 94.7527C140.042 95.5891 139.269 95.4251 138.992 95.1791H139.003ZM135.192 84.001C135.246 83.5691 135.644 83.6675 135.932 83.6621C136.781 83.6621 140.179 85.9305 140.429 86.7012C140.461 86.8319 140.477 86.9658 140.478 87.1002C140.478 87.8655 140.119 88.1279 139.531 87.7343C138.164 86.8324 136.89 85.7938 135.36 85.1488C134.914 84.9794 135.115 84.3945 135.164 84.0283L135.192 84.001ZM133.558 92.6428C133.308 93.4409 132.589 93.2222 132.268 92.8014C131.484 91.7737 130.515 90.9265 129.72 89.9262C129.35 89.4616 129.176 88.7073 130.575 88.6745C131.375 88.6417 133.869 91.5551 133.526 92.6428H133.558ZM125.115 81.2078C125.327 80.4261 126.029 81.0875 126.329 80.8088C127.717 80.8798 128.729 81.5795 129.748 82.2464C129.942 82.3853 130.075 82.5937 130.121 82.8286C130.166 83.0636 130.12 83.3071 129.993 83.509C129.758 84.0174 129.345 83.9682 128.817 83.8315C127.624 83.5309 126.922 82.2628 125.55 82.2573C125.37 82.2628 125.017 81.6287 125.115 81.2078ZM119.834 81.4046C120.258 81.2187 120.525 81.1203 120.923 81.492C121.543 82.0988 122.229 82.6344 122.899 83.192C123.058 83.3294 123.17 83.5142 123.218 83.7195C123.266 83.9248 123.247 84.1402 123.166 84.3344C123.057 84.6897 122.659 84.7389 122.392 84.7935C121.069 84.3672 119.937 83.7987 119.496 82.4486C119.398 82.1152 119.284 81.6506 119.855 81.3991L119.834 81.4046ZM116.322 85.7774C116.273 85.3675 116.562 85.291 116.91 85.2308C117.574 85.1652 120.879 86.6028 121.167 87.1494C121.287 87.3995 121.346 87.6746 121.34 87.9521C121.333 88.2295 121.261 88.5015 121.129 88.7455C119.721 87.9381 118.23 87.2856 116.681 86.7996C116.099 86.581 116.404 86.1109 116.344 85.7501L116.322 85.7774ZM110.334 80.3114C111.911 80.3083 113.479 80.5405 114.988 81.0001C115.135 81.0642 115.252 81.1813 115.317 81.3281C115.381 81.4749 115.388 81.6408 115.337 81.7927C115.222 82.2737 114.874 82.3994 114.411 82.4431C113.622 82.5197 112.952 81.8036 112.468 82.055C111.678 82.1261 111.134 82.0222 110.769 82.2409C110.001 82.7 109.74 82.2409 109.517 81.6943C109.439 81.5478 109.401 81.3838 109.405 81.218C109.408 81.0522 109.455 80.8902 109.539 80.7475C109.623 80.6048 109.742 80.4862 109.885 80.4031C110.028 80.32 110.19 80.2753 110.355 80.2731L110.334 80.3114ZM109.326 88.4012C110.402 88.333 111.466 88.668 112.31 89.3413C112.378 89.3776 112.438 89.4281 112.485 89.4895C112.533 89.5508 112.567 89.6216 112.585 89.6971C112.603 89.7726 112.605 89.8511 112.59 89.9274C112.575 90.0036 112.545 90.0759 112.5 90.1394C112.255 90.6586 111.749 90.604 110.9 90.5712C110.235 90.3773 109.55 90.2653 108.858 90.2378C108.766 90.2407 108.674 90.2229 108.589 90.1857C108.504 90.1486 108.428 90.093 108.367 90.0229C108.306 89.9528 108.261 89.8701 108.236 89.7806C108.211 89.6911 108.206 89.597 108.221 89.5053C108.238 89.2171 108.36 88.9453 108.564 88.7416C108.768 88.538 109.039 88.4168 109.326 88.4012ZM102.363 81.8419C103.452 81.5303 104.623 81.3718 105.63 82.1753C106.338 82.7492 105.886 82.9788 105.298 83.3614C104.165 84.1048 102.842 82.6782 101.721 84.1322C101.601 83.0116 101.313 82.1425 102.347 81.8419H102.363ZM97.616 86.7121C98.5251 86.0672 99.6194 86.0835 100.692 86.2038C100.937 86.2038 100.98 86.4498 100.975 86.6739C100.966 86.8836 100.894 87.0856 100.767 87.2527C100.641 87.4198 100.466 87.544 100.267 87.6086C99.4942 87.8272 98.6721 87.8327 97.9644 88.3192C97.7466 88.4668 97.4907 88.1935 97.3492 87.9748C97.2294 87.7715 97.1893 87.5308 97.2366 87.2994C97.2839 87.068 97.4152 86.8626 97.6051 86.7231L97.616 86.7121ZM87.272 54.4623C87.6694 53.5713 88.6548 54.2764 89.2102 54.0578C90.6637 54.0578 91.9322 54.0578 92.9775 55.151C93.3586 55.55 93.5219 55.8616 93.4076 56.3153C93.3446 56.5159 93.2071 56.6846 93.0237 56.7863C92.8403 56.888 92.6249 56.9151 92.4222 56.8619C91.4007 56.7773 90.3728 56.9018 89.4007 57.2281C88.4207 57.5123 87.9961 56.8783 87.4789 56.3481C87.2673 56.0891 87.1356 55.7738 87.0998 55.4408C87.064 55.1078 87.1258 54.7715 87.2775 54.4732L87.272 54.4623Z" fill="#CFE1F4"/>
<path id="Vector_3" d="M72.8622 56.7498C74.1831 62.9237 74.0625 67.2306 76.803 73.126C79.0338 77.9242 82.4704 84.2564 87.8473 86.227C94.3149 88.596 97.0171 82.7115 100.728 78.6775C104.438 74.6435 108.785 71.3628 112.605 67.5799C113.701 66.4882 114.633 65.8768 114.83 64.4521C112.638 64.2501 110.55 65.6366 108.308 65.855C105.567 66.1225 102.904 65.4947 100.41 66.6083C104.537 64.7141 108.5 62.083 112.413 59.7467C115.099 58.1418 123.31 54.8338 123.677 51.3129C124.225 45.9852 112.216 48.4689 109.042 48.7473C103.326 49.2495 97.4281 48.9493 91.5032 49.4734C86.3894 49.9264 74.4846 48.6382 73.2349 54.9321L72.8622 56.7498Z" fill="white"/>
<path id="Vector_4" d="M125.242 134.25C124.421 134.34 123.705 133.953 122.939 133.863C121.197 133.672 119.437 132.892 117.695 133.539C116.762 133.872 115.76 133.991 114.77 133.889C114.019 133.804 113.258 133.893 112.55 134.149C112.168 134.303 111.557 134.467 111.74 134.918C112.567 136.922 112.545 139.021 112.739 141.11C112.772 141.471 112.739 142.282 113.4 142.324C113.849 142.356 114.071 141.794 114.315 141.386C114.425 141.153 114.607 140.958 114.836 140.826C115.065 140.695 115.33 140.633 115.597 140.649C116.413 140.707 115.98 141.349 116.197 141.672C116.413 141.996 116.507 142.733 117.179 142.446C118.111 141.959 118.239 142.446 118.411 143.083C118.489 143.358 118.638 144.116 119.049 143.729C120.053 142.791 121.041 142.012 122.523 141.975C122.695 141.975 122.85 141.497 123.011 141.248C124.227 139.382 124.565 137.134 125.925 135.315C126.23 134.886 126.186 134.144 125.242 134.25Z" fill="#CFE1F4"/>
<path id="Vector_5" d="M75.2246 151.436C76.5209 149.195 78.7106 147.519 79.3969 144.907C79.4895 144.548 79.484 144.178 79.9415 144.135C80.5546 146.722 81.0003 149.347 81.276 151.991C81.4775 153.585 80.813 155.642 78.9121 155.903C78.6242 155.937 78.3589 156.075 78.1669 156.292C77.9749 156.509 77.8698 156.789 77.8717 157.078C77.8336 157.677 77.8717 158.166 78.6016 158.433C78.9555 158.508 79.2702 158.709 79.4875 158.998C79.7048 159.287 79.8099 159.645 79.7836 160.005C79.7836 161.349 80.7422 161.839 81.9242 161.463C82.8338 161.175 83.1388 161.327 83.2096 162.258C83.2913 163.346 84.1519 163.814 84.9254 163.275C87.9102 161.197 91.1075 159.412 92.4093 155.506C93.1501 153.286 93.6839 151.006 94.4573 148.808C95.8789 144.782 96.2384 140.604 96.3474 136.387C96.4018 134.211 99.8115 134.679 100.405 134.543C102.987 133.956 105.591 134.396 108.178 134.26C108.723 134.233 109.267 134.179 109.485 134.804C110.144 136.844 111.179 138.678 110.858 141.083C110.22 145.8 109.768 150.419 104.991 153.052C104.648 153.243 104.022 153.596 104.294 154.14C104.405 154.434 104.595 154.69 104.843 154.883C105.091 155.075 105.388 155.194 105.7 155.228C106.113 155.228 106.533 155.228 106.952 155.228C107.257 155.228 107.606 155.228 107.628 155.658C107.715 157.492 108.772 157.176 109.992 156.828C110.536 156.67 111.293 156.164 111.686 157.274C112.143 158.574 113.254 158.803 114.24 157.862C118.148 154.067 121.248 149.521 123.353 144.499C124.513 141.839 125.357 139.021 127.024 136.594C127.645 135.686 128.113 134.679 129.322 134.325C130.833 133.971 132.386 133.834 133.936 133.917C134.143 133.895 134.351 133.942 134.527 134.053C134.703 134.164 134.836 134.331 134.905 134.527C135.646 136.377 136.812 138.003 137.476 139.908C138.446 142.682 138.642 145.609 139.383 148.411C139.835 150.125 139.23 151.197 137.983 152.089C137.03 152.775 135.962 153.297 134.998 153.972C134.306 154.456 133.952 155.06 134.737 155.849C135.826 156.937 137.683 157.443 137.286 159.57C137.309 159.685 137.358 159.793 137.43 159.886C137.501 159.979 137.593 160.055 137.698 160.107C137.803 160.159 137.918 160.187 138.036 160.189C138.153 160.19 138.269 160.164 138.375 160.114C138.778 159.929 139.312 160.043 139.731 159.875C140.625 159.516 141.256 159.38 141.583 160.625C141.736 161.213 142.373 161.474 143.217 161.316C145.396 160.892 146.355 159.521 147.03 157.508C148.179 154.091 148.849 150.522 150.336 147.198C151.18 145.305 152.422 143.558 152.7 141.415C152.885 140 155.238 132.982 155.631 130.702C155.794 129.755 156.246 129.783 156.927 130.158C157.781 130.702 158.725 131.089 159.716 131.3C163.169 131.692 166.557 132.677 170.065 132.525C174.286 132.34 178.513 132.236 182.734 132.03C186.389 131.85 190.054 131.942 193.677 131.17C194.657 130.963 196.667 130.082 196.111 132.731C196.062 132.971 196.34 133.275 196.498 133.553C196.901 134.26 197.522 133.765 198.023 133.76C198.524 133.754 198.775 133.346 198.878 132.846C199.004 132.231 198.579 132.068 198.17 131.823C197.762 131.578 197.157 131.605 197.021 130.909C199.624 130.441 202.206 130.109 204.723 129.494C207.446 128.836 210.169 128.188 212.702 127.051C216.27 125.419 219.783 123.733 223.313 121.97C225.219 121.007 226.717 119.652 228.346 118.395C228.628 118.168 228.855 117.88 229.01 117.552C229.228 117.122 229.321 116.845 228.923 116.464C228.797 116.3 228.615 116.189 228.412 116.151C228.208 116.114 227.998 116.154 227.823 116.263C223.754 117.813 219.445 118.216 215.17 118.471C211.842 118.667 208.476 118.629 205.12 118.613C200.42 118.613 195.861 117.644 191.34 116.785C188.344 116.241 185.348 115.653 182.385 114.832C178.921 113.863 175.332 113.352 171.976 111.964C168.436 110.536 165.046 108.761 161.856 106.665C160.355 105.628 158.95 104.459 157.657 103.172C156.023 101.578 153 95.4848 152.411 94.5272C151.714 93.3956 151.077 92.2204 150.298 91.1432C148.664 88.9125 147.319 86.4751 144.949 84.8538C143.032 83.548 132.901 77.9823 129.41 77.4437C126.141 76.9322 122.873 76.1923 119.562 75.855C115.384 75.4306 111.244 75.0063 107.034 75.621C106.729 75.6646 106.244 74.9083 106.571 74.6363C108.39 73.1238 110.275 71.6875 112.018 70.0934C113.558 68.8154 114.926 67.3432 116.087 65.7136C116.811 64.5929 116.495 64.0271 115.172 64.0325C113.32 64.0602 111.476 64.2661 109.665 64.6473L103.396 65.8878C103.624 65.5015 103.679 65.2675 103.826 65.1805C106.103 63.8094 108.303 62.2806 110.694 61.1598C112.993 60.0717 115.117 58.6789 117.47 57.705C121.169 56.1762 123.522 52.9717 126.381 50.4037C126.714 50.1056 126.946 49.7109 127.044 49.2749C127.141 48.8389 127.1 48.3833 126.926 47.9717C126.632 47.2318 119.927 47.7269 117.634 47.6562C114.532 47.6556 111.436 47.9031 108.374 48.3961C106.299 48.6681 104.223 48.5212 102.165 48.7171C98.0413 49.1034 93.9072 49.2612 89.773 49.3047C89.0486 49.3047 88.553 49.3047 88.9342 48.2819C89.2617 47.4744 89.3882 46.5995 89.3028 45.7325C89.2174 44.8654 88.9227 44.032 88.444 43.3037C87.3873 41.6443 84.4951 40.1209 82.7358 42.2754C81.9356 43.2033 81.3519 44.2973 81.0269 45.4782C80.702 46.6591 80.6438 47.8973 80.8566 49.1034C81.0146 50.1154 80.7804 50.5941 79.7019 50.5669C78.2639 50.5288 73.9827 51.0131 73.7649 50.2786C73.2855 48.6464 72.2615 47.3733 71.2865 46.073C69.1568 43.2221 66.9291 43.2874 64.9465 46.111C62.6806 49.3428 63.7808 53.3144 65.8615 55.3928C67.4956 57.025 67.4683 57.025 65.7362 58.7768C65.6115 58.9443 65.5089 59.1271 65.4312 59.3209C64.1551 61.4568 63.032 63.6803 62.0705 65.9748C60.6435 69.6309 59.1347 73.2489 58.0508 77.0247C56.8361 81.2412 56.6455 85.6264 56.2424 89.9462C55.6978 95.6752 56.5747 101.372 57.8765 106.97C58.541 109.892 59.8809 112.503 61.0792 115.191C62.0106 117.275 62.7405 119.445 63.6773 121.524C66.3747 127.332 66.8305 133.931 64.9573 140.054C63.2634 145.773 61.4333 151.48 57.3754 156.115C57.1586 156.347 57.0421 156.654 57.0513 156.971C57.0605 157.288 57.1946 157.589 57.4244 157.807C57.9037 158.27 58.4266 158.058 58.9495 157.666C59.6474 157.039 60.5228 156.643 61.455 156.534C61.455 156.866 61.455 157.176 61.5259 157.475C61.7819 158.933 62.3647 159.265 63.7046 158.661C64.5761 158.264 64.5597 158.781 64.6959 159.412C65.0064 160.832 66.1665 161.262 67.1415 160.326C70.0447 157.546 73.1711 154.989 75.2246 151.436ZM125.695 135.337C124.36 137.198 124.028 139.51 122.835 141.425C122.677 141.687 122.525 142.165 122.356 142.171C120.902 142.214 119.927 143.009 118.946 143.972C118.543 144.369 118.402 143.591 118.32 143.308C118.156 142.682 118.026 142.16 117.111 142.655C116.452 142.949 116.386 142.252 116.147 141.861C115.907 141.469 116.359 140.871 115.558 140.811C115.296 140.794 115.036 140.858 114.811 140.993C114.586 141.128 114.408 141.328 114.3 141.567C114.06 141.986 113.837 142.557 113.401 142.53C112.764 142.486 112.786 141.654 112.753 141.284C112.563 139.146 112.584 136.986 111.773 134.929C111.593 134.472 112.192 134.304 112.568 134.14C113.262 133.878 114.01 133.786 114.747 133.874C115.718 133.979 116.701 133.856 117.617 133.515C119.327 132.851 121.054 133.651 122.764 133.847C123.522 133.934 124.224 134.336 125.025 134.244C125.967 134.135 126.011 134.897 125.695 135.337ZM210.589 125.114C210.97 123.803 211.755 122.536 211.21 121.11C210.987 120.533 211.286 120.599 211.629 120.419C212.86 119.799 221.755 119.407 223.111 119.647C220.54 121.42 212.8 125.528 211.172 125.882C210.867 125.947 210.627 126.154 210.36 125.849C210.006 125.457 210.518 125.359 210.589 125.114ZM201.133 120.071C203.971 119.75 206.716 120.98 209.543 120.452C210.061 120.354 210.088 120.713 210.126 121.121C210.442 123.743 208.301 126.654 205.66 127.378C203.203 128.052 200.708 128.466 198.323 129.01C197.702 128.727 197.337 127.786 197.669 127.378C199.096 125.675 199.995 123.765 199.755 121.486C199.635 120.376 200.044 120.202 201.133 120.071ZM165.533 111.41C165.811 111.235 166.078 111.475 166.399 111.594C168.382 112.394 170.381 113.151 172.39 113.929C174.171 114.625 175.348 117.634 174.629 119.979C173.817 122.634 172.358 124.978 170.816 127.269C170.707 127.427 169.079 128.009 169.471 128.618C169.95 129.347 170.56 128.618 171.023 128.319C172.979 127.03 173.747 124.853 174.836 122.949C176.045 120.865 176.672 118.646 176.013 116.208C175.778 115.359 176.399 115.349 176.917 115.441C179.218 115.788 181.488 116.319 183.703 117.03C184.793 117.411 185.337 119.168 185.147 120.838C185.019 122.216 184.587 123.549 183.881 124.74C183.176 125.931 182.215 126.951 181.067 127.726C180.833 127.889 180.457 128.178 180.789 128.45C180.966 128.559 181.173 128.611 181.381 128.598C181.588 128.585 181.787 128.509 181.95 128.379C183.977 127.244 185.507 125.393 186.236 123.188C186.661 121.932 187.135 120.621 186.639 119.179C186.351 118.33 186.612 117.933 187.848 118.02C190.779 118.232 193.497 119.527 196.454 119.511C197.718 119.511 198.192 120.474 198.159 121.48C198.096 123.813 197.195 126.045 195.621 127.77C193.911 129.766 191.955 129.674 189.837 129.848C183.104 130.392 176.361 130.392 169.618 130.522C166.611 130.523 163.617 130.132 160.712 129.358C164.699 125.169 166.056 120.332 165.947 114.946C165.93 114.059 165.032 111.731 165.522 111.426L165.533 111.41ZM158.615 106.513C159.906 107.432 161.186 108.363 162.537 109.184C162.763 109.304 162.944 109.495 163.049 109.728C164.138 113.336 164.841 116.964 164.051 120.767C163.626 122.813 162.417 124.478 161.666 126.36C159.166 131.203 156.442 127.525 156.54 126.758C156.904 124.209 157.131 121.643 157.221 119.07C157.27 117.024 157.188 114.995 157.036 112.949C156.796 110.146 156.361 107.363 155.734 104.62C157.232 104.777 157.749 105.925 158.604 106.524L158.615 106.513ZM60.028 107.928C58.7534 104.636 58.541 101.056 58.0671 97.5522C57.6992 95.2985 57.6369 93.0055 57.8819 90.7351C58.6554 85.1313 58.6281 79.4295 60.7415 73.9834C62.0651 70.5721 63.3832 67.1554 64.8539 63.804C65.8421 61.778 67.0949 59.8918 68.5795 58.1947C69.244 57.3677 70.2517 57.8139 71.0905 57.8193C72.4086 57.8193 73.4326 57.5255 74.266 56.3775C74.5601 55.9749 74.8106 55.6539 74.7289 55.2187C74.3368 53.4069 75.5133 53.0043 76.875 52.7921C78.2367 52.58 79.7509 52.4004 81.1943 52.21C81.2433 52.21 81.3196 52.1556 81.3414 52.1774C83.2369 54.2176 84.811 51.7149 86.5867 51.6333C89.7077 51.481 92.8723 51.1763 96.0151 50.9423C102.148 50.4853 108.319 50.654 114.398 49.4026C116.198 49.0474 118.051 49.0622 119.845 49.4462C120.804 49.6529 121.577 50.9206 122.318 51.8074C122.536 52.0631 121.969 52.3515 121.735 52.6398C119.556 55.1044 116.62 56.5516 113.761 58.0315C110.122 59.9139 106.522 61.8399 103.02 63.9781C101.26 65.0662 99.2995 65.8333 97.4476 66.7963C96.9411 67.0575 96.1948 67.0684 96.4236 67.8355C96.5255 68.1669 96.7545 68.4445 97.0608 68.6076C97.367 68.7708 97.7254 68.8061 98.0577 68.706C100.863 67.8953 103.777 67.6886 106.615 67.0303C108.51 66.5896 110.476 66.0564 112.508 66.187C112.835 66.187 113.107 66.1326 113.243 66.4427C113.38 66.7528 113.113 66.9051 112.922 67.0847C109.164 70.5341 105.209 73.7658 101.669 77.4219C99.974 79.161 98.3739 80.9898 96.8757 82.9006C96.4147 83.4268 95.8608 83.8638 95.2416 84.19C94.5826 84.6199 94.1033 85.2782 94.7296 86.0018C95.356 86.7254 95.7863 86.0018 96.2602 85.6264C98.0686 84.1628 99.3159 82.2042 100.814 80.4687C101.682 79.3418 102.93 78.5684 104.327 78.2924C106.114 78.053 107.709 77.0846 109.561 77.1607C111.969 77.2532 114.393 77.0682 116.784 77.275C119.589 77.5144 122.367 78.0421 125.156 78.4556C129.35 79.0867 133.44 79.7994 137.068 82.4218C139.176 83.9507 141.736 84.8864 143.953 86.3608C146.725 88.1998 148.076 91.1649 149.944 93.7275C152.373 97.1061 153.212 101.154 154.149 105.077C154.851 107.76 155.266 110.51 155.385 113.281C155.445 115.343 155.62 117.416 155.62 119.489C155.62 123.297 154.786 127.013 153.953 130.718C153.438 133.116 152.591 135.431 151.436 137.595C151.196 138.062 151.136 138.6 151.268 139.108C151.649 140.887 150.723 142.372 150.14 143.868C149.993 144.244 149.595 144.831 148.909 144.342C148.78 144.246 148.619 144.205 148.46 144.227C148.301 144.249 148.157 144.334 148.059 144.461C147.33 145.403 146.66 145.343 145.924 144.461C145.576 144.032 145.292 144.434 145.02 144.657C144.748 144.88 144.514 145 144.345 144.521C143.724 142.797 143.048 143.727 142.482 144.521C142.199 145.014 141.752 145.391 141.218 145.588C139.47 140.609 137.95 135.626 135.129 131.208C134.099 129.587 132.842 128.122 131.398 126.855C129.018 124.814 127.21 122.189 126.152 119.239C125.297 116.85 124.099 114.527 124.208 111.872C124.208 111.464 124.039 111.083 123.663 111.078C123.426 111.086 123.201 111.18 123.027 111.34C122.853 111.501 122.743 111.719 122.715 111.954C122.575 112.672 122.575 113.411 122.715 114.13C123.99 119.026 125.733 123.667 129.252 127.432C130.167 128.411 131.289 129.195 132.231 130.152C132.95 130.882 133.211 131.458 131.724 131.785C129.68 132.165 127.587 132.219 125.526 131.942C122.385 131.602 119.217 131.602 116.076 131.942C114.534 132.095 112.966 131.66 111.348 131.991C108.45 132.584 105.498 132.253 102.568 132.16C101.56 132.127 100.694 132.884 99.6046 132.704C98.9499 132.616 98.3033 132.476 97.6709 132.285C97.5008 132.253 97.3386 132.188 97.1938 132.093C97.049 131.998 96.9245 131.876 96.8273 131.733C96.7301 131.59 96.6622 131.429 96.6275 131.259C96.5928 131.09 96.592 130.915 96.6251 130.746C96.6905 128.961 96.8703 127.122 95.5358 125.599C94.7841 125.898 94.6588 126.529 94.7569 127.231C95.0317 129.845 95.0518 132.48 94.8168 135.098C94.6371 138.237 94.4028 141.366 94.0542 144.45C93.5096 144.663 93.5096 144.217 93.3679 143.983C92.8233 142.976 92.2078 143.139 91.5705 143.847C91.2982 144.151 91.162 144.597 90.8515 144.831C90.3559 145.207 89.7622 146.023 89.3645 144.614C89.0541 143.553 88.3623 143.324 87.4963 144.331C86.8209 145.125 86.0529 146.083 85.1868 144.331C84.8164 143.585 84.1628 143.819 83.7652 144.548C83.5256 144.995 83.2641 145.604 82.6758 145.392C82.2183 145.234 82.0277 144.723 81.8697 144.168C80.8838 140.664 80.508 136.915 78.1386 133.923C76.5591 131.926 74.9087 129.989 73.2801 128.036C73.1329 127.884 72.943 127.779 72.7354 127.737C70.4042 127.149 69.4673 125.114 68.0675 123.477C64.1676 118.918 62.1359 113.401 60.028 107.938V107.928ZM70.8236 141.23C70.3061 139.538 69.9194 139.51 68.476 140.647C68.1437 140.909 67.806 141.317 67.3866 141.045C66.9672 140.773 67.4901 140.261 67.4193 139.957C66.7929 137.051 68.3507 134.222 67.5664 131.252C67.1415 129.652 67.708 127.884 67.3539 126.165C68.22 127.737 73.3781 131.094 73.7757 131.567C75.4806 133.613 77.3543 135.522 78.3946 138.058C79.0428 139.646 78.7324 142.187 77.5449 143.411C77.3761 143.585 77.2236 143.868 76.924 143.732C76.808 143.672 76.7134 143.578 76.653 143.462C76.5926 143.346 76.5693 143.214 76.5863 143.085C76.6062 142.771 76.6062 142.457 76.5863 142.144C76.4719 140.925 75.7203 140.56 74.7344 141.246C74.3106 141.616 73.8528 141.946 73.3672 142.231C72.2288 142.764 71.3083 142.824 70.8236 141.235V141.23Z" fill="#5296E0"/>
<path id="Vector_6" d="M120.767 43.6115C121.198 43.0067 121.732 42.7015 122.032 42.0079C122.97 39.8494 123.854 37.6243 125.675 36.0151C126.09 35.6489 126.27 35.2494 125.866 34.7944C125.463 34.3394 125.07 34.4559 124.656 34.8443C122.501 36.8807 121.416 39.6163 120.004 42.1355C119.529 42.929 120.336 43.0511 120.767 43.6115Z" fill="#5296E0"/>
<path id="Vector_7" d="M123.935 42.8569C124.49 43.4972 125.074 42.8569 125.44 42.5569C126.661 41.5361 127.974 40.6415 129.362 39.8861C129.629 39.7419 130.001 39.6957 129.918 39.0035C129.507 38.0921 128.679 38.2305 127.929 38.7266C126.752 39.5245 125.613 40.3832 124.518 41.2994C124.046 41.6628 123.313 42.1128 123.935 42.8569Z" fill="#5296E0"/>
<path id="Vector_8" d="M188.828 132.814C187.904 132.978 186.57 133.022 186.518 134.502C186.478 135.698 187.413 135.767 188.216 135.641C189.25 135.71 190.336 135.717 190.353 134.325C190.35 134.114 190.307 133.906 190.227 133.714C190.148 133.522 190.033 133.349 189.89 133.208C189.747 133.066 189.579 132.958 189.396 132.89C189.214 132.822 189.021 132.796 188.828 132.814Z" fill="#5296E0"/>
<path id="Vector_9" d="M128.602 42.4672C128.857 42.8083 129.133 42.5996 129.383 42.4672C130.326 41.9792 131.302 41.5506 132.304 41.1842C132.707 41.062 133.488 40.9144 133.238 40.2932C133.1 39.947 132.452 39.7281 131.889 39.7841C130.684 40.1071 129.607 40.7664 128.793 41.6781C128.581 41.9377 128.347 42.1363 128.602 42.4672Z" fill="#5296E0"/>
<path id="Vector_10" d="M197.552 112.186C197.924 111.676 198.371 111.244 198.874 110.908C199.167 110.763 199.571 110.526 199.438 109.93C199.305 109.334 198.869 109.288 198.413 109.317C197.93 109.316 197.458 109.482 197.061 109.792C196.663 110.102 196.359 110.542 196.189 111.052C196.097 111.308 196.082 111.591 196.148 111.857C196.214 112.123 196.356 112.357 196.553 112.521C196.896 112.892 197.255 112.475 197.552 112.186Z" fill="#5296E0"/>
<path id="Vector_11" d="M205.578 115.527C206.576 115.527 207.138 115.106 207.138 114.062C207.138 113.362 206.795 113.119 206.181 113.149C205.271 113.184 204.351 113.434 204.263 114.531C204.211 115.231 204.98 115.634 205.578 115.527Z" fill="#5296E0"/>
<path id="Vector_12" d="M209.525 132.095C209.332 131.192 208.225 131.18 207.398 130.891C207.242 131.686 206.079 130.565 206.185 131.415C206.291 132.264 206.732 133.324 208.051 133.287C208.872 133.269 209.631 132.481 209.525 132.095Z" fill="#5296E0"/>
<path id="Vector_13" d="M187.551 112.189C187.897 112.191 188.231 112.032 188.484 111.745C188.738 111.457 188.891 111.062 188.915 110.641C188.759 110.371 188.754 109.56 188.301 109.855C187.707 110.242 186.68 109.701 186.519 110.837C186.51 111.01 186.529 111.183 186.576 111.347C186.624 111.51 186.698 111.659 186.795 111.786C186.892 111.913 187.009 112.014 187.139 112.083C187.269 112.152 187.409 112.188 187.551 112.189Z" fill="#5296E0"/>
<path id="Vector_14" d="M180.823 109.29C180.956 109.396 181.384 109.088 181.193 108.678C180.843 107.932 181.121 106.832 180.354 106.434C179.416 106.512 179.324 106.995 179.324 107.674C179.308 108.785 180.251 108.852 180.823 109.29Z" fill="#5296E0"/>
<path id="Vector_15" d="M218.101 131.269C217.719 130.337 216.843 130.368 215.77 130.445C216.292 131.274 216.079 132.406 217.371 132.324C217.505 132.319 217.636 132.284 217.753 132.223C217.869 132.161 217.968 132.075 218.039 131.971C218.111 131.868 218.154 131.75 218.165 131.627C218.176 131.505 218.154 131.382 218.101 131.269Z" fill="#5296E0"/>
<path id="Vector_16" d="M214.422 114.585C215.238 114.585 215.854 114.541 215.76 113.915C215.688 113.425 215.255 113.142 214.533 113.147C213.812 113.151 213.34 113.479 213.373 113.944C213.418 114.487 214.117 114.575 214.422 114.585Z" fill="#5296E0"/>
<path id="Vector_17" d="M180.538 136.644C181.119 136.618 181.124 135.983 181.241 135.595C181.241 135.107 181.211 134.64 180.686 134.74C180.283 134.814 179.773 134.987 179.804 135.564C179.835 136.057 179.952 136.67 180.538 136.644Z" fill="#5296E0"/>
<path id="Vector_18" d="M89.2178 57.4403C90.2424 57.1092 91.3259 56.9828 92.4026 57.0686C92.6163 57.1226 92.8433 57.0952 93.0366 56.9919C93.2299 56.8887 93.3748 56.7176 93.4412 56.514C93.5732 56.0536 93.3896 55.7374 92.9879 55.3325C91.8861 54.2232 90.5491 54.2232 89.0169 54.2232C88.4431 54.4451 87.393 53.7296 86.9741 54.6337C86.8083 54.9413 86.7411 55.2898 86.781 55.6345C86.8208 55.9792 86.966 56.3047 87.1979 56.5694C87.7373 57.1019 88.1849 57.7453 89.2178 57.4403Z" fill="#5296E0"/>
<path id="Vector_19" d="M146.279 95.8228C146.422 96.0894 146.714 96.4687 147.145 96.3354C147.335 96.2633 147.491 96.1296 147.583 95.959C147.675 95.7884 147.698 95.5925 147.646 95.4075C147.646 93.9619 145.44 91.4191 143.956 91.1269C143.781 91.072 143.591 91.0751 143.418 91.1359C143.245 91.1966 143.1 91.3112 143.008 91.4601C142.954 91.5303 142.916 91.6097 142.895 91.6937C142.875 91.7777 142.872 91.8647 142.888 91.9496C142.904 92.0345 142.938 92.1156 142.988 92.1882C143.038 92.2608 143.103 92.3235 143.179 92.3726C144.47 93.2988 145.528 94.4764 146.279 95.8228Z" fill="#5296E0"/>
<path id="Vector_20" d="M135.003 84.9282C136.646 85.5813 138.004 86.633 139.466 87.5463C140.101 87.9448 140.468 87.6791 140.48 86.9042C140.479 86.768 140.461 86.6325 140.427 86.5001C140.159 85.7197 136.524 83.4004 135.615 83.4226C135.306 83.4226 134.881 83.3285 134.823 83.7658C134.764 84.203 134.56 84.7566 135.003 84.9282Z" fill="#5296E0"/>
<path id="Vector_21" d="M110.609 82.223C110.957 81.9839 111.489 82.0943 112.253 82.0146C112.727 81.7325 113.37 82.5357 114.134 82.4499C114.582 82.4009 114.92 82.2598 115.03 81.7203C115.08 81.5499 115.073 81.3639 115.011 81.1992C114.948 81.0345 114.835 80.9031 114.693 80.8312C113.232 80.3156 111.714 80.0552 110.187 80.0586C110.034 80.0689 109.886 80.1231 109.755 80.2163C109.624 80.3095 109.515 80.4389 109.437 80.593C109.359 80.747 109.315 80.921 109.309 81.0994C109.303 81.2779 109.335 81.4554 109.402 81.616C109.613 82.2353 109.866 82.7381 110.609 82.223Z" fill="#5296E0"/>
<path id="Vector_22" d="M125.574 82.3556C126.861 82.3556 127.533 83.5271 128.675 83.8098C129.192 83.936 129.569 83.9815 129.792 83.5119C129.913 83.3254 129.957 83.1004 129.913 82.8834C129.87 82.6664 129.743 82.4739 129.559 82.3455C128.593 81.7295 127.631 81.0832 126.314 81.0176C126.024 81.2751 125.363 80.6641 125.161 81.3862C125.037 81.7699 125.373 82.3556 125.574 82.3556Z" fill="#5296E0"/>
<path id="Vector_23" d="M129.694 89.8851C130.432 90.8445 131.326 91.6572 132.059 92.6428C132.357 93.0465 133.024 93.2562 133.256 92.4907C133.574 91.4422 131.26 88.6531 130.487 88.6898C129.184 88.716 129.35 89.4395 129.694 89.8851Z" fill="#5296E0"/>
<path id="Vector_24" d="M116.429 86.8317C118.047 87.2956 119.606 87.9182 121.078 88.6889C121.215 88.456 121.291 88.1965 121.297 87.9316C121.304 87.6668 121.243 87.4043 121.117 87.1656C120.822 86.6439 117.368 85.2666 116.668 85.3344C116.304 85.371 116.002 85.4388 116.054 85.8561C116.105 86.2735 115.797 86.6282 116.429 86.8317Z" fill="#5296E0"/>
<path id="Vector_25" d="M146.327 101.07C146.26 100.917 146.148 100.798 146.012 100.733C145.875 100.668 145.724 100.662 145.584 100.716C145.16 100.828 145.367 101.253 145.276 101.624C145.372 103.215 146.792 103.91 147.272 105.271C147.328 105.474 147.439 105.651 147.589 105.774C147.738 105.897 147.918 105.961 148.101 105.954C148.551 105.884 148.455 105.247 148.581 104.847C148.748 104.305 148.48 103.939 148.207 103.568C147.591 102.726 146.747 102.125 146.327 101.07Z" fill="#5296E0"/>
<path id="Vector_26" d="M122.366 84.854C122.632 84.795 123.029 84.742 123.138 84.3587C123.219 84.1492 123.238 83.9169 123.19 83.6954C123.142 83.4739 123.03 83.2746 122.871 83.1263C122.202 82.5367 121.512 81.947 120.897 81.2925C120.517 80.8915 120.256 80.9918 119.81 81.1982C119.266 81.4694 119.353 81.9647 119.456 82.3185C119.919 83.7808 121.055 84.3941 122.366 84.854Z" fill="#5296E0"/>
<path id="Vector_27" d="M136.994 91.0879C136.373 91.1613 135.894 91.6528 136.334 92.2516C137.072 93.313 137.914 94.2935 138.847 95.1779C139.106 95.4321 139.892 95.6637 139.996 94.7372C140.101 93.8108 137.923 91.1444 136.994 91.0879Z" fill="#5296E0"/>
<path id="Vector_28" d="M108.478 90.2225C109.163 90.2527 109.842 90.3755 110.501 90.5881C111.343 90.6241 111.845 90.6781 112.087 90.1146C112.132 90.045 112.162 89.9657 112.176 89.8821C112.191 89.7985 112.189 89.7124 112.171 89.6296C112.153 89.5468 112.12 89.4691 112.073 89.4018C112.026 89.3346 111.966 89.2792 111.899 89.2394C111.065 88.5094 110.018 88.1466 108.958 88.2203C108.678 88.2413 108.414 88.3744 108.216 88.5949C108.017 88.8153 107.897 89.1082 107.879 89.4192C107.864 89.5168 107.868 89.6168 107.891 89.7123C107.914 89.8079 107.956 89.8968 108.013 89.973C108.069 90.0492 108.14 90.111 108.221 90.154C108.301 90.1971 108.388 90.2204 108.478 90.2225Z" fill="#5296E0"/>
<path id="Vector_29" d="M105.199 83.1664C105.837 82.8052 106.327 82.5885 105.56 82.0468C104.491 81.2935 103.239 81.4431 102.017 81.7321C100.795 82.021 101.202 82.831 101.297 83.8939C102.519 82.5215 103.971 83.8681 105.199 83.1664Z" fill="#5296E0"/>
<path id="Vector_30" d="M97.6026 88.1713C98.3254 87.7514 99.1649 87.7467 99.9543 87.5579C100.157 87.5022 100.336 87.395 100.465 87.2507C100.594 87.1065 100.668 86.9321 100.677 86.7511C100.677 86.5576 100.638 86.3689 100.388 86.3453C99.276 86.2462 98.1641 86.2273 97.2468 86.7841C97.0496 86.9033 96.9123 87.0808 96.8619 87.2818C96.8114 87.4827 96.8516 87.6923 96.9744 87.8694C97.1189 88.0628 97.3747 88.3035 97.6026 88.1713Z" fill="#5296E0"/>
<path id="Vector_31" d="M152.238 106.427C152.68 106.489 152.922 106.107 152.947 105.54C152.598 104.788 152.433 103.749 151.405 103.58C151.284 103.546 151.156 103.549 151.037 103.588C150.917 103.627 150.81 103.702 150.726 103.803C150.642 103.904 150.585 104.029 150.562 104.163C150.538 104.297 150.549 104.435 150.592 104.563C150.793 105.518 151.271 106.304 152.238 106.427Z" fill="#5296E0"/>
</g>
<path id="stars_2" d="M156.946 47.2256C156.849 47.0979 156.763 46.6698 156.592 45.8135C156.476 45.2356 156.419 44.9466 156.315 44.696C156.033 44.0113 155.489 43.4675 154.804 43.1848C154.553 43.0814 154.264 43.0236 153.686 42.908C152.83 42.7367 152.402 42.6511 152.274 42.5538C151.909 42.2752 151.909 41.7248 152.274 41.4462C152.402 41.3489 152.83 41.2633 153.686 41.092C154.264 40.9764 154.553 40.9186 154.804 40.8152C155.489 40.5325 156.033 39.9887 156.315 39.304C156.419 39.0534 156.476 38.7644 156.592 38.1865C156.763 37.3303 156.849 36.9021 156.946 36.7744C157.225 36.4085 157.775 36.4085 158.054 36.7744C158.151 36.9021 158.237 37.3302 158.408 38.1865C158.524 38.7644 158.581 39.0534 158.685 39.304C158.967 39.9887 159.511 40.5325 160.196 40.8152C160.447 40.9186 160.736 40.9764 161.314 41.092C162.17 41.2633 162.598 41.3489 162.726 41.4462C163.091 41.7248 163.091 42.2752 162.726 42.5538C162.598 42.6511 162.17 42.7367 161.314 42.908C160.736 43.0236 160.447 43.0814 160.196 43.1848C159.511 43.4675 158.967 44.0113 158.685 44.696C158.581 44.9466 158.524 45.2356 158.408 45.8135C158.237 46.6697 158.151 47.0979 158.054 47.2256C157.775 47.5915 157.225 47.5915 156.946 47.2256Z" fill="#5296E0"/>
<path id="stars_3" d="M142.047 64.2755C141.967 64.171 141.897 63.8207 141.757 63.1201C141.663 62.6473 141.615 62.4109 141.531 62.2058C141.299 61.6456 140.854 61.2007 140.294 60.9694C140.089 60.8847 139.853 60.8375 139.38 60.7429C138.679 60.6028 138.329 60.5327 138.224 60.4531C137.925 60.2252 137.925 59.7748 138.224 59.5469C138.329 59.4673 138.679 59.3972 139.38 59.2571C139.853 59.1625 140.089 59.1153 140.294 59.0306C140.854 58.7993 141.299 58.3544 141.531 57.7942C141.615 57.5891 141.663 57.3527 141.757 56.8799C141.897 56.1793 141.967 55.829 142.047 55.7245C142.275 55.4252 142.725 55.4252 142.953 55.7245C143.033 55.829 143.103 56.1793 143.243 56.8798C143.337 57.3527 143.385 57.5891 143.469 57.7942C143.701 58.3544 144.146 58.7993 144.706 59.0306C144.911 59.1153 145.147 59.1625 145.62 59.2571C146.321 59.3972 146.671 59.4673 146.776 59.5469C147.075 59.7748 147.075 60.2252 146.776 60.4531C146.671 60.5327 146.321 60.6028 145.62 60.7429C145.147 60.8375 144.911 60.8847 144.706 60.9694C144.146 61.2007 143.701 61.6456 143.469 62.2058C143.385 62.4109 143.337 62.6473 143.243 63.1201C143.103 63.8207 143.033 64.171 142.953 64.2755C142.725 64.5748 142.275 64.5748 142.047 64.2755Z" fill="#5296E0"/>
<path id="stars_4" d="M150.148 81.3254C150.086 81.2441 150.031 80.9717 149.922 80.4268C149.849 80.059 149.812 79.8751 149.746 79.7156C149.566 79.2799 149.22 78.9339 148.784 78.754C148.625 78.6881 148.441 78.6514 148.073 78.5778C147.528 78.4688 147.256 78.4143 147.175 78.3524C146.942 78.1751 146.942 77.8249 147.175 77.6476C147.256 77.5857 147.528 77.5312 148.073 77.4222C148.441 77.3486 148.625 77.3119 148.784 77.246C149.22 77.0661 149.566 76.7201 149.746 76.2844C149.812 76.1249 149.849 75.941 149.922 75.5732C150.031 75.0284 150.086 74.7559 150.148 74.6746C150.325 74.4418 150.675 74.4418 150.852 74.6746C150.914 74.7559 150.969 75.0283 151.078 75.5732C151.151 75.941 151.188 76.1249 151.254 76.2844C151.434 76.7201 151.78 77.0661 152.216 77.246C152.375 77.3119 152.559 77.3486 152.927 77.4222C153.472 77.5312 153.744 77.5857 153.825 77.6476C154.058 77.8249 154.058 78.1751 153.825 78.3524C153.744 78.4143 153.472 78.4688 152.927 78.5778C152.559 78.6514 152.375 78.6881 152.216 78.754C151.78 78.9339 151.434 79.2799 151.254 79.7156C151.188 79.8751 151.151 80.059 151.078 80.4268C150.969 80.9717 150.914 81.2441 150.852 81.3254C150.675 81.5582 150.325 81.5582 150.148 81.3254Z" fill="#5296E0"/>
<path id="stars_5" d="M160.295 27.1508C160.171 26.9882 160.062 26.4433 159.844 25.3536C159.697 24.618 159.624 24.2502 159.492 23.9312C159.132 23.0599 158.44 22.3677 157.569 22.008C157.25 21.8763 156.882 21.8027 156.146 21.6556C155.057 21.4377 154.512 21.3287 154.349 21.2048C153.884 20.8503 153.884 20.1497 154.349 19.7952C154.512 19.6713 155.057 19.5624 156.146 19.3444C156.882 19.1973 157.25 19.1237 157.569 18.992C158.44 18.6323 159.132 17.9401 159.492 17.0687C159.624 16.7498 159.697 16.382 159.844 15.6465C160.062 14.5567 160.171 14.0118 160.295 13.8492C160.65 13.3836 161.35 13.3836 161.705 13.8492C161.829 14.0118 161.938 14.5567 162.156 15.6464C162.303 16.382 162.376 16.7498 162.508 17.0687C162.868 17.9401 163.56 18.6323 164.431 18.992C164.75 19.1237 165.118 19.1973 165.854 19.3444C166.943 19.5623 167.488 19.6713 167.651 19.7952C168.116 20.1497 168.116 20.8503 167.651 21.2048C167.488 21.3287 166.943 21.4377 165.854 21.6556C165.118 21.8027 164.75 21.8763 164.431 22.008C163.56 22.3677 162.868 23.0599 162.508 23.9312C162.376 24.2502 162.303 24.618 162.156 25.3536C161.938 26.4433 161.829 26.9882 161.705 27.1508C161.35 27.6164 160.65 27.6164 160.295 27.1508Z" fill="#5296E0"/>
</g>
<defs>
<clipPath id="clip0_1366_658536">
<rect width="236" height="194" fill="white" transform="translate(0 0.5)"/>
</clipPath>
</defs>
</svg>
