<svg width="24" height="24" viewBox="0 0 24 24" fill="none" xmlns="http://www.w3.org/2000/svg">
<rect x="2" y="2" width="20" height="20" rx="4" fill="currentColor" fill-opacity="0.2"/>
<rect x="5" y="16" width="14" height="3" rx="1.5" fill="currentColor"/>
<path fill-rule="evenodd" clip-rule="evenodd" d="M11.9913 5C11.0792 5 10.3398 5.73939 10.3398 6.65147V9.9544C10.3398 10.0341 10.3455 10.1125 10.3564 10.1892L10.1927 10.0288C9.60953 9.45727 8.67632 9.45727 8.09313 10.0288C7.49305 10.6169 7.49304 11.5831 8.09313 12.1712L10.6002 14.6281C11.3778 15.3902 12.6222 15.3902 13.3999 14.6281L15.907 12.1712C16.5071 11.5831 16.5071 10.6169 15.907 10.0288C15.3238 9.45727 14.3906 9.45727 13.8074 10.0288L13.6232 10.2093C13.6361 10.1262 13.6428 10.0411 13.6428 9.9544V6.65147C13.6428 5.73939 12.9034 5 11.9913 5Z" fill="currentColor"/>
</svg>
