<svg width="24" height="24" viewBox="0 0 24 24" fill="none" xmlns="http://www.w3.org/2000/svg">
<rect x="2" y="2" width="20" height="20" rx="4" fill="currentColor" fill-opacity="0.2"/>
<path d="M14.3478 11.2609C14.4708 10.6459 14.5323 10.3383 14.6022 10.2466C14.8023 9.98382 15.1977 9.98382 15.3978 10.2466C15.4677 10.3383 15.5292 10.6459 15.6522 11.2609V11.2609C15.7352 11.676 15.7767 11.8835 15.851 12.0636C16.0541 12.5553 16.4447 12.9459 16.9364 13.149C17.1165 13.2233 17.324 13.2648 17.7391 13.3478V13.3478C18.3541 13.4708 18.6617 13.5323 18.7534 13.6022C19.0162 13.8023 19.0162 14.1977 18.7534 14.3978C18.6617 14.4677 18.3541 14.5292 17.7391 14.6522V14.6522C17.324 14.7352 17.1165 14.7767 16.9364 14.851C16.4447 15.0541 16.0541 15.4447 15.851 15.9364C15.7767 16.1165 15.7352 16.324 15.6522 16.7391V16.7391C15.5292 17.3541 15.4677 17.6617 15.3978 17.7534C15.1977 18.0162 14.8023 18.0162 14.6022 17.7534C14.5323 17.6617 14.4708 17.3541 14.3478 16.7391V16.7391C14.2648 16.324 14.2233 16.1165 14.149 15.9364C13.9459 15.4447 13.5553 15.0541 13.0636 14.851C12.8835 14.7767 12.676 14.7352 12.2609 14.6522V14.6522C11.6459 14.5292 11.3383 14.4677 11.2466 14.3978C10.9838 14.1977 10.9838 13.8023 11.2466 13.6022C11.3383 13.5323 11.6459 13.4708 12.2609 13.3478V13.3478C12.676 13.2648 12.8835 13.2233 13.0636 13.149C13.5553 12.9459 13.9459 12.5553 14.149 12.0636C14.2233 11.8835 14.2648 11.676 14.3478 11.2609V11.2609Z" fill="currentColor"/>
<path d="M8.34783 7.26087C8.47083 6.64585 8.53233 6.33834 8.60222 6.24657C8.80232 5.98382 9.19768 5.98382 9.39778 6.24657C9.46767 6.33834 9.52917 6.64585 9.65217 7.26087V7.26087C9.7352 7.67598 9.77671 7.88354 9.85103 8.06355C10.0541 8.55533 10.4447 8.94594 10.9364 9.14897C11.1165 9.22329 11.324 9.2648 11.7391 9.34783V9.34783C12.3541 9.47083 12.6617 9.53233 12.7534 9.60222C13.0162 9.80232 13.0162 10.1977 12.7534 10.3978C12.6617 10.4677 12.3541 10.5292 11.7391 10.6522V10.6522C11.324 10.7352 11.1165 10.7767 10.9364 10.851C10.4447 11.0541 10.0541 11.4447 9.85103 11.9364C9.77671 12.1165 9.7352 12.324 9.65217 12.7391V12.7391C9.52917 13.3541 9.46767 13.6617 9.39778 13.7534C9.19768 14.0162 8.80232 14.0162 8.60222 13.7534C8.53233 13.6617 8.47083 13.3541 8.34783 12.7391V12.7391C8.2648 12.324 8.22329 12.1165 8.14897 11.9364C7.94594 11.4447 7.55533 11.0541 7.06355 10.851C6.88354 10.7767 6.67598 10.7352 6.26087 10.6522V10.6522C5.64585 10.5292 5.33834 10.4677 5.24657 10.3978C4.98382 10.1977 4.98382 9.80232 5.24657 9.60222C5.33834 9.53233 5.64585 9.47083 6.26087 9.34783V9.34783C6.67598 9.2648 6.88354 9.22329 7.06355 9.14897C7.55533 8.94594 7.94594 8.55533 8.14897 8.06355C8.22329 7.88354 8.2648 7.67598 8.34783 7.26087V7.26087Z" fill="currentColor"/>
</svg>
