<svg width="20" height="20" viewBox="0 0 20 20" fill="none" xmlns="http://www.w3.org/2000/svg">
  <rect width="20" height="20" rx="4" fill="currentColor" fill-opacity="0.18"/>
  <path d="M3.5 10C3.5 6.41015 6.41015 3.5 10 3.5V3.5C13.5899 3.5 16.5 6.41015 16.5 10V10C16.5 13.5899 13.5899 16.5 10 16.5V16.5C6.41015 16.5 3.5 13.5899 3.5 10V10Z" fill="currentColor" fill-opacity="0.3"/>
  <path fill-rule="evenodd" clip-rule="evenodd" d="M5.5 10C5.5 12.4853 7.51472 14.5 10 14.5C12.4853 14.5 14.5 12.4853 14.5 10C14.5 7.51472 12.4853 5.5 10 5.5C7.51472 5.5 5.5 7.51472 5.5 10ZM10 3.5C6.41015 3.5 3.5 6.41015 3.5 10C3.5 13.5899 6.41015 16.5 10 16.5C13.5899 16.5 16.5 13.5899 16.5 10C16.5 6.41015 13.5899 3.5 10 3.5Z" fill="currentColor" fill-opacity="0.3"/>
  <path d="M12.3957 13.8101L13.8346 15.249C14.3756 14.8532 14.853 14.3757 15.2489 13.8348L13.8099 12.3959L7.60422 6.19017L6.16527 4.75122C5.62436 5.14708 5.14691 5.62452 4.75107 6.16545L6.19002 7.6044L12.3957 13.8101Z" fill="currentColor"/>
</svg>
