<svg width="18" height="20" viewBox="0 0 18 20" fill="none" xmlns="http://www.w3.org/2000/svg">
<path fill-rule="evenodd" clip-rule="evenodd" d="M9 0C8.17157 0 7.5 0.671573 7.5 1.5V5H10.5V1.5C10.5 0.671573 9.82843 0 9 0ZM9 20C10.3807 20 11.5 18.6569 11.5 17C11.5 15.3431 10.3807 14 9 14C7.61929 14 6.5 15.3431 6.5 17C6.5 18.6569 7.61929 20 9 20Z" fill="#0077FF" fill-opacity="0.5"/>
<path fill-rule="evenodd" clip-rule="evenodd" d="M0.500002 14C0.0424796 14.4575 0.0424796 15.1993 0.500002 15.6568C0.719713 15.8765 1.0177 16 1.32842 16H16.6716C17.3186 16 17.8431 15.4755 17.8431 14.8284C17.8431 14.5177 17.7197 14.2197 17.5 14C15.9786 12.4786 15.3387 13.7675 15 9C14.6851 4.56704 13 2.5 9 2.5C5 2.5 3.32008 4.59195 3 9C2.65406 13.7644 2.03054 12.4695 0.500002 14Z" fill="#0077FF"/>
</svg>
