<svg width="20" height="20" viewBox="0 0 20 20" fill="none" xmlns="http://www.w3.org/2000/svg">
<mask id="mask0" mask-type="alpha" maskUnits="userSpaceOnUse" x="0" y="0" width="20" height="20">
<rect width="20" height="20" rx="9.7" fill="currentColor"/>
</mask>
<g mask="url(#mask0)">
<rect opacity="0.4" width="20" height="20" fill="currentColor"/>
<path d="M13 15.5L13.0012 21.1133L6.99985 21.1136L7.00004 16.8339C5.91555 16.5696 5.30635 16.0903 4.94207 15.3558L4.85286 15.16L4.77682 14.9666L4.71107 14.7884L4.66086 14.6562C4.4814 14.2022 4.34244 14.0777 3.90263 13.9904C3.28258 13.8673 3.42523 12.9778 4.00106 12.9982L4.097 13.009L4.28153 13.0501L4.45294 13.0978C5.00148 13.2684 5.32953 13.5606 5.66537 14.0652L5.87312 14.3908C6.16606 14.8306 6.43583 15.0248 7.05144 15.0473C7.24571 14.2077 7.96868 13.5706 8.85073 13.5055L9 13.5L8.73918 13.4949C5.91306 13.3824 4.5 11.4412 4.5 9.5C4.5 8.68836 4.74703 7.79437 5.307 7.02033C5.10233 6.38489 5 5.54478 5 4.5C6.19796 4.5 7.12684 4.76908 7.7848 5.30811C8.41732 5.11221 9.15255 5 10 5C10.8474 5 11.5827 5.11221 12.2134 5.30725C12.8732 4.76908 13.802 4.5 15 4.5C15 5.54478 14.8977 6.38489 14.6921 7.01855C15.253 7.79437 15.5 8.68836 15.5 9.5C15.5 11.4412 14.0869 13.3824 11.2608 13.4949L11 13.5L11.1493 13.5055C12.1841 13.5818 13 14.4456 13 15.5Z" fill="currentColor"/>
</g>
</svg>
