<svg width="16" height="12" viewBox="0 0 16 12" fill="none" xmlns="http://www.w3.org/2000/svg">
<path d="M0 1C0 0.447715 0.447715 0 1 0H3C3.55228 0 4 0.447715 4 1V11C4 11.5523 3.55228 12 3 12H1C0.447715 12 0 11.5523 0 11V1Z" fill="currentColor" fill-opacity="0.8"/>
<path d="M6 1C6 0.447715 6.44772 0 7 0H9C9.55228 0 10 0.447715 10 1V11C10 11.5523 9.55228 12 9 12H7C6.44772 12 6 11.5523 6 11V1Z" fill="currentColor" fill-opacity="0.8"/>
<path d="M12 1C12 0.447715 12.4477 0 13 0H15C15.5523 0 16 0.447715 16 1V11C16 11.5523 15.5523 12 15 12H13C12.4477 12 12 11.5523 12 11V1Z" fill="currentColor" fill-opacity="0.8"/>
</svg>
