<svg width="20" height="20" viewBox="0 0 20 20" fill="none" xmlns="http://www.w3.org/2000/svg">
<path d="M17.4322 10.98C17.4722 10.66 17.5022 10.34 17.5022 10C17.5022 9.66 17.4722 9.34 17.4322 9.02L19.5422 7.37C19.7322 7.22 19.7822 6.95 19.6622 6.73L17.6622 3.27C17.5722 3.11 17.4022 3.02 17.2222 3.02C17.1622 3.02 17.1022 3.03 17.0522 3.05L14.5622 4.05C14.0422 3.65 13.4822 3.32 12.8722 3.07L12.4922 0.42C12.4622 0.18 12.2522 0 12.0022 0H8.00222C7.75222 0 7.54222 0.18 7.51222 0.42L7.13222 3.07C6.52222 3.32 5.96222 3.66 5.44222 4.05L2.95222 3.05C2.89222 3.03 2.83222 3.02 2.77222 3.02C2.60222 3.02 2.43222 3.11 2.34222 3.27L0.34222 6.73C0.21222 6.95 0.27222 7.22 0.46222 7.37L2.57222 9.02C2.53222 9.34 2.50222 9.67 2.50222 10C2.50222 10.33 2.53222 10.66 2.57222 10.98L0.46222 12.63C0.27222 12.78 0.22222 13.05 0.34222 13.27L2.34222 16.73C2.43222 16.89 2.60222 16.98 2.78222 16.98C2.84222 16.98 2.90222 16.97 2.95222 16.95L5.44222 15.95C5.96222 16.35 6.52222 16.68 7.13222 16.93L7.51222 19.58C7.54222 19.82 7.75222 20 8.00222 20H12.0022C12.2522 20 12.4622 19.82 12.4922 19.58L12.8722 16.93C13.4822 16.68 14.0422 16.34 14.5622 15.95L17.0522 16.95C17.1122 16.97 17.1722 16.98 17.2322 16.98C17.4022 16.98 17.5722 16.89 17.6622 16.73L19.6622 13.27C19.7822 13.05 19.7322 12.78 19.5422 12.63L17.4322 10.98ZM15.4522 9.27C15.4922 9.58 15.5022 9.79 15.5022 10C15.5022 10.21 15.4822 10.43 15.4522 10.73L15.3122 11.86L16.2022 12.56L17.2822 13.4L16.5822 14.61L15.3122 14.1L14.2722 13.68L13.3722 14.36C12.9422 14.68 12.5322 14.92 12.1222 15.09L11.0622 15.52L10.9022 16.65L10.7022 18H9.30222L8.95222 15.52L7.89222 15.09C7.46222 14.91 7.06222 14.68 6.66222 14.38L5.75222 13.68L4.69222 14.11L3.42222 14.62L2.72222 13.41L3.80222 12.57L4.69222 11.87L4.55222 10.74C4.52222 10.43 4.50222 10.2 4.50222 10C4.50222 9.8 4.52222 9.57 4.55222 9.27L4.69222 8.14L3.80222 7.44L2.72222 6.6L3.42222 5.39L4.69222 5.9L5.73222 6.32L6.63222 5.64C7.06222 5.32 7.47222 5.08 7.88222 4.91L8.94222 4.48L9.10222 3.35L9.30222 2H10.6922L11.0422 4.48L12.1022 4.91C12.5322 5.09 12.9322 5.32 13.3322 5.62L14.2422 6.32L15.3022 5.89L16.5722 5.38L17.2722 6.59L16.2022 7.44L15.3122 8.14L15.4522 9.27ZM10.0022 6C7.79222 6 6.00222 7.79 6.00222 10C6.00222 12.21 7.79222 14 10.0022 14C12.2122 14 14.0022 12.21 14.0022 10C14.0022 7.79 12.2122 6 10.0022 6ZM10.0022 12C8.90222 12 8.00222 11.1 8.00222 10C8.00222 8.9 8.90222 8 10.0022 8C11.1022 8 12.0022 8.9 12.0022 10C12.0022 11.1 11.1022 12 10.0022 12Z" fill="currentColor" fill-opacity="0.8"/>
</svg>
