<svg width="20" height="20" viewBox="0 0 20 20" fill="none" xmlns="http://www.w3.org/2000/svg">
<rect width="20" height="20" rx="4" fill="currentColor" opacity="0.18"/>
<path d="M12.3478 9.26087C12.4708 8.64585 12.5323 8.33834 12.6022 8.24657C12.8023 7.98382 13.1977 7.98382 13.3978 8.24657C13.4677 8.33834 13.5292 8.64585 13.6522 9.26087C13.7352 9.67598 13.7767 9.88354 13.851 10.0636C14.0541 10.5553 14.4447 10.9459 14.9364 11.149C15.1165 11.2233 15.324 11.2648 15.7391 11.3478C16.3541 11.4708 16.6617 11.5323 16.7534 11.6022C17.0162 11.8023 17.0162 12.1977 16.7534 12.3978C16.6617 12.4677 16.3541 12.5292 15.7391 12.6522C15.324 12.7352 15.1165 12.7767 14.9364 12.851C14.4447 13.0541 14.0541 13.4447 13.851 13.9364C13.7767 14.1165 13.7352 14.324 13.6522 14.7391C13.5292 15.3541 13.4677 15.6617 13.3978 15.7534C13.1977 16.0162 12.8023 16.0162 12.6022 15.7534C12.5323 15.6617 12.4708 15.3541 12.3478 14.7391C12.2648 14.324 12.2233 14.1165 12.149 13.9364C11.9459 13.4447 11.5553 13.0541 11.0636 12.851C10.8835 12.7767 10.676 12.7352 10.2609 12.6522C9.64585 12.5292 9.33834 12.4677 9.24657 12.3978C8.98382 12.1977 8.98382 11.8023 9.24657 11.6022C9.33834 11.5323 9.64585 11.4708 10.2609 11.3478C10.676 11.2648 10.8835 11.2233 11.0636 11.149C11.5553 10.9459 11.9459 10.5553 12.149 10.0636C12.2233 9.88354 12.2648 9.67598 12.3478 9.26087Z" fill="currentColor"/>
<path d="M6.34783 5.26087C6.47083 4.64585 6.53233 4.33834 6.60222 4.24657C6.80232 3.98382 7.19768 3.98382 7.39778 4.24657C7.46767 4.33834 7.52917 4.64585 7.65217 5.26087C7.7352 5.67598 7.77671 5.88354 7.85103 6.06355C8.05406 6.55533 8.44467 6.94594 8.93645 7.14897C9.11646 7.22329 9.32402 7.2648 9.73913 7.34783C10.3541 7.47083 10.6617 7.53233 10.7534 7.60222C11.0162 7.80232 11.0162 8.19768 10.7534 8.39778C10.6617 8.46767 10.3541 8.52917 9.73913 8.65217C9.32402 8.7352 9.11646 8.77671 8.93645 8.85103C8.44467 9.05406 8.05406 9.44467 7.85103 9.93645C7.77671 10.1165 7.7352 10.324 7.65217 10.7391C7.52917 11.3541 7.46767 11.6617 7.39778 11.7534C7.19768 12.0162 6.80232 12.0162 6.60222 11.7534C6.53233 11.6617 6.47083 11.3541 6.34783 10.7391C6.2648 10.324 6.22329 10.1165 6.14897 9.93645C5.94594 9.44467 5.55533 9.05406 5.06355 8.85103C4.88354 8.77671 4.67598 8.7352 4.26087 8.65217C3.64585 8.52917 3.33834 8.46767 3.24657 8.39778C2.98382 8.19768 2.98382 7.80232 3.24657 7.60222C3.33834 7.53233 3.64585 7.47083 4.26087 7.34783C4.67598 7.2648 4.88354 7.22329 5.06355 7.14897C5.55533 6.94594 5.94594 6.55533 6.14897 6.06355C6.22329 5.88354 6.2648 5.67598 6.34783 5.26087Z" fill="currentColor"/>
</svg>
