<svg width="20" height="20" viewBox="0 0 20 20" fill="none" xmlns="http://www.w3.org/2000/svg">
<rect width="20" height="20" rx="4" fill="currentColor" fill-opacity="0.18"/>
<path d="M4.5 11C4.5 13.4853 6.51472 15 9 15H9.838C12.1635 15 13.3262 15 14.1769 14.2492C15.0275 13.4983 15.1555 12.4755 15.4114 10.43C15.4664 9.99103 15.5 9.58532 15.5 9.25C15.5 7.42157 14.8284 7 13 7H9C6.51472 7 4.5 8.51472 4.5 11Z" fill="currentColor"/>
<path d="M7.2 8.39999L6.8344 7.46922C6.38712 7.64491 6.12806 8.11389 6.21746 8.58604C6.30686 9.05819 6.71946 9.39999 7.2 9.39999V8.39999ZM11.5 3.99999H12.5C12.5 3.51523 12.1523 3.10029 11.675 3.01543C11.1978 2.93058 10.7284 3.20026 10.5613 3.65531L11.5 3.99999ZM10.5 3.99999C10.5 4.60852 10.3312 5.49061 9.84274 6.18979C9.3927 6.83396 8.62405 7.39999 7.2 7.39999V9.39999C9.27595 9.39999 10.6573 8.51603 11.4823 7.3352C12.2688 6.20938 12.5 4.89147 12.5 3.99999H10.5ZM11.5 3.99999C10.5613 3.65531 10.5614 3.65498 10.5615 3.65466C10.5616 3.65457 10.5617 3.65427 10.5617 3.65408C10.5619 3.65372 10.562 3.65341 10.5621 3.65314C10.5623 3.6526 10.5624 3.65225 10.5625 3.65209C10.5626 3.65175 10.5624 3.65216 10.562 3.65328C10.5612 3.65552 10.5592 3.66062 10.5561 3.66844C10.5499 3.68408 10.5393 3.71052 10.5239 3.74654C10.4932 3.81868 10.4439 3.92873 10.3747 4.06714C10.2359 4.34487 10.0196 4.73141 9.7155 5.15263C9.10322 6.00079 8.16808 6.94536 6.8344 7.46922L7.5656 9.33076C9.36874 8.6225 10.5836 7.36707 11.3371 6.32326C11.7159 5.7985 11.9864 5.31606 12.1637 4.96131C12.2526 4.78348 12.3187 4.63642 12.3639 4.5305C12.3865 4.4775 12.4038 4.43467 12.4162 4.4033C12.4224 4.38762 12.4274 4.37478 12.4311 4.36496C12.433 4.36005 12.4345 4.35589 12.4358 4.3525C12.4364 4.35081 12.437 4.34931 12.4375 4.348C12.4377 4.34735 12.438 4.34675 12.4382 4.34619C12.4383 4.34592 12.4384 4.34554 12.4385 4.3454C12.4386 4.34503 12.4387 4.34468 11.5 3.99999Z" fill="currentColor"/>
</svg>
