<svg width="24" height="24" viewBox="0 0 24 24" fill="none" xmlns="http://www.w3.org/2000/svg">
<path fill-rule="evenodd" clip-rule="evenodd" d="M17.7071 6.29289C18.0976 6.68342 18.0976 7.31658 17.7071 7.70711L13.4142 12L17.7071 16.2929C18.0976 16.6834 18.0976 17.3166 17.7071 17.7071C17.3166 18.0976 16.6834 18.0976 16.2929 17.7071L11.2929 12.7071C10.9024 12.3166 10.9024 11.6834 11.2929 11.2929L16.2929 6.29289C16.6834 5.90237 17.3166 5.90237 17.7071 6.29289Z" fill="black"/>
<path fill-rule="evenodd" clip-rule="evenodd" d="M11.7071 6.29289C12.0976 6.68342 12.0976 7.31658 11.7071 7.70711L7.41421 12L11.7071 16.2929C12.0976 16.6834 12.0976 17.3166 11.7071 17.7071C11.3166 18.0976 10.6834 18.0976 10.2929 17.7071L5.29289 12.7071C4.90237 12.3166 4.90237 11.6834 5.29289 11.2929L10.2929 6.29289C10.6834 5.90237 11.3166 5.90237 11.7071 6.29289Z" fill="black"/>
</svg>
