<svg width="14" height="14" viewBox="0 0 14 14" fill="none" xmlns="http://www.w3.org/2000/svg">
<path d="M11.76 7.62664C11.7867 7.42664 11.8 7.21998 11.8 6.99998C11.8 6.78664 11.7867 6.57331 11.7533 6.37331L13.1067 5.31998C13.2267 5.22664 13.26 5.04664 13.1867 4.91331L11.9067 2.69998C11.8267 2.55331 11.66 2.50664 11.5133 2.55331L9.91999 3.19331C9.58666 2.93998 9.23333 2.72664 8.83999 2.56664L8.59999 0.873309C8.57333 0.713309 8.43999 0.599976 8.27999 0.599976H5.71999C5.55999 0.599976 5.43332 0.713309 5.40666 0.873309L5.16666 2.56664C4.77333 2.72664 4.41333 2.94664 4.08666 3.19331L2.49332 2.55331C2.34666 2.49998 2.17999 2.55331 2.09999 2.69998L0.826658 4.91331C0.746658 5.05331 0.773325 5.22664 0.906658 5.31998L2.25999 6.37331C2.22666 6.57331 2.19999 6.79331 2.19999 6.99998C2.19999 7.20664 2.21333 7.42664 2.24666 7.62664L0.893325 8.67998C0.773325 8.77331 0.739992 8.95331 0.813325 9.08664L2.09333 11.3C2.17333 11.4466 2.33999 11.4933 2.48666 11.4466L4.07999 10.8066C4.41333 11.06 4.76666 11.2733 5.15999 11.4333L5.39999 13.1266C5.43333 13.2866 5.55999 13.4 5.71999 13.4H8.27999C8.43999 13.4 8.57333 13.2866 8.59333 13.1266L8.83333 11.4333C9.22666 11.2733 9.58666 11.06 9.91333 10.8066L11.5067 11.4466C11.6533 11.5 11.82 11.4466 11.9 11.3L13.18 9.08664C13.26 8.93998 13.2267 8.77331 13.1 8.67998L11.76 7.62664ZM6.99999 9.39998C5.67999 9.39998 4.59999 8.31998 4.59999 6.99998C4.59999 5.67998 5.67999 4.59998 6.99999 4.59998C8.31999 4.59998 9.39999 5.67998 9.39999 6.99998C9.39999 8.31998 8.31999 9.39998 6.99999 9.39998Z" fill="#1F1F1F"/>
</svg>
