<svg width="18" height="18" viewBox="0 0 18 18" fill="none" xmlns="http://www.w3.org/2000/svg">
<path d="M9.00015 10.4144L11.0859 12.5001C11.4192 12.8334 11.5859 13.0001 11.793 13.0001C12.0001 13.0001 12.1667 12.8334 12.5001 12.5001C12.8334 12.1667 13.0001 12.0001 13.0001 11.793C13.0001 11.5859 12.8334 11.4192 12.5001 11.0859L10.4144 9.00015L12.5002 6.91429C12.8336 6.58096 13.0002 6.41429 13.0002 6.20718C13.0002 6.00008 12.8336 5.83341 12.5002 5.50008C12.1669 5.16674 12.0002 5.00008 11.7931 5.00008C11.586 5.00008 11.4193 5.16674 11.086 5.50008L9.00015 7.58594L6.91429 5.50008C6.58096 5.16674 6.41429 5.00008 6.20718 5.00008C6.00008 5.00008 5.83341 5.16674 5.50008 5.50008C5.16674 5.83341 5.00008 6.00008 5.00008 6.20718C5.00008 6.41429 5.16674 6.58096 5.50007 6.91429L7.58594 9.00015L5.50023 11.0859C5.1669 11.4192 5.00023 11.5859 5.00023 11.793C5.00023 12.0001 5.1669 12.1667 5.50023 12.5001C5.83356 12.8334 6.00023 13.0001 6.20734 13.0001H6.20734C6.41444 13.0001 6.58111 12.8334 6.91444 12.5001L9.00015 10.4144Z" fill="currentColor"/>
</svg>
