<svg width="18" height="18" viewBox="0 0 18 18" fill="none" xmlns="http://www.w3.org/2000/svg">
<path fill-rule="evenodd" clip-rule="evenodd" d="M4.89441 8.94725C6.52587 5.68422 11.4741 5.68428 13.1055 8.94726C13.3525 9.44124 13.9532 9.64147 14.4472 9.39448C14.9412 9.14749 15.1414 8.54681 14.8944 8.05284C12.5259 3.31582 5.47408 3.31562 3.10554 8.05285C2.85856 8.54683 3.05879 9.1475 3.55277 9.39448C4.04675 9.64147 4.64743 9.44123 4.89441 8.94725ZM8.99998 8C7.61926 8 6.49997 9.11929 6.49997 10.5C6.49997 11.8807 7.61926 13 8.99998 13C10.3807 13 11.5 11.8807 11.5 10.5C11.5 9.11929 10.3807 8 8.99998 8Z" fill="black"/>
</svg>
