<svg width="18" height="18" viewBox="0 0 18 18" fill="none" xmlns="http://www.w3.org/2000/svg">
<path fill-rule="evenodd" clip-rule="evenodd" d="M4.89445 6.55277C6.52591 9.81581 11.4741 9.81575 13.1056 6.55276C13.3526 6.05878 13.9532 5.85856 14.4472 6.10555C14.9412 6.35254 15.1414 6.95321 14.8944 7.44719C14.6733 7.88947 14.4113 8.29047 14.1162 8.65016L14.9106 9.34931C15.3252 9.71417 15.3656 10.346 15.0007 10.7607C14.6359 11.1753 14.004 11.2156 13.5894 10.8507L12.6023 9.98207C12.4772 10.0606 12.3497 10.1346 12.22 10.204L12.6444 11.0528C12.8914 11.5468 12.6912 12.1475 12.1972 12.3945C11.7032 12.6414 11.1026 12.4412 10.8556 11.9472L10.3193 10.8747C10.2125 10.8952 10.1052 10.9132 9.99751 10.9287C9.99917 10.9523 10 10.9761 10 11V12C10 12.5523 9.5523 13 9.00001 13C8.44773 13 8.00001 12.5523 8.00001 12V11C8.00001 10.9761 8.00086 10.9523 8.00252 10.9287C7.89486 10.9133 7.78755 10.8952 7.68071 10.8747L7.14444 11.9472C6.89745 12.4412 6.29678 12.6414 5.8028 12.3945C5.30882 12.1475 5.1086 11.5468 5.35559 11.0528L5.77996 10.2041C5.65033 10.1346 5.52283 10.0606 5.39773 9.9821L4.41064 10.8507C3.99603 11.2156 3.36415 11.1753 2.9993 10.7607C2.63444 10.346 2.67478 9.71417 3.08938 9.34931L3.88386 8.65018C3.58869 8.29047 3.32672 7.88947 3.10558 7.44718C2.8586 6.95319 3.05883 6.35252 3.55281 6.10554C4.04679 5.85856 4.64746 6.05879 4.89445 6.55277Z" fill="black"/>
</svg>
