<svg width="24" height="24" viewBox="0 0 24 24" fill="none" xmlns="http://www.w3.org/2000/svg">
<path d="M9 5C9 4.44772 8.55228 4 8 4H6C5.05719 4 4.58579 4 4.29289 4.29289C4 4.58579 4 5.05719 4 6V8C4 8.55228 4.44772 9 5 9C5.55228 9 6 8.55228 6 8V6H8C8.55228 6 9 5.55228 9 5Z" fill="black"/>
<path d="M16 6C15.4477 6 15 5.55228 15 5C15 4.44772 15.4477 4 16 4H18C18.9428 4 19.4142 4 19.7071 4.29289C20 4.58579 20 5.05719 20 6V8C20 8.55228 19.5523 9 19 9C18.4477 9 18 8.55228 18 8V6H16Z" fill="black"/>
<path d="M15 19C15 18.4477 15.4477 18 16 18H18V16C18 15.4477 18.4477 15 19 15C19.5523 15 20 15.4477 20 16V18C20 18.9428 20 19.4142 19.7071 19.7071C19.4142 20 18.9428 20 18 20H16C15.4477 20 15 19.5523 15 19Z" fill="black"/>
<path d="M5 15C5.55228 15 6 15.4477 6 16V18H8C8.55228 18 9 18.4477 9 19C9 19.5523 8.55228 20 8 20H6C5.05719 20 4.58579 20 4.29289 19.7071C4 19.4142 4 18.9428 4 18V16C4 15.4477 4.44772 15 5 15Z" fill="black"/>
</svg>
