<svg width="24" height="24" viewBox="0 0 24 24" fill="none" xmlns="http://www.w3.org/2000/svg">
<path d="M20 16C20 15.4477 19.5523 15 19 15H17C16.0572 15 15.5858 15 15.2929 15.2929C15 15.5858 15 16.0572 15 17V19C15 19.5523 15.4477 20 16 20C16.5523 20 17 19.5523 17 19V17H19C19.5523 17 20 16.5523 20 16Z" fill="black"/>
<path d="M5 17C4.44772 17 4 16.5523 4 16C4 15.4477 4.44772 15 5 15H7C7.94281 15 8.41421 15 8.70711 15.2929C9 15.5858 9 16.0572 9 17V19C9 19.5523 8.55228 20 8 20C7.44772 20 7 19.5523 7 19V17H5Z" fill="black"/>
<path d="M4 8C4 7.44772 4.44772 7 5 7H7V5C7 4.44772 7.44772 4 8 4C8.55228 4 9 4.44772 9 5V7C9 7.94281 9 8.41421 8.70711 8.70711C8.41421 9 7.94281 9 7 9H5C4.44772 9 4 8.55228 4 8Z" fill="black"/>
<path d="M16 4C16.5523 4 17 4.44772 17 5V7H19C19.5523 7 20 7.44772 20 8C20 8.55228 19.5523 9 19 9H17C16.0572 9 15.5858 9 15.2929 8.70711C15 8.41421 15 7.94281 15 7V5C15 4.44772 15.4477 4 16 4Z" fill="black"/>
</svg>
