<svg viewBox="0 0 22 21" fill="none" xmlns="http://www.w3.org/2000/svg">
<path d="M4 13C4 10.1716 4 8.75736 4.87868 7.87868C5.75736 7 7.17157 7 10 7H12H14H16C18.8284 7 20.2426 7 21.1213 7.87868C22 8.75736 22 10.1716 22 13V15C22 17.8284 22 19.2426 21.1213 20.1213C20.2426 21 18.8284 21 16 21H10C7.17157 21 5.75736 21 4.87868 20.1213C4 19.2426 4 17.8284 4 15V13Z" fill="white"/>
<path d="M21.5 13V15C21.5 16.4283 21.4989 17.4493 21.3946 18.2252C21.2922 18.9867 21.0987 19.4368 20.7678 19.7678C20.4368 20.0987 19.9867 20.2922 19.2252 20.3946C18.4493 20.4989 17.4283 20.5 16 20.5H10C8.57165 20.5 7.55069 20.4989 6.77481 20.3946C6.01331 20.2922 5.56319 20.0987 5.23223 19.7678C4.90128 19.4368 4.70776 18.9867 4.60538 18.2252C4.50106 17.4493 4.5 16.4283 4.5 15V13C4.5 11.5717 4.50106 10.5507 4.60538 9.77481C4.70776 9.01331 4.90128 8.56319 5.23223 8.23223C5.56319 7.90128 6.01331 7.70776 6.77481 7.60538C7.55069 7.50106 8.57165 7.5 10 7.5H12H14H16C17.4283 7.5 18.4493 7.50106 19.2252 7.60538C19.9867 7.70776 20.4368 7.90128 20.7678 8.23223C21.0987 8.56319 21.2922 9.01331 21.3946 9.77481C21.4989 10.5507 21.5 11.5717 21.5 13Z" stroke="black" stroke-opacity="0.15"/>
<path d="M2 11C2 8.17157 2 6.75736 2.87868 5.87868C3.75736 5 5.17157 5 8 5H10H12H14C16.8284 5 18.2426 5 19.1213 5.87868C20 6.75736 20 8.17157 20 11V13C20 15.8284 20 17.2426 19.1213 18.1213C18.2426 19 16.8284 19 14 19H8C5.17157 19 3.75736 19 2.87868 18.1213C2 17.2426 2 15.8284 2 13V11Z" fill="white"/>
<path d="M19.5 11V13C19.5 14.4283 19.4989 15.4493 19.3946 16.2252C19.2922 16.9867 19.0987 17.4368 18.7678 17.7678C18.4368 18.0987 17.9867 18.2922 17.2252 18.3946C16.4493 18.4989 15.4283 18.5 14 18.5H8C6.57165 18.5 5.55069 18.4989 4.77481 18.3946C4.01331 18.2922 3.56319 18.0987 3.23223 17.7678C2.90128 17.4368 2.70776 16.9867 2.60538 16.2252C2.50106 15.4493 2.5 14.4283 2.5 13V11C2.5 9.57165 2.50106 8.55069 2.60538 7.77481C2.70776 7.01331 2.90128 6.56319 3.23223 6.23223C3.56319 5.90128 4.01331 5.70776 4.77481 5.60538C5.55069 5.50106 6.57165 5.5 8 5.5H10H12H14C15.4283 5.5 16.4493 5.50106 17.2252 5.60538C17.9867 5.70776 18.4368 5.90128 18.7678 6.23223C19.0987 6.56319 19.2922 7.01331 19.3946 7.77481C19.4989 8.55069 19.5 9.57165 19.5 11Z" stroke="black" stroke-opacity="0.15"/>
<path d="M0 5.2111C0 3.14144 0 2.10661 0.488748 1.35878C0.715533 1.01177 1.01177 0.715533 1.35878 0.488748C2.10661 0 3.14144 0 5.2111 0H6.19722C6.38909 0 6.48502 0 6.57543 0.00546384C7.4495 0.0582895 8.25686 0.490377 8.78566 1.18835C8.84036 1.26054 8.89357 1.34036 9 1.5V1.5C9.10643 1.65964 9.15964 1.73946 9.21434 1.81165C9.74314 2.50962 10.5505 2.94171 11.4246 2.99454C11.515 3 11.6109 3 11.8028 3H12.7889C14.8586 3 15.8934 3 16.6412 3.48875C16.9882 3.71553 17.2845 4.01177 17.5113 4.35878C18 5.10661 18 6.14144 18 8.2111V11C18 13.8284 18 15.2426 17.1213 16.1213C16.2426 17 14.8284 17 12 17H6C3.17157 17 1.75736 17 0.87868 16.1213C0 15.2426 0 13.8284 0 11V5.2111Z" fill="white"/>
<path d="M17.5 8.2111V11C17.5 12.4283 17.4989 13.4493 17.3946 14.2252C17.2922 14.9867 17.0987 15.4368 16.7678 15.7678C16.4368 16.0987 15.9867 16.2922 15.2252 16.3946C14.4493 16.4989 13.4283 16.5 12 16.5H6C4.57165 16.5 3.55069 16.4989 2.77481 16.3946C2.01331 16.2922 1.56319 16.0987 1.23223 15.7678C0.901278 15.4368 0.707757 14.9867 0.605376 14.2252C0.501062 13.4493 0.5 12.4283 0.5 11V5.2111C0.5 4.16606 0.500584 3.41925 0.558612 2.83901C0.615828 2.26688 0.724896 1.9114 0.90729 1.63231C1.09628 1.34314 1.34314 1.09628 1.63231 0.90729C1.9114 0.724896 2.26688 0.615828 2.83901 0.558612C3.41925 0.500584 4.16606 0.5 5.2111 0.5H6.19722C6.39532 0.5 6.47348 0.500215 6.54526 0.504553C7.27366 0.548575 7.94646 0.908647 8.38713 1.49029C8.43056 1.54761 8.47409 1.61253 8.58397 1.77735L8.59347 1.79159C8.69086 1.93769 8.75189 2.02924 8.8158 2.1136C9.43274 2.92789 10.3747 3.432 11.3944 3.49363C11.5001 3.50001 11.6101 3.50001 11.7857 3.5L11.8028 3.5H12.7889C13.8339 3.5 14.5807 3.50058 15.161 3.55861C15.7331 3.61583 16.0886 3.7249 16.3677 3.90729C16.6569 4.09628 16.9037 4.34314 17.0927 4.63231C17.2751 4.9114 17.3842 5.26688 17.4414 5.83901C17.4994 6.41925 17.5 7.16606 17.5 8.2111Z" stroke="black" stroke-opacity="0.15"/>
</svg>
