<svg width="14" height="18" viewBox="0 0 14 18" fill="none" xmlns="http://www.w3.org/2000/svg">
<path fill-rule="evenodd" clip-rule="evenodd" d="M0.16349 0.819014C0 1.13988 0 1.55992 0 2.4V15.6C0 16.4401 0 16.8601 0.16349 17.181C0.3073 17.4632 0.536771 17.6927 0.819014 17.8365C1.13988 18 1.55992 18 2.4 18H11.6C12.4401 18 12.8601 18 13.181 17.8365C13.4632 17.6927 13.6927 17.4632 13.8365 17.181C14 16.8601 14 16.4401 14 15.6V2.4C14 1.55992 14 1.13988 13.8365 0.819014C13.6927 0.536771 13.4632 0.3073 13.181 0.16349C12.8601 0 12.4401 0 11.6 0H2.4C1.55992 0 1.13988 0 0.819014 0.16349C0.536771 0.3073 0.3073 0.536771 0.16349 0.819014ZM10 11C11.1046 11 12 10.1046 12 9C12 7.89543 11.1046 7 10 7C8.89543 7 8 7.89543 8 9C8 10.1046 8.89543 11 10 11Z" fill="currentColor"/>
</svg>
