<svg width="18" height="16" viewBox="0 0 18 16" fill="none" xmlns="http://www.w3.org/2000/svg">
<path fill-rule="evenodd" clip-rule="evenodd" d="M0 3.2C0 2.0799 0 1.51984 0.217987 1.09202C0.409734 0.715695 0.715695 0.409734 1.09202 0.217987C1.51984 0 2.0799 0 3.2 0H5.6C6.48 0 6.91999 0 7.32384 0.115337C7.68153 0.217489 8.01709 0.385272 8.31343 0.610128C8.648 0.864004 8.912 1.216 9.44 1.92L11 4H0V3.2Z" fill="currentColor" fill-opacity="0.4"/>
<path fill-rule="evenodd" clip-rule="evenodd" d="M0 5.4C0 4.55992 0 4.13988 0.16349 3.81901C0.3073 3.53677 0.536771 3.3073 0.819014 3.16349C1.13988 3 1.55992 3 2.4 3L15.6 3C16.4401 3 16.8601 3 17.181 3.16349C17.4632 3.3073 17.6927 3.53677 17.8365 3.81901C18 4.13988 18 4.55992 18 5.4V13.6C18 14.4401 18 14.8601 17.8365 15.181C17.6927 15.4632 17.4632 15.6927 17.181 15.8365C16.8601 16 16.4401 16 15.6 16H2.4C1.55992 16 1.13988 16 0.819014 15.8365C0.536771 15.6927 0.3073 15.4632 0.16349 15.181C0 14.8601 0 14.4401 0 13.6V5.4Z" fill="currentColor"/>
</svg>
