<svg viewBox="0 0 20 18" fill="currentColor" stroke="black" stroke-opacity="0.15" xmlns="http://www.w3.org/2000/svg">
  <path d="M0.5 5.86249C0.5 4.50161 0.500969 3.52892 0.596384 2.78651C0.690119 2.05717 0.867597 1.62174 1.16975 1.297C1.21063 1.25307 1.25307 1.21063 1.297 1.16975C1.62174 0.867597 2.05717 0.690119 2.78651 0.596384C3.52892 0.500969 4.50161 0.5 5.86249 0.5H7.19722C7.39532 0.5 7.47348 0.500215 7.54526 0.504553C8.27366 0.548575 8.94646 0.908647 9.38713 1.49029L9.78566 1.18835L9.38713 1.49029C9.43056 1.54761 9.47409 1.61253 9.58397 1.77735L9.59348 1.79161C9.69087 1.9377 9.75189 2.02924 9.8158 2.1136C10.4327 2.92789 11.3747 3.432 12.3944 3.49363C12.5001 3.50001 12.6101 3.50001 12.7857 3.5L12.8028 3.5H14.1375C15.4984 3.5 16.4711 3.50097 17.2135 3.59638C17.9428 3.69012 18.3783 3.8676 18.703 4.16975C18.7469 4.21063 18.7894 4.25307 18.8302 4.297C19.1324 4.62174 19.3099 5.05717 19.4036 5.78651C19.499 6.52892 19.5 7.50161 19.5 8.86249V12C19.5 13.4283 19.4989 14.4493 19.3946 15.2252C19.2922 15.9867 19.0987 16.4368 18.7678 16.7678C18.4368 17.0987 17.9867 17.2922 17.2252 17.3946C16.4493 17.4989 15.4283 17.5 14 17.5H6C4.57165 17.5 3.55069 17.4989 2.77481 17.3946C2.01331 17.2922 1.56319 17.0987 1.23223 16.7678C0.901278 16.4368 0.707757 15.9867 0.605376 15.2252C0.501062 14.4493 0.5 13.4283 0.5 12V5.86249Z"/>
</svg>