<svg width="14" height="14" viewBox="0 0 14 14" fill="none" xmlns="http://www.w3.org/2000/svg">
  <path d="M6.33334 3.66668H7.66668V5.00001H6.33334V3.66668ZM6.33334 6.33334H7.66668V10.3333H6.33334V6.33334ZM7.00001 0.333344C3.32001 0.333344 0.333344 3.32001 0.333344 7.00001C0.333344 10.68 3.32001 13.6667 7.00001 13.6667C10.68 13.6667 13.6667 10.68 13.6667 7.00001C13.6667 3.32001 10.68 0.333344 7.00001 0.333344ZM7.00001 12.3333C4.06001 12.3333 1.66668 9.94001 1.66668 7.00001C1.66668 4.06001 4.06001 1.66668 7.00001 1.66668C9.94001 1.66668 12.3333 4.06001 12.3333 7.00001C12.3333 9.94001 9.94001 12.3333 7.00001 12.3333Z" fill="currentColor"/>
</svg>
