<svg width="32" height="32" viewBox="0 0 32 32" fill="none" xmlns="http://www.w3.org/2000/svg">
<path fill-rule="evenodd" clip-rule="evenodd" d="M16 2C18.7019 2 21.1582 2.65491 23.2322 3.82833C25.3063 5.00176 26.9982 6.6937 28.1717 8.76777C29.3451 10.8418 30 13.2981 30 16C30 18.7019 29.3451 21.1582 28.1717 23.2322C26.9982 25.3063 25.3063 26.9982 23.2322 28.1717C21.1582 29.3451 18.7019 30 16 30C13.2981 30 10.8418 29.3451 8.76777 28.1717C6.6937 26.9982 5.00176 25.3063 3.82833 23.2322C2.65491 21.1582 2 18.7019 2 16C2 13.2981 2.65491 10.8418 3.82833 8.76777C5.00176 6.6937 6.6937 5.00176 8.76777 3.82833C10.8418 2.65491 13.2981 2 16 2Z" fill="#617ADA"/>
<path fill-rule="evenodd" clip-rule="evenodd" d="M16.501 12.5C17.0528 12.5 17.481 12.9558 17.4582 13.5025L17.0418 23.4975C17.0203 24.0116 16.62 24.4353 16.1176 24.4933L16 24.5C15.4477 24.5 14.981 24.0442 14.9582 23.4975L14.6031 14.9954C14.5904 14.7218 14.373 14.4005 14.1287 14.283L12.8069 13.6476C12.6374 13.5661 12.5 13.3438 12.5 13.1502V13C12.5 12.7239 12.7296 12.5 13.0015 12.5H16.501ZM16 7.5C16.8284 7.5 17.5 8.17157 17.5 9C17.5 9.82843 16.8284 10.5 16 10.5C15.1716 10.5 14.5 9.82843 14.5 9C14.5 8.17157 15.1716 7.5 16 7.5Z" fill="white"/>
</svg>