<svg width="24" height="24" viewBox="0 0 24 24" fill="none" xmlns="http://www.w3.org/2000/svg">
<g id="models" opacity="0.6">
<path id="stars" d="M14.5469 11.5177C14.4673 11.4132 14.3972 11.0629 14.2571 10.3623C14.1625 9.88949 14.1153 9.65305 14.0306 9.44799C13.7993 8.88781 13.3544 8.44287 12.7942 8.21159C12.5891 8.12693 12.3527 8.07965 11.8799 7.98508C11.1793 7.84496 10.829 7.77491 10.7245 7.6953C10.4252 7.46736 10.4252 7.01701 10.7245 6.78908C10.829 6.70947 11.1793 6.63941 11.8798 6.4993C12.3527 6.40473 12.5891 6.35744 12.7942 6.27278C13.3544 6.04151 13.7993 5.59656 14.0306 5.03638C14.1153 4.83133 14.1625 4.5949 14.2571 4.12207C14.3972 3.4215 14.4673 3.07119 14.5469 2.96666C14.7748 2.66736 15.2252 2.66736 15.4531 2.96666C15.5327 3.07119 15.6028 3.42147 15.7429 4.12203C15.8375 4.59488 15.8847 4.83132 15.9694 5.03638C16.2007 5.59656 16.6456 6.04151 17.2058 6.27278C17.4109 6.35744 17.6473 6.40473 18.1201 6.4993C18.8207 6.63941 19.171 6.70947 19.2755 6.78908C19.5748 7.01701 19.5748 7.46736 19.2755 7.6953C19.171 7.77491 18.8207 7.84496 18.1201 7.98508C17.6473 8.07965 17.4109 8.12693 17.2058 8.21159C16.6456 8.44287 16.2007 8.88781 15.9694 9.44799C15.8847 9.65305 15.8375 9.88948 15.7429 10.3623C15.6028 11.0629 15.5327 11.4132 15.4531 11.5177C15.2252 11.817 14.7748 11.817 14.5469 11.5177Z" fill="black"/>
<path id="stars_2" d="M7.74827 11.8753C7.70404 11.8172 7.66512 11.6226 7.58728 11.2334C7.53474 10.9707 7.50847 10.8394 7.46144 10.7254C7.33296 10.4142 7.08576 10.167 6.77455 10.0386C6.66063 9.99153 6.52928 9.96526 6.26659 9.91272C5.87738 9.83488 5.68278 9.79596 5.62471 9.75173C5.45843 9.6251 5.45843 9.3749 5.62471 9.24827C5.68278 9.20404 5.87738 9.16513 6.26658 9.08728C6.52927 9.03475 6.66063 9.00847 6.77455 8.96144C7.08576 8.83295 7.33296 8.58576 7.46144 8.27455C7.50847 8.16063 7.53474 8.02929 7.58728 7.7666C7.66512 7.37739 7.70404 7.18278 7.74827 7.12471C7.8749 6.95843 8.1251 6.95843 8.25173 7.12471C8.29595 7.18278 8.33488 7.37738 8.41272 7.76658C8.46525 8.02927 8.49153 8.16063 8.53856 8.27455C8.66705 8.58576 8.91423 8.83295 9.22545 8.96144C9.33937 9.00847 9.47072 9.03474 9.73341 9.08728C10.1226 9.16512 10.3172 9.20404 10.3753 9.24827C10.5416 9.3749 10.5416 9.6251 10.3753 9.75173C10.3172 9.79596 10.1226 9.83488 9.73341 9.91272C9.47072 9.96526 9.33937 9.99153 9.22545 10.0386C8.91423 10.167 8.66705 10.4142 8.53856 10.7254C8.49153 10.8394 8.46526 10.9707 8.41272 11.2334C8.33488 11.6226 8.29595 11.8172 8.25173 11.8753C8.1251 12.0416 7.8749 12.0416 7.74827 11.8753Z" fill="black" fill-opacity="0.7"/>
<path id="stars_3" d="M5.34896 14.6673C5.32243 14.6325 5.29907 14.5157 5.25237 14.2822C5.22085 14.1246 5.20508 14.0458 5.17686 13.9774C5.09977 13.7907 4.95146 13.6424 4.76473 13.5653C4.69638 13.5371 4.61757 13.5213 4.45995 13.4898C4.22643 13.4431 4.10967 13.4197 4.07482 13.3932C3.97506 13.3172 3.97506 13.1671 4.07482 13.0911C4.10967 13.0646 4.22643 13.0412 4.45995 12.9945C4.61756 12.963 4.69638 12.9472 4.76473 12.919C4.95146 12.8419 5.09977 12.6936 5.17686 12.5069C5.20508 12.4385 5.22085 12.3597 5.25237 12.2021C5.29907 11.9686 5.32243 11.8518 5.34896 11.817C5.42494 11.7172 5.57506 11.7172 5.65104 11.817C5.67757 11.8518 5.70093 11.9686 5.74763 12.2021C5.77915 12.3597 5.79492 12.4385 5.82314 12.5069C5.90023 12.6936 6.04854 12.8419 6.23527 12.919C6.30362 12.9472 6.38243 12.963 6.54005 12.9945C6.77357 13.0412 6.89033 13.0646 6.92518 13.0911C7.02494 13.1671 7.02494 13.3172 6.92518 13.3932C6.89033 13.4197 6.77357 13.4431 6.54005 13.4898C6.38243 13.5213 6.30362 13.5371 6.23527 13.5653C6.04854 13.6424 5.90023 13.7907 5.82314 13.9774C5.79492 14.0458 5.77915 14.1246 5.74763 14.2822C5.70093 14.5157 5.67757 14.6325 5.65104 14.6673C5.57506 14.7671 5.42494 14.7671 5.34896 14.6673Z" fill="black" fill-opacity="0.6"/>
<path id="Ellipse 3" d="M6.00992 15.7837C5.61293 15.9019 5.38323 16.3217 5.54321 16.7038C6.04024 17.8908 6.85711 18.9226 7.90919 19.6803C8.96126 20.438 10.1988 20.8857 11.4822 20.9809C11.8952 21.0115 12.2206 20.6606 12.2069 20.2467L12.1754 19.2972C12.1617 18.8832 11.813 18.5651 11.4023 18.5107C10.662 18.4126 9.95318 18.1331 9.34097 17.6922C8.72876 17.2513 8.23908 16.6676 7.9114 15.9966C7.72965 15.6243 7.3174 15.3944 6.92041 15.5126L6.00992 15.7837Z" fill="black" fill-opacity="0.6"/>
<path id="Ellipse 4" d="M13.5198 20.0625C13.6206 20.4642 14.0299 20.7121 14.4186 20.569C15.1405 20.3032 15.8154 19.9195 16.4151 19.4321C17.0147 18.9447 17.5282 18.3625 17.9359 17.7101C18.1555 17.3589 17.9965 16.9076 17.6238 16.7269L16.769 16.3124C16.3963 16.1317 15.9523 16.2921 15.7129 16.6301C15.4747 16.9663 15.1913 17.2696 14.8698 17.5309C14.5482 17.7923 14.1935 18.0077 13.8157 18.1721C13.4358 18.3374 13.1881 18.7392 13.2888 19.141L13.5198 20.0625Z" fill="black" fill-opacity="0.4"/>
<path id="Ellipse 5" d="M18.0939 15.3882C18.4978 15.4802 18.904 15.2274 18.9523 14.816C19.0692 13.8198 18.9706 12.8099 18.6633 11.8551C18.5363 11.4608 18.0889 11.2913 17.7104 11.4596L16.8424 11.8458C16.464 12.0142 16.3003 12.4569 16.4043 12.8579C16.5237 13.3181 16.5701 13.7943 16.5421 14.269C16.5176 14.6825 16.7638 15.0852 17.1676 15.1772L18.0939 15.3882Z" fill="black" fill-opacity="0.2"/>
</g>
</svg>
