<svg width="20" height="20" viewBox="0 0 20 20" fill="none" xmlns="http://www.w3.org/2000/svg">
<path d="M13.2391 9.80435C13.4455 8.77225 13.5488 8.25621 13.7113 8.14125C13.8843 8.01893 14.1157 8.01893 14.2887 8.14125C14.4512 8.25621 14.5545 8.77225 14.7609 9.80435C14.8999 10.4994 14.9694 10.8469 15.1326 11.1307C15.3088 11.437 15.563 11.6912 15.8693 11.8674C16.1531 12.0306 16.5006 12.1001 17.1957 12.2391C18.2277 12.4455 18.7438 12.5488 18.8587 12.7113C18.9811 12.8843 18.9811 13.1157 18.8587 13.2887C18.7438 13.4512 18.2277 13.5545 17.1957 13.7609C16.5006 13.8999 16.1531 13.9694 15.8693 14.1326C15.563 14.3088 15.3088 14.563 15.1326 14.8693C14.9694 15.1531 14.8999 15.5006 14.7609 16.1957C14.5545 17.2277 14.4512 17.7438 14.2887 17.8587C14.1157 17.9811 13.8843 17.9811 13.7113 17.8587C13.5488 17.7438 13.4455 17.2277 13.2391 16.1957C13.1001 15.5006 13.0306 15.1531 12.8674 14.8693C12.6912 14.563 12.437 14.3088 12.1307 14.1326C11.8469 13.9694 11.4994 13.8999 10.8043 13.7609C9.77225 13.5545 9.25621 13.4512 9.14125 13.2887C9.01893 13.1157 9.01893 12.8843 9.14125 12.7113C9.25621 12.5488 9.77225 12.4455 10.8043 12.2391C11.4994 12.1001 11.8469 12.0306 12.1307 11.8674C12.437 11.6912 12.6912 11.437 12.8674 11.1307C13.0306 10.8469 13.1001 10.4994 13.2391 9.80435Z" fill="#898098"/>
<path d="M5.23913 3.80435C5.44555 2.77225 5.54876 2.25621 5.71133 2.14125C5.88434 2.01893 6.11566 2.01893 6.28866 2.14125C6.45124 2.25621 6.55445 2.77225 6.76087 3.80435C6.89988 4.49939 6.96938 4.84692 7.13259 5.13072C7.30876 5.43705 7.56295 5.69124 7.86928 5.86741C8.15308 6.03062 8.50061 6.10012 9.19565 6.23913C10.2277 6.44555 10.7438 6.54876 10.8587 6.71133C10.9811 6.88434 10.9811 7.11566 10.8587 7.28866C10.7438 7.45124 10.2277 7.55445 9.19565 7.76087C8.50061 7.89988 8.15308 7.96938 7.86928 8.13259C7.56295 8.30876 7.30876 8.56295 7.13259 8.86928C6.96938 9.15308 6.89988 9.50061 6.76087 10.1957C6.55445 11.2277 6.45124 11.7438 6.28866 11.8587C6.11566 11.9811 5.88434 11.9811 5.71133 11.8587C5.54876 11.7438 5.44555 11.2277 5.23913 10.1957C5.10012 9.50061 5.03062 9.15308 4.86741 8.86928C4.69124 8.56295 4.43705 8.30876 4.13072 8.13259C3.84692 7.96938 3.49939 7.89988 2.80435 7.76087C1.77225 7.55445 1.25621 7.45124 1.14125 7.28866C1.01893 7.11566 1.01893 6.88434 1.14125 6.71133C1.25621 6.54876 1.77225 6.44555 2.80435 6.23913C3.49939 6.10012 3.84692 6.03062 4.13072 5.86741C4.43705 5.69124 4.69124 5.43705 4.86741 5.13072C5.03062 4.84692 5.10012 4.49939 5.23913 3.80435Z" fill="#898098"/>
</svg>
