<svg width="18" height="18" viewBox="0 0 18 18" fill="none" xmlns="http://www.w3.org/2000/svg">
<path fill-rule="evenodd" clip-rule="evenodd" d="M4 0C1.79086 0 0 1.79086 0 4C0 6.20914 1.79086 8 4 8H14C16.2091 8 18 6.20914 18 4C18 1.79086 16.2091 0 14 0H4ZM4 10C1.79086 10 0 11.7909 0 14C0 16.2091 1.79086 18 4 18H14C16.2091 18 18 16.2091 18 14C18 11.7909 16.2091 10 14 10H4ZM6 14C6 15.1046 5.10457 16 4 16C2.89543 16 2 15.1046 2 14C2 12.8954 2.89543 12 4 12C5.10457 12 6 12.8954 6 14ZM14 6C15.1046 6 16 5.10457 16 4C16 2.89543 15.1046 2 14 2C12.8954 2 12 2.89543 12 4C12 5.10457 12.8954 6 14 6Z" fill="currentColor"/>
</svg>
