<svg width="48" height="64" viewBox="0 0 48 64" fill="#1890FF" xmlns="http://www.w3.org/2000/svg">
<path d="M28 17V0H3C1.3375 0 0 1.3375 0 3V61C0 62.6625 1.3375 64 3 64H45C46.6625 64 48 62.6625 48 61V20H31C29.35 20 28 18.65 28 17ZM36.1475 44.0013H28V54.0013C28 55.1063 27.105 56.0013 26 56.0013H22C20.895 56.0013 20 55.1063 20 54.0013V44.0013H11.8525C10.0675 44.0013 9.17625 41.84 10.4438 40.5812L22.4963 28.6187C23.3275 27.7925 24.67 27.7925 25.5012 28.6187L37.5537 40.5812C38.8225 41.84 37.9325 44.0013 36.1475 44.0013ZM47.125 13.125L34.8875 0.875C34.325 0.3125 33.5625 0 32.7625 0H32V16H48V15.2375C48 14.45 47.6875 13.6875 47.125 13.125Z"/>
</svg>
