<svg width="116" height="84" viewBox="0 0 116 84" fill="none" xmlns="http://www.w3.org/2000/svg">
<g id="Group 1">
<path id="Vector" d="M15.0454 69.5406C15.3622 69.36 15.6614 69.1497 15.9389 68.9124C16.5731 68.4677 17.0601 68.7041 17.1302 69.4947C17.143 69.698 17.143 69.902 17.1302 70.1053C17.1193 70.1893 17.1342 70.2746 17.1731 70.3498C17.212 70.4249 17.2728 70.4862 17.3474 70.5253C17.5401 70.6171 17.6382 70.43 17.7469 70.3171C18.5142 69.5229 18.7104 67.8747 18.2934 66.8441C17.6242 65.1959 16.4189 63.9571 15.3222 62.6336C15.0665 62.3265 11.7484 60.163 11.1913 59.1289C11.4155 60.2442 11.0511 61.3912 11.3279 62.4289C11.836 64.3383 10.8304 66.1771 11.2333 68.0759C11.2754 68.2735 10.9285 68.5912 11.2123 68.7818C11.4961 68.9724 11.6888 68.6935 11.9131 68.5241C12.8451 67.7865 13.0938 67.8182 13.4232 68.9018C13.714 69.9076 14.3061 69.8688 15.0454 69.5406Z" fill="#A3A3A3"/>
<ellipse id="Ellipse 1" opacity="0.5" cx="38.5" cy="80.6387" rx="38.5" ry="2.5" fill="#D9D9D9"/>
<path id="Vector_2" d="M69.1553 54.6409C69.0978 56.3143 68.9519 57.9835 68.7182 59.6412C68.6518 60.1401 70.4037 62.5324 72.0087 59.3828C72.4877 58.1584 73.2675 57.0756 73.5402 55.745C74.0473 53.2678 73.6137 50.9074 72.8968 48.5648C72.8291 48.4132 72.7135 48.2887 72.5681 48.2109C71.6975 47.6765 70.8757 47.0714 70.0505 46.4733C69.5015 46.0734 69.1693 45.3409 68.2042 45.2383C68.6024 47.0251 68.877 48.8378 69.026 50.6633C69.1344 51.9903 69.1868 53.3103 69.1553 54.6409Z" fill="#F9C2CF"/>
<path id="Vector_3" d="M14.9188 60.24C15.0523 60.2676 15.1745 60.335 15.2692 60.4335C16.3205 61.6966 17.3717 62.9527 18.395 64.2404C19.9193 66.1755 20.1471 68.5961 20.7954 70.8654C20.897 71.2172 21.0162 71.5691 21.314 71.657C21.703 71.7942 21.8712 71.4002 22.0149 71.1117C22.2707 70.6402 22.6912 70.4889 22.9295 70.971C23.4866 72.0933 23.9807 71.4776 24.4153 70.971C24.9689 70.3201 25.4175 70.4678 25.6172 71.1539C25.8835 72.0616 26.2515 71.5339 26.5739 71.2946C26.7736 71.1434 26.8612 70.8549 27.0364 70.6578C27.4464 70.1969 27.8459 70.0914 28.1928 70.7458C28.2734 70.8971 28.2804 71.1856 28.6344 71.0484C28.8586 69.0535 29.0058 67.0339 29.125 65.0003C29.2761 63.3072 29.2632 61.6034 29.0864 59.9128C29.0233 59.4625 29.1039 59.0543 29.5875 58.8573C30.432 59.8389 30.3199 61.0317 30.2884 62.1857C30.267 62.2954 30.2675 62.4084 30.2899 62.5179C30.3122 62.6275 30.3559 62.7315 30.4184 62.8241C30.4809 62.9166 30.5611 62.9958 30.6542 63.0572C30.7474 63.1185 30.8517 63.1607 30.9612 63.1814C31.368 63.3046 31.784 63.3952 32.2052 63.4523C32.906 63.5719 33.4632 63.1004 34.1115 63.1004C35.9968 63.1602 37.8996 63.3749 39.7603 62.9914C40.8116 62.7767 41.8103 63.0617 42.802 62.9597C44.8227 62.7398 46.8612 62.7398 48.8819 62.9597C50.2081 63.1383 51.5542 63.1038 52.8697 62.8577C53.8264 62.6606 53.6581 62.2877 53.1956 61.8022C52.5894 61.1865 51.8675 60.6763 51.2788 60.043C49.008 57.6118 47.8902 54.5931 47.0737 51.4407C46.9833 50.9759 46.9833 50.4981 47.0737 50.0333C47.0912 49.8814 47.1623 49.7407 47.2741 49.6368C47.3859 49.5329 47.5311 49.4726 47.6834 49.4669C47.9357 49.4669 48.0584 49.7167 48.0338 49.9806C47.9638 51.6975 48.7347 53.1998 49.2849 54.7444C49.9654 56.6522 51.1283 58.3497 52.6594 59.6701C53.5888 60.4889 54.3971 61.4367 55.0598 62.4847C56.8856 65.3416 57.8632 68.5644 58.9776 71.7837C59.3042 71.6527 59.5771 71.4146 59.752 71.1082C60.1024 70.5839 60.551 69.9823 60.9505 71.1082C61.0591 71.4178 61.2098 71.3404 61.385 71.1961C61.5602 71.0519 61.7354 70.7915 61.9667 71.0695C62.4363 71.65 62.8708 71.6852 63.3404 71.0695C63.403 70.9869 63.4955 70.9324 63.5978 70.918C63.7002 70.9035 63.8041 70.9301 63.887 70.9921C64.3286 71.3087 64.5879 70.9287 64.679 70.686C65.0645 69.7008 65.6462 68.7579 65.4044 67.6074C65.3195 67.2791 65.3582 66.9309 65.513 66.6293C66.2558 65.2296 66.8007 63.7328 67.132 62.1821C67.6716 59.7862 68.2043 57.3937 68.2043 54.9203C68.2043 53.5798 68.0886 52.2393 68.0536 50.9059C67.9764 49.114 67.7098 47.3355 67.2581 45.6002C66.6414 43.0635 66.1157 40.4459 64.5528 38.261C63.3684 36.6003 62.4993 34.6864 60.6982 33.4972C59.2719 32.5437 57.625 31.9385 56.2688 30.9499C53.9385 29.254 51.3068 28.7931 48.605 28.385C46.8109 28.1141 45.0237 27.7763 43.219 27.6215C41.6807 27.4878 40.1178 27.6215 38.5724 27.5476C37.3774 27.5019 36.3542 28.1247 35.2048 28.2795C34.3064 28.458 33.5032 28.9581 32.9446 29.6868C31.9809 30.8091 31.1925 32.0757 30.015 33.0222C29.7102 33.2685 29.4298 33.7258 29.0303 33.2649C28.6309 32.804 28.9322 32.3713 29.3597 32.0933C29.7581 31.8824 30.1144 31.5998 30.411 31.2595C31.3749 30.0238 32.4043 28.8411 33.4947 27.7165C35.7725 25.3381 38.3166 23.2482 40.7345 21.0317C40.8572 20.9191 41.0219 20.7995 40.9413 20.6165C40.8607 20.4336 40.6749 20.4652 40.4682 20.4512C39.1611 20.3632 37.8961 20.7115 36.6766 20.9965C34.8509 21.4222 32.9761 21.5559 31.1714 22.0802C30.9577 22.1449 30.7271 22.122 30.5301 22.0165C30.3331 21.9111 30.1857 21.7315 30.1202 21.5172C29.973 21.0211 30.4531 21.0176 30.779 20.8452C31.9704 20.2225 33.2319 19.7123 34.3638 19.0227C36.617 17.6435 38.9193 16.398 41.2742 15.1772C43.1139 14.2202 44.9887 13.2878 46.4044 11.6905C46.555 11.5216 46.916 11.3211 46.7793 11.1522C46.3027 10.5787 45.8051 9.74487 45.1884 9.62525C44.0343 9.37696 42.842 9.36738 41.6842 9.5971C37.7734 10.4063 33.7996 10.3008 29.8573 10.5928C27.8354 10.7441 25.7994 10.9446 23.7915 11.0396C22.6526 11.0959 21.6399 12.7143 20.4169 11.3915C20.4169 11.3915 20.3574 11.409 20.3223 11.4126C19.3937 11.5357 18.4651 11.6448 17.5434 11.789C16.6218 11.9333 15.914 12.1866 16.1628 13.3582C16.2259 13.6432 16.0506 13.8473 15.8649 14.1076C15.3288 14.85 14.6735 15.0435 13.8219 15.04C13.2823 15.04 12.634 14.7515 12.2065 15.2827C11.2514 16.3802 10.4454 17.6 9.80959 18.9101C8.86344 21.0774 8.01542 23.2869 7.16389 25.4929C5.80424 29.0113 5.82176 32.702 5.32416 36.3259C5.17051 37.797 5.2153 39.2823 5.45732 40.7414C5.76219 43.0037 5.90236 45.3153 6.71885 47.4509C8.07499 50.9692 9.38207 54.5509 11.9156 57.5098C12.8197 58.5442 13.4155 59.846 14.9188 60.24ZM65.534 44.5975C66.2349 44.7031 66.3365 45.3504 66.5853 45.8254C66.5678 46.1772 66.4031 46.42 66.1017 46.3813C65.4429 46.3004 65.117 45.8113 64.9909 45.2167C64.9617 45.1377 64.9543 45.0523 64.9694 44.9694C64.9846 44.8865 65.0218 44.8092 65.0771 44.7458C65.1323 44.6824 65.2037 44.6351 65.2835 44.609C65.3633 44.5829 65.4486 44.5789 65.5305 44.5975H65.534ZM63.5506 44.6784C63.7398 44.9001 63.9256 45.1182 63.8099 45.4419C63.7258 45.6812 63.7924 46.0611 63.477 46.1034C63.3501 46.1071 63.2254 46.0694 63.1217 45.9957C63.0181 45.9221 62.9411 45.8166 62.9023 45.6952C62.5694 44.8825 61.5847 44.4673 61.5182 43.5174C61.5847 43.2957 61.4376 43.0424 61.7319 42.9756C61.8287 42.9432 61.9339 42.9467 62.0284 42.9855C62.1228 43.0242 62.2004 43.0955 62.247 43.1867C62.5344 43.8164 63.1196 44.1753 63.5471 44.6784H63.5506ZM60.0008 36.727C60.0595 36.6248 60.1516 36.5462 60.2615 36.5045C60.3714 36.4628 60.4922 36.4606 60.6036 36.4983C61.5497 36.7024 62.9549 38.4439 62.9479 39.4361C62.9804 39.563 62.9661 39.6975 62.9074 39.8146C62.8488 39.9317 62.7499 40.0235 62.629 40.0729C62.3592 40.1679 62.1699 39.9111 62.0788 39.7211C61.602 38.7942 60.9286 37.9835 60.106 37.3462C60.0108 37.2777 59.9464 37.1742 59.9267 37.0583C59.907 36.9424 59.9337 36.8233 60.0008 36.727ZM57.3761 39.2285C56.7815 38.6778 56.2449 38.067 55.7747 37.406C55.5049 37.019 55.7992 36.727 56.1952 36.6813C56.7874 36.7164 58.1716 38.4158 58.1085 38.9541C58.0455 39.4924 57.5479 39.3868 57.3691 39.2285H57.3761ZM54.9232 32.0335C54.9582 31.7556 55.214 31.8189 55.3998 31.8154C55.9464 31.8154 58.1331 33.2755 58.2943 33.7716C58.3146 33.8557 58.3252 33.9419 58.3258 34.0284C58.3258 34.521 58.0945 34.6899 57.7161 34.4366C56.8365 33.856 56.0165 33.1875 55.0318 32.7724C54.7445 32.6633 54.8741 32.2868 54.9057 32.0511L54.9232 32.0335ZM53.8719 37.596C53.7107 38.1097 53.2482 37.969 53.0414 37.6981C52.5368 37.0366 51.913 36.4913 51.4014 35.8474C51.1631 35.5483 51.051 35.0628 51.9516 35.0417C52.4667 35.0206 54.0716 36.8959 53.8509 37.596H53.8719ZM48.4368 30.2357C48.5735 29.7325 49.0255 30.1583 49.2183 29.9788C50.1119 30.0246 50.7636 30.4749 51.4189 30.9041C51.5439 30.9936 51.6299 31.1277 51.6592 31.2789C51.6885 31.4301 51.659 31.5869 51.5766 31.7169C51.4259 32.0441 51.1596 32.0124 50.8197 31.9245C50.0523 31.731 49.6002 30.9147 48.7172 30.9112C48.6015 30.9147 48.3738 30.5066 48.4368 30.2357ZM45.0377 30.3623C45.311 30.2427 45.4828 30.1794 45.7386 30.4186C46.138 30.8091 46.5796 31.1539 47.0106 31.5128C47.1132 31.6013 47.1851 31.7202 47.2159 31.8524C47.2468 31.9845 47.235 32.1231 47.1823 32.2481C47.1122 32.4768 46.8564 32.5085 46.6847 32.5437C45.8332 32.2693 45.1043 31.9034 44.8204 31.0343C44.7574 30.8197 44.6838 30.5206 45.0517 30.3588L45.0377 30.3623ZM42.7775 33.177C42.7459 32.9131 42.9317 32.8639 43.1559 32.8252C43.5835 32.7829 45.7105 33.7083 45.8963 34.0601C45.9734 34.2211 46.0114 34.3981 46.0071 34.5767C46.0028 34.7553 45.9564 34.9304 45.8717 35.0874C44.9651 34.5677 44.0052 34.1478 43.0088 33.8349C42.6338 33.6942 42.83 33.3916 42.7915 33.1594L42.7775 33.177ZM38.9228 29.6587C39.9379 29.6567 40.9476 29.8061 41.9189 30.102C42.0133 30.1432 42.0887 30.2186 42.1302 30.3131C42.1718 30.4076 42.1764 30.5143 42.1432 30.6121C42.0696 30.9217 41.8454 31.0027 41.5475 31.0308C41.0394 31.0801 40.6084 30.6192 40.2965 30.781C39.7884 30.8267 39.4379 30.7599 39.2032 30.9006C38.7091 31.1962 38.5409 30.9006 38.3972 30.5488C38.3473 30.4545 38.3224 30.3489 38.3249 30.2422C38.3274 30.1355 38.3571 30.0312 38.4113 29.9394C38.4655 29.8475 38.5423 29.7712 38.6343 29.7177C38.7263 29.6642 38.8305 29.6354 38.9368 29.634L38.9228 29.6587ZM38.2745 34.8658C38.9672 34.8219 39.6514 35.0375 40.1949 35.4709C40.2389 35.4943 40.2774 35.5268 40.3079 35.5663C40.3384 35.6058 40.3602 35.6514 40.3718 35.7C40.3834 35.7486 40.3846 35.7991 40.3752 35.8482C40.3658 35.8972 40.3462 35.9438 40.3175 35.9846C40.1598 36.3189 39.8339 36.2837 39.2873 36.2626C38.8595 36.1377 38.4183 36.0657 37.9732 36.048C37.9136 36.0498 37.8543 36.0384 37.7996 36.0145C37.7449 35.9906 37.6963 35.9548 37.657 35.9097C37.6178 35.8646 37.589 35.8113 37.5728 35.7537C37.5566 35.6961 37.5533 35.6355 37.5632 35.5765C37.5741 35.391 37.6526 35.216 37.7838 35.0849C37.915 34.9538 38.0897 34.8758 38.2745 34.8658ZM33.7926 30.6438C34.4935 30.4432 35.2469 30.3412 35.8952 30.8584C36.3507 31.2278 36.0599 31.3756 35.6814 31.6219C34.9525 32.1004 34.101 31.1821 33.3791 32.118C33.302 31.3967 33.1163 30.8373 33.7821 30.6438H33.7926ZM30.7369 33.7786C31.3221 33.3635 32.0265 33.374 32.7168 33.4514C32.8745 33.4514 32.9025 33.6097 32.899 33.754C32.8934 33.889 32.8467 34.019 32.7653 34.1266C32.6838 34.2341 32.5715 34.3141 32.4435 34.3556C31.9459 34.4964 31.4167 34.4999 30.9612 34.813C30.821 34.908 30.6563 34.7321 30.5652 34.5914C30.4881 34.4605 30.4623 34.3055 30.4927 34.1566C30.5232 34.0077 30.6077 33.8754 30.7299 33.7857L30.7369 33.7786ZM24.0789 13.0204C24.3347 12.447 24.9689 12.9008 25.3264 12.7601C26.262 12.7601 27.0785 12.7601 27.7513 13.4638C27.9966 13.7206 28.1017 13.9211 28.0281 14.2132C27.9876 14.3423 27.8991 14.4509 27.781 14.5163C27.663 14.5818 27.5244 14.5993 27.3939 14.565C26.7364 14.5105 26.0747 14.5907 25.449 14.8007C24.8182 14.9837 24.5449 14.5755 24.212 14.2343C24.0758 14.0676 23.991 13.8646 23.968 13.6503C23.945 13.4359 23.9847 13.2195 24.0824 13.0275L24.0789 13.0204Z" fill="#A3A3A3"/>
<path id="Vector_4" d="M14.8037 14.4929C15.6539 18.4668 15.5763 21.2391 17.3403 25.0338C18.7762 28.1222 20.9882 32.198 24.4491 33.4664C28.6121 34.9913 30.3514 31.2036 32.7398 28.6071C35.1283 26.0105 37.9259 23.8989 40.3849 21.4639C41.0905 20.7612 41.6903 20.3677 41.8173 19.4506C40.4061 19.3206 39.0619 20.2131 37.619 20.3536C35.855 20.5258 34.1404 20.1217 32.5352 20.8385C35.1918 19.6193 37.7425 17.9257 40.2614 16.4219C41.9901 15.3889 47.275 13.2597 47.5114 10.9934C47.8642 7.56412 40.1344 9.16281 38.0918 9.34201C34.4121 9.66526 30.616 9.47201 26.8023 9.80932C23.5107 10.1009 15.848 9.27173 15.0436 13.3229L14.8037 14.4929Z" fill="white"/>
<path id="Vector_5" d="M48.5185 64.3784C47.9899 64.4364 47.5291 64.1873 47.0361 64.1293C45.9145 64.0064 44.7821 63.5047 43.6605 63.9211C43.0599 64.135 42.4153 64.2121 41.778 64.1463C41.2946 64.0913 40.8044 64.1487 40.3492 64.3135C40.1027 64.4125 39.7098 64.5183 39.8277 64.8084C40.3599 66.0984 40.3456 67.4498 40.4707 68.7943C40.4921 69.0264 40.4707 69.5485 40.8957 69.5758C41.1851 69.5963 41.328 69.2346 41.4851 68.9718C41.5559 68.822 41.6728 68.6964 41.8202 68.6116C41.9676 68.5269 42.1386 68.487 42.3103 68.4974C42.8354 68.535 42.5568 68.9479 42.6961 69.1561C42.8354 69.3643 42.8961 69.8386 43.3283 69.6543C43.9284 69.3404 44.0106 69.6543 44.1213 70.0638C44.1713 70.2413 44.2678 70.7293 44.5321 70.4802C45.1786 69.8761 45.8145 69.3745 46.7682 69.3506C46.879 69.3506 46.979 69.0435 47.0826 68.8831C47.8648 67.6818 48.0827 66.2349 48.9579 65.0643C49.1544 64.7879 49.1258 64.3101 48.5185 64.3784Z" fill="#A3A3A3"/>
<path id="Vector_6" d="M95.1387 59.9165C94.9273 60.1756 95.1595 60.7894 95.5546 60.981C97.0691 60.6546 98.6737 60.3707 100.223 59.9165C101.9 59.4446 103.266 57.5463 103.065 55.836C103.033 55.5735 103.023 55.3393 102.694 55.3996C100.892 55.7544 99.1485 54.9419 97.3429 55.1512C96.674 55.2293 96.3967 55.3393 96.473 56.0631C96.6185 57.5605 96.0467 58.8095 95.1387 59.9165Z" fill="#F9C2CF"/>
<path id="Vector_7" d="M103.976 59.0428C104.994 58.8052 109.816 56.0495 111.418 54.8544C110.573 54.6936 105.028 54.9568 104.261 55.3734C104.044 55.4904 103.857 55.4465 104 55.8376C104.339 56.7915 103.85 57.665 103.613 58.5275C103.568 58.692 103.249 58.7577 103.47 59.0209C103.643 59.2219 103.786 59.0867 103.976 59.0428Z" fill="#F9C2CF"/>
<path id="Vector_8" d="M71.2908 61.1561C73.1585 61.6549 75.0833 61.9071 77.0164 61.9065C81.3517 61.8224 85.6871 61.8224 90.0154 61.4717C91.3776 61.363 92.6383 61.4191 93.7344 60.1323C94.7463 59.0209 95.3255 57.5823 95.3663 56.0789C95.3873 55.4302 95.0861 54.8061 94.2702 54.8096C92.3722 54.8096 90.6247 53.9856 88.7372 53.8489C87.9423 53.7928 87.7742 54.0522 87.9598 54.5957C88.2785 55.5284 87.9598 56.3699 87.7006 57.1799C87.2315 58.6005 86.2484 59.7938 84.9446 60.525C84.8402 60.6088 84.7125 60.6582 84.5789 60.6663C84.4454 60.6745 84.3126 60.641 84.1987 60.5706C83.9851 60.3918 84.2268 60.2199 84.3773 60.1042C85.1152 59.6045 85.7331 58.9472 86.1866 58.1796C86.6402 57.412 86.9181 56.5532 87.0003 55.6652C87.1263 54.5747 86.7901 53.4421 86.0723 53.2107C84.6451 52.7558 83.1835 52.4169 81.7019 52.1974C81.3517 52.1413 80.97 52.1448 81.1206 52.6918C81.5443 54.2591 81.1416 55.6932 80.3642 57.0362C79.6638 58.2634 79.1595 59.6659 77.9129 60.4969C77.6257 60.6863 77.2125 61.1596 76.9148 60.6898C76.6627 60.3006 77.7097 59.9254 77.7798 59.8202C78.7638 58.344 79.7058 56.8328 80.2311 55.1217C80.6934 53.6069 79.9334 51.6714 78.7918 51.2226C77.5136 50.7212 76.2249 50.2303 74.9397 49.7183C74.7506 49.6412 74.5615 49.4869 74.3829 49.5991C74.0678 49.7955 74.6456 51.2962 74.6596 51.8748C74.7261 55.3391 73.8542 58.4562 71.2908 61.1561Z" fill="#F9C2CF"/>
<path id="Vector_9" d="M16.324 75.4403C17.1584 73.9975 18.5678 72.9189 19.0095 71.238C19.0691 71.0069 19.0656 70.7687 19.3601 70.7407C19.7547 72.4062 20.0416 74.0953 20.2191 75.7975C20.3488 76.8236 19.9211 78.1473 18.6975 78.3154C18.5122 78.337 18.3414 78.4261 18.2178 78.5657C18.0943 78.7053 18.0266 78.8855 18.0279 79.0719C18.0033 79.4571 18.0279 79.7723 18.4977 79.9438C18.7255 79.9923 18.928 80.1215 19.0679 80.3075C19.2077 80.4936 19.2754 80.7239 19.2584 80.9559C19.2584 81.8209 19.8755 82.1361 20.6363 81.8944C21.2218 81.7088 21.4181 81.8069 21.4637 82.4057C21.5163 83.1061 22.0702 83.4073 22.568 83.0606C24.4893 81.7228 26.5473 80.5742 27.3852 78.0598C27.862 76.631 28.2056 75.1637 28.7034 73.7489C29.6185 71.1574 29.8499 68.4679 29.92 65.7539C29.9551 64.3531 32.1498 64.6543 32.5319 64.5668C34.1937 64.1885 35.8696 64.4722 37.5349 64.3846C37.8855 64.3671 38.2361 64.3321 38.3763 64.7348C38.8005 66.0481 39.4667 67.2282 39.2598 68.7761C38.8496 71.8123 38.5586 74.7855 35.4839 76.4804C35.2631 76.603 34.8599 76.8306 35.0352 77.1808C35.1065 77.3696 35.2288 77.535 35.3884 77.6586C35.5481 77.7822 35.7389 77.8593 35.9397 77.8812C36.2061 77.8812 36.4761 77.8812 36.7461 77.8812C36.9424 77.8812 37.1668 77.8812 37.1808 78.1578C37.2369 79.338 37.917 79.1349 38.7024 78.9108C39.053 78.8092 39.5403 78.4835 39.7927 79.1979C40.0872 80.0349 40.8024 80.182 41.437 79.5761C43.9525 77.1334 45.9476 74.2078 47.3024 70.9753C48.0492 69.2629 48.5926 67.4489 49.6654 65.887C50.0651 65.3022 50.3666 64.6543 51.1449 64.4267C52.1173 64.1987 53.1172 64.1103 54.1145 64.164C54.2476 64.1494 54.3817 64.1801 54.495 64.2514C54.6083 64.3226 54.6942 64.4301 54.7385 64.5562C55.2153 65.7469 55.9656 66.794 56.3933 68.0197C57.0174 69.8057 57.1436 71.6897 57.6204 73.4932C57.9114 74.5964 57.5222 75.2862 56.7194 75.8606C56.1058 76.3018 55.4187 76.638 54.7981 77.0722C54.3529 77.3839 54.125 77.7726 54.6298 78.2804C55.331 78.9808 56.5266 79.3065 56.2706 80.6758C56.2857 80.7497 56.3174 80.8192 56.3633 80.8791C56.4093 80.939 56.4683 80.9877 56.5358 81.0214C56.6034 81.0552 56.6778 81.0731 56.7533 81.0739C56.8288 81.0747 56.9036 81.0583 56.9718 81.0259C57.2313 80.9069 57.5748 80.9804 57.8448 80.8719C58.4198 80.6407 58.8265 80.5532 59.0368 81.3551C59.135 81.7333 59.5452 81.9014 60.0886 81.7999C61.491 81.5267 62.108 80.6442 62.5428 79.3485C63.2825 77.1493 63.7137 74.852 64.6708 72.7123C65.2143 71.4936 66.0136 70.3695 66.1924 68.9897C66.3116 68.0792 67.8262 63.5617 68.0786 62.0944C68.1838 61.485 68.4748 61.5025 68.913 61.7442C69.4626 62.0944 70.0706 62.3435 70.7081 62.4796C72.9308 62.7317 75.1115 63.3656 77.3694 63.2675C80.0865 63.1485 82.8071 63.0819 85.5242 62.9489C87.8767 62.8333 90.2361 62.8928 92.5676 62.3955C93.1987 62.2625 94.4924 61.6951 94.1348 63.4006C94.1032 63.5547 94.282 63.7508 94.3837 63.9294C94.6431 64.3847 95.0428 64.066 95.3653 64.0625C95.6879 64.059 95.8492 63.7963 95.9158 63.4741C95.9964 63.0784 95.7229 62.9734 95.46 62.8158C95.1971 62.6582 94.8079 62.6757 94.7203 62.2274C96.3961 61.9263 98.0579 61.7127 99.6776 61.3169C101.431 60.8932 103.184 60.4765 104.814 59.7446C107.11 58.694 109.372 57.6084 111.643 56.4737C112.87 55.8539 113.835 54.9819 114.883 54.1729C115.065 54.0265 115.211 53.8409 115.311 53.6301C115.451 53.3535 115.51 53.1749 115.255 52.9297C115.174 52.8243 115.056 52.7526 114.925 52.7286C114.795 52.7047 114.659 52.7302 114.546 52.8002C111.927 53.7982 109.154 54.0574 106.402 54.222C104.26 54.348 102.093 54.3235 99.9336 54.313C96.908 54.313 93.9735 53.6897 91.0635 53.1364C89.1353 52.7862 87.207 52.408 85.2998 51.8792C83.07 51.2558 80.7596 50.9266 78.5999 50.0336C76.3211 49.1144 74.1391 47.9718 72.0859 46.6227C71.1198 45.955 70.2152 45.2026 69.3828 44.3745C68.331 43.3484 66.3853 39.4262 66.0066 38.8099C65.5578 38.0815 65.1477 37.325 64.6463 36.6316C63.5945 35.1958 62.7286 33.627 61.2035 32.5834C59.9694 31.7429 53.4483 28.1604 51.201 27.8137C49.0975 27.4845 46.9939 27.0083 44.8623 26.7911C42.1733 26.518 39.5087 26.2448 36.7987 26.6406C36.6023 26.6686 36.2903 26.1818 36.5006 26.0067C37.6716 25.0332 38.8847 24.1086 40.0066 23.0826C40.9979 22.26 41.8783 21.3124 42.6255 20.2635C43.0918 19.5421 42.8885 19.1779 42.0365 19.1814C40.845 19.1992 39.658 19.3318 38.492 19.5771L34.4567 20.3756C34.6039 20.1269 34.639 19.9763 34.7337 19.9203C36.1991 19.0378 37.6155 18.0538 39.1546 17.3324C40.6341 16.632 42.0015 15.7355 43.516 15.1086C45.8966 14.1246 47.4111 12.0619 49.2517 10.409C49.4662 10.2171 49.6153 9.96309 49.6782 9.68242C49.741 9.40176 49.7145 9.10849 49.6023 8.84362C49.413 8.36735 45.0972 8.68603 43.6212 8.6405C41.625 8.64015 39.6319 8.79941 37.6611 9.11677C36.3253 9.29187 34.9896 9.19731 33.6643 9.32339C31.0103 9.57202 28.3493 9.67358 25.6883 9.7016C25.222 9.7016 24.903 9.7016 25.1484 9.04323C25.3592 8.52346 25.4406 7.96037 25.3856 7.40228C25.3307 6.84418 25.141 6.30773 24.8329 5.83894C24.1527 4.77084 22.2911 3.7903 21.1587 5.17707C20.6436 5.77435 20.2679 6.4785 20.0588 7.23859C19.8496 7.99868 19.8121 8.79571 19.9491 9.57202C20.0508 10.2234 19.9 10.5316 19.2059 10.5141C18.2803 10.4895 15.5246 10.8012 15.3844 10.3284C15.0759 9.27786 14.4167 8.4584 13.7892 7.62143C12.4184 5.78641 10.9844 5.82843 9.70827 7.64595C8.2498 9.72611 8.958 12.2825 10.2973 13.6203C11.3491 14.6709 11.3315 14.6709 10.2166 15.7985C10.1363 15.9063 10.0703 16.024 10.0203 16.1487C9.19889 17.5235 8.47602 18.9547 7.85714 20.4316C6.93858 22.7849 5.96744 25.1137 5.26975 27.5441C4.48793 30.2581 4.36522 33.0807 4.10578 35.8612C3.75519 39.5488 4.31965 43.2153 5.15756 46.8188C5.58529 48.6994 6.44775 50.3803 7.21906 52.1103C7.81857 53.4515 8.28837 54.8488 8.89139 56.1866C10.6276 59.9253 10.921 64.1727 9.71528 68.1142C8.62494 71.7948 7.44694 75.4683 4.83502 78.452C4.69548 78.601 4.62051 78.7991 4.62642 79.0031C4.63232 79.207 4.71864 79.4004 4.86657 79.5411C5.1751 79.8388 5.51166 79.7022 5.84823 79.4501C6.29744 79.0465 6.8609 78.792 7.46097 78.7217C7.46097 78.9353 7.46097 79.1349 7.50654 79.3275C7.67132 80.266 8.04646 80.4796 8.90892 80.0909C9.46987 79.8353 9.45935 80.168 9.547 80.5742C9.74684 81.4882 10.4936 81.7649 11.1212 81.1625C12.9898 79.373 15.0022 77.7271 16.324 75.4403ZM48.81 65.078C47.951 66.2757 47.7372 67.764 46.9694 68.9967C46.8677 69.1648 46.7695 69.473 46.6609 69.4765C45.7248 69.5045 45.0972 70.0158 44.4661 70.6356C44.2067 70.8913 44.1155 70.3905 44.063 70.2084C43.9578 69.8057 43.8736 69.4695 43.2846 69.7882C42.8604 69.9773 42.8183 69.529 42.6641 69.2769C42.5098 69.0247 42.8008 68.6395 42.2854 68.601C42.1169 68.5903 41.9491 68.6312 41.8045 68.7182C41.6598 68.8051 41.5451 68.9341 41.4756 69.0878C41.3213 69.3574 41.1776 69.7251 40.8971 69.7076C40.4869 69.6796 40.5009 69.1438 40.4799 68.9057C40.3572 67.5294 40.3712 66.1391 39.8488 64.8154C39.7331 64.5212 40.1188 64.4127 40.3607 64.3076C40.8075 64.1384 41.2886 64.0795 41.7631 64.136C42.3885 64.2035 43.0212 64.1244 43.6107 63.9049C44.7116 63.4776 45.8229 63.9924 46.9238 64.1185C47.4111 64.1745 47.8634 64.4337 48.3788 64.3741C48.9853 64.3041 49.0133 64.7944 48.81 65.078ZM103.454 58.4979C103.699 57.6539 104.204 56.8379 103.853 55.9204C103.709 55.5492 103.902 55.5912 104.123 55.4757C104.916 55.0765 110.641 54.8243 111.514 54.9784C109.859 56.12 104.877 58.764 103.829 58.9916C103.632 59.0337 103.478 59.1667 103.306 58.9706C103.078 58.7185 103.408 58.6554 103.454 58.4979ZM97.3672 55.2515C99.1938 55.0449 100.961 55.8364 102.78 55.4967C103.113 55.4336 103.131 55.6648 103.156 55.9274C103.359 57.6154 101.981 59.4889 100.281 59.9547C98.6995 60.3889 97.0938 60.6551 95.5582 61.0053C95.1585 60.8232 94.9236 60.2173 95.1375 59.9547C96.056 58.8586 96.6345 57.6294 96.4802 56.1621C96.4031 55.4477 96.666 55.3356 97.3672 55.2515ZM74.4524 49.6764C74.6312 49.5644 74.803 49.7185 75.0099 49.7955C76.286 50.3103 77.5727 50.7971 78.8664 51.2978C80.0128 51.7461 80.7701 53.6827 80.3073 55.192C79.7849 56.901 78.8454 58.4103 77.8532 59.8846C77.7831 59.9862 76.7348 60.3609 76.9872 60.7531C77.2957 61.2224 77.6884 60.7531 77.9864 60.5605C79.245 59.7306 79.7394 58.3298 80.4406 57.1041C81.2189 55.7628 81.6221 54.334 81.1978 52.7652C81.0471 52.2188 81.4468 52.2118 81.7798 52.2714C83.2611 52.4945 84.722 52.8364 86.1482 53.294C86.8494 53.5391 87.2 54.6702 87.0773 55.7453C86.995 56.6323 86.7168 57.49 86.2627 58.2566C85.8087 59.0232 85.19 59.6797 84.4514 60.1788C84.3006 60.2839 84.0587 60.4695 84.2725 60.6446C84.3865 60.7149 84.5194 60.7483 84.6532 60.7402C84.7869 60.732 84.9148 60.6827 85.0193 60.599C86.3245 59.8688 87.3089 58.677 87.7785 57.2582C88.0519 56.4492 88.357 55.6052 88.0379 54.6772C87.8521 54.1309 88.0204 53.8753 88.8162 53.9313C90.7024 54.0679 92.4519 54.9014 94.3556 54.8908C95.169 54.8908 95.474 55.5107 95.453 56.1586C95.4121 57.66 94.8323 59.0968 93.8192 60.2068C92.7184 61.492 91.4597 61.4325 90.0959 61.5446C85.7626 61.8948 81.4222 61.8948 77.0819 61.9788C75.1466 61.9794 73.2196 61.7275 71.3497 61.2294C73.916 58.5329 74.789 55.4196 74.7189 51.9527C74.7084 51.3819 74.1299 49.883 74.4454 49.6869L74.4524 49.6764ZM69.9999 46.5247C70.8308 47.1165 71.6547 47.7153 72.5242 48.2441C72.6698 48.3211 72.7858 48.4443 72.8537 48.5943C73.5549 50.9161 74.0072 53.2519 73.4988 55.6998C73.2253 57.0165 72.447 58.0881 71.9632 59.2998C70.354 62.4165 68.601 60.0492 68.6641 59.5555C68.8984 57.915 69.0447 56.2632 69.1024 54.6072C69.1339 53.2905 69.0813 51.9842 68.9832 50.6675C68.8288 48.8631 68.5488 47.0716 68.1452 45.306C69.1094 45.4076 69.4424 46.1465 69.9929 46.5317L69.9999 46.5247ZM6.54241 47.4352C5.72202 45.3165 5.58529 43.0122 5.28027 40.757C5.04344 39.3063 5.00334 37.8304 5.16107 36.369C5.65891 32.762 5.64138 29.0919 7.00169 25.5865C7.85363 23.3907 8.70207 21.1915 9.64867 19.0343C10.2848 17.7302 11.0912 16.5162 12.0467 15.4238C12.4745 14.8915 13.1231 15.1787 13.663 15.1822C14.5114 15.1822 15.1705 14.9931 15.7069 14.2541C15.8963 13.995 16.0575 13.7884 16.0049 13.5082C15.7525 12.3421 16.5098 12.0829 17.3863 11.9464C18.2628 11.8098 19.2374 11.6942 20.1665 11.5716C20.198 11.5716 20.2471 11.5366 20.2611 11.5506C21.4812 12.8639 22.4944 11.253 23.6374 11.2004C25.6463 11.1024 27.6832 10.9063 29.7061 10.7557C33.6538 10.4615 37.626 10.5701 41.5387 9.76463C42.6971 9.53598 43.89 9.54551 45.0446 9.79265C45.6617 9.92572 46.1595 10.7417 46.6363 11.3125C46.7766 11.4771 46.4119 11.6627 46.2612 11.8483C44.8588 13.4347 42.9691 14.3662 41.1285 15.3187C38.7865 16.5304 36.4691 17.7701 34.2148 19.1464C33.0824 19.8468 31.8202 20.3405 30.6282 20.9604C30.3021 21.1285 29.8218 21.1355 29.9691 21.6293C30.0346 21.8426 30.1821 22.0213 30.3792 22.1263C30.5763 22.2313 30.807 22.254 31.0209 22.1896C32.8264 21.6678 34.7021 21.5347 36.5287 21.111C37.7488 20.8273 39.0144 20.4841 40.3221 20.5682C40.5325 20.5682 40.7078 20.5331 40.7954 20.7328C40.8831 20.9324 40.7113 21.0304 40.5886 21.146C38.1695 23.3662 35.6242 25.4464 33.3453 27.7997C32.2543 28.9191 31.2244 30.0963 30.2601 31.3262C29.9633 31.6649 29.6068 31.9462 29.2083 32.1561C28.7841 32.4328 28.4756 32.8565 28.8787 33.3223C29.2819 33.7881 29.5589 33.3223 29.8639 33.0807C31.0279 32.1386 31.8307 30.8779 32.7949 29.7608C33.3537 29.0355 34.1574 28.5377 35.0562 28.36C36.2062 28.2059 37.2334 27.5826 38.4254 27.6316C39.975 27.6912 41.5352 27.5721 43.0743 27.7052C44.8798 27.8592 46.6679 28.1989 48.4629 28.4651C51.1625 28.8713 53.7954 29.3301 56.1304 31.018C57.4872 32.0021 59.135 32.6044 60.5619 33.5534C62.3464 34.7371 63.2159 36.6457 64.4184 38.2951C65.9821 40.4698 66.522 43.0752 67.125 45.6002C67.5769 47.3273 67.8437 49.0976 67.9209 50.8811C67.9594 52.2083 68.0716 53.5426 68.0716 54.8768C68.0716 57.3282 67.5352 59.72 66.9988 62.1049C66.6674 63.6484 66.1222 65.1382 65.3791 66.5313C65.2242 66.8315 65.1855 67.1781 65.2704 67.5049C65.5158 68.65 64.9198 69.6061 64.5446 70.5691C64.45 70.8107 64.194 71.1889 63.7523 70.8738C63.6693 70.8121 63.5654 70.7856 63.463 70.8C63.3606 70.8144 63.268 70.8686 63.2054 70.9508C62.7356 71.5567 62.3043 71.5181 61.831 70.9508C61.6067 70.6742 61.4244 70.9333 61.2491 71.0769C61.0738 71.2205 60.923 71.2975 60.8143 70.9893C60.4146 69.8792 59.9799 70.4781 59.6153 70.9893C59.4331 71.3063 59.1452 71.5493 58.8019 71.6757C57.6765 68.4714 56.6984 65.2636 54.8823 62.4201C54.2192 61.3769 53.4105 60.4335 52.4807 59.6185C50.9488 58.3042 49.7853 56.6147 49.1045 54.7157C48.5541 53.1784 47.7828 51.6831 47.8529 49.9741C47.8529 49.7114 47.7442 49.4663 47.5023 49.4628C47.3499 49.4685 47.2047 49.5285 47.0928 49.6319C46.9809 49.7353 46.9097 49.8754 46.8922 50.0266C46.8019 50.4892 46.8019 50.9648 46.8922 51.4274C47.7126 54.5792 48.8345 57.5663 51.0994 59.9897C51.6884 60.62 52.4106 61.1243 53.0171 61.7407C53.4799 62.2099 53.6482 62.5811 52.6911 62.7913C51.375 63.0363 50.0282 63.0705 48.7013 62.8928C46.6796 62.6739 44.6402 62.6739 42.6185 62.8928C41.6263 62.9909 40.6166 62.7107 39.5754 62.9243C37.7102 63.306 35.81 63.0924 33.9238 63.0329C33.2752 63.0119 32.7177 63.4987 32.0166 63.3831C31.5952 63.3263 31.179 63.2361 30.7719 63.1134C30.6624 63.0929 30.5581 63.0509 30.4649 62.9898C30.3717 62.9288 30.2915 62.85 30.2289 62.7578C30.1663 62.6657 30.1226 62.5622 30.1003 62.4531C30.078 62.344 30.0775 62.2316 30.0988 62.1224C30.1409 60.9737 30.2566 59.7901 29.3976 58.8095C28.9138 59.0021 28.8332 59.4084 28.8963 59.8601C29.0731 61.5428 29.0861 63.2387 28.9348 64.924C28.8191 66.9446 28.6684 68.9582 28.444 70.9438C28.0934 71.0804 28.0934 70.7932 28.0023 70.6427C27.6517 69.9948 27.2555 70.0998 26.8453 70.5551C26.67 70.7512 26.5823 71.0384 26.3825 71.189C26.0635 71.4306 25.6813 71.9559 25.4254 71.0489C25.2256 70.366 24.7803 70.2189 24.2229 70.8668C23.7881 71.3781 23.2938 71.9944 22.7363 70.8668C22.4979 70.387 22.0772 70.5376 21.8213 71.0068C21.667 71.294 21.4987 71.6862 21.1201 71.5497C20.8256 71.4481 20.7029 71.1189 20.6012 70.7617C19.9666 68.5065 19.7247 66.0936 18.1997 64.1675C17.1829 62.8823 16.1206 61.6356 15.0724 60.3784C14.9776 60.2804 14.8554 60.2132 14.7218 60.1858C13.2212 59.8076 12.6182 58.4979 11.7172 57.4438C9.20692 54.5091 7.89921 50.9581 6.54241 47.4422V47.4352ZM13.4912 68.8707C13.1581 67.7816 12.9092 67.764 11.9801 68.4959C11.7663 68.664 11.5489 68.9267 11.2789 68.7516C11.009 68.5765 11.3455 68.2473 11.3 68.0512C10.8968 66.1811 11.8995 64.3601 11.3946 62.4481C11.1212 61.4185 11.4858 60.2804 11.2579 59.1737C11.8153 60.1858 15.1355 62.3465 15.3914 62.6512C16.4888 63.9679 17.6948 65.1971 18.3644 66.829C18.7816 67.8516 18.5818 69.487 17.8175 70.2749C17.7088 70.387 17.6107 70.5691 17.4178 70.4816C17.3432 70.4427 17.2823 70.382 17.2434 70.3074C17.2045 70.2329 17.1895 70.1482 17.2005 70.0648C17.2133 69.8631 17.2133 69.6607 17.2005 69.459C17.1268 68.6746 16.643 68.4399 16.0084 68.8812C15.7357 69.1195 15.441 69.3318 15.1285 69.515C14.3957 69.8582 13.8032 69.8967 13.4912 68.8742V68.8707Z" fill="black"/>
<path id="Vector_10" d="M45.6382 6.03667C45.9156 5.64736 46.2596 5.45092 46.4527 5.00447C47.0564 3.6151 47.6251 2.18288 48.7976 1.1471C49.0644 0.911377 49.1802 0.65422 48.9205 0.361346C48.6607 0.0684724 48.408 0.143475 48.1412 0.39349C46.7546 1.70428 46.056 3.4651 45.1468 5.08662C44.8414 5.59736 45.3609 5.67594 45.6382 6.03667Z" fill="black"/>
<path id="Vector_11" d="M47.6772 5.5516C48.0347 5.96375 48.4102 5.5516 48.6462 5.35852C49.4317 4.70143 50.2772 4.12565 51.1706 3.63938C51.3422 3.54655 51.5818 3.51685 51.5282 3.07129C51.2636 2.48462 50.7308 2.57374 50.2481 2.89306C49.4901 3.40666 48.7573 3.95936 48.0526 4.54908C47.7487 4.783 47.2767 5.07262 47.6772 5.5516Z" fill="black"/>
<path id="Vector_12" d="M89.4471 63.4535C88.8523 63.5594 87.9935 63.5879 87.96 64.5404C87.934 65.3098 88.5363 65.3546 89.0531 65.2732C89.7185 65.3179 90.4175 65.322 90.4286 64.4264C90.4265 64.2906 90.3989 64.1567 90.3476 64.0329C90.2964 63.9092 90.2224 63.7983 90.1304 63.7071C90.0384 63.6159 89.9303 63.5464 89.8128 63.5028C89.6953 63.4591 89.5708 63.4424 89.4471 63.4535Z" fill="black"/>
<path id="Vector_13" d="M50.6816 5.30003C50.8456 5.51959 51.0234 5.38523 51.184 5.30003C51.7913 4.9859 52.4193 4.71004 53.064 4.4742C53.3237 4.39555 53.8262 4.30051 53.6656 3.90071C53.5767 3.67786 53.1597 3.53695 52.7974 3.57299C52.0217 3.7809 51.3281 4.20524 50.8046 4.79208C50.6679 4.95921 50.5175 5.08702 50.6816 5.30003Z" fill="black"/>
<path id="Vector_14" d="M95.0626 50.176C95.3017 49.8479 95.5897 49.5694 95.9136 49.3532C96.1016 49.2601 96.3622 49.1075 96.2765 48.724C96.1907 48.3405 95.9103 48.3107 95.6168 48.3293C95.3058 48.3289 95.0021 48.4355 94.7462 48.6351C94.4904 48.8347 94.2947 49.1177 94.1852 49.4463C94.1257 49.6109 94.1163 49.7932 94.1588 49.9644C94.2012 50.1356 94.2929 50.286 94.4194 50.3919C94.6404 50.6302 94.8713 50.3621 95.0626 50.176Z" fill="black"/>
<path id="Vector_15" d="M100.228 52.3264C100.871 52.3264 101.232 52.0553 101.232 51.3834C101.232 50.9329 101.011 50.7764 100.616 50.7955C100.031 50.8184 99.4386 50.9787 99.3817 51.685C99.3483 52.1355 99.8435 52.3951 100.228 52.3264Z" fill="black"/>
<path id="Vector_16" d="M102.769 62.9901C102.645 62.4087 101.932 62.4009 101.4 62.2148C101.3 62.7265 100.551 62.0055 100.619 62.5521C100.687 63.0987 100.972 63.7809 101.82 63.7576C102.349 63.746 102.837 63.2382 102.769 62.9901Z" fill="black"/>
<path id="Vector_17" d="M88.6248 50.1771C88.8475 50.1787 89.0624 50.0765 89.2255 49.8914C89.3887 49.7062 89.4877 49.4521 89.5026 49.1808C89.4022 49.0068 89.3989 48.4849 89.1074 48.6747C88.7252 48.9238 88.0644 48.5759 87.9608 49.3073C87.9546 49.4185 87.9671 49.5301 87.9977 49.6351C88.0282 49.7401 88.0761 49.8364 88.1383 49.9179C88.2006 49.9995 88.2758 50.0645 88.3595 50.1091C88.4432 50.1537 88.5335 50.1769 88.6248 50.1771Z" fill="black"/>
<path id="Vector_18" d="M84.2942 48.311C84.3804 48.3796 84.6556 48.181 84.5329 47.9173C84.3075 47.437 84.4865 46.7291 83.9925 46.4727C83.389 46.5232 83.3293 46.8338 83.3293 47.2708C83.3194 47.986 83.9262 48.0293 84.2942 48.311Z" fill="black"/>
<path id="Vector_19" d="M108.289 62.4592C108.043 61.8594 107.479 61.8791 106.788 61.9286C107.125 62.4625 106.987 63.191 107.819 63.1382C107.905 63.135 107.99 63.1126 108.065 63.0731C108.14 63.0335 108.203 62.9779 108.249 62.9112C108.295 62.8444 108.323 62.7684 108.33 62.6897C108.337 62.6109 108.323 62.5319 108.289 62.4592Z" fill="black"/>
<path id="Vector_20" d="M105.921 51.72C106.446 51.72 106.843 51.6916 106.782 51.2885C106.736 50.9735 106.457 50.7908 105.993 50.794C105.528 50.7971 105.225 51.0082 105.246 51.3074C105.275 51.657 105.725 51.7137 105.921 51.72Z" fill="black"/>
<path id="Vector_21" d="M84.1111 65.9187C84.4851 65.9019 84.4884 65.4934 84.5638 65.2436C84.5638 64.9296 84.5442 64.6291 84.2062 64.6933C83.9471 64.7406 83.619 64.852 83.6387 65.2233C83.6583 65.5406 83.7338 65.9356 84.1111 65.9187Z" fill="black"/>
<path id="Vector_22" d="M25.3308 14.9372C25.9903 14.7241 26.6877 14.6427 27.3808 14.698C27.5183 14.7328 27.6644 14.7151 27.7889 14.6486C27.9133 14.5822 28.0065 14.472 28.0493 14.341C28.1343 14.0446 28.0161 13.8411 27.7575 13.5805C27.0483 12.8665 26.1877 12.8665 25.2015 12.8665C24.8322 13.0093 24.1562 12.5487 23.8866 13.1307C23.7799 13.3287 23.7367 13.553 23.7623 13.7749C23.788 13.9968 23.8814 14.2063 24.0307 14.3767C24.3779 14.7194 24.666 15.1336 25.3308 14.9372Z" fill="black"/>
<path id="Vector_23" d="M62.059 39.6434C62.1513 39.815 62.3395 40.0592 62.6164 39.9734C62.7388 39.927 62.8391 39.8409 62.8985 39.7311C62.9579 39.6212 62.9724 39.4951 62.9395 39.3761C62.9395 38.4456 61.5193 36.8089 60.5643 36.6208C60.4515 36.5855 60.3291 36.5875 60.2177 36.6266C60.1064 36.6657 60.0131 36.7395 59.9536 36.8353C59.919 36.8805 59.8944 36.9316 59.8812 36.9857C59.868 37.0397 59.8664 37.0957 59.8767 37.1503C59.8869 37.205 59.9087 37.2572 59.9408 37.3039C59.9729 37.3507 60.0147 37.391 60.0637 37.4227C60.8951 38.0188 61.5761 38.7768 62.059 39.6434Z" fill="black"/>
<path id="Vector_24" d="M54.8016 32.6308C55.859 33.0512 56.7328 33.7282 57.674 34.316C58.0828 34.5726 58.319 34.4015 58.3265 33.9027C58.3259 33.8151 58.3146 33.7278 58.2928 33.6427C58.1203 33.1403 55.7803 31.6475 55.1953 31.6617C54.9966 31.6617 54.7228 31.6012 54.6853 31.8826C54.6478 32.1641 54.5166 32.5204 54.8016 32.6308Z" fill="black"/>
<path id="Vector_25" d="M39.0998 30.8893C39.3237 30.7354 39.6663 30.8064 40.1581 30.7551C40.4634 30.5735 40.8772 31.0906 41.3691 31.0353C41.6574 31.0037 41.8744 30.913 41.9457 30.5657C41.9778 30.456 41.9733 30.3362 41.9331 30.2302C41.8929 30.1242 41.8199 30.0397 41.7286 29.9934C40.7884 29.6615 39.811 29.4939 38.8285 29.4961C38.7298 29.5028 38.6341 29.5376 38.5499 29.5976C38.4656 29.6576 38.3953 29.7409 38.3453 29.84C38.2953 29.9392 38.2672 30.0512 38.2633 30.1661C38.2594 30.2809 38.2799 30.3951 38.3231 30.4986C38.4588 30.8972 38.6216 31.2208 39.0998 30.8893Z" fill="black"/>
<path id="Vector_26" d="M48.7323 30.9745C49.5607 30.9745 49.9931 31.7285 50.7283 31.9106C51.061 31.9918 51.3038 32.0211 51.4468 31.7188C51.525 31.5987 51.5531 31.4539 51.5252 31.3143C51.4974 31.1746 51.4157 31.0507 51.2971 30.968C50.6751 30.5715 50.0563 30.1555 49.208 30.1133C49.0217 30.279 48.5959 29.8858 48.4662 30.3505C48.3864 30.5975 48.6026 30.9745 48.7323 30.9745Z" fill="black"/>
<path id="Vector_27" d="M51.3845 35.8214C51.8593 36.4389 52.4349 36.962 52.9065 37.5964C53.0984 37.8562 53.5276 37.9912 53.6772 37.4985C53.8821 36.8236 52.3927 35.0284 51.8951 35.052C51.0561 35.0689 51.1634 35.5345 51.3845 35.8214Z" fill="black"/>
<path id="Vector_28" d="M42.8457 33.8569C43.8871 34.1555 44.8903 34.5563 45.8378 35.0523C45.9264 34.9024 45.9748 34.7353 45.9793 34.5649C45.9838 34.3944 45.944 34.2254 45.8634 34.0718C45.673 33.736 43.45 32.8495 42.9995 32.8932C42.7651 32.9167 42.571 32.9603 42.604 33.229C42.6369 33.4976 42.4392 33.7259 42.8457 33.8569Z" fill="black"/>
<path id="Vector_29" d="M62.09 43.0197C62.0467 42.9215 61.9747 42.8446 61.887 42.8029C61.7993 42.7611 61.7017 42.7573 61.6118 42.7922C61.3385 42.8642 61.4719 43.1373 61.4133 43.3762C61.4751 44.4002 62.3893 44.8477 62.6983 45.7238C62.7342 45.8546 62.8057 45.9683 62.902 46.0477C62.9982 46.1271 63.114 46.1678 63.2318 46.1637C63.5213 46.1182 63.4595 45.7086 63.5409 45.4507C63.6482 45.1018 63.4758 44.8667 63.3001 44.6277C62.9032 44.0854 62.36 43.6986 62.09 43.0197Z" fill="black"/>
<path id="Vector_30" d="M46.667 32.5827C46.8385 32.5447 47.094 32.5106 47.164 32.2639C47.2166 32.129 47.2284 31.9795 47.1976 31.8369C47.1667 31.6943 47.0949 31.5661 46.9925 31.4706C46.562 31.0911 46.1175 30.7115 45.722 30.2902C45.477 30.0322 45.309 30.0967 45.0221 30.2295C44.6721 30.4041 44.7281 30.7229 44.7946 30.9506C45.0921 31.8919 45.8235 32.2866 46.667 32.5827Z" fill="black"/>
<path id="Vector_31" d="M56.0832 36.5957C55.6833 36.643 55.3753 36.9593 55.6585 37.3448C56.1334 38.0279 56.6754 38.6591 57.2759 39.2283C57.4423 39.3919 57.9484 39.541 58.0156 38.9447C58.0829 38.3483 56.6813 36.6321 56.0832 36.5957Z" fill="black"/>
<path id="Vector_32" d="M37.7278 36.0379C38.169 36.0574 38.6064 36.1364 39.0303 36.2733C39.5721 36.2964 39.8952 36.3312 40.0515 35.9685C40.0799 35.9237 40.0994 35.8727 40.1087 35.8188C40.1179 35.765 40.1168 35.7096 40.1053 35.6563C40.0938 35.603 40.0722 35.553 40.0419 35.5097C40.0117 35.4664 39.9735 35.4308 39.9299 35.4051C39.393 34.9353 38.7191 34.7018 38.037 34.7492C37.8567 34.7627 37.687 34.8484 37.5593 34.9903C37.4316 35.1322 37.3545 35.3207 37.3423 35.5209C37.3328 35.5837 37.3356 35.6481 37.3505 35.7096C37.3654 35.7711 37.392 35.8283 37.4286 35.8774C37.4652 35.9264 37.5109 35.9661 37.5625 35.9939C37.6141 36.0216 37.6705 36.0366 37.7278 36.0379Z" fill="black"/>
<path id="Vector_33" d="M35.6181 31.497C36.0285 31.2645 36.344 31.125 35.8499 30.7763C35.1621 30.2915 34.3564 30.3878 33.5698 30.5738C32.7831 30.7597 33.0453 31.2811 33.1062 31.9652C33.8928 31.0819 34.8277 31.9486 35.6181 31.497Z" fill="black"/>
<path id="Vector_34" d="M30.7276 34.7191C31.1928 34.4488 31.7332 34.4457 32.2414 34.3243C32.3721 34.2884 32.4868 34.2194 32.57 34.1265C32.6531 34.0337 32.7008 33.9214 32.7066 33.8049C32.7066 33.6804 32.6815 33.5589 32.5205 33.5437C31.8048 33.4799 31.0891 33.4678 30.4986 33.8262C30.3717 33.9029 30.2833 34.0172 30.2509 34.1465C30.2184 34.2758 30.2442 34.4108 30.3233 34.5247C30.4163 34.6492 30.5809 34.8041 30.7276 34.7191Z" fill="black"/>
<path id="Vector_35" d="M65.8953 46.4689C66.18 46.5087 66.3355 46.2629 66.3521 45.8978C66.127 45.4135 66.0211 44.7448 65.3591 44.6364C65.2813 44.6144 65.1994 44.6161 65.1223 44.6414C65.0453 44.6667 64.9761 44.7145 64.9222 44.7797C64.8683 44.8449 64.8318 44.9249 64.8166 45.0112C64.8014 45.0974 64.8082 45.1866 64.8362 45.2689C64.9653 45.8834 65.2731 46.3894 65.8953 46.4689Z" fill="black"/>
<path id="Polygon 1" d="M53 18.1719L56 11.6719V10.6719H68V11.6719L53 18.1719Z" fill="white"/>
<path id="Polygon 2" d="M56 11.6719L53 18.1719L68 11.6719" stroke="#BFBFBF" stroke-linecap="round"/>
</g>
</svg>
