<svg width="200" height="29" viewBox="0 0 200 29" fill="none" xmlns="http://www.w3.org/2000/svg">
<path fill-rule="evenodd" clip-rule="evenodd" d="M8.90591 1.20508C7.81569 1.20508 6.93188 2.08888 6.93188 3.17911V13.0941C6.93188 13.0989 6.9319 13.1037 6.93194 13.1085V8.13661H13.8633V15.0682H8.89912C8.90138 15.0682 8.90365 15.0682 8.90591 15.0682H18.8205C19.9108 15.0682 20.7946 14.1844 20.7946 13.0941V3.17911C20.7946 2.08888 19.9108 1.20508 18.8205 1.20508H8.90591Z" fill="#FFA663"/>
<path fill-rule="evenodd" clip-rule="evenodd" d="M11.8886 21.999C12.9789 21.999 13.8627 21.1152 13.8627 20.025V15.0675H6.93137V8.13594H11.8951C11.893 8.13593 11.8908 8.13593 11.8886 8.13593H1.97403C0.883802 8.13593 -9.53674e-07 9.01973 -9.53674e-07 10.11V20.025C-9.53674e-07 21.1152 0.883802 21.999 1.97403 21.999H11.8886Z" fill="#FF7557"/>
<path d="M130.18 0.889648C126.177 0.889648 123.279 3.35897 123.279 6.66131C123.279 10.8974 126.8 11.8663 129.926 12.7263C132.419 13.4125 134.661 14.0294 134.661 16.1816C134.661 18.1749 132.869 19.5434 130.33 19.5434C127.73 19.5434 125.759 18.3832 124.146 16.8659L122.323 19.0079C124.146 20.8822 127.163 22.3103 130.33 22.3103C134.811 22.3103 137.619 19.4542 137.619 16.1518C137.619 12.01 134.154 11.0121 131.038 10.1145C128.491 9.38087 126.177 8.71427 126.177 6.45306C126.177 4.81676 127.76 3.65648 129.971 3.65648C131.973 3.65648 134.004 4.51925 135.319 5.94729L137.021 3.71598C135.677 2.07968 132.809 0.889648 130.18 0.889648Z" fill="#12110D"/>
<path d="M40.6758 1.18716V9.84466H29.7418V1.18716H26.844V22.0128H29.7418V12.5817H40.6758V22.0128H43.5736V1.18716H40.6758Z" fill="#12110D"/>
<path d="M57.6096 7.49434V17.2824C56.803 18.7104 55.16 19.6029 53.4571 19.6029C51.1568 19.6029 49.6332 17.9666 49.6332 15.4081V7.49434H46.8549V15.8246C46.8549 19.7517 49.215 22.3103 52.8298 22.3103C54.8313 22.3103 56.7134 21.3582 57.6096 19.9004V22.0128H60.3581V7.49434H57.6096Z" fill="#12110D"/>
<path d="M75.5629 9.78516C76.5488 8.47612 78.3114 7.19683 80.5221 7.19683C84.0771 7.19683 86.4671 9.54715 86.4671 13.2363V22.0128H83.7186V13.7123C83.7186 11.2727 82.3145 9.7554 80.074 9.7554C78.5504 9.7554 77.0268 10.7967 76.2799 12.0462C76.3397 12.3139 76.3695 12.6113 76.3994 12.9088L76.3994 12.909V22.0128H73.651V13.7123C73.651 11.2727 72.217 9.7554 70.0661 9.7554C68.423 9.7554 67.0488 10.6777 66.3617 12.0165V22.0128H63.5834V7.49434H66.3617V9.54715C67.0786 8.50587 68.5425 7.19683 70.9324 7.19683C73.0834 7.19683 74.6368 8.05961 75.5629 9.78516Z" fill="#12110D"/>
<path fill-rule="evenodd" clip-rule="evenodd" d="M100.628 7.49434V9.60665C99.8508 8.23811 97.8193 7.19683 95.758 7.19683C91.725 7.19683 88.6479 10.4992 88.6479 14.7535C88.6479 19.0079 91.725 22.3103 95.758 22.3103C97.7895 22.3103 99.8209 21.269 100.628 19.9004V22.0128H103.406V7.49434H100.628ZM96.2957 19.7219C93.4875 19.7219 91.3366 17.5799 91.3366 14.7535C91.3366 11.8975 93.4875 9.78516 96.2957 9.78516C98.0882 9.78516 99.8508 10.7967 100.628 12.2247V17.3121C99.8508 18.7104 98.0882 19.7219 96.2957 19.7219Z" fill="#12110D"/>
<path d="M109.369 9.60665C110.265 8.14886 112.147 7.19683 114.119 7.19683C117.764 7.19683 120.094 9.7554 120.094 13.7123V22.0128H117.345V14.099C117.345 11.5405 115.822 9.90416 113.492 9.90416C111.819 9.90416 110.176 10.7967 109.369 12.2247V22.0128H106.591V7.49434H109.369V9.60665Z" fill="#12110D"/>
<path d="M143.102 22.0128H140.324V7.49434H143.102V22.0128Z" fill="#12110D"/>
<path fill-rule="evenodd" clip-rule="evenodd" d="M157.742 7.49434V9.5769C156.965 8.20836 154.934 7.19683 152.872 7.19683C148.839 7.19683 145.762 10.4397 145.762 14.6048C145.762 18.7997 148.839 22.0425 152.872 22.0425C154.904 22.0425 156.935 21.031 157.742 19.6922V21.4772C157.742 23.9168 155.86 25.6424 153.35 25.6424C151.289 25.6424 149.407 24.9581 148.302 23.7681L146.897 25.6424C148.152 27.1894 150.841 28.1117 153.41 28.1117C157.533 28.1117 160.52 25.4936 160.52 21.507V7.49434H157.742ZM153.41 19.4839C150.602 19.4839 148.451 17.4014 148.451 14.6048C148.451 11.8082 150.602 9.7554 153.41 9.7554C155.202 9.7554 156.965 10.7372 157.742 12.1355V17.1336C156.965 18.5022 155.202 19.4839 153.41 19.4839Z" fill="#12110D"/>
<path d="M166.357 9.60665C167.254 8.14886 169.136 7.19683 171.107 7.19683C174.752 7.19683 177.082 9.7554 177.082 13.7123V22.0128H174.334V14.099C174.334 11.5405 172.81 9.90416 170.48 9.90416C168.807 9.90416 167.164 10.7967 166.357 12.2247V22.0128H163.579V7.49434H166.357V9.60665Z" fill="#12110D"/>
<path fill-rule="evenodd" clip-rule="evenodd" d="M191.258 7.49434V9.60665C190.481 8.23811 188.45 7.19683 186.389 7.19683C182.356 7.19683 179.279 10.4992 179.279 14.7535C179.279 19.0079 182.356 22.3103 186.389 22.3103C188.42 22.3103 190.452 21.269 191.258 19.9004V22.0128H194.037V7.49434H191.258ZM186.926 19.7219C184.118 19.7219 181.967 17.5799 181.967 14.7535C181.967 11.8975 184.118 9.78516 186.926 9.78516C188.719 9.78516 190.481 10.7967 191.258 12.2247V17.3121C190.481 18.7104 188.719 19.7219 186.926 19.7219Z" fill="#12110D"/>
<path d="M197.221 1.18716H200V22.0128H197.221V1.18716Z" fill="#12110D"/>
<path d="M141.712 1.96089C140.848 1.96089 140.136 2.69774 140.136 3.53623C140.136 4.40014 140.848 5.11158 141.712 5.11158C142.55 5.11158 143.287 4.40014 143.287 3.53623C143.287 2.69774 142.55 1.96089 141.712 1.96089Z" fill="#12110D"/>
</svg>
