<svg width="367" height="93" viewBox="0 0 367 93" fill="none" xmlns="http://www.w3.org/2000/svg">
<g clip-path="url(#clip0_113_3173)">
<rect x="6.77368" y="10.3066" width="42.9008" height="40.6429" fill="#FFD6CD"/>
<path fill-rule="evenodd" clip-rule="evenodd" d="M16.0035 17.0884H0V1.13086H16.0035V17.0884ZM56.9022 17.0884H40.8987V1.13092H56.9022V17.0884ZM0 57.8691H16.0035V41.9116H0V57.8691ZM56.9022 57.8691H40.8987V41.9116H56.9022V57.8691ZM5.33369 17.0887H10.6682V41.9115H5.33369V17.0887ZM51.5671 17.0887H46.2326V41.9115H51.5671V17.0887ZM16.0039 6.45045H40.8982V11.7696H16.0039V6.45045ZM40.8982 47.23H16.0039V52.5491H40.8982V47.23Z" fill="#FF7557"/>
</g>
<path d="M78.2449 11.1655V42.5495H96.1252V48.5274H72.0001V11.1655H78.2449Z" fill="#12110D"/>
<path d="M125.184 48.5274H119.206V44.8979C118.566 46.1077 117.463 47.104 115.897 47.8869C114.331 48.6697 112.659 49.0611 110.88 49.0611C108.567 49.0611 106.45 48.4562 104.528 47.2464C102.607 46.0366 101.095 44.3998 99.9915 42.336C98.8884 40.2722 98.3369 37.9771 98.3369 35.4507C98.3369 32.9599 98.8884 30.6826 99.9915 28.6188C101.095 26.555 102.607 24.9182 104.528 23.7084C106.45 22.4986 108.567 21.8937 110.88 21.8937C112.659 21.8937 114.331 22.2851 115.897 23.0679C117.463 23.8507 118.566 24.8471 119.206 26.0569V22.4274H125.184V48.5274ZM104.155 35.4507C104.155 36.9452 104.493 38.2973 105.169 39.5071C105.88 40.7169 106.841 41.6777 108.051 42.3893C109.296 43.0654 110.649 43.4034 112.107 43.4034C113.566 43.4034 114.954 43.0298 116.271 42.2826C117.587 41.5354 118.566 40.5746 119.206 39.4004V31.6078C118.601 30.4335 117.641 29.4728 116.324 28.7256C115.007 27.9428 113.602 27.5513 112.107 27.5513C110.613 27.5513 109.261 27.9072 108.051 28.6188C106.841 29.2949 105.88 30.2378 105.169 31.4477C104.493 32.6219 104.155 33.9562 104.155 35.4507Z" fill="#12110D"/>
<path d="M137.339 26.0569C137.979 24.8471 139.082 23.8507 140.648 23.0679C142.249 22.2851 143.922 21.8937 145.665 21.8937C147.978 21.8937 150.095 22.4986 152.017 23.7084C153.938 24.9182 155.45 26.555 156.553 28.6188C157.656 30.6826 158.208 32.9599 158.208 35.4507C158.208 37.9771 157.656 40.2722 156.553 42.336C155.45 44.3998 153.938 46.0366 152.017 47.2464C150.095 48.4562 147.978 49.0611 145.665 49.0611C143.922 49.0611 142.249 48.6697 140.648 47.8869C139.082 47.104 137.979 46.1077 137.339 44.8979V48.5274H131.414V11.1655H137.339V26.0569ZM137.339 39.4004C137.979 40.5746 138.958 41.5354 140.274 42.2826C141.591 43.0298 142.979 43.4034 144.437 43.4034C145.896 43.4034 147.231 43.0654 148.441 42.3893C149.686 41.6777 150.647 40.7169 151.323 39.5071C152.034 38.2973 152.39 36.9452 152.39 35.4507C152.39 33.9562 152.034 32.6219 151.323 31.4477C150.647 30.2378 149.704 29.2949 148.494 28.6188C147.284 27.9072 145.932 27.5513 144.437 27.5513C142.943 27.5513 141.537 27.9428 140.221 28.7256C138.904 29.4728 137.944 30.4335 137.339 31.6078V39.4004Z" fill="#12110D"/>
<path d="M174.857 49.0611C172.402 49.0611 170.143 48.474 168.079 47.2998C166.015 46.0899 164.378 44.4353 163.168 42.336C161.959 40.2366 161.354 37.9059 161.354 35.344C161.354 32.8532 161.941 30.5937 163.115 28.5655C164.325 26.5017 165.962 24.8826 168.025 23.7084C170.089 22.4986 172.349 21.8937 174.804 21.8937C177.117 21.8937 179.234 22.4452 181.156 23.5483C183.077 24.6514 184.589 26.1458 185.692 28.0317C186.795 29.9176 187.347 32.017 187.347 34.3299C187.347 34.9703 187.276 35.8243 187.133 36.8918H167.118C167.438 39.0624 168.292 40.7703 169.68 42.0157C171.103 43.2611 172.9 43.8838 175.071 43.8838C176.53 43.8838 177.882 43.5814 179.127 42.9765C180.408 42.336 181.333 41.5176 181.903 40.5212L186.6 43.4034C185.639 45.1826 184.109 46.5703 182.009 47.5666C179.946 48.5629 177.562 49.0611 174.857 49.0611ZM181.316 32.6219C181.102 30.9495 180.355 29.5796 179.074 28.5121C177.793 27.4446 176.281 26.9109 174.537 26.9109C172.651 26.9109 171.068 27.4268 169.787 28.4587C168.541 29.455 167.705 30.8427 167.278 32.6219H181.316Z" fill="#12110D"/>
<path d="M198.219 48.5274H192.294V11.1655H198.219V48.5274Z" fill="#12110D"/>
<path d="M228.655 10.6318C231.039 10.6318 233.423 11.1477 235.807 12.1796C238.226 13.1759 240.077 14.4391 241.358 15.9692L237.728 20.8262C236.483 19.5452 234.988 18.5311 233.245 17.7839C231.537 17.0367 229.847 16.663 228.174 16.663C226.466 16.663 225.061 17.0544 223.958 17.8373C222.89 18.6201 222.357 19.6342 222.357 20.8796C222.357 21.9471 222.695 22.8366 223.371 23.5483C224.082 24.2599 224.954 24.8293 225.986 25.2563C227.053 25.6477 228.512 26.1102 230.363 26.644C232.889 27.3556 234.935 28.0851 236.501 28.8323C238.102 29.544 239.454 30.6293 240.557 32.0881C241.696 33.5115 242.265 35.3973 242.265 37.7458C242.265 39.774 241.714 41.6599 240.61 43.4034C239.543 45.1114 237.995 46.4813 235.967 47.5132C233.939 48.5451 231.59 49.0611 228.922 49.0611C226.146 49.0611 223.406 48.4562 220.702 47.2464C217.998 46.0366 215.809 44.5065 214.137 42.6562L218.14 38.066C219.777 39.6317 221.449 40.8593 223.157 41.7488C224.865 42.6028 226.787 43.0298 228.922 43.0298C230.985 43.0298 232.658 42.5495 233.939 41.5887C235.22 40.628 235.86 39.3648 235.86 37.7992C235.86 36.7673 235.522 35.9311 234.846 35.2906C234.17 34.6145 233.316 34.0808 232.284 33.6894C231.252 33.298 229.829 32.8532 228.014 32.355C225.488 31.6789 223.424 31.0029 221.823 30.3268C220.257 29.6151 218.905 28.5477 217.766 27.1244C216.628 25.6655 216.058 23.744 216.058 21.36C216.058 19.3673 216.592 17.5526 217.66 15.9158C218.763 14.279 220.257 12.998 222.143 12.0729C224.064 11.1121 226.235 10.6318 228.655 10.6318Z" fill="#12110D"/>
<path d="M258.153 48.901C255.199 48.901 252.815 48.0114 251 46.2323C249.221 44.4175 248.332 41.9268 248.332 38.7599V28.0851H243.315V22.4274H248.332V15.4354H254.256V22.4274H261.088V28.0851H254.256V38.493C254.256 39.9875 254.701 41.1795 255.591 42.0691C256.516 42.9231 257.654 43.3501 259.007 43.3501C259.647 43.3501 260.323 43.2433 261.035 43.0298L261.355 48.2605C260.501 48.6875 259.434 48.901 258.153 48.901Z" fill="#12110D"/>
<path d="M284.153 45.058C283.37 46.2679 282.267 47.2464 280.844 47.9936C279.421 48.7053 277.891 49.0611 276.254 49.0611C272.98 49.0611 270.383 48.0114 268.461 45.912C266.54 43.7771 265.579 40.9127 265.579 37.3188V22.4274H271.504V36.3581C271.504 38.4574 272.055 40.112 273.158 41.3219C274.297 42.5317 275.809 43.1366 277.695 43.1366C279.012 43.1366 280.239 42.8163 281.378 42.1758C282.552 41.5354 283.477 40.6636 284.153 39.5605L284.207 22.4274H290.185V48.5274H284.153V45.058Z" fill="#12110D"/>
<path d="M315.971 31.6078C315.366 30.4335 314.405 29.4728 313.089 28.7256C311.772 27.9428 310.367 27.5513 308.872 27.5513C307.378 27.5513 306.026 27.9072 304.816 28.6188C303.606 29.2949 302.645 30.2378 301.934 31.4477C301.257 32.6219 300.919 33.9562 300.919 35.4507C300.919 36.9452 301.257 38.2973 301.934 39.5071C302.645 40.7169 303.606 41.6777 304.816 42.3893C306.061 43.0654 307.413 43.4034 308.872 43.4034C310.331 43.4034 311.719 43.0298 313.035 42.2826C314.352 41.5354 315.33 40.5746 315.971 39.4004V31.6078ZM295.102 35.4507C295.102 32.9599 295.653 30.6826 296.756 28.6188C297.859 26.555 299.372 24.9182 301.293 23.7084C303.214 22.4986 305.332 21.8937 307.645 21.8937C309.424 21.8937 311.096 22.2851 312.662 23.0679C314.227 23.8507 315.33 24.8471 315.971 26.0569V11.1655H321.895V48.5274H315.971V44.8979C315.33 46.1077 314.227 47.104 312.662 47.8869C311.096 48.6697 309.424 49.0611 307.645 49.0611C305.332 49.0611 303.214 48.4562 301.293 47.2464C299.372 46.0366 297.859 44.3998 296.756 42.336C295.653 40.2722 295.102 37.9771 295.102 35.4507Z" fill="#12110D"/>
<path d="M334.103 22.4274V48.5274H328.179V22.4274H334.103ZM331.168 10.3115C332.2 10.3115 333.089 10.6851 333.837 11.4324C334.619 12.1796 335.011 13.0692 335.011 14.1011C335.011 15.1686 334.619 16.0759 333.837 16.8232C333.089 17.5704 332.2 17.944 331.168 17.944C330.136 17.944 329.246 17.5704 328.499 16.8232C327.752 16.0759 327.378 15.1686 327.378 14.1011C327.378 13.0692 327.752 12.1796 328.499 11.4324C329.246 10.6851 330.136 10.3115 331.168 10.3115Z" fill="#12110D"/>
<path d="M352.598 21.8937C355.089 21.8937 357.366 22.4986 359.43 23.7084C361.494 24.8826 363.131 26.5194 364.341 28.6188C365.551 30.6826 366.155 32.9777 366.155 35.5041C366.155 38.0305 365.551 40.3255 364.341 42.3893C363.131 44.4531 361.494 46.0899 359.43 47.2998C357.366 48.474 355.089 49.0611 352.598 49.0611C350.072 49.0611 347.777 48.474 345.713 47.2998C343.649 46.0899 342.013 44.4531 340.803 42.3893C339.629 40.3255 339.041 38.0305 339.041 35.5041C339.041 32.9777 339.629 30.6826 340.803 28.6188C342.013 26.5194 343.649 24.8826 345.713 23.7084C347.813 22.4986 350.108 21.8937 352.598 21.8937ZM344.859 35.5041C344.859 36.963 345.197 38.2973 345.873 39.5071C346.549 40.6814 347.475 41.6243 348.649 42.336C349.859 43.012 351.175 43.3501 352.598 43.3501C354.022 43.3501 355.32 43.012 356.495 42.336C357.669 41.6243 358.594 40.6814 359.27 39.5071C359.946 38.2973 360.284 36.963 360.284 35.5041C360.284 34.0452 359.946 32.7108 359.27 31.501C358.594 30.2912 357.669 29.3483 356.495 28.6722C355.32 27.9605 354.022 27.6047 352.598 27.6047C351.175 27.6047 349.859 27.9605 348.649 28.6722C347.475 29.3483 346.549 30.2912 345.873 31.501C345.197 32.7108 344.859 34.0452 344.859 35.5041Z" fill="#12110D"/>
<path d="M94.4912 77.1419C94.0792 78.3806 93.3581 79.4842 92.3279 80.4527C91.3207 81.4212 90.096 82.1757 88.6538 82.7162C87.2345 83.2568 85.7122 83.527 84.0869 83.527C81.8206 83.527 79.7603 82.9977 77.9061 81.9392C76.0747 80.8581 74.6326 79.3941 73.5795 77.5473C72.5265 75.6779 72 73.6059 72 71.3311C72 69.0788 72.5265 67.0293 73.5795 65.1824C74.6326 63.3356 76.0747 61.8829 77.9061 60.8243C79.7603 59.7432 81.8206 59.2027 84.0869 59.2027C85.6435 59.2027 87.1201 59.4505 88.5165 59.9459C89.9129 60.4414 91.1032 61.1396 92.0876 62.0405C93.0948 62.9189 93.8159 63.9324 94.2509 65.0811L90.6454 66.8041C90.1189 65.6554 89.2719 64.7432 88.1044 64.0676C86.9369 63.3919 85.5977 63.0541 84.0869 63.0541C82.5531 63.0541 81.1796 63.4144 79.9664 64.1351C78.776 64.8333 77.8374 65.8131 77.1507 67.0743C76.4868 68.3356 76.1549 69.7545 76.1549 71.3311C76.1549 72.9077 76.4868 74.3378 77.1507 75.6216C77.8374 76.8829 78.776 77.8739 79.9664 78.5946C81.1796 79.3153 82.5531 79.6757 84.0869 79.6757C85.6893 79.6757 87.0972 79.3041 88.3104 78.5608C89.5466 77.795 90.3936 76.7815 90.8514 75.5203L94.4912 77.1419Z" fill="#12110D"/>
<path d="M105.23 66.3311C106.832 66.3311 108.297 66.714 109.625 67.4797C110.952 68.223 112.006 69.259 112.784 70.5878C113.562 71.8941 113.951 73.3468 113.951 74.9459C113.951 76.545 113.562 77.9977 112.784 79.3041C112.006 80.6104 110.952 81.6464 109.625 82.4122C108.297 83.1554 106.832 83.527 105.23 83.527C103.604 83.527 102.128 83.1554 100.8 82.4122C99.4722 81.6464 98.4192 80.6104 97.6409 79.3041C96.8855 77.9977 96.5078 76.545 96.5078 74.9459C96.5078 73.3468 96.8855 71.8941 97.6409 70.5878C98.4192 69.259 99.4722 68.223 100.8 67.4797C102.151 66.714 103.627 66.3311 105.23 66.3311ZM100.251 74.9459C100.251 75.8694 100.468 76.714 100.903 77.4797C101.338 78.223 101.933 78.8198 102.689 79.2703C103.467 79.6982 104.314 79.9122 105.23 79.9122C106.145 79.9122 106.981 79.6982 107.736 79.2703C108.492 78.8198 109.087 78.223 109.522 77.4797C109.957 76.714 110.174 75.8694 110.174 74.9459C110.174 74.0225 109.957 73.1779 109.522 72.4122C109.087 71.6464 108.492 71.0495 107.736 70.6216C106.981 70.1712 106.145 69.9459 105.23 69.9459C104.314 69.9459 103.467 70.1712 102.689 70.6216C101.933 71.0495 101.338 71.6464 100.903 72.4122C100.468 73.1779 100.251 74.0225 100.251 74.9459Z" fill="#12110D"/>
<path d="M132.225 83.1892H128.379V73.7973C128.379 72.5811 128.047 71.6126 127.383 70.8919C126.719 70.1712 125.85 69.8108 124.774 69.8108C123.95 69.8108 123.194 70.0248 122.507 70.4527C121.843 70.8581 121.34 71.3874 120.996 72.0405V83.1892H117.151V66.6689H120.996V68.7973C121.5 68.1216 122.175 67.5473 123.022 67.0743C123.892 66.5788 124.911 66.3311 126.078 66.3311C128.413 66.3311 130.096 67.2207 131.126 69C131.767 68.2342 132.557 67.6036 133.495 67.1081C134.457 66.5901 135.498 66.3311 136.62 66.3311C137.971 66.3311 139.161 66.6126 140.191 67.1757C141.221 67.7387 142.023 68.527 142.595 69.5405C143.19 70.5541 143.488 71.7365 143.488 73.0878V83.1892H139.608V73.7973C139.608 72.5586 139.276 71.5901 138.612 70.8919C137.971 70.1712 137.078 69.8108 135.933 69.8108C135.201 69.8108 134.48 70.0248 133.77 70.4527C133.06 70.8806 132.511 71.4212 132.122 72.0743L132.225 72.6486V83.1892Z" fill="#12110D"/>
<path d="M162.572 83.1892H158.726V73.7973C158.726 72.5811 158.394 71.6126 157.731 70.8919C157.067 70.1712 156.197 69.8108 155.121 69.8108C154.297 69.8108 153.541 70.0248 152.855 70.4527C152.191 70.8581 151.687 71.3874 151.344 72.0405V83.1892H147.498V66.6689H151.344V68.7973C151.847 68.1216 152.523 67.5473 153.37 67.0743C154.24 66.5788 155.258 66.3311 156.426 66.3311C158.761 66.3311 160.443 67.2207 161.473 69C162.114 68.2342 162.904 67.6036 163.843 67.1081C164.804 66.5901 165.846 66.3311 166.967 66.3311C168.318 66.3311 169.508 66.6126 170.539 67.1757C171.569 67.7387 172.37 68.527 172.942 69.5405C173.537 70.5541 173.835 71.7365 173.835 73.0878V83.1892H169.955V73.7973C169.955 72.5586 169.623 71.5901 168.959 70.8919C168.318 70.1712 167.425 69.8108 166.281 69.8108C165.548 69.8108 164.827 70.0248 164.117 70.4527C163.408 70.8806 162.858 71.4212 162.469 72.0743L162.572 72.6486V83.1892Z" fill="#12110D"/>
<path d="M189.795 80.9932C189.291 81.759 188.582 82.3784 187.666 82.8514C186.75 83.3018 185.766 83.527 184.713 83.527C182.607 83.527 180.936 82.8626 179.7 81.5338C178.463 80.1824 177.845 78.3694 177.845 76.0946V66.6689H181.657V75.4865C181.657 76.8153 182.012 77.8626 182.721 78.6284C183.454 79.3941 184.427 79.777 185.64 79.777C186.487 79.777 187.277 79.5743 188.009 79.1689C188.765 78.7635 189.36 78.2117 189.795 77.5135L189.829 66.6689H193.675V83.1892H189.795V80.9932Z" fill="#12110D"/>
<path d="M201.543 68.8649C202.069 68.0766 202.779 67.4572 203.672 67.0068C204.587 66.5563 205.572 66.3311 206.625 66.3311C208.731 66.3311 210.402 67.0068 211.638 68.3581C212.874 69.6869 213.492 71.4887 213.492 73.7635V83.1892H209.681V74.3716C209.681 73.0428 209.314 71.9955 208.582 71.2297C207.872 70.464 206.911 70.0811 205.697 70.0811C204.85 70.0811 204.061 70.2838 203.328 70.6892C202.596 71.0946 202 71.6464 201.543 72.3446V83.1892H197.697V66.6689H201.543V68.8649Z" fill="#12110D"/>
<path d="M221.36 66.6689V83.1892H217.548V66.6689H221.36ZM219.471 59C220.135 59 220.707 59.2365 221.188 59.7095C221.692 60.1824 221.944 60.7455 221.944 61.3986C221.944 62.0743 221.692 62.6486 221.188 63.1216C220.707 63.5946 220.135 63.8311 219.471 63.8311C218.807 63.8311 218.235 63.5946 217.754 63.1216C217.274 62.6486 217.033 62.0743 217.033 61.3986C217.033 60.7455 217.274 60.1824 217.754 59.7095C218.235 59.2365 218.807 59 219.471 59Z" fill="#12110D"/>
<path d="M233.293 83.4257C231.393 83.4257 229.859 82.8626 228.691 81.7365C227.547 80.5878 226.975 79.0113 226.975 77.0068V70.25H223.747V66.6689H226.975V62.2432H230.786V66.6689H235.181V70.25H230.786V76.8378C230.786 77.7838 231.072 78.5383 231.644 79.1014C232.24 79.6419 232.972 79.9122 233.842 79.9122C234.254 79.9122 234.689 79.8446 235.147 79.7095L235.353 83.0203C234.804 83.2905 234.117 83.4257 233.293 83.4257Z" fill="#12110D"/>
<path d="M243.453 82.3108L236.792 66.6689H240.912L245.411 77.9189L249.909 66.6689H254.029L244.552 89H240.432L243.453 82.3108Z" fill="#12110D"/>
<path d="M278.378 59.5405V63.3243H268.214V68.8986H277.279V72.6824H268.214V79.4054H278.378V83.1892H264.197V59.5405H278.378Z" fill="#12110D"/>
<path d="M293.862 72.4797C293.473 71.7365 292.855 71.1284 292.008 70.6554C291.161 70.1599 290.257 69.9122 289.295 69.9122C288.334 69.9122 287.464 70.1374 286.685 70.5878C285.907 71.0158 285.289 71.6126 284.831 72.3784C284.396 73.1216 284.179 73.9662 284.179 74.9122C284.179 75.8581 284.396 76.714 284.831 77.4797C285.289 78.2455 285.907 78.8536 286.685 79.3041C287.487 79.732 288.357 79.9459 289.295 79.9459C290.234 79.9459 291.126 79.7095 291.973 79.2365C292.82 78.7635 293.45 78.1554 293.862 77.4122V72.4797ZM280.436 74.9122C280.436 73.3356 280.791 71.8941 281.5 70.5878C282.21 69.2815 283.183 68.2455 284.419 67.4797C285.655 66.714 287.017 66.3311 288.505 66.3311C289.65 66.3311 290.726 66.5788 291.733 67.0743C292.74 67.5698 293.45 68.2004 293.862 68.9662V59.5405H297.674V83.1892H293.862V80.8919C293.45 81.6577 292.74 82.2883 291.733 82.7838C290.726 83.2793 289.65 83.527 288.505 83.527C287.017 83.527 285.655 83.1441 284.419 82.3784C283.183 81.6126 282.21 80.5766 281.5 79.2703C280.791 77.964 280.436 76.5113 280.436 74.9122Z" fill="#12110D"/>
<path d="M305.527 66.6689V83.1892H301.716V66.6689H305.527ZM303.639 59C304.303 59 304.875 59.2365 305.356 59.7095C305.859 60.1824 306.111 60.7455 306.111 61.3986C306.111 62.0743 305.859 62.6486 305.356 63.1216C304.875 63.5946 304.303 63.8311 303.639 63.8311C302.975 63.8311 302.403 63.5946 301.922 63.1216C301.441 62.6486 301.201 62.0743 301.201 61.3986C301.201 60.7455 301.441 60.1824 301.922 59.7095C302.403 59.2365 302.975 59 303.639 59Z" fill="#12110D"/>
<path d="M317.46 83.4257C315.56 83.4257 314.027 82.8626 312.859 81.7365C311.715 80.5878 311.142 79.0113 311.142 77.0068V70.25H307.914V66.6689H311.142V62.2432H314.954V66.6689H319.349V70.25H314.954V76.8378C314.954 77.7838 315.24 78.5383 315.812 79.1014C316.407 79.6419 317.14 79.9122 318.01 79.9122C318.422 79.9122 318.857 79.8446 319.315 79.7095L319.521 83.0203C318.971 83.2905 318.284 83.4257 317.46 83.4257Z" fill="#12110D"/>
<path d="M326.385 66.6689V83.1892H322.573V66.6689H326.385ZM324.496 59C325.16 59 325.733 59.2365 326.213 59.7095C326.717 60.1824 326.969 60.7455 326.969 61.3986C326.969 62.0743 326.717 62.6486 326.213 63.1216C325.733 63.5946 325.16 63.8311 324.496 63.8311C323.833 63.8311 323.26 63.5946 322.78 63.1216C322.299 62.6486 322.058 62.0743 322.058 61.3986C322.058 60.7455 322.299 60.1824 322.78 59.7095C323.26 59.2365 323.833 59 324.496 59Z" fill="#12110D"/>
<path d="M338.284 66.3311C339.886 66.3311 341.351 66.714 342.679 67.4797C344.006 68.223 345.059 69.259 345.838 70.5878C346.616 71.8941 347.005 73.3468 347.005 74.9459C347.005 76.545 346.616 77.9977 345.838 79.3041C345.059 80.6104 344.006 81.6464 342.679 82.4122C341.351 83.1554 339.886 83.527 338.284 83.527C336.658 83.527 335.182 83.1554 333.854 82.4122C332.526 81.6464 331.473 80.6104 330.695 79.3041C329.939 77.9977 329.562 76.545 329.562 74.9459C329.562 73.3468 329.939 71.8941 330.695 70.5878C331.473 69.259 332.526 68.223 333.854 67.4797C335.205 66.714 336.681 66.3311 338.284 66.3311ZM333.305 74.9459C333.305 75.8694 333.522 76.714 333.957 77.4797C334.392 78.223 334.987 78.8198 335.743 79.2703C336.521 79.6982 337.368 79.9122 338.284 79.9122C339.199 79.9122 340.035 79.6982 340.79 79.2703C341.546 78.8198 342.141 78.223 342.576 77.4797C343.011 76.714 343.228 75.8694 343.228 74.9459C343.228 74.0225 343.011 73.1779 342.576 72.4122C342.141 71.6464 341.546 71.0495 340.79 70.6216C340.035 70.1712 339.199 69.9459 338.284 69.9459C337.368 69.9459 336.521 70.1712 335.743 70.6216C334.987 71.0495 334.392 71.6464 333.957 72.4122C333.522 73.1779 333.305 74.0225 333.305 74.9459Z" fill="#12110D"/>
<path d="M354.05 68.8649C354.577 68.0766 355.287 67.4572 356.179 67.0068C357.095 66.5563 358.079 66.3311 359.132 66.3311C361.238 66.3311 362.91 67.0068 364.146 68.3581C365.382 69.6869 366 71.4887 366 73.7635V83.1892H362.188V74.3716C362.188 73.0428 361.822 71.9955 361.09 71.2297C360.38 70.464 359.419 70.0811 358.205 70.0811C357.358 70.0811 356.569 70.2838 355.836 70.6892C355.103 71.0946 354.508 71.6464 354.05 72.3446V83.1892H350.205V66.6689H354.05V68.8649Z" fill="#12110D"/>
<defs>
<clipPath id="clip0_113_3173">
<rect width="56.9013" height="56.7378" fill="white" transform="translate(0 1.13086)"/>
</clipPath>
</defs>
</svg>
