<svg width="234" height="111" viewBox="0 0 234 111" fill="none" xmlns="http://www.w3.org/2000/svg">
<path d="M3.20072 28.993C14.7856 20.1361 31.7852 17.4529 46.1936 18.1557C60.6021 18.8584 75.1383 27.21 88.5068 18.6435C98.1395 12.4756 110.288 -4.69218 123.581 1.22015C127.177 2.81729 127.921 4.51898 132.209 3.84527C135.212 3.37484 137.716 2.10294 141.098 2.77084C144.31 3.35162 146.472 5.18107 150.004 4.62933C153.449 4.0892 155.971 2.48625 159.689 2.68372C166.161 3.03218 171.838 5.25657 178.281 5.77927C185.38 6.36005 188.622 10.6404 191.062 16.9883C193.049 22.1688 190.801 31.984 197.651 33.6799C203.891 35.2248 211.652 29.3124 216.922 34.9169C220.989 39.2728 216.788 47.6476 222.151 50.9871C224.864 52.683 227.316 52.3113 229.704 55.0525C231.734 57.273 232.992 60.0908 233.288 63.0847C233.951 69.2526 228.641 73.5387 226.787 78.9574C224.318 86.2694 220.809 88.8713 213.837 91.6474C207.411 94.2086 204.762 99.9235 199.208 103.733C192.759 108.159 182.464 110.703 174.806 110.325C171.605 110.168 168.357 108.827 165.145 108.38C160.357 107.712 155.401 108.182 150.504 107.991C137.652 107.497 124.412 105.255 111.764 103.054C102.113 101.375 90.5577 98.7271 83.0165 92.5244C76.463 87.1348 72.3264 79.5033 66.3887 73.5329C58.7371 65.8318 48.5292 60.7093 38.0773 58.4327C32.8194 57.2711 27.6195 55.674 22.2919 54.948C17.1327 54.2453 12.8857 53.7864 8.27272 51.0742C4.40917 48.8208 1.20794 46.1957 0.138923 41.7817C-0.784844 38.2332 3.20072 28.993 3.20072 28.993Z" fill="#F5F5F5"/>
<path d="M82.4529 71.8023C83.6614 71.2622 84.6142 72.1856 85.7006 72.3424C86.4792 72.4528 86.4094 73.1323 85.9563 73.504C85.1022 74.1544 85.5438 74.3054 86.026 74.6655C87.9374 76.1814 90.0638 77.3139 91.8358 79.1143C92.074 79.3582 92.4168 79.8345 92.7073 79.3989C93.5904 78.0863 94.3747 78.8762 95.1416 79.3118C96.0886 79.8461 96.9427 80.6592 98.1395 80.1597C98.191 80.1335 98.2477 80.1191 98.3055 80.1175C98.3632 80.116 98.4206 80.1272 98.4735 80.1506C98.5263 80.174 98.5733 80.2088 98.611 80.2525C98.6487 80.2963 98.6762 80.3479 98.6915 80.4036C98.6972 80.6581 98.6329 80.9092 98.5055 81.1296C97.9943 82.204 97.1286 81.7859 96.3617 81.9601C97.5811 82.6068 98.7085 83.4134 99.714 84.3587C100.068 84.6491 100.539 85.1021 100.824 84.109C101.155 82.9474 101.591 82.9474 102.206 83.7837C102.865 84.6911 103.714 85.4442 104.693 85.9907C105.024 86.1708 105.408 86.5366 105.042 86.8909C104.217 87.6924 104.902 87.9944 105.262 88.1802C106.18 88.6681 107.005 89.3418 107.947 89.8064C110.851 91.2874 113.803 92.1702 117.062 91.5488C117.142 91.5234 117.226 91.5169 117.308 91.5299C117.39 91.5429 117.469 91.5749 117.536 91.6234C117.604 91.6719 117.66 91.7356 117.698 91.8094C117.737 91.8831 117.758 91.9649 117.759 92.0482C117.62 93.93 119.026 93.3666 119.752 93.8428C120.141 94.0984 120.682 94.0287 121.135 94.1913C124.086 95.2483 127.026 96.346 130.239 96.4041C130.018 95.922 129.519 95.5097 130.007 94.9057C130.084 94.8057 130.183 94.7236 130.295 94.6648C130.407 94.606 130.531 94.5718 130.658 94.5647C130.784 94.5575 130.911 94.5775 131.029 94.6233C131.147 94.6691 131.254 94.7396 131.343 94.8301C131.897 95.1912 132.554 95.3605 133.214 95.3122C133.719 95.3122 134.283 95.3122 134.335 95.9453C134.399 96.7467 133.702 96.6945 133.173 96.828C135.192 97.7932 137.451 98.1446 139.668 97.8386C139.047 97.5424 138.541 97.3101 138.047 97.0487C137.893 96.966 137.773 96.8315 137.708 96.669C137.643 96.5065 137.638 96.3263 137.693 96.1601C137.827 95.5794 138.187 95.8117 138.448 95.864C139.657 96.0846 140.772 96.8803 142.085 96.4854C142.306 96.4215 142.753 96.7525 142.771 97.2172C142.771 97.9141 142.242 97.8909 141.917 97.9664C141.591 98.0419 141.057 97.8328 140.755 98.3961C142.207 99.0408 143.764 98.6749 145.263 98.8143C146.762 98.9537 148.261 98.6227 149.766 98.4949C149.109 98.1871 148.232 97.9838 148.511 96.9268C148.749 96.0208 149.504 96.6712 149.987 96.7467C151.405 96.9269 152.806 97.2222 154.176 97.6295C155.814 98.1638 157.598 97.5889 159.317 97.5831C161.728 97.5831 164.122 97.0894 166.527 96.9326C168.462 96.8048 170.42 95.9336 172.337 95.1902C173.813 94.6095 175.475 94.0287 176.573 92.8671C177.671 91.7056 181.732 89.6728 182.336 89.4115C183.471 88.9597 184.668 88.6836 185.886 88.5926C188.265 88.323 190.471 87.2202 192.114 85.4796C194.049 83.4817 196.355 82.4421 198.505 81.0657C200.583 79.8126 202.554 78.3886 204.396 76.8086C204.934 76.2952 205.573 75.8996 206.273 75.647C207.122 75.3685 207.885 74.8742 208.486 74.2125C208.265 73.5911 207.394 73.2484 207.952 72.3366C208.149 72.0172 208.533 71.6455 208.875 71.8894C209.578 72.354 209.061 73.1032 208.875 73.9279C209.857 73.3471 210.688 72.9174 211.49 72.4005C214.459 70.4723 217.381 68.4163 220.396 66.5927C221.82 65.7506 222.302 64.1708 223.272 62.9454C221.982 62.9454 221.146 61.8826 219.932 61.8129C217.526 61.6735 215.167 63.0151 212.762 62.5214C212.489 62.4692 207.179 63.5204 205.453 63.41C203.251 63.2648 201.137 64.316 198.801 63.9908C195.158 63.4507 191.347 63.9908 187.6 64.1418C187.071 64.1418 186.473 64.3974 186.223 63.7353C186.157 63.4425 186.186 63.1366 186.305 62.8613C186.424 62.5859 186.627 62.3552 186.885 62.202C188.738 61.174 190.098 59.2981 191.858 58.0959C194.572 56.2432 197.203 54.2047 199.835 52.1603C201.102 51.173 202.252 49.9708 203.501 48.9428C205.825 47.0379 208.149 45.1852 210.444 43.3093L210.328 42.984L208.701 43.4312C204.634 44.5928 200.846 46.7707 196.849 48.2052C192.724 49.692 188.576 50.3541 184.387 50.8652C184.234 50.8726 184.082 50.8486 183.939 50.7946C183.796 50.7407 183.666 50.6579 183.556 50.5516C180.535 48.1472 177.13 46.4861 174.202 43.89C171.791 41.7528 168.933 40.4867 166.324 38.7269C165.354 38.0765 164.651 37.0833 163.797 36.2993C162.536 35.1377 160.747 34.8473 159.892 33.0295C159.871 32.9755 159.838 32.9265 159.796 32.8857C159.754 32.845 159.705 32.8132 159.65 32.7925C159.596 32.7718 159.537 32.7626 159.479 32.7654C159.421 32.7682 159.364 32.783 159.311 32.8088C159.021 32.954 159.311 34.586 159.311 35.1319C159.486 39.4587 163.227 49.4655 163.529 50.8129C163.675 51.4344 163.675 51.9745 163.123 52.2939C162.728 52.532 162.46 52.2591 162.286 51.8583C161.243 49.7417 160.405 47.5306 159.782 45.2549C159.346 43.1209 158.763 41.0193 158.039 38.965C157.387 37.4942 157.088 35.891 157.168 34.284C157.214 33.6625 156.052 32.1467 156.058 31.9609C156.058 30.0966 155.349 30.9387 154.722 31.5137C154.274 31.9202 153.769 32.4313 153.31 31.9609C152.851 31.4904 153.391 30.9387 153.577 30.4276C153.661 30.1214 153.72 29.8086 153.751 29.4925C153.848 29.1771 153.864 28.8427 153.799 28.5193C153.734 28.196 153.59 27.8938 153.38 27.6399C152.897 27.1869 152.421 27.605 151.95 27.9883C151.48 28.3716 150.945 28.662 150.475 28.3019C150.004 27.9419 150.417 27.3437 150.475 26.8558C150.54 26.3961 150.526 25.9287 150.434 25.4736C150.324 24.9741 150.144 24.7534 149.725 25.0147C149.022 25.4561 148.354 25.822 148.035 26.8965C147.547 28.5285 146.948 30.1198 146.414 31.7344C144.671 36.9904 142.626 42.1303 141.847 47.7232C141.801 48.0426 141.847 48.5537 141.376 48.5072C140.906 48.4608 140.749 48.153 140.795 47.6535C140.935 46.6662 140.795 45.6963 140.952 44.6857C141.243 42.8969 142.114 41.3695 142.567 39.6736C143.212 37.3505 143.788 35.0274 144.525 32.7798C145.263 30.5321 145.321 30.5844 143.538 29.4403C143.124 29.2095 142.671 29.0578 142.201 28.9931C139.61 28.4123 136.938 28.6156 134.317 28.3426C132.55 28.2566 130.779 28.2683 129.013 28.3775C126.538 28.3775 124.04 28.9234 121.576 29.1208C118.672 29.359 115.767 29.8468 112.862 30.1604C111.887 30.3082 110.967 30.7087 110.195 31.322C109.446 31.8679 110.026 32.7739 109.904 33.5115C109.178 37.7454 109.806 41.8341 110.201 45.9576C110.474 48.8615 110.782 51.7654 109.986 54.71C109.771 55.4766 109.591 56.2897 108.731 56.2723C108.464 56.2723 107.964 56.22 108.365 55.6915C109.579 54.0188 109.126 52.0442 109.172 50.2844C109.294 46.1144 108.225 42.1187 108.26 37.9196C108.312 36.3457 108.232 34.7702 108.022 33.2095C107.784 31.7169 108.342 29.9746 108.603 28.3542C109.062 25.3226 109.079 25.3226 106.529 26.1647C106.412 26.2285 106.276 26.2501 106.145 26.2257C106.014 26.2014 105.895 26.1327 105.809 26.0311C105.696 25.8907 105.629 25.7192 105.616 25.5396C105.604 25.3601 105.647 25.181 105.739 25.0264C105.945 24.6798 106.125 24.3188 106.279 23.9461C106.587 22.9472 107.087 21.6927 106.645 20.9261C106.204 20.1594 105.286 21.17 104.583 21.3849C104.495 21.3983 104.409 21.4217 104.327 21.4546C103.566 21.8785 103.38 21.4546 103.461 20.6299C103.507 19.5592 103.825 18.5178 104.385 17.604C103.866 17.7918 103.366 18.0291 102.892 18.3126C101.852 18.8933 101.283 20.0549 100.475 20.9493C97.9345 23.6875 95.604 26.6133 93.5033 29.7016C90.7784 33.7671 87.8038 37.5421 85.4218 41.898C85.1487 42.3916 84.8059 42.7517 84.3527 42.4033C83.8996 42.0548 84.1901 41.4856 84.3527 41.1255C84.7652 40.1556 85.2881 39.2554 85.6948 38.4714C84.3702 36.7291 82.6388 36.9614 80.8901 37.4318C79.9721 37.6757 78.9902 37.85 78.4034 38.965C78.2059 39.3367 77.9851 39.7201 78.5371 39.9291C78.8508 40.0453 79.4144 39.7665 79.3505 40.5738C79.3275 40.9032 79.2036 41.2176 78.9958 41.4742C78.7879 41.7309 78.506 41.9173 78.1885 42.0083C76.9161 42.4555 76.2538 43.6287 75.3881 44.7438C75.8167 44.991 76.3172 45.0833 76.8057 45.0052C77.1834 44.9529 77.5378 45.2665 77.6482 45.7485C77.6915 45.9481 77.6671 46.1564 77.5787 46.3405C77.4903 46.5246 77.343 46.6739 77.1601 46.7649C76.6254 47.2267 76.1317 47.7339 75.6844 48.2807C74.8943 49.0938 74.8013 49.7966 75.4346 50.6735C76.0679 51.5505 75.667 52.1371 74.9292 52.6308C74.5557 52.855 74.2235 53.1419 73.9473 53.4787C73.5755 53.9898 72.9422 54.3963 73.802 55.221C74.6619 56.0458 74.2203 57.0737 73.2211 57.4803C71.298 58.2527 71.2515 58.5547 72.2682 60.5061C72.6401 61.2205 73.6161 61.5109 73.4302 62.5331C73.2152 63.863 73.8834 64.4264 74.5457 65.0536C75.206 65.6 75.8363 66.1816 76.4339 66.796C78.0955 68.7358 80.1755 69.9902 81.9823 71.6861C82.0458 71.7416 82.1217 71.7811 82.2035 71.8013C82.2854 71.8215 82.3709 71.8218 82.4529 71.8023ZM208.318 67.4174C208.343 67.156 208.465 66.9134 208.659 66.7365C208.854 66.5595 209.106 66.4607 209.369 66.4591C209.782 66.4591 209.857 66.9354 209.788 67.3884C209.695 68.0446 209.404 68.2944 208.858 68.2653C208.312 68.2363 208.248 67.731 208.318 67.4174ZM211.856 69.3979C211.989 68.7706 212.239 68.4628 212.71 68.5557C213.18 68.6486 213.291 69.3107 213.291 69.7173C213.291 69.9961 212.838 70.4665 212.495 70.3445C212.152 70.2226 211.67 70.0077 211.85 69.3979H211.856ZM96.5244 78.458C95.661 77.2154 94.4927 76.2154 93.1314 75.5541C92.9381 75.4522 92.7885 75.2834 92.7104 75.0793C92.6324 74.8752 92.6313 74.6497 92.7073 74.4448C92.8816 74.0441 93.2534 74.2125 93.5323 74.2706C95.2753 74.561 96.3036 76.1813 97.5992 77.3022C97.6725 77.3737 97.7307 77.459 97.7704 77.5533C97.8102 77.6476 97.8307 77.7488 97.8307 77.8511C97.8307 77.9534 97.8102 78.0546 97.7704 78.1489C97.7307 78.2431 97.6725 78.3285 97.5992 78.3999C97.5426 78.4886 97.4657 78.5624 97.3748 78.6155C97.2839 78.6685 97.1818 78.6991 97.0767 78.7048C96.9717 78.7104 96.8668 78.691 96.7707 78.6481C96.6747 78.6052 96.5902 78.54 96.5244 78.458ZM89.814 68.0853C90.668 68.5499 91.557 68.9913 92.3878 69.5024C92.5972 69.6625 92.7348 69.8988 92.7708 70.1599C92.8067 70.4209 92.7379 70.6856 92.5795 70.8963C92.2774 71.3957 91.7835 71.6629 91.3827 71.0298C90.883 70.24 90.0522 70.0367 89.4247 69.4734C89.082 69.1713 88.3906 69.212 88.5649 68.4802C88.7392 67.7484 89.3608 68.2305 89.814 68.0853ZM153.141 76.8667H153.269C153.966 76.9712 155.088 77.128 154.954 77.8947C154.757 79.0039 153.833 78.0282 153.211 78.1328C152.88 78.1908 152.543 78.1328 152.2 78.2257C151.857 78.3186 151.184 78.487 151.16 77.7959C151.151 77.6519 151.172 77.5075 151.223 77.3724C151.274 77.2374 151.354 77.1148 151.456 77.013C151.558 76.9112 151.682 76.8325 151.817 76.7822C151.952 76.7319 152.097 76.7112 152.241 76.7215C152.543 76.7385 152.842 76.7832 153.136 76.8551L153.141 76.8667ZM130.442 78.76C130.192 78.6555 129.774 78.8123 129.861 78.2141C129.861 78.063 129.91 77.9159 130 77.7946C130.09 77.6732 130.216 77.5841 130.361 77.5404C131.842 77.2964 133.324 77.0874 134.736 76.8783C134.91 76.8601 135.085 76.9106 135.223 77.0191C135.36 77.1275 135.45 77.2853 135.474 77.4591C135.525 77.6319 135.515 77.8174 135.445 77.9837C135.376 78.15 135.25 78.2869 135.09 78.3709C134.37 78.638 133.737 79.3582 132.865 78.8645C132.139 78.4638 131.238 79.1027 130.454 78.76H130.442ZM158.911 84.8872C158.62 84.7188 158.33 84.5562 158.405 84.1322C158.481 83.7082 158.754 83.7141 158.986 83.5514C159.707 83.1391 160.357 83.5805 161.095 83.5514C161.49 83.9696 162.588 83.2785 162.484 84.2658C162.362 85.3693 161.38 85.288 160.654 85.1195C160.073 84.9976 159.445 85.2066 158.899 84.8872H158.911ZM145.548 84.0567C145.194 83.9638 144.804 83.8883 144.769 83.4295C144.735 82.9707 145.141 82.8487 145.49 82.6919C146.138 82.3787 146.869 82.283 147.576 82.4189C148.505 82.6048 149.673 82.5699 149.493 83.6502C149.289 84.8814 148.238 84.109 147.61 84.0044C146.983 83.8999 146.193 84.2368 145.501 84.0567H145.548ZM129.6 82.7325C129.356 84.0451 128.246 83.1449 127.561 83.0926C126.875 83.0403 125.719 82.8196 125.98 81.7162C126.201 80.7869 127.171 81.7162 127.822 81.5013C128.38 81.9949 129.856 81.1644 129.565 82.7325H129.6ZM161.688 91.9669C161.339 92.0482 160.764 91.6185 160.793 90.9273C160.822 90.2362 161.374 90.1781 161.769 90.1897C162.879 90.2304 163.954 90.6137 165.104 90.3872C165.545 90.3059 165.795 90.7124 165.72 91.421C165.295 91.8433 164.727 92.09 164.128 92.1121C163.274 92.1702 162.513 91.7636 161.647 91.9669H161.688ZM131.302 88.581C130.721 88.3777 130.065 88.1686 129.431 87.9189C129.255 87.8494 129.106 87.7247 129.007 87.5635C128.907 87.4023 128.862 87.2132 128.879 87.0245C128.939 86.8442 129.052 86.6863 129.203 86.572C129.355 86.4578 129.538 86.3928 129.728 86.3856C130.458 86.4322 131.166 86.6619 131.784 87.0535C132.214 87.2684 132.946 87.4601 132.731 88.2151C132.516 88.9701 131.808 88.5694 131.262 88.581H131.302ZM143.212 88.337C143.21 88.2153 143.232 88.0943 143.277 87.981C143.321 87.8677 143.388 87.7644 143.473 87.6769C143.557 87.5895 143.659 87.5196 143.771 87.4715C143.882 87.4233 144.003 87.3977 144.125 87.3962C145.287 87.2858 146.448 87.251 147.61 87.1871C148.191 87.3614 148.976 87.3962 148.656 88.4939C148.36 89.4986 147.773 89.0746 147.198 88.8481C146.243 88.5192 145.208 88.4989 144.241 88.7901C143.677 88.9294 143.224 88.9352 143.178 88.337H143.212ZM125.475 83.1623C125.789 83.0345 126.056 83.4179 126.056 83.8186C126.056 84.3064 125.829 84.6898 125.44 84.6956C124.093 84.7149 122.758 84.4373 121.53 83.8825C120.868 83.5921 121.385 83.081 121.635 82.9416C122.038 82.7867 122.464 82.6965 122.895 82.6745C123.674 83.0636 124.464 83.5572 125.434 83.1623H125.475ZM153.362 89.1037C153.06 89.1501 152.851 88.7029 152.95 88.2964C153.101 87.6691 153.531 87.2394 154.025 87.3497C155.297 87.6227 156.592 87.4136 158.062 87.5124C158.103 87.5472 158.399 87.6575 158.481 87.8957C158.603 88.2499 158.266 88.4764 158.051 88.5752C156.488 89.2663 154.908 88.8714 153.345 89.1095L153.362 89.1037ZM139.111 84.9453C138.059 85.2183 137.1 84.8814 136.13 84.5213C135.586 84.3699 135.027 84.2745 134.463 84.2367C134.091 84.1787 133.748 83.987 133.841 83.4817C133.934 82.9765 134.317 82.9474 134.689 82.9823C136.188 83.1217 137.629 83.7489 139.053 83.3656C139.581 83.4237 140.04 83.505 139.982 84.1032C139.943 84.317 139.838 84.5132 139.682 84.6643C139.525 84.8153 139.326 84.9136 139.111 84.9453ZM118.451 80.061C118.718 80.2875 119.392 80.1016 119.189 80.7521C118.985 81.4025 118.265 81.722 117.87 81.5129C116.868 80.9805 115.744 80.7202 114.61 80.7579C114.163 80.7579 113.867 80.4559 113.948 79.8751C113.948 79.7675 113.972 79.6614 114.02 79.5649C114.068 79.4685 114.137 79.3843 114.222 79.3191C114.308 79.2538 114.407 79.2092 114.513 79.1888C114.619 79.1684 114.728 79.1727 114.831 79.2014L116.475 79.4627C117.074 79.6079 117.829 79.5208 118.451 80.061ZM152.973 84.5504C152.543 84.3471 151.811 84.2193 151.445 83.3423C151.352 83.1042 151.52 83.0345 151.602 82.9881C151.93 82.7745 152.324 82.6847 152.712 82.7347C153.101 82.7848 153.459 82.9713 153.722 83.261C153.995 83.5282 154.524 83.6966 154.303 84.2948C154.083 84.893 153.635 84.7072 152.973 84.5446V84.5504ZM143.096 79.1433C142.823 79.0969 142.428 79.1433 142.515 78.5625C142.591 78.1386 142.829 77.9063 143.172 77.9005C143.991 77.9005 144.804 77.9005 145.409 77.9005C145.699 77.9078 145.987 77.9587 146.263 78.0515C146.791 78.3651 147.727 78.5335 147.552 79.3408C147.378 80.1481 146.565 79.6602 146.042 79.5963C145.072 79.4918 144.084 79.3117 143.096 79.1375V79.1433ZM157.998 80.0552C157.998 79.4163 158.579 79.5324 158.893 79.4105C159.747 79.1027 160.578 78.6787 161.502 78.7252C161.646 78.7143 161.79 78.7453 161.917 78.8143C162.043 78.8834 162.147 78.9875 162.216 79.1143C162.397 79.5615 161.949 79.6951 161.728 79.8983C160.808 80.3116 159.827 80.5725 158.823 80.6708C158.504 80.6534 158.016 80.572 157.998 80.0493V80.0552ZM94.4212 68.2189C94.8453 68.3989 94.7291 68.7242 94.6827 69.0842C94.6778 69.168 94.6549 69.2497 94.6155 69.3238C94.5761 69.3978 94.5211 69.4625 94.4543 69.5133C94.3875 69.564 94.3104 69.5997 94.2285 69.6179C94.1466 69.6361 94.0617 69.6363 93.9797 69.6185C93.1599 69.2688 92.3641 68.8652 91.5976 68.4105C91.2955 68.2363 90.9585 67.8298 91.1212 67.4581C91.342 66.9237 91.8184 67.2083 92.4807 67.2548C92.9629 67.4987 93.6776 67.9053 94.4212 68.2189ZM96.9485 71.2273C97.8781 70.722 98.9703 71.146 100.167 72.5515C99.255 73.3123 97.1983 73.1323 96.5767 72.2553C96.1816 71.7036 96.5418 71.448 96.9485 71.2273ZM117.428 75.3915C118.369 75.1534 119.299 74.7759 120.165 75.2695C121.234 75.1069 122.035 75.8213 122.971 75.9723C123.215 76.0129 123.552 76.0129 123.476 76.4659C123.436 76.8202 123.43 77.1396 123.012 77.3081C122.837 77.4094 122.64 77.4681 122.438 77.4792C122.236 77.4903 122.035 77.4535 121.85 77.3719C120.541 76.661 119.005 76.492 117.573 76.9015C117.027 77.0235 116.685 76.9015 116.644 76.2685C116.603 75.6354 116.963 75.5077 117.422 75.3915H117.428ZM109.399 76.3846C109.608 76.5066 109.916 76.6692 109.724 77.0351C109.533 77.401 109.219 77.7495 108.975 77.5462C108.394 77.0758 107.708 77.279 107.156 76.9364C106.866 76.7563 106.302 76.5647 106.459 76.0594C106.527 75.8184 106.687 75.6135 106.904 75.4887C107.121 75.3639 107.379 75.329 107.621 75.3915C108.202 75.7225 108.806 76.0361 109.399 76.3904V76.3846ZM104.832 81.1702C103.74 80.7521 102.991 79.7473 102.206 78.8471C102.065 78.707 101.984 78.5162 101.983 78.3169C101.982 78.1176 102.06 77.926 102.201 77.7843C102.341 77.6426 102.532 77.5624 102.731 77.5613C102.93 77.5602 103.122 77.6383 103.264 77.7785C104.048 78.4929 104.693 79.3989 105.657 79.8286C105.96 79.9622 105.96 80.4501 105.774 80.7927C105.698 80.967 105.557 81.1044 105.381 81.1751C105.205 81.2458 105.007 81.244 104.832 81.1702ZM109.992 81.9949C109.713 81.7684 109.132 81.6871 109.318 81.0947C109.504 80.5023 109.963 80.723 110.352 80.7288C111.671 80.7637 112.769 81.7162 114.204 81.6232C113.942 82.4131 113.588 82.7848 113.228 82.75C112.13 82.5815 110.944 82.779 109.986 82.0007L109.992 81.9949ZM107.668 84.1729C106.281 83.6269 104.904 83.0462 103.537 82.4305C103.427 82.369 103.344 82.2693 103.303 82.1503C103.263 82.0314 103.267 81.9016 103.316 81.7859C103.636 81.0889 104.141 81.3793 104.681 81.4258C105.756 81.8323 106.924 82.2389 108.057 82.7325C108.301 82.8371 108.737 83.052 108.522 83.6327C108.371 84.1322 108.045 84.3239 107.685 84.1671L107.668 84.1729ZM110.218 85.2008C109.846 85.2008 110.178 84.8001 110.16 84.6201C110.102 84.1032 110.439 84.0393 110.741 84.0393C111.322 84.1148 111.938 84.2251 112.664 84.3355C113.245 84.5736 114.105 84.3006 114.756 84.8872C114.953 85.0673 115.209 85.1718 115.098 85.59C114.988 86.0081 114.802 85.8862 114.593 85.9442C113.048 86.4031 111.729 85.288 110.236 85.2067L110.218 85.2008ZM124.034 87.7214C122.774 87.2704 121.469 86.9588 120.141 86.7922C119.874 86.7631 119.456 86.8328 119.56 86.2114C119.648 85.7235 119.921 85.4738 120.327 85.5319C121.019 85.6248 121.704 85.741 122.39 85.8513L124.319 86.1533C124.853 86.2404 125.039 86.6005 124.94 87.2452C124.842 88.0641 124.371 87.8376 124.051 87.7272L124.034 87.7214ZM135.822 89.307C135.861 89.1484 135.959 89.0106 136.096 88.9221C136.234 88.8335 136.4 88.8008 136.56 88.8307C137.616 88.8919 138.665 89.0514 139.692 89.307C140.066 89.432 140.459 89.491 140.854 89.4812C141.167 89.4812 141.702 89.2721 141.719 90.0329C141.737 90.7937 141.266 90.9099 140.854 90.9738C140.423 90.991 139.992 90.9559 139.57 90.8693C138.448 90.7647 137.484 89.9981 136.339 89.9981C136.258 89.9939 136.179 89.9716 136.107 89.9329C136.036 89.8942 135.974 89.8401 135.926 89.7744C135.878 89.7088 135.846 89.6332 135.831 89.5534C135.816 89.4735 135.819 89.3913 135.84 89.3128L135.822 89.307ZM134.347 91.0202C134.547 91.0943 134.72 91.2294 134.839 91.4065C134.959 91.5836 135.021 91.7938 135.015 92.0076C135.015 92.0912 134.998 92.174 134.964 92.2503C134.93 92.3267 134.88 92.3948 134.817 92.4499C134.754 92.5051 134.68 92.546 134.6 92.5699C134.52 92.5938 134.435 92.6001 134.352 92.5884C133.771 92.5187 133.103 92.9194 132.528 92.3502C132.261 92.0889 131.877 91.9611 132.034 91.4675C132.092 91.3154 132.204 91.1901 132.349 91.1161C132.494 91.042 132.661 91.0244 132.819 91.0667C133.336 91.1364 133.835 91.3861 134.364 91.0261L134.347 91.0202ZM129.809 90.9273C129.972 90.9854 130.134 91.0435 130.111 91.3223C130.111 91.4443 130.075 91.5637 130.009 91.6665C129.944 91.7693 129.85 91.8514 129.739 91.903C129.211 92.2109 128.717 92.0192 128.089 91.9495C127.427 92.0889 126.846 91.4616 126.143 91.2758C125.696 91.1538 125.62 90.5324 125.684 90.1142C125.765 89.6031 126.224 89.6554 126.544 89.7658C127.665 90.1375 128.746 90.5556 129.815 90.9331L129.809 90.9273ZM136.078 92.7045C136.903 91.7811 137.821 92.1992 138.681 92.3154C139.453 92.4199 140.226 92.5535 141.005 92.6871C141.249 92.7277 141.586 92.7219 141.493 93.1866C141.444 93.4307 141.317 93.6526 141.132 93.8196C140.203 94.4875 136.903 93.7441 136.095 92.7103L136.078 92.7045ZM148.197 93.5002C147.714 93.3941 147.211 93.4061 146.733 93.535C146.35 93.6396 145.966 93.2737 145.862 92.8323C145.831 92.7368 145.826 92.635 145.846 92.5368C145.866 92.4386 145.912 92.3473 145.978 92.2719C146.044 92.1965 146.128 92.1394 146.223 92.1063C146.318 92.0732 146.419 92.0652 146.518 92.0831C147.767 92.2631 149.109 91.7985 150.271 92.5477C150.573 92.7393 151.16 92.8497 150.951 93.4072C150.865 93.6534 150.689 93.8581 150.459 93.9808C150.228 94.1034 149.96 94.135 149.708 94.0693C149.173 93.959 148.778 93.3666 148.215 93.506L148.197 93.5002ZM115.912 88.128C115.523 87.9247 115.604 87.5472 115.685 87.222C115.836 86.5657 116.266 86.7864 116.539 86.9083C117.512 87.3661 118.46 87.8739 119.38 88.43C119.635 88.5919 119.919 88.7006 120.217 88.7494C120.711 88.8249 121.263 88.9236 121.071 89.7251C120.903 90.4221 120.304 90.2304 119.95 90.3582C118.445 89.8587 117.26 88.8133 115.929 88.128H115.912ZM113.071 91.1364C111.909 90.5556 110.485 89.911 109.416 88.5287C109.326 88.4423 109.265 88.3288 109.244 88.2053C109.224 88.0818 109.243 87.9549 109.3 87.8434C109.469 87.5878 109.724 87.3555 109.992 87.5007C111.38 88.2732 112.6 89.4347 114.14 89.8877C114.43 89.9749 114.471 90.4685 114.297 90.846C114.122 91.2235 113.733 91.3339 113.071 91.1364ZM125.394 93.7383C123.767 93.2388 122.169 92.6116 120.56 92.0366C120.419 91.9982 120.297 91.9082 120.22 91.7844C120.142 91.6607 120.114 91.5122 120.141 91.3687C120.229 90.9099 120.56 91.1074 120.786 91.1306C121.263 91.1829 121.728 91.2758 122.326 91.3687C123.447 91.299 124.476 92.205 125.707 92.2457C126.033 92.2457 126.567 92.1179 126.463 92.9252C126.358 93.7325 125.789 93.8428 125.388 93.7209L125.394 93.7383ZM146.797 95.9336C146.489 96.3808 146.28 96.5783 145.856 96.2415C145.3 95.7544 144.6 95.4626 143.863 95.4109C143.544 95.4109 143.218 95.2425 143.282 94.8301C143.317 94.5223 143.637 94.441 143.927 94.441C144.305 94.441 144.676 94.11 145.031 94.3133C145.597 94.4006 146.124 94.6531 146.547 95.0392C146.745 95.1554 147.244 95.2948 146.791 95.9104L146.797 95.9336ZM157.946 95.7129C158.18 95.7673 158.384 95.9087 158.517 96.1084C158.65 96.3081 158.701 96.551 158.661 96.7874C158.44 97.6644 157.801 97.2172 157.162 97.2288C155.959 96.8396 154.739 95.9743 153.287 95.8872C153.196 95.8614 153.111 95.8174 153.037 95.758C152.963 95.6986 152.902 95.6249 152.858 95.5414C152.813 95.4579 152.786 95.3662 152.778 95.2719C152.77 95.1777 152.781 95.0827 152.81 94.9928C152.879 94.8191 153.013 94.6788 153.182 94.6009C153.352 94.523 153.546 94.5136 153.722 94.5746C155.14 94.8941 156.54 95.3006 157.94 95.6897L157.946 95.7129ZM166.417 94.865C166.417 95.3122 166.301 95.7536 165.894 95.8872C165.226 96.1079 164.546 96.2473 163.872 96.4215C163.332 96.3634 163.059 96.0556 162.995 95.4574C162.902 94.6501 163.489 94.6443 163.849 94.5456C164.435 94.3971 165.04 94.3326 165.644 94.3539C165.958 94.3539 166.446 94.2029 166.417 94.865ZM160.886 93.0762C161.188 93.2446 161.542 93.2679 161.856 93.4131C162.17 93.5583 162.919 93.1866 162.815 93.9938C162.809 94.1495 162.768 94.3018 162.695 94.4394C162.622 94.5769 162.519 94.696 162.393 94.7878C162.267 94.8795 162.122 94.9414 161.969 94.9689C161.815 94.9964 161.658 94.9886 161.508 94.9463L161.124 94.8824C160.137 94.7314 159.271 93.9183 158.15 94.3655C157.871 94.4759 157.447 94.0868 157.406 93.7151C157.359 93.2504 157.813 92.9833 158.115 92.8962C158.567 92.7289 159.05 92.6585 159.531 92.6896C160.012 92.7206 160.482 92.8523 160.909 93.0762H160.886ZM155.936 92.147C154.501 92.5477 153.141 91.7636 151.706 92.1005C151.404 92.1702 151.306 91.8856 151.323 91.4907C151.312 91.2944 151.379 91.1017 151.51 90.9548C151.64 90.8078 151.824 90.7186 152.02 90.7066C152.961 90.5847 153.92 90.3117 154.635 90.6486L156 90.8634C156.331 90.9215 156.802 90.8983 156.744 91.4442C156.726 91.845 156.331 92.0424 155.959 92.1412L155.936 92.147ZM175.498 92.054C175.736 92.5012 175.37 92.7161 175.085 92.8613C173.545 93.603 171.832 93.9103 170.129 93.7499C169.659 93.6976 168.967 93.5873 169.043 93.0472C169.119 92.507 169.758 92.5245 170.251 92.4199C171.727 92.1237 173.267 92.4548 174.673 91.4326C175.254 91.0203 175.347 91.7172 175.521 92.054H175.498ZM177.119 88.4009C177.322 88.8307 177.119 89.1443 176.84 89.4928C176.346 90.1142 175.724 89.9865 175.155 90.1955C174.371 90.4743 173.517 90.1955 172.773 90.8344C172.679 90.8913 172.57 90.9184 172.46 90.9122C172.35 90.906 172.244 90.8667 172.157 90.7996C171.181 89.5277 169.944 90.3233 168.816 90.4453C168.433 90.5246 168.038 90.5246 167.654 90.4453C167.521 90.3873 167.409 90.2875 167.337 90.1608C167.264 90.034 167.235 89.8873 167.254 89.7425C167.254 89.3825 167.445 89.0166 167.678 89.0107C169.34 89.0262 170.987 88.6918 172.511 88.0292C172.692 88.0757 172.79 88.0699 172.86 88.1222C174.115 89.0979 174.603 89.1385 176.114 88.2325C176.584 87.9363 176.91 87.9015 177.142 88.4009H177.119ZM173.238 83.7547C173.216 83.9303 173.148 84.0971 173.041 84.2379C172.934 84.3787 172.791 84.4886 172.628 84.5562C170.96 85.137 169.386 86.072 167.66 86.3856C167.242 86.4611 166.946 86.5134 166.864 86.0139C166.837 85.8169 166.873 85.6164 166.967 85.4411C167.061 85.2658 167.208 85.1247 167.387 85.0382C169.193 84.5554 170.928 83.8368 172.546 82.901C172.616 82.8603 172.721 82.901 172.895 82.901C173.336 82.8777 173.348 83.2378 173.261 83.7257L173.238 83.7547ZM168.433 82.3492C168.137 83.232 167.463 83.3888 166.847 83.5747C166.231 83.7605 165.464 84.6259 165.209 83.5282C165.023 82.7325 165.923 82.4131 166.516 82.1401C166.922 81.9601 167.329 81.7859 167.742 81.6174C168.369 81.3445 168.392 81.8439 168.456 82.3202L168.433 82.3492ZM166.452 80.6824C166.115 80.7463 165.743 81.0831 165.592 80.5023C165.558 80.3236 165.585 80.1384 165.671 79.9778C165.757 79.8171 165.895 79.6907 166.063 79.6196C167.806 78.731 169.548 77.8772 171.698 77.976C169.903 79.3117 168.294 80.3165 166.452 80.6824ZM157.935 76.3498C157.598 76.3498 157.406 76.0942 157.354 75.7109C157.354 75.3218 157.656 75.3683 157.842 75.2812C159.004 74.7526 160.253 74.5494 161.38 73.8118C161.746 73.5678 162.089 73.7595 162.216 74.2009C162.344 74.6423 162.327 75.194 161.967 75.3102C160.607 75.7225 159.306 76.2685 157.935 76.3207V76.3498ZM190.72 76.9015C190.865 77.1919 191.144 77.7088 190.621 78.1328C190.301 78.4351 190.018 78.7744 189.778 79.1433C189.197 79.9448 188.936 80.7056 189.714 81.5071C190.08 81.8846 190.481 82.4131 189.883 83.0868C189.447 83.5805 189.099 83.6676 188.721 83.0055C188.506 82.5931 188.14 82.8545 187.78 82.9648C186.815 83.2843 186.496 82.5525 186.932 81.7336C187.472 80.7347 186.932 80.6011 186.507 80.2061C186.083 79.8112 185.677 79.7125 185.624 79.0039C185.624 78.6555 185.386 78.2663 185.624 77.9992C185.787 77.8366 186.118 77.9295 186.461 77.8947C187.768 79.637 188.704 78.2838 189.68 77.0177C189.999 76.6169 190.452 76.344 190.72 76.8725V76.9015ZM170.449 71.9417C170.844 71.5293 171.361 71.4712 171.611 71.9417C171.693 72.1859 171.687 72.4511 171.595 72.6916C171.503 72.9322 171.33 73.1331 171.106 73.26C169.658 74.2897 168.099 75.1528 166.458 75.8329C166.376 74.9966 166.51 74.5958 167.126 74.2009C168.224 73.4517 169.456 72.9522 170.449 71.9126V71.9417ZM77.927 61.3773C77.317 60.9359 76.1841 61.0811 76.3177 59.6756C76.3932 58.9613 76.8987 59.513 77.166 59.2981C77.7469 59.7569 78.7114 59.542 78.7462 60.7036C78.7637 61.2612 78.2873 61.6445 77.927 61.3773ZM74.1913 61.4354C74.2096 61.3551 74.2439 61.2792 74.2921 61.2124C74.3403 61.1456 74.4014 61.0891 74.4719 61.0463C74.5423 61.0035 74.6206 60.9753 74.7022 60.9633C74.7837 60.9513 74.8668 60.9558 74.9466 60.9766C75.5276 61.116 76.8057 63.0616 76.6895 63.6365C76.5733 64.2115 76.3409 64.3741 75.9343 64.3335C75.3881 64.2754 73.988 61.9987 74.1913 61.4354ZM81.4943 64.0547C81.4171 63.927 81.3661 63.7853 81.3442 63.6377C81.3222 63.4902 81.3298 63.3397 81.3665 63.1951C81.4943 62.8234 81.8429 62.9977 82.0578 63.0732C82.5633 63.2532 82.7434 63.259 83.0978 62.4924C83.6439 61.3308 84.4747 62.3007 84.9686 62.6899C85.6676 63.3576 86.2893 64.1018 86.8219 64.9084C86.9466 65.0376 87.0228 65.2058 87.0377 65.3847C87.0525 65.5636 87.005 65.7421 86.9033 65.8899C86.8514 65.9515 86.786 66.0002 86.7122 66.0324C86.6384 66.0645 86.5582 66.0792 86.4778 66.0753C86.3974 66.0713 86.319 66.0489 86.2487 66.0097C86.1784 65.9705 86.1181 65.9156 86.0725 65.8493C85.6948 65.2163 84.986 65.1233 84.6374 64.4206C84.5392 64.1355 84.334 63.8998 84.0651 63.7633C83.7962 63.6267 83.4848 63.6 83.1966 63.6888C83.6846 64.3102 84.1436 64.8504 84.5851 65.466C84.7247 65.6173 84.8073 65.8124 84.819 66.0179C84.8306 66.2234 84.7706 66.4266 84.649 66.5927C84.3411 67.0225 84.1203 66.8134 83.7718 66.5927C82.8015 66.0003 82.2205 64.9433 81.4943 64.0547ZM81.6976 69.8625C80.7984 69.0818 80.0158 68.1763 79.3737 67.1735C79.2912 67.0206 79.253 66.8478 79.2633 66.6745C79.2735 66.5011 79.3319 66.334 79.4318 66.192C79.5306 65.9713 79.8269 65.8725 79.9431 65.7912C80.3562 66.0014 80.6859 66.3454 80.8784 66.7669C81.2286 67.519 81.7794 68.1601 82.4703 68.6196C82.5861 68.6627 82.6901 68.7325 82.7737 68.8233C82.8574 68.9142 82.9184 69.0235 82.9518 69.1423C82.9852 69.2612 82.9901 69.3863 82.966 69.5074C82.9419 69.6285 82.8895 69.7422 82.8131 69.8392C82.4762 70.3619 82.1276 70.1529 81.7034 69.8392L81.6976 69.8625ZM87.583 70.1413C87.7295 70.0752 87.8956 70.0672 88.0477 70.1189C88.1998 70.1707 88.3265 70.2783 88.4022 70.42C88.8698 71.398 89.5873 72.2354 90.4821 72.8477C90.6971 72.9929 90.7959 73.1962 90.6041 73.5969C90.3485 74.137 90.0232 74.0034 89.9651 73.9918C89.258 73.8707 88.6103 73.5211 88.1212 72.9965C87.6321 72.472 87.3288 71.8015 87.2577 71.0879C87.2577 70.7162 87.2054 70.2284 87.583 70.118V70.1413Z" fill="#A3A3A3"/>
<path d="M184.369 50.5864C182.144 50.447 178.42 59.1355 177.607 61.3134C176.052 65.7993 175.68 70.6097 176.526 75.2811C177.229 79.1143 178.478 83.8302 180.593 87.1755C182.04 89.4695 182.51 89.6089 185.241 89.2082C187.094 88.9352 189.157 88.5751 190.679 87.4078C193.845 84.9743 196.372 82.4305 199.975 80.4384C203.577 78.4464 207.173 76.4137 210.723 74.0499C212.466 72.8883 213.936 71.4364 215.725 70.3387C217.515 69.241 219.664 68.7474 221.256 67.5045C222.418 66.5869 224.242 64.0198 223.853 62.4982C223.342 60.5119 220.326 60.3493 218.334 60.4655C213.506 60.7442 208.05 61.7258 203.228 62.4982C198.243 63.2939 192.689 63.0093 187.297 62.7479C187.809 61.0637 191.905 59.3271 193.357 57.9217C195.161 56.1117 197.076 54.4164 199.091 52.8457C202.67 50.1683 208.666 46.4571 210.949 42.4555C206.418 40.8642 202.206 44.6567 198.226 46.1667C193.578 47.909 189.447 49.2913 184.346 49.7211L184.369 50.5864Z" fill="white"/>
<path d="M58.4291 47.5314C58.4556 45.4505 58.7188 43.3793 59.2135 41.3577C60.1488 37.6117 61.6826 34.5104 64.6108 31.9201C63.9328 31.7639 63.2429 31.6649 62.5483 31.6239C62.1881 31.6239 58.8242 34.4988 58.1561 35.1376C56.7268 36.5141 56.1052 38.4887 55.3034 40.3646C54.3855 42.5019 55.5126 46.8113 55.6346 46.8403C56.4596 47.032 58.4117 48.5362 58.4291 47.5314Z" fill="#F9C2CF"/>
<path d="M66.9172 48.815C68.2826 44.2153 70.7866 40.3357 73.3081 36.5664C74.9988 34.0633 75.1208 34.1271 72.5121 33.5231C71.9834 33.4012 71.4896 32.8378 70.7692 33.6393C67.5215 37.275 65.8308 41.8805 64.541 46.7242C64.0181 48.6757 64.6979 50.5574 64.8373 52.4739C64.8409 52.8728 64.9457 53.2642 65.1418 53.6116C65.3379 53.959 65.6189 54.251 65.9586 54.4602C66.3072 52.4391 66.4002 50.5516 66.9172 48.815Z" fill="#F9C2CF"/>
<path d="M53.6418 43.4021C53.5024 38.9766 55.4196 35.9217 58.2897 33.4011C59.1217 32.8178 59.8321 32.078 60.3813 31.2232C59.0624 31.3452 57.9237 31.3858 56.8547 30.747C56.5119 30.5437 55.9367 30.8341 55.4719 30.9038C55.6695 32.1292 54.7283 31.8621 54.31 32.1176C50.5626 34.3071 49.4239 36.4502 49.4413 41.4565C49.4413 42.0373 48.9765 42.8272 49.5052 43.2395C50.888 44.3256 52.2707 45.4639 54.0137 45.702C54.2867 44.7437 53.6651 44.2036 53.6418 43.4021Z" fill="#F9C2CF"/>
<path d="M37.6995 29.899C36.4794 29.9339 35.4162 30.1546 34.3472 30.0733C32.4067 29.9281 31.1692 31.3278 30.2047 33.2385C30.0246 33.5928 30.0072 35.219 29.8213 35.794C31.9535 35.9101 33.7836 37.0542 35.8287 37.3679C34.5331 34.313 36.5142 32.3035 37.6995 29.899Z" fill="#F9C2CF"/>
<path d="M54.8676 30.7702C50.7252 29.7829 46.7629 29.7074 42.8296 29.5215C41.2261 29.446 39.4483 29.4344 38.1817 31.6995C37.2521 33.3895 36.6072 34.9402 36.6537 36.9265C36.6537 37.6234 36.6944 37.8383 37.2347 37.8906C38.4768 38.0672 39.6783 38.4604 40.7845 39.0521C41.5979 39.4471 42.2196 39.2089 42.3358 37.8906C42.4858 36.2299 42.9139 34.6063 43.6023 33.0875C44.2182 31.7169 46.8733 29.9165 48.2502 30.4914C48.0527 31.0316 47.6402 31.1651 47.2625 31.4439C46.0541 32.3267 44.7817 33.1863 44.3227 34.9867C43.9335 36.5083 43.3351 38.088 43.5094 39.5981C43.643 40.7596 44.9851 40.719 45.7171 41.3404C46.3567 41.7745 47.0551 42.1148 47.7912 42.3509C47.9888 36.7987 49.6039 32.408 54.8676 30.7702Z" fill="#F9C2CF"/>
<path d="M62.8851 50.7954C62.8212 46.1492 64.3027 42.0837 66.2432 38.0531C67.1612 36.1598 68.5672 34.7427 69.6071 32.7099C68.5788 32.5473 67.7131 32.4312 66.8591 32.2685C66.6419 32.2067 66.4113 32.2095 66.1957 32.2765C65.98 32.3436 65.7886 32.472 65.6448 32.6461C64.6342 33.7048 63.6819 34.8177 62.7922 35.9797C61.078 38.6322 60.0627 41.675 59.8408 44.825C59.5735 47.4966 59.7304 50.1333 62.1647 51.3588C62.3971 51.4749 62.6004 51.713 62.8619 51.4981C63.1233 51.2833 62.8909 51.0277 62.8851 50.7954Z" fill="#F9C2CF"/>
<path d="M30.652 30.5031C26.283 30.8457 22.1522 31.0838 18.0679 32.4951L29.1066 35.399C28.0434 33.8251 29.0136 32.3151 30.652 30.5031Z" fill="#F9C2CF"/>
<path d="M72.2973 56.2025C71.1643 54.0478 71.2166 53.8793 73.1978 52.4332C73.4825 52.2241 74.0983 52.0034 73.7265 51.3878C72.7272 49.721 73.6452 48.4839 74.6212 47.4734C75.3823 46.6835 75.0279 46.4047 74.5108 46.0679C73.5871 45.4871 73.68 44.796 74.3307 43.8493C74.9148 42.8863 75.6827 42.0476 76.5907 41.381C77.0613 41.079 76.9219 40.9512 76.7883 40.5272C76.5682 39.9582 76.5405 39.3328 76.7094 38.7466C76.8783 38.1603 77.2345 37.6455 77.7237 37.2807C78.5835 36.514 79.5538 36.6999 80.4601 35.9681C79.2981 35.4744 78.049 35.3873 76.9277 34.8414C76.8644 34.8234 76.7973 34.823 76.7338 34.8405C76.6703 34.8579 76.6128 34.8923 76.5675 34.9401C75.0628 36.8567 73.2966 38.5177 72.1636 40.806C71.7105 41.7294 70.8158 42.0547 70.4555 43.013C69.7642 44.8831 69.0147 46.7299 68.3756 48.6291C67.4592 51.0715 67.4039 53.7534 68.2187 56.2315C68.5209 57.0794 69.2529 58.392 70.0953 57.7067C70.7751 57.1433 71.6349 56.8704 72.2973 56.2025Z" fill="#F9C2CF"/>
<path d="M204.762 49.5642C204.674 49.5516 204.585 49.5615 204.503 49.593C204.421 49.6245 204.348 49.6766 204.291 49.7442C203.344 51.2078 201.816 51.7014 200.695 52.985C205.07 52.3577 209.334 51.8641 213.232 48.6582C212.748 48.5606 212.256 48.5043 211.763 48.4897C209.41 48.5478 207.167 50.2495 204.762 49.5642Z" fill="#F9C2CF"/>
<path d="M181.354 93.0064C181.29 93.3026 181.052 93.866 181.534 93.8544C182.016 93.8427 182.487 93.4072 182.446 92.6173C182.417 92.2688 182.807 91.6009 182.365 91.5835C181.749 91.5719 181.494 92.3443 181.354 93.0064Z" fill="white"/>
<path d="M77.7585 70.4374C80.0824 72.2842 82.4586 74.0847 84.8291 75.8793C87.734 78.0978 90.5982 80.5255 93.6775 82.4188C97.1053 84.5154 100.318 87.0128 103.676 89.2255C105.808 90.631 107.923 92.083 110.352 92.658C112.78 93.2329 115.058 94.0983 117.382 94.8707C121.585 96.3046 125.876 97.4686 130.227 98.3554C133.609 99.0175 137.048 99.3834 140.435 100.016C143.555 100.597 146.71 100.156 149.859 99.9351C152.09 99.7783 154.321 99.4124 156.552 99.3543C160.083 99.1797 163.603 98.8211 167.097 98.2799C169.7 97.9246 172.212 97.077 174.498 95.7825C174.795 95.6141 175.579 94.9753 175.527 96.0904C175.376 99.3137 177.066 100.586 179.146 101.672C181.83 103.077 184.677 101.294 185.398 97.7804C185.822 95.7012 185.566 93.744 185.514 91.7345C185.5 91.472 185.541 91.2094 185.634 90.9636C185.728 90.7179 185.872 90.4943 186.056 90.3073C186.241 90.1203 186.463 89.974 186.708 89.8778C186.953 89.7815 187.215 89.7374 187.478 89.7482C188.523 89.7482 188.268 90.8111 188.186 91.4906C187.878 93.8776 188.436 95.9916 189.174 98.0418C189.755 99.6912 191.237 100.156 192.66 99.2962C194.717 98.0534 195.762 94.5106 194.914 91.8797C194.711 91.2129 194.371 90.5958 193.916 90.0678C193.461 89.5398 192.9 89.1125 192.271 88.8132C191.951 88.6448 190.987 88.5576 191.69 87.7155C192.555 86.6919 193.549 85.7842 194.647 85.0149C198.081 82.6918 201.677 80.7288 205.07 78.2488C208.765 75.5482 212.623 73.1728 216.44 70.7394C219.223 68.968 222.087 67.3825 224.864 65.582C225.643 65.0768 226.845 64.4205 226.485 63.0557C226.189 61.8941 225.416 60.8487 224.19 61.0462C223.694 61.1082 223.19 61.0084 222.755 60.7616C220.966 59.8904 219.112 59.9601 217.189 60.3899C214.941 60.8894 214.912 60.808 214.145 58.3165C214.01 57.9963 213.907 57.6637 213.837 57.3234C213.779 56.7426 213.465 56.7426 213.122 56.6555C212.675 56.5277 212.477 56.8588 212.291 57.2363C211.827 58.0223 211.424 58.8437 211.089 59.693C210.508 61.5108 209.846 60.2737 209.474 59.7917C208.486 58.4385 208.312 58.3688 207.278 59.6581C206.697 60.3608 206.197 61.0171 205.232 60.4828C204.935 60.3996 204.62 60.4108 204.329 60.5149C204.039 60.6189 203.788 60.8107 203.612 61.0636C202.606 62.3006 201.433 62.3936 200.126 62.4284C198.342 62.4807 196.611 62.0916 194.781 62.3239C192.818 62.671 190.805 62.5997 188.872 62.1148C190.406 60.8313 191.719 59.8962 192.869 58.7172C193.839 57.7241 194.943 56.8355 196.03 56.6032C198.162 56.1502 200.166 55.0293 202.299 54.675C204.14 54.3672 205.994 54.3266 207.829 54.1407C210.153 53.8968 212.14 51.9686 214.139 50.4411C214.441 50.2114 214.682 49.9113 214.841 49.5671C215 49.2229 215.072 48.8451 215.051 48.4665C215.031 48.0949 214.896 47.7387 214.667 47.4458C214.437 47.1529 214.123 46.9375 213.767 46.8287C212.797 46.5035 211.809 46.7474 210.822 46.9855C209.59 47.2875 208.376 47.8915 206.981 47.787C209.055 46.0446 211.008 44.4301 212.977 42.8387C213.179 42.6951 213.325 42.4856 213.39 42.2461C213.455 42.0066 213.434 41.7521 213.331 41.5262C213.186 41.0035 212.936 40.7944 212.472 40.8525C211.01 40.9867 209.569 41.2907 208.178 41.7585C204.111 43.2453 200.201 45.5045 196.053 46.8287C191.905 48.1529 187.919 49.5061 183.794 48.2051C182.789 47.8857 182.051 47.0436 181.122 46.5673C179.14 45.4987 177.165 44.6217 175.933 42.1128C174.365 38.9127 174.382 35.5906 175.393 32.2395C176.358 29.0627 178.461 26.757 180.761 24.794C182.452 23.3478 184.125 21.8901 185.799 20.4149C186.05 20.2109 186.25 19.9506 186.382 19.6549C186.515 19.3593 186.575 19.0367 186.56 18.7132C186.472 17.935 185.822 17.8827 185.247 17.7607C184.427 17.5865 183.695 18.3822 182.818 18.1498C183.074 17.6155 183.347 17.1451 183.538 16.634C183.934 15.577 183.504 14.5839 182.597 14.4735C181.981 14.398 181.435 14.5258 181.644 13.312C181.749 12.6847 181.261 11.8658 180.442 12.7312C180.208 12.9486 179.964 13.1541 179.71 13.3468C179.71 11.8774 179.233 11.1108 178.089 11.8193C176.581 12.6318 175.262 13.7541 174.219 15.1124C172.761 17.1683 171.762 19.6366 170.094 21.4487C167.23 24.5616 164.517 27.8779 161.444 30.6889C160.915 31.1709 160.479 31.4206 159.788 31.0431C159.096 30.6656 159.056 29.9861 159.067 29.3356C159.166 26.0161 159.683 22.7222 160.607 19.5321C160.903 18.4751 161.542 17.3019 162.46 17.209C164.023 17.0057 165.365 16.2217 166.742 15.4086C167.283 15.0891 168.113 14.9846 168.02 14.0495C167.927 13.1145 167.283 12.7951 166.568 12.5628C165.853 12.3304 165.017 12.7254 164.18 12.4814C164.877 11.5406 165.214 10.4836 164.802 9.4672C164.43 8.55538 163.524 8.81092 162.844 8.88642C161.978 9.02 162.263 8.27079 162.17 7.8294C161.914 6.51684 161.444 6.23807 160.427 6.94662C159.997 7.24862 159.602 7.52739 159.306 6.94662C158.574 5.50628 157.807 6.31357 157.046 7.02212C153.56 10.2629 151.741 14.9149 149.806 19.3811C148.645 22.0817 147.349 24.7417 146.321 27.512C146.164 27.9476 145.937 28.418 145.571 28.1857C144.026 27.21 142.225 27.6049 140.604 27.1171C139.076 26.6641 137.507 26.7918 135.857 26.5828C136.118 24.1493 137.065 22.2153 138.896 20.8795C140.726 19.5437 142.614 19.1372 144.49 18.3705C145.652 17.8943 145.734 17.0406 145.559 15.9197C145.374 14.6884 144.479 14.6768 143.724 14.4387C143.247 14.2877 142.562 14.4909 142.434 13.7069C142.172 12.2201 141.202 12.313 140.302 12.4117C139.808 12.464 139.57 12.6615 139.465 11.831C139.279 10.3732 138.785 10.2396 137.722 11.1515C137.374 11.4938 137.044 11.8544 136.734 12.2317C136.339 8.85157 136.025 9.38589 134.271 10.4313C134.118 10.5548 133.981 10.6973 133.864 10.8553C131.761 13.0913 130.076 15.8035 128.159 18.2486C126.044 20.955 123.813 23.5104 122.088 26.6176C121.957 26.9102 121.747 27.1602 121.48 27.3389C121.214 27.5176 120.903 27.6178 120.583 27.6281C118.451 27.7559 116.313 28.1799 114.192 28.4064C113.222 28.5109 112.269 27.936 111.252 28.5922C111.026 28.7374 110.131 28.8826 110.247 27.9302C110.381 26.8499 110.189 25.6419 110.532 24.7243C111.502 22.1107 112.089 19.2533 113.803 17.0464C115.064 15.4202 116.661 14.1425 118.317 14.1018C120.153 14.1018 121.634 12.8415 123.337 12.5802C123.674 12.5279 123.668 12.2666 123.79 11.889C124.417 9.93763 123.476 9.42654 122.279 9.11873C121.832 9.00258 121.698 8.78188 121.82 8.2708C122.181 6.7085 121.356 6.32519 120.368 6.2613C119.984 6.2613 119.717 6.22065 119.671 5.7386C119.549 4.57705 118.886 4.57704 118.137 4.73966C117.777 4.82678 117.463 4.9952 117.411 4.30988C117.271 2.50947 117.033 2.39912 115.598 3.20059C113.001 4.62931 111.223 7.33574 108.899 9.2465C106.924 10.925 105.466 13.312 103.601 15.1066C100.086 18.4983 97.0762 22.5115 93.9912 26.4143C91.6324 29.4053 89.5873 32.7564 87.4202 35.9681C86.9961 36.6012 86.6766 36.787 86.0201 36.4211C83.7949 35.1841 81.3722 34.6149 78.9902 33.8599C77.2472 33.2791 75.5972 32.4835 73.7613 32.3441C73.5638 32.3441 66.069 30.4856 65.7902 30.4565C63.5417 30.2242 61.2875 30.0268 59.0507 29.7073C55.0942 29.1266 51.1668 28.3425 47.1521 28.1625C45.3453 28.0812 43.521 27.7617 41.7257 28.0231C35.2768 28.993 28.793 28.8071 22.3324 30.0151C17.3883 30.9386 12.415 31.5368 7.4534 32.2047C7.30808 32.2002 7.16366 32.2291 7.03121 32.2891C6.89877 32.349 6.7818 32.4385 6.68928 32.5506C6.59675 32.6627 6.53112 32.7945 6.4974 32.9359C6.46369 33.0772 6.46279 33.2245 6.49478 33.3662C6.55287 34.2142 7.07576 34.1271 7.65675 34.0516C9.48685 33.8134 11.317 33.645 13.1413 33.4708C14.4485 33.3314 15.6221 34.0516 16.9118 34.0516C18.8941 34.0591 20.8599 34.4108 22.7217 35.0912C26.2599 36.2818 29.8853 36.9148 33.3712 38.2274C36.4272 39.3889 39.5877 40.1033 42.574 41.5785C46.606 43.5647 50.4754 45.9053 54.4319 48.0425C57.3659 49.6281 59.9861 51.806 62.647 53.9432C64.9526 55.7798 67.0912 57.8166 69.0379 60.0298C70.0604 61.1914 74.4178 66.9411 75.4287 68.1955C76.1141 69.0321 76.8961 69.7846 77.7585 70.4374ZM182.446 92.6231C182.487 93.413 182.098 93.8485 181.534 93.8602C180.971 93.8718 181.29 93.2794 181.354 93.0122C181.488 92.3501 181.743 91.5777 182.365 91.5951C182.806 91.6009 182.417 92.2979 182.446 92.6173V92.6231ZM211.774 48.4839C212.268 48.4985 212.76 48.5548 213.244 48.6523C209.34 51.8582 205.081 52.3519 200.707 52.9791C201.828 51.7014 203.356 51.202 204.303 49.7384C204.359 49.6708 204.432 49.6187 204.515 49.5872C204.597 49.5557 204.686 49.5458 204.774 49.5584C207.167 50.2495 209.41 48.5478 211.774 48.4897V48.4839ZM18.0738 32.4777C22.1407 31.078 26.289 30.8282 30.658 30.4856C29.0196 32.2976 28.0435 33.8076 29.1242 35.3699L18.0738 32.4777ZM29.8213 35.7707C30.0073 35.1899 30.0247 33.5695 30.2048 33.2152C31.1692 31.3045 32.4067 29.9106 34.3472 30.05C35.4162 30.1313 36.4794 29.9106 37.6995 29.8758C36.5375 32.2802 34.5273 34.2897 35.8287 37.3388C33.7837 37.0484 31.9536 35.9042 29.8213 35.7881V35.7707ZM45.7113 41.3345C44.9793 40.7538 43.6372 40.7537 43.5036 39.5922C43.3293 38.0822 43.9277 36.5024 44.3169 34.9808C44.7759 33.1804 46.0599 32.3208 47.2567 31.4381C47.6344 31.1651 48.0469 31.0315 48.2444 30.4856C46.8675 29.9048 44.2124 31.711 43.5965 33.0817C42.9081 34.6004 42.48 36.2241 42.33 37.8847C42.2138 39.1856 41.5921 39.4238 40.7787 39.0463C39.6725 38.4545 38.471 38.0613 37.2289 37.8847C36.7002 37.8324 36.6479 37.6175 36.6479 36.9206C36.6014 34.9111 37.2289 33.3662 38.1759 31.6936C39.4192 29.4286 41.197 29.4344 42.8238 29.5157C46.7571 29.7015 50.7194 29.777 54.8618 30.7644C49.6329 32.4022 47.9946 36.7928 47.797 42.3277C47.0588 42.1034 46.3565 41.7748 45.7113 41.352V41.3345ZM49.5051 43.2221C48.9764 42.8097 49.447 42.0605 49.4412 41.4391C49.4412 36.4328 50.5567 34.2897 54.3099 32.1002C54.7456 31.8446 55.6868 32.1001 55.4719 30.8863C55.9366 30.8224 56.5118 30.5262 56.8546 30.7295C57.9236 31.3626 59.0623 31.3103 60.3812 31.2057C59.8321 32.0606 59.1217 32.8003 58.2896 33.3837C55.3847 35.9042 53.4791 38.9591 53.6418 43.3847C53.6418 44.1803 54.2808 44.7263 54.0194 45.7078C52.2764 45.4639 50.8879 44.3313 49.5109 43.2395L49.5051 43.2221ZM55.6287 46.8229C55.5125 46.8229 54.3796 42.4903 55.2976 40.3472C56.0993 38.4771 56.721 36.4966 58.1502 35.1202C58.8183 34.4755 62.1822 31.6355 62.5424 31.6065C63.237 31.6474 63.9269 31.7465 64.6049 31.9027C61.7 34.493 60.143 37.5943 59.2076 41.3403C58.7129 43.3619 58.4498 45.4331 58.4233 47.514C58.4116 48.5362 56.4595 47.032 55.6287 46.8403V46.8229ZM62.1822 51.3297C59.7363 50.1043 59.5794 47.4676 59.8583 44.796C60.0787 41.651 61.0898 38.6125 62.7981 35.9623C63.6878 34.8003 64.6401 33.6874 65.6507 32.6287C65.7945 32.4546 65.986 32.3262 66.2016 32.2591C66.4173 32.1921 66.6478 32.1893 66.865 32.2512C67.719 32.4196 68.6079 32.5299 69.613 32.6925C68.5789 34.7253 67.1613 36.1424 66.2491 38.0357C64.3086 42.0431 62.8271 46.1666 62.891 50.778C62.891 51.0161 63.1467 51.26 62.891 51.4749C62.6354 51.6898 62.4204 51.4691 62.1822 51.353V51.3297ZM64.8606 52.4564C64.7211 50.5399 64.0472 48.6582 64.5643 46.7067C65.8541 41.863 67.5447 37.2575 70.7924 33.6218C71.5129 32.8145 72.0009 33.3779 72.5354 33.5056C75.144 34.0864 75.0278 34.0458 73.3314 36.5489C70.7808 40.3182 68.2826 44.192 66.9405 48.7975C66.4234 50.5399 66.3305 52.4216 66.0109 54.4427C65.6702 54.2384 65.3866 53.9513 65.1865 53.6081C64.9865 53.2649 64.8763 52.8768 64.8664 52.4797L64.8606 52.4564ZM68.2012 56.2199C67.3864 53.7418 67.4417 51.0599 68.3581 48.6175C68.9914 46.7242 69.7409 44.8715 70.438 43.0014C70.7983 42.0373 71.6872 41.712 72.1461 40.7944C73.2791 38.5061 75.0511 36.8451 76.55 34.9285C76.5953 34.8807 76.6528 34.8463 76.7163 34.8289C76.7798 34.8115 76.8469 34.8118 76.9102 34.8298C78.0315 35.4106 79.2865 35.4629 80.4426 35.9565C79.5421 36.6767 78.5718 36.5024 77.7062 37.2691C77.217 37.6339 76.8608 38.1487 76.6919 38.735C76.523 39.3212 76.5507 39.9466 76.7708 40.5156C76.8986 40.9338 77.0438 41.0964 76.5732 41.3694C75.6652 42.036 74.8973 42.8747 74.3132 43.8377C73.6625 44.7844 73.5696 45.4581 74.4933 46.0563C75.0104 46.3931 75.3648 46.6719 74.6037 47.4618C73.6277 48.4781 72.7097 49.7035 73.709 51.3762C74.0808 51.9918 73.4708 52.2125 73.1803 52.4216C71.1991 53.8677 71.1468 54.0362 72.2798 56.1909C71.6407 56.8704 70.7808 57.1259 70.0836 57.6951C69.2412 58.3978 68.5092 57.0853 68.2303 56.2373L68.2012 56.2199ZM74.5224 65.0245C73.86 64.3973 73.1977 63.8339 73.4069 62.5039C73.5754 61.4817 72.5993 61.1914 72.2449 60.477C71.2224 58.5314 71.2747 58.2236 73.1977 57.4511C74.2145 57.0446 74.5921 55.9527 73.7787 55.1919C72.9653 54.4311 73.5521 53.9607 73.924 53.4496C74.2002 53.1127 74.5323 52.8259 74.9058 52.6016C75.6379 52.1022 76.0271 51.5098 75.4113 50.6444C74.7954 49.7791 74.8768 49.0647 75.6611 48.2516C76.1084 47.7047 76.6021 47.1976 77.1368 46.7358C77.3197 46.6448 77.467 46.4954 77.5554 46.3113C77.6438 46.1273 77.6682 45.919 77.6248 45.7194C77.5086 45.2374 77.16 44.9237 76.7824 44.976C76.2939 45.0541 75.7933 44.9618 75.3648 44.7147C76.2247 43.5996 76.8928 42.4264 78.1652 41.9792C78.4827 41.8882 78.7645 41.7017 78.9724 41.4451C79.1803 41.1885 79.3041 40.8741 79.3271 40.5447C79.391 39.7374 78.8275 40.0162 78.5137 39.9C77.9618 39.6909 78.1826 39.3192 78.3801 38.9359C78.9611 37.8208 79.9488 37.6466 80.8667 37.4027C82.6097 36.9322 84.3527 36.6825 85.6715 38.4423C85.2648 39.2263 84.7419 40.1265 84.3294 41.0964C84.1725 41.4565 83.9111 42.0489 84.3294 42.3741C84.7477 42.6994 85.1312 42.3741 85.3984 41.8688C87.7747 37.5072 90.7551 33.7031 93.4799 29.6725C95.5807 26.5841 97.9112 23.6584 100.452 20.9202C101.259 20.0432 101.829 18.8526 102.869 18.2834C103.343 18 103.843 17.7627 104.362 17.5749C103.802 18.4887 103.484 19.53 103.438 20.6007C103.357 21.4196 103.543 21.8494 104.304 21.4254C104.386 21.3925 104.472 21.3692 104.559 21.3557C105.268 21.1467 106.14 20.0606 106.622 20.8969C107.104 21.7332 106.564 22.9122 106.256 23.917C106.102 24.2897 105.922 24.6507 105.715 24.9972C105.623 25.1518 105.58 25.3309 105.593 25.5105C105.605 25.6901 105.672 25.8616 105.785 26.002C105.872 26.1036 105.991 26.1723 106.122 26.1966C106.253 26.2209 106.388 26.1994 106.506 26.1355C109.056 25.2934 109.039 25.2934 108.58 28.3251C108.33 29.9455 107.772 31.6878 107.999 33.1804C108.209 34.7411 108.289 36.3166 108.237 37.8905C108.202 42.0895 109.271 46.0853 109.149 50.2553C109.103 51.9976 109.556 53.9897 108.342 55.6623C107.941 56.2431 108.44 56.2431 108.708 56.2431C109.567 56.2431 109.748 55.4416 109.962 54.6808C110.782 51.7363 110.456 48.8092 110.177 45.9285C109.782 41.7992 109.155 37.7105 109.881 33.4824C110.009 32.739 109.428 31.833 110.172 31.2929C110.944 30.6795 111.863 30.2791 112.838 30.1313C115.743 29.8177 118.648 29.324 121.553 29.0917C124.017 28.8942 126.515 28.3599 128.99 28.3483C130.756 28.2391 132.527 28.2275 134.294 28.3135C136.914 28.5864 139.587 28.3832 142.178 28.9639C142.647 29.0287 143.101 29.1803 143.514 29.4111C145.298 30.5727 145.257 30.474 144.502 32.7506C143.747 35.0273 143.189 37.3446 142.544 39.6445C142.074 41.3403 141.22 42.8678 140.929 44.6566C140.766 45.6671 140.929 46.637 140.772 47.6244C140.702 48.1238 140.917 48.4375 141.353 48.4781C141.789 48.5188 141.777 48.0135 141.824 47.6941C142.602 42.1012 144.653 36.9671 146.39 31.7052C146.925 30.0907 147.523 28.4993 148.011 26.8673C148.331 25.7929 148.999 25.427 149.702 24.9856C150.126 24.7243 150.283 24.9391 150.411 25.4444C150.502 25.8995 150.516 26.3669 150.451 26.8267C150.399 27.3087 150.01 27.9302 150.451 28.2728C150.893 28.6155 151.486 28.3193 151.927 27.9592C152.369 27.5991 152.874 27.1577 153.356 27.6107C153.567 27.8646 153.711 28.1668 153.776 28.4902C153.841 28.8136 153.824 29.148 153.728 29.4634C153.696 29.7794 153.638 30.0922 153.554 30.3985C153.368 30.9095 152.833 31.4671 153.287 31.9317C153.74 32.3963 154.251 31.8911 154.698 31.4845C155.326 30.9037 156.052 30.0674 156.035 31.9317C156.035 32.1001 157.197 33.6218 157.144 34.2548C157.065 35.8618 157.363 37.4651 158.016 38.9359C158.74 40.9902 159.322 43.0918 159.759 45.2257C160.364 47.4591 161.177 49.631 162.187 51.713C162.362 52.1138 162.629 52.3867 163.024 52.1486C163.605 51.8234 163.605 51.2891 163.431 50.6677C163.123 49.3493 159.364 39.3425 159.213 34.9866C159.213 34.4523 158.928 32.8203 159.213 32.6635C159.265 32.6377 159.322 32.6229 159.38 32.6201C159.439 32.6173 159.497 32.6265 159.551 32.6472C159.606 32.6679 159.655 32.6997 159.697 32.7405C159.739 32.7812 159.772 32.8302 159.794 32.8842C160.648 34.7078 162.437 34.9924 163.698 36.154C164.552 36.938 165.255 37.9312 166.225 38.5816C168.834 40.324 171.692 41.6075 174.103 43.7448C177.008 46.335 180.442 48.0019 183.457 50.4063C183.567 50.5126 183.697 50.5954 183.84 50.6493C183.983 50.7033 184.135 50.7273 184.288 50.7199C188.477 50.2146 192.619 49.5584 196.75 48.06C200.747 46.6254 204.553 44.4417 208.602 43.2859L210.229 42.8387L210.345 43.164C208.021 45.0399 205.697 46.8926 203.402 48.7975C202.159 49.8313 201.009 51.0335 199.736 52.0151C197.11 54.0536 194.473 56.0805 191.759 57.9506C190.016 59.1528 188.64 61.0287 186.786 62.0567C186.522 62.2207 186.318 62.4668 186.207 62.7574C186.096 63.0479 186.083 63.3669 186.17 63.6655C186.42 64.3218 187.024 64.0894 187.547 64.072C191.289 63.9384 195.1 63.3809 198.749 63.921C201.073 64.2695 203.199 63.2241 205.401 63.3402C207.144 63.4506 212.437 62.3994 212.71 62.4516C215.121 62.9395 217.474 61.6037 219.879 61.7431C221.093 61.8128 221.93 62.9047 223.22 62.8756C222.25 64.1069 221.767 65.6808 220.344 66.5229C217.323 68.3175 214.406 70.3793 211.437 72.3307C210.636 72.8476 209.805 73.289 208.823 73.8581C208.997 73.0392 209.52 72.2842 208.823 71.8196C208.457 71.5815 208.097 71.9474 207.899 72.2668C207.318 73.1786 208.213 73.5213 208.434 74.1427C207.833 74.8044 207.07 75.2987 206.22 75.5772C205.521 75.8299 204.882 76.2255 204.344 76.7388C202.501 78.3189 200.531 79.7428 198.452 80.9959C196.297 82.3724 193.99 83.412 192.062 85.4098C190.419 87.1504 188.212 88.2532 185.833 88.5228C184.615 88.6138 183.418 88.89 182.284 89.3417C181.703 89.5973 177.665 91.537 176.52 92.7973C175.376 94.0576 173.761 94.5397 172.285 95.1204C170.385 95.8697 168.421 96.7408 166.475 96.8628C164.07 97.0196 161.67 97.5017 159.265 97.5133C157.522 97.5133 155.779 98.094 154.123 97.5597C152.753 97.1524 151.352 96.8571 149.934 96.6769C149.452 96.6014 148.697 95.951 148.459 96.857C148.18 97.9082 149.04 98.1173 149.714 98.4251C148.209 98.5528 146.687 98.8781 145.211 98.7445C143.735 98.6109 142.155 98.971 140.702 98.3264C141.022 97.7456 141.469 97.9953 141.864 97.8966C142.259 97.7979 142.747 97.8501 142.718 97.1474C142.718 96.6828 142.254 96.3517 142.033 96.4156C140.702 96.8105 139.599 96.0148 138.396 95.7942C138.134 95.7477 137.768 95.5154 137.641 96.0904C137.586 96.2565 137.591 96.4367 137.656 96.5992C137.721 96.7617 137.841 96.8962 137.995 96.9789C138.489 97.2403 138.994 97.4668 139.616 97.7688C137.399 98.0748 135.14 97.7234 133.121 96.7582C133.702 96.6247 134.376 96.6769 134.283 95.8755C134.23 95.254 133.667 95.2947 133.161 95.2424C132.502 95.2908 131.844 95.1214 131.29 94.7604C131.202 94.6698 131.095 94.5993 130.977 94.5535C130.858 94.5077 130.732 94.4877 130.605 94.4949C130.479 94.502 130.355 94.5362 130.243 94.595C130.131 94.6538 130.032 94.7359 129.954 94.8359C129.472 95.4166 129.954 95.8522 130.187 96.3343C126.974 96.2762 124.034 95.1727 121.083 94.1215C120.635 93.9589 120.095 94.0286 119.7 93.7731C118.974 93.2968 117.568 93.8602 117.707 91.9784C117.706 91.8952 117.685 91.8133 117.646 91.7396C117.607 91.6658 117.552 91.6021 117.484 91.5536C117.416 91.5051 117.338 91.4731 117.256 91.4601C117.173 91.4472 117.089 91.4536 117.01 91.479C113.751 92.1294 110.793 91.2409 107.894 89.7366C106.959 89.2604 106.151 88.5751 105.21 88.1105C104.85 87.9188 104.164 87.6226 104.989 86.8211C105.355 86.461 104.989 86.101 104.641 85.9209C103.661 85.3744 102.813 84.6213 102.154 83.714C101.538 82.9009 101.102 82.9009 100.771 84.0392C100.481 85.0323 100.016 84.5793 99.6616 84.2889C98.6561 83.3436 97.5287 82.537 96.3093 81.8903C97.0704 81.7161 97.9419 82.1342 98.4532 81.0598C98.5806 80.8394 98.6449 80.5883 98.6391 80.3338C98.6238 80.2781 98.5963 80.2265 98.5586 80.1828C98.5209 80.139 98.4739 80.1042 98.4211 80.0808C98.3682 80.0575 98.3108 80.0462 98.2531 80.0477C98.1953 80.0493 98.1386 80.0637 98.0871 80.0899C96.8903 80.5894 96.0363 79.7821 95.0893 79.242C94.3224 78.8064 93.538 78.0165 92.6549 79.3291C92.3644 79.7647 92.0217 79.2826 91.7834 79.0445C90.0405 77.2499 87.9025 76.1406 85.9736 74.5957C85.4856 74.2124 85.0498 74.0614 85.9039 73.4342C86.357 73.0857 86.4268 72.4062 85.6482 72.2726C84.5618 72.1158 83.609 71.1924 82.4005 71.7325C82.3136 71.7538 82.2228 71.7528 82.1364 71.7294C82.05 71.706 81.971 71.6611 81.9067 71.5989C80.0998 69.903 78.0199 68.6486 76.3583 66.7088C75.7776 66.1218 75.1667 65.5654 74.5282 65.0419L74.5224 65.0245Z" fill="black"/>
<path d="M217.84 81.8787C218.142 81.1411 217.84 80.3338 217.927 79.4917C218.09 78.2604 218.014 77.0118 218.252 75.7631C218.345 75.281 218.31 74.6364 217.788 74.5376C217.265 74.4389 217.061 74.9848 216.986 75.5482C216.945 75.8618 216.893 76.1754 216.841 76.4832C216.521 78.3475 216.887 80.1712 216.771 82.0239C216.724 82.7499 216.12 83.9811 216.817 84.0856C217.515 84.1902 217.695 82.8486 217.84 81.8787Z" fill="black"/>
<path d="M214.743 83.1333C215.365 81.3096 215.522 79.3989 215.905 77.5229C216.004 77.0002 215.957 76.5356 215.475 76.4195C214.993 76.3033 214.697 76.7389 214.609 77.3313C214.476 78.2199 214.331 79.1085 214.191 79.9971C214.034 80.9902 213.872 81.9833 213.726 82.9765C213.674 83.3365 213.662 83.7547 214.087 83.7256C214.336 83.6966 214.58 83.5863 214.743 83.1333Z" fill="black"/>
<path d="M213.477 77.7261C213.541 77.3138 213.616 76.8375 213.105 76.855C212.594 76.8724 212.524 77.157 212.466 77.7726C212.355 79.6833 212.384 81.6522 211.304 83.3713C211.147 83.621 210.909 84.2076 211.408 84.4167C211.798 84.5793 212.053 84.2773 212.251 83.8359C212.808 82.7002 213.172 81.4792 213.326 80.2235C213.645 79.4743 213.32 78.6031 213.477 77.7261Z" fill="black"/>
<path d="M54.2168 55.9993C54.9082 55.3139 54.7687 54.2569 55.0883 53.3683C55.1987 52.9676 55.2393 52.5378 54.8849 52.352C54.5305 52.1661 54.1936 52.3926 54.0425 52.8572C53.7694 53.6878 53.3105 54.4079 53.0606 55.2675C52.8747 55.8831 53.0025 56.0457 53.3569 56.3477C53.8043 56.731 54.0018 56.22 54.2168 55.9993Z" fill="black"/>
<path d="M38.0191 25.4037C38.1172 25.3775 38.2091 25.3321 38.2896 25.2703C38.3701 25.2085 38.4377 25.1315 38.4884 25.0435C38.5391 24.9556 38.572 24.8586 38.5852 24.7579C38.5984 24.6573 38.5916 24.5551 38.5652 24.4571C38.3677 23.4814 38.1179 22.5231 37.8622 21.5532C37.8478 21.4854 37.82 21.4213 37.7806 21.3643C37.7411 21.3074 37.6907 21.2589 37.6323 21.2216C37.574 21.1843 37.5087 21.159 37.4405 21.1471C37.3722 21.1353 37.3023 21.1371 37.2348 21.1524C37.1215 21.1713 37.0163 21.2233 36.9325 21.3018C36.8488 21.3804 36.7902 21.482 36.7642 21.5938C37.0082 22.6218 37.3452 23.6208 37.4672 24.6662C37.5543 25.1714 37.5775 25.5083 38.0191 25.4037Z" fill="black"/>
<path d="M35.5033 44.7902C35.5846 44.5812 35.9797 43.2802 35.0501 43.4196C34.1205 43.559 34.1147 44.5812 34.0624 45.2142C34.1554 45.9111 33.3246 46.7823 34.3529 46.7765C35.3813 46.7707 35.2302 45.5046 35.5033 44.7902Z" fill="black"/>
<path d="M47.0999 24.6256C47.1813 23.917 47.4253 23.2085 46.8792 23.0865C46.333 22.9645 46.0193 23.6034 46.0367 24.248C46.0367 24.5733 45.8566 24.7011 45.7579 24.9276C45.5313 25.4503 44.8806 26.0891 45.4441 26.5189C46.0077 26.9487 46.4957 26.0252 46.8617 25.4677C46.988 25.2024 47.0686 24.9177 47.0999 24.6256Z" fill="black"/>
<path d="M53.4501 26.5073C53.7084 26.1175 53.8606 25.6671 53.8916 25.2005C53.973 24.6198 54.1938 23.9461 53.5547 23.7544C52.782 23.5279 53.0202 24.5036 52.7587 24.8869C52.6019 25.1134 52.567 25.4677 52.4159 25.7C52.1371 26.1472 51.835 26.6699 52.3114 27.001C52.6658 27.2507 53.1247 26.9661 53.4501 26.5073Z" fill="black"/>
<path d="M48.1282 51.0626C47.7041 50.7489 48.564 49.5467 47.7099 49.6687C46.7455 49.8139 46.7629 51.109 46.4957 51.9918C46.3969 52.3112 46.1529 52.9268 46.7339 52.9501C47.7448 52.9617 47.7332 51.7827 48.1282 51.0626Z" fill="black"/>
<path d="M42.2952 48.2051C42.4114 47.5256 42.4811 46.6777 41.9815 46.8287C41.1216 47.0959 40.9996 48.4433 40.3315 49.1518C40.1223 49.3667 40.3315 49.7326 40.6568 49.7326C41.6794 49.8487 41.8363 48.7104 42.2952 48.2051Z" fill="black"/>
<path d="M30.4663 24.0681C30.4741 23.7015 30.3866 23.3392 30.2125 23.0165C30.0384 22.6938 29.7835 22.4218 29.4728 22.227C29.2171 22.076 29.0893 22.4767 29.1126 22.709C29.1881 23.6209 28.9325 24.7534 29.5948 25.3341C29.984 25.6884 30.3268 25.0438 30.4663 24.0681Z" fill="black"/>
<path d="M20.0432 40.9629C20.12 40.5845 20.0465 40.1911 19.8383 39.866C19.6301 39.5408 19.3036 39.3093 18.9277 39.2205C18.6605 39.1625 18.1376 39.4006 18.248 39.7374C18.492 40.4808 18.5269 41.4798 19.288 41.8108C19.7818 42.0083 20.0084 41.2997 20.0432 40.9629Z" fill="black"/>
<path d="M60.6774 56.098C60.811 55.4011 61.0376 54.3963 60.3404 54.2744C59.7594 54.1698 59.8175 55.2152 59.6549 55.8309C59.6549 56.4116 59.1378 57.3583 59.9337 57.5209C60.6309 57.6545 60.5554 56.673 60.6774 56.098Z" fill="black"/>
<path d="M61.9381 25.3747C62.6644 25.5606 63.0536 25.0262 63.1582 24.3467C63.2047 24.0505 63.4255 23.1852 62.9607 23.1852C61.88 23.1852 61.6418 23.8879 61.4211 24.579C61.2584 25.1831 61.5547 25.276 61.9381 25.3747Z" fill="black"/>
<path d="M21.4666 27.1287C21.3504 26.3504 21.0832 25.6535 20.3046 25.5664C19.9851 25.5316 19.7236 25.6303 19.683 25.9149C19.6655 26.3215 19.7738 26.7237 19.9932 27.0666C20.2125 27.4096 20.5323 27.6766 20.9089 27.8314C21.1703 27.9418 21.5305 27.5294 21.4666 27.1287Z" fill="black"/>
<path d="M26.0043 40.9512C26.2134 41.6482 26.1786 42.6471 26.9513 42.8562C27.2592 42.9433 27.6368 42.6703 27.6252 42.078C27.5265 41.3578 27.2999 40.7189 26.684 40.4634C26.3993 40.3356 25.9171 40.6609 26.0043 40.9512Z" fill="black"/>
<path d="M13.4782 28.7084C13.5086 28.5755 13.5101 28.4376 13.4827 28.3041C13.4552 28.1705 13.3994 28.0444 13.319 27.9343C13.2385 27.8242 13.1354 27.7326 13.0166 27.6658C12.8977 27.5989 12.7658 27.5584 12.6299 27.5468C12.049 27.4655 11.8979 28.0812 11.7236 28.5922C11.5493 29.1033 11.6829 29.4344 12.1594 29.3995C12.6358 29.3647 13.3213 29.3647 13.4782 28.7084Z" fill="black"/>
<path d="M189.72 77.0002C188.744 78.2663 187.814 79.6311 186.501 77.8772C186.159 77.9062 185.822 77.8191 185.665 77.9817C185.403 78.2489 185.613 78.638 185.665 78.9864C185.717 79.6892 186.205 79.846 186.548 80.1887C186.891 80.5313 187.507 80.7172 186.972 81.7161C186.531 82.535 186.856 83.261 187.82 82.9474C188.169 82.8312 188.547 82.5757 188.761 82.988C189.122 83.6733 189.47 83.5688 189.923 83.0693C190.504 82.3898 190.121 81.8671 189.755 81.4896C188.976 80.6881 189.215 79.9215 189.819 79.1258C190.059 78.7569 190.342 78.4176 190.661 78.1153C191.184 77.6913 190.905 77.1744 190.76 76.884C190.452 76.3439 189.999 76.6169 189.72 77.0002Z" fill="black"/>
<path d="M172.895 88.093C172.831 88.0408 172.732 88.0466 172.546 88.0001C171.022 88.6627 169.375 88.9971 167.712 88.9816C167.48 88.9816 167.288 89.3533 167.288 89.7134C167.27 89.8581 167.299 90.0049 167.371 90.1316C167.444 90.2583 167.555 90.3582 167.689 90.4162C168.072 90.4955 168.468 90.4955 168.851 90.4162C169.978 90.2942 171.216 89.4985 172.192 90.7704C172.279 90.8376 172.384 90.8769 172.494 90.8831C172.604 90.8893 172.713 90.8622 172.808 90.8053C173.551 90.1722 174.405 90.4452 175.19 90.1664C175.771 89.9631 176.352 90.0909 176.875 89.4637C177.153 89.1094 177.357 88.8016 177.153 88.3718C176.95 87.942 176.572 87.9072 176.16 88.1743C174.661 89.1094 174.156 89.0688 172.895 88.093Z" fill="black"/>
<path d="M84.6431 66.5984C84.7646 66.4322 84.8247 66.2291 84.813 66.0236C84.8014 65.8181 84.7187 65.623 84.5792 65.4717C84.1318 64.8909 83.6728 64.3101 83.1906 63.6945C83.4788 63.6057 83.7903 63.6324 84.0591 63.769C84.328 63.9055 84.5332 64.1412 84.6314 64.4263C84.98 65.129 85.6946 65.2161 86.0665 65.855C86.1121 65.9213 86.1724 65.9762 86.2427 66.0154C86.313 66.0546 86.3914 66.077 86.4718 66.081C86.5522 66.0849 86.6324 66.0702 86.7062 66.0381C86.78 66.0059 86.8454 65.9572 86.8973 65.8956C86.999 65.7477 87.0465 65.5693 87.0317 65.3904C87.0169 65.2115 86.9407 65.0433 86.816 64.9141C86.2834 64.1075 85.6617 63.3633 84.9626 62.6955C84.463 62.3064 83.638 61.3191 83.0918 62.4981C82.7374 63.2647 82.5573 63.2589 82.0519 63.0789C81.8369 63.0034 81.4709 62.8349 81.3605 63.2008C81.3238 63.3454 81.3162 63.4959 81.3382 63.6434C81.3601 63.791 81.4112 63.9327 81.4883 64.0604C82.2146 64.949 82.7897 66.006 83.76 66.61C84.1144 66.8191 84.3351 67.0282 84.6431 66.5984Z" fill="black"/>
<path d="M117.614 76.9073C119.046 76.4978 120.582 76.6668 121.89 77.3777C122.075 77.4593 122.277 77.496 122.479 77.4849C122.681 77.4738 122.877 77.4152 123.052 77.3139C123.47 77.1396 123.476 76.8202 123.517 76.4717C123.563 76.0187 123.255 76.0129 123.011 75.978C122.076 75.827 121.268 75.1127 120.205 75.2753C119.345 74.7816 118.416 75.1591 117.469 75.3973C117.004 75.5134 116.667 75.7109 116.702 76.2801C116.737 76.8492 117.033 77.0293 117.614 76.9073Z" fill="black"/>
<path d="M167.41 85.0091C167.231 85.0956 167.084 85.2367 166.99 85.412C166.896 85.5873 166.86 85.7878 166.887 85.9848C166.969 86.4843 167.265 86.432 167.683 86.3565C169.426 86.0487 170.983 85.0904 172.651 84.5271C172.814 84.4595 172.957 84.3496 173.064 84.2088C173.171 84.068 173.239 83.9012 173.261 83.7256C173.348 83.2377 173.336 82.8719 172.912 82.8835C172.732 82.8835 172.633 82.8254 172.563 82.8835C170.946 83.8148 169.214 84.5295 167.41 85.0091Z" fill="black"/>
<path d="M170.269 92.4199C169.775 92.5186 169.107 92.4547 169.06 93.0471C169.014 93.6395 169.676 93.6976 170.147 93.7498C171.857 93.921 173.581 93.6197 175.132 92.8787C175.416 92.7335 175.782 92.5186 175.544 92.0714C175.37 91.7461 175.277 91.0376 174.713 91.4441C173.29 92.4489 171.745 92.1178 170.269 92.4199Z" fill="black"/>
<path d="M97.599 77.2789C96.3034 76.158 95.2751 74.5318 93.5321 74.2473C93.2532 74.1834 92.8756 74.0149 92.7071 74.4215C92.6311 74.6264 92.6322 74.8519 92.7102 75.056C92.7883 75.2601 92.9379 75.4288 93.1312 75.5308C94.4924 76.1921 95.6608 77.1921 96.5242 78.4347C96.5917 78.5156 96.6777 78.5792 96.7748 78.6202C96.8719 78.6612 96.9774 78.6784 97.0825 78.6705C97.1876 78.6625 97.2893 78.6296 97.3792 78.5744C97.469 78.5193 97.5444 78.4435 97.599 78.3534C97.7399 78.21 97.8188 78.0171 97.8188 77.8161C97.8188 77.6152 97.7399 77.4223 97.599 77.2789Z" fill="black"/>
<path d="M135.09 78.3593C135.25 78.2753 135.375 78.1384 135.445 77.9721C135.515 77.8058 135.525 77.6203 135.473 77.4474C135.45 77.2737 135.36 77.1159 135.222 77.0074C135.085 76.899 134.91 76.8485 134.736 76.8667C133.324 77.0757 131.831 77.2848 130.361 77.5288C130.216 77.5725 130.089 77.6616 129.999 77.7829C129.909 77.9043 129.861 78.0514 129.861 78.2025C129.786 78.7832 130.21 78.6439 130.442 78.7484C131.226 79.091 132.133 78.4522 132.853 78.8587C133.736 79.364 134.37 78.6438 135.09 78.3593Z" fill="black"/>
<path d="M121.1 89.7308C121.297 88.9351 120.74 88.8306 120.246 88.7551C119.948 88.7062 119.664 88.5976 119.409 88.4357C118.489 87.8796 117.541 87.3717 116.568 86.914C116.313 86.7921 115.865 86.5655 115.714 87.2276C115.633 87.5819 115.551 87.9304 115.941 88.1336C117.271 88.8306 118.456 89.876 120.008 90.3696C120.321 90.2361 120.92 90.4219 121.1 89.7308Z" fill="black"/>
<path d="M152.81 94.9637C152.781 95.0536 152.77 95.1486 152.778 95.2429C152.786 95.3371 152.813 95.4288 152.858 95.5123C152.902 95.5958 152.963 95.6695 153.037 95.7289C153.111 95.7884 153.196 95.8323 153.287 95.8581C154.733 95.951 155.959 96.8164 157.162 97.1997C157.801 97.1997 158.44 97.6353 158.661 96.7583C158.701 96.5219 158.649 96.2791 158.517 96.0794C158.384 95.8797 158.18 95.7382 157.946 95.6839C156.54 95.2947 155.14 94.8882 153.728 94.5223C153.548 94.4608 153.35 94.4726 153.179 94.5552C153.007 94.6377 152.875 94.7845 152.81 94.9637Z" fill="black"/>
<path d="M139.058 83.3539C137.635 83.7372 136.194 83.11 134.695 82.9706C134.317 82.9358 133.934 82.9706 133.847 83.4701C133.76 83.9695 134.097 84.167 134.469 84.2251C135.033 84.2629 135.591 84.3582 136.136 84.5097C137.106 84.8756 138.065 85.2124 139.116 84.9336C139.333 84.9027 139.535 84.8041 139.693 84.6518C139.85 84.4995 139.956 84.3014 139.994 84.0857C140.046 83.4991 139.587 83.412 139.058 83.3539Z" fill="black"/>
<path d="M114.128 89.8644C112.589 89.4114 111.374 88.2499 109.98 87.4774C109.713 87.3322 109.457 87.5646 109.289 87.8201C109.231 87.9316 109.212 88.0585 109.233 88.1821C109.254 88.3056 109.314 88.419 109.405 88.5054C110.48 89.8935 111.92 90.5439 113.059 91.1131C113.727 91.3338 114.07 91.2351 114.273 90.8227C114.477 90.4104 114.424 89.9748 114.128 89.8644Z" fill="black"/>
<path d="M157.429 93.7323C157.464 94.0982 157.894 94.4931 158.173 94.3828C159.288 93.9356 160.154 94.7487 161.147 94.8997L161.531 94.9636C161.681 95.0059 161.838 95.0136 161.992 94.9862C162.145 94.9587 162.29 94.8968 162.416 94.805C162.542 94.7133 162.645 94.5942 162.719 94.4566C162.792 94.3191 162.832 94.1668 162.838 94.0111C162.943 93.1922 162.222 93.5813 161.879 93.4303C161.537 93.2793 161.211 93.2619 160.909 93.0935C160.484 92.8775 160.019 92.752 159.543 92.725C159.067 92.698 158.59 92.7701 158.144 92.9367C157.836 93.0006 157.383 93.2677 157.429 93.7323Z" fill="black"/>
<path d="M125.707 92.2224C124.476 92.1817 123.447 91.2757 122.326 91.3454C121.745 91.2524 121.257 91.1595 120.786 91.1073C120.554 91.1073 120.205 90.8866 120.141 91.3454C120.114 91.4889 120.142 91.6373 120.22 91.7611C120.297 91.8849 120.419 91.9749 120.56 92.0133C122.169 92.5941 123.767 93.2155 125.393 93.715C125.794 93.8369 126.358 93.715 126.463 92.8961C126.567 92.0772 126.033 92.234 125.707 92.2224Z" fill="black"/>
<path d="M139.604 90.875C140.026 90.9617 140.458 90.9968 140.888 90.9796C141.301 90.9157 141.766 90.7647 141.754 90.0387C141.742 89.3127 141.202 89.4579 140.888 89.487C140.494 89.4968 140.101 89.4378 139.726 89.3127C138.7 89.0571 137.651 88.8977 136.595 88.8365C136.434 88.8066 136.268 88.8393 136.131 88.9278C135.994 89.0164 135.896 89.1541 135.857 89.3127C135.836 89.3936 135.833 89.4783 135.85 89.5602C135.866 89.6422 135.901 89.7193 135.953 89.7855C136.004 89.8517 136.069 89.9053 136.144 89.9422C136.219 89.979 136.302 89.9982 136.386 89.9981C137.519 89.9748 138.483 90.7705 139.604 90.875Z" fill="black"/>
<path d="M147.151 88.8539C147.732 89.0746 148.313 89.5044 148.61 88.4996C148.935 87.3961 148.174 87.3381 147.564 87.1929C146.402 87.2568 145.24 87.2858 144.078 87.402C143.956 87.4035 143.836 87.429 143.724 87.4772C143.612 87.5254 143.511 87.5952 143.426 87.6827C143.341 87.7701 143.275 87.8735 143.23 87.9868C143.185 88.1001 143.163 88.2211 143.166 88.3428C143.218 88.9236 143.665 88.9236 144.188 88.7958C145.157 88.5034 146.194 88.5237 147.151 88.8539Z" fill="black"/>
<path d="M158.463 87.8955C158.382 87.6632 158.086 87.5471 158.045 87.5122C156.575 87.4135 155.279 87.6226 154.007 87.3496C153.502 87.2334 153.083 87.669 152.932 88.2962C152.833 88.7028 153.043 89.15 153.345 89.1035C154.908 88.8654 156.488 89.2662 158.033 88.575C158.254 88.4821 158.585 88.2324 158.463 87.8955Z" fill="black"/>
<path d="M166.417 75.8154C168.058 75.1353 169.617 74.2723 171.065 73.2426C171.289 73.1157 171.462 72.9147 171.554 72.6742C171.647 72.4336 171.652 72.1684 171.57 71.9242C171.344 71.4422 170.827 71.5002 170.408 71.9242C169.415 72.9638 168.183 73.4633 167.062 74.1951C166.487 74.5784 166.347 74.9791 166.417 75.8154Z" fill="black"/>
<path d="M156.023 90.8633L154.658 90.6484C153.943 90.3116 152.99 90.5846 152.043 90.7065C151.847 90.7185 151.663 90.8077 151.533 90.9546C151.402 91.1016 151.335 91.2943 151.346 91.4906C151.346 91.8855 151.427 92.1759 151.729 92.1004C153.164 91.7635 154.524 92.5476 155.959 92.1468C156.331 92.0423 156.726 91.8448 156.767 91.4441C156.825 90.904 156.354 90.9214 156.023 90.8633Z" fill="black"/>
<path d="M116.481 79.4626L114.837 79.2013C114.733 79.1726 114.624 79.1683 114.519 79.1887C114.413 79.2091 114.314 79.2537 114.228 79.3189C114.143 79.3842 114.073 79.4683 114.026 79.5648C113.978 79.6613 113.954 79.7674 113.954 79.875C113.873 80.4557 114.169 80.7636 114.616 80.7578C115.75 80.7201 116.874 80.9804 117.876 81.5128C118.271 81.7218 119.003 81.3618 119.194 80.7519C119.386 80.1421 118.718 80.2873 118.457 80.0608C117.829 79.5207 117.074 79.6078 116.481 79.4626Z" fill="black"/>
<path d="M164.093 92.1062C164.691 92.0842 165.26 91.8374 165.685 91.4151C165.76 90.7066 165.51 90.3 165.069 90.3813C163.907 90.6078 162.844 90.2303 161.734 90.1838C161.362 90.1838 160.787 90.1838 160.758 90.9214C160.729 91.659 161.31 92.0423 161.653 91.961C162.512 91.7636 163.274 92.1701 164.093 92.1062Z" fill="black"/>
<path d="M108.539 83.6675C108.754 83.0868 108.318 82.8719 108.074 82.7673C106.912 82.2679 105.75 81.8671 104.699 81.4606C104.158 81.4141 103.653 81.1237 103.333 81.8206C103.284 81.9364 103.28 82.0662 103.321 82.1851C103.361 82.3041 103.444 82.4038 103.554 82.4653C104.921 83.0616 106.298 83.6424 107.685 84.2077C108.045 84.3238 108.37 84.1322 108.539 83.6675Z" fill="black"/>
<path d="M141.144 93.8194C141.329 93.6525 141.455 93.4306 141.504 93.1864C141.597 92.7276 141.26 92.7334 141.016 92.6869C140.243 92.5534 139.476 92.4198 138.692 92.3152C137.815 92.1991 136.914 91.7809 136.089 92.7044C136.903 93.744 140.203 94.4873 141.144 93.8194Z" fill="black"/>
<path d="M124.958 87.2742C125.056 86.6295 124.865 86.2695 124.336 86.1823L122.407 85.8803C121.722 85.77 121.036 85.6538 120.345 85.5609C119.938 85.5086 119.665 85.7526 119.578 86.2404C119.473 86.8212 119.891 86.7631 120.159 86.8212C121.486 86.9878 122.792 87.2994 124.051 87.7505C124.371 87.8376 124.841 88.0641 124.958 87.2742Z" fill="black"/>
<path d="M150.968 93.413C151.172 92.8323 150.585 92.7509 150.289 92.5535C149.127 91.8043 147.785 92.2631 146.535 92.0889C146.437 92.071 146.335 92.079 146.24 92.1121C146.146 92.1452 146.061 92.2022 145.995 92.2777C145.929 92.3531 145.883 92.4444 145.863 92.5426C145.843 92.6408 145.848 92.7426 145.879 92.838C145.984 93.2794 146.373 93.6453 146.75 93.5408C147.229 93.4119 147.731 93.3999 148.215 93.5059C148.795 93.3665 149.173 93.9589 149.725 94.0867C149.979 94.1518 150.248 94.1186 150.479 93.9936C150.709 93.8687 150.884 93.6613 150.968 93.413Z" fill="black"/>
<path d="M166.068 79.5963C165.901 79.6674 165.762 79.7938 165.677 79.9545C165.591 80.1151 165.563 80.3003 165.598 80.479C165.743 81.0598 166.12 80.723 166.457 80.6591C168.293 80.3222 169.943 79.3175 171.686 77.9526C169.554 77.8539 167.805 78.7077 166.068 79.5963Z" fill="black"/>
<path d="M88.5648 68.486C88.3905 69.2178 89.0819 69.1771 89.4247 69.4792C90.058 70.0599 90.8888 70.2458 91.3826 71.0356C91.7835 71.6745 92.2773 71.4015 92.5794 70.9021C92.7379 70.6914 92.8066 70.4267 92.7707 70.1657C92.7348 69.9046 92.5971 69.6683 92.3877 69.5082C91.5453 68.9971 90.6447 68.5557 89.8139 68.0911C89.3608 68.2305 88.7565 67.6613 88.5648 68.486Z" fill="black"/>
<path d="M147.576 79.3466C147.744 78.5393 146.815 78.3709 146.286 78.0573C146.01 77.9645 145.722 77.9136 145.432 77.9062C144.851 77.9062 144.014 77.9062 143.195 77.9062C142.852 77.9062 142.614 78.1444 142.538 78.5683C142.428 79.1491 142.823 79.0968 143.119 79.1491C144.107 79.3175 145.089 79.5034 146.088 79.6137C146.588 79.6602 147.407 80.1481 147.576 79.3466Z" fill="black"/>
<path d="M149.452 83.6501C149.632 82.5698 148.464 82.6047 147.535 82.4188C146.828 82.2829 146.097 82.3786 145.449 82.6918C145.1 82.837 144.688 82.9125 144.729 83.4294C144.769 83.9463 145.153 83.9637 145.507 84.0566C146.193 84.2366 146.872 83.8766 147.57 84.0043C148.267 84.1321 149.254 84.8813 149.452 83.6501Z" fill="black"/>
<path d="M82.813 69.8101C82.8894 69.7131 82.9417 69.5994 82.9658 69.4783C82.9899 69.3572 82.9851 69.2321 82.9517 69.1132C82.9183 68.9943 82.8572 68.885 82.7736 68.7942C82.6899 68.7034 82.5859 68.6336 82.4702 68.5905C81.7793 68.1309 81.2285 67.4899 80.8783 66.7378C80.6858 66.3162 80.3561 65.9723 79.9429 65.7621C79.8267 65.8492 79.5362 65.9479 79.4316 66.1628C79.3317 66.3049 79.2734 66.472 79.2631 66.6453C79.2528 66.8187 79.2911 66.9915 79.3735 67.1443C80.0156 68.1471 80.7982 69.0527 81.6975 69.8334C82.1274 70.1528 82.476 70.3619 82.813 69.8101Z" fill="black"/>
<path d="M105.779 80.7985C105.965 80.4558 105.959 79.968 105.663 79.8344C104.699 79.4046 104.048 78.4986 103.269 77.7842C103.132 77.6425 102.943 77.5614 102.745 77.5587C102.547 77.5559 102.357 77.6318 102.215 77.7697C102.073 77.9076 101.992 78.0961 101.989 78.2938C101.987 78.4915 102.063 78.6821 102.2 78.8238C102.985 79.7473 103.734 80.7462 104.827 81.1469C104.999 81.2262 105.196 81.2341 105.375 81.1688C105.553 81.1035 105.699 80.9704 105.779 80.7985Z" fill="black"/>
<path d="M89.9649 73.9685C90.0462 73.9685 90.3425 74.1137 90.604 73.5736C90.7957 73.1728 90.697 72.9928 90.482 72.8244C89.5871 72.2121 88.8697 71.3747 88.4021 70.3967C88.3264 70.255 88.1996 70.1474 88.0475 70.0957C87.8954 70.0439 87.7293 70.0519 87.5829 70.118C87.2052 70.2399 87.2575 70.6987 87.2517 71.053C87.3207 71.7695 87.6238 72.4432 88.1142 72.9702C88.6047 73.4972 89.2551 73.848 89.9649 73.9685Z" fill="black"/>
<path d="M114.628 85.9557C114.843 85.8918 115.046 85.9557 115.133 85.6015C115.22 85.2472 114.988 85.0788 114.791 84.8987C114.134 84.318 113.292 84.5851 112.699 84.347C111.973 84.2308 111.374 84.1205 110.776 84.0508C110.456 84.0101 110.119 84.0856 110.195 84.6316C110.195 84.8348 109.881 85.2123 110.253 85.2123C111.729 85.2878 113.048 86.4029 114.628 85.9557Z" fill="black"/>
<path d="M162.199 74.1776C162.071 73.7362 161.728 73.5445 161.362 73.7885C160.241 74.5261 158.992 74.7293 157.824 75.2578C157.638 75.3392 157.365 75.2985 157.336 75.6876C157.406 76.0709 157.597 76.3381 157.917 76.3265C159.288 76.2742 160.607 75.7457 161.932 75.2927C162.309 75.1707 162.309 74.5667 162.199 74.1776Z" fill="black"/>
<path d="M121.588 82.9415C121.338 83.0809 120.821 83.5862 121.483 83.8823C122.711 84.4371 124.046 84.7147 125.393 84.6954C125.783 84.6954 126.038 84.3063 126.009 83.8185C126.009 83.4177 125.748 83.0344 125.428 83.1622C124.458 83.5513 123.685 83.0634 122.843 82.6743C122.413 82.697 121.99 82.7872 121.588 82.9415Z" fill="black"/>
<path d="M125.713 90.12C125.649 90.5266 125.713 91.1422 126.172 91.2816C126.875 91.4674 127.45 92.0947 128.118 91.9553C128.746 92.0308 129.234 92.2224 129.768 91.9088C129.879 91.8571 129.973 91.7751 130.038 91.6723C130.104 91.5695 130.14 91.4501 130.14 91.328C130.14 91.0493 130.001 90.9912 129.838 90.9331C128.752 90.544 127.671 90.1375 126.585 89.7716C126.253 89.6612 125.794 89.6031 125.713 90.12Z" fill="black"/>
<path d="M113.222 82.7498C113.582 82.8079 113.936 82.413 114.198 81.6231C112.757 81.716 111.665 80.7635 110.346 80.7287C109.957 80.7287 109.48 80.5545 109.312 81.0946C109.143 81.6347 109.707 81.7683 109.986 81.9948C110.944 82.7789 112.129 82.5814 113.222 82.7498Z" fill="black"/>
<path d="M162.478 84.2773C162.582 83.29 161.484 83.9811 161.089 83.563C160.351 83.6036 159.701 83.1622 158.98 83.563C158.736 83.7023 158.434 83.772 158.399 84.1437C158.364 84.5154 158.614 84.7245 158.905 84.8988C159.486 85.2182 160.067 85.0091 160.648 85.1427C161.374 85.3285 162.35 85.3808 162.478 84.2773Z" fill="black"/>
<path d="M132.691 88.2324C132.894 87.4832 132.174 87.2915 131.744 87.0708C131.125 86.6792 130.418 86.4495 129.687 86.403C129.497 86.4101 129.314 86.4751 129.163 86.5894C129.011 86.7036 128.898 86.8615 128.839 87.0418C128.822 87.2305 128.866 87.4196 128.966 87.5808C129.065 87.742 129.214 87.8667 129.391 87.9362C130.024 88.1859 130.675 88.395 131.261 88.5983C131.808 88.5693 132.47 89.0339 132.691 88.2324Z" fill="black"/>
<path d="M125.945 81.722C125.684 82.8254 126.799 83.0461 127.526 83.0984C128.252 83.1507 129.321 84.0451 129.565 82.7383C129.855 81.1702 128.403 82.0007 127.793 81.5129C127.136 81.7394 126.172 80.7927 125.945 81.722Z" fill="black"/>
<path d="M163.878 94.5397C163.518 94.6384 162.931 94.6443 163.024 95.4515C163.088 96.0323 163.361 96.3576 163.901 96.4156C164.575 96.2414 165.255 96.102 165.923 95.8813C166.324 95.7536 166.44 95.3005 166.446 94.8591C166.446 94.1971 165.964 94.3539 165.673 94.3481C165.069 94.3267 164.464 94.3912 163.878 94.5397Z" fill="black"/>
<path d="M161.728 79.8925C161.949 79.6834 162.396 79.5557 162.216 79.1085C162.147 78.9817 162.043 78.8775 161.916 78.8085C161.79 78.7395 161.646 78.7085 161.502 78.7193C160.578 78.6729 159.759 79.0968 158.893 79.4047C158.562 79.5266 157.981 79.4047 157.998 80.0493C157.998 80.5778 158.498 80.6301 158.841 80.6708C159.839 80.5688 160.814 80.306 161.728 79.8925Z" fill="black"/>
<path d="M100.185 72.5514C98.9877 71.1459 97.8954 70.722 96.9659 71.2272C96.5592 71.4479 96.2048 71.7035 96.594 72.2552C97.1983 73.1322 99.2549 73.3122 100.185 72.5514Z" fill="black"/>
<path d="M91.121 67.458C90.9583 67.853 91.2953 68.2363 91.5974 68.4105C92.3639 68.8652 93.1597 69.2688 93.9795 69.6185C94.0615 69.6363 94.1464 69.636 94.2283 69.6179C94.3102 69.5997 94.3873 69.564 94.4541 69.5132C94.5209 69.4624 94.5759 69.3978 94.6153 69.3237C94.6547 69.2497 94.6776 69.168 94.6825 69.0842C94.7289 68.7241 94.8509 68.3989 94.421 68.2188C93.6774 67.9052 92.9627 67.4987 92.4805 67.2548C91.8182 67.2083 91.3418 66.9237 91.121 67.458Z" fill="black"/>
<path d="M76.7067 63.6365C76.7997 63.0558 75.4983 61.116 74.9638 60.9766C74.884 60.9559 74.8009 60.9513 74.7194 60.9633C74.6378 60.9753 74.5595 61.0035 74.4891 61.0463C74.4186 61.0891 74.3575 61.1456 74.3093 61.2124C74.2611 61.2792 74.2268 61.3551 74.2085 61.4354C74.0051 62.0162 75.4053 64.2696 75.9514 64.3393C76.3639 64.3741 76.6312 64.1302 76.7067 63.6365Z" fill="black"/>
<path d="M152.258 76.7389C152.114 76.7286 151.969 76.7493 151.834 76.7996C151.699 76.8499 151.576 76.9286 151.473 77.0304C151.371 77.1322 151.292 77.2548 151.241 77.3898C151.189 77.5249 151.168 77.6693 151.177 77.8133C151.177 78.5045 151.857 78.3128 152.217 78.2431C152.578 78.1734 152.897 78.2025 153.228 78.1502C153.809 78.0457 154.762 79.0214 154.971 77.9121C155.105 77.1513 153.989 76.9944 153.286 76.8841H153.159C152.864 76.808 152.562 76.7594 152.258 76.7389Z" fill="black"/>
<path d="M166.545 82.1168C165.964 82.384 165.052 82.6976 165.237 83.5049C165.493 84.6025 166.306 83.7256 166.876 83.5513C167.445 83.3771 168.166 83.2087 168.462 82.3259C168.398 81.8554 168.375 81.3502 167.776 81.5999C167.358 81.7625 166.951 81.9368 166.545 82.1168Z" fill="black"/>
<path d="M146.524 95.0159C146.101 94.6297 145.574 94.3772 145.008 94.2899C144.653 94.0866 144.281 94.4177 143.904 94.4177C143.613 94.4177 143.294 94.499 143.259 94.8068C143.212 95.2192 143.538 95.3876 143.84 95.3876C144.577 95.4393 145.277 95.731 145.833 96.2181C146.251 96.5608 146.466 96.3575 146.774 95.9103C147.244 95.2946 146.745 95.1553 146.524 95.0159Z" fill="black"/>
<path d="M106.459 76.0361C106.302 76.5413 106.866 76.733 107.156 76.9131C107.708 77.2557 108.417 77.0524 108.975 77.5229C109.219 77.7261 109.556 77.308 109.724 77.0118C109.893 76.7156 109.614 76.4833 109.399 76.3613C108.818 76.0186 108.202 75.6934 107.604 75.3624C107.363 75.3052 107.109 75.3434 106.896 75.469C106.682 75.5945 106.526 75.7978 106.459 76.0361Z" fill="black"/>
<path d="M132.052 91.4674C131.895 91.961 132.278 92.0888 132.545 92.3501C133.126 92.9309 133.766 92.5186 134.37 92.5883C134.453 92.6 134.537 92.5937 134.617 92.5698C134.697 92.5459 134.771 92.505 134.834 92.4498C134.897 92.3947 134.947 92.3266 134.982 92.2502C135.016 92.1739 135.033 92.0911 135.032 92.0075C135.038 91.7937 134.977 91.5835 134.857 91.4064C134.737 91.2293 134.565 91.0942 134.364 91.0201C133.835 91.3802 133.336 91.1247 132.836 91.0608C132.678 91.0189 132.51 91.0373 132.365 91.1124C132.22 91.1876 132.108 91.3142 132.052 91.4674Z" fill="black"/>
<path d="M154.28 84.2889C154.524 83.7081 154.001 83.5281 153.699 83.2551C153.436 82.9654 153.078 82.7789 152.689 82.7288C152.301 82.6788 151.907 82.7686 151.579 82.9822C151.497 83.0286 151.329 83.0983 151.422 83.3365C151.776 84.2192 152.52 84.347 152.95 84.5445C153.635 84.7071 154.071 84.8 154.28 84.2889Z" fill="black"/>
<path d="M78.7405 60.7094C78.6998 59.5478 77.7295 59.7627 77.1602 59.3039C76.8813 59.5188 76.3875 58.967 76.3119 59.6814C76.1667 61.0811 77.3112 60.9359 77.9213 61.3831C78.2873 61.6444 78.7637 61.2611 78.7405 60.7094Z" fill="black"/>
<path d="M209.787 67.3882C209.857 66.941 209.787 66.4648 209.369 66.459C209.106 66.4606 208.853 66.5594 208.659 66.7363C208.465 66.9133 208.343 67.1559 208.317 67.4173C208.277 67.7309 208.358 68.2362 208.864 68.2652C209.369 68.2942 209.694 68.0445 209.787 67.3882Z" fill="black"/>
<path d="M213.279 69.7404C213.279 69.3048 213.279 68.6602 212.698 68.5789C212.117 68.4976 211.978 68.7938 211.844 69.421C211.711 70.0482 212.117 70.2631 212.477 70.3909C212.838 70.5187 213.285 70.0192 213.279 69.7404Z" fill="black"/>
</svg>
