<svg viewBox="0 0 32 32" fill="none" xmlns="http://www.w3.org/2000/svg">
<path fill-rule="evenodd" clip-rule="evenodd" d="M15 6C15 5.44772 15.4477 5 16 5C16.5523 5 17 5.44772 17 6V9.07089C17.5568 9.15054 18.0926 9.29573 18.5991 9.49838L20.134 6.83972C20.4102 6.36143 21.0218 6.19755 21.5001 6.47369C21.9784 6.74984 22.1422 7.36143 21.8661 7.83972L20.3303 10.4998C20.7648 10.8423 21.1577 11.2353 21.5003 11.6698L24.1603 10.134C24.6386 9.85783 25.2502 10.0217 25.5264 10.5C25.8025 10.9783 25.6386 11.5899 25.1603 11.866L22.5016 13.401C22.7043 13.9075 22.8495 14.4432 22.9291 15H26C26.5523 15 27 15.4477 27 16C27 16.5523 26.5523 17 26 17H22.9291C22.8495 17.5568 22.7043 18.0926 22.5016 18.5991L25.1602 20.134C25.6385 20.4101 25.8023 21.0217 25.5262 21.5C25.25 21.9783 24.6385 22.1422 24.1602 21.866L21.5002 20.3303C21.1577 20.7648 20.7648 21.1577 20.3303 21.5002L21.8661 24.1602C22.1422 24.6385 21.9784 25.2501 21.5001 25.5263C21.0218 25.8024 20.4102 25.6385 20.134 25.1602L18.5991 22.5016C18.0926 22.7043 17.5569 22.8495 17 22.9291V26C17 26.5523 16.5523 27 16 27C15.4477 27 15 26.5523 15 26V22.9291C14.4432 22.8495 13.9075 22.7043 13.401 22.5016L11.8661 25.1602C11.5899 25.6385 10.9784 25.8024 10.5001 25.5263C10.0218 25.2501 9.85789 24.6385 10.134 24.1602L11.6698 21.5003C11.2353 21.1577 10.8423 20.7648 10.4998 20.3303L7.83983 21.866C7.36154 22.1422 6.74995 21.9783 6.47381 21.5C6.19767 21.0217 6.36154 20.4101 6.83983 20.134L9.49839 18.5991C9.29573 18.0926 9.15054 17.5568 9.07089 17H6C5.44772 17 5 16.5523 5 16C5 15.4477 5.44772 15 6 15H9.07089C9.15054 14.4432 9.29571 13.9075 9.49835 13.401L6.83966 11.866C6.36137 11.5899 6.19749 10.9783 6.47363 10.5C6.74977 10.0217 7.36137 9.85783 7.83966 10.134L10.4997 11.6698C10.8423 11.2352 11.2352 10.8423 11.6698 10.4997L10.134 7.83972C9.85789 7.36143 10.0218 6.74984 10.5001 6.47369C10.9784 6.19755 11.5899 6.36143 11.8661 6.83972L13.401 9.49835C13.9075 9.29571 14.4432 9.15053 15 9.07089V6ZM16 11C18.7614 11 21 13.2386 21 16C21 18.7614 18.7614 21 16 21C13.2386 21 11 18.7614 11 16C11 13.2386 13.2386 11 16 11Z" fill="currentColor" fill-opacity="0.4"/>
</svg>
