<svg viewBox="0 0 489.059 489.059" fill="none" width="32px" height="32px" style="padding: 6px;" xmlns="http://www.w3.org/2000/svg">
  <defs>
    <linearGradient id="paint0_linear" x1="10.4999" y1="10" x2="28.9999" y2="27" gradientUnits="userSpaceOnUse">
      <stop stop-opacity="0.8" stop-color="var(--text-color-hover)" />
      <stop offset="1" stop-opacity="0.4" stop-color="var(--text-color-hover)" />
    </linearGradient>
  </defs>
  <g opacity="0.5">
    <path d="M481.211,443.368L224.809,186.946l55.817-17.364c3.88-1.196,6.736-4.509,7.38-8.528c0.642-4.018-1.058-8.051-4.383-10.385
    	l-56.798-40.165c-9.814-6.913-15.56-18.2-15.417-30.172l0.916-69.519c0.051-4.06-2.23-7.796-5.837-9.647
    	c-3.608-1.844-7.976-1.483-11.225,0.962l-55.73,41.584c-9.588,7.163-22.117,9.136-33.439,5.294L40.246,26.678
    	c-3.848-1.315-8.118-0.322-11.007,2.55c-2.868,2.872-3.847,7.138-2.563,10.987l22.376,65.862c3.8,11.343,1.828,23.837-5.325,33.438
    	L2.131,195.245c-2.418,3.272-2.819,7.628-0.977,11.236c1.859,3.633,5.599,5.887,9.688,5.84l69.502-0.898
    	c11.971-0.153,23.244,5.582,30.174,15.366l40.149,56.807c2.373,3.32,6.401,5.021,10.412,4.387c4.025-0.632,7.314-3.497,8.518-7.378
    	l17.375-55.805l256.389,256.422c5.243,5.221,12.094,7.836,18.908,7.836c6.885,0,13.73-2.615,18.943-7.836
    	C491.671,470.772,491.671,453.826,481.211,443.368z" fill="url(#paint0_linear)" />
  </g>
</svg>
