<svg viewBox="0 0 34 32" fill="none" xmlns="http://www.w3.org/2000/svg">
<path opacity="0.6" d="M6 7H22C24.8284 7 26.2426 7 27.1213 7.87868C28 8.75736 28 10.1716 28 13V25H12C9.17157 25 7.75736 25 6.87868 24.1213C6 23.2426 6 21.8284 6 19V7Z" fill="#7F64FF"/>
<g filter="url(#filter0_d)">
<path d="M26.2756 21.6208C26.3042 21.4777 26.3185 21.4062 26.3257 21.3807C26.5165 20.6989 27.483 20.6989 27.6739 21.3807C27.681 21.4062 27.6953 21.4777 27.7239 21.6208C27.7377 21.6898 27.7446 21.7243 27.752 21.7558C27.9252 22.4964 28.5034 23.0747 29.244 23.2478C29.2755 23.2552 29.31 23.2621 29.3791 23.2759C29.5221 23.3045 29.5936 23.3188 29.6191 23.326C30.3009 23.5168 30.3009 24.4833 29.6191 24.6742C29.5936 24.6813 29.5221 24.6956 29.3791 24.7242C29.31 24.738 29.2755 24.7449 29.244 24.7523C28.5034 24.9255 27.9252 25.5037 27.752 26.2443C27.7446 26.2758 27.7377 26.3103 27.7239 26.3794C27.6953 26.5224 27.681 26.594 27.6739 26.6194C27.483 27.3012 26.5165 27.3012 26.3257 26.6194C26.3185 26.594 26.3042 26.5224 26.2756 26.3794C26.2618 26.3103 26.2549 26.2758 26.2475 26.2443C26.0744 25.5037 25.4961 24.9255 24.7555 24.7523C24.724 24.7449 24.6895 24.738 24.6204 24.7242C24.4774 24.6956 24.4059 24.6813 24.3804 24.6742C23.6986 24.4833 23.6986 23.5168 24.3804 23.326C24.4059 23.3188 24.4774 23.3045 24.6204 23.2759C24.6895 23.2621 24.724 23.2552 24.7555 23.2478C25.4961 23.0747 26.0744 22.4964 26.2475 21.7558C26.2549 21.7243 26.2618 21.6898 26.2756 21.6208Z" fill="#5531FF"/>
</g>
<g filter="url(#filter1_d)">
<path d="M6.27562 5.62075C6.30423 5.4777 6.31853 5.40617 6.32566 5.38071C6.51647 4.69893 7.48304 4.69893 7.67385 5.38071C7.68098 5.40617 7.69528 5.4777 7.72389 5.62075C7.7377 5.6898 7.74461 5.72432 7.75197 5.75579C7.92515 6.49639 8.50342 7.07466 9.24402 7.24785C9.2755 7.25521 9.31002 7.26211 9.37907 7.27592C9.52212 7.30453 9.59365 7.31884 9.6191 7.32596C10.3009 7.51678 10.3009 8.48335 9.6191 8.67416C9.59365 8.68128 9.52212 8.69559 9.37907 8.7242C9.31002 8.73801 9.2755 8.74491 9.24402 8.75227C8.50342 8.92546 7.92515 9.50373 7.75197 10.2443C7.74461 10.2758 7.7377 10.3103 7.72389 10.3794C7.69528 10.5224 7.68098 10.594 7.67385 10.6194C7.48304 11.3012 6.51647 11.3012 6.32566 10.6194C6.31853 10.594 6.30423 10.5224 6.27562 10.3794C6.26181 10.3103 6.2549 10.2758 6.24754 10.2443C6.07436 9.50373 5.49609 8.92546 4.75549 8.75227C4.72401 8.74491 4.68949 8.73801 4.62045 8.7242C4.47739 8.69559 4.40587 8.68128 4.38041 8.67416C3.69862 8.48335 3.69862 7.51678 4.38041 7.32596C4.40587 7.31884 4.47739 7.30453 4.62045 7.27592C4.68949 7.26211 4.72401 7.25521 4.75549 7.24785C5.49609 7.07466 6.07436 6.49639 6.24754 5.75579C6.2549 5.72432 6.26181 5.6898 6.27562 5.62075Z" fill="#5531FF"/>
</g>
<defs>
<filter id="filter0_d" x="20.8691" y="18.8694" width="12.2614" height="12.2614" filterUnits="userSpaceOnUse" color-interpolation-filters="sRGB">
<feFlood flood-opacity="0" result="BackgroundImageFix"/>
<feColorMatrix in="SourceAlpha" type="matrix" values="0 0 0 0 0 0 0 0 0 0 0 0 0 0 0 0 0 0 127 0" result="hardAlpha"/>
<feOffset dy="1"/>
<feGaussianBlur stdDeviation="1.5"/>
<feColorMatrix type="matrix" values="0 0 0 0 0.333333 0 0 0 0 0.192157 0 0 0 0 1 0 0 0 0.6 0"/>
<feBlend mode="normal" in2="BackgroundImageFix" result="effect1_dropShadow"/>
<feBlend mode="normal" in="SourceGraphic" in2="effect1_dropShadow" result="shape"/>
</filter>
<filter id="filter1_d" x="0.869141" y="2.86938" width="12.2614" height="12.2614" filterUnits="userSpaceOnUse" color-interpolation-filters="sRGB">
<feFlood flood-opacity="0" result="BackgroundImageFix"/>
<feColorMatrix in="SourceAlpha" type="matrix" values="0 0 0 0 0 0 0 0 0 0 0 0 0 0 0 0 0 0 127 0" result="hardAlpha"/>
<feOffset dy="1"/>
<feGaussianBlur stdDeviation="1.5"/>
<feColorMatrix type="matrix" values="0 0 0 0 0.333333 0 0 0 0 0.192157 0 0 0 0 1 0 0 0 0.6 0"/>
<feBlend mode="normal" in2="BackgroundImageFix" result="effect1_dropShadow"/>
<feBlend mode="normal" in="SourceGraphic" in2="effect1_dropShadow" result="shape"/>
</filter>
</defs>
</svg>
