<svg viewBox="0 0 32 32" fill="none" xmlns="http://www.w3.org/2000/svg">
<g clip-path="url(#clip0)">
<rect opacity="0.4" x="10.686" y="8.79004" width="17" height="15" rx="3" transform="rotate(5 10.686 8.79004)" fill="black"/>
<path opacity="0.4" d="M6.00007 14C5.00007 9 9.00007 4 15.0001 6" stroke="black" stroke-width="2" stroke-linecap="round"/>
<g filter="url(#filter0_d)">
<path d="M6.26297 12H5.73703C4.09201 12 3.2695 12 2.98684 12.5281C2.70419 13.0563 3.16044 13.7407 4.07293 15.1094L4.3359 15.5038C5.08851 16.6328 5.46482 17.1972 6 17.1972C6.53518 17.1972 6.91149 16.6328 7.6641 15.5038L7.92707 15.1094C8.83956 13.7407 9.29581 13.0563 9.01316 12.5281C8.7305 12 7.90799 12 6.26297 12Z" fill="black"/>
</g>
</g>
<defs>
<filter id="filter0_d" x="-0.0964355" y="10" width="12.1927" height="11.1972" filterUnits="userSpaceOnUse" color-interpolation-filters="sRGB">
<feFlood flood-opacity="0" result="BackgroundImageFix"/>
<feColorMatrix in="SourceAlpha" type="matrix" values="0 0 0 0 0 0 0 0 0 0 0 0 0 0 0 0 0 0 127 0" result="hardAlpha"/>
<feOffset dy="1"/>
<feGaussianBlur stdDeviation="1.5"/>
<feColorMatrix type="matrix" values="0 0 0 0 0 0 0 0 0 0 0 0 0 0 0 0 0 0 0.4 0"/>
<feBlend mode="normal" in2="BackgroundImageFix" result="effect1_dropShadow"/>
<feBlend mode="normal" in="SourceGraphic" in2="effect1_dropShadow" result="shape"/>
</filter>
<clipPath id="clip0">
<rect width="32" height="32" fill="white"/>
</clipPath>
</defs>
</svg>
