<svg width="67" height="18" viewBox="0 0 67 18" fill="none" xmlns="http://www.w3.org/2000/svg">
<rect width="67" height="18" rx="5" fill="#352074"/>
<path d="M11.8945 9.30273H8.51953V11.5879H12.4805V13H6.76172V4.46875H12.4688V5.89258H8.51953V7.92578H11.8945V9.30273ZM14.959 6.66016L15.0117 7.39258C15.4648 6.82617 16.0723 6.54297 16.834 6.54297C17.5059 6.54297 18.0059 6.74023 18.334 7.13477C18.6621 7.5293 18.8301 8.11914 18.8379 8.9043V13H17.1445V8.94531C17.1445 8.58594 17.0664 8.32617 16.9102 8.16602C16.7539 8.00195 16.4941 7.91992 16.1309 7.91992C15.6543 7.91992 15.2969 8.12305 15.0586 8.5293V13H13.3652V6.66016H14.959ZM22.1543 5.10156V6.66016H23.2383V7.90234H22.1543V11.0664C22.1543 11.3008 22.1992 11.4688 22.2891 11.5703C22.3789 11.6719 22.5508 11.7227 22.8047 11.7227C22.9922 11.7227 23.1582 11.709 23.3027 11.6816V12.9648C22.9707 13.0664 22.6289 13.1172 22.2773 13.1172C21.0898 13.1172 20.4844 12.5176 20.4609 11.3184V7.90234H19.5352V6.66016H20.4609V5.10156H22.1543ZM27.0996 13.1172C26.1699 13.1172 25.4121 12.832 24.8262 12.2617C24.2441 11.6914 23.9531 10.9316 23.9531 9.98242V9.81836C23.9531 9.18164 24.0762 8.61328 24.3223 8.11328C24.5684 7.60938 24.916 7.22266 25.3652 6.95312C25.8184 6.67969 26.334 6.54297 26.9121 6.54297C27.7793 6.54297 28.4609 6.81641 28.957 7.36328C29.457 7.91016 29.707 8.68555 29.707 9.68945V10.3809H25.6699C25.7246 10.7949 25.8887 11.127 26.1621 11.377C26.4395 11.627 26.7891 11.752 27.2109 11.752C27.8633 11.752 28.373 11.5156 28.7402 11.043L29.5723 11.9746C29.3184 12.334 28.9746 12.6152 28.541 12.8184C28.1074 13.0176 27.627 13.1172 27.0996 13.1172ZM26.9062 7.91406C26.5703 7.91406 26.2969 8.02734 26.0859 8.25391C25.8789 8.48047 25.7461 8.80469 25.6875 9.22656H28.043V9.0918C28.0352 8.7168 27.9336 8.42773 27.7383 8.22461C27.543 8.01758 27.2656 7.91406 26.9062 7.91406ZM34.2363 8.24805C34.0059 8.2168 33.8027 8.20117 33.627 8.20117C32.9863 8.20117 32.5664 8.41797 32.3672 8.85156V13H30.6738V6.66016H32.2734L32.3203 7.41602C32.6602 6.83398 33.1309 6.54297 33.7324 6.54297C33.9199 6.54297 34.0957 6.56836 34.2598 6.61914L34.2363 8.24805ZM40.7637 9.88867C40.7637 10.8652 40.541 11.6484 40.0957 12.2383C39.6543 12.8242 39.0566 13.1172 38.3027 13.1172C37.6621 13.1172 37.1445 12.8945 36.75 12.4492V15.4375H35.0566V6.66016H36.627L36.6855 7.28125C37.0957 6.78906 37.6309 6.54297 38.291 6.54297C39.0723 6.54297 39.6797 6.83203 40.1133 7.41016C40.5469 7.98828 40.7637 8.78516 40.7637 9.80078V9.88867ZM39.0703 9.76562C39.0703 9.17578 38.9648 8.7207 38.7539 8.40039C38.5469 8.08008 38.2441 7.91992 37.8457 7.91992C37.3145 7.91992 36.9492 8.12305 36.75 8.5293V11.125C36.957 11.543 37.3262 11.752 37.8574 11.752C38.666 11.752 39.0703 11.0898 39.0703 9.76562ZM45.3809 8.24805C45.1504 8.2168 44.9473 8.20117 44.7715 8.20117C44.1309 8.20117 43.7109 8.41797 43.5117 8.85156V13H41.8184V6.66016H43.418L43.4648 7.41602C43.8047 6.83398 44.2754 6.54297 44.877 6.54297C45.0645 6.54297 45.2402 6.56836 45.4043 6.61914L45.3809 8.24805ZM47.9883 13H46.2891V6.66016H47.9883V13ZM46.1895 5.01953C46.1895 4.76562 46.2734 4.55664 46.4414 4.39258C46.6133 4.22852 46.8457 4.14648 47.1387 4.14648C47.4277 4.14648 47.6582 4.22852 47.8301 4.39258C48.002 4.55664 48.0879 4.76562 48.0879 5.01953C48.0879 5.27734 48 5.48828 47.8242 5.65234C47.6523 5.81641 47.4238 5.89844 47.1387 5.89844C46.8535 5.89844 46.623 5.81641 46.4473 5.65234C46.2754 5.48828 46.1895 5.27734 46.1895 5.01953ZM52.8223 11.248C52.8223 11.041 52.7188 10.8789 52.5117 10.7617C52.3086 10.6406 51.9805 10.5332 51.5273 10.4395C50.0195 10.123 49.2656 9.48242 49.2656 8.51758C49.2656 7.95508 49.498 7.48633 49.9629 7.11133C50.4316 6.73242 51.043 6.54297 51.7969 6.54297C52.6016 6.54297 53.2441 6.73242 53.7246 7.11133C54.209 7.49023 54.4512 7.98242 54.4512 8.58789H52.7578C52.7578 8.3457 52.6797 8.14648 52.5234 7.99023C52.3672 7.83008 52.123 7.75 51.791 7.75C51.5059 7.75 51.2852 7.81445 51.1289 7.94336C50.9727 8.07227 50.8945 8.23633 50.8945 8.43555C50.8945 8.62305 50.9824 8.77539 51.1582 8.89258C51.3379 9.00586 51.6387 9.10547 52.0605 9.19141C52.4824 9.27344 52.8379 9.36719 53.127 9.47266C54.0215 9.80078 54.4688 10.3691 54.4688 11.1777C54.4688 11.7559 54.2207 12.2246 53.7246 12.584C53.2285 12.9395 52.5879 13.1172 51.8027 13.1172C51.2715 13.1172 50.7988 13.0234 50.3848 12.8359C49.9746 12.6445 49.6523 12.3848 49.418 12.0566C49.1836 11.7246 49.0664 11.3672 49.0664 10.9844H50.6719C50.6875 11.2852 50.7988 11.5156 51.0059 11.6758C51.2129 11.8359 51.4902 11.916 51.8379 11.916C52.1621 11.916 52.4062 11.8555 52.5703 11.7344C52.7383 11.6094 52.8223 11.4473 52.8223 11.248ZM58.4824 13.1172C57.5527 13.1172 56.7949 12.832 56.209 12.2617C55.627 11.6914 55.3359 10.9316 55.3359 9.98242V9.81836C55.3359 9.18164 55.459 8.61328 55.7051 8.11328C55.9512 7.60938 56.2988 7.22266 56.748 6.95312C57.2012 6.67969 57.7168 6.54297 58.2949 6.54297C59.1621 6.54297 59.8438 6.81641 60.3398 7.36328C60.8398 7.91016 61.0898 8.68555 61.0898 9.68945V10.3809H57.0527C57.1074 10.7949 57.2715 11.127 57.5449 11.377C57.8223 11.627 58.1719 11.752 58.5938 11.752C59.2461 11.752 59.7559 11.5156 60.123 11.043L60.9551 11.9746C60.7012 12.334 60.3574 12.6152 59.9238 12.8184C59.4902 13.0176 59.0098 13.1172 58.4824 13.1172ZM58.2891 7.91406C57.9531 7.91406 57.6797 8.02734 57.4688 8.25391C57.2617 8.48047 57.1289 8.80469 57.0703 9.22656H59.4258V9.0918C59.418 8.7168 59.3164 8.42773 59.1211 8.22461C58.9258 8.01758 58.6484 7.91406 58.2891 7.91406Z" fill="white"/>
</svg>
