<svg width="12" height="12" viewBox="0 0 12 12" fill="none" xmlns="http://www.w3.org/2000/svg">
<path fill-rule="evenodd" clip-rule="evenodd" d="M5.1394 0C4.51026 0 4.00024 0.510018 4.00024 1.13916V6.86085C4.00024 6.86191 4.00025 6.86297 4.00025 6.86402V4.00003H8.00013V8.00001H10.8609C11.49 8.00001 12 7.48999 12 6.86085V1.13916C12 0.510019 11.49 0 10.8609 0H5.1394Z" fill="#ffffff"/>
<path fill-rule="evenodd" clip-rule="evenodd" d="M6.8606 12C7.48974 12 7.99976 11.49 7.99976 10.8608V7.99997H3.9999V3.99999H1.13914C0.510005 3.99999 -1.38283e-05 4.51001 -1.38283e-05 5.13915V10.8608C-1.38283e-05 11.49 0.510005 12 1.13914 12H6.8606Z" fill="#ffffff"/>
</svg>
