<svg width="14" height="14" viewBox="0 0 14 14" fill="none" xmlns="http://www.w3.org/2000/svg">
<path fill-rule="evenodd" clip-rule="evenodd" d="M7 14C10.866 14 14 10.866 14 7C14 3.13401 10.866 0 7 0C3.13401 0 0 3.13401 0 7C0 10.866 3.13401 14 7 14ZM7.884 11.248V5.356H6.192V11.248H7.884ZM7.752 2.8C7.552 2.6 7.312 2.5 7.032 2.5C6.752 2.5 6.508 2.6 6.3 2.8C6.1 3 6 3.24 6 3.52C6 3.8 6.1 4.044 6.3 4.252C6.508 4.452 6.752 4.552 7.032 4.552C7.312 4.552 7.552 4.452 7.752 4.252C7.96 4.044 8.064 3.8 8.064 3.52C8.064 3.24 7.96 3 7.752 2.8Z" fill="#6D87F1"/>
</svg>
