<svg width="11" height="14" viewBox="0 0 11 14" fill="none" xmlns="http://www.w3.org/2000/svg">
<path d="M9.85648 6.37796C9.67759 6.14462 9.4598 5.94239 9.25757 5.74016C8.73645 5.27348 8.14532 4.93903 7.64753 4.44902C6.48861 3.31343 6.23193 1.43893 6.97084 0C6.23193 0.178894 5.58636 0.58335 5.03412 1.0267C3.01962 2.64452 2.22626 5.49905 3.17518 7.94912C3.20629 8.0269 3.2374 8.10468 3.2374 8.20579C3.2374 8.37691 3.12073 8.53247 2.96517 8.59469C2.78628 8.67247 2.59961 8.6258 2.45183 8.50135C2.40742 8.46464 2.37045 8.41975 2.34293 8.36913C1.46402 7.25687 1.32401 5.66238 1.91514 4.38679C0.616217 5.4446 -0.0915807 7.23354 0.00953329 8.92137C0.0562013 9.31027 0.102869 9.69917 0.235095 10.0881C0.343987 10.5547 0.553993 11.0214 0.787333 11.4337C1.62736 12.7793 3.08184 13.7437 4.64522 13.9382C6.30971 14.1482 8.09088 13.8448 9.36647 12.6937C10.7898 11.4025 11.2876 9.3336 10.5565 7.56022L10.4554 7.35799C10.292 7.0002 9.85648 6.37796 9.85648 6.37796ZM7.39863 11.2781C7.18085 11.4648 6.82306 11.667 6.54305 11.7448C5.67192 12.0559 4.80078 11.6203 4.28743 11.107C5.21302 10.8892 5.76525 10.2047 5.92859 9.51249C6.06082 8.89025 5.81192 8.37691 5.71081 7.778C5.61747 7.20243 5.63303 6.71241 5.84303 6.17573C5.99081 6.4713 6.14638 6.76686 6.33305 7.0002C6.93195 7.778 7.87309 8.12023 8.07532 9.17804C8.10643 9.28693 8.12199 9.39582 8.12199 9.51249C8.14532 10.1503 7.86531 10.8503 7.39863 11.2781Z" fill="#57B7AB"/>
</svg>
