<svg width="14" height="18" viewBox="0 0 14 18" fill="none" xmlns="http://www.w3.org/2000/svg">
<path fill-rule="evenodd" clip-rule="evenodd" d="M1 1L13 1L11 18H3L1 1Z" fill="black" fill-opacity="0.4"/>
<path fill-rule="evenodd" clip-rule="evenodd" d="M0.16349 0.819014C0 1.13988 0 1.55992 0 2.4V15.6C0 16.4401 0 16.8601 0.16349 17.181C0.3073 17.4632 0.536771 17.6927 0.819014 17.8365C1.13988 18 1.55992 18 2.4 18H5V14C5 13.4477 5.44772 13 6 13H8C8.55229 13 9 13.4477 9 14V18H11.6C12.4401 18 12.8601 18 13.181 17.8365C13.4632 17.6927 13.6927 17.4632 13.8365 17.181C14 16.8601 14 16.4401 14 15.6V2.4C14 1.55992 14 1.13988 13.8365 0.819014C13.6927 0.536771 13.4632 0.3073 13.181 0.16349C12.8601 0 12.4401 0 11.6 0H2.4C1.55992 0 1.13988 0 0.819014 0.16349C0.536771 0.3073 0.3073 0.536771 0.16349 0.819014ZM8 9C8 8.44771 8.44772 8 9 8H10C10.5523 8 11 8.44772 11 9V10C11 10.5523 10.5523 11 10 11H9C8.44771 11 8 10.5523 8 10V9ZM4 8C3.44772 8 3 8.44771 3 9V10C3 10.5523 3.44772 11 4 11H5C5.55228 11 6 10.5523 6 10V9C6 8.44772 5.55228 8 5 8H4ZM8 4C8 3.44772 8.44772 3 9 3H10C10.5523 3 11 3.44772 11 4V5C11 5.55228 10.5523 6 10 6H9C8.44771 6 8 5.55228 8 5V4ZM4 3C3.44772 3 3 3.44772 3 4V5C3 5.55228 3.44772 6 4 6H5C5.55228 6 6 5.55228 6 5V4C6 3.44772 5.55228 3 5 3H4Z" fill="black"/>
</svg>
