<svg width="19" height="19" viewBox="0 0 19 19" fill="none" xmlns="http://www.w3.org/2000/svg">
<path fill-rule="evenodd" clip-rule="evenodd" d="M12 0C10.8954 0 10 0.89543 10 2V7C10 8.10457 10.8954 9 12 9C13.1046 9 14 8.10457 14 7V2C14 0.895431 13.1046 0 12 0ZM15 7C15 5.89543 15.8954 5 17 5C18.1046 5 19 5.89543 19 7C19 8.10457 18.1046 9 17 9H15V7ZM2 10C0.895431 10 0 10.8954 0 12C0 13.1046 0.895431 14 2 14C3.10457 14 4 13.1046 4 12V10H2ZM7 10C5.89543 10 5 10.8954 5 12V17C5 18.1046 5.89543 19 7 19C8.10457 19 9 18.1046 9 17V12C9 10.8954 8.10457 10 7 10Z" fill="black"/>
<path opacity="0.8" fill-rule="evenodd" clip-rule="evenodd" d="M7 0C5.89543 0 5 0.895431 5 2C5 3.10457 5.89543 4 7 4H9V2C9 0.895431 8.10457 0 7 0ZM2 5C0.895431 5 0 5.89543 0 7C0 8.10457 0.89543 9 2 9H7C8.10457 9 9 8.10457 9 7C9 5.89543 8.10457 5 7 5H2ZM12 15H10V17C10 18.1046 10.8954 19 12 19C13.1046 19 14 18.1046 14 17C14 15.8954 13.1046 15 12 15ZM10 12C10 10.8954 10.8954 10 12 10H17C18.1046 10 19 10.8954 19 12C19 13.1046 18.1046 14 17 14H12C10.8954 14 10 13.1046 10 12Z" fill="black"/>
</svg>
