<svg width="24" height="24" viewBox="0 0 24 24" fill="none" xmlns="http://www.w3.org/2000/svg">
<path fill-rule="evenodd" clip-rule="evenodd" d="M19.7071 6.29289C20.0976 6.68342 20.0976 7.31658 19.7071 7.70711L15.4142 12L19.7071 16.2929C20.0976 16.6834 20.0976 17.3166 19.7071 17.7071C19.3166 18.0976 18.6834 18.0976 18.2929 17.7071L13.2929 12.7071C12.9024 12.3166 12.9024 11.6834 13.2929 11.2929L18.2929 6.29289C18.6834 5.90237 19.3166 5.90237 19.7071 6.29289Z" fill="black"/>
<path d="M5 14C4.11744 13.1174 3.67615 12.6762 3.62737 12.1346C3.6193 12.045 3.6193 11.955 3.62737 11.8654C3.67615 11.3238 4.11744 10.8826 5 10C5.88256 9.11744 6.32385 8.67615 6.86543 8.62737C6.95496 8.6193 7.04504 8.6193 7.13457 8.62737C7.67615 8.67615 8.11744 9.11744 9 10C9.88256 10.8826 10.3238 11.3238 10.3726 11.8654C10.3807 11.955 10.3807 12.045 10.3726 12.1346C10.3238 12.6762 9.88256 13.1174 9 14C8.11744 14.8826 7.67615 15.3238 7.13457 15.3726C7.04504 15.3807 6.95496 15.3807 6.86543 15.3726C6.32385 15.3238 5.88256 14.8826 5 14Z" fill="black"/>
</svg>
