<svg viewBox="0 0 14 14" fill="none" xmlns="http://www.w3.org/2000/svg">
<path d="M11.1162 12.8839C11.6044 13.372 12.3958 13.372 12.884 12.8839C13.3721 12.3957 13.3721 11.6043 12.884 11.1161L8.76785 7.00002L12.8839 2.88389C13.3721 2.39574 13.3721 1.60428 12.8839 1.11613C12.3958 0.627973 11.6043 0.627977 11.1162 1.11613L7.00007 5.23226L2.88388 1.11611C2.39572 0.627959 1.60427 0.627963 1.11611 1.11612C0.627959 1.60428 0.627963 2.39573 1.11612 2.88389L5.23231 7.00004L1.11625 11.1161C0.628101 11.6043 0.628105 12.3957 1.11626 12.8839C1.60442 13.3721 2.39588 13.3721 2.88403 12.8839L7.00009 8.7678L11.1162 12.8839Z" fill="currentColor" fill-opacity="0.6"/>
</svg>
