<svg viewBox="0 0 16 16" fill="none" xmlns="http://www.w3.org/2000/svg">
  <path d="M3.99996 6.6665C3.26663 6.6665 2.66663 7.2665 2.66663 7.99984C2.66663 8.73317 3.26663 9.33317 3.99996 9.33317C4.73329 9.33317 5.33329 8.73317 5.33329 7.99984C5.33329 7.2665 4.73329 6.6665 3.99996 6.6665ZM12 6.6665C11.2666 6.6665 10.6666 7.2665 10.6666 7.99984C10.6666 8.73317 11.2666 9.33317 12 9.33317C12.7333 9.33317 13.3333 8.73317 13.3333 7.99984C13.3333 7.2665 12.7333 6.6665 12 6.6665ZM7.99996 6.6665C7.26663 6.6665 6.66663 7.2665 6.66663 7.99984C6.66663 8.73317 7.26663 9.33317 7.99996 9.33317C8.73329 9.33317 9.33329 8.73317 9.33329 7.99984C9.33329 7.2665 8.73329 6.6665 7.99996 6.6665Z" fill="currentcolor"/>
</svg>
