<svg width="16" height="16" viewBox="0 0 16 16" fill="none" xmlns="http://www.w3.org/2000/svg">
<path fill-rule="evenodd" clip-rule="evenodd" d="M9 3C9 1.58579 9 0.87868 9.43934 0.43934C9.87868 0 10.5858 0 12 0H13C14.4142 0 15.1213 0 15.5607 0.43934C16 0.87868 16 1.58579 16 3V4C16 5.41421 16 6.12132 15.5607 6.56066C15.1213 7 14.4142 7 13 7H12C10.5858 7 9.87868 7 9.43934 6.56066C9 6.12132 9 5.41421 9 4V3ZM0.43934 9.43934C0 9.87868 0 10.5858 0 12V13C0 14.4142 0 15.1213 0.43934 15.5607C0.87868 16 1.58579 16 3 16H4C5.41421 16 6.12132 16 6.56066 15.5607C7 15.1213 7 14.4142 7 13V12C7 10.5858 7 9.87868 6.56066 9.43934C6.12132 9 5.41421 9 4 9H3C1.58579 9 0.87868 9 0.43934 9.43934ZM9.43934 9.43934C9 9.87868 9 10.5858 9 12V13C9 14.4142 9 15.1213 9.43934 15.5607C9.87868 16 10.5858 16 12 16H13C14.4142 16 15.1213 16 15.5607 15.5607C16 15.1213 16 14.4142 16 13V12C16 10.5858 16 9.87868 15.5607 9.43934C15.1213 9 14.4142 9 13 9H12C10.5858 9 9.87868 9 9.43934 9.43934ZM0.43934 0.43934C0 0.87868 0 1.58579 0 3V4C0 5.41421 0 6.12132 0.43934 6.56066C0.87868 7 1.58579 7 3 7H4C5.41421 7 6.12132 7 6.56066 6.56066C7 6.12132 7 5.41421 7 4V3C7 1.58579 7 0.87868 6.56066 0.43934C6.12132 0 5.41421 0 4 0H3C1.58579 0 0.87868 0 0.43934 0.43934Z" fill="currentColor"/>
</svg>
