<svg width="20" height="20" viewBox="0 0 20 20" fill="none" xmlns="http://www.w3.org/2000/svg">
<path d="M9.16663 14.9993H10.8333V13.3327H9.16663V14.9993ZM9.99996 1.66602C8.90561 1.66602 7.82198 1.88156 6.81093 2.30035C5.79988 2.71914 4.88122 3.33297 4.1074 4.10679C2.5446 5.6696 1.66663 7.78921 1.66663 9.99935C1.66663 12.2095 2.5446 14.3291 4.1074 15.8919C4.88122 16.6657 5.79988 17.2796 6.81093 17.6983C7.82198 18.1171 8.90561 18.3327 9.99996 18.3327C12.2101 18.3327 14.3297 17.4547 15.8925 15.8919C17.4553 14.3291 18.3333 12.2095 18.3333 9.99935C18.3333 8.905 18.1177 7.82137 17.699 6.81032C17.2802 5.79927 16.6663 4.88061 15.8925 4.10679C15.1187 3.33297 14.2 2.71914 13.189 2.30035C12.1779 1.88156 11.0943 1.66602 9.99996 1.66602M9.99996 16.666C6.32496 16.666 3.33329 13.6743 3.33329 9.99935C3.33329 6.32435 6.32496 3.33268 9.99996 3.33268C13.675 3.33268 16.6666 6.32435 16.6666 9.99935C16.6666 13.6743 13.675 16.666 9.99996 16.666ZM9.99996 4.99935C9.1159 4.99935 8.26806 5.35054 7.64294 5.97566C7.01782 6.60078 6.66663 7.44863 6.66663 8.33268H8.33329C8.33329 7.89066 8.50889 7.46673 8.82145 7.15417C9.13401 6.84161 9.55793 6.66602 9.99996 6.66602C10.442 6.66602 10.8659 6.84161 11.1785 7.15417C11.491 7.46673 11.6666 7.89066 11.6666 8.33268C11.6666 9.99935 9.16663 9.79102 9.16663 12.4993H10.8333C10.8333 10.6243 13.3333 10.416 13.3333 8.33268C13.3333 7.44863 12.9821 6.60078 12.357 5.97566C11.7319 5.35054 10.884 4.99935 9.99996 4.99935Z" fill="#BEB9C5"/>
</svg>
