<svg width="14" height="14" viewBox="0 0 14 14" fill="none" xmlns="http://www.w3.org/2000/svg">
<path d="M8.93032 5.06881C10.564 6.70421 10.5416 9.32618 8.94016 10.9365C8.93716 10.9398 8.9336 10.9433 8.93032 10.9466L7.09282 12.7841C5.47216 14.4048 2.83543 14.4046 1.21501 12.7841C-0.405654 11.1637 -0.405654 8.5267 1.21501 6.90631L2.22963 5.89169C2.49869 5.62263 2.96206 5.80146 2.97595 6.1817C2.99367 6.66629 3.08056 7.15314 3.24091 7.62329C3.29521 7.78249 3.25641 7.95858 3.13747 8.07753L2.77962 8.43537C2.01328 9.20171 1.98925 10.4495 2.74804 11.2233C3.51432 12.0048 4.77383 12.0094 5.54599 11.2373L7.38349 9.40006C8.15433 8.62921 8.15111 7.38327 7.38349 6.61565C7.28229 6.51464 7.18035 6.43616 7.10072 6.38134C7.04439 6.34266 6.99788 6.29135 6.9649 6.2315C6.93192 6.17165 6.91338 6.10493 6.91077 6.03664C6.89994 5.7477 7.00231 5.44996 7.23063 5.22163L7.80633 4.64591C7.95729 4.49495 8.19412 4.47641 8.36917 4.59858C8.56965 4.73857 8.75742 4.89592 8.93032 5.06881V5.06881ZM12.784 1.21493C11.1636 -0.405518 8.52686 -0.405736 6.9062 1.21493L5.0687 3.05243C5.06542 3.05571 5.06186 3.05926 5.05886 3.06254C3.45744 4.67287 3.43499 7.29484 5.0687 8.93024C5.24159 9.10313 5.42935 9.26047 5.62982 9.40044C5.80488 9.52261 6.04173 9.50405 6.19267 9.35311L6.76836 8.77739C6.99668 8.54907 7.09906 8.25132 7.08823 7.96238C7.08561 7.8941 7.06707 7.82737 7.03409 7.76752C7.00111 7.70768 6.9546 7.65637 6.89827 7.61769C6.81865 7.56286 6.71671 7.48438 6.61551 7.38338C5.84789 6.61576 5.84466 5.36981 6.61551 4.59896L8.45301 2.76174C9.22517 1.98958 10.4846 1.99422 11.251 2.77568C12.0097 3.54951 11.9857 4.79731 11.2194 5.56365L10.8615 5.9215C10.7426 6.04044 10.7038 6.21654 10.7581 6.37573C10.9184 6.84588 11.0053 7.33274 11.023 7.81732C11.037 8.19756 11.5003 8.37639 11.7694 8.10733L12.784 7.09271C14.4047 5.47235 14.4047 2.83532 12.784 1.21493V1.21493Z" fill="currentColor"/>
</svg>
