<svg width="24" height="24" viewBox="0 0 24 24" fill="none" xmlns="http://www.w3.org/2000/svg">
<path d="M7 7C6.44772 7 6 7.44772 6 8C6 8.55228 6.44772 9 7 9H17C17.5523 9 18 8.55228 18 8C18 7.44772 17.5523 7 17 7H7Z" fill="currentColor"/>
<path d="M9 12C9 11.4477 9.44772 11 10 11H17C17.5523 11 18 11.4477 18 12C18 12.5523 17.5523 13 17 13H10C9.44772 13 9 12.5523 9 12Z" fill="currentColor"/>
<path d="M9 16C9 15.4477 9.44772 15 10 15H17C17.5523 15 18 15.4477 18 16C18 16.5523 17.5523 17 17 17H10C9.44772 17 9 16.5523 9 16Z" fill="currentColor"/>
</svg>
