<svg width="24" height="24" viewBox="0 0 24 24" fill="none" xmlns="http://www.w3.org/2000/svg">
<path fill-rule="evenodd" clip-rule="evenodd" d="M10 10C10 9.52038 10.0005 9.21074 10.0167 8.97376C10.0323 8.74576 10.0589 8.65893 10.0761 8.61732C10.1776 8.37229 10.3723 8.17762 10.6173 8.07612C10.6589 8.05889 10.7458 8.03227 10.9738 8.01671C11.2107 8.00054 11.5204 8 12 8C12.4796 8 12.7893 8.00054 13.0262 8.01671C13.2542 8.03227 13.3411 8.05889 13.3827 8.07612C13.6277 8.17762 13.8224 8.37229 13.9239 8.61732C13.9411 8.65893 13.9677 8.74576 13.9833 8.97376C13.9995 9.21074 14 9.52038 14 10H10ZM9 12C8.99934 12 8.99869 12 8.99803 12C8.63798 12 8.35669 12.0001 8.11551 12.0062C8.07804 12.0072 8.04273 12.0082 8.00942 12.0094C8.00824 12.0427 8.00717 12.078 8.00623 12.1155C8.00013 12.3571 8 12.639 8 13C8 14.4708 8.00425 15.3726 8.092 16.0253C8.16913 16.599 8.27884 16.6948 8.29185 16.7062L8.29289 16.7071L8.29383 16.7082C8.3052 16.7212 8.40098 16.8309 8.97468 16.908C9.62738 16.9958 10.5292 17 12 17C13.4708 17 14.3726 16.9958 15.0253 16.908C15.599 16.8309 15.6948 16.7212 15.7062 16.7082L15.7071 16.7071L15.7082 16.7062C15.7212 16.6948 15.8309 16.599 15.908 16.0253C15.9958 15.3726 16 14.4708 16 13C16 12.639 15.9999 12.3571 15.9938 12.1155C15.9928 12.078 15.9918 12.0427 15.9906 12.0094C15.9573 12.0082 15.922 12.0072 15.8845 12.0062C15.6429 12.0001 15.361 12 15 12M14.998 12H9.00198C9.00132 12 9.00066 12 9 12M16 10.0087V9.96801C16 9.52936 16 9.15088 15.9787 8.83762C15.9561 8.50779 15.9066 8.17788 15.7716 7.85195C15.4672 7.11687 14.8831 6.53285 14.1481 6.22836C13.8221 6.09336 13.4922 6.04386 13.1624 6.02135C12.8491 5.99998 12.4707 5.99999 12.0321 6H12.032H11.968H11.9679C11.5293 5.99999 11.1509 5.99998 10.8376 6.02135C10.5078 6.04386 10.1779 6.09336 9.85195 6.22836C9.11687 6.53285 8.53284 7.11687 8.22836 7.85195C8.09336 8.17788 8.04385 8.50779 8.02135 8.83762C7.99998 9.15087 7.99999 9.52936 8 9.968V9.96802L8 10V10.0087C7.22328 10.0321 6.75999 10.1187 6.43934 10.4393C6 10.8787 6 11.5858 6 13C6 15.8284 6 17.2426 6.87868 18.1213C7.75736 19 9.17157 19 12 19C14.8284 19 16.2426 19 17.1213 18.1213C18 17.2426 18 15.8284 18 13C18 11.5858 18 10.8787 17.5607 10.4393C17.24 10.1187 16.7767 10.0321 16 10.0087ZM10.5 14.5C10.5 13.6716 11.1716 13 12 13C12.8284 13 13.5 13.6716 13.5 14.5C13.5 15.3284 12.8284 16 12 16C11.1716 16 10.5 15.3284 10.5 14.5Z" fill="currentColor"/>
</svg>
