<svg width="10" height="29" viewBox="0 0 10 29" fill="none" xmlns="http://www.w3.org/2000/svg">
<path d="M5.59313 3.00733C5.28227 3.01294 5.00005 3.02286 4.74331 3.04038C4.13457 3.08191 3.59628 3.16948 3.08658 3.3806C1.86144 3.88807 0.888074 4.86144 0.380604 6.08658C0.16948 6.59628 0.0819156 7.13456 0.0403814 7.74331C-1.02632e-05 8.33531 -5.51662e-06 9.0627 3.71326e-07 9.96444V21.0539C-1.42189e-05 22.4126 -2.59802e-05 23.5083 0.0894013 24.3874C0.18171 25.2948 0.377505 26.0817 0.842654 26.7779C1.20745 27.3238 1.6762 27.7926 2.22215 28.1573C2.91829 28.6225 3.70523 28.8183 4.61264 28.9106C5.49174 29 6.58739 29 7.94606 29H8V27C6.57473 27 5.58104 26.9988 4.81505 26.9209C4.06578 26.8446 3.64604 26.7034 3.33329 26.4944C3.00572 26.2755 2.72447 25.9943 2.50559 25.6667C2.29662 25.354 2.15535 24.9342 2.07913 24.1849C2.00121 23.419 2 22.4253 2 21V10C2 9.05443 2.00054 8.39534 2.03574 7.87945C2.07033 7.37254 2.13501 7.07734 2.22836 6.85195C2.53285 6.11687 3.11687 5.53284 3.85195 5.22836C4.07734 5.135 4.37254 5.07033 4.87945 5.03574C5.08619 5.02163 5.31592 5.01309 5.57788 5.00793L4.29291 6.29289L5.70712 7.70711L9.41423 4L5.70712 0.292894L4.29291 1.70711L5.59313 3.00733Z" fill="black"/>
</svg>
