<svg width="24" height="24" viewBox="0 0 24 24" fill="none" xmlns="http://www.w3.org/2000/svg">
<path d="M14 6.5C14 5.56538 14 5.09808 14.201 4.75C14.3326 4.52197 14.522 4.33261 14.75 4.20096C15.0981 4 15.5654 4 16.5 4C17.4346 4 17.9019 4 18.25 4.20096C18.478 4.33261 18.6674 4.52197 18.799 4.75C19 5.09808 19 5.56538 19 6.5V17.5C19 18.4346 19 18.9019 18.799 19.25C18.6674 19.478 18.478 19.6674 18.25 19.799C17.9019 20 17.4346 20 16.5 20C15.5654 20 15.0981 20 14.75 19.799C14.522 19.6674 14.3326 19.478 14.201 19.25C14 18.9019 14 18.4346 14 17.5V6.5Z" fill="#413C4A"/>
<path d="M5 6.5C5 5.56538 5 5.09808 5.20096 4.75C5.33261 4.52197 5.52197 4.33261 5.75 4.20096C6.09808 4 6.56538 4 7.5 4C8.43462 4 8.90192 4 9.25 4.20096C9.47803 4.33261 9.66739 4.52197 9.79904 4.75C10 5.09808 10 5.56538 10 6.5V17.5C10 18.4346 10 18.9019 9.79904 19.25C9.66739 19.478 9.47803 19.6674 9.25 19.799C8.90192 20 8.43462 20 7.5 20C6.56538 20 6.09808 20 5.75 19.799C5.52197 19.6674 5.33261 19.478 5.20096 19.25C5 18.9019 5 18.4346 5 17.5V6.5Z" fill="#413C4A"/>
</svg>
