<svg width="13" height="14" viewBox="0 0 13 14" fill="none" xmlns="http://www.w3.org/2000/svg">
<path d="M11.375 5.6875H7.4375V1.75C7.4375 1.26684 7.04566 0.875 6.5625 0.875H5.6875C5.20434 0.875 4.8125 1.26684 4.8125 1.75V5.6875H0.875C0.391836 5.6875 0 6.07934 0 6.5625V7.4375C0 7.92066 0.391836 8.3125 0.875 8.3125H4.8125V12.25C4.8125 12.7332 5.20434 13.125 5.6875 13.125H6.5625C7.04566 13.125 7.4375 12.7332 7.4375 12.25V8.3125H11.375C11.8582 8.3125 12.25 7.92066 12.25 7.4375V6.5625C12.25 6.07934 11.8582 5.6875 11.375 5.6875Z" fill="currentColor"/>
</svg>
