<svg width="36" height="36" viewBox="0 0 36 36" fill="none" xmlns="http://www.w3.org/2000/svg">
<path opacity="0.9" d="M12.4644 12.4645C12.333 12.5959 12.2673 12.6616 12.2235 12.7271C12.0437 12.9962 12.0437 13.347 12.2235 13.616C12.2673 13.6816 12.333 13.7473 12.4644 13.8787L16.5857 18L12.4644 22.1213C12.3329 22.2528 12.2672 22.3185 12.2234 22.384C12.0437 22.653 12.0437 23.0039 12.2234 23.2729C12.2672 23.3384 12.3329 23.4041 12.4644 23.5356C12.5958 23.667 12.6615 23.7327 12.727 23.7765C12.996 23.9562 13.3469 23.9562 13.6159 23.7765C13.6814 23.7327 13.7471 23.667 13.8786 23.5356L17.9999 19.4142L22.1213 23.5355C22.2527 23.667 22.3184 23.7327 22.3839 23.7765C22.6529 23.9562 23.0038 23.9562 23.2728 23.7765C23.3383 23.7327 23.404 23.667 23.5355 23.5355C23.6669 23.4041 23.7326 23.3384 23.7764 23.2729C23.9561 23.0039 23.9561 22.653 23.7764 22.384C23.7326 22.3185 23.6669 22.2528 23.5355 22.1213L19.4141 18L23.5354 13.8787C23.6669 13.7473 23.7326 13.6816 23.7763 13.6161C23.9561 13.347 23.9561 12.9962 23.7763 12.7271C23.7326 12.6616 23.6669 12.5959 23.5354 12.4645C23.404 12.3331 23.3383 12.2674 23.2728 12.2236C23.0037 12.0438 22.6529 12.0438 22.3839 12.2236C22.3184 12.2674 22.2526 12.3331 22.1212 12.4645L17.9999 16.5858L13.8786 12.4645C13.7472 12.3331 13.6815 12.2673 13.616 12.2236C13.3469 12.0438 12.9961 12.0438 12.727 12.2236C12.6615 12.2673 12.5958 12.3331 12.4644 12.4645Z" fill="currentColor"/>
</svg>
