<svg viewBox="0 0 36 36" fill="none" xmlns="http://www.w3.org/2000/svg">
<path d="M16.1024 11.7014C16.8868 9.34449 17.279 8.16602 18.0001 8.16602C18.7212 8.16602 19.1134 9.34449 19.8978 11.7014L20.3775 13.143C20.5973 13.8034 20.7072 14.1337 20.9691 14.3226C21.2311 14.5115 21.5791 14.5115 22.2752 14.5115H23.7239C26.3032 14.5115 27.5929 14.5115 27.8148 15.2078C28.0367 15.9042 26.9848 16.6504 24.8811 18.1427L23.792 18.9153C23.2098 19.3283 22.9187 19.5348 22.816 19.8484C22.7134 20.1621 22.8261 20.5007 23.0515 21.178L23.4868 22.4861C24.2826 24.8776 24.6806 26.0733 24.098 26.5048C23.5155 26.9363 22.4877 26.2072 20.432 24.7489L19.1573 23.8447C18.5983 23.4482 18.3188 23.2499 18.0001 23.2499C17.6814 23.2499 17.4019 23.4482 16.8429 23.8447L15.5682 24.7489C13.5125 26.2072 12.4847 26.9363 11.9022 26.5048C11.3196 26.0733 11.7176 24.8776 12.5134 22.4861L12.9487 21.178C13.1741 20.5007 13.2868 20.1621 13.1842 19.8484C13.0815 19.5348 12.7904 19.3283 12.2082 18.9153L11.1191 18.1427C9.01536 16.6504 7.96348 15.9042 8.18539 15.2078C8.40731 14.5115 9.69696 14.5115 12.2763 14.5115H13.725C14.4211 14.5115 14.7691 14.5115 15.0311 14.3226C15.293 14.1337 15.4029 13.8034 15.6227 13.143L16.1024 11.7014Z" fill="currentColor"/>
</svg>
