<svg width="24" height="24" viewBox="0 0 24 24" fill="none" xmlns="http://www.w3.org/2000/svg">
<path d="M14.5 8C13.6715 8 13 8.67157 13 9.5C13 10.3284 13.6715 11 14.5 11C15.3284 11 16 10.3284 16 9.5C16 8.67157 15.3284 8 14.5 8Z" fill="currentColor"/>
<path fill-rule="evenodd" clip-rule="evenodd" d="M13.6212 18.2072L17.2426 14.5859C17.2814 14.547 17.3216 14.5072 17.3628 14.4663C17.8123 14.0208 18.3841 13.454 18.6955 12.7024C19.0068 11.9508 19.0033 11.1456 19.0005 10.5128C19.0002 10.4548 19 10.3982 19 10.3432V8.00007L19 7.95314C19.0004 7.76632 19.0009 7.46081 18.9638 7.18495C18.9157 6.82701 18.7745 6.23907 18.2677 5.73231C17.761 5.22555 17.173 5.08434 16.8151 5.03622C16.5392 4.99913 16.2337 4.99968 16.0469 5.00002L16 5.00008H13.6568C13.6019 5.00008 13.5454 4.99983 13.4874 4.99957C12.8545 4.99678 12.0493 4.99322 11.2976 5.30455C10.546 5.61589 9.97923 6.1877 9.53372 6.63716C9.49291 6.67833 9.453 6.7186 9.41417 6.75742L5.79282 10.3788L5.7596 10.4119C5.62726 10.5438 5.41083 10.7594 5.24199 10.9807C5.02292 11.2678 4.70703 11.7834 4.70703 12.5001C4.70703 13.2167 5.02292 13.7323 5.24199 14.0195C5.41082 14.2407 5.62725 14.4564 5.75959 14.5882L5.79282 14.6214L9.37861 18.2072L9.41175 18.2404C9.54361 18.3727 9.75925 18.5892 9.98054 18.758C10.2677 18.9771 10.7833 19.293 11.4999 19.293C12.2166 19.293 12.7322 18.9771 13.0193 18.758C13.2406 18.5892 13.4562 18.3728 13.5881 18.2404L13.6212 18.2072ZM10.8284 8.17164C11.4064 7.59358 11.6955 7.30455 12.063 7.15231C12.4306 7.00008 12.8393 7.00007 13.6568 7.00007H16C16.4714 7.00007 16.7071 7.00008 16.8535 7.14652C17 7.29297 17 7.52867 17 8.00007V10.3432C17 11.1607 17 11.5695 16.8477 11.937C16.6955 12.3046 16.4064 12.5936 15.8284 13.1716L12.207 16.793C11.8737 17.1263 11.707 17.293 11.4999 17.293C11.2928 17.293 11.1262 17.1263 10.7928 16.793L7.20703 13.2072C6.8737 12.8738 6.70703 12.7072 6.70703 12.5001C6.70703 12.293 6.8737 12.1263 7.20703 11.793L10.8284 8.17164Z" fill="currentColor"/>
</svg>
