<svg width="16" height="16" viewBox="0 0 16 16" fill="none" xmlns="http://www.w3.org/2000/svg">
<path fill="#FFFFFF" fill-opacity="0.7" d="M13.47,2.52c-0.27-0.27-0.71-0.27-1.59-0.27h-0.64c-1.51,0-2.26,0-2.95,0.29
	C7.61,2.82,7.07,3.35,6,4.43L3.65,6.78c-0.93,0.93-1.4,1.4-1.4,1.97c0,0.58,0.46,1.04,1.39,1.97l1.63,1.63
	c0.93,0.93,1.39,1.39,1.97,1.39s1.04-0.46,1.97-1.39L11.57,10c1.07-1.07,1.61-1.61,1.89-2.29c0.28-0.68,0.28-1.44,0.28-2.96V4.11
	C13.74,3.23,13.74,2.8,13.47,2.52z M10.5,6.9c-0.77,0-1.4-0.63-1.4-1.4s0.63-1.39,1.4-1.39s1.39,0.63,1.39,1.4S11.27,6.9,10.5,6.9z"
	/>
</svg>
