<svg viewBox="0 0 24 24" fill="none" xmlns="http://www.w3.org/2000/svg">
<path fill-rule="evenodd" clip-rule="evenodd" d="M9 5H15C16.2351 5 16.9601 5.00425 17.4767 5.07369C17.6839 5.10156 17.7946 5.13283 17.8474 5.15255C17.8672 5.20541 17.8984 5.31609 17.9263 5.52332C17.9958 6.03986 18 6.76495 18 8V16C18 17.2351 17.9958 17.9601 17.9263 18.4767C17.8984 18.6839 17.8672 18.7946 17.8474 18.8474C17.7946 18.8672 17.6839 18.8984 17.4767 18.9263C16.9601 18.9958 16.2351 19 15 19H9C7.76495 19 7.03986 18.9958 6.52332 18.9263C6.31609 18.8984 6.20542 18.8672 6.15256 18.8474C6.13284 18.7946 6.10156 18.6839 6.07369 18.4767C6.00425 17.9601 6 17.2351 6 16V8C6 6.76495 6.00425 6.03986 6.07369 5.52332C6.10156 5.31608 6.13283 5.20541 6.15256 5.15256C6.20541 5.13283 6.31608 5.10156 6.52332 5.07369C7.03986 5.00425 7.76495 5 9 5ZM17.8886 5.17233C17.8878 5.17265 17.8814 5.16973 17.872 5.16266C17.8847 5.16848 17.8894 5.17202 17.8886 5.17233ZM17.8373 5.12796C17.8303 5.11857 17.8274 5.11225 17.8277 5.11144C17.828 5.11062 17.8315 5.11532 17.8373 5.12796ZM17.8277 18.8886C17.8274 18.8878 17.8303 18.8814 17.8373 18.872C17.8315 18.8847 17.828 18.8894 17.8277 18.8886ZM17.872 18.8373C17.8814 18.8303 17.8878 18.8273 17.8886 18.8277C17.8894 18.828 17.8847 18.8315 17.872 18.8373ZM6.11144 18.8277C6.11225 18.8274 6.11857 18.8303 6.12796 18.8373C6.11532 18.8315 6.11062 18.828 6.11144 18.8277ZM6.16266 18.872C6.16973 18.8814 6.17265 18.8878 6.17233 18.8886C6.17202 18.8894 6.16848 18.8847 6.16266 18.872ZM6.17233 5.11144C6.17265 5.11225 6.16973 5.11857 6.16266 5.12796C6.16848 5.11532 6.17202 5.11062 6.17233 5.11144ZM6.12796 5.16266C6.11857 5.16973 6.11225 5.17265 6.11144 5.17233C6.11062 5.17202 6.11532 5.16848 6.12796 5.16266ZM4 8C4 5.64298 4 4.46447 4.73223 3.73223C5.46447 3 6.64298 3 9 3H15C17.357 3 18.5355 3 19.2678 3.73223C20 4.46447 20 5.64298 20 8V16C20 18.357 20 19.5355 19.2678 20.2678C18.5355 21 17.357 21 15 21H9C6.64298 21 5.46447 21 4.73223 20.2678C4 19.5355 4 18.357 4 16V8ZM8.01537 15.6439C8 15.7212 8 15.8141 8 16C8 16.1859 8 16.2788 8.01537 16.3561C8.0785 16.6734 8.32658 16.9215 8.64393 16.9846C8.72121 17 8.81414 17 9 17H15C15.1859 17 15.2788 17 15.3561 16.9846C15.6734 16.9215 15.9215 16.6734 15.9846 16.3561C16 16.2788 16 16.1859 16 16C16 15.8141 16 15.7212 15.9846 15.6439C15.9215 15.3266 15.6734 15.0785 15.3561 15.0154C15.2788 15 15.1859 15 15 15H9C8.81414 15 8.72121 15 8.64393 15.0154C8.32658 15.0785 8.0785 15.3266 8.01537 15.6439ZM8 12C8 11.8141 8 11.7212 8.01537 11.6439C8.0785 11.3266 8.32658 11.0785 8.64393 11.0154C8.72121 11 8.81414 11 9 11H15C15.1859 11 15.2788 11 15.3561 11.0154C15.6734 11.0785 15.9215 11.3266 15.9846 11.6439C16 11.7212 16 11.8141 16 12C16 12.1859 16 12.2788 15.9846 12.3561C15.9215 12.6734 15.6734 12.9215 15.3561 12.9846C15.2788 13 15.1859 13 15 13H9C8.81414 13 8.72121 13 8.64393 12.9846C8.32658 12.9215 8.0785 12.6734 8.01537 12.3561C8 12.2788 8 12.1859 8 12ZM8.01537 7.64393C8 7.72121 8 7.81414 8 8C8 8.18586 8 8.27879 8.01537 8.35607C8.0785 8.67342 8.32658 8.9215 8.64393 8.98463C8.72121 9 8.81414 9 9 9H15C15.1859 9 15.2788 9 15.3561 8.98463C15.6734 8.9215 15.9215 8.67342 15.9846 8.35607C16 8.27879 16 8.18586 16 8C16 7.81414 16 7.72121 15.9846 7.64393C15.9215 7.32658 15.6734 7.0785 15.3561 7.01537C15.2788 7 15.1859 7 15 7H9C8.81414 7 8.72121 7 8.64393 7.01537C8.32658 7.0785 8.0785 7.32658 8.01537 7.64393Z" fill="currentColor"/>
</svg>
