<svg width="24" height="24" viewBox="0 0 24 24" fill="none" xmlns="http://www.w3.org/2000/svg">
<path fill-rule="evenodd" clip-rule="evenodd" d="M11.9063 4.00006L12 4.00012L12.0936 4.00006C12.5346 3.99963 12.9197 3.99926 13.2772 4.08751C14.0293 4.2731 14.6804 4.74239 15.0943 5.39715C15.2911 5.70848 15.4125 6.07386 15.5515 6.49236L15.5811 6.58126L15.7207 7.00012H19V9.00012H5V7.00012H8.27919L8.41881 6.58126L8.44838 6.49237C8.58743 6.07386 8.70883 5.70848 8.90563 5.39715C9.31952 4.74239 9.97062 4.2731 10.7227 4.08751C11.0803 3.99926 11.4653 3.99963 11.9063 4.00006ZM13.4037 6.4658C13.4459 6.53251 13.4848 6.62421 13.612 7.00012H10.3879C10.5151 6.62421 10.554 6.53251 10.5962 6.4658C10.7342 6.24754 10.9512 6.09111 11.2019 6.02925C11.2913 6.00718 11.4116 6.00012 12 6.00012C12.5883 6.00012 12.7086 6.00718 12.798 6.02925C13.0487 6.09111 13.2658 6.24754 13.4037 6.4658ZM8.57753 15.3506L7.99314 10.3833L6.00684 10.617L6.59123 15.5843L6.59836 15.6449C6.6911 16.4336 6.77156 17.1179 6.90762 17.6638C7.05402 18.2512 7.29252 18.8041 7.78494 19.2419C8.27736 19.6798 8.85429 19.8521 9.45478 19.9289C10.0129 20.0002 10.7018 20.0002 11.4959 20.0001H12.504C13.2982 20.0002 13.9871 20.0002 14.5452 19.9289C15.1457 19.8521 15.7226 19.6798 16.215 19.2419C16.7074 18.8041 16.946 18.2512 17.0924 17.6638C17.2284 17.1179 17.3089 16.4337 17.4016 15.6449V15.6449L17.9931 10.617L16.0068 10.3833L15.4224 15.3506C15.3205 16.2175 15.2532 16.773 15.1517 17.1801C15.0571 17.5597 14.962 17.6798 14.886 17.7474C14.81 17.815 14.6796 17.8954 14.2916 17.945C13.8754 17.9982 13.3158 18.0001 12.443 18.0001H11.557C10.6842 18.0001 10.1245 17.9982 9.70839 17.945C9.32041 17.8954 9.18995 17.815 9.11397 17.7474C9.03799 17.6798 8.94285 17.5597 8.84826 17.1801C8.7468 16.773 8.67952 16.2175 8.57753 15.3506Z" fill="currentColor"/>
</svg>
