<svg width="14" height="16" viewBox="0 0 14 16" fill="none" xmlns="http://www.w3.org/2000/svg">
<path fill-rule="evenodd" clip-rule="evenodd" d="M6.99995 -2.91129e-06L6.90627 -6.32312e-05C6.46527 -0.000491789 6.08025 -0.000865988 5.72266 0.0873838C4.97062 0.272981 4.31952 0.74227 3.90563 1.39703C3.70883 1.70836 3.58743 2.07374 3.44838 2.49225L3.27919 3H0V5H14V3H10.7207L10.5515 2.49224C10.4125 2.07374 10.2911 1.70835 10.0943 1.39703C9.68039 0.74227 9.02928 0.272981 8.27724 0.0873838C7.91965 -0.000865988 7.53463 -0.000491789 7.09363 -6.32312e-05L6.99995 -2.91129e-06ZM8.61205 3C8.48477 2.62409 8.44589 2.53239 8.40372 2.46567C8.26575 2.24742 8.04872 2.09099 7.79804 2.02913C7.7086 2.00705 7.58828 2 6.99995 2C6.41162 2 6.29131 2.00705 6.20187 2.02913C5.95119 2.09099 5.73415 2.24742 5.59619 2.46567C5.55402 2.53239 5.51514 2.62409 5.38786 3H8.61205Z" fill="currentColor"/>
<path d="M2.99314 6.38315L3.57753 11.3505C3.67952 12.2174 3.7468 12.7729 3.84826 13.18C3.94285 13.5595 4.03799 13.6797 4.11397 13.7473C4.18995 13.8148 4.32041 13.8953 4.70839 13.9449C5.12455 13.9981 5.68415 14 6.55698 14H7.44299C8.31582 14 8.87543 13.9981 9.29158 13.9449C9.67956 13.8953 9.81002 13.8148 9.886 13.7473C9.96198 13.6797 10.0571 13.5595 10.1517 13.18C10.2532 12.7729 10.3205 12.2174 10.4224 11.3505L11.0068 6.38315L12.9931 6.61683L12.4016 11.6448C12.3089 12.4335 12.2284 13.1178 12.0924 13.6637C11.946 14.2511 11.7074 14.8039 11.215 15.2418C10.7226 15.6797 10.1457 15.852 9.54519 15.9287C8.98711 16.0001 8.29817 16 7.50402 16H6.49595C5.7018 16 5.01286 16.0001 4.45478 15.9287C3.85429 15.852 3.27736 15.6797 2.78494 15.2418C2.29252 14.8039 2.05402 14.2511 1.90762 13.6637C1.77156 13.1178 1.6911 12.4335 1.59836 11.6448L1.00684 6.61683L2.99314 6.38315Z" fill="currentColor"/>
</svg>
