<svg width="24" height="24" viewBox="0 0 24 24" fill="none" xmlns="http://www.w3.org/2000/svg">
<path fill-rule="evenodd" clip-rule="evenodd" d="M10.0014 7.85874C10.0032 7.93562 10.0073 8.11163 10.0167 7.97376C10.0323 7.74576 10.0589 7.65893 10.0761 7.61732C10.1776 7.37229 10.3723 7.17762 10.6173 7.07612C10.6589 7.05889 10.7458 7.03227 10.9738 7.01671C11.2107 7.00054 11.5204 7 12 7C12.4796 7 12.7893 7.00054 13.0262 7.01671C13.2542 7.03227 13.3411 7.05889 13.3827 7.07612C13.6277 7.17762 13.8224 7.37229 13.9239 7.61732C13.9411 7.65893 13.9677 7.74576 13.9833 7.97376C13.9995 8.21074 14 8.52038 14 9V10H9C7.58579 10 6.87868 10 6.43934 10.4393C6 10.8787 6 11.5858 6 13C6 15.8284 6 17.2426 6.87868 18.1213C7.75736 19 9.17157 19 12 19C14.8284 19 16.2426 19 17.1213 18.1213C18 17.2426 18 15.8284 18 13C18 11.5858 18 10.8787 17.5607 10.4393C17.24 10.1187 16.7767 10.0321 16 10.0087L16 8.96801C16 8.52936 16 8.15088 15.9787 7.83762C15.9561 7.50779 15.9066 7.17788 15.7716 6.85195C15.4672 6.11687 14.8831 5.53285 14.1481 5.22836C13.8221 5.09336 13.4922 5.04386 13.1624 5.02135C12.8491 4.99998 12.4707 4.99999 12.0321 5H12.032H11.968H11.9679C11.5293 4.99999 11.1509 4.99998 10.8376 5.02135C10.5078 5.04386 10.1779 5.09336 9.85195 5.22836C9.11687 5.53285 8.53284 6.11687 8.22836 6.85195C8.09336 7.17788 8.04385 7.50779 8.02135 7.83762C8.00599 8.06275 8.00167 7.80509 8.00047 7.80511C7.99999 7.80511 8 7.84461 8 7.96802L8 8C8 8.55229 8.44772 9 9 9C9.55229 9 10 8.55229 10 8C10 7.79942 10.0001 7.80347 10.0014 7.85874ZM14.998 12C14.9987 12 14.9993 12 15 12C15.361 12 15.6429 12.0001 15.8845 12.0062C15.922 12.0072 15.9573 12.0082 15.9906 12.0094C15.9918 12.0427 15.9928 12.078 15.9938 12.1155C15.9999 12.3571 16 12.639 16 13C16 14.4708 15.9958 15.3726 15.908 16.0253C15.8309 16.599 15.7212 16.6948 15.7082 16.7062L15.7071 16.7071L15.7062 16.7082C15.6948 16.7212 15.599 16.8309 15.0253 16.908C14.3726 16.9958 13.4708 17 12 17C10.5292 17 9.62738 16.9958 8.97468 16.908C8.40098 16.8309 8.3052 16.7212 8.29383 16.7082L8.29289 16.7071L8.29185 16.7062C8.27884 16.6948 8.16913 16.599 8.092 16.0253C8.00425 15.3726 8 14.4708 8 13C8 12.639 8.00013 12.3571 8.00623 12.1155C8.00717 12.078 8.00824 12.0427 8.00942 12.0094C8.04273 12.0082 8.07804 12.0072 8.11551 12.0062C8.35713 12.0001 8.63901 12 9 12H14.998ZM10.5 14.5C10.5 13.6716 11.1716 13 12 13C12.8284 13 13.5 13.6716 13.5 14.5C13.5 15.3284 12.8284 16 12 16C11.1716 16 10.5 15.3284 10.5 14.5Z" fill="currentColor"/>
</svg>
