<svg width="256" height="256" fill="none" xmlns="http://www.w3.org/2000/svg"><g clip-path="url(#a)"><path d="M74.953 180.284v17.528h106.093v-17.528h17.682V75.116h-17.682V57.588H74.953v17.528H57.27v105.168h17.683Z" fill="#FFEDD8"/><path fill-rule="evenodd" clip-rule="evenodd" d="M230.877 83.084h-57.869V25.719h57.869v57.365Zm-147.886 0H25.12V25.72h57.87v19.122h90.016v19.121H82.991v19.121ZM25.12 229.683h57.87v-19.124h90.016v-19.121H82.991v-19.12H63.703V83.086h-19.29v89.232H25.122v57.365Zm205.756 0h-57.869v-57.365H192.3V83.086h19.29v89.232h19.287v57.365Z" fill="#FFB156"/></g><defs><clipPath id="a"><path fill="#fff" transform="translate(25.122 25.72)" d="M0 0h205.757v203.963H0z"/></clipPath></defs></svg>