<svg width="205" height="146" viewBox="0 0 205 146" fill="none" xmlns="http://www.w3.org/2000/svg">
<g clip-path="url(#clip0_0_59)">
<rect width="205" height="146" fill="#FFA663"/>
<g filter="url(#filter0_f_0_59)">
<path d="M101.443 54.5763C84.8893 70.5562 28.0568 88.3121 1.70972 95.1926C-14.6921 99.7801 -15.0242 123.983 -10.8754 165.949C-6.72663 207.915 62.9525 164.858 96.9254 148.528C130.898 132.198 224.742 145.814 265.221 142.644C305.699 139.475 287.083 91.4422 285.817 74.6764C284.551 57.9105 259.404 43.6078 241.192 26.4704C222.979 9.33288 122.135 34.6015 101.443 54.5763Z" fill="#FF7557"/>
</g>
<g filter="url(#filter1_f_0_59)">
<path d="M-40.5659 -29.3306C-35.1749 -66.6489 7.01414 -45.8309 27.4348 -30.7571C40.4599 -12.4675 70.2132 28.8381 85.0254 47.7429C103.541 71.3739 35.207 169.976 9.72446 168.517C-15.7581 167.058 -45.3646 90.8939 -29.8422 60.8866C-14.3199 30.8794 -47.3048 17.3172 -40.5659 -29.3306Z" fill="#E37BD3"/>
</g>
</g>
<defs>
<filter id="filter0_f_0_59" x="-56.7628" y="-22.8656" width="391.605" height="250.32" filterUnits="userSpaceOnUse" color-interpolation-filters="sRGB">
<feFlood flood-opacity="0" result="BackgroundImageFix"/>
<feBlend mode="normal" in="SourceGraphic" in2="BackgroundImageFix" result="shape"/>
<feGaussianBlur stdDeviation="21.83" result="effect1_foregroundBlur_0_59"/>
</filter>
<filter id="filter1_f_0_59" x="-115.127" y="-123.96" width="276.932" height="366.133" filterUnits="userSpaceOnUse" color-interpolation-filters="sRGB">
<feFlood flood-opacity="0" result="BackgroundImageFix"/>
<feBlend mode="normal" in="SourceGraphic" in2="BackgroundImageFix" result="shape"/>
<feGaussianBlur stdDeviation="36.82" result="effect1_foregroundBlur_0_59"/>
</filter>
<clipPath id="clip0_0_59">
<rect width="205" height="146" fill="white"/>
</clipPath>
</defs>
</svg>
