<?xml version="1.0"?>
<svg xmlns="http://www.w3.org/2000/svg" xmlns:xlink="http://www.w3.org/1999/xlink" version="1.1" id="Capa_1" x="0px" y="0px" viewBox="0 0 512 512" style="enable-background:new 0 0 512 512;" xml:space="preserve" width="512px" height="512px" class=""><g><polyline style="fill:#7A960D" points="498.334,19 300.144,305.103 279.486,334.925 279.486,435.065 354.796,361.463   316.334,289.667 " data-original="#F5C86E" class="active-path" data-old_color="#F5C86E"/><polyline style="fill:#8AAD00" points="209.505,313.515 64,269 502,10 502,403 283,336 " data-original="#FAE196" class="" data-old_color="#FAE196"/><polygon style="fill:#566C00" points="279.486,435.065 213.353,314.693 498.334,19 285.632,326.052 " data-original="#F5B955" class="" data-old_color="#F5B955"/><path d="M506.955,1.314c-3.119-1.78-6.955-1.75-10.045,0.078L313.656,109.756c-4.754,2.811-6.329,8.943-3.518,13.697  c2.81,4.753,8.942,6.328,13.697,3.518l131.482-77.749L210.411,303.335L88.603,266.069l158.965-94  c4.754-2.812,6.329-8.944,3.518-13.698c-2.81-4.753-8.943-6.33-13.697-3.518L58.91,260.392c-3.41,2.017-5.309,5.856-4.84,9.791  s3.216,7.221,7.004,8.38l145.469,44.504L270.72,439.88c0.067,0.121,0.136,0.223,0.207,0.314c1.071,1.786,2.676,3.245,4.678,4.087  c1.253,0.527,2.57,0.784,3.878,0.784c2.563,0,5.086-0.986,6.991-2.849l73.794-72.12l138.806,42.466  c0.96,0.293,1.945,0.438,2.925,0.438c2.116,0,4.206-0.672,5.948-1.961C510.496,409.153,512,406.17,512,403V10  C512,6.409,510.074,3.093,506.955,1.314z M419.584,115.12L271.265,329.23c-1.158,1.673-1.779,3.659-1.779,5.694v61.171  l-43.823-79.765L419.584,115.12z M289.486,411.309v-62.867l48.99,14.988L289.486,411.309z M295.501,329.367L492,45.704v343.779  L295.501,329.367z" data-original="#000000" class="" style="fill:#000000"/><path d="M164.423,347.577c-3.906-3.905-10.236-3.905-14.143,0l-93.352,93.352c-3.905,3.905-3.905,10.237,0,14.143  C58.882,457.024,61.441,458,64,458c2.559,0,5.118-0.976,7.071-2.929l93.352-93.352C168.328,357.815,168.328,351.483,164.423,347.577  z" data-original="#000000" class="" style="fill:#000000"/><path d="M25.929,471.929l-23,23c-3.905,3.905-3.905,10.237,0,14.143C4.882,511.024,7.441,512,10,512s5.118-0.977,7.071-2.929l23-23  c3.905-3.905,3.905-10.237,0-14.143C36.165,468.025,29.835,468.025,25.929,471.929z" data-original="#000000" class="" style="fill:#000000"/><path d="M135.58,491.41c-2.641,0-5.21,1.07-7.07,2.93c-1.86,1.86-2.93,4.43-2.93,7.07c0,2.63,1.069,5.21,2.93,7.07  c1.86,1.86,4.44,2.93,7.07,2.93s5.21-1.07,7.069-2.93c1.86-1.86,2.931-4.44,2.931-7.07c0-2.64-1.07-5.21-2.931-7.07  C140.79,492.48,138.21,491.41,135.58,491.41z" data-original="#000000" class="" style="fill:#000000"/><path d="M202.909,419.935l-49.446,49.445c-3.905,3.905-3.905,10.237,0,14.142c1.953,1.953,4.512,2.929,7.071,2.929  s5.118-0.977,7.071-2.929l49.446-49.445c3.905-3.905,3.905-10.237,0-14.142C213.148,416.03,206.818,416.03,202.909,419.935z" data-original="#000000" class="" style="fill:#000000"/><path d="M373.562,416.139l-49.58,49.58c-3.905,3.905-3.905,10.237,0,14.143c1.953,1.952,4.512,2.929,7.071,2.929  s5.118-0.977,7.071-2.929l49.58-49.58c3.905-3.905,3.905-10.237,0-14.143C383.798,412.235,377.468,412.235,373.562,416.139z" data-original="#000000" class="" style="fill:#000000"/><path d="M276.43,153.38c2.63,0,5.21-1.06,7.07-2.93c1.859-1.86,2.93-4.43,2.93-7.06c0-2.64-1.07-5.22-2.93-7.08  s-4.44-2.93-7.07-2.93s-5.21,1.07-7.07,2.93c-1.859,1.86-2.93,4.44-2.93,7.08c0,2.63,1.07,5.2,2.93,7.06  C271.22,152.32,273.8,153.38,276.43,153.38z" data-original="#000000" class="" style="fill:#000000"/></g> </svg>
